<svg width="200" height="200" viewBox="0 0 200 200" fill="none" xmlns="http://www.w3.org/2000/svg">
<path d="M159.673 57.9935C159.673 46.7233 156.329 35.7063 150.064 26.3355C143.799 16.9647 134.895 9.6611 124.477 5.34821C114.059 1.03531 102.595 -0.0931402 91.5358 2.10555C80.4761 4.30425 70.3172 9.73133 62.3436 17.7005C54.37 25.6697 48.94 35.8231 46.74 46.8767C44.5401 57.9302 45.6692 69.3876 49.9845 79.7998C54.2998 90.2121 61.6074 99.1116 70.9833 105.373C80.3593 111.634 91.3824 114.976 102.659 114.976C117.772 114.951 132.259 108.939 142.946 98.2582C153.632 87.5774 159.647 73.0984 159.673 57.9935ZM152.91 57.9935C152.91 67.932 149.961 77.6473 144.437 85.9109C138.912 94.1745 131.06 100.615 121.873 104.418C112.686 108.222 102.577 109.217 92.8237 107.278C83.0708 105.339 74.1121 100.553 67.0807 93.5256C60.0492 86.498 55.2607 77.5443 53.3207 67.7968C51.3808 58.0492 52.3764 47.9456 56.1818 38.7636C59.9872 29.5816 66.4315 21.7336 74.6996 16.212C82.9677 10.6905 92.6884 7.74339 102.632 7.74339C115.963 7.75731 128.743 13.056 138.169 22.4767C147.595 31.8974 152.896 44.6706 152.91 57.9935Z" fill="#CCCCCC"/>
<path d="M179.885 142.442C179.115 142.439 178.354 142.282 177.646 141.981C176.939 141.68 176.298 141.241 175.762 140.689L138.387 102.773C137.853 102.232 137.431 101.59 137.145 100.886C136.86 100.181 136.715 99.4269 136.721 98.6666C136.727 97.9063 136.882 97.1545 137.179 96.4543C137.475 95.754 137.907 95.1189 138.449 94.5853C138.99 94.0517 139.632 93.63 140.337 93.3443C141.042 93.0586 141.797 92.9145 142.557 92.9202C143.318 92.9259 144.07 93.0813 144.771 93.3775C145.472 93.6738 146.107 94.105 146.641 94.6467L184.016 132.58C184.819 133.394 185.362 134.426 185.579 135.548C185.796 136.67 185.676 137.831 185.235 138.885C184.793 139.939 184.05 140.839 183.098 141.472C182.146 142.105 181.028 142.443 179.885 142.442V142.442Z" fill="#CCCCCC"/>
<path d="M197.798 154.487C196.507 155.754 194.767 156.458 192.959 156.445C191.15 156.432 189.42 155.703 188.149 154.417L144.143 109.787C143.899 109.539 143.676 109.273 143.476 108.989C143.363 108.84 143.258 108.684 143.16 108.524C142.847 107.996 142.705 107.383 142.755 106.77C142.806 106.157 143.045 105.576 143.441 105.105C144.292 104.09 145.222 103.143 146.222 102.274C147.374 101.252 148.622 100.345 149.949 99.5648C150.492 99.2424 151.122 99.0978 151.752 99.1513C152.381 99.2047 152.977 99.4535 153.458 99.8628V99.8628C153.592 99.967 153.718 100.081 153.835 100.205L197.833 144.827C198.467 145.462 198.97 146.216 199.312 147.047C199.654 147.877 199.828 148.767 199.825 149.664C199.822 150.562 199.641 151.45 199.293 152.278C198.945 153.106 198.437 153.857 197.798 154.487V154.487Z" fill="#473F47"/>
<path d="M183.799 191.894C183.209 191.905 182.622 191.97 182.044 192.087C181.757 192.151 181.487 192.272 181.248 192.444C181.01 192.616 180.809 192.835 180.658 193.087C180.463 193.571 180.443 194.108 180.604 194.604C180.764 195.101 181.094 195.526 181.536 195.804C182.44 196.303 183.47 196.529 184.5 196.453C185.151 196.488 185.801 196.377 186.404 196.129C187.141 195.76 187.763 194.989 188.579 195.085C188.935 195.165 189.275 195.301 189.588 195.489C190.188 195.775 190.874 195.824 191.509 195.626C192.143 195.428 192.679 194.996 193.009 194.419C193.173 194.045 193.265 193.644 193.281 193.236C193.386 191.929 192.956 190.422 191.807 189.869C190.43 189.212 189.588 189.983 188.491 190.606C187.036 191.362 185.436 191.801 183.799 191.894V191.894Z" fill="#D86B7F"/>
<path d="M183.56 184.794L187.946 191.71C187.946 191.71 189.885 192.438 191.042 191.71L192.2 191.018L189.244 180.778L183.56 184.794Z" fill="#FCBDBA"/>
<path d="M170.098 134.245C170.098 134.245 171.896 154.067 172.729 158.792C174.571 168.917 182.843 184.881 182.843 184.881C182.843 184.881 188.044 186.082 189.298 183.329L190.009 181.76C190.009 181.76 181.027 160.589 185.965 142.845C186.097 142.324 186.194 141.793 186.255 141.259C186.524 139.21 186.607 137.142 186.5 135.078L170.098 134.245Z" fill="#473F47"/>
<path d="M168.109 194.472C167.529 194.375 166.942 194.334 166.354 194.349C166.056 194.362 165.763 194.434 165.494 194.562C165.224 194.69 164.983 194.871 164.784 195.094C164.505 195.55 164.395 196.09 164.474 196.619C164.552 197.147 164.814 197.632 165.214 197.987C166.025 198.651 167.013 199.063 168.056 199.171C168.703 199.319 169.374 199.319 170.021 199.171C170.828 198.934 171.591 198.294 172.38 198.513C172.727 198.658 173.047 198.859 173.328 199.109C173.873 199.514 174.553 199.692 175.226 199.607C175.9 199.522 176.514 199.181 176.941 198.653C177.172 198.306 177.338 197.92 177.433 197.514C177.766 196.225 177.617 194.638 176.556 193.876C175.301 192.999 174.319 193.595 173.108 194.016C171.494 194.524 169.789 194.679 168.109 194.472Z" fill="#D86B7F"/>
<path d="M169.159 187.283L172.308 194.998C172.308 194.998 174.115 196.085 175.404 195.603L176.685 195.121L175.579 184.338L169.159 187.283Z" fill="#FCBDBA"/>
<path d="M145.759 108.787C145.548 108.507 145.277 108.2 144.934 108.244C144.733 108.244 144.54 108.428 144.338 108.375C144.215 108.328 144.108 108.246 144.031 108.138C143.549 107.627 143.014 107.168 142.435 106.771C142.078 106.46 141.65 106.244 141.189 106.14C140.866 106.118 140.543 106.189 140.259 106.344C139.974 106.499 139.74 106.733 139.584 107.016C139.289 107.627 139.218 108.322 139.382 108.98C139.555 109.623 139.815 110.239 140.154 110.812C140.374 111.235 140.645 111.63 140.961 111.987C141.97 113.039 143.54 113.214 144.829 113.863C144.965 113.946 145.118 113.997 145.277 114.012C145.416 113.992 145.549 113.938 145.663 113.856C145.778 113.773 145.871 113.665 145.934 113.539C146.435 112.827 146.737 111.995 146.812 111.128C146.718 110.256 146.35 109.436 145.759 108.787V108.787Z" fill="#FCBDBA"/>
<path d="M158.3 100.424C158.148 100.381 157.985 100.396 157.844 100.468C157.765 100.532 157.694 100.605 157.633 100.687C157.362 100.985 156.914 100.994 156.555 101.151C156.325 101.273 156.124 101.441 155.964 101.644C155.804 101.848 155.688 102.084 155.625 102.335C155.499 102.845 155.443 103.37 155.458 103.895C155.435 104.173 155.464 104.453 155.546 104.719C155.588 104.85 155.668 104.965 155.776 105.049C155.884 105.133 156.014 105.184 156.151 105.193C156.371 105.159 156.578 105.071 156.756 104.939C157.122 104.737 157.547 104.668 157.958 104.746C158.489 104.912 158.997 105.148 159.467 105.447C159.705 105.589 159.978 105.664 160.256 105.664C160.534 105.664 160.807 105.589 161.046 105.447C161.265 105.257 161.434 105.016 161.537 104.746C161.975 103.799 162.467 102.712 161.589 101.932C160.658 101.128 159.517 100.605 158.3 100.424V100.424Z" fill="#FCBDBA"/>
<path d="M164.771 134.272C164.771 134.272 163.017 154.435 163.017 159.309C163.017 169.776 168.411 187.257 168.411 187.257C168.411 187.257 173.402 189.396 175.148 186.862L176.174 185.416C176.174 185.416 171.008 162.623 179.156 145.747C179.382 145.251 179.569 144.738 179.718 144.213C180.359 142.213 180.817 140.159 181.086 138.076L164.771 134.272Z" fill="#473F47"/>
<path d="M167.219 82.8118C166.549 84.1494 166.122 85.5947 165.956 87.0811C165.88 87.8268 166.002 88.5793 166.31 89.2627C166.618 89.9462 167.101 90.5363 167.71 90.9735C168.074 91.1491 168.415 91.3668 168.728 91.6222C169.798 92.7268 168.561 94.7256 169.193 96.1545C169.451 96.6481 169.826 97.0717 170.284 97.3892C170.742 97.7068 171.271 97.9088 171.824 97.978C172.723 98.0629 173.63 97.915 174.455 97.5484C174.715 97.4764 174.954 97.3456 175.155 97.1662C175.356 96.9868 175.513 96.7637 175.613 96.514C175.655 96.1363 175.604 95.7541 175.464 95.4006C174.683 92.3937 176.692 89.264 176.341 86.1957C176.017 83.5657 173.122 78.5337 169.903 78.9983C168.21 79.2175 167.763 81.5582 167.219 82.8118Z" fill="#FCBDBA"/>
<path d="M144.952 114.661C144.952 114.661 157.232 125.593 158.065 125.593C158.898 125.593 162.793 120.71 164.021 119.184L164.372 118.728L164.81 134.272C166.323 135.159 167.897 135.939 169.521 136.604C171.659 137.535 173.923 138.147 176.239 138.418C176.972 138.488 177.709 138.488 178.441 138.418C184.397 137.875 187.011 135.885 187.011 135.885L183.941 105.202C183.747 103.029 182.947 100.955 181.632 99.2145C180.317 97.4741 178.54 96.1375 176.503 95.3568C175.741 94.9965 174.887 94.8772 174.055 95.0149C172.358 95.3186 170.621 95.3186 168.924 95.0149C165.503 94.559 162.012 99.2316 162.012 99.2316L157.46 114.135L146.785 110.339C146.074 110.785 145.517 111.439 145.189 112.212C144.861 112.985 144.778 113.839 144.952 114.661Z" fill="#40798C"/>
<path d="M168.869 81.2951C169.562 81.9351 170.255 82.3384 170.553 83.2852C170.75 83.992 170.822 84.7278 170.764 85.4593C170.887 85.4593 170.983 85.3628 171.036 85.2401C171.055 85.1169 171.113 85.0031 171.202 84.9157C171.243 84.8959 171.287 84.885 171.332 84.8837C171.377 84.8824 171.422 84.8908 171.464 84.9082C171.505 84.9257 171.542 84.9518 171.573 84.9848C171.604 85.0179 171.627 85.0571 171.641 85.0998C171.699 85.2764 171.699 85.4668 171.641 85.6434C171.352 86.8093 170.966 87.9402 170.764 89.15C170.764 89.2815 170.764 89.4305 170.694 89.562C170.63 89.9477 170.651 90.3425 170.755 90.7192C170.896 91.0785 171.111 91.404 171.387 91.6748C171.551 91.8988 171.756 92.0893 171.992 92.2359C172.213 92.3454 172.45 92.4193 172.694 92.455C173.485 92.5471 174.284 92.5293 175.071 92.4024C175.735 92.3336 176.386 92.1651 177 91.9027C177.383 91.7167 177.75 91.4997 178.097 91.254C178.938 90.6845 179.725 90.0389 180.447 89.3253C182.202 87.686 182.781 84.4073 182.746 82.1104C182.746 81.8737 182.746 81.6283 182.746 81.3828C182.689 80.6635 182.524 79.957 182.254 79.2876C181.536 77.7679 180.329 76.533 178.825 75.781C175.755 74.1241 171.185 73.2825 168.299 75.9388C168.152 76.0704 168.022 76.2207 167.913 76.3859C167.01 77.7359 167.79 80.2958 168.869 81.2951Z" fill="#1E1E1E"/>
<path d="M170.746 90.6841C170.887 91.0434 171.103 91.3689 171.378 91.6397C171.542 91.8637 171.747 92.0542 171.983 92.2007C172.204 92.3102 172.441 92.3842 172.685 92.4199C173.476 92.5119 174.276 92.4942 175.062 92.3673C175.726 92.2985 176.377 92.13 176.992 91.8676C177.374 91.6815 177.741 91.4646 178.088 91.2189C178.929 90.6493 179.716 90.0037 180.439 89.2902C182.193 87.6509 182.772 84.3722 182.737 82.0753C182.737 81.8386 182.737 81.5931 182.737 81.3477C182.079 80.8392 181.281 80.5499 180.711 81.1548C180.35 81.6999 180.099 82.3105 179.974 82.952C179.695 83.7064 179.349 84.434 178.939 85.1261C178.555 85.8281 178.04 86.4501 177.421 86.9583C176.328 87.6907 175.073 88.1452 173.764 88.2821C173.665 87.7241 173.713 87.15 173.904 86.6164C173.298 87.3326 172.585 87.9506 171.79 88.4486C171.439 88.6766 171.062 88.887 170.711 89.15C170.711 89.2815 170.711 89.4305 170.641 89.562C170.597 89.9393 170.633 90.3216 170.746 90.6841Z" fill="url(#paint0_linear)"/>
<path d="M181.736 78.2004C182.179 78.0074 182.649 77.8832 183.13 77.8323C183.22 77.8075 183.314 77.8058 183.405 77.8273C183.495 77.8488 183.579 77.8927 183.648 77.955C184.419 78.6557 184.919 79.6054 185.06 80.6376C185.187 81.0697 185.187 81.5292 185.06 81.9613C184.946 82.2377 184.765 82.4817 184.534 82.6714C184.066 83.0938 183.468 83.3427 182.838 83.3762C182.209 83.4098 181.588 83.2259 181.078 82.8555C179.771 81.7246 180.166 78.9544 181.736 78.2004Z" fill="#D86B7F"/>
<path d="M190.094 101.467C190.066 101.18 189.964 100.904 189.796 100.669C189.91 100.929 190.009 101.196 190.094 101.467Z" fill="#F6A569"/>
<path d="M184.484 95.4619C184.457 94.9971 184.525 94.5316 184.685 94.0943C184.845 93.657 185.093 93.2572 185.414 92.9196C185.127 94.0495 185.188 95.2396 185.589 96.3344C185.99 97.4292 186.711 98.3778 187.66 99.0562C188.151 99.3893 188.703 99.6523 189.168 100.021C189.404 100.208 189.613 100.426 189.791 100.669C189.396 99.8797 189.138 99.029 189.028 98.1533C189.001 97.8347 189.046 97.514 189.16 97.2152C189.219 97.0663 189.305 96.9296 189.414 96.812C189.576 96.6345 189.748 96.4676 189.931 96.3123C191.35 94.9451 192.62 93.4317 193.721 91.7975C195.126 90.1096 196.203 88.174 196.896 86.0904C197.357 84.1877 197.284 82.1948 196.685 80.3308C196.172 78.4025 195.064 76.6847 193.519 75.4215C192.625 74.8279 191.61 74.4413 190.548 74.2896C189.486 74.1379 188.403 74.2251 187.379 74.5448C187.379 74.5448 182.072 75.5705 182.888 79.5418C183.099 80.5412 183.335 81.4792 183.511 82.3734C184.072 85.056 184.239 87.3879 182.204 90.0354C180.888 91.6923 182.511 94.6378 184.484 95.4619Z" fill="#1E1E1E"/>
<path d="M190.094 101.467C190.066 101.18 189.964 100.904 189.796 100.669C189.91 100.929 190.009 101.196 190.094 101.467Z" fill="url(#paint1_linear)"/>
<path d="M184.485 95.462C184.458 94.9972 184.526 94.5317 184.686 94.0944C184.846 93.6571 185.094 93.2573 185.415 92.9197C185.128 94.0496 185.189 95.2397 185.59 96.3345C185.99 97.4293 186.712 98.3778 187.661 99.0563C188.152 99.3894 188.704 99.6524 189.169 100.021C189.405 100.208 189.614 100.426 189.792 100.669C189.397 99.8798 189.139 99.0291 189.029 98.1533C189.001 97.8347 189.046 97.5141 189.16 97.2153C189.22 97.0664 189.306 96.9297 189.415 96.812C188.765 95.698 188.392 94.4444 188.327 93.1564C188.248 90.5264 189.81 87.9578 189.555 85.2664C188.711 86.6059 187.567 87.7313 186.213 88.5539C186.783 87.1074 185.257 81.6984 183.503 82.3033C184.064 84.9859 184.231 87.3178 182.196 89.9653C180.889 91.6923 182.512 94.6379 184.485 95.462Z" fill="url(#paint2_linear)"/>
<path d="M164.018 121.623L164.369 121.168L164.807 136.711C166.32 137.598 167.894 138.378 169.517 139.043C171.656 139.974 173.92 140.586 176.236 140.857C176.102 139.03 175.314 137.312 174.017 136.018C173.193 135.203 172.166 134.572 171.386 133.695C170.427 132.474 169.769 131.044 169.465 129.522C167.974 123.684 168.123 117.573 168.272 111.559C167.395 113.812 166.518 116.092 165.64 118.31C165.149 119.44 164.421 120.466 164.018 121.623Z" fill="url(#paint3_linear)" fill-opacity="0.1"/>
<path d="M135.079 42.8935L98.5286 36.9576C97.4444 36.7815 96.4226 37.5182 96.2464 38.6031C96.0702 39.6879 96.8064 40.7101 97.8906 40.8862L134.441 46.822C135.525 46.9981 136.547 46.2614 136.723 45.1766C136.899 44.0917 136.163 43.0695 135.079 42.8935Z" fill="#CBCCCC"/>
<path d="M133.681 51.5058L97.1302 45.5699C96.0459 45.3938 95.0242 46.1305 94.848 47.2154C94.6718 48.3002 95.4079 49.3224 96.4922 49.4985L133.043 55.4343C134.127 55.6104 135.149 54.8737 135.325 53.7889C135.501 52.704 134.765 51.6819 133.681 51.5058Z" fill="#CBCCCC"/>
<path d="M130.367 71.9038L93.8167 65.968C92.7325 65.7919 91.7107 66.5286 91.5345 67.6134C91.3583 68.6983 92.0945 69.7205 93.1787 69.8966L129.729 75.8324C130.813 76.0085 131.835 75.2718 132.011 74.1869C132.187 73.1021 131.451 72.0799 130.367 71.9038Z" fill="#CBCCCC"/>
<path d="M128.969 80.516L92.4182 74.5802C91.334 74.4041 90.3123 75.1408 90.1361 76.2256C89.9599 77.3105 90.696 78.3327 91.7802 78.5087L128.331 84.4446C129.415 84.6207 130.437 83.884 130.613 82.7991C130.789 81.7143 130.053 80.6921 128.969 80.516Z" fill="#CBCCCC"/>
<path opacity="0.18" d="M148.588 198.171C124.361 198.171 104.72 193.335 104.72 187.37C104.72 181.405 124.361 176.569 148.588 176.569C172.816 176.569 192.456 181.405 192.456 187.37C192.456 193.335 172.816 198.171 148.588 198.171Z" fill="#40798C" fill-opacity="0.5"/>
<path opacity="0.18" d="M68.1757 36.5949C67.671 39.0416 67.8748 41.5772 68.7612 43.8809C69.6475 46.1846 71.1768 48.1531 73.1554 49.5374C75.134 50.9216 77.4733 51.6595 79.8773 51.6577C82.2813 51.6559 84.642 50.9145 86.6611 49.5273C88.6801 48.14 90.2668 46.1692 91.2203 43.8641C92.1739 41.559 92.4515 39.0231 92.0182 36.5771C91.5849 34.1311 90.46 31.8848 88.7858 30.1223C87.1116 28.3599 84.9634 27.1604 82.6127 26.6755C79.4605 26.0253 76.1685 26.7052 73.4611 28.5654C70.7536 30.4257 68.8524 33.3139 68.1757 36.5949Z" fill="#8E8F8F"/>
<path opacity="0.34" d="M79.8552 41.7296C77.9122 41.3289 76.6753 39.3646 77.0924 37.3422C77.5095 35.3199 79.4228 34.0053 81.3657 34.4061C83.3087 34.8068 84.5456 36.7711 84.1285 38.7935C83.7114 40.8158 81.7982 42.1304 79.8552 41.7296Z" fill="#8E8F8F"/>
<path opacity="0.34" d="M70.7121 47.2725C72.529 49.5077 75.0532 50.9996 77.8465 51.4893C80.6397 51.9791 83.5256 51.4357 86.0031 49.9535C85.8228 48.1503 85.0837 46.4654 83.8962 45.1508C82.7086 43.8362 81.1366 42.9627 79.4153 42.6609C77.6939 42.3591 75.9158 42.6452 74.347 43.4765C72.7782 44.3078 71.5029 45.6396 70.7121 47.2725V47.2725Z" fill="#8E8F8F"/>
<path opacity="0.18" d="M62.9286 65.201C62.424 67.6477 62.6277 70.1832 63.5141 72.487C64.4005 74.7907 65.9297 76.7592 67.9083 78.1435C69.887 79.5277 72.2262 80.2656 74.6302 80.2638C77.0342 80.262 79.395 79.5206 81.414 78.1334C83.4331 76.7461 85.0197 74.7753 85.9732 72.4702C86.9268 70.1651 87.2045 67.6292 86.7711 65.1832C86.3378 62.7371 85.2129 60.4909 83.5387 58.7284C81.8646 56.9659 79.7163 55.7664 77.3656 55.2816C74.2134 54.6314 70.9215 55.3112 68.214 57.1715C65.5066 59.0317 63.6053 61.92 62.9286 65.201Z" fill="#8E8F8F"/>
<path opacity="0.34" d="M74.6081 70.3357C72.6652 69.935 71.4282 67.9707 71.8454 65.9483C72.2625 63.926 74.1757 62.6114 76.1187 63.0122C78.0616 63.4129 79.2986 65.3772 78.8815 67.3996C78.4643 69.4219 76.5511 70.7365 74.6081 70.3357Z" fill="#8E8F8F"/>
<path opacity="0.34" d="M65.465 75.8786C67.282 78.1137 69.8062 79.6057 72.5994 80.0954C75.3927 80.5852 78.2785 80.0418 80.756 78.5596C80.5758 76.7564 79.8366 75.0715 78.6491 73.7569C77.4616 72.4423 75.8895 71.5688 74.1682 71.267C72.4469 70.9652 70.6688 71.2513 69.0999 72.0826C67.5311 72.9139 66.2559 74.2457 65.465 75.8786V75.8786Z" fill="#8E8F8F"/>
<defs>
<linearGradient id="paint0_linear" x1="-922.09" y1="1910.14" x2="-770.011" y2="2250.8" gradientUnits="userSpaceOnUse">
<stop offset="0.01"/>
<stop offset="0.13" stop-opacity="0.69"/>
<stop offset="0.25" stop-opacity="0.32"/>
<stop offset="1" stop-opacity="0"/>
</linearGradient>
<linearGradient id="paint1_linear" x1="168.946" y1="247.436" x2="168.465" y2="247.635" gradientUnits="userSpaceOnUse">
<stop offset="0.01"/>
<stop offset="0.13" stop-opacity="0.69"/>
<stop offset="0.25" stop-opacity="0.32"/>
<stop offset="1" stop-opacity="0"/>
</linearGradient>
<linearGradient id="paint2_linear" x1="-330.544" y1="2714.03" x2="-1026.86" y2="3596.1" gradientUnits="userSpaceOnUse">
<stop offset="0.01"/>
<stop offset="0.13" stop-opacity="0.69"/>
<stop offset="0.25" stop-opacity="0.32"/>
<stop offset="1" stop-opacity="0"/>
</linearGradient>
<linearGradient id="paint3_linear" x1="-753.962" y1="5770.76" x2="-1652.01" y2="6189.04" gradientUnits="userSpaceOnUse">
<stop offset="0.01"/>
<stop offset="0.13" stop-opacity="0.69"/>
<stop offset="0.25" stop-opacity="0.32"/>
<stop offset="1" stop-opacity="0"/>
</linearGradient>
</defs>
</svg>
