<svg width="294.22" height="231.04" xmlns="http://www.w3.org/2000/svg" xmlns:xlink="http://www.w3.org/1999/xlink">
 <defs>
  <linearGradient y2="6.00494" x2="0.47555" y1="-2.11796" x1="0.51161" id="linear-gradient">
   <stop offset="0.01"/>
   <stop stop-opacity="0.69" offset="0.13"/>
   <stop stop-opacity="0.32" offset="0.25"/>
   <stop stop-opacity="0" offset="1"/>
  </linearGradient>
  <linearGradient xlink:href="#linear-gradient" y2="651.93" x2="413.4" y1="67.88" x1="165.39" id="linear-gradient-2"/>
  <linearGradient xlink:href="#linear-gradient" y2="539.12" x2="296.62" y1="9.94" x1="118.99" id="linear-gradient-3"/>
  <linearGradient xlink:href="#linear-gradient" y2="185.68" x2="77.82" y1="156.85" x1="91.19" id="linear-gradient-4"/>
  <linearGradient xlink:href="#linear-gradient" y2="184.91" x2="71.76" y1="183.97" x1="70.91" id="linear-gradient-5"/>
  <linearGradient xlink:href="#linear-gradient" y2="212.38" x2="88.52" y1="142.93" x1="64.5" id="linear-gradient-6"/>
  <linearGradient xlink:href="#linear-gradient" y2="237.61" x2="115.93" y1="193.16" x1="76.13" id="linear-gradient-7"/>
  <linearGradient xlink:href="#linear-gradient" y2="-50.91" x2="360.46" y1="204.54" x1="211.04" id="linear-gradient-8"/>
 </defs>
 <title>6</title>
 <g>
  <title>background</title>
  <rect fill="none" id="canvas_background" height="233.04" width="296.22" y="-1" x="-1"/>
 </g>
 <g>
  <title>Layer 1</title>
  <rect id="svg_2" fill="#70a9a1" height="113.83" width="233.67" y="85.92" x="57.46"/>
  <rect id="svg_3" fill="url(#linear-gradient)" height="85.03" width="206.37" y="100.13" x="71.09"/>
  <circle id="svg_4" fill="#70a9a1" r="32.53" cy="141.76" cx="168.95"/>
  <path id="svg_5" fill="url(#linear-gradient-2)" d="m165.48,166.74l0.24,-6a17,17 0 0 1 -8.91,-3l1.56,-3.89a15.73,15.73 0 0 0 8.34,2.87c4.22,0.16 7.12,-2.13 7.26,-5.49s-2.09,-5.34 -6.37,-7.3c-5.93,-2.6 -9.53,-5.46 -9.33,-10.58c0.19,-4.89 3.81,-8.46 9.28,-9.13l0.23,-6l3.66,0.14l-0.23,5.71a16,16 0 0 1 7.58,2.37l-1.6,3.9a14.23,14.23 0 0 0 -7.35,-2.31c-4.54,-0.18 -6.35,2.47 -6.44,4.82c-0.12,3.06 2,4.68 7,7c6,2.71 8.92,5.9 8.71,11.14c-0.18,4.66 -3.6,8.9 -9.7,9.66l-0.25,6.13l-3.68,-0.04z"/>
  <circle id="svg_6" fill="#70a9a1" r="8.32" cy="142.84" cx="104.56"/>
  <circle id="svg_7" fill="#70a9a1" r="8.32" cy="142.84" cx="233.33"/>
  <circle id="svg_8" fill="#70a9a1" r="13.64" cy="100.13" cx="277.46"/>
  <circle id="svg_9" fill="#70a9a1" r="13.64" cy="185.13" cx="277.48"/>
  <circle id="svg_10" fill="#70a9a1" r="13.64" cy="100.13" cx="71.08"/>
  <circle id="svg_11" fill="#70a9a1" r="13.64" cy="185.13" cx="71.1"/>
  <path id="svg_12" fill="url(#linear-gradient-3)" d="m181.05,85.92s-23.3,72.74 -92.38,48.52l-12.2,-6.2l-19,16.95l0,-59.27l123.58,0z"/>
  <path id="svg_13" fill="#70a9a1" d="m47.86,67.45a65,65 0 1 1 65,65a65.11,65.11 0 0 1 -65,-65zm7.71,0a57.32,57.32 0 1 0 57.32,-57.32a57.38,57.38 0 0 0 -57.32,57.32z"/>
  <path id="svg_14" fill="#70a9a1" d="m24.82,163.78a6.59,6.59 0 0 0 4.7,-2l42.61,-43.25a6.6,6.6 0 1 0 -9.41,-9.27l-42.61,43.27a6.61,6.61 0 0 0 4.71,11.25z"/>
  <path id="svg_15" fill="#473f47" d="m4.4,177.52a7.79,7.79 0 0 0 11,-0.08l50.17,-50.91a7.19,7.19 0 0 0 0.76,-0.91a6.18,6.18 0 0 0 0.36,-0.53a3.38,3.38 0 0 0 -0.32,-3.9a28.86,28.86 0 0 0 -3.17,-3.23a27.09,27.09 0 0 0 -4.25,-3.09a3.45,3.45 0 0 0 -4,0.34l0,0a3.79,3.79 0 0 0 -0.43,0.39l-50.16,50.9a7.77,7.77 0 0 0 0.04,11.02z"/>
  <path id="svg_16" fill="#70a9a1" d="m20.36,220.19a11,11 0 0 1 2,0.22a2.46,2.46 0 0 1 1.58,1.14a2.54,2.54 0 0 1 -1,3.1a6.07,6.07 0 0 1 -3.38,0.74a5,5 0 0 1 -2.17,-0.37c-0.84,-0.42 -1.55,-1.3 -2.48,-1.19a3.9,3.9 0 0 0 -1.15,0.46a3,3 0 0 1 -3.9,-1.22a3.69,3.69 0 0 1 -0.31,-1.35c-0.12,-1.49 0.37,-3.21 1.68,-3.84c1.57,-0.75 2.53,0.13 3.78,0.84a13.23,13.23 0 0 0 5.35,1.47z"/>
  <path id="svg_17" fill="#fcbdba" d="m20.63,212.09l-5,7.89s-2.21,0.83 -3.53,0l-1.32,-0.79l3.37,-11.68l6.48,4.58z"/>
  <path id="svg_18" fill="#473f47" d="m35.98,154.43s-2.05,22.61 -3,28c-2.1,11.55 -11.53,29.76 -11.53,29.76s-5.93,1.37 -7.36,-1.77l-0.81,-1.79s10.24,-24.15 4.61,-44.39a13.72,13.72 0 0 1 -0.33,-1.81a38.73,38.73 0 0 1 -0.28,-7.05l18.7,-0.95z"/>
  <path id="svg_19" fill="#70a9a1" d="m38.25,223.13a10.51,10.51 0 0 1 2,-0.14a2.54,2.54 0 0 1 1.79,0.85a2.6,2.6 0 0 1 -0.49,3.3a6.1,6.1 0 0 1 -3.24,1.35a5,5 0 0 1 -2.24,0c-0.92,-0.27 -1.79,-1 -2.69,-0.75a3.85,3.85 0 0 0 -1.08,0.68a3,3 0 0 1 -4.12,-0.52a4,4 0 0 1 -0.56,-1.3c-0.38,-1.47 -0.21,-3.28 1,-4.15c1.43,-1 2.55,-0.32 3.93,0.16a13.48,13.48 0 0 0 5.7,0.52z"/>
  <path id="svg_20" fill="#fcbdba" d="m37.05,214.93l-3.59,8.8s-2.06,1.24 -3.53,0.69l-1.46,-0.55l1.26,-12.3l7.32,3.36z"/>
  <path id="svg_21" fill="#fcbdba" d="m63.73,125.39c0.24,-0.32 0.55,-0.67 0.94,-0.62c0.23,0 0.45,0.21 0.68,0.15a0.77,0.77 0 0 0 0.35,-0.27a11.21,11.21 0 0 1 1.82,-1.56a3.25,3.25 0 0 1 1.42,-0.72a1.94,1.94 0 0 1 1.83,1a3.31,3.31 0 0 1 0.23,2.24a8.35,8.35 0 0 1 -0.88,2.09a6.63,6.63 0 0 1 -0.92,1.34c-1.15,1.2 -2.94,1.4 -4.41,2.14a1.19,1.19 0 0 1 -0.51,0.17a1,1 0 0 1 -0.75,-0.54a5.62,5.62 0 0 1 -1,-2.75a4.71,4.71 0 0 1 1.2,-2.67z"/>
  <path id="svg_22" fill="#fcbdba" d="m49.43,115.85a0.72,0.72 0 0 1 0.52,0.05a1.42,1.42 0 0 1 0.24,0.25c0.31,0.34 0.82,0.35 1.23,0.53a2.11,2.11 0 0 1 1.06,1.35a6.61,6.61 0 0 1 0.19,1.78a2.5,2.5 0 0 1 -0.1,0.94a0.78,0.78 0 0 1 -0.69,0.54a1.55,1.55 0 0 1 -0.69,-0.29a2.05,2.05 0 0 0 -1.37,-0.22a7.25,7.25 0 0 0 -1.72,0.8a1.76,1.76 0 0 1 -1.8,0a2,2 0 0 1 -0.56,-0.8c-0.5,-1.08 -1.06,-2.32 -0.06,-3.21a7.41,7.41 0 0 1 3.75,-1.72z"/>
  <path id="svg_23" fill="#473f47" d="m42.05,154.46s2,23 2,28.56c0,11.94 -6.15,31.88 -6.15,31.88s-5.69,2.44 -7.68,-0.45l-1.17,-1.65s5.89,-26 -3.4,-45.25a12.34,12.34 0 0 1 -0.64,-1.75a39.41,39.41 0 0 1 -1.56,-7l18.6,-4.34z"/>
  <path id="svg_24" fill="#fcbdba" d="m39.26,95.76a14.47,14.47 0 0 1 1.44,4.87a4.86,4.86 0 0 1 -2,4.44a5.86,5.86 0 0 0 -1.16,0.74c-1.22,1.26 0.19,3.54 -0.53,5.17a3.94,3.94 0 0 1 -3,2.08a6,6 0 0 1 -3,-0.49a2,2 0 0 1 -1.32,-1.18a2.67,2.67 0 0 1 0.17,-1.27c0.89,-3.43 -1.4,-7 -1,-10.5c0.37,-3 3.67,-8.74 7.34,-8.21c1.93,0.25 2.44,2.92 3.06,4.35z"/>
  <path id="svg_25" fill="#70a9a1" d="m64.65,132.09s-14,12.47 -14.95,12.47s-5.39,-5.57 -6.79,-7.31l-0.4,-0.52l-0.5,17.73a42.3,42.3 0 0 1 -5.37,2.66a27.06,27.06 0 0 1 -7.66,2.07a13.19,13.19 0 0 1 -2.51,0c-6.79,-0.62 -9.77,-2.89 -9.77,-2.89l3.5,-35a13.29,13.29 0 0 1 8.48,-11.23a4.72,4.72 0 0 1 2.79,-0.39a16.59,16.59 0 0 0 5.85,0c3.9,-0.52 7.88,4.81 7.88,4.81l5.19,17l12.17,-4.33a4.68,4.68 0 0 1 2.09,4.93z"/>
  <path id="svg_26" fill="#f6a569" d="m37.38,94.03c-0.79,0.73 -1.58,1.19 -1.92,2.27a7.15,7.15 0 0 0 -0.24,2.48c-0.14,0 -0.25,-0.11 -0.31,-0.25a0.66,0.66 0 0 0 -0.19,-0.37a0.36,0.36 0 0 0 -0.5,0.21a1,1 0 0 0 0,0.62c0.33,1.33 0.77,2.62 1,4c0,0.15 0,0.32 0.08,0.47a3.08,3.08 0 0 1 -0.07,1.32a3.14,3.14 0 0 1 -0.72,1.09a2.47,2.47 0 0 1 -0.69,0.64a2.67,2.67 0 0 1 -0.8,0.25a9.85,9.85 0 0 1 -2.71,-0.06a7.59,7.59 0 0 1 -2.2,-0.57a8.91,8.91 0 0 1 -1.25,-0.74a18.9,18.9 0 0 1 -2.68,-2.2c-2,-1.87 -2.66,-5.61 -2.62,-8.23c0,-0.27 0,-0.55 0,-0.83l0,0a8.09,8.09 0 0 1 0.56,-2.39a8.56,8.56 0 0 1 3.91,-4c3.5,-1.89 8.71,-2.85 12,0.18a2.59,2.59 0 0 1 0.44,0.51c1.03,1.54 0.14,4.46 -1.09,5.6z"/>
  <path id="svg_27" fill="url(#linear-gradient-4)" d="m35.24,104.74a3.14,3.14 0 0 1 -0.72,1.09a2.47,2.47 0 0 1 -0.69,0.64a2.67,2.67 0 0 1 -0.8,0.25a9.85,9.85 0 0 1 -2.71,-0.06a7.59,7.59 0 0 1 -2.2,-0.57a8.91,8.91 0 0 1 -1.25,-0.74a18.9,18.9 0 0 1 -2.68,-2.2c-2,-1.87 -2.66,-5.61 -2.62,-8.23c0,-0.27 0,-0.55 0,-0.83l0,0c0.75,-0.58 1.66,-0.91 2.31,-0.22a5.7,5.7 0 0 1 0.84,2.05a15.22,15.22 0 0 0 1.18,2.48a7.14,7.14 0 0 0 1.73,2.09a9.21,9.21 0 0 0 4.17,1.51a3.72,3.72 0 0 0 -0.16,-1.9a10.36,10.36 0 0 0 2.41,2.09c0.4,0.26 0.83,0.5 1.23,0.8c0,0.15 0,0.32 0.08,0.47a3.08,3.08 0 0 1 -0.12,1.28z"/>
  <path id="svg_28" fill="#70a9a1" d="m22.71,90.5a5.41,5.41 0 0 0 -1.59,-0.42a0.63,0.63 0 0 0 -0.59,0.14a5.06,5.06 0 0 0 -1.61,3.06a2.68,2.68 0 0 0 0,1.51a2.07,2.07 0 0 0 0.6,0.81a3.13,3.13 0 0 0 3.94,0.21c1.49,-1.29 1.04,-4.45 -0.75,-5.31z"/>
  <path id="svg_29" fill="#f6a569" d="m13.18,117.04a1.87,1.87 0 0 1 0.34,-0.91a8.65,8.65 0 0 0 -0.34,0.91z"/>
  <path id="svg_30" fill="#f6a569" d="m19.58,110.19a3.88,3.88 0 0 0 -1.06,-2.9a6.61,6.61 0 0 1 -2.56,7c-0.56,0.38 -1.19,0.68 -1.72,1.1a3.84,3.84 0 0 0 -0.71,0.74a8.91,8.91 0 0 0 0.87,-2.87a2.42,2.42 0 0 0 -0.15,-1.07a1.49,1.49 0 0 0 -0.29,-0.46a6.42,6.42 0 0 0 -0.59,-0.57a31.86,31.86 0 0 1 -4.32,-5.15a20.09,20.09 0 0 1 -3.62,-6.51a12.14,12.14 0 0 1 0.24,-6.57a10.83,10.83 0 0 1 3.61,-5.6a8.22,8.22 0 0 1 7,-1s6.05,1.17 5.12,5.7c-0.24,1.14 -0.51,2.21 -0.71,3.23c-0.64,3.06 -0.83,5.72 1.49,8.74c1.5,1.89 -0.35,5.25 -2.6,6.19z"/>
  <path id="svg_31" fill="url(#linear-gradient-5)" d="m13.18,117.04a1.87,1.87 0 0 1 0.34,-0.91a8.65,8.65 0 0 0 -0.34,0.91z"/>
  <path id="svg_32" fill="url(#linear-gradient-6)" d="m19.58,110.19a3.88,3.88 0 0 0 -1.06,-2.9a6.61,6.61 0 0 1 -2.56,7c-0.56,0.38 -1.19,0.68 -1.72,1.1a3.84,3.84 0 0 0 -0.71,0.74a8.91,8.91 0 0 0 0.87,-2.87a2.42,2.42 0 0 0 -0.15,-1.07a1.49,1.49 0 0 0 -0.29,-0.46a9.19,9.19 0 0 0 1.24,-4.17c0.09,-3 -1.69,-5.93 -1.4,-9a11.67,11.67 0 0 0 3.81,3.75c-0.65,-1.65 1.09,-7.82 3.09,-7.13c-0.64,3.06 -0.83,5.72 1.49,8.74c1.49,1.97 -0.36,5.33 -2.61,6.27z"/>
  <path id="svg_33" fill="url(#linear-gradient-7)" d="m42.91,137.25l-0.4,-0.52l-0.5,17.73a42.3,42.3 0 0 1 -5.37,2.66a27.06,27.06 0 0 1 -7.66,2.07a8.7,8.7 0 0 1 2.53,-5.52c0.94,-0.93 2.11,-1.65 3,-2.65a11.29,11.29 0 0 0 2.19,-4.76c1.7,-6.66 1.53,-13.63 1.36,-20.49c1,2.57 2,5.17 3,7.7c0.56,1.29 1.39,2.46 1.85,3.78z"/>
  <polygon id="svg_34" fill="#70a9a1" points="181.0399932861328,85.91999816894531 228.79000854492188,35.44999694824219 212.66000366210938,20.56999969482422 266.94000244140625,21.48999786376953 269.3999938964844,67.44999694824219 256.3800048828125,56.220001220703125 226.30999755859375,85.91999816894531 181.0399932861328,85.91999816894531 "/>
  <polygon id="svg_35" fill="url(#linear-gradient-8)" points="181.0399932861328,85.91999816894531 228.79000854492188,35.44999694824219 212.66000366210938,20.56999969482422 266.94000244140625,21.48999786376953 269.3999938964844,67.44999694824219 256.3800048828125,56.220001220703125 226.30999755859375,85.91999816894531 181.0399932861328,85.91999816894531 "/>
 </g>
</svg>