<svg width="164" height="212" viewBox="0 0 164 212" fill="none" xmlns="http://www.w3.org/2000/svg">
<path d="M121.254 61.4731C121.254 49.5268 117.709 37.8487 111.069 27.9157C104.428 17.9826 94.9894 10.2408 83.9464 5.66913C72.9033 1.09746 60.7519 -0.098697 49.0286 2.23192C37.3054 4.56254 26.5369 10.3152 18.0849 18.7626C9.63291 27.2099 3.87702 37.9725 1.54513 49.6893C-0.786773 61.4061 0.41005 73.5509 4.98423 84.5879C9.55842 95.6249 17.3045 105.058 27.243 111.695C37.1815 118.332 48.866 121.875 60.8189 121.875C76.839 121.848 92.1951 115.475 103.523 104.154C114.851 92.8321 121.227 77.4843 121.254 61.4731ZM114.085 61.4731C114.085 72.0079 110.96 82.3062 105.104 91.0656C99.2476 99.825 90.9242 106.652 81.1859 110.684C71.4476 114.715 60.7319 115.77 50.3938 113.715C40.0557 111.659 30.5595 106.586 23.1062 99.1372C15.6528 91.688 10.577 82.197 8.52067 71.8646C6.46429 61.5322 7.5197 50.8224 11.5534 41.0894C15.5872 31.3565 22.418 23.0376 31.1822 17.1848C39.9464 11.332 50.2504 8.20802 60.791 8.20802C74.921 8.22278 88.4681 13.8394 98.4595 23.8253C108.451 33.8112 114.071 47.3509 114.085 61.4731Z" fill="#CCCCCC"/>
<path d="M142.677 150.989C141.862 150.985 141.055 150.819 140.305 150.5C139.554 150.181 138.875 149.715 138.307 149.13L98.6899 108.94C98.1239 108.366 97.6767 107.686 97.3737 106.939C97.0707 106.192 96.9179 105.393 96.9239 104.587C96.9299 103.781 97.0948 102.984 97.4089 102.241C97.7231 101.499 98.1805 100.826 98.755 100.26C99.3294 99.6948 100.01 99.2478 100.757 98.945C101.504 98.6421 102.304 98.4894 103.11 98.4954C103.917 98.5015 104.714 98.6662 105.457 98.9802C106.2 99.2942 106.873 99.7513 107.439 100.325L147.056 140.534C147.907 141.397 148.484 142.492 148.714 143.681C148.943 144.87 148.816 146.101 148.348 147.218C147.88 148.336 147.092 149.29 146.083 149.961C145.074 150.631 143.889 150.989 142.677 150.989V150.989Z" fill="#CCCCCC"/>
<path d="M161.665 163.757C160.298 165.1 158.453 165.846 156.536 165.832C154.619 165.818 152.785 165.045 151.438 163.682L104.791 116.374C104.533 116.112 104.296 115.829 104.085 115.528C103.965 115.37 103.853 115.205 103.75 115.036C103.417 114.475 103.267 113.825 103.32 113.176C103.374 112.527 103.628 111.91 104.047 111.411C104.95 110.335 105.935 109.332 106.995 108.41C108.216 107.327 109.539 106.365 110.946 105.539C111.522 105.197 112.19 105.044 112.856 105.1C113.523 105.157 114.156 105.421 114.665 105.855V105.855C114.808 105.965 114.941 106.086 115.065 106.217L161.702 153.516C162.375 154.19 162.908 154.989 163.271 155.869C163.633 156.749 163.818 157.692 163.814 158.644C163.811 159.596 163.619 160.537 163.25 161.415C162.882 162.292 162.343 163.088 161.665 163.757V163.757Z" fill="#473F47"/>
<path d="M146.826 203.408C146.202 203.419 145.579 203.488 144.967 203.613C144.663 203.68 144.376 203.809 144.123 203.991C143.87 204.173 143.658 204.405 143.498 204.672C143.291 205.185 143.27 205.754 143.44 206.281C143.61 206.807 143.959 207.258 144.428 207.553C145.386 208.082 146.478 208.321 147.57 208.24C148.26 208.277 148.949 208.159 149.588 207.896C150.369 207.506 151.029 206.688 151.894 206.791C152.271 206.875 152.632 207.02 152.963 207.218C153.599 207.522 154.326 207.574 154.999 207.364C155.672 207.153 156.24 206.696 156.589 206.084C156.763 205.688 156.861 205.263 156.877 204.83C156.989 203.445 156.533 201.847 155.315 201.262C153.856 200.565 152.963 201.382 151.801 202.042C150.258 202.844 148.563 203.309 146.826 203.408V203.408Z" fill="#D86B7F"/>
<path d="M146.574 195.881L151.223 203.213C151.223 203.213 153.278 203.984 154.505 203.213L155.732 202.479L152.599 191.625L146.574 195.881Z" fill="#FCBDBA"/>
<path d="M132.304 142.3C132.304 142.3 134.21 163.311 135.094 168.319C137.046 179.052 145.814 195.974 145.814 195.974C145.814 195.974 151.327 197.247 152.657 194.329L153.41 192.666C153.41 192.666 143.889 170.224 149.124 151.416C149.264 150.863 149.366 150.301 149.431 149.734C149.717 147.563 149.804 145.37 149.691 143.183L132.304 142.3Z" fill="#473F47"/>
<path d="M130.195 206.14C129.581 206.038 128.958 205.994 128.335 206.01C128.019 206.023 127.709 206.1 127.423 206.236C127.137 206.372 126.881 206.563 126.671 206.8C126.375 207.283 126.259 207.855 126.342 208.416C126.425 208.976 126.703 209.49 127.127 209.866C127.986 210.571 129.034 211.007 130.139 211.121C130.825 211.278 131.537 211.278 132.222 211.121C133.077 210.87 133.886 210.192 134.723 210.424C135.091 210.577 135.43 210.791 135.727 211.056C136.305 211.485 137.026 211.674 137.74 211.584C138.453 211.494 139.105 211.131 139.558 210.573C139.802 210.204 139.978 209.795 140.078 209.365C140.432 207.999 140.274 206.317 139.149 205.508C137.819 204.579 136.778 205.211 135.495 205.657C133.783 206.195 131.976 206.36 130.195 206.14Z" fill="#D86B7F"/>
<path d="M131.309 198.52L134.647 206.698C134.647 206.698 136.562 207.85 137.929 207.339L139.286 206.828L138.115 195.398L131.309 198.52Z" fill="#FCBDBA"/>
<path d="M106.504 115.314C106.281 115.017 105.993 114.692 105.63 114.738C105.417 114.738 105.212 114.933 104.998 114.878C104.867 114.828 104.754 114.74 104.673 114.627C104.162 114.084 103.595 113.598 102.981 113.177C102.603 112.848 102.149 112.618 101.66 112.508C101.318 112.485 100.975 112.56 100.674 112.725C100.373 112.889 100.124 113.137 99.9588 113.437C99.6463 114.085 99.5707 114.821 99.745 115.519C99.9281 116.2 100.203 116.854 100.563 117.461C100.796 117.909 101.083 118.328 101.419 118.706C102.488 119.821 104.152 120.007 105.519 120.695C105.663 120.783 105.825 120.837 105.993 120.853C106.141 120.831 106.282 120.775 106.403 120.687C106.525 120.6 106.623 120.484 106.69 120.351C107.221 119.596 107.541 118.714 107.62 117.795C107.521 116.871 107.131 116.002 106.504 115.314V115.314Z" fill="#FCBDBA"/>
<path d="M119.798 106.449C119.637 106.404 119.464 106.42 119.315 106.496C119.231 106.564 119.156 106.642 119.092 106.728C118.803 107.044 118.329 107.053 117.948 107.221C117.705 107.349 117.492 107.527 117.322 107.743C117.152 107.959 117.03 108.209 116.962 108.475C116.829 109.016 116.769 109.572 116.786 110.129C116.761 110.424 116.792 110.72 116.879 111.003C116.923 111.141 117.008 111.263 117.122 111.352C117.237 111.442 117.375 111.495 117.52 111.504C117.753 111.468 117.973 111.376 118.162 111.235C118.55 111.021 119 110.949 119.436 111.031C119.999 111.207 120.537 111.457 121.035 111.774C121.288 111.924 121.577 112.004 121.872 112.004C122.166 112.004 122.455 111.924 122.708 111.774C122.941 111.573 123.12 111.318 123.229 111.031C123.694 110.027 124.215 108.875 123.285 108.048C122.297 107.196 121.088 106.641 119.798 106.449V106.449Z" fill="#FCBDBA"/>
<path d="M126.657 142.328C126.657 142.328 124.798 163.701 124.798 168.867C124.798 179.963 130.516 198.492 130.516 198.492C130.516 198.492 135.806 200.76 137.657 198.074L138.744 196.541C138.744 196.541 133.268 172.38 141.906 154.492C142.145 153.966 142.344 153.422 142.501 152.866C143.181 150.746 143.667 148.569 143.951 146.361L126.657 142.328Z" fill="#473F47"/>
<path d="M129.252 87.7805C128.542 89.1983 128.089 90.7304 127.913 92.3059C127.833 93.0964 127.962 93.894 128.289 94.6185C128.615 95.3429 129.127 95.9684 129.773 96.4319C130.158 96.6179 130.52 96.8487 130.851 97.1195C131.986 98.2904 130.675 100.409 131.344 101.924C131.619 102.447 132.016 102.896 132.501 103.233C132.987 103.569 133.547 103.783 134.133 103.857C135.087 103.947 136.048 103.79 136.923 103.401C137.198 103.325 137.452 103.186 137.664 102.996C137.877 102.806 138.043 102.569 138.15 102.305C138.194 101.904 138.14 101.499 137.992 101.125C137.165 97.9372 139.294 94.6198 138.922 91.3674C138.578 88.5796 135.51 83.2457 132.097 83.7382C130.303 83.9705 129.829 86.4516 129.252 87.7805Z" fill="#FCBDBA"/>
<path d="M105.649 121.54C105.649 121.54 118.666 133.128 119.549 133.128C120.432 133.128 124.561 127.952 125.862 126.335L126.234 125.852L126.699 142.328C128.303 143.269 129.971 144.095 131.692 144.8C133.958 145.787 136.358 146.435 138.814 146.723C139.59 146.797 140.371 146.797 141.148 146.723C147.461 146.147 150.231 144.038 150.231 144.038L146.977 111.514C146.772 109.211 145.924 107.012 144.53 105.167C143.137 103.322 141.253 101.906 139.093 101.078C138.285 100.696 137.38 100.57 136.499 100.716C134.7 101.038 132.858 101.038 131.06 100.716C127.434 100.232 123.733 105.185 123.733 105.185L118.908 120.983L107.592 116.959C106.838 117.432 106.248 118.125 105.9 118.945C105.553 119.764 105.465 120.67 105.649 121.54Z" fill="#40798C"/>
<path d="M131.001 86.1728C131.736 86.8511 132.47 87.2786 132.787 88.2822C132.995 89.0314 133.071 89.8114 133.01 90.5867C133.14 90.5867 133.242 90.4845 133.298 90.3544C133.318 90.2238 133.38 90.1032 133.475 90.0106C133.517 89.9896 133.564 89.978 133.612 89.9767C133.66 89.9753 133.707 89.9841 133.751 90.0026C133.795 90.0211 133.835 90.0488 133.867 90.0838C133.9 90.1189 133.924 90.1604 133.939 90.2057C134.001 90.3929 134.001 90.5947 133.939 90.7819C133.633 92.0178 133.224 93.2165 133.01 94.4989C133.01 94.6383 133.01 94.7963 132.935 94.9357C132.868 95.3444 132.89 95.7629 133 96.1623C133.15 96.5431 133.378 96.8882 133.67 97.1752C133.844 97.4127 134.061 97.6146 134.311 97.7699C134.546 97.886 134.797 97.9644 135.055 98.0022C135.894 98.0998 136.742 98.081 137.575 97.9465C138.279 97.8735 138.969 97.6949 139.62 97.4168C140.026 97.2196 140.415 96.9896 140.783 96.7291C141.674 96.1254 142.508 95.4411 143.274 94.6848C145.134 92.9471 145.748 89.4716 145.71 87.037C145.71 86.7861 145.71 86.5259 145.71 86.2657C145.651 85.5032 145.475 84.7543 145.19 84.0448C144.429 82.4338 143.148 81.1249 141.554 80.3277C138.3 78.5714 133.456 77.6793 130.397 80.495C130.241 80.6345 130.103 80.7938 129.988 80.9689C129.03 82.4 129.858 85.1134 131.001 86.1728Z" fill="#1E1E1E"/>
<path d="M132.991 96.1253C133.14 96.5061 133.368 96.8512 133.66 97.1381C133.834 97.3757 134.052 97.5776 134.302 97.7329C134.536 97.849 134.787 97.9274 135.045 97.9652C135.884 98.0627 136.732 98.044 137.565 97.9094C138.27 97.8365 138.959 97.6579 139.611 97.3798C140.016 97.1825 140.405 96.9526 140.773 96.6921C141.664 96.0884 142.498 95.4041 143.265 94.6477C145.124 92.91 145.738 89.4346 145.701 86.9999C145.701 86.749 145.701 86.4888 145.701 86.2286C145.003 85.6897 144.157 85.383 143.553 86.0242C143.17 86.602 142.905 87.2493 142.772 87.9292C142.476 88.7288 142.109 89.5002 141.675 90.2338C141.268 90.9779 140.722 91.6372 140.066 92.1759C138.907 92.9523 137.576 93.434 136.189 93.5791C136.084 92.9876 136.136 92.3791 136.338 91.8135C135.696 92.5726 134.94 93.2278 134.097 93.7556C133.725 93.9973 133.325 94.2203 132.953 94.4991C132.953 94.6384 132.953 94.7964 132.879 94.9358C132.832 95.3357 132.87 95.741 132.991 96.1253Z" fill="url(#paint0_linear)"/>
<path d="M144.64 82.8926C145.11 82.6879 145.608 82.5563 146.118 82.5023C146.213 82.4761 146.313 82.4743 146.409 82.497C146.505 82.5198 146.594 82.5663 146.667 82.6324C147.484 83.3751 148.014 84.3818 148.164 85.4759C148.298 85.9339 148.298 86.421 148.164 86.8791C148.043 87.1721 147.851 87.4306 147.606 87.6318C147.11 88.0795 146.476 88.3433 145.809 88.3789C145.142 88.4144 144.483 88.2195 143.943 87.8269C142.557 86.6282 142.976 83.6917 144.64 82.8926Z" fill="#D86B7F"/>
<path d="M153.5 107.555C153.471 107.25 153.362 106.959 153.184 106.709C153.305 106.985 153.411 107.268 153.5 107.555Z" fill="#F6A569"/>
<path d="M147.554 101.19C147.525 100.697 147.597 100.204 147.767 99.74C147.936 99.2764 148.199 98.8526 148.539 98.4948C148.235 99.6925 148.3 100.954 148.725 102.114C149.149 103.275 149.914 104.28 150.92 105C151.44 105.353 152.026 105.631 152.519 106.022C152.769 106.22 152.991 106.452 153.179 106.709C152.76 105.872 152.487 104.971 152.37 104.042C152.341 103.705 152.389 103.365 152.509 103.048C152.572 102.89 152.664 102.745 152.779 102.621C152.95 102.433 153.134 102.256 153.328 102.091C154.832 100.642 156.178 99.0376 157.344 97.3053C158.834 95.5161 159.975 93.4644 160.71 91.2558C161.199 89.239 161.122 87.1264 160.487 85.1506C159.943 83.1066 158.769 81.2858 157.13 79.9468C156.183 79.3176 155.107 78.9077 153.981 78.7469C152.855 78.5862 151.708 78.6786 150.622 79.0175C150.622 79.0175 144.997 80.1047 145.862 84.3143C146.085 85.3736 146.336 86.3679 146.522 87.3158C147.117 90.1593 147.293 92.6311 145.136 95.4375C143.742 97.1938 145.462 100.316 147.554 101.19Z" fill="#1E1E1E"/>
<path d="M153.5 107.555C153.471 107.25 153.362 106.959 153.184 106.709C153.305 106.985 153.411 107.268 153.5 107.555Z" fill="url(#paint1_linear)"/>
<path d="M147.554 101.19C147.525 100.697 147.597 100.204 147.767 99.74C147.936 99.2765 148.199 98.8526 148.539 98.4948C148.235 99.6925 148.3 100.954 148.724 102.114C149.149 103.275 149.914 104.28 150.919 105C151.44 105.353 152.026 105.631 152.519 106.022C152.768 106.22 152.99 106.452 153.179 106.709C152.76 105.872 152.487 104.971 152.37 104.042C152.341 103.705 152.388 103.365 152.509 103.048C152.572 102.89 152.664 102.745 152.779 102.621C152.09 101.44 151.694 100.111 151.626 98.7457C151.542 95.9579 153.197 93.2352 152.928 90.3823C152.033 91.8022 150.82 92.9951 149.385 93.8671C149.99 92.3338 148.372 86.6003 146.512 87.2415C147.107 90.085 147.284 92.5568 145.127 95.3632C143.742 97.1938 145.462 100.316 147.554 101.19Z" fill="url(#paint2_linear)"/>
<path d="M125.859 128.921L126.231 128.438L126.696 144.913C128.299 145.854 129.968 146.68 131.689 147.385C133.955 148.373 136.355 149.021 138.811 149.309C138.668 147.372 137.833 145.551 136.458 144.179C135.584 143.315 134.496 142.646 133.669 141.717C132.653 140.422 131.955 138.907 131.633 137.293C130.052 131.105 130.21 124.628 130.368 118.253C129.438 120.641 128.509 123.057 127.579 125.408C127.058 126.607 126.287 127.694 125.859 128.921Z" fill="url(#paint3_linear)" fill-opacity="0.1"/>
<defs>
<linearGradient id="paint0_linear" x1="-1025.42" y1="2024.75" x2="-864.211" y2="2385.85" gradientUnits="userSpaceOnUse">
<stop offset="0.01"/>
<stop offset="0.13" stop-opacity="0.69"/>
<stop offset="0.25" stop-opacity="0.32"/>
<stop offset="1" stop-opacity="0"/>
</linearGradient>
<linearGradient id="paint1_linear" x1="131.083" y1="262.281" x2="130.573" y2="262.492" gradientUnits="userSpaceOnUse">
<stop offset="0.01"/>
<stop offset="0.13" stop-opacity="0.69"/>
<stop offset="0.25" stop-opacity="0.32"/>
<stop offset="1" stop-opacity="0"/>
</linearGradient>
<linearGradient id="paint2_linear" x1="-398.378" y1="2876.87" x2="-1136.47" y2="3811.87" gradientUnits="userSpaceOnUse">
<stop offset="0.01"/>
<stop offset="0.13" stop-opacity="0.69"/>
<stop offset="0.25" stop-opacity="0.32"/>
<stop offset="1" stop-opacity="0"/>
</linearGradient>
<linearGradient id="paint3_linear" x1="-847.2" y1="6117" x2="-1799.13" y2="6560.38" gradientUnits="userSpaceOnUse">
<stop offset="0.01"/>
<stop offset="0.13" stop-opacity="0.69"/>
<stop offset="0.25" stop-opacity="0.32"/>
<stop offset="1" stop-opacity="0"/>
</linearGradient>
</defs>
</svg>
