<svg width="450" height="350" xmlns="http://www.w3.org/2000/svg">
 <!-- Created with Method Draw - http://github.com/duopixel/Method-Draw/ -->

 <g>
  <title>background</title>
  <g display="none" overflow="visible" y="0" x="0" height="100%" width="100%" id="canvasGrid">
   <rect fill="url(#gridpattern)" stroke-width="0" y="0" x="0" height="100%" width="100%"/>
  </g>
 </g>
 <g>
  <title>Layer 1</title>
  <!-- Created with Method Draw - http://github.com/duopixel/Method-Draw/ -->
  <g id="svg_33">
   <defs transform="translate(94.40837097167969,60.276588439941406) translate(270.6373291015625,192.49620056152344) translate(350.3599548339844,211.9402618408203) translate(-2.842170943040401e-14,-804.1358642578125) translate(-326.8614501953125,0) translate(-2.842170943040401e-14,555.5193481445312) translate(-2.842170943040401e-14,0) translate(174.4105987548828,164.34844970703125) translate(382.85150146484375,0) translate(0,285.8700256347656) ">
    <path stroke-width="1px" fill="rosybrown" id="svg_26" stroke="black"/>
   </defs>
   <defs transform="translate(94.40837097167969,60.276588439941406) translate(270.6373291015625,192.49620056152344) translate(350.3599548339844,211.9402618408203) translate(-2.842170943040401e-14,-804.1358642578125) translate(-326.8614501953125,0) translate(-2.842170943040401e-14,555.5193481445312) translate(-2.842170943040401e-14,0) translate(174.4105987548828,164.34844970703125) translate(382.85150146484375,0) translate(0,285.8700256347656) ">
    <polygon id="svg_25" fill="rosybrown" stroke="null"/>
    <polygon fill="#2D9CDB" fill-opacity="0.1" id="svg_24" stroke-width="1px" stroke="black"/>
   </defs>
   <g stroke="null" id="svg_22" transform="matrix(0.22297561292480894,0,0,0.19679585833434748,-186.98522537985787,-75.57113410103017) ">
    <title stroke="null" transform="translate(201.8157958984375,157.5236358642578) translate(578.53857421875,503.0593566894531) translate(-0.00009785566362552345,1.1368683772161603e-13) translate(-6.413068771362305,1.1368683772161603e-13) translate(-6.412954807281494,1.1368683772161603e-13) translate(-0.000016309277270920575,1.1368683772161603e-13) translate(-6.4131011962890625,1.1368683772161603e-13) translate(-6.4131178855896,1.1368683772161603e-13) translate(-6.413003444671631,1.1368683772161603e-13) translate(-6.413150310516357,1.1368683772161603e-13) translate(-6.413036346435547,1.1368683772161603e-13) translate(0.00003261855454184115,1.1368683772161603e-13) translate(0.00003261855454184115,1.1368683772161603e-13) translate(-6.413068771362305,1.1368683772161603e-13) translate(-6.413084983825684,1.1368683772161603e-13) translate(-0.000016309277270920575,1.1368683772161603e-13) translate(-6.4131011962890625,1.1368683772161603e-13) translate(-12.826072692871094,1.1368683772161603e-13) translate(-6.4131340980529785,1.1368683772161603e-13) translate(-19.239206314086914,1.1368683772161603e-13) translate(-12.826169967651367,1.1368683772161603e-13) translate(0.00009785566362552345,1.1368683772161603e-13) translate(-6.4131340980529785,1.1368683772161603e-13) translate(0.0000652371090836823,1.1368683772161603e-13) translate(-6.4131340980529785,1.1368683772161603e-13) translate(-6.413036346435547,1.1368683772161603e-13) translate(-6.413068771362305,1.1368683772161603e-13) translate(-6.413068771362305,1.1368683772161603e-13) translate(-12.826169967651367,1.1368683772161603e-13) translate(-6.413003444671631,1.1368683772161603e-13) translate(-6.4131340980529785,1.1368683772161603e-13) translate(-12.826105117797852,1.1368683772161603e-13) translate(-6.413068771362305,1.1368683772161603e-13) translate(-6.413068771362305,1.1368683772161603e-13) translate(-12.826169967651367,1.1368683772161603e-13) translate(-6.413003444671631,1.1368683772161603e-13) translate(0.1942761093378067,1.1368683772161603e-13) translate(637.8179931640625,488.17401123046875) translate(0,-1852.211669921875) translate(-595.039794921875,0) translate(0,1279.5592041015625) translate(317.50836181640625,378.5530700683594) translate(309.4790344238281,200.39202880859375) translate(2.2737367544323206e-13,-147.27964782714844) translate(-60.346012115478516,0) translate(580.610595703125,0) translate(0,433.5340576171875) ">background</title>
   </g>
   <path stroke="null" transform="rotate(90 221.72384643554688,174.82778930664065) " fill="#2D9CDB" fill-opacity="0.1" d="m82.74458,395.5179c-32.05955,-1.47282 -33.30863,-10.69062 -33.45399,-64.86122l-0.20359,-28.23886l-1.17932,-163.61666c0.12683,-96.00133 -0.33009,-97.37466 48.36358,-113.99914c98.3764,-27.5117 108.41482,-28.22782 246.79122,-67.73952c28.83274,-7.37365 49.66466,-2.00408 49.8304,29.99045l2.63737,365.89472c0.16574,37.99452 -1.36669,41.30751 -37.92834,39.47595l0.00143,0.20167l0.00148,0.20173l-275.54235,2.69088z" id="svg_21" stroke-width="1px"/>
   <g stroke="null" id="svg_18" transform="matrix(0.1062819165967281,0,0,0.10121129326352711,-16.460923694222203,4.472834884970453) ">
    <title stroke="null" transform="translate(423.4022216796875,306.2899169921875) translate(578.53857421875,503.0593566894531) translate(-0.00009785566362552345,1.1368683772161603e-13) translate(-6.413068771362305,1.1368683772161603e-13) translate(-6.412954807281494,1.1368683772161603e-13) translate(-0.000016309277270920575,1.1368683772161603e-13) translate(-6.4131011962890625,1.1368683772161603e-13) translate(-6.4131178855896,1.1368683772161603e-13) translate(-6.413003444671631,1.1368683772161603e-13) translate(-6.413150310516357,1.1368683772161603e-13) translate(-6.413036346435547,1.1368683772161603e-13) translate(0.00003261855454184115,1.1368683772161603e-13) translate(0.00003261855454184115,1.1368683772161603e-13) translate(-6.413068771362305,1.1368683772161603e-13) translate(-6.413084983825684,1.1368683772161603e-13) translate(-0.000016309277270920575,1.1368683772161603e-13) translate(-6.4131011962890625,1.1368683772161603e-13) translate(-12.826072692871094,1.1368683772161603e-13) translate(-6.4131340980529785,1.1368683772161603e-13) translate(-19.239206314086914,1.1368683772161603e-13) translate(-12.826169967651367,1.1368683772161603e-13) translate(0.00009785566362552345,1.1368683772161603e-13) translate(-6.4131340980529785,1.1368683772161603e-13) translate(0.0000652371090836823,1.1368683772161603e-13) translate(-6.4131340980529785,1.1368683772161603e-13) translate(-6.413036346435547,1.1368683772161603e-13) translate(-6.413068771362305,1.1368683772161603e-13) translate(-6.413068771362305,1.1368683772161603e-13) translate(-12.826169967651367,1.1368683772161603e-13) translate(-6.413003444671631,1.1368683772161603e-13) translate(-6.4131340980529785,1.1368683772161603e-13) translate(-12.826105117797852,1.1368683772161603e-13) translate(-6.413068771362305,1.1368683772161603e-13) translate(-6.413068771362305,1.1368683772161603e-13) translate(-12.826169967651367,1.1368683772161603e-13) translate(-6.413003444671631,1.1368683772161603e-13) translate(0.1942761093378067,1.1368683772161603e-13) translate(637.8179931640625,488.17401123046875) translate(0,-1852.211669921875) translate(-595.039794921875,0) translate(0,1279.5592041015625) translate(317.50836181640625,378.5530700683594) translate(309.4790344238281,200.39202880859375) translate(2.2737367544323206e-13,-147.27964782714844) translate(-60.346012115478516,0) translate(580.610595703125,0) translate(0,433.5340576171875) ">background</title>
   </g>
   <g stroke="null" id="svg_17" transform="matrix(0.1062819165967281,0,0,0.10121129326352711,-16.460923694222203,4.472834884970453) ">
    <title stroke="null" transform="translate(423.4022216796875,306.2899169921875) translate(578.53857421875,503.0593566894531) translate(-0.00009785566362552345,1.1368683772161603e-13) translate(-6.413068771362305,1.1368683772161603e-13) translate(-6.412954807281494,1.1368683772161603e-13) translate(-0.000016309277270920575,1.1368683772161603e-13) translate(-6.4131011962890625,1.1368683772161603e-13) translate(-6.4131178855896,1.1368683772161603e-13) translate(-6.413003444671631,1.1368683772161603e-13) translate(-6.413150310516357,1.1368683772161603e-13) translate(-6.413036346435547,1.1368683772161603e-13) translate(0.00003261855454184115,1.1368683772161603e-13) translate(0.00003261855454184115,1.1368683772161603e-13) translate(-6.413068771362305,1.1368683772161603e-13) translate(-6.413084983825684,1.1368683772161603e-13) translate(-0.000016309277270920575,1.1368683772161603e-13) translate(-6.4131011962890625,1.1368683772161603e-13) translate(-12.826072692871094,1.1368683772161603e-13) translate(-6.4131340980529785,1.1368683772161603e-13) translate(-19.239206314086914,1.1368683772161603e-13) translate(-12.826169967651367,1.1368683772161603e-13) translate(0.00009785566362552345,1.1368683772161603e-13) translate(-6.4131340980529785,1.1368683772161603e-13) translate(0.0000652371090836823,1.1368683772161603e-13) translate(-6.4131340980529785,1.1368683772161603e-13) translate(-6.413036346435547,1.1368683772161603e-13) translate(-6.413068771362305,1.1368683772161603e-13) translate(-6.413068771362305,1.1368683772161603e-13) translate(-12.826169967651367,1.1368683772161603e-13) translate(-6.413003444671631,1.1368683772161603e-13) translate(-6.4131340980529785,1.1368683772161603e-13) translate(-12.826105117797852,1.1368683772161603e-13) translate(-6.413068771362305,1.1368683772161603e-13) translate(-6.413068771362305,1.1368683772161603e-13) translate(-12.826169967651367,1.1368683772161603e-13) translate(-6.413003444671631,1.1368683772161603e-13) translate(0.1942761093378067,1.1368683772161603e-13) translate(637.8179931640625,488.17401123046875) translate(0,-1852.211669921875) translate(-595.039794921875,0) translate(0,1279.5592041015625) translate(317.50836181640625,378.5530700683594) translate(309.4790344238281,200.39202880859375) translate(2.2737367544323206e-13,-147.27964782714844) translate(-60.346012115478516,0) translate(580.610595703125,0) translate(0,433.5340576171875) ">background</title>
   </g>
  </g>
 </g>
</svg>