<svg width="435" height="492" xmlns="http://www.w3.org/2000/svg">
 <!-- Created with Method Draw - http://github.com/duopixel/Method-Draw/ -->
 <g>
  <title>background</title>
  <rect fill="none" id="canvas_background" height="494" width="437" y="-1" x="-1"/>
  <g display="none" id="canvasGrid">
   <rect fill="url(#gridpattern)" stroke-width="0" y="0" x="0" height="100%" width="100%" id="svg_1"/>
  </g>
 </g>
 <g>
  <title>Layer 1</title>
  <!-- Created with Method Draw - http://github.com/duopixel/Method-Draw/ -->
  <defs>
   <path stroke="black" stroke-width="1px" fill="rosybrown" id="svg_26"/>
  </defs>
  <defs>
   <polygon stroke="null" id="svg_25" fill="rosybrown"/>
   <polygon stroke="black" fill="#2D9CDB" fill-opacity="0.1" id="svg_24" stroke-width="1px"/>
  </defs>
  <g stroke="null" id="svg_22" transform="matrix(0.3803909814260871,0,0,0.3847330640643038,-264.4250659328595,-135.90546983752103) ">
   <title>background</title>
  </g>
  <path stroke="null" fill="#2d9cdb" fill-opacity="0.07" d="m41.22033,486.64474c-45.99339,-4.81852 -39.98235,-48.14414 -40.16277,-69.87347l-0.25262,-30.42104l-1.46364,-176.26041c0.15739,-103.41994 -0.40965,-104.89937 60.02241,-122.80851l320.35549,-82.44953c25.48227,-2.37273 47.56601,17.01189 47.77171,41.78329l3.27314,394.16977c0.20567,24.7714 -21.55325,44.49956 -47.07162,42.52645l0.00182,0.2173l0.00179,0.21727l-342.47571,2.89888l0,0.00001z" id="svg_21" stroke-width="1px"/>
  <g stroke="null" id="svg_18" transform="matrix(0.3803909814260871,0,0,0.3847330640643038,-264.4250659328595,-135.90546983752103) ">
   <title>background</title>
  </g>
  <g stroke="null" id="svg_17" transform="matrix(0.3803909814260871,0,0,0.3847330640643038,-264.4250659328595,-135.90546983752103) ">
   <title>background</title>
  </g>
 </g>
</svg>