<svg width="240" height="259" xmlns="http://www.w3.org/2000/svg" style="vector-effect: non-scaling-stroke;" stroke="null">
 <!-- Created with Method Draw - http://github.com/duopixel/Method-Draw/ -->

 <g stroke="null">
  <title stroke="null">background</title>
  <rect stroke="null" fill="#fff" id="canvas_background" height="261" width="242" y="-1" x="-1"/>
  <g style="vector-effect: non-scaling-stroke;" stroke="null" display="none" overflow="visible" y="0" x="0" height="100%" width="100%" id="canvasGrid">
   <rect fill="url(#gridpattern)" stroke-width="0" y="0" x="0" height="100%" width="100%"/>
  </g>
 </g>
 <g stroke="null">
  <title stroke="null">Layer 1</title>
  <defs stroke="null">
   <path stroke="black" style="vector-effect: non-scaling-stroke;" id="svg_15" fill="rosybrown" stroke-width="1px"/>
  </defs>
  <defs stroke="null">
   <polygon style="vector-effect: non-scaling-stroke;" stroke="null" fill="rosybrown" id="svg_14"/>
   <polygon stroke="black" style="vector-effect: non-scaling-stroke;" stroke-width="1px" id="svg_13" fill-opacity="0.1" fill="#2D9CDB"/>
  </defs>
  <g stroke="null" id="svg_22">
   <rect transform="matrix(0.6593946113532722,0,0,0.6593946113532722,-458.315266973252,-233.5555027300963) " fill="none" height="602" width="802" y="412.61326" x="767.97397" id="svg_16"/>
   <g stroke="null" transform="matrix(0.6593946113532722,0,0,0.6593946113532722,-458.315266973252,-233.5555027300963) " id="svg_18">
    <title stroke="null" transform="translate(-5262.49072265625,-4119.87060546875) translate(6031.46484375,0) translate(0,4533.48388671875) ">background</title>
   </g>
   <g stroke="null" transform="matrix(0.6593946113532722,0,0,0.6593946113532722,-458.315266973252,-233.5555027300963) " id="svg_19">
    <title stroke="null" transform="translate(-341.2220764160156,-1.5165425539016724) translate(-5262.49072265625,-4119.87060546875) translate(6031.46484375,0) translate(0,4533.48388671875) ">Layer 1</title>
    <path stroke="null" stroke-width="1px" id="svg_12" d="m740.79321,741.5372c-37.11317,-3.83858 -32.26272,-38.35321 -32.40832,-55.66349l-0.20384,-24.23439l-1.18105,-140.41477c0.127,-82.3877 -0.33056,-83.56627 48.43353,-97.83327l258.50262,-65.68196c20.56227,-1.89022 38.38216,13.5522 38.54814,33.28592l2.64118,314.00846c0.16598,19.73372 -17.39183,35.44981 -37.98322,33.87797l0.00146,0.17309l0.00146,0.1731l-276.35196,2.30934z" fill-opacity="0.1" fill="#2D9CDB"/>
    <path stroke="null" id="svg_11" d="m728.99957,377.6853l-21.99955,-20.13278l21.99955,20.13278z" fill-opacity="null" stroke-opacity="null" stroke-width="1px" fill="rosybrown"/>
   </g>
   <g stroke="null" transform="matrix(0.6593946113532722,0,0,0.6593946113532722,-458.315266973252,-233.5555027300963) " id="svg_20">
    <title stroke="null" transform="translate(-5262.49072265625,-4119.87060546875) translate(6031.46484375,0) translate(0,4533.48388671875) ">background</title>
   </g>
   <g stroke="null" transform="matrix(0.6593946113532722,0,0,0.6593946113532722,-458.315266973252,-233.5555027300963) " id="svg_21">
    <title stroke="null" transform="translate(-5262.49072265625,-4119.87060546875) translate(6031.46484375,0) translate(0,4533.48388671875) ">background</title>
   </g>
  </g>
 </g>
</svg>