<svg width="175.22203" height="241.3931121826172" xmlns="http://www.w3.org/2000/svg" xmlns:xlink="http://www.w3.org/1999/xlink" preserveAspectRatio="xMidYMid meet">
 <defs>
  <linearGradient y2="1.26649" x2="1.26606" y1="0.01491" x1="0.05057" id="linear-gradient">
   <stop offset="0.01"/>
   <stop stop-opacity="0.69" offset="0.13"/>
   <stop stop-opacity="0.32" offset="0.25"/>
   <stop stop-opacity="0" offset="1"/>
  </linearGradient>
  <linearGradient xlink:href="#linear-gradient" y2="288.15" x2="200.59" y1="215.75" x1="122.28" id="linear-gradient-2"/>
  <linearGradient xlink:href="#linear-gradient" y2="153.23" x2="179.34" y1="114.61" x1="181.26" id="linear-gradient-3"/>
  <linearGradient xlink:href="#linear-gradient" y2="238.62" x2="179.12" y1="225.03" x1="151.74" id="linear-gradient-4"/>
  <linearGradient xlink:href="#linear-gradient" y2="224.98" x2="145.41" y1="261.06" x1="129.37" id="linear-gradient-5"/>
  <linearGradient xlink:href="#linear-gradient" y2="129.45" x2="207.04" y1="91.57" x1="189.69" id="linear-gradient-6"/>
  <linearGradient y2="-0.19449" x2="0.62704" y1="0.93682" x1="0.40382" id="linear-gradient-7">
   <stop offset="0"/>
   <stop stop-opacity="0" offset="1"/>
  </linearGradient>
 </defs>
 <title>2</title>
 <g>
  <title>background</title>
  <rect fill="none" id="canvas_background" height="243.39311" width="177.22203" y="-1" x="-1"/>
 </g>
 <g>
  <title>Layer 1</title>
  <rect fill="none" height="300.22" width="357.82999" y="-40" x="-70" id="svgEditorBackground"/>
  <ellipse stroke="null" id="svg_1" opacity="0.39" fill="#70a9a1" ry="16.64" rx="81.24" cy="215.91" cx="91.24"/>
  <path id="svg_2" fill="#e8a825" d="m86.08,225.53c-28.54,-0.41 -51.55,-10.19 -51.4,-21.82c0,-1.3 -1,-8.62 -0.41,-9.78c4.5,-9.79 27,-11 52.4,-10.58c25,0.36 45.95,0 50.63,9.65c0.67,1.38 0.8,10.77 0.77,12.17c-0.18,11.66 -23.45,20.71 -51.99,20.36z"/>
  <ellipse id="svg_3" fill="#f8c244" transform="rotate(-89.43000030517578 -178.80000305175787,378.42999267578125) " ry="51.69" rx="21.09" cy="637.24999" cx="11.03"/>
  <ellipse id="svg_4" fill="#e8a825" transform="rotate(-89.18000030517578 -179.10000610351568,384.8800048828125) " ry="44.04" rx="17.97" cy="647.23" cx="14.82"/>
  <path id="svg_5" fill="#f8c244" d="m58.22,192.61l7.06,0.11a5.78,5.78 0 0 1 3.13,-4.31l4.67,0.75a5.48,5.48 0 0 0 -3.06,4.08c0,2 2.83,3.42 6.81,3.49a10.76,10.76 0 0 0 8.36,-3.11a15,15 0 0 1 12.15,-4.52c5.82,0 10.19,1.81 11.21,4.46l7.06,0.11l0,1.76l-6.76,-0.1a5.21,5.21 0 0 1 -2.5,3.68l-4.61,-0.8a4.66,4.66 0 0 0 2.39,-3.57c0,-2.16 -3.19,-3.06 -6,-3.11a9.75,9.75 0 0 0 -8,3.43c-3,2.89 -6.64,4.31 -12.93,4.31c-5.52,0 -10.77,-1.7 -11.83,-4.68l-7.26,0l0.11,-1.98z"/>
  <path id="svg_6" fill="#e8a825" d="m91.4,209.12c-28.55,-0.41 -51.56,-10.17 -51.39,-21.83c0,-1.29 -1,-8.62 -0.41,-9.78c4.5,-9.78 27,-10.93 52.4,-10.58c25,0.37 45.94,0 50.61,9.65c0.69,1.38 0.8,10.77 0.78,12.17c-0.15,11.63 -23.45,20.77 -51.99,20.37z"/>
  <ellipse id="svg_7" fill="#f8c244" transform="rotate(-89.18000030517578 -157.41000366210935,374.010009765625) " ry="51.69" rx="21.09" cy="619.93001" cx="41.85"/>
  <ellipse id="svg_8" fill="#e8a825" transform="rotate(-89.18000030517578 -157.41000366210935,374.010009765625) " ry="44.04" rx="17.97" cy="619.93001" cx="41.85"/>
  <path id="svg_9" fill="#f8c244" d="m63.56,176.32l7.05,0a5.77,5.77 0 0 1 3.14,-4.31l4.68,0.76a5.32,5.32 0 0 0 -3.06,4.05c0,2 2.82,3.45 6.78,3.49a10.59,10.59 0 0 0 8.38,-3.1a14.92,14.92 0 0 1 12.16,-4.53c5.79,0 10.19,1.83 11.2,4.46l7.05,0.11l0,1.77l-6.79,-0.11a5,5 0 0 1 -2.5,3.68l-4.59,-0.77a4.75,4.75 0 0 0 2.41,-3.58c0,-2.15 -3.16,-3.06 -6,-3.1a9.92,9.92 0 0 0 -8,3.34c-3,2.88 -6.63,4.31 -12.93,4.31c-5.53,0 -10.77,-1.73 -11.82,-4.68l-7.26,-0.11l0.1,-1.68z"/>
  <path id="svg_10" fill="#e8a825" d="m91.4,191.66c-28.55,-0.41 -51.56,-10.17 -51.39,-21.82c0,-1.29 -1,-8.62 -0.41,-9.78c4.5,-9.79 27,-10.93 52.4,-10.58c25,0.36 45.94,0 50.61,9.65c0.69,1.38 0.8,10.77 0.78,12.17c-0.15,11.66 -23.45,20.77 -51.99,20.36z"/>
  <ellipse id="svg_11" fill="#f8c244" transform="rotate(-89.18000030517578 -139.9599914550781,356.8200073242188) " ry="51.69" rx="21.09" cy="585.29001" cx="59.3"/>
  <ellipse id="svg_12" fill="#e8a825" transform="rotate(-89.18000030517578 -136.3000030517578,353.2099914550781) " ry="44.04" rx="17.97" cy="578.01999" cx="62.96"/>
  <path id="svg_13" fill="#f8c244" d="m63.56,158.74l7.05,0.11a5.72,5.72 0 0 1 3.14,-4.31l4.68,0.73a5.38,5.38 0 0 0 -3.06,4.08c0,2 2.82,3.44 6.78,3.49a10.6,10.6 0 0 0 8.38,-3.11a14.91,14.91 0 0 1 12.16,-4.52c5.79,0 10.19,1.83 11.2,4.46l7.05,0.11l0,1.76l-6.79,-0.1a5.05,5.05 0 0 1 -2.5,3.68l-4.57,-0.74a4.71,4.71 0 0 0 2.41,-3.57c0,-2.16 -3.16,-3.06 -6,-3.11a9.87,9.87 0 0 0 -8,3.43c-3,2.89 -6.64,4.31 -12.93,4.31c-5.53,0 -10.77,-1.72 -11.83,-4.68l-7.26,-0.1l0.09,-1.92z"/>
  <path id="svg_14" fill="#e8a825" d="m91.46,172.01c-28.55,-0.35 -51.58,-10.08 -51.45,-21.72c0,-1.29 -1,-8.61 -0.43,-9.78c4.48,-9.79 27,-11 52.37,-10.69c25,0.31 46,-0.1 50.66,9.54c0.67,1.38 0.82,10.77 0.8,12.17c-0.15,11.66 -23.4,20.76 -51.95,20.48z"/>
  <ellipse id="svg_15" fill="#f8c244" transform="rotate(-89.43000030517578 -115.86000061035153,334.95001220703125) " ry="51.69" rx="21.09" cy="540.25001" cx="83.48"/>
  <path id="svg_16" fill="#f8c244" d="m61.62,140.65l7.06,0.11a5.78,5.78 0 0 1 3.13,-4.31l4.67,0.76a5.45,5.45 0 0 0 -3.06,4.07c0,2 2.83,3.42 6.81,3.49a10.78,10.78 0 0 0 8.36,-3.1a15,15 0 0 1 12.15,-4.53c5.82,0 10.19,1.81 11.21,4.46l7.06,0.11l0,1.76l-6.76,-0.1a5.21,5.21 0 0 1 -2.5,3.68l-4.61,-0.8a4.66,4.66 0 0 0 2.39,-3.57c0,-2.16 -3.19,-3.06 -6,-3.1a9.71,9.71 0 0 0 -8,3.42c-3,2.89 -6.64,4.31 -12.93,4.31c-5.52,0 -10.77,-1.7 -11.83,-4.68l-7.26,0l0.11,-1.98z"/>
  <path id="svg_17" fill="#e8a825" d="m93,153.05c-28.55,-0.41 -51.56,-10.17 -51.38,-21.83c0,-1.29 -1,-8.61 -0.41,-9.78c4.5,-9.78 27,-10.92 52.39,-10.58c25,0.37 45.94,0 50.62,9.66c0.68,1.37 0.79,10.77 0.77,12.17c-0.15,11.69 -23.44,20.77 -51.99,20.36z"/>
  <ellipse id="svg_18" fill="#f8c244" transform="rotate(-89.18000030517578 -99.77000427246094,320.3500061035156) " ry="51.69" rx="21.09" cy="510.20001" cx="101.09"/>
  <ellipse id="svg_19" fill="#e8a825" transform="rotate(-89.18000030517578 -99.77000427246094,320.3500061035156) " ry="44.04" rx="17.97" cy="510.20001" cx="101.09"/>
  <path id="svg_20" fill="#f8c244" d="m66.96,124.38l7.05,0a5.77,5.77 0 0 1 3.14,-4.31l4.68,0.76a5.32,5.32 0 0 0 -3.06,4c0,2 2.82,3.45 6.78,3.49a10.59,10.59 0 0 0 8.38,-3.1a14.92,14.92 0 0 1 12.15,-4.5c5.79,0 10.19,1.83 11.2,4.46l7,0.11l0,1.77l-6.79,-0.11a5,5 0 0 1 -2.5,3.68l-4.59,-0.77a4.75,4.75 0 0 0 2.41,-3.58c0,-2.15 -3.16,-3.06 -6,-3.1a9.92,9.92 0 0 0 -8,3.34c-3,2.89 -6.63,4.31 -12.93,4.31c-5.53,0 -10.77,-1.73 -11.82,-4.68l-7.26,-0.11l0.16,-1.66z"/>
  <path id="svg_21" fill="#e8a825" d="m92.2,136.44c-28.54,-0.41 -51.55,-10.17 -51.38,-21.83c0,-1.29 -1,-8.62 -0.41,-9.78c4.5,-9.78 27,-10.92 52.4,-10.58c25,0.37 45.93,0 50.61,9.65c0.69,1.38 0.8,10.78 0.77,12.18c-0.11,11.65 -23.44,20.77 -51.99,20.36z"/>
  <ellipse id="svg_22" fill="#f8c244" transform="rotate(-89.18000030517578 -83.94999694824216,303.19000244140625) " ry="51.69" rx="21.09" cy="476.44" cx="116.12"/>
  <ellipse id="svg_23" fill="#e8a825" transform="rotate(-89.18000030517578 -83.94999694824216,303.19000244140625) " ry="44.04" rx="17.97" cy="476.44" cx="116.12"/>
  <path id="svg_24" fill="#f8c244" d="m64.37,103.52l7,0.1a5.79,5.79 0 0 1 3.15,-4.31l4.67,0.74a5.41,5.41 0 0 0 -3.06,4.07c0,2 2.83,3.45 6.79,3.49a10.59,10.59 0 0 0 8.38,-3.1a14.91,14.91 0 0 1 12.15,-4.53c5.8,0 10.2,1.83 11.21,4.46l7,0.11l0,1.77l-6.78,-0.11a5,5 0 0 1 -2.5,3.68l-4.59,-0.77a4.77,4.77 0 0 0 2.41,-3.58c0,-2.15 -3.17,-3.06 -6,-3.1a9.84,9.84 0 0 0 -8,3.42c-3,2.89 -6.64,4.31 -12.93,4.31c-5.54,0 -10.77,-1.72 -11.83,-4.67l-7.16,-0.12l0.09,-1.86z"/>
  <path id="svg_25" fill="url(#linear-gradient)" d="m121.14,101.64c1.47,1.73 1.19,4.45 -0.08,6.34a13.92,13.92 0 0 1 -5.28,4.18c-13,6.92 -27.71,9.8 -42.08,13.06a3.32,3.32 0 0 0 -1.5,0.61c-0.81,0.71 -0.75,2 -0.82,3c-0.27,3.53 -2.72,6.49 -3.72,9.89a24.92,24.92 0 0 0 -0.53,7.86l0.87,21.45a4.11,4.11 0 0 1 -0.33,2.23a3.62,3.62 0 0 1 -2,1.41a13.6,13.6 0 0 1 -9.08,-0.09a3.06,3.06 0 0 1 -1.38,-0.86a3.43,3.43 0 0 1 -0.54,-1.81c-1.32,-13.21 -3.29,-26.36 -5.92,-39.37a9.9,9.9 0 0 1 -0.17,-4.83c0.81,-2.67 3.63,-4.09 6.18,-5.23l30.32,-13.45a23,23 0 0 0 5.08,-2.78c1.07,-0.85 2,-1.88 3,-2.77c3.78,-3.21 8.61,-3.88 13.27,-2.72c4.2,1.03 11.81,0.46 14.71,3.88z"/>
  <path id="svg_26" fill="url(#linear-gradient-2)" d="m61.2,168.28c0,3.09 -5,6 -7.43,6.73a14.6,14.6 0 0 0 -3,1a2.76,2.76 0 0 0 -1.54,2.52c0.1,0.91 0.84,1.64 1,2.53a4.61,4.61 0 0 1 -0.29,2.28c-0.92,3 -4.61,4.86 -5.52,7.85c-5.11,-0.52 -7.42,-0.09 -12.48,-0.94l-4.22,-2.7c2.12,-4 4.23,-7.94 6.38,-11.93a24.26,24.26 0 0 1 3,-4.73a22.2,22.2 0 0 1 4.68,-3.73a122.35,122.35 0 0 1 13.91,-7.78c-0.61,0.32 5.51,8.1 5.51,8.9z"/>
  <path id="svg_27" fill="#fbc6d7" d="m67.27,71.81a3.14,3.14 0 0 1 -1.86,0.35a24.08,24.08 0 0 1 1.71,-8c1.05,-2.22 2.76,-4.06 4.18,-6.07a40.42,40.42 0 0 1 2.43,-3.36a6.94,6.94 0 0 1 3.35,-2.35a0.61,0.61 0 0 1 0.63,0.08a0.64,0.64 0 0 1 0.13,0.33l1.21,6.89a6.11,6.11 0 0 1 -0.05,3.34a9.52,9.52 0 0 1 -2.32,2.55a32.43,32.43 0 0 1 -5.82,4.39a33.26,33.26 0 0 1 -3.59,1.85z"/>
  <path id="svg_28" fill="url(#linear-gradient-3)" d="m67.27,71.81a3.14,3.14 0 0 1 -1.86,0.35a24.08,24.08 0 0 1 1.71,-8c1.05,-2.22 2.76,-4.06 4.18,-6.07a40.42,40.42 0 0 1 2.43,-3.36a6.94,6.94 0 0 1 3.35,-2.35a0.61,0.61 0 0 1 0.63,0.08a0.64,0.64 0 0 1 0.13,0.33l1.21,6.89a6.11,6.11 0 0 1 -0.05,3.34a9.52,9.52 0 0 1 -2.32,2.55a32.43,32.43 0 0 1 -5.82,4.39a33.26,33.26 0 0 1 -3.59,1.85z"/>
  <path id="svg_29" fill="#fbc6d7" d="m58.23,154.25c0.52,1.7 1,3.7 0,5.13a4.25,4.25 0 0 1 -1.86,1.34a5,5 0 0 1 -5.32,-0.57a7,7 0 0 1 -1.61,-3.05a73.34,73.34 0 0 1 -2.9,-12.72a2.32,2.32 0 0 1 0.06,-1.2a2.06,2.06 0 0 1 1,-0.94c2.27,-1.22 5.81,-2.2 7.08,0.51c1.65,3.47 2.4,7.78 3.55,11.5z"/>
  <path id="svg_30" fill="#70a9a1" d="m51.39,156.22a3.1,3.1 0 0 0 -1.43,0.14a2.55,2.55 0 0 0 -0.8,0.7l-4.91,5.61c-0.95,1.08 -2,2.57 -1.29,3.85a2.85,2.85 0 0 0 2.11,1.27c2.34,0.42 4.71,-0.42 6.9,-1.37c1.51,-0.66 3,-1.39 4.46,-2.17a7.25,7.25 0 0 0 2.79,-2.22c1.12,-1.74 1.45,-5.9 -0.55,-7.2c-1,-0.65 -1.88,-0.18 -2.84,0.27a9.32,9.32 0 0 1 -4.44,1.12z"/>
  <path id="svg_31" fill="#fbc6d7" d="m31,173.32a2,2 0 0 0 0.1,0.94a1.85,1.85 0 0 0 0.72,0.72a6,6 0 0 0 3.16,1.08a3.67,3.67 0 0 0 3,-1.36a6.25,6.25 0 0 0 0.93,-2.79a33.62,33.62 0 0 0 0.61,-6.48a1.16,1.16 0 0 0 -0.27,-0.85a1.21,1.21 0 0 0 -0.56,-0.23c-1.78,-0.37 -5.29,-1.31 -6.19,0.89a25.76,25.76 0 0 0 -1.5,8.08z"/>
  <path id="svg_32" fill="#70a9a1" d="m23.52,173.1a16.32,16.32 0 0 0 -4.45,0.86a5.61,5.61 0 0 0 -3.26,3a3.21,3.21 0 0 0 -0.09,2.18a4.65,4.65 0 0 0 2.42,2.32a30.58,30.58 0 0 0 16.5,3.61a5.58,5.58 0 0 0 4,-1.49c0.93,-1.07 1,-2.63 1.06,-4.06l0.2,-6.79c-1.28,-0.2 -2.46,0.64 -3.68,1.06c-2.1,0.72 -2.93,-1 -4.67,-1.43c-2.28,-0.51 -5.71,0.51 -8.03,0.74z"/>
  <path id="svg_33" fill="url(#linear-gradient-4)" d="m51.39,156.22a3.1,3.1 0 0 0 -1.43,0.14a2.55,2.55 0 0 0 -0.8,0.7l-4.91,5.61c-0.95,1.08 -2,2.57 -1.29,3.85a2.85,2.85 0 0 0 2.11,1.27c2.34,0.42 4.71,-0.42 6.9,-1.37c1.51,-0.66 3,-1.39 4.46,-2.17a7.25,7.25 0 0 0 2.79,-2.22c1.12,-1.74 1.45,-5.9 -0.55,-7.2c-1,-0.65 -1.88,-0.18 -2.84,0.27a9.32,9.32 0 0 1 -4.44,1.12z"/>
  <path id="svg_34" fill="url(#linear-gradient-5)" d="m23.52,173.1a16.32,16.32 0 0 0 -4.45,0.86a5.61,5.61 0 0 0 -3.26,3a3.21,3.21 0 0 0 -0.09,2.18a4.65,4.65 0 0 0 2.42,2.32a30.58,30.58 0 0 0 16.5,3.61a5.58,5.58 0 0 0 4,-1.49c0.93,-1.07 1,-2.63 1.06,-4.06l0.2,-6.79c-1.28,-0.2 -2.46,0.64 -3.68,1.06c-2.1,0.72 -2.93,-1 -4.67,-1.43c-2.28,-0.51 -5.71,0.51 -8.03,0.74z"/>
  <path id="svg_35" fill="#282328" d="m41.66,98.13a8,8 0 0 0 -3.87,2c-1.26,1.42 -1.37,3.52 -1.37,5.43a112.16,112.16 0 0 0 7.52,40.11a3.7,3.7 0 0 0 1.69,2.27a3.54,3.54 0 0 0 2.29,-0.11a90.79,90.79 0 0 0 8.75,-2.94l-3.88,-26.07a3.71,3.71 0 0 1 0.12,-2.19a3.56,3.56 0 0 1 1.17,-1.25a102.74,102.74 0 0 1 14,-8.71c3.88,-2 8.33,-4.28 9.4,-8.57a4.79,4.79 0 0 0 -0.77,-4.26a6.7,6.7 0 0 0 -2.14,-1.45c-2.58,-1.29 -5.83,-2.95 -8.8,-2.64c-2.37,0.25 -3.28,1.64 -5.27,2.67c-5.57,2.89 -12.87,3.96 -18.84,5.71z"/>
  <path id="svg_36" fill="#fff" d="m83.66,97.62a56,56 0 0 1 -7,-3.32c-8.57,-4.79 -1.55,-7.15 1.31,-12.93c2,-4.09 1.21,-9 0.14,-13.44c-1.86,-7.81 -4.35,-15.89 -2.55,-23.71a9.16,9.16 0 0 1 1.46,-3.53a10.23,10.23 0 0 1 1.79,-1.75a19.91,19.91 0 0 1 6.13,-3.64c4.32,-1.42 9.11,-0.38 13.17,1.69c15.95,8.12 19.35,28.66 18.72,45.07c-0.18,4.56 -0.86,9.39 -3.76,12.87c-2.72,3.27 -7,4.81 -11.17,5.34a37.51,37.51 0 0 1 -18.24,-2.65z"/>
  <path id="svg_37" fill="#fbc6d7" d="m93.29,46.5a8,8 0 0 1 -5.75,3a1.55,1.55 0 0 1 -1,-0.22a1.78,1.78 0 0 1 -0.5,-1.21c-0.1,-0.9 -0.23,-2.06 -0.33,-3.21s-0.28,-2.56 -0.4,-3.54a14.12,14.12 0 0 0 -2.86,-7.17a6.84,6.84 0 0 0 -1.13,-1.23c-2.76,-2.49 8.48,-1.51 10,-4.89c1.71,2.2 1.56,5.31 2.31,8a40,40 0 0 1 1.25,4a8.09,8.09 0 0 1 -1.59,6.47z"/>
  <path id="svg_38" fill="url(#linear-gradient-6)" d="m85.86,45.38l-0.15,-0.53c-0.15,-1.28 -0.28,-2.56 -0.4,-3.54a14.12,14.12 0 0 0 -2.86,-7.17l-0.08,-0.28s8.91,-5.84 9.86,1s-6.37,10.52 -6.37,10.52z"/>
  <path id="svg_39" fill="#fbc6d7" d="m76.52,30.09a7,7 0 0 0 0.75,4.14a5.37,5.37 0 0 0 1.32,1.37c3.54,2.67 8.86,2.13 12.38,-0.63s5.34,-7.35 5.53,-11.84c0.09,-2.34 -0.28,-4.85 -1.85,-6.56a7.26,7.26 0 0 0 -6.69,-1.86a17,17 0 0 0 -8.48,4.82c-2.24,2.52 -2.8,7.36 -2.96,10.56z"/>
  <path id="svg_40" fill="#473f47" d="m44.44,116.31a28.36,28.36 0 0 0 -4.3,7.82a157.93,157.93 0 0 0 -10.8,43a54.7,54.7 0 0 0 13.77,0a133,133 0 0 1 4.73,-30.86a20.32,20.32 0 0 1 2.49,-6.11c2,-3 5.38,-4.73 8.59,-6.35a124,124 0 0 1 23.09,-8.75c3.36,-0.95 6.75,-1.8 10,-2.93a24.25,24.25 0 0 0 7.82,-4a11.17,11.17 0 0 0 4.22,-7.59c-0.05,0.75 -16.7,-0.07 -18.25,-0.24c-5.22,-0.56 -11.38,-3.6 -16.54,-1.46c-4,1.68 -7.73,5.18 -11.36,7.6c-4.46,2.94 -9.9,5.67 -13.46,9.87z"/>
  <polygon id="svg_41" fill="#70a9a1" points="68.22000122070312,115.19999694824219 97.27999877929688,100.77999877929688 63.63999938964844,88.66000366210938 37.13999938964844,100.41999816894531 68.22000122070312,115.19999694824219 "/>
  <polygon id="svg_42" fill="url(#linear-gradient-7)" points="68.05000305175781,113.00999450683594 92.32000732421875,100.97000122070312 64.22999572753906,90.85000610351562 42.099998474121094,100.66999816894531 68.05000305175781,113.00999450683594 "/>
  <path id="svg_43" fill="#fbc6d7" d="m108.56,53.45c0.08,0.5 0.14,1 0.19,1.5c0.79,7.39 0.08,14.67 -0.19,22c-0.17,4.56 -0.76,13.24 -5.53,15.57c-8.92,4.37 -26.12,2.69 -26.12,2.69a15.08,15.08 0 0 0 -6,0.24c-1.07,0.34 -2.05,0.91 -3.1,1.31c-3.76,1.47 -8,0.73 -11.92,0a5.08,5.08 0 0 1 -1.94,-0.66c-1.54,-1 -1.47,-3.53 -0.32,-5a8.84,8.84 0 0 1 4.78,-2.67c5,-1.46 10.45,-2.1 15.47,-0.61c0.66,0.19 1.32,0.42 2,0.55a13.73,13.73 0 0 0 2.39,0.17l6.08,0.05c7,0.07 13.55,0.1 14.6,-8.2a46.14,46.14 0 0 0 0.24,-9.25c-0.42,-5.58 -1.85,-11.1 -1.55,-16.68a11.14,11.14 0 0 1 1.25,-5.06a5.09,5.09 0 0 1 4.2,-2.69a5.26,5.26 0 0 1 4.31,2.94a11.45,11.45 0 0 1 1.16,3.8z"/>
  <polygon id="svg_44" fill="#70a9a1" points="26.230003356933594,73.88999938964844 63.25999450683594,93.02999877929688 68.22000122070312,115.19999694824219 37.13999938964844,100.41999816894531 26.230003356933594,73.88999938964844 "/>
  <path id="svg_45" fill="#fc682d" d="m89.83,26.38a22.59,22.59 0 0 1 0.39,5.13c1.18,-1 1.09,-3.67 2.66,-3.6c0.94,0 1.38,1.35 0.94,2.2a3.56,3.56 0 0 1 -2.31,1.54c-0.27,3.61 2.6,6.09 5,8.28a19,19 0 0 1 5.28,9.36c1.14,4.48 1.08,9.18 1,13.83c1.28,-1 3.09,-0.48 4.7,-0.31c4.75,0.49 9.49,-3.27 10.52,-8a11.73,11.73 0 0 0 -5.6,-12.25c-1.28,-0.73 -2.76,-1.3 -3.55,-2.55c-1.08,-1.71 -0.44,-3.94 -0.38,-6a10,10 0 0 0 -7.53,-9.78a13.75,13.75 0 0 0 1.63,-5.13a8.79,8.79 0 0 0 -2.8,-6.44a20.23,20.23 0 0 0 -6,-3.82c-2.07,-0.95 -4.39,-1.8 -6.58,-1.15c-2.57,0.77 -4.17,3.37 -5.08,5.91a3.21,3.21 0 0 0 -3.71,0.74a5.26,5.26 0 0 0 -1.33,3.82a7.41,7.41 0 0 0 0.55,2.63c0.85,-1 1.87,-2 2.89,-1.27s1.63,2.23 2.57,3a18.64,18.64 0 0 0 3.3,2.21c0.41,0.26 3.37,1.31 3.44,1.65z"/>
  <path id="svg_46" fill="#fbc6d7" d="m76.95,47.2a0.82,0.82 0 0 1 0.38,-0.56c0.35,-0.13 0.68,0.25 1.06,0.31a0.94,0.94 0 0 0 0.75,-0.29a6.42,6.42 0 0 0 0.54,-0.63c0.29,-0.32 0.65,-0.58 0.93,-0.91a2.51,2.51 0 0 0 0.41,-2.4a1.84,1.84 0 0 0 1.44,-1.91a0.74,0.74 0 0 1 0,-0.39c0.09,-0.18 0.31,-0.22 0.5,-0.27a2,2 0 0 0 1.33,-1.24a0.92,0.92 0 0 0 -0.16,-1a1.13,1.13 0 0 0 -0.51,-0.19c-1.45,-0.29 -2.9,-0.54 -4.36,-0.75a2.73,2.73 0 0 1 -0.64,-0.16c-0.31,-0.15 -0.53,-0.43 -0.82,-0.6a1.87,1.87 0 0 0 -2.34,0.71a9.89,9.89 0 0 0 -0.87,2.68c-0.37,1 -0.33,2.12 -0.75,3.12a13.13,13.13 0 0 1 -1.11,2c-1.87,3 -9.27,12.91 -10.91,15c-1.75,2.26 -3.46,4.71 -3.82,7.54a5.62,5.62 0 0 0 0.31,2.93c1.33,3.14 5.81,4 8.34,1.91a10.24,10.24 0 0 0 2.73,-4.1c0.48,-1.17 0.74,-2.4 1.19,-3.57a27.51,27.51 0 0 1 1.43,-2.52a51.37,51.37 0 0 0 3,-7c0.5,-1.45 0.92,-2.92 1.28,-4.41c0.17,-0.75 0.33,-1.5 0.47,-2.26c0.08,-0.22 0.1,-0.67 0.2,-1.04z"/>
 </g>
</svg>