<svg width="202" height="159" viewBox="0 0 202 159" fill="none" xmlns="http://www.w3.org/2000/svg">
<path d="M98.6768 49.6822L105.898 26.1412C106.829 21.6301 107.238 16.3098 107.752 11.7185C108.007 10.2191 107.994 8.68615 107.711 7.19144C107.246 5.24438 105.938 3.13708 106.981 1.42238C108.024 -0.292308 110.921 -0.0118657 112.694 1.174C115.141 2.77651 116.778 6.44627 114.837 8.65774C114.233 9.175 113.667 9.73463 113.144 10.3324C112.478 11.358 112.662 12.7361 112.791 13.914C113.384 19.5228 112.213 25.1316 111.057 30.7404L107.848 46.0765C107.046 49.8104 105.81 54.0891 102.231 55.4753C101.97 55.6025 101.686 55.6739 101.396 55.6849C101.105 55.6959 100.816 55.6464 100.546 55.5394C100.225 55.3559 99.9505 55.1009 99.7439 54.7942C98.9175 53.4881 98.765 51.2446 98.6768 49.6822Z" fill="#C1A7A7"/>
<path d="M98.6768 49.6822L105.898 26.1412C106.829 21.6301 107.238 16.3098 107.752 11.7185C108.007 10.2191 107.994 8.68615 107.711 7.19144C107.246 5.24438 105.938 3.13708 106.981 1.42238C108.024 -0.292308 110.921 -0.0118657 112.694 1.174C115.141 2.77651 116.778 6.44627 114.837 8.65774C114.233 9.175 113.667 9.73463 113.144 10.3324C112.478 11.358 112.662 12.7361 112.791 13.914C113.384 19.5228 112.213 25.1316 111.057 30.7404L107.848 46.0765C107.046 49.8104 105.81 54.0891 102.231 55.4753C101.97 55.6025 101.686 55.6739 101.396 55.6849C101.105 55.6959 100.816 55.6464 100.546 55.5394C100.225 55.3559 99.9505 55.1009 99.7439 54.7942C98.9175 53.4881 98.765 51.2446 98.6768 49.6822Z" fill="url(#paint0_linear)" fill-opacity="0.2"/>
<path d="M140.239 109.688C140.308 114.199 139.487 118.678 137.822 122.872C136.158 127.065 133.682 130.89 130.537 134.128C127.392 137.366 123.639 139.954 119.493 141.744C115.347 143.533 110.888 144.49 106.371 144.559C101.854 144.628 97.3683 143.808 93.1691 142.145C88.9698 140.483 85.1396 138.011 81.897 134.87C78.6544 131.73 76.0631 127.982 74.2708 123.842C72.4786 119.701 71.5207 115.248 71.4517 110.738C71.4517 110.385 71.4517 110.041 71.4517 109.688C71.4342 108.811 71.469 107.933 71.556 107.06C72.2216 98.1941 76.3045 89.9314 82.9459 84.0101C89.5873 78.0888 98.2695 74.9703 107.166 75.3107C116.063 75.6512 124.481 79.4239 130.649 85.8354C136.817 92.2469 140.255 100.797 140.239 109.688Z" fill="#40798C"/>
<path opacity="0.14" d="M91.3912 125.289C90.2518 130.257 91.64 135.545 90.5888 140.513C82.6429 136.594 76.5159 129.766 73.4822 121.451C73.3136 119.743 73.354 118.021 73.6026 116.323C73.8353 114.496 74.1722 112.605 73.6587 110.834C73.1617 109.474 72.4403 108.207 71.5244 107.084C71.9045 102.063 73.3886 97.1868 75.8711 92.8035C78.3536 88.4202 81.7734 84.6374 85.8869 81.7245C85.9271 81.9551 85.9271 82.191 85.8869 82.4216L84.4106 88.9598C84.7075 90.8983 84.7075 92.8706 84.4106 94.809C84.2531 95.7778 83.8839 96.7 83.3292 97.5101C82.7745 98.3202 82.0479 98.9984 81.2011 99.4964C80.5666 99.7604 79.9502 100.066 79.3556 100.41C78.7805 100.872 78.3031 101.444 77.9514 102.092C76.9983 103.415 76.2891 104.896 75.8572 106.467C75.6444 107.252 75.6321 108.078 75.8213 108.869C76.0106 109.66 76.3953 110.39 76.9404 110.994L86.5689 109.136C87.5719 108.943 88.7835 108.807 89.4735 109.56C90.2759 110.458 89.7784 111.9 89.963 113.11C90.1877 114.656 91.5677 115.77 92.2096 117.212C93.3731 119.72 92.0171 122.581 91.3912 125.289Z" fill="#020202"/>
<path opacity="0.14" d="M82.6615 85.6106C81.2894 87.2131 79.8692 88.9198 79.452 90.979C79.322 91.421 79.322 91.8911 79.452 92.3331C79.6367 92.6817 79.8929 92.9875 80.204 93.2305C80.5151 93.4735 80.874 93.6483 81.2573 93.7433C84.5186 94.9938 87.9955 95.5875 91.4876 95.4901C91.287 97.4532 91.1987 99.7287 92.635 101.099C93.1781 101.572 93.8074 101.937 94.4885 102.173C96.6508 103.023 98.939 103.51 101.261 103.615C103.202 103.703 105.168 103.511 107.11 103.727C109.507 103.989 111.8 104.849 113.778 106.227C114.285 106.533 114.703 106.967 114.989 107.485C115.199 108.045 115.284 108.644 115.238 109.24C115.252 111.348 115.521 113.446 116.04 115.489C116.562 117.477 117.404 119.496 119.073 120.706C119.957 121.274 120.919 121.709 121.93 121.996L128.79 124.335C128.956 124.411 129.143 124.428 129.32 124.383C129.488 124.293 129.619 124.145 129.689 123.967C130.451 122.476 131.205 120.826 130.892 119.159C130.579 117.493 129.287 116.283 128.686 114.752C127.699 112.349 128.469 109.496 127.659 107.012C127.081 105.507 126.168 104.153 124.987 103.054C123.003 101.1 120.894 99.2769 118.672 97.5974C115.142 94.809 111.563 91.9886 107.439 90.1297C105.786 89.3765 103.94 88.6954 102.986 87.157C101.838 85.3061 102.336 82.7661 101.1 80.9713C100.089 79.513 98.1874 78.9521 96.4142 78.856C93.4792 78.768 90.5722 79.4475 87.9812 80.827C85.6463 82.0049 84.3625 83.6154 82.6615 85.6106Z" fill="#020202"/>
<path opacity="0.14" d="M140.24 109.688C140.246 114.883 139.07 120.011 136.8 124.684C134.53 129.358 131.226 133.456 127.137 136.667C126.663 136.356 126.256 135.953 125.941 135.481C124.914 133.926 125.251 131.475 126.912 130.593C126.335 130.898 124.064 130.153 123.382 130.048L119.843 129.503C118.15 129.239 115.19 129.351 114.227 127.645C114.118 127.408 113.986 127.183 113.834 126.972C113.623 126.757 113.372 126.586 113.095 126.467C112.028 125.946 110.785 125.361 110.528 124.199C110.351 123.35 110.776 122.388 110.335 121.635C110.199 121.403 109.99 121.218 109.854 120.986C109.705 120.636 109.649 120.254 109.691 119.877C109.734 119.499 109.872 119.139 110.094 118.831C111.587 116.227 114.676 114.961 117.645 114.464C120.614 113.967 123.679 114.039 126.567 113.206C128.389 112.677 130.122 111.796 131.999 111.539C133.034 111.395 134.334 111.283 134.711 110.313C134.92 109.76 134.711 109.119 134.928 108.567C135.016 108.326 135.177 108.118 135.265 107.878C135.323 107.7 135.344 107.513 135.33 107.328C135.315 107.142 135.263 106.961 135.178 106.795C135.094 106.629 134.977 106.481 134.835 106.36C134.692 106.24 134.528 106.148 134.35 106.091C134.261 106.064 134.17 106.046 134.077 106.035C134.318 105.394 134.511 104.568 134.005 104.112C133.827 103.981 133.621 103.896 133.403 103.863C133.185 103.829 132.962 103.849 132.754 103.919C131.518 104.224 130.627 105.265 129.592 106.003C126.158 108.406 121.448 107.605 118.584 104.705C118.119 104.295 117.787 103.757 117.629 103.158C117.584 102.647 117.7 102.135 117.96 101.692C118.22 101.25 118.612 100.9 119.081 100.69C120.021 100.289 121.036 100.09 122.058 100.105C121.681 97.6134 121.256 95.1135 120.91 92.6296C115.198 94.16 112.887 88.7194 112.084 84.2003C111.282 79.6813 114.491 78.0627 118.632 77.7903C125.012 80.3435 130.48 84.7466 134.332 90.4319C138.183 96.1173 140.241 102.824 140.24 109.688Z" fill="#020202"/>
<path d="M114.925 124.928C114.925 126.819 117.982 128.606 119.474 129.047C120.098 129.176 120.706 129.372 121.288 129.632C121.574 129.773 121.815 129.993 121.983 130.265C122.15 130.537 122.237 130.851 122.234 131.17C122.17 131.723 121.721 132.172 121.601 132.708C121.535 133.18 121.593 133.66 121.769 134.103C122.339 135.937 124.601 137.075 125.155 138.91C128.284 138.598 129.697 138.862 132.794 138.341L135.377 136.691C134.078 134.287 132.786 131.835 131.478 129.399C130.98 128.367 130.364 127.396 129.64 126.507C128.786 125.624 127.821 124.856 126.768 124.223C124.05 122.458 121.223 120.869 118.303 119.464C118.696 119.688 114.925 124.439 114.925 124.928Z" fill="url(#paint1_linear)"/>
<path d="M116.754 116.347C116.433 117.388 116.144 118.614 116.754 119.488C117.052 119.855 117.446 120.133 117.893 120.289C118.413 120.543 118.995 120.646 119.571 120.585C120.148 120.524 120.695 120.302 121.151 119.944C121.631 119.415 121.971 118.773 122.137 118.078C122.948 115.535 123.534 112.926 123.887 110.281C123.951 110.04 123.951 109.786 123.887 109.544C123.75 109.289 123.533 109.086 123.269 108.967C121.881 108.222 119.706 107.621 118.928 109.28C117.909 111.451 117.444 114.079 116.754 116.347Z" fill="#C1A7A7"/>
<path d="M120.934 117.557C121.231 117.517 121.533 117.548 121.817 117.645C122.008 117.75 122.175 117.895 122.306 118.07L125.307 121.499C125.893 122.164 126.51 123.101 126.109 123.855C125.969 124.077 125.779 124.265 125.556 124.404C125.332 124.542 125.079 124.629 124.817 124.656C123.363 124.803 121.896 124.525 120.597 123.855C119.666 123.446 118.759 123.005 117.861 122.525C117.19 122.217 116.606 121.749 116.16 121.162C115.478 120.105 115.269 117.557 116.497 116.763C117.107 116.371 117.644 116.651 118.238 116.932C119.073 117.354 119.998 117.568 120.934 117.557Z" fill="#ABABAB"/>
<path d="M133.419 128.013C133.442 128.208 133.42 128.405 133.355 128.59C133.251 128.772 133.102 128.924 132.922 129.031C132.349 129.427 131.676 129.654 130.98 129.688C130.635 129.704 130.291 129.639 129.975 129.5C129.659 129.361 129.38 129.151 129.159 128.887C128.838 128.37 128.645 127.785 128.597 127.18C128.343 125.876 128.217 124.55 128.22 123.222C128.202 123.144 128.202 123.063 128.219 122.985C128.236 122.907 128.271 122.834 128.32 122.771C128.369 122.708 128.432 122.657 128.503 122.621C128.575 122.585 128.653 122.566 128.733 122.565C129.816 122.332 131.943 121.763 132.52 123.101C133.075 124.682 133.378 126.339 133.419 128.013Z" fill="#C1A7A7"/>
<path d="M138.001 127.877C138.928 127.923 139.844 128.102 140.721 128.406C141.163 128.56 141.568 128.804 141.911 129.121C142.255 129.438 142.53 129.822 142.719 130.249C142.894 130.674 142.914 131.148 142.775 131.587C142.477 132.225 141.95 132.728 141.299 132.997C138.209 134.673 134.706 135.439 131.197 135.208C130.294 135.239 129.415 134.914 128.75 134.303C128.258 133.569 128.029 132.691 128.1 131.811L127.979 127.661C128.782 127.54 129.48 128.053 130.226 128.31C131.518 128.75 132.023 127.693 133.091 127.436C134.479 127.116 136.581 127.733 138.001 127.877Z" fill="#ABABAB"/>
<path d="M120.934 117.557C121.231 117.517 121.533 117.548 121.817 117.645C122.008 117.75 122.175 117.895 122.306 118.07L125.307 121.499C125.893 122.164 126.51 123.101 126.109 123.855C125.969 124.077 125.779 124.265 125.556 124.404C125.332 124.542 125.079 124.629 124.817 124.656C123.363 124.803 121.896 124.525 120.597 123.855C119.666 123.446 118.759 123.005 117.861 122.525C117.19 122.217 116.606 121.749 116.16 121.162C115.478 120.105 115.269 117.557 116.497 116.763C117.107 116.371 117.644 116.651 118.238 116.932C119.073 117.354 119.998 117.568 120.934 117.557Z" fill="url(#paint2_linear)"/>
<path d="M115.735 118.182C115.782 118.495 115.866 118.801 115.984 119.095C116.114 119.484 116.286 119.857 116.498 120.209C116.786 120.616 117.145 120.969 117.557 121.251C118.591 121.945 119.721 122.485 120.911 122.853C122.717 123.556 124.679 123.761 126.592 123.446C126.418 123.868 126.092 124.209 125.677 124.399C125.265 124.585 124.821 124.686 124.369 124.696C122.605 124.645 120.879 124.178 119.33 123.334L117.557 122.533C117.308 122.422 117.069 122.291 116.843 122.14C116.528 121.906 116.256 121.618 116.04 121.291C115.638 120.702 115.392 120.021 115.326 119.311C115.294 118.968 115.318 118.622 115.398 118.286C115.398 118.142 115.607 117.485 115.8 117.485C115.73 117.71 115.709 117.947 115.735 118.182Z" fill="#473F47"/>
<path d="M138.001 127.877C138.928 127.923 139.844 128.102 140.721 128.406C141.163 128.56 141.568 128.804 141.911 129.121C142.255 129.438 142.53 129.822 142.719 130.249C142.894 130.674 142.914 131.148 142.775 131.587C142.477 132.225 141.95 132.728 141.299 132.997C138.209 134.673 134.706 135.439 131.197 135.208C130.294 135.239 129.415 134.914 128.75 134.303C128.258 133.569 128.029 132.691 128.1 131.811L127.979 127.661C128.782 127.54 129.48 128.053 130.226 128.31C131.518 128.75 132.023 127.693 133.091 127.436C134.479 127.116 136.581 127.733 138.001 127.877Z" fill="url(#paint3_linear)"/>
<path d="M126.888 82.037C127.791 82.2055 128.626 82.6281 129.296 83.2549C130.098 84.1202 130.098 85.4022 130.098 86.5721C130.081 94.9577 128.519 103.269 125.492 111.091C125.424 111.379 125.297 111.65 125.121 111.889C124.944 112.127 124.721 112.327 124.465 112.477C124.003 112.612 123.509 112.59 123.061 112.413C121.247 111.907 119.461 111.308 117.709 110.618L120.076 94.6808C120.189 94.2352 120.164 93.7657 120.004 93.3347C119.829 93.0354 119.584 92.7826 119.29 92.5976C116.588 90.5995 113.73 88.8204 110.745 87.2772C108.337 86.0513 105.642 84.6571 104.992 82.029C104.858 81.589 104.831 81.1237 104.912 80.6712C104.993 80.2186 105.179 79.7916 105.457 79.4249C105.832 79.0499 106.276 78.7507 106.765 78.5435C108.37 77.7422 110.335 76.7406 112.157 76.941C113.601 77.0852 114.163 77.9425 115.366 78.5435C118.768 80.3143 123.238 80.9553 126.888 82.037Z" fill="white"/>
<path d="M119.595 111.251C119.394 111.187 120.1 107.429 120.164 107.052C120.293 106.315 120.846 103.046 121.432 105.313C121.527 105.811 121.586 106.314 121.609 106.82C121.681 107.423 121.785 108.022 121.921 108.615C121.997 109.08 122.134 109.532 122.331 109.961C122.703 110.589 123.2 111.134 123.791 111.563C123.901 111.681 124.048 111.757 124.208 111.78C124.441 111.78 124.617 111.563 124.714 111.347C124.955 110.675 125.058 109.961 125.019 109.248C125.139 105.241 127.217 101.748 127.081 97.6374C127.081 96.6358 126.126 95.4259 125.725 94.5045C125.369 93.7603 125.1 92.978 124.922 92.1728C124.417 89.4405 126.03 86.7724 126.254 84L120.814 86.6682L117.709 110.65L119.595 111.251Z" fill="url(#paint4_linear)"/>
<path d="M105.456 79.6972C104.366 80.3066 103.243 80.8575 102.094 81.3478C101.789 81.484 101.485 81.6123 101.172 81.7324C97.6394 83.1836 93.8011 83.7344 90.0026 83.335C89.6174 83.2869 89.2323 83.2228 88.8471 83.1427C86.6579 82.7931 84.6537 81.7076 83.1663 80.0658C81.3931 77.9425 80.9758 74.9859 80.8635 72.2055V71.4042C80.7652 67.9375 81.0341 64.4702 81.6659 61.06C82.3206 57.0045 83.893 53.1515 86.2635 49.7943C87.8617 47.6349 89.9412 45.8765 92.3375 44.6582C94.8168 43.4003 97.7535 42.7592 100.401 43.6326C101.775 44.1387 103.045 44.8908 104.148 45.8521C104.561 46.1598 104.931 46.5208 105.248 46.9258C105.692 47.5751 105.998 48.3088 106.146 49.0812C107.246 53.8887 105.721 58.8004 104.542 63.5759C103.892 66.3002 103.394 69.2969 104.638 71.7968C106.411 75.3304 110.704 76.7727 105.456 79.6972Z" fill="#40798C"/>
<path d="M105.457 79.7133C105.36 80.819 103.964 81.2277 102.849 81.3158L102.095 81.3559C98.0853 81.5878 94.0639 81.2205 90.1633 80.2662C89.6832 80.0971 89.1636 80.0748 88.6708 80.2021C88.5958 80.2283 88.5254 80.2661 88.4622 80.3142V80.5787C88.3355 81.0153 88.3093 81.475 88.3857 81.9232C88.4622 82.3714 88.6392 82.7966 88.9035 83.1667C86.7143 82.8172 84.7101 81.7317 83.2227 80.0899C81.4495 77.9666 81.0322 75.0099 80.9199 72.2296V71.4283C80.8677 69.3751 80.932 67.3206 81.1125 65.2746C81.1708 63.4444 81.4401 61.6269 81.9148 59.8581C83.0731 56.5017 85.1326 53.5276 87.8685 51.2606C88.1228 51.0234 88.4195 50.8358 88.7431 50.7078C89.1088 50.617 89.4894 50.6029 89.8609 50.6663C90.2324 50.7297 90.5867 50.8693 90.9014 51.0763C91.4492 51.3384 91.9357 51.7124 92.3297 52.1741C92.8363 52.8749 93.1163 53.7136 93.132 54.5778C93.1565 55.7476 93.0516 56.9165 92.8191 58.0633C92.579 59.7795 92.2088 61.475 91.7118 63.1353C91.4732 63.7417 91.2932 64.3695 91.1742 65.0102C91.0777 65.8349 91.2226 66.6698 91.5915 67.414C91.8884 68.087 91.9365 68.7922 92.1772 69.4973C92.6735 70.9468 93.4689 72.2762 94.5121 73.3994C96.6864 75.6865 99.5539 77.1957 102.672 77.6941C103.322 77.7508 103.958 77.9104 104.558 78.1669C104.834 78.3192 105.063 78.5435 105.222 78.8159C105.38 79.0883 105.461 79.3984 105.457 79.7133Z" fill="url(#paint5_linear)"/>
<path d="M95.2823 50.4753C95.7068 51.0099 96.239 51.4494 96.8444 51.7655C97.4498 52.0816 98.1149 52.2672 98.7967 52.3102C99.0121 52.3344 99.2294 52.2865 99.4145 52.174C99.6086 51.9774 99.718 51.7129 99.7194 51.4369C99.7836 50.884 99.8639 50.1789 99.92 49.4738C99.9762 48.7687 100.089 47.8713 100.169 47.3104C100.331 45.715 100.937 44.1968 101.918 42.9275C102.118 42.6505 102.349 42.3978 102.608 42.1743C104.301 40.6519 97.4166 41.2529 96.5099 39.1776C95.4669 40.5317 95.5631 42.4307 95.0978 44.0893C94.787 44.8973 94.5192 45.7211 94.2954 46.5572C94.1769 47.2429 94.2034 47.9458 94.3734 48.6206C94.5434 49.2954 94.853 49.9272 95.2823 50.4753Z" fill="#C1A7A7"/>
<path d="M99.8323 49.7943L99.9206 49.4738C100.017 48.6726 100.089 47.8713 100.169 47.3104C100.331 45.7151 100.937 44.1968 101.919 42.9275L101.967 42.7593C101.967 42.7593 96.5105 39.1777 95.9247 43.3682C95.339 47.5588 99.8323 49.7943 99.8323 49.7943Z" fill="url(#paint6_linear)"/>
<path d="M105.521 40.4436C105.626 41.3126 105.463 42.1928 105.056 42.9676C104.838 43.2801 104.566 43.5515 104.253 43.7688C102.087 45.3713 98.8292 45.0749 96.6789 43.3842C95.6349 42.4905 94.7931 41.3854 94.2094 40.1421C93.6256 38.8989 93.3132 37.5459 93.2928 36.1729C93.1414 34.742 93.5464 33.3077 94.4242 32.1666C94.9579 31.6495 95.6125 31.2739 96.3285 31.0738C97.0446 30.8736 97.7994 30.8555 98.5243 31.0208C100.502 31.4856 102.305 32.5093 103.716 33.9694C105.104 35.5239 105.449 38.4805 105.521 40.4436Z" fill="#C1A7A7"/>
<path d="M125.195 93.1584C126.321 94.6108 127.207 96.2339 127.819 97.966C131.239 106.36 133.457 115.194 134.406 124.207C131.606 124.56 128.773 124.56 125.973 124.207C125.753 117.823 124.781 111.487 123.076 105.33C122.78 104.011 122.265 102.752 121.552 101.604C120.308 99.7688 118.262 98.7112 116.296 97.7176C111.769 95.473 107.031 93.6802 102.151 92.3652C100.096 91.7883 98.0263 91.2675 96.0043 90.5704C94.2609 90.0513 92.6287 89.2146 91.1901 88.1025C90.4714 87.5404 89.8725 86.8403 89.4288 86.0436C88.9851 85.2468 88.7055 84.3695 88.6064 83.4632C88.6064 83.9279 98.8287 83.4632 99.7835 83.319C102.993 82.9744 106.748 81.1155 109.91 82.4296C112.381 83.4552 114.635 85.5946 116.858 87.0689C119.674 88.9038 123.012 90.6184 125.195 93.1584Z" fill="white"/>
<path d="M110.632 92.4773L92.835 83.6635L113.432 76.2518L129.656 83.4391L110.632 92.4773Z" fill="#D86B7F"/>
<path d="M110.728 91.1392L95.876 83.7757L113.071 77.59L126.623 83.5914L110.728 91.1392Z" fill="black" fill-opacity="0.1"/>
<path d="M85.9263 54.722C85.8862 55.0265 85.8461 55.331 85.814 55.6355C85.3325 60.1545 85.7658 64.6015 85.9343 69.1046C86.0386 71.885 86.3997 77.1973 89.3123 78.6235C94.7845 81.2917 105.312 80.2661 105.312 80.2661C106.532 80.0735 107.778 80.1225 108.979 80.4103C109.636 80.6187 110.238 80.9712 110.872 81.2116C113.175 82.109 115.751 81.6523 118.174 81.2116C118.594 81.1635 118.998 81.0269 119.361 80.811C120.3 80.17 120.26 78.6476 119.562 77.7502C118.773 76.9285 117.751 76.3691 116.633 76.1477C113.573 75.1298 110.287 75.002 107.157 75.7791C106.757 75.9145 106.35 76.0269 105.938 76.1156C105.455 76.1944 104.966 76.2292 104.477 76.2198H100.754C96.4856 76.2598 92.4576 76.2759 91.8157 71.2039C91.5752 69.3281 91.5268 67.4326 91.6713 65.547C91.9281 62.1417 92.8027 58.7684 92.6181 55.355C92.5994 54.2726 92.3245 53.21 91.8157 52.2541C91.5654 51.7829 91.1975 51.3842 90.7477 51.0965C90.298 50.8087 89.7814 50.6417 89.2481 50.6116C88.6895 50.6546 88.1519 50.8429 87.6888 51.1578C87.2257 51.4727 86.8532 51.9032 86.6083 52.4064C86.251 53.134 86.0204 53.9171 85.9263 54.722Z" fill="#C1A7A7"/>
<path d="M136.34 67.2217L113.665 78.9281L110.632 92.4773L129.656 83.4391L136.34 67.2217Z" fill="#D86B7F"/>
<path d="M105.761 30.8285C105.662 30.6891 105.54 30.5672 105.4 30.4679C105.553 30.4002 105.68 30.2865 105.765 30.1429C105.85 29.9993 105.888 29.8328 105.874 29.6666C105.825 29.3301 105.585 29.3061 105.344 29.1699C105.103 29.0337 105.232 28.8894 105.063 28.625C104.942 28.4735 104.766 28.3756 104.574 28.3526L102.873 27.9199C102.873 27.7036 102.929 27.4472 102.768 27.3029C102.608 27.1587 102.151 27.3029 101.822 27.2228C101.356 27.1507 101.148 26.6058 100.811 26.2693C100.056 25.5241 99.5588 26.2693 98.8768 26.3895C98.1948 26.5097 97.922 25.7805 97.1357 25.6764C96.5204 25.6298 95.9023 25.7145 95.3223 25.9248C94.6803 26.0703 94.0846 26.3732 93.5892 26.8062C93.2437 27.1977 92.9719 27.6483 92.7868 28.1362C92.5926 27.9913 92.349 27.9285 92.1087 27.9615C91.8685 27.9945 91.6509 28.1206 91.503 28.3125L91.4308 28.4327C91.2783 28.7612 91.3345 29.1699 91.1179 29.4503C90.9551 29.4343 90.7912 29.4343 90.6284 29.4503C90.4668 29.4924 90.3162 29.5689 90.1871 29.6747C90.0561 29.7869 89.9504 29.9257 89.8771 30.0818C89.8038 30.2379 89.7645 30.4077 89.7619 30.5801C89.5108 30.5185 89.2467 30.5381 89.0076 30.6362C89.1365 30.4041 89.2259 30.1523 89.2724 29.891C89.3004 29.793 89.3033 29.6896 89.2808 29.5902C89.2584 29.4908 89.2114 29.3986 89.144 29.3221C88.9835 29.1939 88.6706 29.3221 88.7348 29.5304C88.7692 29.45 88.7873 29.3635 88.7882 29.276C88.789 29.1885 88.7726 29.1017 88.7398 29.0206C88.707 28.9395 88.6585 28.8656 88.5971 28.8032C88.5356 28.7408 88.4625 28.6912 88.3818 28.6571C88.2136 28.6018 88.0335 28.5935 87.861 28.633C87.6885 28.6726 87.53 28.7585 87.4029 28.8814C87.2825 28.7692 87.4911 28.5609 87.443 28.4007C87.4205 28.3448 87.3847 28.2953 87.3387 28.2564C87.1243 28.054 86.8775 27.8888 86.6085 27.7677C86.4782 27.7114 86.3353 27.6906 86.1943 27.7075C86.0534 27.7244 85.9194 27.7783 85.8061 27.8638C85.7099 27.2709 85.1963 26.3655 84.4582 26.5417C84.2415 26.5898 84.057 26.8462 84.1693 27.0465C83.9069 26.761 83.5865 26.5347 83.2295 26.3828C82.8725 26.2308 82.4872 26.1566 82.0992 26.1651C81.8344 26.1651 81.4733 26.3815 81.6097 26.6139C81.2684 26.3601 80.8791 26.1781 80.4654 26.079C80.0516 25.9798 79.622 25.9655 79.2026 26.0369C79.1279 26.0343 79.0542 26.0543 78.9912 26.0943C78.9281 26.1344 78.8787 26.1926 78.8496 26.2613C78.8094 26.3975 79.0421 26.5498 79.0983 26.4135C78.8876 26.3816 78.6722 26.408 78.4755 26.49C78.2788 26.5719 78.1084 26.7062 77.983 26.8783C77.7757 27.114 77.6654 27.4194 77.6743 27.733C77.6833 28.0467 77.8107 28.3453 78.0311 28.5689C78.5206 28.9696 79.4513 28.5689 79.323 27.9199C79.4978 28.1343 79.7443 28.2783 80.0171 28.3254C80.2899 28.3726 80.5706 28.3196 80.8073 28.1763C80.8695 28.4948 81.0556 28.7758 81.3248 28.9575C81.594 29.1392 81.9245 29.207 82.2436 29.1458C82.3942 29.1151 82.5381 29.0582 82.6689 28.9776C82.7425 29.2859 82.9022 29.567 83.1294 29.7883C83.3567 30.0095 83.6421 30.1619 83.9527 30.2275C84.5754 30.3478 85.2155 30.3478 85.8382 30.2275C85.6783 30.3652 85.4884 30.4638 85.2836 30.5152C85.0789 30.5667 84.8649 30.5697 84.6587 30.524C84.461 30.4761 84.2547 30.4761 84.057 30.524C83.8453 30.6367 83.6573 30.789 83.5033 30.9727C83.4723 31.0063 83.4373 31.0359 83.399 31.0608C83.3 31.1027 83.1936 31.1243 83.0861 31.1243C82.9786 31.1243 82.8722 31.1027 82.7732 31.0608C82.4924 30.9644 82.1874 30.9644 81.9066 31.0608C81.769 31.1145 81.6529 31.2117 81.5761 31.3377C81.4992 31.4636 81.466 31.6113 81.4813 31.7579C81.3064 31.7217 81.126 31.7203 80.9505 31.7539C80.775 31.7875 80.6079 31.8553 80.4588 31.9536C80.3097 32.0519 80.1815 32.1787 80.0816 32.3266C79.9816 32.4745 79.912 32.6407 79.8766 32.8156C79.8565 32.9484 79.8565 33.0834 79.8766 33.2162C79.6994 33.1574 79.508 33.1568 79.3304 33.2145C79.1528 33.2722 78.9984 33.3851 78.8897 33.5367C78.7978 33.6787 78.7326 33.8362 78.6971 34.0015C78.6316 34.3041 78.602 34.6134 78.6088 34.9229C78.6026 35.0481 78.6304 35.1727 78.6891 35.2835C78.7176 35.3394 78.7635 35.3845 78.82 35.4119C78.8765 35.4394 78.9404 35.4478 79.002 35.4357C78.9167 35.5323 78.8527 35.6457 78.814 35.7685C78.7753 35.8913 78.7628 36.0209 78.7773 36.1488C78.8081 36.2512 78.8632 36.3446 78.9378 36.4213C79.0647 36.5858 79.2424 36.7041 79.4433 36.7578C79.5426 36.7852 79.6474 36.7863 79.7473 36.761C79.8472 36.7357 79.9387 36.6849 80.013 36.6136C80.2216 36.4132 80.2216 36.0847 80.3981 35.8123C80.3786 35.8956 80.3817 35.9826 80.4071 36.0643C80.4325 36.1459 80.4793 36.2194 80.5426 36.277C80.6805 36.3873 80.8562 36.4391 81.032 36.4213C81.0809 36.4174 81.1279 36.4008 81.1684 36.3732C81.2015 36.3393 81.2263 36.2981 81.2406 36.253C81.3715 35.907 81.3911 35.5289 81.2968 35.1713C81.3747 35.2419 81.4698 35.2909 81.5725 35.3134C81.6753 35.3359 81.7822 35.3311 81.8825 35.2995C81.9819 35.2638 82.0696 35.2017 82.1361 35.1197C82.2026 35.0378 82.2453 34.9392 82.2596 34.8348C82.2516 34.7227 82.2516 34.6103 82.2596 34.4982C82.2596 34.338 82.5004 34.2899 82.6287 34.2018C82.808 34.0794 82.9771 33.9428 83.1342 33.7931C83.2065 33.721 83.9366 32.8797 83.8644 32.8236C84.0511 32.9438 84.2758 32.9907 84.4951 32.9552C84.7144 32.9196 84.9128 32.8043 85.0519 32.6313C85.1772 32.8537 85.3771 33.0248 85.6165 33.1142C85.8558 33.2037 86.1191 33.2057 86.3598 33.1201C85.5402 33.689 84.7867 34.3475 84.1131 35.0832C83.4444 35.8134 83.0428 36.7482 82.9738 37.7353C82.9486 38.2366 83.1022 38.7305 83.407 39.1295C83.5655 39.3219 83.7763 39.4644 84.0141 39.5398C84.2519 39.6152 84.5064 39.6201 84.747 39.5542C84.738 39.4805 84.7125 39.4098 84.6726 39.3472C84.6326 39.2847 84.5791 39.2318 84.516 39.1926C84.4528 39.1534 84.3817 39.1289 84.3079 39.1207C84.234 39.1126 84.1592 39.121 84.0891 39.1455C83.9502 39.2049 83.8259 39.2937 83.7248 39.4057C83.6236 39.5178 83.5481 39.6505 83.5033 39.7945C83.4203 39.9713 83.3772 40.1642 83.3772 40.3594C83.3772 40.5547 83.4203 40.7476 83.5033 40.9243C83.5876 41.091 83.7346 41.2174 83.912 41.276C84.0895 41.3346 84.283 41.3205 84.4501 41.2368C84.599 41.1031 84.7214 40.9428 84.8112 40.7641C85.0998 40.4412 85.4051 40.1336 85.7259 39.8426C85.8779 39.6916 85.9735 39.4932 85.9968 39.2803C86.0202 39.0675 85.9699 38.8531 85.8543 38.6728C86.3036 38.4564 86.2876 37.7834 86.0388 37.3507C85.7309 36.9642 85.4621 36.5482 85.2365 36.1088H86.9054L87.7078 35.3716C88.0499 35.5884 88.4338 35.731 88.8346 35.7904C89.2354 35.8497 89.6442 35.8244 90.0347 35.7161C89.9684 36.1073 90.0255 36.5094 90.198 36.8668C90.3705 37.2242 90.6498 37.5193 90.9975 37.7113C90.8611 37.8154 90.6685 37.9436 90.6926 38.144C90.7066 38.2088 90.739 38.2683 90.786 38.3152C90.8329 38.3621 90.8925 38.3944 90.9574 38.4084C91.0846 38.4324 91.2153 38.4324 91.3425 38.4084C91.3987 38.5286 91.2623 38.6568 91.2783 38.793C91.2957 38.8708 91.3415 38.9394 91.4067 38.9853C91.5555 39.105 91.7277 39.1923 91.9122 39.2417C91.8771 39.2877 91.858 39.344 91.858 39.4019C91.858 39.4598 91.8771 39.5161 91.9122 39.5622C91.977 39.6571 92.0695 39.7298 92.177 39.7705C92.4412 39.9079 92.7256 40.0026 93.0195 40.051C92.9856 40.2123 93.0024 40.3802 93.0676 40.5317C93.0965 40.6087 93.1521 40.6728 93.2242 40.7125C93.2963 40.7521 93.3802 40.7648 93.4608 40.748C93.533 40.748 93.5972 40.6679 93.6694 40.6839C93.7143 40.6982 93.7537 40.7263 93.7817 40.7641C93.9156 40.9154 94.0166 41.0927 94.0786 41.2849C94.0982 41.3758 94.1335 41.4625 94.1829 41.5413C94.257 41.6372 94.3573 41.7096 94.4718 41.7496C94.6242 41.8057 94.8088 41.8538 94.9291 41.7496C94.9684 41.7073 94.9952 41.655 95.0065 41.5984C95.0179 41.5418 95.0133 41.4832 94.9933 41.4291C94.9529 41.3246 94.8961 41.2272 94.8248 41.1407C94.8649 41.1597 94.9104 41.1636 94.9531 41.1519C94.9959 41.1401 95.0329 41.1134 95.0575 41.0766C95.0895 40.9913 95.0895 40.8974 95.0575 40.8121C94.962 40.5902 94.832 40.3847 94.6724 40.2032C94.6644 40.1856 94.6603 40.1664 94.6603 40.1471C94.6603 40.1278 94.6644 40.1086 94.6724 40.091C94.6773 40.072 94.6864 40.0543 94.6988 40.039C94.7113 40.0238 94.7269 40.0115 94.7446 40.0029C94.881 39.8506 94.7446 39.6022 94.6644 39.426C94.5841 39.2497 94.3996 39.0494 94.4878 38.8571C94.5348 38.7758 94.5914 38.7005 94.6563 38.6327C94.7446 38.5125 94.7446 38.2962 94.8569 38.2081C94.9118 38.1775 94.9762 38.1687 95.0372 38.1836C95.0982 38.1985 95.1513 38.2358 95.1859 38.2882C95.2661 38.3843 95.2982 38.5125 95.3705 38.6087C95.5134 38.7494 95.6723 38.8731 95.8439 38.9773C95.9642 39.0894 96.0525 39.2497 96.1809 39.3619C96.2199 39.4144 96.2742 39.4537 96.3363 39.4745C96.3984 39.4953 96.4654 39.4967 96.5283 39.4784C96.5912 39.46 96.647 39.4229 96.6881 39.372C96.7293 39.3211 96.7539 39.2589 96.7586 39.1936C96.7715 39.0864 96.7577 38.9777 96.7185 38.8771C96.6793 38.7765 96.6159 38.687 96.5339 38.6167C96.4708 38.5742 96.414 38.5229 96.3654 38.4645C96.3389 38.4362 96.3241 38.399 96.3241 38.3603C96.3241 38.3216 96.3389 38.2844 96.3654 38.2561C96.3972 38.2614 96.4299 38.2565 96.4587 38.2421C96.4875 38.2277 96.511 38.2046 96.5259 38.176C96.5339 38.1499 96.5339 38.122 96.5259 38.0959C96.511 38.0205 96.4748 37.951 96.4216 37.8956C96.4216 37.8956 96.3574 37.8315 96.3654 37.7914C96.3573 37.7708 96.3573 37.7479 96.3654 37.7273C96.4456 37.5911 96.558 37.4709 96.6302 37.3347C96.6867 37.2265 96.6999 37.1009 96.6671 36.9834C96.6343 36.8658 96.558 36.7651 96.4537 36.7017C96.6143 36.8029 96.8056 36.844 96.9936 36.8176C97.1817 36.7912 97.3543 36.699 97.4807 36.5575C97.7278 36.275 97.9087 35.941 98.0103 35.5799C98.0666 35.6225 98.1309 35.6537 98.1993 35.6715C98.2677 35.6893 98.3389 35.6935 98.409 35.6838C98.479 35.6742 98.5465 35.6508 98.6075 35.6151C98.6685 35.5794 98.7218 35.5321 98.7645 35.4758C98.8072 35.4195 98.8383 35.3553 98.8562 35.287C98.874 35.2187 98.8782 35.1475 98.8686 35.0776C98.8589 35.0077 98.8355 34.9403 98.7997 34.8794C98.764 34.8185 98.7166 34.7652 98.6602 34.7226H98.596C98.8051 34.8278 99.0301 34.8981 99.262 34.9309C99.3788 34.9463 99.4977 34.9316 99.6073 34.8881C99.7169 34.8447 99.8134 34.7739 99.8878 34.6825C100.088 34.4021 99.9841 33.9614 100.249 33.737C100.657 34.0932 101.101 34.4073 101.573 34.6745C101.951 34.7986 102.362 34.7679 102.717 34.5891C103.072 34.4103 103.342 34.0981 103.466 33.721C103.466 33.721 103.466 33.721 103.466 33.6729C103.663 33.8029 103.888 33.8844 104.122 33.9108C104.356 33.9373 104.594 33.908 104.814 33.8252C104.99 33.6879 105.116 33.4967 105.173 33.281C105.229 33.0653 105.213 32.8371 105.127 32.6313C105.367 32.6027 105.589 32.4892 105.753 32.3113C105.916 32.1335 106.01 31.903 106.018 31.6618C106.028 31.3632 105.938 31.0698 105.761 30.8285Z" fill="#473F47"/>
<path d="M128.212 133.085C128.212 133.085 129.014 134.688 134.438 133.774C139.862 132.861 142.414 131.17 142.719 130.217C142.826 130.398 142.896 130.599 142.926 130.807C142.955 131.016 142.943 131.228 142.89 131.432C142.837 131.636 142.744 131.828 142.617 131.996C142.49 132.164 142.331 132.305 142.149 132.412C140.793 133.213 135.538 136.819 129.135 134.607C129.135 134.64 128.332 134.415 128.212 133.085Z" fill="#473F47"/>
<path d="M93.9744 37.6312C93.8684 37.6351 93.7656 37.6683 93.6776 37.7274C93.4834 37.855 93.3291 38.0347 93.2326 38.2459C93.1361 38.4571 93.1012 38.6912 93.1319 38.9213C93.1972 39.3864 93.4046 39.82 93.7257 40.1632C93.8551 40.3301 94.0193 40.4669 94.2071 40.5638C94.4617 40.6684 94.7342 40.7228 95.0095 40.7241C95.1151 40.7481 95.2248 40.7481 95.3304 40.7241C95.4368 40.6656 95.5256 40.5798 95.5877 40.4756C95.6498 40.3713 95.6828 40.2524 95.6835 40.1312C95.7254 39.5525 95.6001 38.9741 95.3224 38.4645C95.234 38.3011 95.0965 38.1694 94.9293 38.0879C94.6489 37.8668 94.3227 37.7108 93.9744 37.6312Z" fill="#C1A7A7"/>
<path d="M88.3257 31.5015C88.0058 32.4152 87.8509 33.3783 87.8683 34.346C87.8225 34.8699 87.8909 35.3975 88.0689 35.8924C88.2307 36.2202 88.4358 36.5247 88.6787 36.7979C88.9195 36.8201 89.1622 36.7876 89.3887 36.703C89.6152 36.6184 89.8196 36.4837 89.9866 36.3091C90.0694 36.2266 90.1301 36.1247 90.1631 36.0126C90.2514 35.7082 90.0428 35.4197 89.8743 35.1473C89.3758 34.2416 89.2575 33.1753 89.5453 32.1826C89.6817 31.6378 90.6365 30.1795 89.4089 30.4118C89.149 30.4836 88.9123 30.6218 88.7223 30.813C88.5323 31.0041 88.3956 31.2414 88.3257 31.5015Z" fill="#D86B7F"/>
<path d="M105.047 149.27H104.245C104.138 149.27 104.036 149.228 103.961 149.153C103.886 149.078 103.844 148.976 103.844 148.87C103.844 148.764 103.886 148.662 103.961 148.587C104.036 148.511 104.138 148.469 104.245 148.469H105.047C105.154 148.469 105.256 148.511 105.331 148.587C105.406 148.662 105.448 148.764 105.448 148.87C105.448 148.976 105.406 149.078 105.331 149.153C105.256 149.228 105.154 149.27 105.047 149.27ZM109.059 149.27C108.953 149.27 108.851 149.228 108.775 149.153C108.7 149.078 108.658 148.976 108.658 148.87C108.658 148.764 108.7 148.662 108.775 148.587C108.851 148.511 108.953 148.469 109.059 148.469H109.861C109.968 148.469 110.07 148.511 110.145 148.587C110.22 148.662 110.263 148.764 110.263 148.87C110.263 148.976 110.22 149.078 110.145 149.153C110.07 149.228 109.968 149.27 109.861 149.27H109.059ZM100.233 149.174H99.4306C99.3779 149.172 99.3261 149.16 99.2782 149.138C99.2303 149.116 99.1873 149.084 99.1515 149.046C99.1157 149.007 99.088 148.962 99.0698 148.912C99.0516 148.863 99.0433 148.81 99.0454 148.758C99.0443 148.707 99.0536 148.656 99.0725 148.609C99.0915 148.562 99.1198 148.519 99.1558 148.483C99.1918 148.447 99.2347 148.419 99.2819 148.4C99.3291 148.381 99.3797 148.372 99.4306 148.373H100.233C100.339 148.373 100.441 148.415 100.517 148.49C100.592 148.566 100.634 148.667 100.634 148.774C100.634 148.88 100.592 148.982 100.517 149.057C100.441 149.132 100.339 149.174 100.233 149.174ZM113.873 149.174C113.767 149.174 113.665 149.132 113.59 149.057C113.514 148.982 113.472 148.88 113.472 148.774C113.472 148.667 113.514 148.566 113.59 148.49C113.665 148.415 113.767 148.373 113.873 148.373H114.676C114.781 148.373 114.883 148.412 114.96 148.484C115.037 148.555 115.085 148.653 115.093 148.758C115.095 148.81 115.087 148.863 115.069 148.912C115.05 148.962 115.023 149.007 114.987 149.046C114.951 149.084 114.908 149.116 114.86 149.138C114.812 149.16 114.761 149.172 114.708 149.174H113.905H113.873ZM95.4187 148.966L94.6163 148.918C94.5636 148.915 94.512 148.901 94.4645 148.878C94.417 148.855 94.3745 148.823 94.3395 148.784C94.3045 148.744 94.2775 148.698 94.2603 148.648C94.2431 148.599 94.236 148.546 94.2392 148.493C94.2392 148.442 94.2494 148.392 94.2694 148.345C94.2893 148.299 94.3186 148.256 94.3553 148.221C94.392 148.186 94.4355 148.159 94.4831 148.141C94.5308 148.123 94.5815 148.114 94.6324 148.117L95.4348 148.165C95.5412 148.165 95.6432 148.207 95.7184 148.282C95.7937 148.357 95.8359 148.459 95.8359 148.565C95.8359 148.672 95.7937 148.774 95.7184 148.849C95.6432 148.924 95.5412 148.966 95.4348 148.966H95.4187ZM118.688 148.966C118.586 148.964 118.488 148.925 118.414 148.855C118.34 148.786 118.294 148.691 118.286 148.589C118.284 148.484 118.321 148.382 118.391 148.303C118.461 148.224 118.559 148.175 118.664 148.165L119.466 148.117C119.571 148.114 119.674 148.152 119.753 148.221C119.832 148.291 119.881 148.388 119.891 148.493C119.894 148.546 119.887 148.599 119.87 148.648C119.853 148.698 119.826 148.744 119.791 148.784C119.756 148.823 119.713 148.855 119.666 148.878C119.618 148.901 119.567 148.915 119.514 148.918L118.712 148.966H118.688ZM90.6045 148.645L89.8021 148.573C89.7494 148.569 89.6979 148.555 89.6508 148.531C89.6036 148.507 89.5617 148.474 89.5274 148.434C89.4931 148.393 89.4671 148.347 89.4509 148.297C89.4347 148.246 89.4286 148.193 89.433 148.141C89.447 148.036 89.5004 147.94 89.5824 147.873C89.6643 147.806 89.7687 147.773 89.8743 147.78L90.6767 147.844C90.7831 147.844 90.8851 147.886 90.9604 147.962C91.0356 148.037 91.0779 148.139 91.0779 148.245C91.0779 148.351 91.0356 148.453 90.9604 148.528C90.8851 148.603 90.7831 148.645 90.6767 148.645H90.6045ZM123.502 148.645C123.395 148.645 123.293 148.603 123.218 148.528C123.143 148.453 123.101 148.351 123.101 148.245C123.101 148.139 123.143 148.037 123.218 147.962C123.293 147.886 123.395 147.844 123.502 147.844L124.304 147.78C124.409 147.773 124.512 147.807 124.593 147.874C124.674 147.941 124.725 148.037 124.737 148.141C124.743 148.192 124.738 148.244 124.724 148.294C124.709 148.344 124.684 148.39 124.651 148.431C124.619 148.471 124.578 148.504 124.532 148.529C124.486 148.553 124.436 148.568 124.384 148.573L123.582 148.645H123.502ZM85.8464 148.205H85.7982L84.9959 148.117C84.8895 148.104 84.7925 148.049 84.7263 147.965C84.6601 147.881 84.6301 147.774 84.6428 147.668C84.6556 147.562 84.7101 147.465 84.7944 147.399C84.8786 147.333 84.9857 147.303 85.0921 147.315L85.8945 147.404C86.0009 147.404 86.103 147.446 86.1782 147.521C86.2534 147.596 86.2957 147.698 86.2957 147.804C86.2957 147.91 86.2534 148.012 86.1782 148.087C86.103 148.163 86.0009 148.205 85.8945 148.205H85.8464ZM128.292 148.205C128.186 148.205 128.084 148.163 128.008 148.087C127.933 148.012 127.891 147.91 127.891 147.804C127.891 147.698 127.933 147.596 128.008 147.521C128.084 147.446 128.186 147.404 128.292 147.404L129.094 147.315C129.197 147.304 129.301 147.332 129.383 147.395C129.465 147.458 129.52 147.55 129.536 147.652C129.547 147.757 129.516 147.862 129.45 147.945C129.384 148.027 129.288 148.081 129.183 148.093L128.38 148.181L128.292 148.205ZM81.0642 147.644H81.0081L80.2057 147.532C80.153 147.525 80.1022 147.508 80.0561 147.481C80.0101 147.455 79.9697 147.42 79.9373 147.378C79.9049 147.336 79.8811 147.288 79.8672 147.236C79.8534 147.185 79.8498 147.132 79.8567 147.079C79.8635 147.026 79.8807 146.976 79.9072 146.93C79.9336 146.884 79.9689 146.843 80.011 146.811C80.0531 146.779 80.1012 146.755 80.1525 146.741C80.2038 146.727 80.2573 146.724 80.31 146.73L81.1124 146.843C81.2154 146.855 81.3095 146.907 81.3741 146.988C81.4388 147.069 81.4687 147.172 81.4574 147.275C81.4296 147.361 81.3747 147.436 81.301 147.488C81.2272 147.54 81.1385 147.566 81.0482 147.564L81.0642 147.644ZM133.074 147.644C133.021 147.648 132.969 147.641 132.919 147.624C132.868 147.607 132.822 147.581 132.782 147.546C132.702 147.477 132.652 147.378 132.645 147.271C132.637 147.165 132.673 147.06 132.743 146.98C132.813 146.899 132.912 146.85 133.018 146.843L133.82 146.738C133.871 146.73 133.924 146.733 133.974 146.745C134.024 146.757 134.072 146.779 134.113 146.81C134.155 146.84 134.19 146.879 134.217 146.923C134.244 146.967 134.262 147.016 134.27 147.067C134.284 147.172 134.256 147.278 134.194 147.363C134.131 147.448 134.037 147.506 133.933 147.524L133.13 147.628L133.074 147.644ZM76.2981 146.963H76.2339L75.4316 146.835C75.3743 146.831 75.3184 146.815 75.2676 146.789C75.2168 146.762 75.1721 146.725 75.1365 146.68C75.1009 146.636 75.0751 146.584 75.0609 146.528C75.0467 146.473 75.0443 146.415 75.0539 146.358C75.0635 146.302 75.0849 146.248 75.1167 146.2C75.1485 146.153 75.19 146.112 75.2385 146.082C75.2869 146.051 75.3413 146.031 75.3981 146.022C75.4549 146.014 75.5127 146.018 75.568 146.033L76.3703 146.17C76.4215 146.177 76.4706 146.195 76.5148 146.222C76.559 146.249 76.5975 146.284 76.6281 146.326C76.6586 146.367 76.6807 146.415 76.6929 146.465C76.7051 146.515 76.7073 146.567 76.6993 146.618C76.6679 146.701 76.6099 146.771 76.5344 146.817C76.4589 146.864 76.3702 146.884 76.2821 146.875L76.2981 146.963ZM137.832 146.963C137.78 146.967 137.727 146.961 137.676 146.945C137.626 146.928 137.579 146.902 137.539 146.868C137.499 146.834 137.466 146.792 137.442 146.745C137.418 146.698 137.403 146.647 137.399 146.594C137.395 146.542 137.401 146.489 137.417 146.439C137.434 146.388 137.46 146.342 137.494 146.302C137.528 146.261 137.57 146.228 137.617 146.204C137.664 146.18 137.715 146.166 137.768 146.162L138.57 146.025C138.675 146.009 138.781 146.034 138.867 146.096C138.952 146.157 139.01 146.25 139.028 146.354C139.037 146.406 139.036 146.459 139.024 146.511C139.013 146.563 138.991 146.612 138.96 146.655C138.93 146.698 138.891 146.735 138.846 146.763C138.801 146.791 138.751 146.81 138.699 146.819L137.896 146.947L137.832 146.963ZM71.5561 146.162H71.4839L70.6815 146.009C70.6299 145.999 70.5808 145.978 70.5371 145.949C70.4935 145.919 70.456 145.882 70.427 145.838C70.3979 145.794 70.3778 145.745 70.3678 145.693C70.3577 145.641 70.358 145.588 70.3686 145.537C70.3772 145.486 70.396 145.437 70.4239 145.394C70.4518 145.35 70.4881 145.313 70.5308 145.283C70.5735 145.254 70.6216 145.234 70.6723 145.224C70.723 145.214 70.7753 145.214 70.8259 145.224L71.6283 145.376C71.6799 145.387 71.729 145.407 71.7727 145.437C71.8163 145.466 71.8538 145.504 71.8828 145.548C71.9119 145.592 71.932 145.641 71.942 145.693C71.952 145.744 71.9518 145.798 71.9412 145.849C71.9007 145.921 71.8385 145.978 71.7637 146.012C71.6888 146.047 71.6049 146.057 71.524 146.041L71.5561 146.162ZM142.574 146.162C142.481 146.163 142.391 146.132 142.319 146.073C142.247 146.014 142.198 145.932 142.181 145.841C142.162 145.736 142.185 145.628 142.245 145.539C142.305 145.451 142.397 145.39 142.502 145.368L143.304 145.216C143.409 145.197 143.516 145.221 143.603 145.281C143.69 145.341 143.75 145.433 143.77 145.537C143.782 145.586 143.784 145.636 143.775 145.686C143.767 145.736 143.749 145.783 143.722 145.826C143.695 145.868 143.66 145.905 143.619 145.934C143.577 145.963 143.53 145.983 143.481 145.993L142.679 146.154L142.574 146.162ZM66.8301 145.104H66.7418L65.9395 144.92C65.8868 144.908 65.8369 144.886 65.7926 144.855C65.7484 144.825 65.7107 144.785 65.6816 144.74C65.6526 144.695 65.6328 144.644 65.6233 144.591C65.6138 144.538 65.6149 144.483 65.6265 144.431C65.6381 144.378 65.66 144.328 65.6908 144.284C65.7217 144.24 65.761 144.202 65.8064 144.173C65.8519 144.144 65.9026 144.125 65.9557 144.115C66.0089 144.106 66.0633 144.107 66.116 144.118L66.9184 144.295C66.9701 144.306 67.0191 144.327 67.0625 144.358C67.1059 144.388 67.1428 144.427 67.1711 144.472C67.1995 144.516 67.2187 144.566 67.2276 144.618C67.2366 144.67 67.2351 144.724 67.2233 144.775C67.2079 144.868 67.1598 144.952 67.0877 145.012C67.0155 145.073 66.9241 145.105 66.8301 145.104ZM147.244 145.016C147.191 145.021 147.138 145.016 147.087 145.001C147.036 144.986 146.989 144.961 146.948 144.927C146.907 144.894 146.873 144.853 146.848 144.806C146.823 144.759 146.808 144.708 146.803 144.655C146.796 144.603 146.8 144.55 146.814 144.499C146.829 144.449 146.853 144.401 146.886 144.36C146.919 144.319 146.96 144.285 147.006 144.26C147.052 144.235 147.103 144.219 147.156 144.215L147.958 144.03C148.011 144.019 148.065 144.018 148.118 144.027C148.172 144.036 148.222 144.056 148.268 144.085C148.313 144.114 148.352 144.152 148.383 144.196C148.414 144.24 148.436 144.29 148.448 144.343C148.459 144.395 148.46 144.45 148.451 144.503C148.441 144.556 148.422 144.606 148.393 144.652C148.364 144.697 148.326 144.736 148.282 144.767C148.237 144.798 148.187 144.82 148.135 144.831L147.332 145.008L147.244 145.016ZM62.1121 143.934C62.0805 143.942 62.0474 143.942 62.0158 143.934L61.2135 143.734C61.1071 143.705 61.0159 143.637 60.959 143.543C60.9021 143.449 60.8841 143.336 60.9086 143.229C60.9369 143.123 61.0058 143.033 61.1004 142.977C61.195 142.922 61.3077 142.906 61.4141 142.933L62.2164 143.141C62.2676 143.154 62.3157 143.177 62.3579 143.209C62.4001 143.24 62.4356 143.28 62.4625 143.325C62.4893 143.371 62.5069 143.421 62.5143 143.473C62.5216 143.525 62.5186 143.579 62.5053 143.63C62.4851 143.712 62.4393 143.786 62.3744 143.841C62.3095 143.895 62.2289 143.928 62.1442 143.934H62.1121ZM151.922 143.886C151.816 143.9 151.708 143.871 151.623 143.805C151.538 143.74 151.482 143.644 151.469 143.537C151.455 143.431 151.484 143.324 151.549 143.239C151.615 143.154 151.711 143.099 151.818 143.085L152.62 142.884C152.673 142.871 152.727 142.869 152.781 142.877C152.835 142.885 152.887 142.903 152.933 142.931C152.98 142.959 153.02 142.996 153.053 143.039C153.085 143.083 153.108 143.132 153.122 143.185C153.135 143.238 153.137 143.292 153.129 143.346C153.121 143.399 153.103 143.451 153.075 143.498C153.047 143.544 153.01 143.585 152.967 143.617C152.923 143.649 152.873 143.673 152.821 143.686L152.018 143.886H151.922ZM57.4744 142.644H57.3781L56.5757 142.412C56.5246 142.398 56.4767 142.374 56.4351 142.341C56.3934 142.309 56.3588 142.268 56.3333 142.221C56.3078 142.175 56.292 142.124 56.2868 142.071C56.2815 142.019 56.2871 141.965 56.3029 141.915C56.3361 141.814 56.4075 141.73 56.5019 141.68C56.5963 141.631 56.7063 141.62 56.8084 141.65L57.6108 141.875C57.6635 141.882 57.7142 141.9 57.7601 141.927C57.8059 141.954 57.846 141.989 57.878 142.032C57.9101 142.074 57.9334 142.123 57.9468 142.174C57.9601 142.225 57.9632 142.279 57.9558 142.332C57.9485 142.384 57.9308 142.435 57.9038 142.481C57.8768 142.526 57.8411 142.566 57.7986 142.598C57.7561 142.63 57.7078 142.654 57.6563 142.667C57.6048 142.68 57.5512 142.683 57.4985 142.676L57.4744 142.644ZM156.56 142.588C156.474 142.588 156.39 142.562 156.321 142.511C156.252 142.461 156.2 142.389 156.175 142.308C156.144 142.206 156.155 142.096 156.204 142.001C156.254 141.907 156.338 141.836 156.439 141.803L157.242 141.578C157.342 141.548 157.45 141.558 157.543 141.606C157.636 141.654 157.706 141.736 157.739 141.835C157.769 141.936 157.758 142.044 157.709 142.137C157.659 142.23 157.575 142.3 157.474 142.332L156.672 142.564H156.592L156.56 142.588ZM52.8848 141.186H52.7564L51.9541 140.921C51.8477 140.895 51.7562 140.827 51.6998 140.733C51.6433 140.639 51.6266 140.527 51.6532 140.421C51.6798 140.314 51.7476 140.223 51.8416 140.167C51.9356 140.11 52.0483 140.094 52.1547 140.12H52.2188L52.9731 140.376C53.0726 140.411 53.1546 140.483 53.2011 140.578C53.2477 140.672 53.2551 140.781 53.2218 140.881C53.1942 140.951 53.147 141.012 53.0858 141.056C53.0247 141.1 52.9521 141.126 52.8768 141.13L52.8848 141.186ZM161.205 141.098C161.105 141.102 161.007 141.069 160.93 141.005C160.853 140.942 160.801 140.853 160.785 140.754C160.77 140.655 160.791 140.554 160.844 140.47C160.898 140.386 160.981 140.324 161.077 140.296L161.831 140.04C161.879 140.021 161.93 140.011 161.982 140.012C162.034 140.013 162.084 140.024 162.132 140.045C162.179 140.066 162.221 140.096 162.256 140.134C162.292 140.172 162.319 140.216 162.337 140.264C162.37 140.365 162.363 140.475 162.317 140.571C162.27 140.667 162.188 140.741 162.088 140.777L161.286 141.042L161.205 141.098ZM48.3915 139.495H48.2471L47.5009 139.199C47.4043 139.161 47.326 139.087 47.2826 138.993C47.2393 138.899 47.2341 138.792 47.2682 138.694C47.3075 138.597 47.3833 138.519 47.4792 138.477C47.5752 138.435 47.6837 138.433 47.7817 138.469L48.5279 138.766C48.6264 138.804 48.7061 138.879 48.7497 138.975C48.7932 139.071 48.7971 139.18 48.7606 139.279C48.7329 139.357 48.682 139.425 48.6146 139.474C48.5472 139.522 48.4666 139.549 48.3835 139.551L48.3915 139.495ZM165.699 139.495C165.618 139.495 165.54 139.472 165.473 139.428C165.406 139.383 165.353 139.321 165.322 139.247C165.284 139.148 165.287 139.038 165.329 138.941C165.371 138.844 165.449 138.767 165.546 138.726L166.285 138.429C166.384 138.392 166.493 138.395 166.591 138.437C166.688 138.478 166.765 138.556 166.806 138.654C166.826 138.703 166.835 138.755 166.835 138.808C166.834 138.86 166.823 138.912 166.802 138.961C166.781 139.009 166.751 139.053 166.713 139.09C166.675 139.126 166.63 139.155 166.581 139.175L165.835 139.471C165.791 139.486 165.745 139.494 165.699 139.495ZM43.9464 137.724C43.8932 137.732 43.8391 137.732 43.7859 137.724L43.0477 137.396C43.0001 137.375 42.9571 137.345 42.9212 137.307C42.8854 137.27 42.8573 137.226 42.8386 137.177C42.82 137.129 42.8111 137.077 42.8126 137.025C42.814 136.973 42.8258 136.922 42.8471 136.875C42.8909 136.778 42.9712 136.703 43.0705 136.666C43.1697 136.628 43.2798 136.631 43.3767 136.675L44.1068 137.003C44.2035 137.047 44.2789 137.127 44.3165 137.226C44.3541 137.325 44.3508 137.435 44.3074 137.532C44.2662 137.591 44.2106 137.638 44.146 137.668C44.0814 137.699 44.0098 137.713 43.9383 137.708L43.9464 137.724ZM170.136 137.644C170.059 137.644 169.983 137.621 169.919 137.578C169.855 137.536 169.805 137.475 169.775 137.404C169.731 137.31 169.725 137.203 169.76 137.106C169.794 137.008 169.866 136.928 169.959 136.883L170.682 136.554C170.778 136.51 170.887 136.504 170.988 136.538C171.088 136.573 171.171 136.645 171.219 136.739C171.261 136.837 171.263 136.947 171.226 137.047C171.189 137.147 171.114 137.229 171.019 137.276L170.288 137.604C170.233 137.616 170.175 137.616 170.12 137.604L170.136 137.644ZM39.6055 135.641H39.421L38.7069 135.264C38.6146 135.212 38.5463 135.126 38.5163 135.024C38.4864 134.923 38.4972 134.813 38.5464 134.72C38.57 134.674 38.6026 134.633 38.6422 134.6C38.6819 134.567 38.7278 134.542 38.7772 134.527C38.8266 134.513 38.8785 134.508 38.9298 134.513C38.9811 134.519 39.0308 134.534 39.0759 134.559L39.782 134.928C39.8615 134.962 39.9259 135.024 39.9636 135.102C40.0012 135.18 40.0097 135.268 39.9873 135.352C39.9649 135.435 39.9133 135.508 39.8417 135.557C39.7702 135.605 39.6835 135.627 39.5975 135.617L39.6055 135.641ZM174.477 135.553C174.424 135.565 174.37 135.566 174.316 135.557C174.263 135.547 174.212 135.528 174.167 135.498C174.121 135.469 174.082 135.432 174.051 135.387C174.02 135.343 173.999 135.293 173.987 135.24C173.974 135.188 173.972 135.134 173.98 135.081C173.989 135.028 174.008 134.977 174.036 134.932C174.064 134.886 174.102 134.846 174.146 134.816C174.19 134.785 174.24 134.763 174.292 134.752L174.998 134.383C175.043 134.358 175.093 134.342 175.144 134.337C175.196 134.331 175.248 134.336 175.297 134.351C175.346 134.366 175.392 134.391 175.432 134.424C175.472 134.457 175.504 134.498 175.528 134.543C175.577 134.635 175.589 134.742 175.561 134.843C175.532 134.943 175.466 135.028 175.375 135.08L174.661 135.457C174.605 135.49 174.542 135.512 174.477 135.521V135.553ZM35.4011 133.301C35.3276 133.303 35.2552 133.283 35.1924 133.245L34.5104 132.821C34.4258 132.757 34.3693 132.663 34.3528 132.558C34.3364 132.453 34.3612 132.346 34.4222 132.26C34.4784 132.183 34.5602 132.129 34.6528 132.107C34.7454 132.085 34.8428 132.096 34.9277 132.14L35.6097 132.556C35.6552 132.583 35.6949 132.619 35.7264 132.662C35.7579 132.704 35.7807 132.753 35.7934 132.804C35.806 132.856 35.8084 132.909 35.8003 132.961C35.7922 133.014 35.7737 133.064 35.7461 133.109C35.7078 133.164 35.6559 133.209 35.5955 133.238C35.5351 133.268 35.4682 133.281 35.4011 133.277V133.301ZM178.673 133.197C178.604 133.198 178.536 133.18 178.475 133.146C178.415 133.113 178.364 133.064 178.328 133.005C178.274 132.913 178.259 132.804 178.284 132.701C178.309 132.598 178.374 132.508 178.465 132.452L179.147 132.035C179.241 131.988 179.351 131.98 179.452 132.013C179.553 132.046 179.636 132.117 179.684 132.212C179.727 132.296 179.739 132.394 179.717 132.486C179.695 132.579 179.641 132.66 179.564 132.716L178.882 133.141C178.814 133.161 178.741 133.161 178.673 133.141V133.197ZM31.3812 130.633C31.2981 130.633 31.2171 130.608 31.1485 130.561L30.4986 130.08C30.4182 130.022 30.3624 129.936 30.3419 129.839C30.3215 129.742 30.3378 129.641 30.3877 129.555C30.4376 129.469 30.5176 129.405 30.6122 129.375C30.7068 129.345 30.8092 129.35 30.8997 129.391L30.9719 129.439L31.6139 129.912C31.7 129.971 31.7593 130.061 31.7789 130.163C31.7984 130.265 31.7766 130.371 31.7182 130.457C31.6805 130.511 31.6301 130.556 31.5714 130.587C31.5127 130.617 31.4474 130.633 31.3812 130.633ZM182.685 130.521C182.599 130.523 182.514 130.498 182.443 130.448C182.373 130.399 182.32 130.328 182.293 130.246C182.266 130.164 182.266 130.076 182.293 129.994C182.32 129.912 182.373 129.841 182.444 129.792L183.086 129.319C183.172 129.257 183.278 129.231 183.383 129.246C183.488 129.261 183.583 129.316 183.648 129.399C183.712 129.484 183.739 129.591 183.724 129.696C183.709 129.801 183.653 129.896 183.568 129.96C183.359 130.12 183.134 130.289 182.918 130.441C182.853 130.495 182.77 130.524 182.685 130.521ZM27.618 127.645C27.5209 127.639 27.4282 127.602 27.3532 127.54L26.7515 126.995C26.678 126.921 26.6368 126.82 26.6368 126.715C26.6368 126.61 26.678 126.509 26.7515 126.435C26.7888 126.397 26.8331 126.367 26.882 126.347C26.9309 126.327 26.9833 126.316 27.0363 126.316C27.0893 126.316 27.1417 126.327 27.1906 126.347C27.2395 126.367 27.2838 126.397 27.3211 126.435L27.9149 126.963C27.9952 127.032 28.0452 127.129 28.0542 127.234C28.0633 127.339 28.0305 127.443 27.963 127.524C27.9233 127.57 27.874 127.607 27.8185 127.632C27.7631 127.657 27.7029 127.669 27.6421 127.669L27.618 127.645ZM186.432 127.476C186.376 127.477 186.32 127.465 186.269 127.441C186.217 127.418 186.172 127.383 186.135 127.34C186.062 127.266 186.021 127.167 186.021 127.064C186.021 126.96 186.062 126.861 186.135 126.787L186.721 126.25C186.758 126.213 186.803 126.183 186.852 126.163C186.9 126.142 186.953 126.132 187.006 126.132C187.059 126.132 187.111 126.142 187.16 126.163C187.209 126.183 187.253 126.213 187.291 126.25C187.328 126.287 187.358 126.33 187.378 126.379C187.398 126.427 187.409 126.479 187.409 126.531C187.409 126.583 187.398 126.635 187.378 126.683C187.358 126.731 187.328 126.775 187.291 126.811L187.251 126.851C187.058 127.036 186.857 127.22 186.649 127.396C186.587 127.445 186.511 127.473 186.432 127.476ZM24.232 124.271C24.1745 124.271 24.1178 124.258 24.0653 124.235C24.0128 124.211 23.9658 124.177 23.9271 124.135L23.4056 123.51C23.3684 123.474 23.3389 123.431 23.3187 123.384C23.2986 123.336 23.2882 123.285 23.2882 123.234C23.2882 123.182 23.2986 123.131 23.3187 123.083C23.3389 123.036 23.3684 122.993 23.4056 122.957C23.4898 122.892 23.5957 122.862 23.7016 122.872C23.8074 122.883 23.9054 122.933 23.9752 123.013L24.4888 123.614C24.5628 123.69 24.6042 123.792 24.6042 123.899C24.6042 124.005 24.5628 124.107 24.4888 124.183C24.4151 124.24 24.3249 124.271 24.232 124.271ZM189.77 124.087C189.664 124.087 189.562 124.045 189.486 123.97C189.411 123.894 189.369 123.793 189.369 123.686C189.375 123.593 189.409 123.504 189.465 123.43L189.979 122.821C190.011 122.78 190.05 122.746 190.096 122.721C190.141 122.696 190.191 122.68 190.242 122.674C190.294 122.668 190.346 122.672 190.395 122.687C190.445 122.701 190.492 122.725 190.532 122.757C190.573 122.789 190.607 122.829 190.632 122.874C190.657 122.919 190.673 122.969 190.679 123.02C190.685 123.071 190.681 123.123 190.667 123.173C190.653 123.223 190.629 123.269 190.596 123.31L190.075 123.935C190.038 123.981 189.992 124.018 189.939 124.045C189.887 124.071 189.829 124.085 189.77 124.087ZM21.3595 120.369C21.2903 120.369 21.2221 120.352 21.1616 120.318C21.1012 120.285 21.0505 120.236 21.0145 120.177L20.6053 119.472C20.582 119.424 20.5683 119.373 20.565 119.32C20.5617 119.268 20.5688 119.215 20.5859 119.165C20.6031 119.115 20.6299 119.069 20.6649 119.03C20.6999 118.99 20.7423 118.958 20.7898 118.935C20.8779 118.89 20.9796 118.88 21.0748 118.907C21.17 118.933 21.2516 118.995 21.3033 119.079C21.4317 119.311 21.5681 119.536 21.7045 119.768C21.7579 119.859 21.7734 119.967 21.7479 120.068C21.7224 120.17 21.6578 120.258 21.5681 120.313C21.5137 120.344 21.4537 120.363 21.3916 120.369H21.3595ZM192.586 120.201C192.513 120.202 192.44 120.183 192.378 120.145C192.288 120.09 192.223 120.002 192.198 119.9C192.172 119.798 192.188 119.69 192.241 119.6C192.37 119.368 192.506 119.143 192.626 118.911C192.652 118.864 192.686 118.824 192.727 118.791C192.768 118.757 192.815 118.733 192.866 118.718C192.917 118.703 192.97 118.698 193.022 118.704C193.075 118.709 193.126 118.725 193.172 118.751C193.218 118.776 193.259 118.81 193.293 118.851C193.326 118.892 193.35 118.939 193.365 118.99C193.38 119.04 193.385 119.093 193.379 119.146C193.374 119.198 193.358 119.249 193.333 119.295C193.204 119.536 193.068 119.768 192.931 120C192.898 120.056 192.853 120.103 192.798 120.137C192.744 120.172 192.683 120.194 192.618 120.201H192.586ZM19.3375 116.034C19.2527 116.035 19.1698 116.01 19.1006 115.961C19.0314 115.912 18.9795 115.842 18.9524 115.762C18.8641 115.497 18.7839 115.241 18.7117 114.961C18.6845 114.853 18.7003 114.74 18.7558 114.644C18.8112 114.548 18.9019 114.478 19.0085 114.448C19.1149 114.421 19.2276 114.437 19.3222 114.492C19.4168 114.548 19.4857 114.638 19.514 114.744C19.5862 114.993 19.6665 115.241 19.7467 115.489C19.7801 115.587 19.7736 115.694 19.7285 115.787C19.6835 115.88 19.6035 115.952 19.506 115.986C19.4686 116.007 19.4279 116.02 19.3857 116.026L19.3375 116.034ZM194.584 115.842H194.464C194.365 115.811 194.282 115.742 194.233 115.651C194.183 115.56 194.171 115.453 194.199 115.353C194.271 115.105 194.352 114.856 194.416 114.6C194.444 114.494 194.513 114.404 194.608 114.348C194.702 114.293 194.815 114.277 194.921 114.304C195.028 114.334 195.119 114.404 195.174 114.5C195.229 114.596 195.245 114.709 195.218 114.816L194.985 115.618C194.95 115.692 194.892 115.753 194.82 115.793C194.748 115.833 194.666 115.85 194.584 115.842ZM18.4549 111.347C18.3512 111.347 18.2515 111.307 18.1767 111.235C18.102 111.164 18.0579 111.066 18.0537 110.962V110.161C18.0557 110.057 18.0975 109.957 18.1706 109.883C18.2437 109.808 18.3425 109.764 18.4469 109.76C18.5513 109.762 18.651 109.804 18.7256 109.877C18.8002 109.95 18.844 110.049 18.8481 110.153V110.954C18.8513 111.006 18.8444 111.058 18.8276 111.106C18.8108 111.155 18.7844 111.2 18.7502 111.239C18.7159 111.278 18.6743 111.309 18.6277 111.332C18.5812 111.355 18.5306 111.368 18.479 111.371L18.4549 111.347ZM195.459 111.147C195.352 111.14 195.251 111.092 195.179 111.013C195.107 110.934 195.069 110.829 195.074 110.722V109.921C195.074 109.814 195.116 109.713 195.191 109.637C195.266 109.562 195.368 109.52 195.475 109.52C195.581 109.52 195.683 109.562 195.759 109.637C195.834 109.713 195.876 109.814 195.876 109.921V110.722C195.879 110.775 195.872 110.827 195.855 110.877C195.838 110.927 195.811 110.973 195.776 111.012C195.741 111.052 195.698 111.084 195.651 111.107C195.603 111.13 195.552 111.144 195.499 111.147H195.459ZM195.459 109.151C195.357 109.15 195.26 109.11 195.185 109.041C195.111 108.971 195.066 108.876 195.058 108.775C195.049 108.507 195.024 108.239 194.985 107.974C194.974 107.866 195.006 107.759 195.073 107.675C195.141 107.591 195.239 107.537 195.347 107.525C195.399 107.519 195.453 107.524 195.503 107.54C195.554 107.555 195.601 107.58 195.642 107.613C195.684 107.647 195.717 107.688 195.742 107.735C195.767 107.782 195.783 107.833 195.788 107.885C195.788 108.15 195.844 108.422 195.86 108.687C195.864 108.739 195.858 108.792 195.842 108.843C195.826 108.893 195.8 108.94 195.766 108.98C195.731 109.02 195.689 109.053 195.642 109.077C195.595 109.101 195.544 109.115 195.491 109.119L195.459 109.151ZM18.8641 106.579H18.7758C18.7247 106.57 18.6761 106.55 18.6328 106.521C18.5895 106.493 18.5525 106.455 18.524 106.412C18.4956 106.369 18.4762 106.32 18.467 106.269C18.4579 106.218 18.4592 106.165 18.4709 106.115C18.5271 105.842 18.5913 105.578 18.6635 105.313C18.6766 105.263 18.6994 105.216 18.7307 105.175C18.762 105.134 18.8011 105.099 18.8459 105.073C18.8906 105.047 18.9401 105.03 18.9914 105.023C19.0427 105.016 19.0949 105.02 19.1449 105.033C19.2468 105.061 19.3334 105.128 19.386 105.22C19.4385 105.311 19.4528 105.42 19.4258 105.522C19.3616 105.77 19.2974 106.027 19.2412 106.283C19.22 106.367 19.1714 106.442 19.1032 106.495C19.035 106.549 18.9509 106.579 18.8641 106.579ZM194.496 104.472C194.413 104.469 194.333 104.442 194.266 104.393C194.199 104.345 194.148 104.277 194.119 104.2C194.039 103.951 193.942 103.703 193.854 103.463C193.835 103.414 193.825 103.361 193.826 103.309C193.826 103.256 193.837 103.204 193.858 103.156C193.879 103.107 193.909 103.063 193.947 103.027C193.985 102.99 194.03 102.961 194.079 102.942C194.128 102.922 194.181 102.913 194.234 102.914C194.287 102.916 194.34 102.927 194.388 102.949C194.437 102.971 194.48 103.002 194.517 103.04C194.553 103.079 194.582 103.124 194.6 103.174C194.697 103.422 194.793 103.679 194.881 103.975C194.917 104.075 194.912 104.185 194.867 104.281C194.822 104.378 194.74 104.452 194.64 104.488C194.588 104.5 194.533 104.5 194.48 104.488L194.496 104.472ZM20.4528 102.068C20.3951 102.084 20.334 102.084 20.2763 102.068C20.183 102.023 20.1113 101.943 20.0768 101.846C20.0422 101.748 20.0476 101.641 20.0917 101.548C20.2041 101.307 20.3325 101.067 20.4608 100.826C20.4845 100.78 20.5174 100.738 20.5575 100.704C20.5975 100.67 20.644 100.645 20.6941 100.629C20.7442 100.613 20.7969 100.608 20.8492 100.613C20.9015 100.618 20.9522 100.633 20.9984 100.658C21.0907 100.71 21.159 100.797 21.1889 100.898C21.2189 101 21.2081 101.109 21.1589 101.203L20.7978 101.9C20.7621 101.959 20.7112 102.007 20.6505 102.039C20.5898 102.072 20.5216 102.087 20.4528 102.084V102.068ZM192.434 100.145C192.366 100.147 192.3 100.13 192.241 100.098C192.182 100.066 192.132 100.019 192.097 99.961C191.96 99.7367 191.816 99.5123 191.672 99.296C191.613 99.2064 191.592 99.0975 191.613 98.9926C191.634 98.8878 191.695 98.7953 191.784 98.7351C191.873 98.6779 191.982 98.6584 192.086 98.6809C192.189 98.7035 192.28 98.7662 192.338 98.8553C192.49 99.0797 192.634 99.312 192.779 99.5364C192.807 99.5815 192.825 99.6317 192.833 99.6841C192.841 99.7364 192.839 99.7898 192.826 99.8412C192.814 99.8926 192.791 99.941 192.759 99.9836C192.728 100.026 192.688 100.062 192.643 100.089C192.572 100.131 192.491 100.151 192.41 100.145H192.434ZM22.9883 98.006C22.9004 98.0049 22.8154 97.9738 22.7476 97.9178C22.7057 97.887 22.6704 97.8482 22.6436 97.8036C22.6169 97.759 22.5993 97.7096 22.5918 97.6581C22.5844 97.6067 22.5872 97.5543 22.6002 97.504C22.6131 97.4537 22.636 97.4064 22.6674 97.365L23.1648 96.732C23.2021 96.6944 23.2465 96.6646 23.2954 96.6443C23.3443 96.6239 23.3967 96.6135 23.4497 96.6135C23.5026 96.6135 23.5551 96.6239 23.604 96.6443C23.6529 96.6646 23.6972 96.6944 23.7345 96.732C23.8015 96.798 23.8437 96.885 23.8539 96.9784C23.8641 97.0718 23.8418 97.1659 23.7907 97.2448L23.3012 97.8698C23.261 97.9224 23.2086 97.9644 23.1485 97.9924C23.0884 98.0203 23.0224 98.0332 22.9562 98.03L22.9883 98.006ZM189.569 96.2993C189.512 96.2988 189.455 96.2864 189.403 96.263C189.35 96.2395 189.303 96.2055 189.265 96.1631C189.096 95.9708 188.919 95.7705 188.735 95.5782C188.699 95.5392 188.671 95.4936 188.653 95.444C188.635 95.3943 188.627 95.3416 188.629 95.2887C188.631 95.2359 188.644 95.184 188.666 95.1361C188.688 95.0881 188.72 95.045 188.759 95.0093C188.798 94.9735 188.844 94.9457 188.893 94.9276C188.943 94.9094 188.996 94.9012 189.049 94.9035C189.102 94.9057 189.154 94.9183 189.202 94.9406C189.25 94.9629 189.293 94.9944 189.329 95.0333L189.866 95.6342C189.904 95.6715 189.934 95.7158 189.954 95.7646C189.974 95.8134 189.985 95.8658 189.985 95.9187C189.985 95.9716 189.974 96.0239 189.954 96.0728C189.934 96.1216 189.904 96.1659 189.866 96.2031C189.822 96.24 189.771 96.2676 189.716 96.2841C189.661 96.3006 189.603 96.3058 189.545 96.2993H189.569ZM26.1818 94.4083C26.1035 94.4088 26.0267 94.3865 25.961 94.344C25.8953 94.3015 25.8435 94.2407 25.8119 94.1692C25.7803 94.0976 25.7704 94.0184 25.7834 93.9413C25.7964 93.8642 25.8317 93.7926 25.8849 93.7353C26.0694 93.543 26.27 93.3587 26.4626 93.1744C26.4999 93.1368 26.5443 93.107 26.5932 93.0867C26.642 93.0663 26.6945 93.0559 26.7474 93.0559C26.8004 93.0559 26.8528 93.0663 26.9017 93.0867C26.9506 93.107 26.995 93.1368 27.0323 93.1744C27.1053 93.2479 27.1463 93.3473 27.1463 93.4508C27.1463 93.5544 27.1053 93.6537 27.0323 93.7273L26.4626 94.2801C26.4237 94.3239 26.3752 94.3581 26.321 94.3804C26.2668 94.4026 26.2082 94.4121 26.1497 94.4083H26.1818ZM186.159 92.918C186.061 92.916 185.967 92.8791 185.895 92.8138L185.293 92.301C185.212 92.2312 185.162 92.1327 185.153 92.0264C185.144 91.9201 185.177 91.8145 185.245 91.7321C185.316 91.6532 185.414 91.6043 185.52 91.5953C185.626 91.5864 185.731 91.6181 185.814 91.684L186.424 92.2129C186.504 92.2838 186.552 92.3829 186.56 92.4892C186.567 92.5954 186.533 92.7004 186.464 92.7818C186.424 92.8287 186.373 92.8655 186.316 92.8892C186.259 92.9129 186.197 92.9227 186.135 92.918H186.159ZM29.7764 91.2514C29.6707 91.2472 29.5707 91.2023 29.4974 91.1261C29.4241 91.05 29.3832 90.9484 29.3832 90.8427C29.3867 90.7843 29.402 90.7272 29.4282 90.6749C29.4544 90.6225 29.491 90.5761 29.5357 90.5382L30.1696 90.0415C30.2567 89.9793 30.3644 89.9529 30.4705 89.9678C30.5765 89.9827 30.6727 90.0378 30.7393 90.1216C30.8011 90.2073 30.8272 90.3136 30.8123 90.4182C30.7973 90.5227 30.7424 90.6175 30.659 90.6825L30.0252 91.1712C29.9535 91.2249 29.866 91.2531 29.7764 91.2514ZM182.364 89.9373C182.281 89.9379 182.2 89.9127 182.131 89.8652L181.473 89.4085C181.385 89.3479 181.325 89.2548 181.305 89.1496C181.285 89.0444 181.308 88.9358 181.369 88.8476C181.43 88.7594 181.523 88.6989 181.628 88.6793C181.734 88.6598 181.842 88.6829 181.931 88.7434L182.597 89.2082C182.681 89.272 182.738 89.3662 182.754 89.4708C182.771 89.5754 182.746 89.6824 182.685 89.769C182.649 89.8207 182.601 89.863 182.545 89.8923C182.489 89.9216 182.427 89.937 182.364 89.9373ZM33.7 88.471C33.6151 88.47 33.5327 88.442 33.4646 88.3912C33.3966 88.3404 33.3465 88.2693 33.3215 88.1882C33.2965 88.1071 33.2979 88.0202 33.3256 87.94C33.3533 87.8598 33.4057 87.7904 33.4754 87.7419L34.1574 87.3092C34.2478 87.2529 34.357 87.2347 34.4608 87.2588C34.5646 87.2828 34.6546 87.3471 34.711 87.4374C34.7674 87.5277 34.7856 87.6367 34.7615 87.7404C34.7374 87.844 34.6731 87.9339 34.5826 87.9902L33.9167 88.4149C33.8491 88.4564 33.7714 88.4786 33.692 88.479L33.7 88.471ZM178.328 87.3092C178.257 87.3106 178.187 87.2911 178.128 87.2531L177.438 86.8444C177.392 86.8194 177.352 86.7856 177.32 86.7449C177.287 86.7043 177.263 86.6577 177.249 86.6078C177.235 86.5579 177.231 86.5056 177.237 86.4541C177.243 86.4026 177.26 86.3528 177.285 86.3076C177.34 86.2161 177.429 86.1497 177.532 86.1228C177.636 86.0958 177.746 86.1104 177.839 86.1634L178.529 86.572C178.574 86.5969 178.614 86.6309 178.647 86.6717C178.679 86.7125 178.702 86.7594 178.716 86.8096C178.729 86.8598 178.732 86.9122 178.725 86.9636C178.718 87.015 178.7 87.0644 178.673 87.1089C178.638 87.1694 178.588 87.2198 178.527 87.2549C178.467 87.29 178.398 87.3087 178.328 87.3092ZM37.8403 86.0111C37.7508 86.0116 37.6638 85.9821 37.593 85.9275C37.5222 85.8729 37.4717 85.7962 37.4495 85.7096C37.4274 85.623 37.4349 85.5316 37.4708 85.4497C37.5067 85.3679 37.569 85.3004 37.6477 85.2579L38.3538 84.8733C38.4485 84.8234 38.5592 84.8131 38.6615 84.8446C38.7638 84.8762 38.8494 84.947 38.8994 85.0416C38.9494 85.1362 38.9598 85.2467 38.9282 85.3489C38.8966 85.4511 38.8256 85.5365 38.7309 85.5865L38.0329 85.9631C37.9737 85.9949 37.9075 86.0115 37.8403 86.0111ZM174.124 85.0096C174.06 85.0124 173.996 84.9986 173.939 84.9695L173.225 84.6089C173.132 84.5639 173.06 84.4839 173.025 84.3864C172.991 84.2889 172.996 84.1817 173.04 84.0881C173.064 84.0407 173.096 83.9983 173.135 83.9634C173.175 83.9284 173.221 83.9016 173.271 83.8845C173.321 83.8674 173.374 83.8603 173.426 83.8636C173.479 83.8669 173.531 83.8806 173.578 83.9038L174.3 84.2724C174.347 84.2976 174.388 84.3316 174.421 84.3727C174.454 84.4137 174.479 84.4609 174.494 84.5115C174.509 84.5622 174.514 84.6152 174.508 84.6677C174.502 84.7202 174.486 84.771 174.461 84.8173C174.428 84.8804 174.379 84.9333 174.318 84.9701C174.257 85.0069 174.187 85.0261 174.116 85.0256L174.124 85.0096ZM42.133 83.8237C42.0578 83.8239 41.9841 83.8029 41.9202 83.7632C41.8564 83.7236 41.805 83.6668 41.7719 83.5993C41.727 83.5034 41.7212 83.3938 41.7556 83.2937C41.7901 83.1936 41.8621 83.1107 41.9565 83.0625L42.6866 82.726C42.7799 82.6951 42.8814 82.6995 42.9716 82.7384C43.0619 82.7773 43.1347 82.8479 43.1763 82.9369C43.2178 83.0258 43.2253 83.1269 43.1971 83.221C43.169 83.315 43.1072 83.3955 43.0236 83.4471L42.3015 83.7916C42.248 83.8134 42.1907 83.8243 42.133 83.8237ZM169.783 82.9103C169.731 82.9263 169.675 82.9263 169.622 82.9103L168.908 82.6058C168.814 82.5617 168.741 82.483 168.704 82.3863C168.667 82.2896 168.669 82.1823 168.71 82.0869C168.75 81.9916 168.826 81.9155 168.921 81.8749C169.017 81.8342 169.124 81.8319 169.221 81.8686L169.959 82.1891C170.064 82.2122 170.155 82.2753 170.214 82.3649C170.273 82.4545 170.294 82.5634 170.273 82.6683C170.252 82.7732 170.19 82.8657 170.102 82.926C170.013 82.9862 169.904 83.0093 169.799 82.9904L169.783 82.9103ZM46.538 81.8847C46.4591 81.8832 46.3822 81.859 46.3167 81.815C46.2512 81.7709 46.1999 81.7088 46.1689 81.6363C46.1311 81.5383 46.1325 81.4295 46.1729 81.3326C46.2132 81.2356 46.2894 81.1578 46.3856 81.1154L47.1318 80.811C47.1808 80.7914 47.2331 80.7818 47.2859 80.7825C47.3386 80.7832 47.3907 80.7943 47.4391 80.8151C47.4876 80.836 47.5314 80.8661 47.5682 80.9039C47.6049 80.9417 47.6339 80.9864 47.6533 81.0353C47.6742 81.0836 47.6852 81.1356 47.6855 81.1882C47.6859 81.2408 47.6757 81.293 47.6555 81.3415C47.6352 81.3901 47.6055 81.4342 47.5679 81.471C47.5303 81.5079 47.4857 81.5368 47.4367 81.5561L46.6905 81.8526C46.6377 81.8646 46.5828 81.8646 46.53 81.8526L46.538 81.8847ZM165.338 81.0834H165.193L164.447 80.7949C164.341 80.7694 164.249 80.7028 164.192 80.6096C164.134 80.5164 164.117 80.4044 164.142 80.2982C164.168 80.1919 164.234 80.1001 164.328 80.043C164.421 79.9859 164.533 79.9682 164.64 79.9937H164.728L165.482 80.2821C165.579 80.3214 165.657 80.397 165.699 80.4929C165.741 80.5887 165.744 80.6971 165.707 80.7949C165.674 80.8655 165.62 80.9241 165.553 80.9629C165.485 81.0016 165.407 81.0185 165.33 81.0113L165.338 81.0834ZM51.0233 80.202C50.9419 80.1978 50.8633 80.1708 50.7966 80.124C50.7299 80.0772 50.6778 80.0126 50.6462 79.9376C50.6101 79.8377 50.6151 79.7276 50.6603 79.6314C50.7054 79.5353 50.7869 79.461 50.8869 79.4248L51.6893 79.1524C51.7893 79.1163 51.8996 79.1213 51.9959 79.1664C52.0922 79.2115 52.1666 79.2929 52.2028 79.3927C52.2361 79.4926 52.2286 79.6016 52.1821 79.6961C52.1355 79.7905 52.0536 79.8629 51.9541 79.8975L51.1998 80.17C51.145 80.1964 51.084 80.2075 51.0233 80.202ZM160.796 79.4008H160.668L159.914 79.1443C159.807 79.1114 159.718 79.0376 159.666 78.9392C159.614 78.8408 159.604 78.7258 159.637 78.6195C159.67 78.5133 159.744 78.4245 159.842 78.3726C159.941 78.3208 160.056 78.3101 160.162 78.3431L160.925 78.5995C161.023 78.631 161.106 78.6994 161.156 78.7906C161.205 78.8817 161.217 78.9884 161.189 79.0883C161.169 79.1773 161.119 79.2568 161.048 79.3136C160.976 79.3704 160.888 79.4012 160.796 79.4008ZM55.5888 78.5995C55.5361 78.6074 55.4823 78.6047 55.4306 78.5916C55.3788 78.5785 55.3303 78.5552 55.2877 78.5231C55.2451 78.491 55.2094 78.4508 55.1825 78.4048C55.1557 78.3587 55.1383 78.3078 55.1315 78.255C55.1224 78.2027 55.1239 78.1492 55.1361 78.0976C55.1483 78.046 55.1708 77.9974 55.2023 77.9547C55.2338 77.912 55.2736 77.8762 55.3193 77.8493C55.3651 77.8224 55.4158 77.805 55.4685 77.7982L56.2708 77.5579C56.3719 77.5278 56.4808 77.5387 56.5739 77.5882C56.667 77.6376 56.7368 77.7217 56.7683 77.8223C56.7847 77.8701 56.7915 77.9208 56.7883 77.9713C56.7851 78.0218 56.7719 78.0711 56.7495 78.1165C56.7272 78.162 56.696 78.2025 56.658 78.2359C56.6199 78.2693 56.5756 78.2948 56.5276 78.311L55.7252 78.5514C55.6912 78.5729 55.6528 78.5866 55.6129 78.5915L55.5888 78.5995ZM156.207 77.9585C156.17 77.9665 156.131 77.9665 156.094 77.9585L155.292 77.7341C155.191 77.6999 155.107 77.6282 155.057 77.5339C155.007 77.4397 154.996 77.3299 155.024 77.2273C155.053 77.1246 155.12 77.0369 155.212 76.9822C155.303 76.9274 155.412 76.9098 155.517 76.9329L156.319 77.1572C156.37 77.171 156.418 77.195 156.46 77.2277C156.501 77.2604 156.536 77.3011 156.561 77.3475C156.587 77.3939 156.603 77.445 156.608 77.4977C156.613 77.5503 156.608 77.6035 156.592 77.654C156.578 77.746 156.532 77.83 156.461 77.8904C156.39 77.9508 156.3 77.9835 156.207 77.9825V77.9585ZM60.2105 77.2454C60.1582 77.2532 60.1048 77.2505 60.0536 77.2373C60.0024 77.2241 59.9544 77.2007 59.9124 77.1685C59.8705 77.1364 59.8355 77.0961 59.8095 77.0501C59.7835 77.0041 59.7671 76.9533 59.7612 76.9008C59.7533 76.8481 59.7559 76.7944 59.7691 76.7428C59.7822 76.6912 59.8055 76.6426 59.8376 76.6001C59.8698 76.5576 59.9101 76.5219 59.9562 76.4951C60.0023 76.4683 60.0533 76.451 60.1062 76.4441L60.9086 76.2358C61.01 76.2215 61.1132 76.2449 61.1984 76.3017C61.2836 76.3584 61.345 76.4445 61.3707 76.5435C61.3965 76.6425 61.3849 76.7475 61.3382 76.8385C61.2914 76.9295 61.2128 77.0002 61.1172 77.037L60.3148 77.2454C60.2805 77.2535 60.2448 77.2535 60.2105 77.2454ZM151.569 76.6845H151.465L150.662 76.4842C150.559 76.4594 150.47 76.395 150.415 76.3049C150.359 76.2149 150.341 76.1065 150.365 76.0034C150.392 75.8999 150.458 75.8109 150.55 75.7555C150.641 75.7001 150.751 75.6827 150.855 75.707L151.657 75.9073C151.71 75.9136 151.761 75.9302 151.807 75.9562C151.853 75.9821 151.894 76.0169 151.927 76.0586C151.96 76.1003 151.984 76.148 151.998 76.199C152.012 76.25 152.017 76.3034 152.01 76.356C152.004 76.4086 151.987 76.4594 151.961 76.5056C151.935 76.5518 151.9 76.5924 151.859 76.6252C151.817 76.6579 151.769 76.6821 151.718 76.6964C151.667 76.7107 151.614 76.7148 151.561 76.7085L151.569 76.6845ZM64.9124 76.0515C64.806 76.0632 64.6993 76.0322 64.6158 75.9653C64.5323 75.8984 64.4788 75.8012 64.4671 75.6949C64.4554 75.5887 64.4864 75.4821 64.5534 75.3987C64.6204 75.3153 64.7178 75.2619 64.8242 75.2502L65.6265 75.0659C65.7329 75.0394 65.8455 75.0561 65.9396 75.1125C66.0336 75.1688 66.1014 75.2602 66.128 75.3664C66.1546 75.4727 66.1379 75.5851 66.0814 75.679C66.025 75.773 65.9335 75.8406 65.8271 75.8672L65.0247 76.0515H64.9124ZM146.923 75.5547H146.835L146.033 75.3865C145.981 75.3751 145.932 75.3536 145.888 75.3232C145.845 75.2929 145.808 75.2542 145.78 75.2095C145.751 75.1648 145.732 75.115 145.723 75.0628C145.714 75.0107 145.716 74.9573 145.728 74.9057C145.737 74.8547 145.757 74.8061 145.786 74.7628C145.814 74.7196 145.852 74.6827 145.895 74.6542C145.939 74.6258 145.988 74.6064 146.039 74.5973C146.09 74.5882 146.142 74.5895 146.193 74.6012L146.995 74.7775C147.048 74.7825 147.099 74.7979 147.146 74.8228C147.193 74.8477 147.234 74.8817 147.268 74.9226C147.302 74.9636 147.327 75.0108 147.342 75.0616C147.357 75.1123 147.362 75.1655 147.356 75.2182C147.344 75.3253 147.29 75.4233 147.206 75.4909C147.122 75.5584 147.014 75.59 146.907 75.5787L146.923 75.5547ZM69.6143 75.0099C69.523 75.0103 69.4342 74.9795 69.3627 74.9227C69.2912 74.8659 69.2413 74.7864 69.2212 74.6974C69.2018 74.5925 69.2234 74.4841 69.2817 74.3947C69.3399 74.3052 69.4302 74.2415 69.5341 74.2166L70.3365 74.0564C70.4417 74.0375 70.5501 74.0604 70.6386 74.1203C70.727 74.1802 70.7885 74.2723 70.8099 74.3769C70.8204 74.4284 70.8207 74.4816 70.8107 74.5332C70.8007 74.5849 70.7805 74.6341 70.7515 74.678C70.7224 74.7219 70.685 74.7596 70.6413 74.7891C70.5976 74.8185 70.5486 74.8391 70.497 74.8496L69.6946 75.0018L69.6143 75.0099ZM142.213 74.5852H142.133L141.331 74.441C141.226 74.4196 141.134 74.3582 141.074 74.2699C141.014 74.1815 140.991 74.0733 141.01 73.9682C141.029 73.8643 141.089 73.7722 141.176 73.7122C141.263 73.6522 141.371 73.629 141.475 73.6477L142.277 73.8C142.382 73.8194 142.474 73.8792 142.534 73.9663C142.594 74.0533 142.617 74.1606 142.598 74.2647C142.578 74.3607 142.524 74.4464 142.446 74.5065C142.368 74.5666 142.271 74.5973 142.173 74.5932L142.213 74.5852ZM74.3483 74.1124C74.2419 74.122 74.1361 74.089 74.0541 74.0206C73.9721 73.9522 73.9206 73.8541 73.911 73.7479C73.9015 73.6416 73.9346 73.5359 74.003 73.454C74.0715 73.3721 74.1697 73.3207 74.2761 73.3112L75.0785 73.175C75.1312 73.166 75.1851 73.1675 75.2372 73.1794C75.2893 73.1913 75.3386 73.2133 75.3822 73.2442C75.4258 73.275 75.4628 73.3142 75.4913 73.3594C75.5197 73.4046 75.5389 73.4549 75.5479 73.5075C75.5569 73.5601 75.5553 73.614 75.5435 73.666C75.5316 73.718 75.5095 73.7672 75.4786 73.8107C75.4477 73.8543 75.4085 73.8913 75.3633 73.9197C75.318 73.9481 75.2676 73.9673 75.2149 73.9762L74.4125 74.1124H74.3483ZM137.471 73.7519H137.407L136.605 73.6237C136.5 73.6059 136.407 73.5484 136.344 73.4632C136.281 73.3781 136.254 73.2719 136.268 73.167C136.287 73.0625 136.347 72.9698 136.434 72.9085C136.521 72.8472 136.628 72.822 136.733 72.8384L137.535 72.9586C137.64 72.9782 137.733 73.0377 137.794 73.1244C137.856 73.2112 137.881 73.3184 137.864 73.4234C137.86 73.476 137.846 73.5274 137.822 73.5745C137.798 73.6215 137.765 73.6634 137.724 73.6977C137.684 73.7319 137.638 73.7579 137.587 73.7741C137.537 73.7903 137.484 73.7963 137.431 73.7919L137.471 73.7519ZM79.0984 73.3513C79.0461 73.3556 78.9935 73.3495 78.9436 73.3332C78.8937 73.3169 78.8476 73.2909 78.808 73.2565C78.7683 73.2222 78.736 73.1802 78.7128 73.1332C78.6897 73.0862 78.6762 73.035 78.6731 72.9827C78.6688 72.93 78.6748 72.877 78.691 72.8267C78.7072 72.7765 78.7332 72.7299 78.7676 72.6897C78.8019 72.6494 78.8438 72.6164 78.8909 72.5924C78.9381 72.5685 78.9895 72.554 79.0422 72.55L79.8446 72.4378C79.9496 72.4239 80.056 72.4511 80.1413 72.5139C80.2266 72.5767 80.2842 72.67 80.302 72.7743C80.3158 72.8804 80.2874 72.9877 80.2228 73.0731C80.1583 73.1584 80.0629 73.2152 79.957 73.2311L79.1546 73.3432L79.0984 73.3513ZM132.705 73.0468H132.649L131.847 72.9426C131.741 72.9287 131.646 72.8736 131.581 72.7895C131.516 72.7054 131.488 72.5991 131.502 72.4939C131.514 72.391 131.566 72.2971 131.647 72.2325C131.728 72.168 131.832 72.1381 131.935 72.1494L132.737 72.2535C132.84 72.2656 132.934 72.3179 132.999 72.3989C133.064 72.4799 133.094 72.5832 133.082 72.6862C133.078 72.7389 133.064 72.7902 133.04 72.8373C133.016 72.8844 132.983 72.9263 132.942 72.9605C132.902 72.9948 132.855 73.0207 132.805 73.0369C132.755 73.0531 132.702 73.0592 132.649 73.0548L132.705 73.0468ZM127.891 72.4779L127.088 72.3897C126.983 72.3777 126.887 72.3246 126.821 72.242C126.755 72.1595 126.724 72.0542 126.735 71.9491C126.751 71.8457 126.805 71.7521 126.887 71.6868C126.969 71.6215 127.072 71.5893 127.177 71.5965L127.979 71.6766C128.085 71.6766 128.188 71.7188 128.263 71.794C128.338 71.8691 128.38 71.971 128.38 72.0773C128.38 72.1835 128.338 72.2854 128.263 72.3605C128.188 72.4357 128.085 72.4779 127.979 72.4779H127.891ZM123.077 72.0292L122.274 71.9651C122.221 71.961 122.17 71.9466 122.123 71.9226C122.076 71.8987 122.034 71.8656 122 71.8254C121.965 71.7852 121.939 71.7386 121.923 71.6883C121.907 71.638 121.901 71.585 121.905 71.5324C121.917 71.4276 121.969 71.3313 122.049 71.2629C122.129 71.1945 122.233 71.1591 122.338 71.1638L123.141 71.2279C123.192 71.231 123.243 71.2442 123.29 71.2668C123.336 71.2894 123.378 71.321 123.412 71.3597C123.446 71.3984 123.473 71.4435 123.489 71.4924C123.506 71.5413 123.513 71.593 123.51 71.6446C123.509 71.6972 123.497 71.7491 123.476 71.7973C123.455 71.8455 123.425 71.8891 123.387 71.9255C123.349 71.962 123.304 71.9906 123.255 72.0098C123.206 72.0289 123.153 72.0383 123.101 72.0372L123.077 72.0292ZM118.262 71.7007H117.46C117.354 71.6943 117.254 71.646 117.183 71.5663C117.113 71.4867 117.076 71.3822 117.083 71.276C117.089 71.1697 117.138 71.0704 117.217 70.9997C117.297 70.9291 117.402 70.893 117.508 70.8994L118.31 70.9475C118.417 70.9475 118.519 70.9897 118.594 71.0648C118.669 71.14 118.712 71.2419 118.712 71.3481C118.712 71.4544 118.669 71.5563 118.594 71.6314C118.519 71.7065 118.417 71.7487 118.31 71.7487L118.262 71.7007ZM113.448 71.4843H112.646C112.593 71.4833 112.541 71.4719 112.493 71.4508C112.445 71.4297 112.401 71.3993 112.364 71.3613C112.328 71.3234 112.299 71.2786 112.28 71.2296C112.261 71.1806 112.251 71.1283 112.253 71.0757C112.254 71.0224 112.265 70.9698 112.287 70.9211C112.309 70.8723 112.34 70.8284 112.379 70.7918C112.417 70.7552 112.463 70.7268 112.513 70.7081C112.563 70.6894 112.616 70.6809 112.67 70.6831H113.472C113.579 70.6831 113.681 70.7253 113.756 70.8004C113.831 70.8755 113.873 70.9774 113.873 71.0837C113.873 71.1899 113.831 71.2919 113.756 71.367C113.681 71.4421 113.579 71.4843 113.472 71.4843H113.448ZM108.634 71.3882H107.831C107.725 71.3882 107.623 71.346 107.548 71.2708C107.473 71.1957 107.43 71.0938 107.43 70.9875C107.434 70.8826 107.478 70.7829 107.552 70.7087C107.627 70.6344 107.726 70.5909 107.831 70.5869H108.634C108.687 70.588 108.738 70.5993 108.787 70.6205C108.835 70.6416 108.879 70.6719 108.915 70.7099C108.952 70.7478 108.98 70.7926 109 70.8416C109.019 70.8906 109.028 70.9429 109.027 70.9956C109.027 71.0956 108.989 71.192 108.92 71.265C108.852 71.338 108.758 71.382 108.658 71.3882H108.634Z" fill="#70A9A1"/>
<path d="M16.1118 120.537C24.7663 120.537 31.7822 113.531 31.7822 104.889C31.7822 96.2463 24.7663 89.2402 16.1118 89.2402C7.45728 89.2402 0.441406 96.2463 0.441406 104.889C0.441406 113.531 7.45728 120.537 16.1118 120.537Z" fill="white"/>
<path d="M14.3307 102.91H23.8148V106.579H14.3467V109.36H18.8641V111.451H14.3307V114.656H10.1744V111.451H8.22461V109.328H10.1423V95.0974H23.9993V98.7511H14.7399C14.3869 98.7511 14.2745 98.8233 14.2825 99.2079V102.413L14.3307 102.91Z" fill="black" fill-opacity="0.7"/>
<path d="M58.1889 84.9776C66.8435 84.9776 73.8593 77.9715 73.8593 69.329C73.8593 60.6865 66.8435 53.6804 58.1889 53.6804C49.5344 53.6804 42.5186 60.6865 42.5186 69.329C42.5186 77.9715 49.5344 84.9776 58.1889 84.9776Z" fill="white"/>
<path d="M68.4425 63.7442L64.7436 65.563C63.3715 63.3916 61.4699 62.3019 58.8622 62.6865C57.8813 62.8172 56.9468 63.1837 56.139 63.7545C55.3312 64.3253 54.6742 65.0834 54.2245 65.9637H61.7186V68.2633H53.4943V70.2584H61.7267V72.6061H54.1683C54.5936 73.4964 55.2332 74.2675 56.0299 74.8506C56.8266 75.4336 57.7556 75.8105 58.7338 75.9474C59.906 76.1853 61.1239 76.0338 62.2018 75.5159C63.2797 74.9979 64.1583 74.1421 64.7035 73.0789L68.4827 74.9057C68.0253 75.5227 67.6402 76.1236 67.1748 76.6685C66.3066 77.6963 65.2225 78.5205 63.9994 79.0828C62.7763 79.645 61.4443 79.9314 60.0978 79.9216C57.9462 79.9949 55.817 79.4647 53.9516 78.3912C51.9032 77.2334 50.3504 75.3664 49.5867 73.143C49.4423 72.7423 49.2658 72.534 48.7843 72.5981C48.4612 72.6221 48.1367 72.6221 47.8135 72.5981V70.2745H48.8806V68.2793H47.8135V65.9717H49.0331C49.1351 65.9934 49.2416 65.9746 49.33 65.9193C49.4183 65.864 49.4817 65.7764 49.5065 65.6752C50.0294 64.0394 50.9926 62.5787 52.2907 61.4526C53.5313 60.3529 55.0167 59.5646 56.6236 59.153C58.2313 58.7196 59.9116 58.6241 61.5582 58.8725C62.7419 59.0301 63.8813 59.426 64.9075 60.0361C65.9336 60.6462 66.825 61.4579 67.5278 62.4221C67.8087 62.7907 68.0574 63.2234 68.3302 63.5759C68.374 63.6275 68.4117 63.684 68.4425 63.7442Z" fill="black" fill-opacity="0.7"/>
<path d="M157.755 87.157C166.41 87.157 173.426 80.1509 173.426 71.5084C173.426 62.866 166.41 55.8599 157.755 55.8599C149.101 55.8599 142.085 62.866 142.085 71.5084C142.085 80.1509 149.101 87.157 157.755 87.157Z" fill="white"/>
<path d="M151.987 81.8926L150.526 78.96C150.895 78.7437 151.273 78.5514 151.626 78.319C152.618 77.7608 153.38 76.8693 153.776 75.8031C153.971 75.0641 153.885 74.2792 153.535 73.5996C153.535 73.5195 153.319 73.4634 153.198 73.4634H149.86V70.9635H151.826C151.505 70.3786 151.168 69.8337 150.911 69.2488C150.549 68.4429 150.402 67.5566 150.487 66.6772C150.571 65.7977 150.883 64.9553 151.393 64.2329C151.929 63.4168 152.629 62.7201 153.448 62.1865C154.267 61.653 155.187 61.294 156.151 61.132C158.235 60.6702 160.414 60.9213 162.337 61.8451C163.535 62.4554 164.505 63.4326 165.105 64.6335L161.687 66.5806C161.416 66.1721 161.118 65.7814 160.797 65.4107C160.375 64.9889 159.844 64.691 159.264 64.5497C158.684 64.4084 158.076 64.4291 157.507 64.6095C156.759 64.7638 156.103 65.2083 155.683 65.8454C155.264 66.4824 155.114 67.2599 155.268 68.0068C155.317 68.2489 155.398 68.4833 155.509 68.7039C155.837 69.4285 156.223 70.1252 156.664 70.7872C156.716 70.8431 156.78 70.887 156.851 70.9161C156.921 70.9451 156.997 70.9586 157.074 70.9555H161.166V73.4474H157.716C157.805 74.1899 157.691 74.9427 157.386 75.6256C157.081 76.3085 156.596 76.896 155.982 77.3255L156.576 77.2534C157.686 77.1503 158.801 77.3731 159.786 77.8944C160.377 78.1796 161.035 78.2954 161.689 78.2289C162.342 78.1624 162.963 77.9162 163.485 77.5178C163.638 77.3968 163.78 77.2628 163.91 77.1171C164.488 78.2629 165.049 79.3927 165.627 80.5545C165.098 81.1097 164.431 81.5136 163.693 81.7244C162.09 82.2453 160.362 82.2453 158.759 81.7244C158.292 81.5664 157.834 81.3845 157.387 81.1795C156.759 80.9019 156.079 80.7645 155.393 80.777C154.707 80.7894 154.032 80.9514 153.415 81.2516L151.987 81.8926Z" fill="black" fill-opacity="0.7"/>
<path d="M186.232 141.859C194.886 141.859 201.902 134.853 201.902 126.21C201.902 117.568 194.886 110.562 186.232 110.562C177.577 110.562 170.562 117.568 170.562 126.21C170.562 134.853 177.577 141.859 186.232 141.859Z" fill="white"/>
<path d="M186.255 124.383L187.29 122.701C188.398 120.89 189.513 119.079 190.612 117.26C190.664 117.15 190.75 117.058 190.856 116.998C190.962 116.938 191.084 116.912 191.206 116.924H195.386C193.477 119.864 191.615 122.749 189.705 125.681H194.584V127.909H188.237V130.112H194.584V132.284H188.245V135.489H184.297V132.284H177.967V130.104H184.257V127.901H177.959V125.681H182.829L177.116 116.868H181.313C181.405 116.856 181.499 116.873 181.582 116.916C181.665 116.959 181.734 117.026 181.778 117.108C182.693 118.609 183.613 120.105 184.538 121.595L186.255 124.383Z" fill="black" fill-opacity="0.7"/>
<path d="M57.811 158.004C66.4655 158.004 73.4814 150.998 73.4814 142.356C73.4814 133.713 66.4655 126.707 57.811 126.707C49.1565 126.707 42.1406 133.713 42.1406 142.356C42.1406 150.998 49.1565 158.004 57.811 158.004Z" fill="white"/>
<path d="M56.504 132.284V129.64H59.5931V132.356C61.8146 132.624 63.8964 133.579 65.5467 135.088L63.0433 138.389C62.0804 137.483 60.9051 136.833 59.6252 136.498V140.136C60.4276 140.409 61.23 140.633 61.9762 140.937C63.3124 141.297 64.4581 142.157 65.1742 143.34C65.8903 144.522 66.1215 145.935 65.8195 147.283C65.7017 148.106 65.4023 148.892 64.9429 149.585C64.4836 150.278 63.8759 150.86 63.1637 151.29C62.1844 151.88 61.0901 152.254 59.9542 152.387C59.6493 152.387 59.5931 152.54 59.6011 152.812V155.048H56.504V152.54C55.7016 152.371 54.9393 152.235 54.1931 152.035C52.6537 151.643 51.2398 150.865 50.085 149.775C49.5955 149.327 49.6035 149.311 49.9887 148.766C50.6546 147.812 51.3286 146.867 52.0347 145.873C53.214 147.172 54.7715 148.069 56.4879 148.437V144.303C55.6053 144.006 54.7468 143.766 53.9203 143.429C53.1826 143.191 52.5052 142.796 51.9346 142.272C51.364 141.748 50.9137 141.107 50.6145 140.393C50.3379 139.689 50.2094 138.936 50.237 138.18C50.2646 137.425 50.4478 136.683 50.775 136.002C51.2205 135.118 51.8629 134.348 52.653 133.75C53.443 133.153 54.3597 132.745 55.3325 132.556C55.7016 132.444 56.0707 132.388 56.504 132.284ZM59.6172 148.381C60.0789 148.333 60.5087 148.123 60.8303 147.789C61.152 147.454 61.3447 147.017 61.3744 146.554C61.3744 145.865 60.572 145.296 59.6172 145.104V148.381ZM56.4638 139.311V136.29C56.0375 136.3 55.6307 136.471 55.3254 136.768C55.0201 137.065 54.8392 137.467 54.819 137.893C54.819 138.542 55.5251 139.143 56.4638 139.303V139.311Z" fill="black" fill-opacity="0.7"/>
<defs>
<linearGradient id="paint0_linear" x1="91.2147" y1="30.0674" x2="133.008" y2="23.7282" gradientUnits="userSpaceOnUse">
<stop offset="0.01"/>
<stop offset="0.13" stop-opacity="0.69"/>
<stop offset="0.25" stop-opacity="0.32"/>
<stop offset="1" stop-opacity="0"/>
</linearGradient>
<linearGradient id="paint1_linear" x1="15517.1" y1="-2720.14" x2="14351.8" y2="-1587.3" gradientUnits="userSpaceOnUse">
<stop offset="0.01"/>
<stop offset="0.13" stop-opacity="0.69"/>
<stop offset="0.25" stop-opacity="0.32"/>
<stop offset="1" stop-opacity="0"/>
</linearGradient>
<linearGradient id="paint2_linear" x1="2561.48" y1="1230.36" x2="2494.78" y2="1091.98" gradientUnits="userSpaceOnUse">
<stop offset="0.01"/>
<stop offset="0.13" stop-opacity="0.69"/>
<stop offset="0.25" stop-opacity="0.32"/>
<stop offset="1" stop-opacity="0"/>
</linearGradient>
<linearGradient id="paint3_linear" x1="11019.4" y1="-809.223" x2="10961.1" y2="-1056.06" gradientUnits="userSpaceOnUse">
<stop offset="0.01"/>
<stop offset="0.13" stop-opacity="0.69"/>
<stop offset="0.25" stop-opacity="0.32"/>
<stop offset="1" stop-opacity="0"/>
</linearGradient>
<linearGradient id="paint4_linear" x1="68.6518" y1="95.6022" x2="128.188" y2="98.0127" gradientUnits="userSpaceOnUse">
<stop/>
<stop offset="1" stop-opacity="0"/>
</linearGradient>
<linearGradient id="paint5_linear" x1="6318.2" y1="6238.65" x2="4407.5" y2="6443.85" gradientUnits="userSpaceOnUse">
<stop/>
<stop offset="1" stop-opacity="0"/>
</linearGradient>
<linearGradient id="paint6_linear" x1="3860.8" y1="-1877.52" x2="3726.83" y2="-1666.89" gradientUnits="userSpaceOnUse">
<stop offset="0.01"/>
<stop offset="0.13" stop-opacity="0.69"/>
<stop offset="0.25" stop-opacity="0.32"/>
<stop offset="1" stop-opacity="0"/>
</linearGradient>
</defs>
</svg>
