<svg width="256.89" height="204.08" xmlns="http://www.w3.org/2000/svg" xmlns:xlink="http://www.w3.org/1999/xlink">
 <defs>
  <linearGradient y2="0.42424" x2="2.01767" y1="0.5382" x1="-0.43852" id="linear-gradient">
   <stop offset="0.01"/>
   <stop stop-opacity="0.69" offset="0.13"/>
   <stop stop-opacity="0.32" offset="0.25"/>
   <stop stop-opacity="0" offset="1"/>
  </linearGradient>
  <linearGradient xlink:href="#linear-gradient" gradientTransform="translate(-535.87 352) rotate(180)" y2="87.32" x2="-731.57" y1="142.56" x1="-791.33" id="linear-gradient-2"/>
  <linearGradient xlink:href="#linear-gradient" y2="122.07" x2="220.71" y1="137.09" x1="230.18" id="linear-gradient-3"/>
  <linearGradient xlink:href="#linear-gradient" gradientTransform="translate(-535.87 352) rotate(180)" y2="135.52" x2="-773.7" y1="107.99" x1="-785.94" id="linear-gradient-4"/>
  <linearGradient y2="0.50418" x2="1.11738" y1="0.41765" x1="-5.231" id="linear-gradient-5">
   <stop offset="0"/>
   <stop stop-opacity="0" offset="1"/>
  </linearGradient>
  <linearGradient xlink:href="#linear-gradient-5" y2="201.15" x2="176.87" y1="190.17" x1="254.02" id="linear-gradient-6"/>
  <linearGradient xlink:href="#linear-gradient" gradientTransform="translate(-535.87 352) rotate(180)" y2="208.41" x2="-726.66" y1="237.31" x1="-739.9" id="linear-gradient-7"/>
  <linearGradient xlink:href="#linear-gradient-5" gradientTransform="translate(-561.26 311.8) rotate(180)" y2="189.55" x2="-746.14" y1="170.42" x1="-754.69" id="linear-gradient-8"/>
 </defs>
 <title>15</title>
 <g>
  <title>background</title>
  <rect fill="none" id="canvas_background" height="206.08" width="258.89" y="-1" x="-1"/>
 </g>
 <g>
  <title>Layer 1</title>
  <path id="svg_2" fill="#c1a7a7" d="m126.08,64.71l9,-29.38c1.16,-5.63 1.67,-12.27 2.31,-18a16,16 0 0 0 -0.05,-5.65c-0.58,-2.43 -2.21,-5.06 -0.91,-7.2s4.91,-1.79 7.12,-0.31c3.05,2 5.09,6.58 2.67,9.34a20.82,20.82 0 0 0 -2.11,2.09c-0.83,1.28 -0.6,3 -0.44,4.47c0.74,7 -0.72,14 -2.16,21l-4,19.14c-1,4.66 -2.54,10 -7,11.73a2.6,2.6 0 0 1 -2.1,0.08a3,3 0 0 1 -1,-0.93c-1.03,-1.63 -1.22,-4.43 -1.33,-6.38z"/>
  <path fill-opacity="0" id="svg_3" fill="#000000" d="m126.08,64.71l9,-29.38c1.16,-5.63 1.67,-12.27 2.31,-18a16,16 0 0 0 -0.05,-5.65c-0.58,-2.43 -2.21,-5.06 -0.91,-7.2s4.91,-1.79 7.12,-0.31c3.05,2 5.09,6.58 2.67,9.34a20.82,20.82 0 0 0 -2.11,2.09c-0.83,1.28 -0.6,3 -0.44,4.47c0.74,7 -0.72,14 -2.16,21l-4,19.14c-1,4.66 -2.54,10 -7,11.73a2.6,2.6 0 0 1 -2.1,0.08a3,3 0 0 1 -1,-0.93c-1.03,-1.63 -1.22,-4.43 -1.33,-6.38z"/>
  <path id="svg_4" fill="#70a9a1" d="m177.88,139.6a42.87,42.87 0 1 1 -85.73,1.31c0,-0.44 0,-0.87 0,-1.31a27.59,27.59 0 0 1 0.13,-3.28a42.86,42.86 0 0 1 85.6,3.28z"/>
  <path id="svg_5" opacity="0.14" fill="#020202" d="m117,159.07c-1.42,6.2 0.31,12.8 -1,19a42.92,42.92 0 0 1 -21.32,-23.79a26.36,26.36 0 0 1 0.15,-6.4c0.29,-2.28 0.71,-4.64 0.07,-6.85a16.2,16.2 0 0 0 -2.66,-4.68a42.75,42.75 0 0 1 17.9,-31.65a2.54,2.54 0 0 1 0,0.87l-1.84,8.16a24.14,24.14 0 0 1 0,7.3a8.34,8.34 0 0 1 -4,5.85a19.67,19.67 0 0 0 -2.3,1.14a6.94,6.94 0 0 0 -1.75,2.1a17.09,17.09 0 0 0 -2.61,5.46a6.07,6.07 0 0 0 1.35,5.65l12,-2.32c1.25,-0.24 2.76,-0.41 3.62,0.53c1,1.12 0.38,2.92 0.61,4.43c0.28,1.93 2,3.32 2.8,5.12c1.45,3.13 -0.24,6.7 -1.02,10.08z"/>
  <path id="svg_6" opacity="0.14" fill="#020202" d="m106.12,109.55c-1.71,2 -3.48,4.13 -4,6.7a3,3 0 0 0 0,1.69a3.5,3.5 0 0 0 2.25,1.76a33,33 0 0 0 12.75,2.18c-0.25,2.45 -0.36,5.29 1.43,7a7,7 0 0 0 2.31,1.34a26.27,26.27 0 0 0 8.44,1.8c2.42,0.11 4.87,-0.13 7.29,0.14a17.93,17.93 0 0 1 8.31,3.12a4.21,4.21 0 0 1 1.51,1.57a5.12,5.12 0 0 1 0.31,2.19a32.58,32.58 0 0 0 1,7.8c0.65,2.48 1.7,5 3.78,6.51a13.29,13.29 0 0 0 3.56,1.61l8.55,2.92a1,1 0 0 0 0.66,0.06a1,1 0 0 0 0.46,-0.52c0.95,-1.86 1.89,-3.92 1.5,-6s-2,-3.59 -2.75,-5.5c-1.23,-3 -0.27,-6.56 -1.28,-9.66a13.21,13.21 0 0 0 -3.33,-4.94a79.71,79.71 0 0 0 -7.87,-6.81c-4.4,-3.48 -8.86,-7 -14,-9.32c-2.06,-0.94 -4.36,-1.79 -5.55,-3.71c-1.43,-2.31 -0.81,-5.48 -2.35,-7.72c-1.26,-1.82 -3.63,-2.52 -5.84,-2.64a21,21 0 0 0 -10.51,2.46c-2.91,1.47 -4.51,3.48 -6.63,5.97z"/>
  <path id="svg_7" opacity="0.14" fill="#020202" d="m177.88,139.6a42.77,42.77 0 0 1 -16.33,33.67a5.25,5.25 0 0 1 -1.49,-1.48c-1.28,-1.94 -0.86,-5 1.21,-6.1c-0.72,0.38 -3.55,-0.55 -4.4,-0.68l-4.41,-0.68c-2.11,-0.33 -5.8,-0.19 -7,-2.32a5,5 0 0 0 -0.49,-0.84a2.9,2.9 0 0 0 -0.92,-0.63c-1.33,-0.65 -2.88,-1.38 -3.2,-2.83c-0.22,-1.06 0.31,-2.26 -0.24,-3.2c-0.17,-0.29 -0.43,-0.52 -0.6,-0.81a2.76,2.76 0 0 1 0.3,-2.69c1.86,-3.25 5.71,-4.83 9.41,-5.45s7.52,-0.53 11.12,-1.57c2.27,-0.66 4.43,-1.76 6.77,-2.08c1.29,-0.18 2.91,-0.32 3.38,-1.53c0.26,-0.69 0,-1.49 0.27,-2.18c0.11,-0.3 0.31,-0.56 0.42,-0.86a1.77,1.77 0 0 0 -1.14,-2.23a2.05,2.05 0 0 0 -0.34,-0.07c0.3,-0.8 0.54,-1.83 -0.09,-2.4a1.71,1.71 0 0 0 -1.56,-0.24c-1.54,0.38 -2.65,1.68 -3.94,2.6c-4.28,3 -10.15,2 -13.72,-1.62a3.9,3.9 0 0 1 -1.19,-1.93a3.08,3.08 0 0 1 1.81,-3.08a9.1,9.1 0 0 1 3.71,-0.73c-0.47,-3.11 -1,-6.23 -1.43,-9.33c-7.12,1.91 -10,-4.88 -11,-10.52s3,-7.66 8.16,-8a42.88,42.88 0 0 1 26.93,39.81z"/>
  <path id="svg_8" fill="url(#linear-gradient-2)" d="m146.33,158.62c0,2.36 3.81,4.59 5.67,5.14a11,11 0 0 1 2.26,0.73a2.12,2.12 0 0 1 1.18,1.92c-0.08,0.69 -0.64,1.25 -0.79,1.92a3.44,3.44 0 0 0 0.21,1.74c0.71,2.29 3.53,3.71 4.22,6c3.9,-0.39 5.66,-0.06 9.52,-0.71l3.22,-2.06c-1.62,-3 -3.23,-6.06 -4.86,-9.1a18.36,18.36 0 0 0 -2.29,-3.61a17.6,17.6 0 0 0 -3.58,-2.85a95,95 0 0 0 -10.55,-5.94c0.49,0.28 -4.21,6.21 -4.21,6.82z"/>
  <path id="svg_9" fill="#c1a7a7" d="m148.61,147.91c-0.4,1.3 -0.76,2.83 0,3.92a3.18,3.18 0 0 0 1.42,1a3.84,3.84 0 0 0 4.06,-0.43a5.31,5.31 0 0 0 1.23,-2.33a56.8,56.8 0 0 0 2.18,-9.73a1.79,1.79 0 0 0 0,-0.92a1.63,1.63 0 0 0 -0.77,-0.72c-1.73,-0.93 -4.44,-1.68 -5.41,0.39c-1.27,2.71 -1.85,5.99 -2.71,8.82z"/>
  <path id="svg_10" fill="#70a9a1" d="m153.82,149.42a2.41,2.41 0 0 1 1.1,0.11a1.93,1.93 0 0 1 0.61,0.53l3.74,4.28c0.73,0.83 1.5,2 1,2.94a2.17,2.17 0 0 1 -1.61,1a9.4,9.4 0 0 1 -5.26,-1c-1.16,-0.51 -2.29,-1.06 -3.41,-1.66a5.58,5.58 0 0 1 -2.12,-1.7c-0.85,-1.32 -1.11,-4.5 0.42,-5.49c0.76,-0.49 1.43,-0.14 2.17,0.21a7.24,7.24 0 0 0 3.36,0.78z"/>
  <path id="svg_11" fill="#c1a7a7" d="m169.38,162.47a1.6,1.6 0 0 1 -0.08,0.72a1.5,1.5 0 0 1 -0.54,0.55a4.65,4.65 0 0 1 -2.42,0.82a2.79,2.79 0 0 1 -2.27,-1a4.76,4.76 0 0 1 -0.7,-2.13a25.6,25.6 0 0 1 -0.47,-4.94a0.67,0.67 0 0 1 0.64,-0.82c1.35,-0.29 4,-1 4.72,0.67a20,20 0 0 1 1.12,6.13z"/>
  <path id="svg_12" fill="#70a9a1" d="m175.09,162.3a12.2,12.2 0 0 1 3.39,0.66a4.27,4.27 0 0 1 2.49,2.3a2.46,2.46 0 0 1 0.07,1.67a3.51,3.51 0 0 1 -1.84,1.76a23.19,23.19 0 0 1 -12.59,2.76a4.29,4.29 0 0 1 -3.05,-1.13a4.88,4.88 0 0 1 -0.81,-3.11l-0.15,-5.18c1,-0.15 1.87,0.49 2.8,0.81c1.61,0.55 2.24,-0.77 3.57,-1.09c1.73,-0.4 4.35,0.37 6.12,0.55z"/>
  <path id="svg_13" fill="url(#linear-gradient-3)" d="m153.82,149.42a2.41,2.41 0 0 1 1.1,0.11a1.93,1.93 0 0 1 0.61,0.53l3.74,4.28c0.73,0.83 1.5,2 1,2.94a2.17,2.17 0 0 1 -1.61,1a9.4,9.4 0 0 1 -5.26,-1c-1.16,-0.51 -2.29,-1.06 -3.41,-1.66a5.58,5.58 0 0 1 -2.12,-1.7c-0.85,-1.32 -1.11,-4.5 0.42,-5.49c0.76,-0.49 1.43,-0.14 2.17,0.21a7.24,7.24 0 0 0 3.36,0.78z"/>
  <path id="svg_14" fill="#473f47" d="m147.34,150.2a5.07,5.07 0 0 0 0.31,1.14a7,7 0 0 0 0.64,1.39a5.26,5.26 0 0 0 1.32,1.3a15.93,15.93 0 0 0 4.18,2a13.47,13.47 0 0 0 7.08,0.74a2.25,2.25 0 0 1 -1.14,1.19a4.17,4.17 0 0 1 -1.63,0.37a13.94,13.94 0 0 1 -6.28,-1.7l-2.21,-1a5.92,5.92 0 0 1 -0.89,-0.49a4.2,4.2 0 0 1 -1,-1.06a5.24,5.24 0 0 1 -0.89,-2.47a3.94,3.94 0 0 1 0.09,-1.28c0,-0.18 0.26,-1 0.5,-1a2.14,2.14 0 0 0 -0.08,0.87z"/>
  <path id="svg_15" fill="url(#linear-gradient-4)" d="m175.09,162.3a12.2,12.2 0 0 1 3.39,0.66a4.27,4.27 0 0 1 2.49,2.3a2.46,2.46 0 0 1 0.07,1.67a3.51,3.51 0 0 1 -1.84,1.76a23.19,23.19 0 0 1 -12.59,2.76a4.29,4.29 0 0 1 -3.05,-1.13a4.88,4.88 0 0 1 -0.81,-3.11l-0.15,-5.18c1,-0.15 1.87,0.49 2.8,0.81c1.61,0.55 2.24,-0.77 3.57,-1.09c1.73,-0.4 4.35,0.37 6.12,0.55z"/>
  <path id="svg_16" fill="#fff" d="m161.24,105.09a6,6 0 0 1 3,1.52c1,1.08 1,2.68 1,4.14a85.37,85.37 0 0 1 -5.74,30.6a2.74,2.74 0 0 1 -1.28,1.73a2.69,2.69 0 0 1 -1.75,-0.08a67.82,67.82 0 0 1 -6.67,-2.24l2.95,-19.89a2.83,2.83 0 0 0 -0.09,-1.68a2.7,2.7 0 0 0 -0.89,-0.92a78.62,78.62 0 0 0 -10.65,-6.64c-3,-1.53 -6.36,-3.27 -7.17,-6.55a3.64,3.64 0 0 1 0.58,-3.25a5.15,5.15 0 0 1 1.63,-1.1c2,-1 4.45,-2.25 6.72,-2c1.8,0.18 2.5,1.25 4,2c4.24,2.21 9.81,3.01 14.36,4.36z"/>
  <path id="svg_17" fill="url(#linear-gradient-5)" d="m152.15,141.55c-0.25,-0.08 0.63,-4.77 0.71,-5.24c0.16,-0.92 0.85,-5 1.58,-2.17a13.21,13.21 0 0 1 0.22,1.88a21.41,21.41 0 0 0 0.39,2.24a6.53,6.53 0 0 0 0.51,1.68a6.68,6.68 0 0 0 1.82,2a0.88,0.88 0 0 0 0.52,0.27c0.29,0 0.51,-0.27 0.63,-0.54a6.67,6.67 0 0 0 0.38,-2.62c0.15,-5 2.74,-9.36 2.57,-14.49c0,-1.25 -1.19,-2.76 -1.69,-3.91a13.53,13.53 0 0 1 -1,-2.91c-0.63,-3.41 1.38,-6.74 1.66,-10.2l-6.78,3.33l-3.87,29.93l2.35,0.75z"/>
  <path id="svg_18" fill="#70a9a1" d="m134.53,102.17a43.94,43.94 0 0 1 -4.19,2.06c-0.38,0.17 -0.76,0.33 -1.15,0.48a28.69,28.69 0 0 1 -13.92,2q-0.72,-0.09 -1.44,-0.24a12.13,12.13 0 0 1 -7.08,-3.84c-2.21,-2.65 -2.73,-6.34 -2.87,-9.81l0,-1a61.41,61.41 0 0 1 1,-12.91a33.71,33.71 0 0 1 5.73,-14.06a21.6,21.6 0 0 1 7.57,-6.41c3.09,-1.57 6.75,-2.37 10.05,-1.28a15,15 0 0 1 4.67,2.77a7.24,7.24 0 0 1 1.37,1.34a7.16,7.16 0 0 1 1.12,2.69c1.37,6 -0.53,12.13 -2,18.09c-0.81,3.4 -1.43,7.14 0.12,10.26c2.21,4.41 7.56,6.21 1.02,9.86z"/>
  <path id="svg_19" fill="url(#linear-gradient-6)" d="m134.53,102.19c-0.12,1.38 -1.86,1.89 -3.25,2l-0.94,0.05a50.27,50.27 0 0 1 -14.87,-1.36a3.19,3.19 0 0 0 -1.86,-0.08a0.94,0.94 0 0 0 -0.26,0.14l0,0.33a3.76,3.76 0 0 0 0.55,3.23a12.13,12.13 0 0 1 -7.08,-3.84c-2.21,-2.65 -2.73,-6.34 -2.87,-9.81l0,-1a67.88,67.88 0 0 1 0.24,-7.68a29.77,29.77 0 0 1 1,-6.76a24.18,24.18 0 0 1 7.42,-10.73a3.47,3.47 0 0 1 1.09,-0.69a3.4,3.4 0 0 1 2.69,0.46a5.41,5.41 0 0 1 1.78,1.37a5.29,5.29 0 0 1 1,3a19.84,19.84 0 0 1 -0.39,4.35a42.77,42.77 0 0 1 -1.38,6.33a12.75,12.75 0 0 0 -0.67,2.34a5.36,5.36 0 0 0 0.52,3c0.37,0.84 0.43,1.72 0.73,2.6a13.66,13.66 0 0 0 2.91,4.87a17.93,17.93 0 0 0 10.17,5.36a7.66,7.66 0 0 1 2.35,0.59a2.17,2.17 0 0 1 1.12,1.93z"/>
  <path id="svg_20" fill="#c1a7a7" d="m121.85,65.7a6.08,6.08 0 0 0 4.38,2.29a1.22,1.22 0 0 0 0.77,-0.17a1.32,1.32 0 0 0 0.38,-0.92c0.08,-0.69 0.18,-1.57 0.25,-2.45s0.21,-2 0.31,-2.7a10.72,10.72 0 0 1 2.18,-5.47a5.49,5.49 0 0 1 0.86,-0.94c2.11,-1.9 -6.47,-1.15 -7.6,-3.74c-1.3,1.69 -1.18,4.06 -1.76,6.13a30.71,30.71 0 0 0 -1,3.08a6.22,6.22 0 0 0 1.23,4.89z"/>
  <path id="svg_21" fill="url(#linear-gradient-7)" d="m127.52,64.85l0.11,-0.4c0.12,-1 0.21,-2 0.31,-2.7a10.72,10.72 0 0 1 2.18,-5.47l0.06,-0.21s-6.8,-4.47 -7.53,0.76s4.87,8.02 4.87,8.02z"/>
  <path id="svg_22" fill="#c1a7a7" d="m134.61,53.18a5.39,5.39 0 0 1 -0.58,3.15a4,4 0 0 1 -1,1c-2.7,2 -6.76,1.63 -9.44,-0.48a12.09,12.09 0 0 1 -4.22,-9a7,7 0 0 1 1.41,-5a5.56,5.56 0 0 1 5.11,-1.43a13.19,13.19 0 0 1 6.47,3.68c1.73,1.94 2.16,5.63 2.25,8.08z"/>
  <path id="svg_23" fill="#fff" d="m159.13,118.97a21.47,21.47 0 0 1 3.27,6a120.28,120.28 0 0 1 8.21,32.75a42,42 0 0 1 -10.51,0a101.48,101.48 0 0 0 -3.61,-23.56a15.1,15.1 0 0 0 -1.9,-4.65c-1.55,-2.29 -4.1,-3.61 -6.55,-4.85a95.73,95.73 0 0 0 -17.63,-6.68c-2.56,-0.72 -5.14,-1.37 -7.66,-2.24a18.38,18.38 0 0 1 -6,-3.08a8.53,8.53 0 0 1 -3.22,-5.79c0,0.58 12.74,0 13.93,-0.18c4,-0.43 8.68,-2.75 12.62,-1.11c3.08,1.28 5.89,3.95 8.66,5.79c3.51,2.29 7.67,4.43 10.39,7.6z"/>
  <polygon id="svg_24" fill="#70a9a1" points="140.97999572753906,118.1199951171875 118.80000305175781,107.1199951171875 144.47000122070312,97.87000274658203 164.69000244140625,106.83999633789062 140.97999572753906,118.1199951171875 "/>
  <polygon id="svg_25" fill="url(#linear-gradient-8)" points="141.10000610351562,116.44999694824219 122.58999633789062,107.25999450683594 144.02000427246094,99.54000091552734 160.91000366210938,107.02999877929688 141.10000610351562,116.44999694824219 "/>
  <path id="svg_26" fill="#c1a7a7" d="m110.19,71c-0.05,0.38 -0.1,0.76 -0.14,1.14c-0.6,5.64 -0.06,11.19 0.15,16.81c0.13,3.47 0.58,10.1 4.21,11.88c6.82,3.33 19.94,2.05 19.94,2.05a11.73,11.73 0 0 1 4.57,0.18c0.82,0.26 1.57,0.7 2.36,1c2.87,1.12 6.08,0.55 9.1,0a3.72,3.72 0 0 0 1.48,-0.5c1.17,-0.8 1.12,-2.7 0.25,-3.82a6.92,6.92 0 0 0 -3.65,-2a21.19,21.19 0 0 0 -11.81,-0.46a13.71,13.71 0 0 1 -1.52,0.42a10.07,10.07 0 0 1 -1.82,0.13l-4.64,0c-5.32,0.05 -10.34,0.07 -11.14,-6.26a34.72,34.72 0 0 1 -0.18,-7.06c0.32,-4.25 1.41,-8.46 1.18,-12.72a8.56,8.56 0 0 0 -1,-3.87a3.87,3.87 0 0 0 -3.2,-2.05a4,4 0 0 0 -3.29,2.24a8.91,8.91 0 0 0 -0.85,2.89z"/>
  <polygon id="svg_27" fill="#70a9a1" points="173.02000427246094,86.5999984741211 144.75999450683594,101.20999908447266 140.97999572753906,118.1199951171875 164.69000244140625,106.83999633789062 173.02000427246094,86.5999984741211 "/>
  <path id="svg_28" fill="#473f47" d="m134.91,41.18a1.92,1.92 0 0 0 -0.45,-0.45a1,1 0 0 0 0.59,-1c-0.06,-0.42 -0.36,-0.45 -0.66,-0.62s-0.14,-0.35 -0.35,-0.68a0.92,0.92 0 0 0 -0.61,-0.34l-2.12,-0.54c0,-0.27 0.07,-0.59 -0.13,-0.77s-0.77,0 -1.18,-0.1c-0.58,-0.09 -0.84,-0.77 -1.26,-1.19c-0.94,-0.93 -1.56,0 -2.41,0.15s-1.19,-0.76 -2.17,-0.89a5.42,5.42 0 0 0 -2.26,0.31a4.94,4.94 0 0 0 -2.16,1.1a5.41,5.41 0 0 0 -1,1.66a1.15,1.15 0 0 0 -1.6,0.22l-0.09,0.15c-0.19,0.41 -0.12,0.92 -0.39,1.27a3.11,3.11 0 0 0 -0.61,0a1.44,1.44 0 0 0 -0.55,0.28a1.52,1.52 0 0 0 -0.53,1.13a1.52,1.52 0 0 0 -0.94,0.07a3,3 0 0 0 0.33,-0.93a0.76,0.76 0 0 0 -0.16,-0.71c-0.2,-0.16 -0.59,0 -0.51,0.26a0.83,0.83 0 0 0 -0.44,-1.09l0,0a1.21,1.21 0 0 0 -1.22,0.28c-0.15,-0.14 0.11,-0.4 0.05,-0.6a0.46,0.46 0 0 0 -0.13,-0.18a3.3,3.3 0 0 0 -0.91,-0.61a1,1 0 0 0 -1,0.12c-0.12,-0.74 -0.76,-1.87 -1.68,-1.65c-0.27,0.06 -0.5,0.38 -0.36,0.63a3.4,3.4 0 0 0 -2.58,-1.1c-0.33,0 -0.78,0.27 -0.61,0.56a3.92,3.92 0 0 0 -3,-0.72a0.46,0.46 0 0 0 -0.44,0.28c-0.05,0.17 0.24,0.36 0.31,0.19a1.45,1.45 0 0 0 -1.39,0.58a1.55,1.55 0 0 0 0.06,2.11c0.61,0.5 1.77,0 1.61,-0.81a1.43,1.43 0 0 0 1.85,0.32a1.53,1.53 0 0 0 1.79,1.21a1.63,1.63 0 0 0 0.53,-0.21a2.09,2.09 0 0 0 1.6,1.56a6.19,6.19 0 0 0 2.35,0a1.69,1.69 0 0 1 -1.47,0.37a1.59,1.59 0 0 0 -0.75,0a2.33,2.33 0 0 0 -0.69,0.56a0.69,0.69 0 0 1 -0.13,0.11a1,1 0 0 1 -0.78,0a1.66,1.66 0 0 0 -1.08,0a0.84,0.84 0 0 0 -0.53,0.87a1.69,1.69 0 0 0 -2,1.32a1.67,1.67 0 0 0 0,0.5a1.09,1.09 0 0 0 -1.23,0.4a1.74,1.74 0 0 0 -0.24,0.58a4.93,4.93 0 0 0 -0.11,1.15a0.87,0.87 0 0 0 0.1,0.45a0.36,0.36 0 0 0 0.39,0.19a1.15,1.15 0 0 0 -0.28,0.89a0.83,0.83 0 0 0 0.2,0.34a1.18,1.18 0 0 0 0.63,0.42a0.74,0.74 0 0 0 0.71,-0.18c0.26,-0.25 0.26,-0.66 0.48,-1a0.6,0.6 0 0 0 0.18,0.58a0.84,0.84 0 0 0 0.61,0.18a0.35,0.35 0 0 0 0.17,-0.06a0.38,0.38 0 0 0 0.09,-0.15a2.22,2.22 0 0 0 0.07,-1.35a0.75,0.75 0 0 0 0.73,0.16a0.72,0.72 0 0 0 0.47,-0.58a2.94,2.94 0 0 1 0,-0.42c0,-0.2 0.3,-0.26 0.46,-0.37a5,5 0 0 0 0.63,-0.51c0.09,-0.09 1,-1.14 0.91,-1.21a1.12,1.12 0 0 0 1.48,-0.24a1.35,1.35 0 0 0 1.63,0.61a16.74,16.74 0 0 0 -2.8,2.45a5.47,5.47 0 0 0 -1.42,3.31a2.65,2.65 0 0 0 0.54,1.74a1.61,1.61 0 0 0 1.67,0.53a0.62,0.62 0 0 0 -0.82,-0.51a1.3,1.3 0 0 0 -0.73,0.81a1.66,1.66 0 0 0 0,1.41a0.88,0.88 0 0 0 1.18,0.39l0,0a2,2 0 0 0 0.45,-0.59a15.46,15.46 0 0 1 1.14,-1.15a1.17,1.17 0 0 0 0.16,-1.46c0.56,-0.27 0.54,-1.11 0.23,-1.65a9.32,9.32 0 0 1 -1,-1.55l2.08,0l1,-0.92a3.61,3.61 0 0 0 2.9,0.43a2.39,2.39 0 0 0 1.2,2.49c-0.17,0.13 -0.41,0.29 -0.38,0.54a0.43,0.43 0 0 0 0.33,0.33a1.29,1.29 0 0 0 0.48,0c0.07,0.15 -0.1,0.31 -0.08,0.48a0.4,0.4 0 0 0 0.16,0.24a1.71,1.71 0 0 0 0.63,0.32a0.33,0.33 0 0 0 0,0.4a0.7,0.7 0 0 0 0.33,0.26a3.51,3.51 0 0 0 1.05,0.35a1,1 0 0 0 0.06,0.6a0.43,0.43 0 0 0 0.49,0.27c0.09,0 0.17,-0.1 0.26,-0.08a0.28,0.28 0 0 1 0.14,0.1a1.83,1.83 0 0 1 0.37,0.65a1,1 0 0 0 0.13,0.32a0.78,0.78 0 0 0 0.36,0.26c0.19,0.07 0.42,0.13 0.57,0a0.39,0.39 0 0 0 0.08,-0.4a1.31,1.31 0 0 0 -0.21,-0.36a0.23,0.23 0 0 0 0.29,-0.08a0.47,0.47 0 0 0 0,-0.33a2.87,2.87 0 0 0 -0.48,-0.76a0.17,0.17 0 0 1 0,-0.14a0.17,0.17 0 0 1 0.09,-0.11c0.17,-0.19 0,-0.5 -0.1,-0.72s-0.33,-0.47 -0.22,-0.71a1.46,1.46 0 0 1 0.21,-0.28c0.11,-0.15 0.11,-0.42 0.25,-0.53a0.31,0.31 0 0 1 0.41,0.1c0.1,0.12 0.14,0.28 0.23,0.4a3.23,3.23 0 0 0 0.59,0.46c0.15,0.14 0.26,0.34 0.42,0.48a0.4,0.4 0 0 0 0.72,-0.21a0.82,0.82 0 0 0 -0.28,-0.72a1,1 0 0 1 -0.21,-0.19a0.19,0.19 0 0 1 0,-0.26a0.19,0.19 0 0 0 0.2,-0.1a0.17,0.17 0 0 0 0,-0.1a0.5,0.5 0 0 0 -0.13,-0.25s-0.08,-0.08 -0.07,-0.13a0.11,0.11 0 0 1 0,-0.08c0.1,-0.17 0.24,-0.32 0.33,-0.49a0.6,0.6 0 0 0 -0.22,-0.79a1,1 0 0 0 1.28,-0.18a3.15,3.15 0 0 0 0.66,-1.22a0.67,0.67 0 1 0 0.81,-1.07l-0.08,0a2.68,2.68 0 0 0 0.83,0.26a0.86,0.86 0 0 0 0.78,-0.31c0.25,-0.35 0.12,-0.9 0.45,-1.18a10.05,10.05 0 0 0 1.65,1.17a1.87,1.87 0 0 0 2.36,-1.19s0,0 0,-0.06a1.86,1.86 0 0 0 1.68,0.19a1.27,1.27 0 0 0 0.39,-1.49a1.26,1.26 0 0 0 1.11,-1.21a1.67,1.67 0 0 0 -0.32,-1.04z"/>
  <path id="svg_29" fill="#473f47" d="m162.89,168.8s1,2 7.76,0.86s9.94,-3.25 10.32,-4.44a2,2 0 0 1 -0.71,2.74l0,0c-1.69,1 -8.24,5.5 -16.22,2.74c0,0.04 -1,-0.24 -1.15,-1.9z"/>
  <path id="svg_30" fill="#c1a7a7" d="m120.22,49.67a0.71,0.71 0 0 0 -0.37,0.12a1.54,1.54 0 0 0 -0.68,1.49a2.85,2.85 0 0 0 0.74,1.55a1.81,1.81 0 0 0 0.6,0.5a2.66,2.66 0 0 0 1,0.2a0.9,0.9 0 0 0 0.4,0a0.85,0.85 0 0 0 0.44,-0.74a3.78,3.78 0 0 0 -0.45,-2.08a1.11,1.11 0 0 0 -0.49,-0.47a3,3 0 0 0 -1.19,-0.57z"/>
  <path id="svg_31" fill="#70a9a1" d="m113.18,42.02a10.2,10.2 0 0 0 -0.57,3.55a4.54,4.54 0 0 0 0.25,1.93a5.09,5.09 0 0 0 0.76,1.13a2,2 0 0 0 1.63,-0.61a0.87,0.87 0 0 0 0.22,-0.37c0.11,-0.38 -0.15,-0.74 -0.36,-1.08a4.87,4.87 0 0 1 -0.41,-3.7c0.17,-0.68 1.36,-2.5 -0.17,-2.21a1.93,1.93 0 0 0 -1.35,1.36z"/>
  <path id="svg_32" fill="#70a9a1" d="m134.02,189l-1,0a0.5,0.5 0 0 1 0,-1l1,0a0.5,0.5 0 1 1 0,1zm5,0a0.5,0.5 0 0 1 0,-1l1,0a0.5,0.5 0 1 1 0,1l-1,0zm-11,-0.12l-1,0a0.5,0.5 0 0 1 -0.48,-0.52l0,0a0.47,0.47 0 0 1 0.48,-0.48l1,0a0.5,0.5 0 0 1 0,1zm17,0a0.5,0.5 0 0 1 0,-1l1,0a0.52,0.52 0 0 1 0.52,0.48a0.5,0.5 0 0 1 -0.48,0.52l-1,0l-0.04,0zm-23,-0.26l0,0l-1,-0.06a0.5,0.5 0 0 1 -0.47,-0.53l0,0a0.47,0.47 0 0 1 0.49,-0.47l0,0l1,0.06a0.5,0.5 0 0 1 0,1l-0.02,0zm29,0a0.51,0.51 0 0 1 -0.5,-0.47a0.52,0.52 0 0 1 0.47,-0.53l1,-0.06a0.52,0.52 0 0 1 0.53,0.47a0.5,0.5 0 0 1 -0.47,0.53l0,0l-1,0.06l-0.03,0zm-35,-0.4l0,0l-1,-0.09a0.5,0.5 0 0 1 -0.46,-0.54l0,0a0.52,0.52 0 0 1 0.55,-0.45l1,0.08a0.5,0.5 0 0 1 0,1l-0.09,0zm41,0a0.5,0.5 0 0 1 0,-1l1,-0.08a0.51,0.51 0 0 1 0.54,0.45a0.49,0.49 0 0 1 -0.44,0.54l0,0l-1,0.09l-0.1,0zm-46.93,-0.55l-0.06,0l-1,-0.11a0.5,0.5 0 0 1 0.12,-1l1,0.11a0.5,0.5 0 0 1 0,1l-0.06,0zm52.9,0a0.5,0.5 0 1 1 0,-1l1,-0.11a0.5,0.5 0 0 1 0.55,0.42l0,0a0.5,0.5 0 0 1 -0.44,0.55l-1,0.11l-0.11,0.03zm-58.86,-0.7l-0.07,0l-1,-0.14a0.5,0.5 0 1 1 0.13,-1l1,0.14a0.49,0.49 0 0 1 0.43,0.54l0,0a0.52,0.52 0 0 1 -0.51,0.36l0.02,0.1zm64.82,0a0.5,0.5 0 0 1 -0.07,-1l1,-0.13a0.49,0.49 0 0 1 0.56,0.41l0,0a0.51,0.51 0 0 1 -0.42,0.57l0,0l-1,0.13l-0.07,0.02zm-70.76,-0.85l-0.08,0l-1,-0.16a0.51,0.51 0 1 1 0.17,-1l1,0.17a0.49,0.49 0 0 1 0.41,0.56l0,0a0.5,0.5 0 0 1 -0.52,0.32l0.02,0.11zm76.69,0a0.5,0.5 0 1 1 -0.08,-1l1,-0.17a0.5,0.5 0 0 1 0.57,0.41a0.5,0.5 0 0 1 -0.41,0.58l0,0l-1,0.16l-0.08,0.02zm-82.6,-1l-0.09,0l-1,-0.19a0.5,0.5 0 0 1 -0.39,-0.59l0,0a0.48,0.48 0 0 1 0.57,-0.39l0,0l1,0.19a0.5,0.5 0 0 1 0.39,0.59l0,0a0.49,0.49 0 0 1 -0.52,0.24l0.04,0.15zm88.51,0a0.49,0.49 0 0 1 -0.49,-0.4a0.51,0.51 0 0 1 0.4,-0.59l1,-0.19a0.5,0.5 0 0 1 0.58,0.4a0.47,0.47 0 0 1 -0.36,0.57l0,0l-1,0.2l-0.13,0.01zm-94.4,-1.32l-0.11,0l-1,-0.23a0.51,0.51 0 0 1 0.22,-1l1,0.22a0.5,0.5 0 0 1 0.38,0.6l0,0a0.49,0.49 0 0 1 -0.49,0.41zm100.22,-0.11a0.5,0.5 0 0 1 -0.55,-0.45a0.49,0.49 0 0 1 0.44,-0.55l0,0l1,-0.23a0.51,0.51 0 1 1 0.22,1l0,0l-1,0.22l-0.11,0.01zm-106.1,-1.35a0.24,0.24 0 0 1 -0.12,0l-1,-0.25a0.53,0.53 0 0 1 -0.38,-0.63a0.52,0.52 0 0 1 0.63,-0.37l1,0.26a0.5,0.5 0 0 1 0.36,0.61l0,0a0.5,0.5 0 0 1 -0.45,0.38l-0.04,0zm111.93,-0.06a0.5,0.5 0 1 1 -0.13,-1l1,-0.25a0.5,0.5 0 1 1 0.25,1l-1,0.25l-0.12,0zm-117.71,-1.55l-0.12,0l-1,-0.29a0.49,0.49 0 0 1 -0.34,-0.62a0.51,0.51 0 0 1 0.63,-0.33l1,0.28a0.5,0.5 0 0 1 -0.14,1l0,0l-0.03,-0.04zm123.49,-0.07a0.5,0.5 0 0 1 -0.48,-0.35a0.51,0.51 0 0 1 0.33,-0.63l1,-0.28a0.5,0.5 0 0 1 0.62,0.32l0,0a0.5,0.5 0 0 1 -0.33,0.62l-1,0.29l-0.1,0l-0.04,0.03zm-129.21,-1.75l-0.16,0l-1,-0.33a0.5,0.5 0 0 1 0.25,-1l0.08,0l0.94,0.32a0.5,0.5 0 0 1 0.31,0.63l0,0a0.49,0.49 0 0 1 -0.43,0.31l0.01,0.07zm135,-0.11a0.51,0.51 0 0 1 -0.16,-1l0.94,-0.32a0.48,0.48 0 0 1 0.63,0.28l0,0a0.51,0.51 0 0 1 -0.31,0.64l-1,0.33l-0.1,0.07zm-140.6,-2l-0.18,0l-0.93,-0.37a0.5,0.5 0 0 1 -0.29,-0.63l0,0a0.5,0.5 0 0 1 0.64,-0.28l0.93,0.37a0.5,0.5 0 0 1 0.29,0.64l0,0a0.51,0.51 0 0 1 -0.47,0.34l0.01,-0.07zm146.2,0a0.51,0.51 0 0 1 -0.47,-0.31a0.51,0.51 0 0 1 0.28,-0.65l0,0l0.92,-0.37a0.51,0.51 0 0 1 0.65,0.28a0.5,0.5 0 0 1 -0.28,0.65l0,0l-0.93,0.37a0.57,0.57 0 0 1 -0.17,0.03zm-151.74,-2.21a0.67,0.67 0 0 1 -0.2,0l-0.92,-0.41a0.49,0.49 0 0 1 -0.25,-0.65l0,0a0.5,0.5 0 0 1 0.66,-0.25l0.91,0.41a0.5,0.5 0 0 1 0.25,0.66a0.52,0.52 0 0 1 -0.46,0.22l0.01,0.02zm157.27,-0.1a0.49,0.49 0 0 1 -0.45,-0.3a0.49,0.49 0 0 1 0.23,-0.65l0,0l0.9,-0.41a0.51,0.51 0 0 1 0.67,0.23l0,0a0.52,0.52 0 0 1 -0.25,0.67l-0.91,0.41a0.5,0.5 0 0 1 -0.21,0l0.02,0.05zm-162.68,-2.5l-0.23,0l-0.89,-0.47a0.51,0.51 0 0 1 -0.2,-0.68l0,0a0.48,0.48 0 0 1 0.66,-0.2l0,0l0.88,0.46a0.45,0.45 0 0 1 -0.23,0.86l0.01,0.03zm168.09,-0.11a0.51,0.51 0 0 1 -0.61,-0.39a0.5,0.5 0 0 1 0.38,-0.61l0.88,-0.46a0.48,0.48 0 0 1 0.66,0.2l0,0a0.5,0.5 0 0 1 -0.19,0.67l0,0l-0.89,0.47a0.63,0.63 0 0 1 -0.23,0.08l0,0.04zm-173.33,-2.81a0.48,0.48 0 0 1 -0.26,-0.07l-0.85,-0.53a0.51,0.51 0 0 1 -0.11,-0.7a0.5,0.5 0 0 1 0.63,-0.15l0.85,0.52a0.5,0.5 0 0 1 0.17,0.69l0,0a0.49,0.49 0 0 1 -0.43,0.21l0,0.03zm178.56,-0.13a0.5,0.5 0 0 1 -0.43,-0.24a0.51,0.51 0 0 1 0.17,-0.69l0.85,-0.52a0.5,0.5 0 0 1 0.67,0.22a0.5,0.5 0 0 1 -0.15,0.63l-0.85,0.53a0.46,0.46 0 0 1 -0.26,0l0,0.07zm-183.57,-3.2a0.52,0.52 0 0 1 -0.29,-0.09l-0.81,-0.6a0.5,0.5 0 0 1 0.5,-0.86l0.09,0.06l0.8,0.59a0.49,0.49 0 0 1 0.13,0.68l0,0a0.51,0.51 0 0 1 -0.42,0.22zm188.57,-0.14a0.5,0.5 0 0 1 -0.3,-0.91l0.8,-0.59a0.51,0.51 0 0 1 0.7,0.1a0.5,0.5 0 0 1 -0.1,0.7c-0.26,0.2 -0.54,0.41 -0.81,0.6a0.43,0.43 0 0 1 -0.29,0.1zm-193.26,-3.59a0.57,0.57 0 0 1 -0.33,-0.13l-0.75,-0.68a0.5,0.5 0 0 1 0,-0.7a0.5,0.5 0 0 1 0.71,0l0,0l0.74,0.66a0.5,0.5 0 0 1 0.06,0.7a0.52,0.52 0 0 1 -0.4,0.18l-0.03,-0.03zm197.93,-0.21a0.48,0.48 0 0 1 -0.37,-0.17a0.49,0.49 0 0 1 0,-0.69l0,0l0.73,-0.67a0.5,0.5 0 0 1 0.71,0a0.49,0.49 0 0 1 0,0.7l-0.05,0.05c-0.24,0.23 -0.49,0.46 -0.75,0.68a0.46,0.46 0 0 1 -0.27,0.1zm-202.15,-4a0.52,0.52 0 0 1 -0.38,-0.17l-0.65,-0.78a0.48,0.48 0 0 1 0,-0.69l0,0a0.52,0.52 0 0 1 0.71,0.07l0.64,0.75a0.51,0.51 0 0 1 0,0.71a0.53,0.53 0 0 1 -0.32,0.11zm206.31,-0.23a0.5,0.5 0 0 1 -0.5,-0.5a0.6,0.6 0 0 1 0.12,-0.32l0.64,-0.76a0.49,0.49 0 0 1 0.69,-0.08l0,0a0.49,0.49 0 0 1 0.08,0.69l0,0l-0.65,0.78a0.5,0.5 0 0 1 -0.38,0.19zm-209.89,-4.64a0.5,0.5 0 0 1 -0.43,-0.24l-0.51,-0.88a0.5,0.5 0 0 1 0.23,-0.67a0.49,0.49 0 0 1 0.64,0.18c0.16,0.29 0.33,0.57 0.5,0.86a0.5,0.5 0 0 1 -0.17,0.68a0.57,0.57 0 0 1 -0.22,0.07l-0.04,0zm213.4,-0.21a0.48,0.48 0 0 1 -0.26,-0.07a0.5,0.5 0 0 1 -0.17,-0.68c0.16,-0.29 0.33,-0.57 0.48,-0.86a0.5,0.5 0 1 1 0.88,0.48c-0.16,0.3 -0.33,0.59 -0.5,0.88a0.52,0.52 0 0 1 -0.39,0.25l-0.04,0zm-215.92,-5.2a0.5,0.5 0 0 1 -0.48,-0.34c-0.11,-0.33 -0.21,-0.65 -0.3,-1a0.53,0.53 0 0 1 0.37,-0.64a0.52,0.52 0 0 1 0.63,0.37c0.09,0.31 0.19,0.62 0.29,0.93a0.49,0.49 0 0 1 -0.3,0.62l0,0a0.44,0.44 0 0 1 -0.15,0.05l-0.06,0.01zm218.41,-0.24l-0.15,0a0.5,0.5 0 0 1 -0.33,-0.61l0,0c0.09,-0.31 0.19,-0.62 0.27,-0.94a0.52,0.52 0 0 1 0.63,-0.37a0.53,0.53 0 0 1 0.37,0.64l0,0l-0.29,1a0.5,0.5 0 0 1 -0.5,0.28zm-219.51,-5.61a0.5,0.5 0 0 1 -0.5,-0.48l0,-1a0.51,0.51 0 0 1 0.49,-0.5l0,0a0.51,0.51 0 0 1 0.5,0.49l0,1a0.49,0.49 0 0 1 -0.46,0.52l0,0l-0.03,-0.03zm220.6,-0.25l0,0a0.51,0.51 0 0 1 -0.48,-0.53l0,-1a0.5,0.5 0 0 1 1,0l0,1a0.5,0.5 0 0 1 -0.47,0.53l-0.05,0zm0,-2.49a0.51,0.51 0 0 1 -0.5,-0.47a9,9 0 0 0 -0.09,-1a0.51,0.51 0 0 1 0.45,-0.56a0.5,0.5 0 0 1 0.55,0.45c0,0.33 0.07,0.67 0.09,1a0.5,0.5 0 0 1 -0.46,0.54l0,0l-0.04,0.04zm-220.09,-3.21l-0.11,0a0.48,0.48 0 0 1 -0.38,-0.58l0,0c0.07,-0.34 0.15,-0.67 0.24,-1a0.49,0.49 0 0 1 0.6,-0.35l0,0a0.5,0.5 0 0 1 0.35,0.61c-0.08,0.31 -0.16,0.63 -0.23,0.95a0.49,0.49 0 0 1 -0.47,0.37zm218.89,-2.63a0.52,0.52 0 0 1 -0.47,-0.34c-0.1,-0.31 -0.22,-0.62 -0.33,-0.92a0.5,0.5 0 0 1 0.28,-0.65l0,0a0.5,0.5 0 0 1 0.65,0.29c0.12,0.31 0.24,0.63 0.35,1a0.5,0.5 0 0 1 -0.3,0.64l0,0a0.44,0.44 0 0 1 -0.2,0l0.02,-0.02zm-216.91,-3a0.41,0.41 0 0 1 -0.22,0a0.49,0.49 0 0 1 -0.23,-0.65l0,0c0.14,-0.3 0.3,-0.6 0.46,-0.9a0.49,0.49 0 0 1 0.67,-0.21l0,0a0.51,0.51 0 0 1 0.2,0.68l-0.45,0.87a0.48,0.48 0 0 1 -0.43,0.23l0,-0.02zm214.34,-2.4a0.48,0.48 0 0 1 -0.42,-0.23c-0.17,-0.28 -0.35,-0.56 -0.53,-0.83a0.51,0.51 0 0 1 0.14,-0.7a0.5,0.5 0 0 1 0.69,0.15c0.19,0.28 0.37,0.57 0.55,0.85a0.5,0.5 0 0 1 -0.17,0.69l0,0a0.5,0.5 0 0 1 -0.29,0.07l0.03,0zm-211.18,-2.67a0.48,0.48 0 0 1 -0.3,-0.11a0.49,0.49 0 0 1 -0.1,-0.69l0,0l0.62,-0.79a0.5,0.5 0 0 1 0.71,0a0.51,0.51 0 0 1 0.07,0.64l-0.61,0.78a0.51,0.51 0 0 1 -0.43,0.2l0.04,-0.03zm207.61,-2.13a0.52,0.52 0 0 1 -0.38,-0.17c-0.21,-0.24 -0.43,-0.49 -0.66,-0.73a0.5,0.5 0 0 1 0.74,-0.68l0,0l0.67,0.75a0.5,0.5 0 0 1 0,0.71l0,0a0.53,0.53 0 0 1 -0.4,0.12l0.03,0zm-203.63,-2.36a0.5,0.5 0 0 1 -0.37,-0.84l0,0c0.23,-0.24 0.48,-0.47 0.72,-0.7a0.5,0.5 0 0 1 0.71,0l0,0a0.49,0.49 0 0 1 0,0.69l0,0l-0.71,0.69a0.48,0.48 0 0 1 -0.39,0.16l0.04,0zm199.38,-1.86a0.51,0.51 0 0 1 -0.33,-0.13l-0.75,-0.64a0.51,0.51 0 0 1 -0.06,-0.71a0.52,0.52 0 0 1 0.71,-0.06l0.76,0.66a0.51,0.51 0 0 1 0.05,0.71a0.49,0.49 0 0 1 -0.41,0.17l0.03,0zm-194.9,-2.08a0.51,0.51 0 0 1 -0.49,-0.51a0.54,0.54 0 0 1 0.19,-0.38l0.79,-0.62a0.52,0.52 0 0 1 0.71,0.1a0.51,0.51 0 0 1 -0.1,0.7l-0.79,0.61a0.5,0.5 0 0 1 -0.31,0.1zm190.17,-1.64a0.5,0.5 0 0 1 -0.29,-0.09l-0.82,-0.57a0.5,0.5 0 0 1 0.57,-0.83l0.83,0.58a0.51,0.51 0 0 1 0.11,0.7a0.49,0.49 0 0 1 -0.4,0.21zm-185.28,-1.83a0.5,0.5 0 0 1 -0.28,-0.91l0,0l0.85,-0.54a0.5,0.5 0 1 1 0.53,0.85l-0.83,0.53a0.54,0.54 0 0 1 -0.28,0.08l0.01,-0.01zm180.25,-1.45a0.45,0.45 0 0 1 -0.25,-0.07l-0.86,-0.51a0.49,0.49 0 0 1 -0.19,-0.67l0,0a0.51,0.51 0 0 1 0.69,-0.18l0.86,0.51a0.48,0.48 0 0 1 0.18,0.67l0,0a0.5,0.5 0 0 1 -0.43,0.25zm-175.09,-1.62a0.5,0.5 0 0 1 -0.24,-0.94l0,0l0.88,-0.48a0.5,0.5 0 1 1 0.47,0.89l0,0l-0.87,0.47a0.5,0.5 0 0 1 -0.24,0.06zm169.85,-1.25a0.46,0.46 0 0 1 -0.23,-0.05l-0.89,-0.45a0.49,0.49 0 0 1 -0.23,-0.65l0,0a0.5,0.5 0 0 1 0.67,-0.23l0,0l0.9,0.46a0.5,0.5 0 0 1 0.2,0.68a0.48,0.48 0 0 1 -0.43,0.26l0.01,-0.02zm-164.5,-1.48a0.5,0.5 0 0 1 -0.45,-0.28a0.51,0.51 0 0 1 0.23,-0.67l0,0l0.91,-0.42a0.5,0.5 0 0 1 0.42,0.9l-0.9,0.43a0.54,0.54 0 0 1 -0.21,0.04zm159.09,-1.14a0.34,0.34 0 0 1 -0.2,0l-0.89,-0.38a0.5,0.5 0 0 1 0.39,-0.92l0.92,0.4a0.51,0.51 0 0 1 -0.2,1l-0.02,-0.1zm-153.6,-1.28a0.51,0.51 0 0 1 -0.46,-0.31a0.51,0.51 0 0 1 0.27,-0.65l0.93,-0.38a0.5,0.5 0 0 1 0.65,0.28a0.49,0.49 0 0 1 -0.27,0.65l-0.93,0.37a0.45,0.45 0 0 1 -0.2,0l0.01,0.04zm148.06,-1l-0.18,0l-0.93,-0.36a0.5,0.5 0 0 1 0.24,-1l0.11,0l0.94,0.36a0.5,0.5 0 0 1 0.28,0.64a0.47,0.47 0 0 1 -0.47,0.27l0.01,0.09zm-142.47,-1.1a0.54,0.54 0 0 1 -0.47,-0.33a0.5,0.5 0 0 1 0.3,-0.64l1,-0.34a0.5,0.5 0 0 1 0.64,0.3l0,0a0.5,0.5 0 0 1 -0.31,0.63l-0.94,0.34a0.42,0.42 0 0 1 -0.22,0.04zm136.81,-1l-0.16,0l-0.94,-0.32a0.5,0.5 0 0 1 0.31,-1l0.95,0.32a0.5,0.5 0 0 1 0.33,0.61l0,0a0.5,0.5 0 0 1 -0.49,0.39zm-131.12,-1a0.5,0.5 0 0 1 -0.57,-0.43a0.49,0.49 0 0 1 0.42,-0.57l1,-0.3a0.5,0.5 0 0 1 0.62,0.33a0.48,0.48 0 0 1 -0.3,0.61l0,0l-1,0.3a0.34,0.34 0 0 1 -0.14,0.05l-0.03,0.01zm125.4,-0.8a0.33,0.33 0 0 1 -0.14,0l-1,-0.28a0.52,0.52 0 0 1 0.28,-1l1,0.28a0.49,0.49 0 0 1 0.34,0.62a0.48,0.48 0 0 1 -0.48,0.41l0,-0.03zm-119.64,-0.89a0.49,0.49 0 0 1 -0.56,-0.43a0.5,0.5 0 0 1 0.43,-0.57l1,-0.26a0.52,0.52 0 0 1 0.26,1l-1,0.26a0.28,0.28 0 0 1 -0.13,0zm113.86,-0.7l-0.13,0l-1,-0.25a0.5,0.5 0 0 1 -0.37,-0.6a0.51,0.51 0 0 1 0.61,-0.37l1,0.25a0.5,0.5 0 1 1 -0.12,1l0.01,-0.03zm-108,-0.79a0.5,0.5 0 0 1 -0.11,-1l1,-0.23a0.5,0.5 0 0 1 0.25,1l0,0l-1,0.23l-0.14,0zm102.21,-0.62l-0.11,0l-1,-0.21a0.5,0.5 0 0 1 -0.38,-0.6l0,0a0.48,0.48 0 0 1 0.58,-0.38l0,0l1,0.22a0.5,0.5 0 0 1 0.45,0.55a0.51,0.51 0 0 1 -0.56,0.45l0.02,-0.03zm-96.35,-0.68a0.5,0.5 0 0 1 -0.49,-0.39a0.52,0.52 0 0 1 0.39,-0.6l1,-0.2a0.51,0.51 0 0 1 0.59,0.4a0.5,0.5 0 0 1 -0.39,0.59l0,0l-1,0.19l-0.1,0.01zm90.48,-0.53l-0.1,0l-1,-0.18a0.51,0.51 0 0 1 -0.4,-0.59a0.5,0.5 0 0 1 0.58,-0.4l1,0.19a0.5,0.5 0 0 1 0.4,0.58a0.52,0.52 0 0 1 -0.53,0.41l0.05,-0.01zm-84.58,-0.59a0.5,0.5 0 0 1 -0.09,-1l1,-0.17a0.5,0.5 0 1 1 0.17,1l-1,0.17l-0.08,0zm78.67,-0.45l-0.08,0l-1,-0.16a0.51,0.51 0 0 1 -0.42,-0.57l0,0a0.51,0.51 0 0 1 0.58,-0.41l1,0.15a0.51,0.51 0 0 1 0.41,0.58a0.5,0.5 0 0 1 -0.54,0.46l0,0l0.05,-0.05zm-72.75,-0.5a0.49,0.49 0 0 1 -0.53,-0.46a0.5,0.5 0 0 1 0.46,-0.54l1,-0.14a0.51,0.51 0 0 1 0.57,0.42l0,0a0.51,0.51 0 0 1 -0.43,0.57l-1,0.14l-0.07,0.01zm66.81,-0.38l-0.07,0l-1,-0.13a0.5,0.5 0 0 1 -0.43,-0.56a0.49,0.49 0 0 1 0.54,-0.43l0,0l1,0.13a0.49,0.49 0 0 1 0.43,0.54l0,0a0.5,0.5 0 0 1 -0.54,0.46l0,0l0.07,-0.01zm-6,-0.71l0,0l-1,-0.11a0.5,0.5 0 0 1 -0.44,-0.55a0.52,0.52 0 0 1 0.55,-0.44l1,0.1a0.5,0.5 0 0 1 0,1l-0.11,0zm-6,-0.56l0,0l-1,-0.08a0.5,0.5 0 0 1 -0.46,-0.54l0,0a0.52,0.52 0 0 1 0.54,-0.46l1,0.08a0.49,0.49 0 0 1 0.46,0.52l0,0a0.5,0.5 0 0 1 -0.51,0.49l0,0l-0.03,-0.01zm-6,-0.41l-1,0a0.5,0.5 0 0 1 0.06,-1l1,0.06a0.49,0.49 0 1 1 0,1l-0.06,-0.06zm-6,-0.27l-1,0a0.5,0.5 0 0 1 -0.49,-0.51l0,0a0.5,0.5 0 0 1 0.52,-0.49l1,0a0.5,0.5 0 0 1 0,1l-0.03,0zm-6,-0.12l-1,0a0.5,0.5 0 0 1 -0.5,-0.5a0.52,0.52 0 0 1 0.5,-0.5l1,0a0.5,0.5 0 0 1 0.49,0.51l0,0a0.49,0.49 0 0 1 -0.46,0.49l-0.03,0z"/>
  <circle id="svg_33" fill="#fff" r="19.53" cy="133.61" cx="23.18"/>
  <path id="svg_34" fill="#70a9a1" d="m20.96,131.14l11.82,0l0,4.58l-11.8,0l0,3.47l5.63,0l0,2.61l-5.65,0l0,4l-5.18,0l0,-4l-2.43,0l0,-2.65l2.39,0l0,-17.76l17.27,0l0,4.56l-11.54,0c-0.44,0 -0.58,0.09 -0.57,0.57l0,4l0.06,0.62z"/>
  <circle id="svg_35" fill="#fff" r="19.53" cy="89.23" cx="75.62"/>
  <path id="svg_36" fill="#70a9a1" d="m88.4,82.26l-4.61,2.27c-1.71,-2.71 -4.08,-4.07 -7.33,-3.59a7.62,7.62 0 0 0 -5.78,4.09l9.34,0l0,2.87l-10.25,0l0,2.49l10.26,0l0,2.93l-9.42,0a7.45,7.45 0 0 0 5.69,4.17a6.83,6.83 0 0 0 7.44,-3.58l4.71,2.28c-0.57,0.77 -1.05,1.52 -1.63,2.2a11.43,11.43 0 0 1 -8.82,4.06a14.36,14.36 0 0 1 -7.66,-1.91a12,12 0 0 1 -5.44,-6.55c-0.18,-0.5 -0.4,-0.76 -1,-0.68a8.15,8.15 0 0 1 -1.21,0l0,-2.9l1.33,0l0,-2.49l-1.33,0l0,-2.88l1.52,0a0.5,0.5 0 0 0 0.59,-0.37l0,0a11.69,11.69 0 0 1 3.47,-5.27a13,13 0 0 1 5.4,-2.87a15,15 0 0 1 6.15,-0.35a11,11 0 0 1 7.44,4.43c0.35,0.46 0.66,1 1,1.44a1.09,1.09 0 0 1 0.14,0.21z"/>
  <circle id="svg_37" fill="#fff" r="19.53" cy="91.95" cx="199.71"/>
  <path id="svg_38" fill="#70a9a1" d="m192.52,104.91l-1.82,-3.66c0.46,-0.27 0.93,-0.51 1.37,-0.8a6,6 0 0 0 2.68,-3.14a3.86,3.86 0 0 0 -0.3,-2.75c0,-0.1 -0.27,-0.17 -0.42,-0.17l-4.16,0l0,-3.12l2.45,0c-0.4,-0.73 -0.82,-1.41 -1.14,-2.14a6.35,6.35 0 0 1 0.6,-6.26a8.85,8.85 0 0 1 5.93,-3.87a11.86,11.86 0 0 1 7.71,0.89a7.84,7.84 0 0 1 3.45,3.48l-4.26,2.43a14.38,14.38 0 0 0 -1.11,-1.46a4.06,4.06 0 0 0 -4.1,-1a3.59,3.59 0 0 0 -2.79,4.24a3.45,3.45 0 0 0 0.3,0.87a18.29,18.29 0 0 0 1.44,2.6a0.66,0.66 0 0 0 0.51,0.21l5.1,0l0,3.11l-4.3,0a5.16,5.16 0 0 1 -2.16,4.84l0.74,-0.09a7.13,7.13 0 0 1 4,0.8a4.42,4.42 0 0 0 4.61,-0.47a4.18,4.18 0 0 0 0.53,-0.5c0.72,1.43 1.42,2.84 2.14,4.29a5.36,5.36 0 0 1 -2.41,1.46a9.94,9.94 0 0 1 -6.15,0a17.89,17.89 0 0 1 -1.71,-0.68a5.87,5.87 0 0 0 -4.95,0.09l-1.78,0.8z"/>
  <circle id="svg_39" fill="#fff" r="19.53" cy="160.22" cx="235.2"/>
  <path id="svg_40" fill="#70a9a1" d="m235.23,157.94l1.29,-2.1c1.38,-2.26 2.77,-4.52 4.14,-6.79a0.74,0.74 0 0 1 0.74,-0.42l5.21,0c-2.38,3.67 -4.7,7.27 -7.08,10.93l6.08,0l0,2.78l-7.91,0l0,2.75l7.91,0l0,2.71l-7.9,0l0,4l-4.92,0l0,-4l-7.89,0l0,-2.72l7.84,0l0,-2.75l-7.85,0l0,-2.77l6.07,0l-7.12,-11l5.23,0a0.58,0.58 0 0 1 0.58,0.3q1.71,2.81 3.44,5.6l2.14,3.48z"/>
  <circle id="svg_41" fill="#fff" r="19.53" cy="180.37" cx="75.15"/>
  <path id="svg_42" fill="#70a9a1" d="m73.52,167.8l0,-3.3l3.85,0l0,3.39a13.36,13.36 0 0 1 7.42,3.41l-3.12,4.12a9.85,9.85 0 0 0 -4.26,-2.36l0,4.54c1,0.34 2,0.62 2.93,1a6.69,6.69 0 0 1 4.79,7.92a7,7 0 0 1 -3.31,5a10,10 0 0 1 -4,1.37c-0.38,0 -0.45,0.19 -0.44,0.53l0,2.79l-3.86,0l0,-3.13c-1,-0.21 -1.95,-0.38 -2.88,-0.63a11.65,11.65 0 0 1 -5.12,-2.82c-0.61,-0.56 -0.6,-0.58 -0.12,-1.26c0.83,-1.19 1.67,-2.37 2.55,-3.61a10.46,10.46 0 0 0 5.55,3.2l0,-5.16c-1.1,-0.37 -2.17,-0.67 -3.2,-1.09a6.7,6.7 0 0 1 -4.12,-3.79a6.87,6.87 0 0 1 0.2,-5.48a8.08,8.08 0 0 1 5.68,-4.3c0.46,-0.14 0.92,-0.21 1.46,-0.34zm3.88,20.09a2.45,2.45 0 0 0 2.19,-2.28c0,-0.86 -1,-1.57 -2.19,-1.81l0,4.09zm-3.93,-11.32l0,-3.77a2.1,2.1 0 0 0 -2.05,2c0,0.81 0.88,1.56 2.05,1.76l0,0.01z"/>
 </g>
</svg>