<svg width="202" height="190" viewBox="0 0 202 190" fill="none" xmlns="http://www.w3.org/2000/svg">
<path d="M98.6768 80.6822L105.898 57.1412C106.829 52.6301 107.238 47.3098 107.752 42.7186C108.007 41.2191 107.994 39.6862 107.711 38.1914C107.246 36.2444 105.938 34.1371 106.981 32.4224C108.024 30.7077 110.921 30.9881 112.694 32.174C115.141 33.7765 116.778 37.4463 114.837 39.6577C114.233 40.175 113.667 40.7346 113.144 41.3324C112.478 42.358 112.662 43.7361 112.791 44.914C113.384 50.5228 112.213 56.1316 111.057 61.7404L107.848 77.0765C107.046 80.8104 105.81 85.0891 102.231 86.4753C101.97 86.6025 101.686 86.6739 101.396 86.6849C101.105 86.6959 100.816 86.6464 100.546 86.5394C100.225 86.3559 99.9505 86.1009 99.7439 85.7942C98.9175 84.4881 98.765 82.2446 98.6768 80.6822Z" fill="#C1A7A7"/>
<path d="M98.6768 80.6822L105.898 57.1412C106.829 52.6301 107.238 47.3098 107.752 42.7186C108.007 41.2191 107.994 39.6862 107.711 38.1914C107.246 36.2444 105.938 34.1371 106.981 32.4224C108.024 30.7077 110.921 30.9881 112.694 32.174C115.141 33.7765 116.778 37.4463 114.837 39.6577C114.233 40.175 113.667 40.7346 113.144 41.3324C112.478 42.358 112.662 43.7361 112.791 44.914C113.384 50.5228 112.213 56.1316 111.057 61.7404L107.848 77.0765C107.046 80.8104 105.81 85.0891 102.231 86.4753C101.97 86.6025 101.686 86.6739 101.396 86.6849C101.105 86.6959 100.816 86.6464 100.546 86.5394C100.225 86.3559 99.9505 86.1009 99.7439 85.7942C98.9175 84.4881 98.765 82.2446 98.6768 80.6822Z" fill="url(#paint0_linear)" fill-opacity="0.2"/>
<path d="M140.239 140.688C140.308 145.199 139.487 149.678 137.822 153.872C136.158 158.065 133.682 161.89 130.537 165.128C127.392 168.366 123.639 170.954 119.493 172.744C115.347 174.533 110.888 175.49 106.371 175.559C101.854 175.628 97.3683 174.808 93.1691 173.145C88.9698 171.483 85.1396 169.011 81.897 165.87C78.6544 162.73 76.0631 158.982 74.2708 154.842C72.4786 150.701 71.5207 146.248 71.4517 141.738C71.4517 141.385 71.4517 141.041 71.4517 140.688C71.4342 139.811 71.469 138.933 71.556 138.06C72.2216 129.194 76.3045 120.931 82.9459 115.01C89.5873 109.089 98.2695 105.97 107.166 106.311C116.063 106.651 124.481 110.424 130.649 116.835C136.817 123.247 140.255 131.797 140.239 140.688Z" fill="#40798C"/>
<path opacity="0.14" d="M91.3912 156.289C90.2518 161.257 91.64 166.545 90.5888 171.513C82.6429 167.594 76.5159 160.766 73.4822 152.451C73.3136 150.743 73.354 149.021 73.6026 147.323C73.8353 145.496 74.1722 143.605 73.6587 141.834C73.1617 140.474 72.4403 139.207 71.5244 138.084C71.9045 133.063 73.3886 128.187 75.8711 123.804C78.3536 119.42 81.7734 115.637 85.8869 112.724C85.9271 112.955 85.9271 113.191 85.8869 113.422L84.4106 119.96C84.7075 121.898 84.7075 123.871 84.4106 125.809C84.2531 126.778 83.8839 127.7 83.3292 128.51C82.7745 129.32 82.0479 129.998 81.2011 130.496C80.5666 130.76 79.9502 131.066 79.3556 131.41C78.7805 131.872 78.3031 132.444 77.9514 133.092C76.9983 134.415 76.2891 135.896 75.8572 137.467C75.6444 138.252 75.6321 139.078 75.8213 139.869C76.0106 140.66 76.3953 141.39 76.9404 141.994L86.5689 140.136C87.5719 139.943 88.7835 139.807 89.4735 140.56C90.2759 141.458 89.7784 142.9 89.963 144.11C90.1877 145.656 91.5677 146.77 92.2096 148.212C93.3731 150.72 92.0171 153.581 91.3912 156.289Z" fill="#020202"/>
<path opacity="0.14" d="M82.6615 116.611C81.2894 118.213 79.8692 119.92 79.452 121.979C79.322 122.421 79.322 122.891 79.452 123.333C79.6367 123.682 79.8929 123.988 80.204 124.231C80.5151 124.474 80.874 124.648 81.2573 124.743C84.5186 125.994 87.9955 126.587 91.4876 126.49C91.287 128.453 91.1987 130.729 92.635 132.099C93.1781 132.572 93.8074 132.937 94.4885 133.173C96.6508 134.023 98.939 134.51 101.261 134.615C103.202 134.703 105.168 134.511 107.11 134.727C109.507 134.989 111.8 135.849 113.778 137.227C114.285 137.533 114.703 137.967 114.989 138.485C115.199 139.045 115.284 139.644 115.238 140.24C115.252 142.348 115.521 144.446 116.04 146.489C116.562 148.477 117.404 150.496 119.073 151.706C119.957 152.274 120.919 152.709 121.93 152.996L128.79 155.335C128.956 155.411 129.143 155.428 129.32 155.383C129.488 155.293 129.619 155.145 129.689 154.967C130.451 153.476 131.205 151.826 130.892 150.159C130.579 148.493 129.287 147.283 128.686 145.752C127.699 143.349 128.469 140.496 127.659 138.012C127.081 136.507 126.168 135.153 124.987 134.054C123.003 132.1 120.894 130.277 118.672 128.597C115.142 125.809 111.563 122.989 107.439 121.13C105.786 120.376 103.94 119.695 102.986 118.157C101.838 116.306 102.336 113.766 101.1 111.971C100.089 110.513 98.1874 109.952 96.4142 109.856C93.4792 109.768 90.5722 110.447 87.9812 111.827C85.6463 113.005 84.3625 114.615 82.6615 116.611Z" fill="#020202"/>
<path opacity="0.14" d="M140.24 140.688C140.246 145.883 139.07 151.011 136.8 155.684C134.53 160.358 131.226 164.456 127.137 167.667C126.663 167.356 126.256 166.953 125.941 166.481C124.914 164.926 125.251 162.475 126.912 161.593C126.335 161.898 124.064 161.153 123.382 161.048L119.843 160.503C118.15 160.239 115.19 160.351 114.227 158.645C114.118 158.408 113.986 158.183 113.834 157.972C113.623 157.757 113.372 157.586 113.095 157.467C112.028 156.946 110.785 156.361 110.528 155.199C110.351 154.35 110.776 153.388 110.335 152.635C110.199 152.403 109.99 152.218 109.854 151.986C109.705 151.636 109.649 151.254 109.691 150.877C109.734 150.499 109.872 150.139 110.094 149.831C111.587 147.227 114.676 145.961 117.645 145.464C120.614 144.967 123.679 145.039 126.567 144.206C128.389 143.677 130.122 142.796 131.999 142.539C133.034 142.395 134.334 142.283 134.711 141.313C134.92 140.76 134.711 140.119 134.928 139.567C135.016 139.326 135.177 139.118 135.265 138.878C135.323 138.7 135.344 138.513 135.33 138.328C135.315 138.142 135.263 137.961 135.178 137.795C135.094 137.629 134.977 137.481 134.835 137.36C134.692 137.24 134.528 137.148 134.35 137.091C134.261 137.064 134.17 137.046 134.077 137.035C134.318 136.394 134.511 135.568 134.005 135.112C133.827 134.981 133.621 134.896 133.403 134.863C133.185 134.829 132.962 134.849 132.754 134.919C131.518 135.224 130.627 136.265 129.592 137.003C126.158 139.406 121.448 138.605 118.584 135.705C118.119 135.295 117.787 134.757 117.629 134.158C117.584 133.647 117.7 133.135 117.96 132.692C118.22 132.25 118.612 131.9 119.081 131.69C120.021 131.289 121.036 131.09 122.058 131.105C121.681 128.613 121.256 126.113 120.91 123.63C115.198 125.16 112.887 119.719 112.084 115.2C111.282 110.681 114.491 109.063 118.632 108.79C125.012 111.343 130.48 115.747 134.332 121.432C138.183 127.117 140.241 133.824 140.24 140.688Z" fill="#020202"/>
<path d="M114.925 155.928C114.925 157.819 117.982 159.606 119.474 160.047C120.098 160.176 120.706 160.372 121.288 160.632C121.574 160.773 121.815 160.993 121.983 161.265C122.15 161.537 122.237 161.851 122.234 162.17C122.17 162.723 121.721 163.172 121.601 163.708C121.535 164.18 121.593 164.66 121.769 165.103C122.339 166.937 124.601 168.075 125.155 169.91C128.284 169.598 129.697 169.862 132.794 169.341L135.377 167.691C134.078 165.287 132.786 162.835 131.478 160.399C130.98 159.367 130.364 158.396 129.64 157.507C128.786 156.624 127.821 155.856 126.768 155.223C124.05 153.458 121.223 151.869 118.303 150.464C118.696 150.688 114.925 155.439 114.925 155.928Z" fill="url(#paint1_linear)"/>
<path d="M116.754 147.347C116.433 148.388 116.144 149.614 116.754 150.488C117.052 150.855 117.446 151.133 117.893 151.289C118.413 151.543 118.995 151.646 119.571 151.585C120.148 151.524 120.695 151.302 121.151 150.944C121.631 150.415 121.971 149.773 122.137 149.078C122.948 146.535 123.534 143.926 123.887 141.281C123.951 141.04 123.951 140.786 123.887 140.544C123.75 140.289 123.533 140.086 123.269 139.967C121.881 139.222 119.706 138.621 118.928 140.28C117.909 142.451 117.444 145.079 116.754 147.347Z" fill="#C1A7A7"/>
<path d="M120.934 148.557C121.231 148.517 121.533 148.548 121.817 148.645C122.008 148.75 122.175 148.895 122.306 149.07L125.307 152.499C125.893 153.164 126.51 154.101 126.109 154.855C125.969 155.077 125.779 155.265 125.556 155.404C125.332 155.542 125.079 155.629 124.817 155.656C123.363 155.803 121.896 155.525 120.597 154.855C119.666 154.446 118.759 154.005 117.861 153.525C117.19 153.217 116.606 152.749 116.16 152.162C115.478 151.105 115.269 148.557 116.497 147.763C117.107 147.371 117.644 147.651 118.238 147.932C119.073 148.354 119.998 148.568 120.934 148.557Z" fill="#ABABAB"/>
<path d="M133.419 159.013C133.442 159.208 133.42 159.405 133.355 159.59C133.251 159.772 133.102 159.924 132.922 160.031C132.349 160.427 131.676 160.654 130.98 160.688C130.635 160.704 130.291 160.639 129.975 160.5C129.659 160.361 129.38 160.151 129.159 159.887C128.838 159.37 128.645 158.785 128.597 158.18C128.343 156.876 128.217 155.55 128.22 154.222C128.202 154.144 128.202 154.063 128.219 153.985C128.236 153.907 128.271 153.834 128.32 153.771C128.369 153.708 128.432 153.657 128.503 153.621C128.575 153.585 128.653 153.566 128.733 153.565C129.816 153.332 131.943 152.763 132.52 154.101C133.075 155.682 133.378 157.339 133.419 159.013V159.013Z" fill="#C1A7A7"/>
<path d="M138.001 158.877C138.928 158.923 139.844 159.102 140.721 159.406C141.163 159.56 141.568 159.804 141.911 160.121C142.255 160.438 142.53 160.822 142.719 161.249C142.894 161.674 142.914 162.148 142.775 162.587C142.477 163.225 141.95 163.728 141.299 163.997C138.209 165.673 134.706 166.439 131.197 166.208C130.294 166.239 129.415 165.914 128.75 165.303C128.258 164.569 128.029 163.691 128.1 162.811L127.979 158.661C128.782 158.54 129.48 159.053 130.226 159.31C131.518 159.75 132.023 158.693 133.091 158.436C134.479 158.116 136.581 158.733 138.001 158.877Z" fill="#ABABAB"/>
<path d="M120.934 148.557C121.231 148.517 121.533 148.548 121.817 148.645C122.008 148.75 122.175 148.895 122.306 149.07L125.307 152.499C125.893 153.164 126.51 154.101 126.109 154.855C125.969 155.077 125.779 155.265 125.556 155.404C125.332 155.542 125.079 155.629 124.817 155.656C123.363 155.803 121.896 155.525 120.597 154.855C119.666 154.446 118.759 154.005 117.861 153.525C117.19 153.217 116.606 152.749 116.16 152.162C115.478 151.105 115.269 148.557 116.497 147.763C117.107 147.371 117.644 147.651 118.238 147.932C119.073 148.354 119.998 148.568 120.934 148.557Z" fill="url(#paint2_linear)"/>
<path d="M115.735 149.182C115.782 149.495 115.866 149.801 115.984 150.095C116.114 150.484 116.286 150.857 116.498 151.209C116.786 151.616 117.145 151.969 117.557 152.251C118.591 152.945 119.721 153.485 120.911 153.853C122.717 154.556 124.679 154.761 126.592 154.446C126.418 154.868 126.092 155.209 125.677 155.399C125.265 155.585 124.821 155.686 124.369 155.696C122.605 155.645 120.879 155.178 119.33 154.334L117.557 153.533C117.308 153.422 117.069 153.291 116.843 153.14C116.528 152.906 116.256 152.618 116.04 152.291C115.638 151.702 115.392 151.021 115.326 150.311C115.294 149.968 115.318 149.622 115.398 149.286C115.398 149.142 115.607 148.485 115.8 148.485C115.73 148.71 115.709 148.947 115.735 149.182V149.182Z" fill="#473F47"/>
<path d="M138.001 158.877C138.928 158.923 139.844 159.102 140.721 159.406C141.163 159.56 141.568 159.804 141.911 160.121C142.255 160.438 142.53 160.822 142.719 161.249C142.894 161.674 142.914 162.148 142.775 162.587C142.477 163.225 141.95 163.728 141.299 163.997C138.209 165.673 134.706 166.439 131.197 166.208C130.294 166.239 129.415 165.914 128.75 165.303C128.258 164.569 128.029 163.691 128.1 162.811L127.979 158.661C128.782 158.54 129.48 159.053 130.226 159.31C131.518 159.75 132.023 158.693 133.091 158.436C134.479 158.116 136.581 158.733 138.001 158.877Z" fill="url(#paint3_linear)"/>
<path d="M126.888 113.037C127.791 113.205 128.626 113.628 129.296 114.255C130.098 115.12 130.098 116.402 130.098 117.572C130.081 125.958 128.519 134.269 125.492 142.091C125.424 142.379 125.297 142.65 125.121 142.889C124.944 143.127 124.721 143.327 124.465 143.477C124.003 143.612 123.509 143.59 123.061 143.413C121.247 142.907 119.461 142.308 117.709 141.618L120.076 125.681C120.189 125.235 120.164 124.766 120.004 124.335C119.829 124.035 119.584 123.783 119.29 123.598C116.588 121.6 113.73 119.82 110.745 118.277C108.337 117.051 105.642 115.657 104.992 113.029C104.858 112.589 104.831 112.124 104.912 111.671C104.993 111.219 105.179 110.792 105.457 110.425C105.832 110.05 106.276 109.751 106.765 109.543C108.37 108.742 110.335 107.741 112.157 107.941C113.601 108.085 114.163 108.943 115.366 109.543C118.768 111.314 123.238 111.955 126.888 113.037Z" fill="white"/>
<path d="M119.595 142.251C119.394 142.187 120.1 138.429 120.164 138.052C120.293 137.315 120.846 134.046 121.432 136.313C121.527 136.811 121.586 137.314 121.609 137.82C121.681 138.423 121.785 139.022 121.921 139.615C121.997 140.08 122.134 140.532 122.331 140.961C122.703 141.589 123.2 142.134 123.791 142.563C123.901 142.681 124.048 142.757 124.208 142.78C124.441 142.78 124.617 142.563 124.714 142.347C124.955 141.675 125.058 140.961 125.019 140.248C125.139 136.241 127.217 132.748 127.081 128.637C127.081 127.636 126.126 126.426 125.725 125.504C125.369 124.76 125.1 123.978 124.922 123.173C124.417 120.441 126.03 117.772 126.254 115L120.814 117.668L117.709 141.65L119.595 142.251Z" fill="url(#paint4_linear)"/>
<path d="M105.456 110.697C104.366 111.307 103.243 111.858 102.094 112.348C101.789 112.484 101.485 112.612 101.172 112.732C97.6394 114.184 93.8011 114.734 90.0026 114.335C89.6174 114.287 89.2323 114.223 88.8471 114.143C86.6579 113.793 84.6537 112.708 83.1663 111.066C81.3931 108.942 80.9758 105.986 80.8635 103.205V102.404C80.7652 98.9375 81.0341 95.4702 81.6659 92.06C82.3206 88.0045 83.893 84.1515 86.2635 80.7943C87.8617 78.6349 89.9412 76.8765 92.3375 75.6582C94.8168 74.4003 97.7535 73.7592 100.401 74.6326C101.775 75.1387 103.045 75.8908 104.148 76.8521C104.561 77.1598 104.931 77.5208 105.248 77.9258C105.692 78.5751 105.998 79.3088 106.146 80.0812C107.246 84.8887 105.721 89.8004 104.542 94.5759C103.892 97.3002 103.394 100.297 104.638 102.797C106.411 106.33 110.704 107.773 105.456 110.697Z" fill="#40798C"/>
<path d="M105.457 110.713C105.36 111.819 103.964 112.228 102.849 112.316L102.095 112.356C98.0853 112.588 94.0639 112.221 90.1633 111.266C89.6832 111.097 89.1636 111.075 88.6708 111.202C88.5958 111.228 88.5254 111.266 88.4622 111.314V111.579C88.3355 112.015 88.3093 112.475 88.3857 112.923C88.4622 113.371 88.6392 113.797 88.9035 114.167C86.7143 113.817 84.7101 112.732 83.2227 111.09C81.4495 108.967 81.0322 106.01 80.9199 103.23V102.428C80.8677 100.375 80.932 98.3206 81.1125 96.2746C81.1708 94.4444 81.4401 92.6269 81.9148 90.8581C83.0731 87.5017 85.1326 84.5276 87.8685 82.2606C88.1228 82.0234 88.4195 81.8358 88.7431 81.7078C89.1088 81.617 89.4894 81.6029 89.8609 81.6663C90.2324 81.7297 90.5867 81.8693 90.9014 82.0763C91.4492 82.3384 91.9357 82.7124 92.3297 83.1741C92.8363 83.8749 93.1163 84.7136 93.132 85.5778C93.1565 86.7476 93.0516 87.9165 92.8191 89.0633C92.579 90.7795 92.2088 92.475 91.7118 94.1353C91.4732 94.7417 91.2932 95.3695 91.1742 96.0102C91.0777 96.8349 91.2226 97.6698 91.5915 98.414C91.8884 99.087 91.9365 99.7922 92.1772 100.497C92.6735 101.947 93.4689 103.276 94.5121 104.399C96.6864 106.687 99.5539 108.196 102.672 108.694C103.322 108.751 103.958 108.91 104.558 109.167C104.834 109.319 105.063 109.544 105.222 109.816C105.38 110.088 105.461 110.398 105.457 110.713V110.713Z" fill="url(#paint5_linear)"/>
<path d="M95.2823 81.4753C95.7068 82.0099 96.239 82.4494 96.8444 82.7655C97.4498 83.0816 98.1149 83.2672 98.7967 83.3102C99.0121 83.3344 99.2294 83.2865 99.4145 83.174C99.6086 82.9774 99.718 82.7129 99.7194 82.4369C99.7836 81.884 99.8639 81.1789 99.92 80.4738C99.9762 79.7687 100.089 78.8713 100.169 78.3104C100.331 76.715 100.937 75.1968 101.918 73.9275C102.118 73.6505 102.349 73.3978 102.608 73.1743C104.301 71.6519 97.4166 72.2529 96.5099 70.1776C95.4669 71.5317 95.5631 73.4307 95.0978 75.0893C94.787 75.8973 94.5192 76.7211 94.2954 77.5572C94.1769 78.2429 94.2034 78.9458 94.3734 79.6206C94.5434 80.2954 94.853 80.9272 95.2823 81.4753V81.4753Z" fill="#C1A7A7"/>
<path d="M99.8323 80.7943L99.9206 80.4738C100.017 79.6726 100.089 78.8713 100.169 78.3104C100.331 76.7151 100.937 75.1968 101.919 73.9275L101.967 73.7593C101.967 73.7593 96.5105 70.1777 95.9247 74.3682C95.339 78.5588 99.8323 80.7943 99.8323 80.7943Z" fill="url(#paint6_linear)"/>
<path d="M105.521 71.4436C105.626 72.3126 105.463 73.1928 105.056 73.9676C104.838 74.2801 104.566 74.5515 104.253 74.7688C102.087 76.3713 98.8292 76.0749 96.6789 74.3842C95.6349 73.4905 94.7931 72.3854 94.2094 71.1421C93.6256 69.8989 93.3132 68.5459 93.2928 67.1729C93.1414 65.742 93.5464 64.3077 94.4242 63.1666C94.9579 62.6495 95.6125 62.2739 96.3285 62.0738C97.0446 61.8736 97.7994 61.8555 98.5243 62.0208C100.502 62.4856 102.305 63.5093 103.716 64.9694C105.104 66.5239 105.449 69.4805 105.521 71.4436Z" fill="#C1A7A7"/>
<path d="M125.195 124.158C126.321 125.611 127.207 127.234 127.819 128.966C131.239 137.36 133.457 146.194 134.406 155.207C131.606 155.56 128.773 155.56 125.973 155.207C125.753 148.823 124.781 142.487 123.076 136.33C122.78 135.011 122.265 133.752 121.552 132.604C120.308 130.769 118.262 129.711 116.296 128.718C111.769 126.473 107.031 124.68 102.151 123.365C100.096 122.788 98.0263 122.267 96.0043 121.57C94.2609 121.051 92.6287 120.215 91.1901 119.102C90.4714 118.54 89.8725 117.84 89.4288 117.044C88.9851 116.247 88.7055 115.369 88.6064 114.463C88.6064 114.928 98.8287 114.463 99.7835 114.319C102.993 113.974 106.748 112.116 109.91 113.43C112.381 114.455 114.636 116.595 116.858 118.069C119.674 119.904 123.012 121.618 125.195 124.158Z" fill="white"/>
<path d="M110.632 123.477L92.835 114.663L113.432 107.252L129.656 114.439L110.632 123.477Z" fill="#D86B7F"/>
<path d="M110.728 122.139L95.876 114.776L113.071 108.59L126.623 114.591L110.728 122.139Z" fill="black" fill-opacity="0.1"/>
<path d="M85.9263 85.722C85.8862 86.0265 85.8461 86.331 85.814 86.6355C85.3325 91.1545 85.7658 95.6015 85.9343 100.105C86.0386 102.885 86.3997 108.197 89.3123 109.624C94.7845 112.292 105.312 111.266 105.312 111.266C106.532 111.073 107.778 111.122 108.979 111.41C109.636 111.619 110.238 111.971 110.872 112.212C113.175 113.109 115.751 112.652 118.174 112.212C118.594 112.163 118.998 112.027 119.361 111.811C120.3 111.17 120.26 109.648 119.562 108.75C118.773 107.929 117.751 107.369 116.633 107.148C113.573 106.13 110.287 106.002 107.157 106.779C106.757 106.915 106.35 107.027 105.938 107.116C105.455 107.194 104.966 107.229 104.477 107.22H100.754C96.4856 107.26 92.4576 107.276 91.8157 102.204C91.5752 100.328 91.5268 98.4326 91.6713 96.547C91.9281 93.1417 92.8027 89.7684 92.6181 86.355C92.5994 85.2726 92.3245 84.21 91.8157 83.2541C91.5654 82.7829 91.1975 82.3842 90.7477 82.0965C90.298 81.8087 89.7814 81.6417 89.2481 81.6116C88.6895 81.6546 88.1519 81.8429 87.6888 82.1578C87.2257 82.4727 86.8532 82.9032 86.6083 83.4064C86.251 84.134 86.0204 84.9171 85.9263 85.722V85.722Z" fill="#C1A7A7"/>
<path d="M136.34 98.2217L113.665 109.928L110.632 123.477L129.656 114.439L136.34 98.2217Z" fill="#D86B7F"/>
<path d="M105.761 61.8285C105.662 61.6891 105.54 61.5672 105.4 61.4679C105.553 61.4002 105.68 61.2865 105.765 61.1429C105.85 60.9993 105.888 60.8328 105.874 60.6666C105.825 60.3301 105.585 60.3061 105.344 60.1699C105.103 60.0337 105.232 59.8894 105.063 59.625C104.942 59.4735 104.766 59.3756 104.574 59.3526L102.873 58.9199C102.873 58.7036 102.929 58.4472 102.768 58.3029C102.608 58.1587 102.151 58.3029 101.822 58.2228C101.356 58.1507 101.148 57.6058 100.811 57.2693C100.056 56.5241 99.5588 57.2693 98.8768 57.3895C98.1948 57.5097 97.922 56.7805 97.1357 56.6764C96.5204 56.6298 95.9023 56.7145 95.3223 56.9248C94.6803 57.0703 94.0846 57.3732 93.5892 57.8062C93.2437 58.1977 92.9719 58.6483 92.7868 59.1362C92.5926 58.9913 92.349 58.9285 92.1087 58.9615C91.8685 58.9945 91.6509 59.1206 91.503 59.3125L91.4308 59.4327C91.2783 59.7612 91.3345 60.1699 91.1179 60.4503C90.9551 60.4343 90.7912 60.4343 90.6284 60.4503C90.4668 60.4924 90.3162 60.5689 90.1871 60.6747C90.0561 60.7869 89.9504 60.9257 89.8771 61.0818C89.8038 61.2379 89.7645 61.4077 89.7619 61.5801C89.5108 61.5185 89.2467 61.5381 89.0076 61.6362C89.1365 61.4041 89.2259 61.1523 89.2724 60.891C89.3004 60.793 89.3033 60.6896 89.2808 60.5902C89.2584 60.4908 89.2114 60.3986 89.144 60.3221C88.9835 60.1939 88.6706 60.3221 88.7348 60.5304C88.7692 60.45 88.7873 60.3635 88.7882 60.276C88.789 60.1885 88.7726 60.1017 88.7398 60.0206C88.707 59.9395 88.6585 59.8656 88.5971 59.8032C88.5356 59.7408 88.4625 59.6912 88.3818 59.6571V59.6571C88.2136 59.6018 88.0335 59.5935 87.861 59.633C87.6885 59.6726 87.53 59.7585 87.4029 59.8814C87.2825 59.7692 87.4911 59.5609 87.443 59.4007C87.4205 59.3448 87.3847 59.2953 87.3387 59.2564C87.1243 59.054 86.8775 58.8888 86.6085 58.7677C86.4782 58.7114 86.3353 58.6906 86.1943 58.7075C86.0534 58.7244 85.9194 58.7783 85.8061 58.8638C85.7099 58.2709 85.1963 57.3655 84.4582 57.5417C84.2415 57.5898 84.057 57.8462 84.1693 58.0465C83.9069 57.761 83.5865 57.5347 83.2295 57.3828C82.8725 57.2308 82.4872 57.1566 82.0992 57.1651C81.8344 57.1651 81.4733 57.3815 81.6097 57.6139C81.2684 57.3601 80.8791 57.1781 80.4654 57.079C80.0516 56.9798 79.622 56.9655 79.2026 57.0369C79.1279 57.0343 79.0542 57.0543 78.9912 57.0943C78.9281 57.1344 78.8787 57.1926 78.8496 57.2613C78.8094 57.3975 79.0421 57.5498 79.0983 57.4135C78.8876 57.3816 78.6722 57.408 78.4755 57.49C78.2788 57.5719 78.1084 57.7062 77.983 57.8783C77.7757 58.114 77.6654 58.4194 77.6743 58.733C77.6833 59.0467 77.8107 59.3453 78.0311 59.5689C78.5206 59.9696 79.4513 59.5689 79.323 58.9199C79.4978 59.1343 79.7443 59.2783 80.0171 59.3254C80.2899 59.3726 80.5706 59.3196 80.8073 59.1763C80.8695 59.4948 81.0556 59.7758 81.3248 59.9575C81.594 60.1392 81.9245 60.207 82.2436 60.1458C82.3942 60.1151 82.5381 60.0582 82.6689 59.9776C82.7425 60.2859 82.9022 60.567 83.1294 60.7883C83.3567 61.0095 83.6421 61.1619 83.9527 61.2275C84.5754 61.3478 85.2155 61.3478 85.8382 61.2275C85.6783 61.3652 85.4884 61.4638 85.2836 61.5152C85.0789 61.5667 84.8649 61.5697 84.6587 61.524C84.461 61.4761 84.2547 61.4761 84.057 61.524C83.8453 61.6367 83.6573 61.789 83.5033 61.9727C83.4723 62.0063 83.4373 62.0359 83.399 62.0608C83.3 62.1027 83.1936 62.1243 83.0861 62.1243C82.9786 62.1243 82.8722 62.1027 82.7732 62.0608C82.4924 61.9644 82.1874 61.9644 81.9066 62.0608C81.769 62.1145 81.6529 62.2117 81.5761 62.3377C81.4992 62.4636 81.466 62.6113 81.4813 62.7579C81.3064 62.7217 81.126 62.7203 80.9505 62.7539C80.775 62.7875 80.6079 62.8553 80.4588 62.9536C80.3097 63.0519 80.1815 63.1787 80.0816 63.3266C79.9816 63.4745 79.912 63.6407 79.8766 63.8156C79.8565 63.9484 79.8565 64.0834 79.8766 64.2162C79.6994 64.1574 79.508 64.1568 79.3304 64.2145C79.1528 64.2722 78.9984 64.3851 78.8897 64.5367C78.7978 64.6787 78.7326 64.8362 78.6971 65.0015C78.6316 65.3041 78.602 65.6134 78.6088 65.9229C78.6026 66.0481 78.6304 66.1727 78.6891 66.2835C78.7176 66.3394 78.7635 66.3845 78.82 66.4119C78.8765 66.4394 78.9404 66.4478 79.002 66.4357C78.9167 66.5323 78.8527 66.6457 78.814 66.7685C78.7753 66.8913 78.7628 67.0209 78.7773 67.1488C78.8081 67.2512 78.8632 67.3446 78.9378 67.4213C79.0647 67.5858 79.2424 67.7041 79.4433 67.7578C79.5426 67.7852 79.6474 67.7863 79.7473 67.761C79.8472 67.7357 79.9387 67.6849 80.013 67.6136C80.2216 67.4132 80.2216 67.0847 80.3981 66.8123C80.3786 66.8956 80.3817 66.9826 80.4071 67.0643C80.4325 67.1459 80.4793 67.2194 80.5426 67.277C80.6805 67.3873 80.8562 67.4391 81.032 67.4213C81.0809 67.4174 81.1279 67.4008 81.1684 67.3732C81.2015 67.3393 81.2263 67.2981 81.2406 67.253C81.3715 66.907 81.3911 66.5289 81.2968 66.1713C81.3747 66.2419 81.4698 66.2909 81.5725 66.3134C81.6753 66.3359 81.7822 66.3311 81.8825 66.2995C81.9819 66.2638 82.0696 66.2017 82.1361 66.1197C82.2026 66.0378 82.2453 65.9392 82.2596 65.8348C82.2516 65.7227 82.2516 65.6103 82.2596 65.4982C82.2596 65.338 82.5004 65.2899 82.6287 65.2018C82.808 65.0794 82.9771 64.9428 83.1342 64.7931C83.2065 64.721 83.9366 63.8797 83.8644 63.8236C84.0511 63.9438 84.2758 63.9907 84.4951 63.9552C84.7144 63.9196 84.9128 63.8043 85.0519 63.6313C85.1772 63.8537 85.3771 64.0248 85.6165 64.1142C85.8558 64.2037 86.1191 64.2057 86.3598 64.1201C85.5402 64.689 84.7867 65.3475 84.1131 66.0832C83.4444 66.8134 83.0428 67.7482 82.9738 68.7353C82.9486 69.2366 83.1022 69.7305 83.407 70.1295C83.5655 70.3219 83.7763 70.4644 84.0141 70.5398C84.2519 70.6152 84.5064 70.6201 84.747 70.5542C84.738 70.4805 84.7125 70.4098 84.6726 70.3472C84.6326 70.2847 84.5791 70.2318 84.516 70.1926C84.4528 70.1534 84.3817 70.1289 84.3079 70.1207C84.234 70.1126 84.1592 70.121 84.0891 70.1455C83.9502 70.2049 83.8259 70.2937 83.7248 70.4057C83.6236 70.5178 83.5481 70.6505 83.5033 70.7945C83.4203 70.9713 83.3772 71.1642 83.3772 71.3594C83.3772 71.5547 83.4203 71.7476 83.5033 71.9243C83.5876 72.091 83.7346 72.2174 83.912 72.276C84.0895 72.3346 84.283 72.3205 84.4501 72.2368V72.2368C84.599 72.1031 84.7214 71.9428 84.8112 71.7641C85.0998 71.4412 85.4051 71.1336 85.7259 70.8426C85.8779 70.6916 85.9735 70.4932 85.9968 70.2803C86.0202 70.0675 85.9699 69.8531 85.8543 69.6728C86.3036 69.4564 86.2876 68.7834 86.0388 68.3507C85.7309 67.9642 85.4621 67.5482 85.2365 67.1088H86.9054L87.7078 66.3716C88.0499 66.5884 88.4338 66.731 88.8346 66.7904C89.2354 66.8497 89.6442 66.8244 90.0347 66.7161C89.9684 67.1073 90.0255 67.5094 90.198 67.8668C90.3705 68.2242 90.6498 68.5193 90.9975 68.7113C90.8611 68.8154 90.6685 68.9436 90.6926 69.144C90.7066 69.2088 90.739 69.2683 90.786 69.3152C90.8329 69.3621 90.8925 69.3944 90.9574 69.4084C91.0846 69.4324 91.2153 69.4324 91.3425 69.4084C91.3987 69.5286 91.2623 69.6568 91.2783 69.793C91.2957 69.8708 91.3415 69.9394 91.4067 69.9853C91.5555 70.105 91.7277 70.1923 91.9122 70.2417C91.8771 70.2877 91.858 70.344 91.858 70.4019C91.858 70.4598 91.8771 70.5161 91.9122 70.5622C91.977 70.6571 92.0695 70.7298 92.177 70.7705C92.4412 70.9079 92.7256 71.0026 93.0195 71.051C92.9856 71.2123 93.0024 71.3802 93.0676 71.5317C93.0965 71.6087 93.1521 71.6728 93.2242 71.7125C93.2963 71.7521 93.3802 71.7648 93.4608 71.748C93.533 71.748 93.5972 71.6679 93.6694 71.6839C93.7144 71.6982 93.7537 71.7263 93.7817 71.7641C93.9156 71.9154 94.0166 72.0927 94.0786 72.2849C94.0982 72.3758 94.1335 72.4625 94.1829 72.5413C94.257 72.6372 94.3573 72.7096 94.4718 72.7496C94.6242 72.8057 94.8088 72.8538 94.9291 72.7496C94.9684 72.7073 94.9952 72.655 95.0066 72.5984C95.0179 72.5418 95.0133 72.4833 94.9933 72.4291C94.9529 72.3246 94.8961 72.2272 94.8248 72.1407C94.8649 72.1597 94.9104 72.1636 94.9531 72.1519C94.9959 72.1401 95.0329 72.1134 95.0575 72.0766C95.0895 71.9913 95.0895 71.8974 95.0575 71.8121C94.962 71.5902 94.832 71.3847 94.6724 71.2032C94.6644 71.1856 94.6603 71.1664 94.6603 71.1471C94.6603 71.1278 94.6644 71.1086 94.6724 71.091C94.6773 71.072 94.6864 71.0543 94.6988 71.039C94.7113 71.0238 94.7269 71.0115 94.7446 71.0029C94.881 70.8506 94.7446 70.6022 94.6644 70.426C94.5841 70.2497 94.3996 70.0494 94.4878 69.8571C94.5348 69.7758 94.5914 69.7005 94.6563 69.6327C94.7446 69.5125 94.7446 69.2962 94.8569 69.2081C94.9118 69.1775 94.9762 69.1687 95.0372 69.1836C95.0982 69.1985 95.1513 69.2358 95.1859 69.2882C95.2661 69.3843 95.2982 69.5125 95.3705 69.6087C95.5134 69.7494 95.6723 69.8731 95.8439 69.9773C95.9642 70.0894 96.0525 70.2497 96.1809 70.3619C96.2199 70.4144 96.2742 70.4537 96.3363 70.4745C96.3984 70.4953 96.4654 70.4967 96.5283 70.4784C96.5912 70.46 96.647 70.4229 96.6881 70.372C96.7293 70.3211 96.7539 70.2589 96.7586 70.1936C96.7715 70.0864 96.7577 69.9777 96.7185 69.8771C96.6793 69.7765 96.6159 69.687 96.5339 69.6167C96.4708 69.5742 96.414 69.5229 96.3654 69.4645C96.3389 69.4362 96.3241 69.399 96.3241 69.3603C96.3241 69.3216 96.3389 69.2844 96.3654 69.2561C96.3972 69.2614 96.4299 69.2565 96.4587 69.2421C96.4875 69.2277 96.511 69.2046 96.5259 69.176C96.5339 69.1499 96.5339 69.122 96.5259 69.0959C96.511 69.0205 96.4748 68.951 96.4216 68.8956C96.4216 68.8956 96.3574 68.8315 96.3654 68.7914C96.3573 68.7708 96.3573 68.7479 96.3654 68.7273C96.4456 68.5911 96.558 68.4709 96.6302 68.3347C96.6867 68.2265 96.6999 68.1009 96.6671 67.9834C96.6343 67.8658 96.558 67.7651 96.4537 67.7017C96.6142 67.8029 96.8056 67.844 96.9936 67.8176C97.1817 67.7912 97.3543 67.699 97.4807 67.5575C97.7278 67.275 97.9087 66.941 98.0103 66.5799C98.0666 66.6225 98.1309 66.6537 98.1993 66.6715C98.2677 66.6893 98.3389 66.6935 98.409 66.6838C98.479 66.6742 98.5465 66.6508 98.6075 66.6151C98.6685 66.5794 98.7218 66.5321 98.7645 66.4758C98.8072 66.4195 98.8383 66.3553 98.8562 66.287C98.874 66.2187 98.8782 66.1475 98.8686 66.0776C98.8589 66.0077 98.8355 65.9403 98.7997 65.8794C98.764 65.8185 98.7166 65.7652 98.6602 65.7226H98.596C98.8051 65.8278 99.0301 65.8981 99.262 65.9309C99.3788 65.9463 99.4977 65.9316 99.6073 65.8881C99.7169 65.8447 99.8134 65.7739 99.8878 65.6825C100.088 65.4021 99.9841 64.9614 100.249 64.737C100.657 65.0932 101.101 65.4073 101.573 65.6745C101.951 65.7986 102.362 65.7679 102.717 65.5891C103.072 65.4103 103.342 65.0981 103.466 64.721C103.466 64.721 103.466 64.721 103.466 64.6729C103.663 64.8029 103.888 64.8844 104.122 64.9108C104.356 64.9373 104.594 64.908 104.814 64.8252C104.99 64.6879 105.116 64.4967 105.173 64.281C105.229 64.0653 105.213 63.8371 105.127 63.6313C105.367 63.6027 105.589 63.4892 105.753 63.3113C105.916 63.1335 106.01 62.903 106.018 62.6618C106.028 62.3632 105.938 62.0698 105.761 61.8285V61.8285Z" fill="#473F47"/>
<path d="M128.212 164.085C128.212 164.085 129.014 165.688 134.438 164.774C139.862 163.861 142.414 162.17 142.719 161.217C142.826 161.398 142.896 161.599 142.926 161.807C142.955 162.016 142.943 162.228 142.89 162.432C142.837 162.636 142.744 162.828 142.617 162.996C142.49 163.164 142.331 163.305 142.149 163.412C140.793 164.213 135.538 167.819 129.135 165.607C129.135 165.64 128.332 165.415 128.212 164.085Z" fill="#473F47"/>
<path d="M93.9744 68.6312C93.8684 68.6351 93.7656 68.6683 93.6776 68.7274C93.4834 68.855 93.3291 69.0347 93.2326 69.2459C93.1361 69.4571 93.1012 69.6912 93.1319 69.9213C93.1972 70.3864 93.4046 70.82 93.7257 71.1632C93.8551 71.3301 94.0193 71.4669 94.2071 71.5638C94.4617 71.6684 94.7342 71.7228 95.0095 71.7241C95.1151 71.7481 95.2248 71.7481 95.3304 71.7241C95.4368 71.6656 95.5256 71.5798 95.5877 71.4756C95.6498 71.3713 95.6828 71.2524 95.6835 71.1312C95.7254 70.5525 95.6001 69.9741 95.3224 69.4645C95.234 69.3011 95.0965 69.1694 94.9293 69.0879C94.6489 68.8668 94.3227 68.7108 93.9744 68.6312V68.6312Z" fill="#C1A7A7"/>
<path d="M88.3257 62.5015C88.0058 63.4152 87.8509 64.3783 87.8683 65.346C87.8225 65.8699 87.8909 66.3975 88.0689 66.8924C88.2307 67.2202 88.4358 67.5247 88.6787 67.7979C88.9195 67.8201 89.1622 67.7876 89.3887 67.703C89.6152 67.6184 89.8196 67.4837 89.9866 67.3091C90.0694 67.2266 90.1301 67.1247 90.1631 67.0126C90.2514 66.7082 90.0428 66.4197 89.8743 66.1473C89.3758 65.2416 89.2575 64.1753 89.5453 63.1826C89.6817 62.6378 90.6365 61.1795 89.4089 61.4118C89.149 61.4836 88.9123 61.6218 88.7223 61.813C88.5323 62.0041 88.3956 62.2414 88.3257 62.5015V62.5015Z" fill="#D86B7F"/>
<path d="M105.047 180.27H104.245C104.138 180.27 104.036 180.228 103.961 180.153C103.886 180.078 103.844 179.976 103.844 179.87C103.844 179.764 103.886 179.662 103.961 179.587C104.036 179.511 104.138 179.469 104.245 179.469H105.047C105.154 179.469 105.256 179.511 105.331 179.587C105.406 179.662 105.448 179.764 105.448 179.87C105.448 179.976 105.406 180.078 105.331 180.153C105.256 180.228 105.154 180.27 105.047 180.27ZM109.059 180.27C108.953 180.27 108.851 180.228 108.775 180.153C108.7 180.078 108.658 179.976 108.658 179.87C108.658 179.764 108.7 179.662 108.775 179.587C108.851 179.511 108.953 179.469 109.059 179.469H109.861C109.968 179.469 110.07 179.511 110.145 179.587C110.22 179.662 110.263 179.764 110.263 179.87C110.263 179.976 110.22 180.078 110.145 180.153C110.07 180.228 109.968 180.27 109.861 180.27H109.059ZM100.233 180.174H99.4306C99.3779 180.172 99.3261 180.16 99.2782 180.138C99.2303 180.116 99.1873 180.084 99.1515 180.046C99.1157 180.007 99.088 179.962 99.0698 179.912C99.0516 179.863 99.0433 179.81 99.0454 179.758C99.0444 179.707 99.0536 179.656 99.0725 179.609C99.0915 179.562 99.1198 179.519 99.1558 179.483C99.1918 179.447 99.2347 179.419 99.2819 179.4C99.3291 179.381 99.3797 179.372 99.4306 179.373H100.233C100.339 179.373 100.441 179.415 100.517 179.49C100.592 179.566 100.634 179.667 100.634 179.774C100.634 179.88 100.592 179.982 100.517 180.057C100.441 180.132 100.339 180.174 100.233 180.174ZM113.873 180.174C113.767 180.174 113.665 180.132 113.59 180.057C113.514 179.982 113.472 179.88 113.472 179.774C113.472 179.667 113.514 179.566 113.59 179.49C113.665 179.415 113.767 179.373 113.873 179.373H114.676C114.781 179.373 114.883 179.412 114.96 179.484C115.037 179.555 115.085 179.653 115.093 179.758C115.095 179.81 115.087 179.863 115.069 179.912C115.05 179.962 115.023 180.007 114.987 180.046C114.951 180.084 114.908 180.116 114.86 180.138C114.812 180.16 114.761 180.172 114.708 180.174H113.905H113.873ZM95.4187 179.966L94.6163 179.918C94.5636 179.915 94.512 179.901 94.4645 179.878C94.417 179.855 94.3745 179.823 94.3395 179.784C94.3045 179.744 94.2776 179.698 94.2603 179.648C94.2431 179.599 94.236 179.546 94.2392 179.493V179.493C94.2392 179.442 94.2494 179.392 94.2694 179.345C94.2893 179.299 94.3186 179.256 94.3553 179.221C94.392 179.186 94.4355 179.159 94.4831 179.141C94.5308 179.123 94.5815 179.114 94.6324 179.117V179.117L95.4348 179.165C95.5412 179.165 95.6432 179.207 95.7184 179.282C95.7937 179.357 95.8359 179.459 95.8359 179.565C95.8359 179.672 95.7937 179.774 95.7184 179.849C95.6432 179.924 95.5412 179.966 95.4348 179.966H95.4187ZM118.688 179.966C118.586 179.964 118.488 179.925 118.414 179.855C118.34 179.786 118.294 179.691 118.286 179.589C118.284 179.484 118.321 179.382 118.391 179.303C118.461 179.224 118.559 179.175 118.664 179.165L119.466 179.117C119.571 179.114 119.674 179.152 119.753 179.221C119.832 179.291 119.881 179.388 119.891 179.493C119.894 179.546 119.887 179.599 119.87 179.648C119.853 179.698 119.826 179.744 119.791 179.784C119.756 179.823 119.713 179.855 119.666 179.878C119.618 179.901 119.567 179.915 119.514 179.918L118.712 179.966H118.688ZM90.6045 179.645L89.8021 179.573C89.7493 179.569 89.6979 179.555 89.6508 179.531C89.6036 179.507 89.5617 179.474 89.5274 179.434C89.4931 179.393 89.4671 179.347 89.4509 179.297C89.4347 179.246 89.4286 179.193 89.433 179.141C89.447 179.036 89.5004 178.94 89.5824 178.873C89.6643 178.806 89.7687 178.773 89.8743 178.78L90.6767 178.844C90.7831 178.844 90.8851 178.886 90.9604 178.962C91.0356 179.037 91.0779 179.139 91.0779 179.245C91.0779 179.351 91.0356 179.453 90.9604 179.528C90.8851 179.603 90.7831 179.645 90.6767 179.645H90.6045ZM123.502 179.645C123.395 179.645 123.293 179.603 123.218 179.528C123.143 179.453 123.101 179.351 123.101 179.245C123.101 179.139 123.143 179.037 123.218 178.962C123.293 178.886 123.395 178.844 123.502 178.844L124.304 178.78C124.409 178.773 124.512 178.807 124.593 178.874C124.674 178.941 124.725 179.037 124.737 179.141C124.743 179.192 124.738 179.244 124.724 179.294C124.709 179.344 124.684 179.39 124.651 179.431C124.619 179.471 124.578 179.504 124.532 179.529C124.486 179.553 124.436 179.568 124.384 179.573V179.573L123.582 179.645H123.502ZM85.8464 179.205H85.7982L84.9959 179.117C84.8895 179.104 84.7925 179.049 84.7263 178.965C84.6601 178.881 84.63 178.774 84.6428 178.668C84.6556 178.562 84.7101 178.465 84.7944 178.399C84.8786 178.333 84.9857 178.303 85.0921 178.315L85.8945 178.404C86.0009 178.404 86.103 178.446 86.1782 178.521C86.2534 178.596 86.2957 178.698 86.2957 178.804C86.2957 178.91 86.2534 179.012 86.1782 179.087C86.103 179.163 86.0009 179.205 85.8945 179.205H85.8464ZM128.292 179.205C128.186 179.205 128.084 179.163 128.008 179.087C127.933 179.012 127.891 178.91 127.891 178.804C127.891 178.698 127.933 178.596 128.008 178.521C128.084 178.446 128.186 178.404 128.292 178.404L129.094 178.315C129.197 178.304 129.301 178.332 129.383 178.395C129.465 178.458 129.52 178.55 129.536 178.652C129.547 178.757 129.516 178.862 129.45 178.945C129.384 179.027 129.288 179.081 129.183 179.093L128.38 179.181L128.292 179.205ZM81.0642 178.644H81.0081L80.2057 178.532C80.153 178.525 80.1022 178.508 80.0561 178.481C80.0101 178.455 79.9697 178.42 79.9373 178.378C79.9049 178.336 79.8811 178.288 79.8672 178.236C79.8534 178.185 79.8498 178.132 79.8567 178.079C79.8635 178.026 79.8807 177.976 79.9072 177.93C79.9336 177.884 79.9689 177.843 80.011 177.811C80.0531 177.779 80.1012 177.755 80.1525 177.741C80.2038 177.727 80.2573 177.724 80.31 177.73L81.1124 177.843C81.2154 177.855 81.3095 177.907 81.3741 177.988C81.4388 178.069 81.4687 178.172 81.4574 178.275V178.275C81.4296 178.361 81.3747 178.436 81.301 178.488C81.2272 178.54 81.1385 178.566 81.0482 178.564L81.0642 178.644ZM133.074 178.644C133.021 178.648 132.969 178.641 132.919 178.624C132.868 178.607 132.822 178.581 132.782 178.546C132.702 178.477 132.652 178.378 132.645 178.271C132.637 178.165 132.673 178.06 132.743 177.98C132.813 177.899 132.912 177.85 133.018 177.843L133.82 177.738C133.872 177.731 133.924 177.733 133.974 177.745C134.024 177.757 134.072 177.779 134.113 177.81C134.155 177.84 134.19 177.879 134.217 177.923C134.244 177.967 134.262 178.016 134.27 178.067V178.067C134.284 178.172 134.256 178.278 134.194 178.363C134.131 178.448 134.037 178.506 133.933 178.524V178.524L133.13 178.628L133.074 178.644ZM76.2981 177.963H76.2339L75.4316 177.835C75.3743 177.831 75.3184 177.815 75.2676 177.789C75.2168 177.762 75.1721 177.725 75.1365 177.68C75.1009 177.636 75.0751 177.584 75.0609 177.528C75.0467 177.473 75.0443 177.415 75.0539 177.358C75.0635 177.302 75.0849 177.248 75.1167 177.2C75.1485 177.153 75.19 177.112 75.2385 177.082C75.2869 177.051 75.3413 177.031 75.3981 177.022C75.4549 177.014 75.5127 177.018 75.568 177.033L76.3703 177.17C76.4215 177.177 76.4706 177.195 76.5148 177.222C76.559 177.249 76.5975 177.284 76.6281 177.326C76.6587 177.367 76.6807 177.415 76.6929 177.465C76.7051 177.515 76.7073 177.567 76.6993 177.618C76.6679 177.701 76.6099 177.771 76.5344 177.817C76.4589 177.864 76.3702 177.884 76.2821 177.875L76.2981 177.963ZM137.832 177.963C137.78 177.967 137.727 177.961 137.676 177.945C137.626 177.928 137.579 177.902 137.539 177.868C137.499 177.834 137.466 177.792 137.442 177.745C137.418 177.698 137.403 177.647 137.399 177.594C137.395 177.542 137.401 177.489 137.417 177.439C137.434 177.388 137.46 177.342 137.494 177.302C137.528 177.261 137.57 177.228 137.617 177.204C137.664 177.18 137.715 177.166 137.768 177.162L138.57 177.025C138.675 177.009 138.781 177.034 138.867 177.096C138.952 177.157 139.01 177.25 139.028 177.354C139.037 177.406 139.036 177.459 139.024 177.511C139.013 177.563 138.991 177.612 138.96 177.655C138.93 177.698 138.891 177.735 138.846 177.763C138.801 177.791 138.751 177.81 138.699 177.819V177.819L137.896 177.947L137.832 177.963ZM71.5561 177.162H71.4839L70.6815 177.009C70.6299 176.999 70.5808 176.978 70.5371 176.949C70.4934 176.919 70.456 176.882 70.427 176.838C70.3979 176.794 70.3778 176.745 70.3678 176.693C70.3577 176.641 70.358 176.588 70.3686 176.537C70.3772 176.486 70.396 176.437 70.4239 176.394C70.4518 176.35 70.4881 176.313 70.5308 176.283C70.5735 176.254 70.6216 176.234 70.6723 176.224C70.723 176.214 70.7753 176.214 70.8259 176.224V176.224L71.6283 176.376C71.6799 176.387 71.729 176.407 71.7727 176.437C71.8163 176.466 71.8538 176.504 71.8828 176.548C71.9119 176.592 71.932 176.641 71.942 176.693C71.952 176.744 71.9518 176.798 71.9412 176.849C71.9007 176.921 71.8385 176.978 71.7637 177.012C71.6888 177.047 71.6049 177.057 71.524 177.041L71.5561 177.162ZM142.574 177.162C142.481 177.163 142.391 177.132 142.319 177.073C142.247 177.014 142.198 176.932 142.181 176.841C142.162 176.736 142.185 176.628 142.245 176.539C142.305 176.451 142.397 176.39 142.502 176.368L143.304 176.216C143.409 176.197 143.516 176.221 143.603 176.281C143.69 176.341 143.75 176.433 143.77 176.537C143.782 176.586 143.784 176.636 143.775 176.686C143.767 176.736 143.749 176.783 143.722 176.826C143.695 176.868 143.66 176.905 143.619 176.934C143.577 176.963 143.53 176.983 143.481 176.993V176.993L142.679 177.154L142.574 177.162ZM66.8301 176.104H66.7418L65.9395 175.92C65.8868 175.908 65.8369 175.886 65.7926 175.855C65.7484 175.825 65.7107 175.785 65.6816 175.74C65.6526 175.695 65.6328 175.644 65.6233 175.591C65.6138 175.538 65.6149 175.483 65.6265 175.431C65.6381 175.378 65.66 175.328 65.6908 175.284C65.7217 175.24 65.761 175.202 65.8064 175.173C65.8519 175.144 65.9026 175.125 65.9557 175.115C66.0088 175.106 66.0633 175.107 66.116 175.118L66.9184 175.295C66.9701 175.306 67.0191 175.327 67.0625 175.358C67.1059 175.388 67.1428 175.427 67.1711 175.472C67.1995 175.516 67.2187 175.566 67.2276 175.618C67.2366 175.67 67.2351 175.724 67.2233 175.775C67.2079 175.868 67.1598 175.952 67.0877 176.012C67.0155 176.073 66.9241 176.105 66.8301 176.104ZM147.244 176.016C147.191 176.021 147.138 176.016 147.087 176.001C147.036 175.986 146.989 175.961 146.948 175.927C146.907 175.894 146.873 175.853 146.848 175.806C146.823 175.759 146.808 175.708 146.803 175.655C146.796 175.603 146.8 175.55 146.814 175.499C146.829 175.449 146.853 175.401 146.886 175.36C146.919 175.319 146.96 175.285 147.006 175.26C147.052 175.235 147.103 175.219 147.156 175.215V175.215L147.958 175.03C148.011 175.019 148.065 175.018 148.118 175.027C148.172 175.036 148.222 175.056 148.268 175.085C148.313 175.114 148.352 175.152 148.383 175.196C148.414 175.24 148.436 175.29 148.448 175.343C148.459 175.395 148.46 175.45 148.451 175.503C148.441 175.556 148.422 175.606 148.393 175.652C148.364 175.697 148.326 175.736 148.282 175.767C148.237 175.798 148.187 175.82 148.135 175.831V175.831L147.332 176.008L147.244 176.016ZM62.1121 174.934C62.0805 174.942 62.0474 174.942 62.0158 174.934L61.2135 174.734C61.1071 174.705 61.0159 174.637 60.959 174.543C60.9021 174.449 60.8841 174.336 60.9086 174.229C60.9369 174.123 61.0058 174.033 61.1004 173.977C61.195 173.922 61.3077 173.906 61.4141 173.933L62.2164 174.141C62.2676 174.154 62.3156 174.177 62.3579 174.209C62.4001 174.24 62.4356 174.28 62.4625 174.325C62.4893 174.371 62.5069 174.421 62.5143 174.473C62.5216 174.525 62.5186 174.579 62.5053 174.63V174.63C62.4851 174.712 62.4393 174.786 62.3744 174.841C62.3095 174.895 62.2289 174.928 62.1442 174.934H62.1121ZM151.922 174.886C151.816 174.9 151.708 174.871 151.623 174.805C151.538 174.74 151.482 174.644 151.469 174.537C151.455 174.431 151.484 174.324 151.549 174.239C151.615 174.154 151.711 174.099 151.818 174.085L152.62 173.884C152.673 173.871 152.727 173.869 152.781 173.877C152.835 173.885 152.887 173.903 152.933 173.931C152.98 173.959 153.02 173.996 153.053 174.039C153.085 174.083 153.108 174.132 153.122 174.185C153.135 174.238 153.137 174.292 153.129 174.346C153.121 174.399 153.103 174.451 153.075 174.498C153.047 174.544 153.01 174.585 152.967 174.617C152.923 174.649 152.873 174.673 152.821 174.686L152.018 174.886H151.922ZM57.4744 173.644H57.3781L56.5757 173.412C56.5246 173.398 56.4767 173.374 56.4351 173.341C56.3934 173.309 56.3588 173.268 56.3333 173.221C56.3078 173.175 56.292 173.124 56.2868 173.071C56.2815 173.019 56.2871 172.965 56.3029 172.915C56.3361 172.814 56.4075 172.73 56.5019 172.68C56.5963 172.631 56.7063 172.62 56.8084 172.65L57.6108 172.875C57.6635 172.882 57.7142 172.9 57.7601 172.927C57.8059 172.954 57.846 172.989 57.878 173.032C57.9101 173.074 57.9334 173.123 57.9468 173.174C57.9601 173.225 57.9632 173.279 57.9558 173.332C57.9485 173.384 57.9308 173.435 57.9038 173.481C57.8768 173.526 57.8411 173.566 57.7986 173.598C57.7561 173.63 57.7078 173.654 57.6563 173.667C57.6048 173.68 57.5512 173.683 57.4985 173.676V173.676L57.4744 173.644ZM156.56 173.588C156.474 173.588 156.39 173.562 156.321 173.511C156.252 173.461 156.2 173.389 156.175 173.308C156.144 173.206 156.155 173.096 156.204 173.001C156.254 172.907 156.338 172.836 156.439 172.803L157.242 172.578C157.342 172.548 157.45 172.558 157.543 172.606C157.636 172.654 157.706 172.736 157.739 172.835C157.769 172.936 157.758 173.044 157.709 173.137C157.659 173.23 157.575 173.3 157.474 173.332L156.672 173.564H156.592L156.56 173.588ZM52.8848 172.186H52.7564L51.9541 171.921C51.8477 171.895 51.7562 171.827 51.6998 171.733C51.6433 171.639 51.6266 171.527 51.6532 171.421C51.6798 171.314 51.7476 171.223 51.8416 171.167C51.9356 171.11 52.0483 171.094 52.1547 171.12H52.2188L52.9731 171.376C53.0726 171.411 53.1546 171.483 53.2011 171.578C53.2477 171.672 53.2551 171.781 53.2218 171.881C53.1942 171.951 53.147 172.012 53.0858 172.056C53.0247 172.1 52.9521 172.126 52.8768 172.13L52.8848 172.186ZM161.205 172.098C161.105 172.102 161.007 172.069 160.93 172.005C160.853 171.942 160.801 171.853 160.785 171.754C160.77 171.655 160.791 171.554 160.844 171.47C160.898 171.386 160.981 171.324 161.077 171.296L161.831 171.04C161.879 171.021 161.93 171.011 161.982 171.012C162.034 171.013 162.084 171.024 162.132 171.045C162.179 171.066 162.221 171.096 162.256 171.134C162.292 171.172 162.319 171.216 162.337 171.264V171.264C162.37 171.365 162.363 171.475 162.317 171.571C162.27 171.667 162.188 171.741 162.088 171.777L161.286 172.042L161.205 172.098ZM48.3915 170.495H48.2471L47.5009 170.199C47.4043 170.161 47.326 170.087 47.2826 169.993C47.2393 169.899 47.2341 169.792 47.2682 169.694C47.3075 169.597 47.3833 169.519 47.4792 169.477C47.5752 169.435 47.6837 169.433 47.7817 169.47L48.5279 169.766C48.6264 169.804 48.7061 169.879 48.7497 169.975C48.7932 170.071 48.7971 170.18 48.7606 170.279V170.279C48.7329 170.357 48.682 170.425 48.6146 170.474C48.5472 170.522 48.4666 170.549 48.3835 170.551L48.3915 170.495ZM165.699 170.495C165.618 170.495 165.54 170.472 165.473 170.428C165.406 170.383 165.353 170.321 165.322 170.247C165.284 170.148 165.287 170.038 165.329 169.941C165.371 169.844 165.449 169.767 165.546 169.726V169.726L166.284 169.429C166.384 169.392 166.493 169.395 166.591 169.437C166.688 169.478 166.765 169.556 166.806 169.654C166.826 169.703 166.835 169.755 166.835 169.808C166.834 169.86 166.823 169.912 166.802 169.961C166.781 170.009 166.751 170.053 166.713 170.09C166.675 170.126 166.63 170.155 166.581 170.175V170.175L165.835 170.471C165.791 170.486 165.745 170.494 165.699 170.495V170.495ZM43.9464 168.724C43.8932 168.732 43.8391 168.732 43.7859 168.724L43.0477 168.396C43.0001 168.375 42.9571 168.345 42.9212 168.307C42.8854 168.27 42.8573 168.226 42.8386 168.177C42.82 168.129 42.8111 168.077 42.8126 168.025C42.814 167.973 42.8258 167.922 42.8471 167.875C42.8909 167.778 42.9712 167.703 43.0705 167.666C43.1697 167.628 43.2798 167.631 43.3767 167.675L44.1068 168.003C44.2035 168.047 44.2789 168.127 44.3165 168.226C44.3541 168.325 44.3508 168.435 44.3074 168.532C44.2662 168.591 44.2106 168.638 44.146 168.668C44.0814 168.699 44.0098 168.713 43.9383 168.708L43.9464 168.724ZM170.136 168.644C170.059 168.644 169.983 168.621 169.919 168.578C169.855 168.536 169.805 168.475 169.775 168.404C169.731 168.31 169.725 168.203 169.76 168.106C169.794 168.008 169.866 167.928 169.959 167.883V167.883L170.681 167.554C170.778 167.51 170.887 167.504 170.988 167.538C171.088 167.573 171.171 167.645 171.219 167.739C171.261 167.837 171.263 167.947 171.226 168.047C171.189 168.147 171.114 168.229 171.019 168.276L170.288 168.604C170.233 168.616 170.175 168.616 170.12 168.604L170.136 168.644ZM39.6055 166.641H39.421L38.7068 166.264C38.6146 166.212 38.5463 166.126 38.5163 166.024C38.4864 165.923 38.4972 165.813 38.5464 165.72V165.72C38.57 165.674 38.6026 165.633 38.6422 165.6C38.6819 165.567 38.7278 165.542 38.7772 165.527C38.8266 165.513 38.8785 165.508 38.9298 165.513C38.9811 165.519 39.0308 165.534 39.0759 165.559V165.559L39.782 165.928C39.8615 165.962 39.9259 166.024 39.9636 166.102C40.0012 166.18 40.0097 166.268 39.9873 166.352C39.9649 166.435 39.9133 166.508 39.8417 166.557C39.7702 166.605 39.6835 166.627 39.5975 166.617L39.6055 166.641ZM174.477 166.553C174.424 166.565 174.37 166.566 174.316 166.557C174.263 166.547 174.212 166.528 174.167 166.498C174.121 166.469 174.082 166.432 174.051 166.387C174.02 166.343 173.999 166.293 173.987 166.24C173.974 166.188 173.972 166.134 173.98 166.081C173.989 166.028 174.008 165.977 174.036 165.932C174.064 165.886 174.102 165.846 174.146 165.816C174.19 165.785 174.24 165.763 174.292 165.752L174.998 165.383C175.043 165.358 175.093 165.342 175.144 165.337C175.196 165.331 175.248 165.336 175.297 165.351C175.346 165.366 175.392 165.391 175.432 165.424C175.472 165.457 175.504 165.498 175.528 165.543V165.543C175.577 165.635 175.589 165.742 175.561 165.843C175.532 165.943 175.466 166.028 175.375 166.08L174.661 166.457C174.605 166.49 174.542 166.512 174.477 166.521V166.553ZM35.4011 164.301C35.3276 164.303 35.2552 164.283 35.1924 164.245L34.5104 163.821C34.4258 163.757 34.3693 163.663 34.3528 163.558C34.3364 163.453 34.3612 163.346 34.4222 163.26C34.4784 163.183 34.5602 163.129 34.6528 163.107C34.7454 163.085 34.8428 163.096 34.9277 163.14L35.6097 163.556C35.6552 163.583 35.6949 163.619 35.7264 163.662C35.7579 163.704 35.7807 163.753 35.7934 163.804C35.806 163.856 35.8084 163.909 35.8003 163.961C35.7922 164.014 35.7737 164.064 35.7461 164.109C35.7078 164.164 35.6559 164.209 35.5955 164.238C35.5351 164.268 35.4682 164.281 35.4011 164.277V164.301ZM178.673 164.197C178.604 164.198 178.536 164.18 178.475 164.146C178.415 164.113 178.364 164.064 178.328 164.005C178.274 163.913 178.259 163.804 178.284 163.701C178.31 163.598 178.374 163.508 178.465 163.452L179.147 163.035C179.241 162.988 179.351 162.98 179.452 163.013C179.553 163.046 179.636 163.117 179.684 163.212C179.727 163.296 179.739 163.394 179.717 163.486C179.695 163.579 179.641 163.66 179.564 163.716L178.882 164.141C178.814 164.161 178.741 164.161 178.673 164.141V164.197ZM31.3812 161.633C31.2981 161.633 31.2171 161.608 31.1485 161.561L30.4986 161.08C30.4182 161.022 30.3624 160.936 30.3419 160.839C30.3215 160.742 30.3378 160.641 30.3877 160.555C30.4376 160.469 30.5176 160.405 30.6122 160.375C30.7068 160.345 30.8092 160.35 30.8997 160.391L30.9719 160.439L31.6139 160.912C31.7 160.971 31.7593 161.061 31.7789 161.163C31.7984 161.265 31.7766 161.371 31.7182 161.457V161.457C31.6805 161.511 31.6301 161.556 31.5714 161.587C31.5127 161.617 31.4474 161.633 31.3812 161.633V161.633ZM182.685 161.521C182.599 161.523 182.514 161.498 182.443 161.448C182.373 161.399 182.32 161.328 182.293 161.246C182.266 161.164 182.266 161.076 182.293 160.994C182.32 160.912 182.373 160.841 182.444 160.792L183.086 160.319C183.172 160.257 183.278 160.231 183.383 160.246C183.488 160.261 183.583 160.316 183.648 160.399C183.712 160.484 183.739 160.591 183.724 160.696C183.709 160.801 183.653 160.896 183.568 160.96C183.359 161.12 183.134 161.289 182.918 161.441C182.853 161.495 182.77 161.524 182.685 161.521V161.521ZM27.618 158.645C27.5209 158.639 27.4282 158.602 27.3532 158.54L26.7515 157.995C26.678 157.921 26.6368 157.82 26.6368 157.715C26.6368 157.61 26.678 157.509 26.7515 157.435C26.7888 157.397 26.8331 157.367 26.882 157.347C26.9309 157.327 26.9833 157.316 27.0363 157.316C27.0893 157.316 27.1417 157.327 27.1906 157.347C27.2395 157.367 27.2838 157.397 27.3211 157.435V157.435L27.9149 157.963C27.9952 158.032 28.0452 158.129 28.0542 158.234C28.0633 158.339 28.0305 158.443 27.963 158.524C27.9233 158.57 27.874 158.607 27.8185 158.632C27.7631 158.657 27.7029 158.669 27.6421 158.669L27.618 158.645ZM186.432 158.476C186.376 158.477 186.32 158.465 186.269 158.441C186.217 158.418 186.172 158.383 186.135 158.34C186.062 158.266 186.021 158.167 186.021 158.064C186.021 157.96 186.062 157.861 186.135 157.787L186.721 157.25C186.758 157.213 186.803 157.183 186.852 157.163C186.9 157.142 186.953 157.132 187.006 157.132C187.059 157.132 187.111 157.142 187.16 157.163C187.209 157.183 187.253 157.213 187.291 157.25C187.328 157.287 187.358 157.33 187.378 157.379C187.398 157.427 187.409 157.479 187.409 157.531C187.409 157.583 187.398 157.635 187.378 157.683C187.358 157.731 187.328 157.775 187.291 157.811L187.251 157.851C187.058 158.036 186.857 158.22 186.649 158.396C186.587 158.445 186.511 158.473 186.432 158.476V158.476ZM24.232 155.271C24.1745 155.271 24.1178 155.258 24.0653 155.235C24.0128 155.211 23.9658 155.177 23.9271 155.135L23.4056 154.51C23.3684 154.474 23.3389 154.431 23.3187 154.384C23.2986 154.336 23.2882 154.285 23.2882 154.234C23.2882 154.182 23.2986 154.131 23.3187 154.083C23.3389 154.036 23.3684 153.993 23.4056 153.957C23.4898 153.892 23.5957 153.862 23.7016 153.872C23.8074 153.883 23.9054 153.933 23.9752 154.013L24.4888 154.614C24.5628 154.69 24.6042 154.792 24.6042 154.899C24.6042 155.005 24.5628 155.107 24.4888 155.183C24.4151 155.24 24.3249 155.271 24.232 155.271V155.271ZM189.77 155.087C189.664 155.087 189.562 155.045 189.486 154.97C189.411 154.894 189.369 154.793 189.369 154.686C189.375 154.593 189.409 154.504 189.465 154.43L189.979 153.821C190.011 153.78 190.05 153.746 190.096 153.721C190.141 153.696 190.191 153.68 190.242 153.674C190.294 153.668 190.346 153.672 190.395 153.687C190.445 153.701 190.492 153.725 190.532 153.757C190.573 153.789 190.607 153.829 190.632 153.874C190.657 153.919 190.673 153.969 190.679 154.02C190.685 154.071 190.681 154.123 190.667 154.173C190.653 154.223 190.629 154.269 190.596 154.31L190.075 154.935C190.038 154.981 189.992 155.018 189.939 155.045C189.887 155.071 189.829 155.085 189.77 155.087V155.087ZM21.3595 151.369C21.2903 151.369 21.2221 151.352 21.1616 151.318C21.1012 151.285 21.0505 151.236 21.0145 151.177L20.6053 150.472C20.582 150.424 20.5683 150.373 20.565 150.32C20.5617 150.268 20.5688 150.215 20.5859 150.165C20.6031 150.115 20.6299 150.069 20.6649 150.03C20.6999 149.99 20.7423 149.958 20.7898 149.935C20.8779 149.89 20.9796 149.88 21.0748 149.907C21.17 149.933 21.2516 149.995 21.3033 150.079C21.4317 150.311 21.5681 150.536 21.7045 150.768C21.7579 150.859 21.7734 150.967 21.7479 151.068C21.7224 151.17 21.6578 151.258 21.5681 151.313C21.5137 151.344 21.4537 151.363 21.3916 151.369H21.3595ZM192.586 151.201C192.513 151.202 192.44 151.183 192.378 151.145C192.288 151.09 192.223 151.002 192.198 150.9C192.172 150.798 192.188 150.69 192.241 150.6C192.37 150.368 192.506 150.143 192.626 149.911C192.652 149.864 192.686 149.824 192.727 149.791C192.768 149.757 192.815 149.733 192.866 149.718C192.917 149.703 192.97 149.698 193.022 149.704C193.075 149.709 193.126 149.725 193.172 149.751C193.218 149.776 193.259 149.81 193.293 149.851C193.326 149.892 193.35 149.939 193.365 149.99C193.38 150.04 193.385 150.093 193.379 150.146C193.374 150.198 193.358 150.249 193.333 150.295C193.204 150.536 193.068 150.768 192.931 151C192.898 151.056 192.853 151.103 192.798 151.137C192.744 151.172 192.683 151.194 192.618 151.201H192.586ZM19.3375 147.034C19.2527 147.035 19.1698 147.01 19.1006 146.961C19.0314 146.912 18.9795 146.842 18.9524 146.762C18.8641 146.497 18.7839 146.241 18.7117 145.961C18.6845 145.853 18.7003 145.74 18.7558 145.644C18.8112 145.548 18.9019 145.478 19.0085 145.448C19.1149 145.421 19.2276 145.437 19.3222 145.492C19.4168 145.548 19.4857 145.638 19.514 145.744C19.5862 145.993 19.6665 146.241 19.7467 146.489C19.7801 146.587 19.7736 146.694 19.7285 146.787C19.6835 146.88 19.6035 146.952 19.506 146.986V146.986C19.4686 147.007 19.4279 147.02 19.3857 147.026L19.3375 147.034ZM194.584 146.842H194.464C194.365 146.811 194.282 146.742 194.233 146.651C194.183 146.56 194.171 146.453 194.199 146.353C194.271 146.105 194.352 145.856 194.416 145.6C194.444 145.494 194.513 145.404 194.608 145.348C194.702 145.293 194.815 145.277 194.921 145.304C195.028 145.334 195.119 145.404 195.174 145.5C195.229 145.596 195.245 145.709 195.218 145.816V145.816L194.985 146.618C194.95 146.692 194.892 146.753 194.82 146.793C194.748 146.833 194.666 146.85 194.584 146.842ZM18.4549 142.347C18.3512 142.347 18.2515 142.307 18.1767 142.235C18.102 142.164 18.0579 142.066 18.0537 141.962V141.161C18.0557 141.057 18.0975 140.957 18.1706 140.883C18.2437 140.808 18.3425 140.764 18.4469 140.76C18.5513 140.762 18.651 140.804 18.7256 140.877C18.8002 140.95 18.844 141.049 18.8481 141.153V141.954C18.8513 142.006 18.8444 142.058 18.8276 142.106C18.8108 142.155 18.7844 142.2 18.7502 142.239C18.7159 142.278 18.6743 142.309 18.6277 142.332C18.5812 142.355 18.5306 142.368 18.479 142.371V142.371L18.4549 142.347ZM195.459 142.147C195.352 142.14 195.251 142.092 195.179 142.013C195.107 141.934 195.069 141.829 195.074 141.722V140.921C195.074 140.814 195.116 140.713 195.191 140.637C195.266 140.562 195.368 140.52 195.475 140.52C195.581 140.52 195.683 140.562 195.759 140.637C195.834 140.713 195.876 140.814 195.876 140.921V141.722C195.879 141.775 195.872 141.827 195.855 141.877C195.838 141.927 195.811 141.973 195.776 142.012C195.741 142.052 195.698 142.084 195.651 142.107C195.603 142.13 195.552 142.144 195.499 142.147H195.459ZM195.459 140.151C195.357 140.15 195.26 140.11 195.185 140.041C195.111 139.971 195.066 139.876 195.058 139.775C195.049 139.507 195.024 139.239 194.985 138.974C194.974 138.866 195.006 138.759 195.073 138.675C195.141 138.591 195.239 138.537 195.347 138.525C195.399 138.519 195.453 138.524 195.503 138.54C195.554 138.555 195.601 138.58 195.642 138.613C195.684 138.647 195.718 138.688 195.742 138.735C195.767 138.782 195.783 138.833 195.788 138.885C195.788 139.15 195.844 139.422 195.86 139.687C195.864 139.739 195.858 139.792 195.842 139.843C195.826 139.893 195.8 139.94 195.766 139.98C195.731 140.02 195.689 140.053 195.642 140.077C195.595 140.101 195.544 140.115 195.491 140.119V140.119L195.459 140.151ZM18.8641 137.579H18.7758C18.7247 137.57 18.6761 137.55 18.6328 137.521C18.5895 137.493 18.5525 137.455 18.524 137.412C18.4956 137.369 18.4762 137.32 18.467 137.269C18.4579 137.218 18.4592 137.165 18.4709 137.115C18.5271 136.842 18.5913 136.578 18.6635 136.313C18.6766 136.263 18.6994 136.216 18.7307 136.175C18.762 136.134 18.8011 136.099 18.8459 136.073C18.8906 136.047 18.9401 136.03 18.9914 136.023C19.0427 136.016 19.0949 136.02 19.1449 136.033V136.033C19.2468 136.061 19.3334 136.128 19.386 136.22C19.4385 136.311 19.4528 136.42 19.4258 136.522C19.3616 136.77 19.2974 137.027 19.2412 137.283C19.22 137.367 19.1714 137.442 19.1032 137.495C19.035 137.549 18.9509 137.579 18.8641 137.579V137.579ZM194.496 135.472C194.413 135.469 194.333 135.442 194.266 135.393C194.199 135.345 194.148 135.277 194.119 135.2C194.039 134.951 193.942 134.703 193.854 134.463C193.835 134.414 193.825 134.361 193.826 134.309C193.826 134.256 193.837 134.204 193.858 134.156C193.879 134.107 193.909 134.063 193.947 134.027C193.985 133.99 194.03 133.961 194.079 133.942C194.128 133.922 194.181 133.913 194.234 133.914C194.287 133.916 194.34 133.927 194.388 133.949C194.437 133.971 194.48 134.002 194.517 134.04C194.553 134.079 194.582 134.124 194.6 134.174C194.697 134.422 194.793 134.679 194.881 134.975C194.917 135.075 194.912 135.185 194.867 135.281C194.822 135.378 194.74 135.452 194.64 135.488C194.588 135.5 194.533 135.5 194.48 135.488L194.496 135.472ZM20.4528 133.068C20.3951 133.084 20.334 133.084 20.2763 133.068C20.183 133.023 20.1113 132.943 20.0768 132.846C20.0422 132.748 20.0476 132.641 20.0917 132.548C20.2041 132.307 20.3325 132.067 20.4608 131.826C20.4845 131.78 20.5174 131.738 20.5575 131.704C20.5975 131.67 20.644 131.645 20.6941 131.629C20.7442 131.613 20.7969 131.608 20.8492 131.613C20.9015 131.618 20.9522 131.633 20.9984 131.658C21.0907 131.71 21.159 131.797 21.1889 131.898C21.2189 132 21.2081 132.109 21.1589 132.203L20.7978 132.9C20.7621 132.959 20.7112 133.007 20.6505 133.039C20.5898 133.072 20.5216 133.087 20.4528 133.084V133.068ZM192.434 131.145C192.366 131.147 192.3 131.13 192.241 131.098C192.182 131.066 192.132 131.019 192.097 130.961C191.96 130.737 191.816 130.512 191.672 130.296C191.613 130.206 191.592 130.098 191.613 129.993C191.634 129.888 191.695 129.795 191.784 129.735C191.873 129.678 191.982 129.658 192.086 129.681C192.189 129.703 192.28 129.766 192.338 129.855C192.49 130.08 192.634 130.312 192.779 130.536C192.807 130.582 192.825 130.632 192.833 130.684C192.841 130.736 192.839 130.79 192.826 130.841C192.814 130.893 192.791 130.941 192.759 130.984C192.728 131.026 192.688 131.062 192.643 131.089V131.089C192.572 131.131 192.491 131.151 192.41 131.145H192.434ZM22.9883 129.006C22.9004 129.005 22.8154 128.974 22.7476 128.918C22.7057 128.887 22.6704 128.848 22.6436 128.804C22.6169 128.759 22.5993 128.71 22.5918 128.658C22.5844 128.607 22.5872 128.554 22.6002 128.504C22.6131 128.454 22.636 128.406 22.6674 128.365L23.1648 127.732C23.2021 127.694 23.2465 127.665 23.2954 127.644C23.3443 127.624 23.3967 127.613 23.4497 127.613C23.5026 127.613 23.5551 127.624 23.604 127.644C23.6529 127.665 23.6972 127.694 23.7345 127.732C23.8015 127.798 23.8437 127.885 23.8539 127.978C23.8641 128.072 23.8418 128.166 23.7907 128.245L23.3012 128.87C23.261 128.922 23.2086 128.964 23.1485 128.992C23.0884 129.02 23.0224 129.033 22.9562 129.03L22.9883 129.006ZM189.569 127.299C189.512 127.299 189.455 127.286 189.403 127.263C189.35 127.24 189.303 127.206 189.265 127.163C189.096 126.971 188.919 126.77 188.735 126.578C188.699 126.539 188.671 126.494 188.653 126.444C188.635 126.394 188.627 126.342 188.629 126.289C188.631 126.236 188.644 126.184 188.666 126.136C188.688 126.088 188.72 126.045 188.759 126.009C188.798 125.973 188.844 125.946 188.893 125.928C188.943 125.909 188.996 125.901 189.049 125.903C189.102 125.906 189.154 125.918 189.202 125.941C189.25 125.963 189.293 125.994 189.329 126.033V126.033L189.866 126.634C189.904 126.671 189.934 126.716 189.954 126.765C189.974 126.813 189.985 126.866 189.985 126.919C189.985 126.972 189.974 127.024 189.954 127.073C189.934 127.122 189.904 127.166 189.866 127.203C189.822 127.24 189.771 127.268 189.716 127.284C189.661 127.301 189.603 127.306 189.545 127.299H189.569ZM26.1818 125.408C26.1035 125.409 26.0267 125.386 25.961 125.344C25.8953 125.302 25.8435 125.241 25.8119 125.169C25.7803 125.098 25.7704 125.018 25.7834 124.941C25.7964 124.864 25.8317 124.793 25.8849 124.735C26.0694 124.543 26.27 124.359 26.4626 124.174C26.4999 124.137 26.5443 124.107 26.5932 124.087C26.642 124.066 26.6945 124.056 26.7474 124.056C26.8004 124.056 26.8528 124.066 26.9017 124.087C26.9506 124.107 26.995 124.137 27.0323 124.174V124.174C27.1053 124.248 27.1463 124.347 27.1463 124.451C27.1463 124.554 27.1053 124.654 27.0323 124.727V124.727L26.4626 125.28C26.4237 125.324 26.3752 125.358 26.321 125.38C26.2668 125.403 26.2082 125.412 26.1497 125.408H26.1818ZM186.159 123.918C186.061 123.916 185.967 123.879 185.895 123.814L185.293 123.301C185.212 123.231 185.162 123.133 185.153 123.026C185.144 122.92 185.177 122.814 185.245 122.732C185.316 122.653 185.414 122.604 185.52 122.595C185.626 122.586 185.731 122.618 185.814 122.684L186.424 123.213C186.504 123.284 186.552 123.383 186.56 123.489C186.567 123.595 186.533 123.7 186.464 123.782C186.424 123.829 186.373 123.866 186.316 123.889C186.259 123.913 186.197 123.923 186.135 123.918H186.159ZM29.7764 122.251C29.6707 122.247 29.5707 122.202 29.4974 122.126C29.4241 122.05 29.3832 121.948 29.3832 121.843C29.3867 121.784 29.402 121.727 29.4282 121.675C29.4544 121.623 29.491 121.576 29.5357 121.538L30.1696 121.041C30.2567 120.979 30.3644 120.953 30.4705 120.968C30.5765 120.983 30.6727 121.038 30.7393 121.122C30.8011 121.207 30.8272 121.314 30.8123 121.418C30.7973 121.523 30.7424 121.617 30.659 121.682L30.0252 122.171C29.9535 122.225 29.866 122.253 29.7764 122.251V122.251ZM182.364 120.937C182.281 120.938 182.2 120.913 182.131 120.865L181.473 120.408C181.385 120.348 181.325 120.255 181.305 120.15C181.285 120.044 181.308 119.936 181.369 119.848C181.43 119.759 181.523 119.699 181.628 119.679C181.734 119.66 181.843 119.683 181.931 119.743L182.597 120.208C182.681 120.272 182.738 120.366 182.754 120.471C182.771 120.575 182.746 120.682 182.685 120.769C182.649 120.821 182.601 120.863 182.545 120.892C182.489 120.922 182.427 120.937 182.364 120.937V120.937ZM33.7 119.471C33.6151 119.47 33.5327 119.442 33.4646 119.391C33.3966 119.34 33.3465 119.269 33.3215 119.188C33.2965 119.107 33.2979 119.02 33.3256 118.94C33.3533 118.86 33.4057 118.79 33.4754 118.742V118.742L34.1574 118.309C34.2478 118.253 34.357 118.235 34.4608 118.259C34.5646 118.283 34.6546 118.347 34.711 118.437C34.7674 118.528 34.7856 118.637 34.7615 118.74C34.7374 118.844 34.6731 118.934 34.5826 118.99L33.9167 119.415C33.8491 119.456 33.7714 119.479 33.692 119.479L33.7 119.471ZM178.328 118.309C178.257 118.311 178.187 118.291 178.128 118.253L177.438 117.844C177.392 117.819 177.352 117.786 177.32 117.745C177.287 117.704 177.263 117.658 177.249 117.608C177.235 117.558 177.231 117.506 177.237 117.454C177.243 117.403 177.26 117.353 177.285 117.308C177.34 117.216 177.429 117.15 177.532 117.123C177.636 117.096 177.746 117.11 177.839 117.163L178.529 117.572C178.574 117.597 178.614 117.631 178.647 117.672C178.679 117.713 178.702 117.759 178.716 117.81C178.729 117.86 178.732 117.912 178.725 117.964C178.718 118.015 178.7 118.064 178.673 118.109V118.109C178.638 118.169 178.588 118.22 178.527 118.255C178.467 118.29 178.398 118.309 178.328 118.309V118.309ZM37.8403 117.011C37.7508 117.012 37.6638 116.982 37.593 116.928C37.5222 116.873 37.4717 116.796 37.4495 116.71C37.4274 116.623 37.4349 116.532 37.4708 116.45C37.5067 116.368 37.569 116.3 37.6477 116.258V116.258L38.3538 115.873C38.4485 115.823 38.5592 115.813 38.6615 115.845C38.7638 115.876 38.8494 115.947 38.8994 116.042C38.9494 116.136 38.9598 116.247 38.9282 116.349C38.8966 116.451 38.8256 116.537 38.7309 116.586L38.0329 116.963C37.9737 116.995 37.9075 117.011 37.8403 117.011ZM174.124 116.01C174.06 116.012 173.996 115.999 173.939 115.969L173.225 115.609C173.132 115.564 173.06 115.484 173.025 115.386C172.991 115.289 172.996 115.182 173.04 115.088V115.088C173.064 115.041 173.096 114.998 173.135 114.963C173.175 114.928 173.221 114.902 173.271 114.885C173.321 114.867 173.374 114.86 173.426 114.864C173.479 114.867 173.531 114.881 173.578 114.904L174.3 115.272C174.347 115.298 174.388 115.332 174.421 115.373C174.454 115.414 174.479 115.461 174.494 115.512C174.509 115.562 174.514 115.615 174.508 115.668C174.502 115.72 174.486 115.771 174.461 115.817C174.428 115.88 174.379 115.933 174.318 115.97C174.257 116.007 174.187 116.026 174.116 116.026L174.124 116.01ZM42.133 114.824C42.0578 114.824 41.9841 114.803 41.9202 114.763C41.8564 114.724 41.805 114.667 41.7719 114.599C41.727 114.503 41.7212 114.394 41.7556 114.294C41.7901 114.194 41.8621 114.111 41.9565 114.063V114.063L42.6866 113.726C42.7799 113.695 42.8814 113.7 42.9716 113.738C43.0619 113.777 43.1347 113.848 43.1763 113.937C43.2178 114.026 43.2253 114.127 43.1971 114.221C43.169 114.315 43.1072 114.396 43.0236 114.447L42.3015 114.792C42.248 114.813 42.1907 114.824 42.133 114.824V114.824ZM169.783 113.91C169.731 113.926 169.675 113.926 169.622 113.91L168.908 113.606C168.814 113.562 168.741 113.483 168.704 113.386C168.667 113.29 168.669 113.182 168.71 113.087C168.75 112.992 168.826 112.916 168.921 112.875C169.017 112.834 169.124 112.832 169.221 112.869L169.959 113.189C170.064 113.212 170.155 113.275 170.214 113.365C170.273 113.454 170.294 113.563 170.273 113.668C170.252 113.773 170.19 113.866 170.102 113.926C170.013 113.986 169.904 114.009 169.799 113.99L169.783 113.91ZM46.538 112.885C46.4591 112.883 46.3822 112.859 46.3167 112.815C46.2512 112.771 46.1999 112.709 46.1689 112.636C46.1311 112.538 46.1325 112.43 46.1729 112.333C46.2132 112.236 46.2894 112.158 46.3856 112.115L47.1318 111.811C47.1808 111.791 47.2331 111.782 47.2859 111.782C47.3386 111.783 47.3907 111.794 47.4391 111.815C47.4876 111.836 47.5314 111.866 47.5682 111.904C47.6049 111.942 47.6339 111.986 47.6533 112.035C47.6742 112.084 47.6852 112.136 47.6855 112.188C47.6859 112.241 47.6757 112.293 47.6555 112.342C47.6352 112.39 47.6055 112.434 47.5679 112.471C47.5303 112.508 47.4857 112.537 47.4367 112.556L46.6905 112.853C46.6377 112.865 46.5828 112.865 46.53 112.853L46.538 112.885ZM165.338 112.083H165.193L164.447 111.795C164.341 111.769 164.249 111.703 164.192 111.61C164.134 111.516 164.117 111.404 164.142 111.298C164.168 111.192 164.234 111.1 164.328 111.043C164.421 110.986 164.533 110.968 164.64 110.994H164.728L165.482 111.282C165.579 111.321 165.657 111.397 165.699 111.493C165.741 111.589 165.744 111.697 165.707 111.795C165.674 111.865 165.62 111.924 165.553 111.963C165.485 112.002 165.407 112.019 165.33 112.011L165.338 112.083ZM51.0233 111.202C50.9419 111.198 50.8633 111.171 50.7966 111.124C50.7299 111.077 50.6778 111.013 50.6462 110.938C50.6101 110.838 50.6151 110.728 50.6603 110.631C50.7054 110.535 50.7869 110.461 50.8869 110.425L51.6893 110.152C51.7893 110.116 51.8996 110.121 51.9959 110.166C52.0922 110.211 52.1666 110.293 52.2028 110.393V110.393C52.2361 110.493 52.2286 110.602 52.1821 110.696C52.1355 110.791 52.0536 110.863 51.9541 110.898L51.1998 111.17C51.145 111.196 51.084 111.207 51.0233 111.202V111.202ZM160.796 110.401H160.668L159.914 110.144C159.807 110.111 159.718 110.038 159.666 109.939C159.614 109.841 159.604 109.726 159.637 109.62C159.67 109.513 159.744 109.424 159.842 109.373C159.941 109.321 160.056 109.31 160.162 109.343L160.925 109.599C161.023 109.631 161.106 109.699 161.156 109.791C161.205 109.882 161.217 109.988 161.189 110.088C161.169 110.177 161.119 110.257 161.048 110.314C160.976 110.37 160.888 110.401 160.796 110.401V110.401ZM55.5888 109.599C55.5361 109.607 55.4823 109.605 55.4306 109.592C55.3788 109.578 55.3303 109.555 55.2877 109.523C55.2451 109.491 55.2094 109.451 55.1825 109.405C55.1557 109.359 55.1383 109.308 55.1315 109.255C55.1224 109.203 55.1239 109.149 55.1361 109.098C55.1483 109.046 55.1708 108.997 55.2023 108.955C55.2338 108.912 55.2736 108.876 55.3193 108.849C55.3651 108.822 55.4158 108.805 55.4685 108.798L56.2708 108.558C56.3719 108.528 56.4808 108.539 56.5739 108.588C56.667 108.638 56.7368 108.722 56.7683 108.822C56.7847 108.87 56.7915 108.921 56.7883 108.971C56.7851 109.022 56.7719 109.071 56.7495 109.117C56.7272 109.162 56.696 109.202 56.658 109.236C56.6199 109.269 56.5756 109.295 56.5276 109.311L55.7252 109.551C55.6912 109.573 55.6528 109.587 55.6129 109.591L55.5888 109.599ZM156.207 108.958C156.17 108.967 156.131 108.967 156.094 108.958L155.292 108.734C155.191 108.7 155.107 108.628 155.057 108.534C155.007 108.44 154.996 108.33 155.024 108.227C155.053 108.125 155.12 108.037 155.212 107.982C155.303 107.927 155.412 107.91 155.517 107.933L156.319 108.157C156.37 108.171 156.418 108.195 156.46 108.228C156.501 108.26 156.536 108.301 156.561 108.348C156.587 108.394 156.603 108.445 156.608 108.498C156.613 108.55 156.608 108.604 156.592 108.654C156.578 108.746 156.532 108.83 156.461 108.89C156.39 108.951 156.3 108.984 156.207 108.983V108.958ZM60.2105 108.245C60.1582 108.253 60.1048 108.25 60.0536 108.237C60.0024 108.224 59.9544 108.201 59.9124 108.169C59.8705 108.136 59.8355 108.096 59.8095 108.05C59.7835 108.004 59.7671 107.953 59.7612 107.901C59.7533 107.848 59.7559 107.794 59.7691 107.743C59.7822 107.691 59.8055 107.643 59.8376 107.6C59.8698 107.558 59.9101 107.522 59.9562 107.495C60.0023 107.468 60.0533 107.451 60.1062 107.444L60.9086 107.236C61.01 107.221 61.1132 107.245 61.1984 107.302C61.2836 107.358 61.345 107.444 61.3707 107.543C61.3965 107.642 61.3849 107.748 61.3382 107.839C61.2914 107.93 61.2128 108 61.1172 108.037L60.3148 108.245C60.2805 108.254 60.2448 108.254 60.2105 108.245ZM151.569 107.684H151.465L150.662 107.484C150.559 107.459 150.47 107.395 150.415 107.305C150.359 107.215 150.341 107.106 150.365 107.003C150.392 106.9 150.458 106.811 150.55 106.755C150.641 106.7 150.751 106.683 150.855 106.707L151.657 106.907C151.71 106.914 151.761 106.93 151.807 106.956C151.853 106.982 151.894 107.017 151.927 107.059C151.96 107.1 151.984 107.148 151.998 107.199C152.012 107.25 152.017 107.303 152.01 107.356C152.004 107.409 151.987 107.459 151.961 107.506C151.935 107.552 151.9 107.592 151.859 107.625C151.817 107.658 151.769 107.682 151.718 107.696C151.667 107.711 151.614 107.715 151.561 107.709L151.569 107.684ZM64.9124 107.052C64.806 107.063 64.6993 107.032 64.6158 106.965C64.5323 106.898 64.4788 106.801 64.4671 106.695C64.4554 106.589 64.4864 106.482 64.5534 106.399C64.6204 106.315 64.7178 106.262 64.8242 106.25L65.6265 106.066C65.7329 106.039 65.8455 106.056 65.9396 106.112C66.0336 106.169 66.1014 106.26 66.128 106.366C66.1546 106.473 66.1379 106.585 66.0814 106.679C66.025 106.773 65.9335 106.841 65.8271 106.867V106.867L65.0247 107.052H64.9124ZM146.923 106.555H146.835L146.033 106.386C145.981 106.375 145.932 106.354 145.888 106.323C145.845 106.293 145.808 106.254 145.78 106.21C145.751 106.165 145.732 106.115 145.723 106.063C145.714 106.011 145.716 105.957 145.728 105.906C145.737 105.855 145.757 105.806 145.786 105.763C145.814 105.72 145.852 105.683 145.895 105.654C145.939 105.626 145.988 105.606 146.039 105.597C146.09 105.588 146.142 105.59 146.193 105.601L146.995 105.777C147.048 105.782 147.099 105.798 147.146 105.823C147.193 105.848 147.234 105.882 147.268 105.923C147.302 105.964 147.327 106.011 147.342 106.062C147.357 106.112 147.362 106.166 147.356 106.218C147.344 106.325 147.29 106.423 147.206 106.491C147.122 106.558 147.015 106.59 146.907 106.579L146.923 106.555ZM69.6143 106.01C69.523 106.01 69.4342 105.98 69.3627 105.923C69.2912 105.866 69.2413 105.786 69.2212 105.697C69.2018 105.592 69.2234 105.484 69.2816 105.395C69.3399 105.305 69.4302 105.242 69.5341 105.217L70.3365 105.056C70.4417 105.037 70.5501 105.06 70.6386 105.12C70.727 105.18 70.7885 105.272 70.8099 105.377C70.8204 105.428 70.8207 105.482 70.8107 105.533C70.8007 105.585 70.7805 105.634 70.7515 105.678C70.7224 105.722 70.685 105.76 70.6413 105.789C70.5976 105.819 70.5486 105.839 70.497 105.85V105.85L69.6946 106.002L69.6143 106.01ZM142.213 105.585H142.133L141.331 105.441C141.226 105.42 141.134 105.358 141.074 105.27C141.014 105.182 140.991 105.073 141.01 104.968C141.029 104.864 141.089 104.772 141.176 104.712C141.263 104.652 141.371 104.629 141.475 104.648L142.277 104.8C142.382 104.819 142.474 104.879 142.534 104.966C142.594 105.053 142.617 105.161 142.598 105.265C142.578 105.361 142.524 105.446 142.446 105.506C142.368 105.567 142.271 105.597 142.173 105.593L142.213 105.585ZM74.3483 105.112C74.2419 105.122 74.1361 105.089 74.0541 105.021C73.9721 104.952 73.9206 104.854 73.9111 104.748C73.9015 104.642 73.9346 104.536 74.003 104.454C74.0715 104.372 74.1697 104.321 74.2761 104.311L75.0785 104.175C75.1312 104.166 75.1851 104.168 75.2372 104.179C75.2893 104.191 75.3386 104.213 75.3822 104.244C75.4258 104.275 75.4628 104.314 75.4913 104.359C75.5197 104.405 75.5389 104.455 75.5479 104.508C75.5569 104.56 75.5553 104.614 75.5435 104.666C75.5316 104.718 75.5095 104.767 75.4786 104.811C75.4477 104.854 75.4085 104.891 75.3632 104.92C75.318 104.948 75.2676 104.967 75.2149 104.976L74.4125 105.112H74.3483ZM137.471 104.752H137.407L136.605 104.624C136.5 104.606 136.407 104.548 136.344 104.463C136.281 104.378 136.254 104.272 136.268 104.167C136.287 104.063 136.347 103.97 136.434 103.909C136.521 103.847 136.628 103.822 136.733 103.838L137.535 103.959C137.64 103.978 137.733 104.038 137.794 104.124C137.856 104.211 137.881 104.318 137.864 104.423C137.86 104.476 137.846 104.527 137.822 104.574C137.798 104.622 137.765 104.663 137.724 104.698C137.684 104.732 137.638 104.758 137.587 104.774C137.537 104.79 137.484 104.796 137.431 104.792L137.471 104.752ZM79.0984 104.351C79.0461 104.356 78.9935 104.349 78.9436 104.333C78.8937 104.317 78.8476 104.291 78.808 104.257C78.7683 104.222 78.736 104.18 78.7128 104.133C78.6897 104.086 78.6762 104.035 78.6731 103.983C78.6688 103.93 78.6748 103.877 78.691 103.827C78.7072 103.776 78.7332 103.73 78.7676 103.69C78.8019 103.649 78.8438 103.616 78.8909 103.592C78.9381 103.568 78.9895 103.554 79.0422 103.55L79.8446 103.438C79.9496 103.424 80.056 103.451 80.1413 103.514C80.2266 103.577 80.2842 103.67 80.302 103.774V103.774C80.3158 103.88 80.2874 103.988 80.2228 104.073C80.1583 104.158 80.0629 104.215 79.9569 104.231L79.1546 104.343L79.0984 104.351ZM132.705 104.047H132.649L131.847 103.943C131.741 103.929 131.646 103.874 131.581 103.789C131.516 103.705 131.488 103.599 131.502 103.494C131.514 103.391 131.566 103.297 131.647 103.233C131.728 103.168 131.832 103.138 131.935 103.149V103.149L132.737 103.254C132.84 103.266 132.934 103.318 132.999 103.399C133.064 103.48 133.094 103.583 133.082 103.686C133.078 103.739 133.064 103.79 133.04 103.837C133.016 103.884 132.983 103.926 132.942 103.961C132.902 103.995 132.855 104.021 132.805 104.037C132.755 104.053 132.702 104.059 132.649 104.055V104.055L132.705 104.047ZM127.891 103.478L127.088 103.39C126.983 103.378 126.887 103.325 126.821 103.242C126.755 103.159 126.724 103.054 126.735 102.949C126.751 102.846 126.805 102.752 126.887 102.687C126.969 102.621 127.072 102.589 127.177 102.596L127.979 102.677C128.085 102.677 128.188 102.719 128.263 102.794C128.338 102.869 128.38 102.971 128.38 103.077C128.38 103.184 128.338 103.285 128.263 103.361C128.188 103.436 128.085 103.478 127.979 103.478H127.891ZM123.077 103.029L122.274 102.965C122.221 102.961 122.17 102.947 122.123 102.923C122.076 102.899 122.034 102.866 122 102.825C121.965 102.785 121.939 102.739 121.923 102.688C121.907 102.638 121.901 102.585 121.905 102.532V102.532C121.917 102.428 121.969 102.331 122.049 102.263C122.129 102.194 122.233 102.159 122.338 102.164L123.141 102.228C123.192 102.231 123.243 102.244 123.29 102.267C123.336 102.289 123.378 102.321 123.412 102.36C123.446 102.398 123.473 102.444 123.489 102.492C123.506 102.541 123.513 102.593 123.51 102.645C123.509 102.697 123.497 102.749 123.476 102.797C123.455 102.845 123.425 102.889 123.387 102.926C123.349 102.962 123.304 102.991 123.255 103.01C123.206 103.029 123.153 103.038 123.101 103.037V103.037L123.077 103.029ZM118.262 102.701H117.46C117.354 102.694 117.254 102.646 117.183 102.566C117.113 102.487 117.076 102.382 117.083 102.276C117.089 102.17 117.138 102.07 117.217 102C117.297 101.929 117.402 101.893 117.508 101.899L118.31 101.947C118.417 101.947 118.519 101.99 118.594 102.065C118.669 102.14 118.712 102.242 118.712 102.348C118.712 102.454 118.669 102.556 118.594 102.631C118.519 102.707 118.417 102.749 118.31 102.749L118.262 102.701ZM113.448 102.484H112.646C112.593 102.483 112.541 102.472 112.493 102.451C112.445 102.43 112.401 102.399 112.364 102.361C112.328 102.323 112.299 102.279 112.28 102.23C112.261 102.181 112.251 102.128 112.253 102.076V102.076C112.254 102.022 112.265 101.97 112.287 101.921C112.309 101.872 112.34 101.828 112.379 101.792C112.417 101.755 112.463 101.727 112.513 101.708C112.563 101.689 112.616 101.681 112.67 101.683H113.472C113.579 101.683 113.681 101.725 113.756 101.8C113.831 101.876 113.873 101.977 113.873 102.084C113.873 102.19 113.831 102.292 113.756 102.367C113.681 102.442 113.579 102.484 113.472 102.484H113.448ZM108.634 102.388H107.831C107.725 102.388 107.623 102.346 107.548 102.271C107.473 102.196 107.43 102.094 107.43 101.988C107.434 101.883 107.478 101.783 107.552 101.709C107.627 101.634 107.726 101.591 107.831 101.587H108.634C108.687 101.588 108.738 101.599 108.787 101.62C108.835 101.642 108.879 101.672 108.915 101.71C108.952 101.748 108.98 101.793 109 101.842C109.019 101.891 109.028 101.943 109.027 101.996V101.996C109.027 102.096 108.989 102.192 108.92 102.265C108.852 102.338 108.758 102.382 108.658 102.388H108.634Z" fill="#70A9A1"/>
<path d="M16.1118 151.537C24.7663 151.537 31.7822 144.531 31.7822 135.889C31.7822 127.246 24.7663 120.24 16.1118 120.24C7.45728 120.24 0.441406 127.246 0.441406 135.889C0.441406 144.531 7.45728 151.537 16.1118 151.537Z" fill="white"/>
<path d="M14.3307 133.91H23.8148V137.579H14.3467V140.36H18.8641V142.451H14.3307V145.656H10.1744V142.451H8.22461V140.328H10.1423V126.097H23.9993V129.751H14.7399C14.3869 129.751 14.2745 129.823 14.2825 130.208V133.413L14.3307 133.91Z" fill="black" fill-opacity="0.7"/>
<path d="M58.1889 115.978C66.8435 115.978 73.8593 108.971 73.8593 100.329C73.8593 91.6865 66.8435 84.6804 58.1889 84.6804C49.5344 84.6804 42.5186 91.6865 42.5186 100.329C42.5186 108.971 49.5344 115.978 58.1889 115.978Z" fill="white"/>
<path d="M68.4425 94.7442L64.7436 96.563C63.3715 94.3916 61.4699 93.3019 58.8622 93.6865C57.8813 93.8172 56.9468 94.1837 56.139 94.7545C55.3312 95.3253 54.6742 96.0834 54.2245 96.9637H61.7186V99.2633H53.4943V101.258H61.7267V103.606H54.1683C54.5936 104.496 55.2332 105.268 56.0299 105.851C56.8266 106.434 57.7556 106.81 58.7338 106.947C59.906 107.185 61.1239 107.034 62.2018 106.516C63.2797 105.998 64.1583 105.142 64.7035 104.079L68.4827 105.906C68.0253 106.523 67.6402 107.124 67.1748 107.668C66.3066 108.696 65.2225 109.521 63.9994 110.083C62.7763 110.645 61.4443 110.931 60.0978 110.922C57.9462 110.995 55.817 110.465 53.9516 109.391C51.9032 108.233 50.3504 106.366 49.5867 104.143C49.4423 103.742 49.2658 103.534 48.7843 103.598C48.4612 103.622 48.1367 103.622 47.8135 103.598V101.274H48.8806V99.2793H47.8135V96.9717H49.0331C49.1351 96.9934 49.2416 96.9746 49.33 96.9193C49.4183 96.864 49.4817 96.7764 49.5065 96.6752V96.6752C50.0294 95.0394 50.9926 93.5787 52.2907 92.4526C53.5313 91.3529 55.0167 90.5646 56.6236 90.153C58.2313 89.7196 59.9116 89.6241 61.5582 89.8725C62.7419 90.0301 63.8813 90.426 64.9075 91.0361C65.9336 91.6462 66.825 92.4579 67.5278 93.4221C67.8087 93.7907 68.0574 94.2234 68.3302 94.5759C68.374 94.6275 68.4117 94.684 68.4425 94.7442Z" fill="black" fill-opacity="0.7"/>
<path d="M157.755 118.157C166.41 118.157 173.426 111.151 173.426 102.508C173.426 93.866 166.41 86.8599 157.755 86.8599C149.101 86.8599 142.085 93.866 142.085 102.508C142.085 111.151 149.101 118.157 157.755 118.157Z" fill="white"/>
<path d="M151.987 112.893L150.526 109.96C150.895 109.744 151.273 109.551 151.626 109.319C152.618 108.761 153.38 107.869 153.776 106.803C153.971 106.064 153.885 105.279 153.535 104.6C153.535 104.519 153.319 104.463 153.198 104.463H149.86V101.963H151.826C151.505 101.379 151.168 100.834 150.911 100.249C150.549 99.4429 150.402 98.5566 150.487 97.6772C150.571 96.7977 150.883 95.9553 151.393 95.2329C151.929 94.4168 152.629 93.7201 153.448 93.1865C154.267 92.653 155.187 92.294 156.151 92.132C158.235 91.6702 160.414 91.9213 162.337 92.8451C163.535 93.4554 164.505 94.4326 165.105 95.6335L161.687 97.5806C161.416 97.1721 161.118 96.7814 160.797 96.4107C160.375 95.9889 159.844 95.691 159.264 95.5497C158.684 95.4084 158.076 95.4291 157.507 95.6095C156.759 95.7638 156.103 96.2083 155.683 96.8454C155.264 97.4824 155.114 98.2599 155.268 99.0068C155.317 99.2489 155.398 99.4833 155.509 99.7039C155.837 100.428 156.223 101.125 156.664 101.787C156.716 101.843 156.78 101.887 156.851 101.916C156.921 101.945 156.997 101.959 157.074 101.955H161.166V104.447H157.716C157.805 105.19 157.691 105.943 157.386 106.626C157.081 107.309 156.596 107.896 155.982 108.325L156.576 108.253C157.686 108.15 158.801 108.373 159.786 108.894C160.377 109.18 161.035 109.295 161.689 109.229C162.342 109.162 162.963 108.916 163.485 108.518C163.638 108.397 163.78 108.263 163.91 108.117C164.488 109.263 165.049 110.393 165.627 111.555C165.098 112.11 164.431 112.514 163.693 112.724C162.09 113.245 160.362 113.245 158.759 112.724C158.292 112.566 157.834 112.385 157.387 112.18C156.759 111.902 156.079 111.765 155.393 111.777C154.707 111.789 154.032 111.951 153.415 112.252L151.987 112.893Z" fill="black" fill-opacity="0.7"/>
<path d="M186.232 172.859C194.886 172.859 201.902 165.853 201.902 157.21C201.902 148.568 194.886 141.562 186.232 141.562C177.577 141.562 170.562 148.568 170.562 157.21C170.562 165.853 177.577 172.859 186.232 172.859Z" fill="white"/>
<path d="M186.255 155.383L187.29 153.701C188.398 151.89 189.513 150.079 190.612 148.26C190.664 148.15 190.75 148.058 190.856 147.998C190.962 147.938 191.084 147.912 191.206 147.924H195.386C193.477 150.864 191.615 153.749 189.705 156.681H194.584V158.909H188.237V161.112H194.584V163.284H188.245V166.489H184.297V163.284H177.967V161.104H184.257V158.901H177.959V156.681H182.829L177.116 147.868H181.313C181.405 147.856 181.499 147.873 181.582 147.916C181.665 147.959 181.734 148.026 181.778 148.108C182.693 149.609 183.613 151.105 184.538 152.595L186.255 155.383Z" fill="black" fill-opacity="0.7"/>
<path d="M57.811 189.004C66.4655 189.004 73.4814 181.998 73.4814 173.356C73.4814 164.713 66.4655 157.707 57.811 157.707C49.1565 157.707 42.1406 164.713 42.1406 173.356C42.1406 181.998 49.1565 189.004 57.811 189.004Z" fill="white"/>
<path d="M56.504 163.284V160.64H59.5931V163.356C61.8146 163.624 63.8964 164.579 65.5467 166.088L63.0433 169.389C62.0804 168.483 60.9051 167.833 59.6252 167.498V171.136C60.4276 171.409 61.23 171.633 61.9762 171.937C63.3124 172.297 64.4581 173.157 65.1742 174.34C65.8903 175.522 66.1215 176.935 65.8195 178.283C65.7017 179.106 65.4023 179.892 64.9429 180.585C64.4836 181.278 63.8759 181.86 63.1637 182.29C62.1844 182.88 61.0901 183.254 59.9542 183.387C59.6493 183.387 59.5931 183.54 59.6011 183.812V186.048H56.504V183.54C55.7016 183.371 54.9393 183.235 54.1931 183.035C52.6537 182.643 51.2398 181.865 50.085 180.775C49.5955 180.327 49.6035 180.311 49.9887 179.766C50.6546 178.812 51.3286 177.867 52.0347 176.873C53.214 178.172 54.7715 179.069 56.4879 179.437V175.303C55.6053 175.006 54.7468 174.766 53.9203 174.429C53.1826 174.191 52.5052 173.796 51.9346 173.272C51.364 172.748 50.9137 172.107 50.6145 171.393C50.3379 170.689 50.2094 169.936 50.237 169.18C50.2646 168.425 50.4478 167.683 50.775 167.002C51.2205 166.118 51.8629 165.348 52.653 164.75C53.443 164.153 54.3597 163.745 55.3325 163.556C55.7016 163.444 56.0707 163.388 56.504 163.284ZM59.6172 179.381C60.0789 179.333 60.5087 179.123 60.8303 178.789C61.152 178.454 61.3447 178.017 61.3744 177.554C61.3744 176.865 60.572 176.296 59.6172 176.104V179.381ZM56.4638 170.311V167.29C56.0375 167.3 55.6307 167.471 55.3254 167.768C55.0201 168.065 54.8392 168.467 54.819 168.893C54.819 169.542 55.5251 170.143 56.4638 170.303V170.311Z" fill="black" fill-opacity="0.7"/>
<defs>
<linearGradient id="paint0_linear" x1="91.2147" y1="61.0674" x2="133.008" y2="54.7282" gradientUnits="userSpaceOnUse">
<stop offset="0.01"/>
<stop offset="0.13" stop-opacity="0.69"/>
<stop offset="0.25" stop-opacity="0.32"/>
<stop offset="1" stop-opacity="0"/>
</linearGradient>
<linearGradient id="paint1_linear" x1="15517.1" y1="-2689.14" x2="14351.8" y2="-1556.3" gradientUnits="userSpaceOnUse">
<stop offset="0.01"/>
<stop offset="0.13" stop-opacity="0.69"/>
<stop offset="0.25" stop-opacity="0.32"/>
<stop offset="1" stop-opacity="0"/>
</linearGradient>
<linearGradient id="paint2_linear" x1="2561.48" y1="1261.36" x2="2494.78" y2="1122.98" gradientUnits="userSpaceOnUse">
<stop offset="0.01"/>
<stop offset="0.13" stop-opacity="0.69"/>
<stop offset="0.25" stop-opacity="0.32"/>
<stop offset="1" stop-opacity="0"/>
</linearGradient>
<linearGradient id="paint3_linear" x1="11019.4" y1="-778.223" x2="10961.1" y2="-1025.06" gradientUnits="userSpaceOnUse">
<stop offset="0.01"/>
<stop offset="0.13" stop-opacity="0.69"/>
<stop offset="0.25" stop-opacity="0.32"/>
<stop offset="1" stop-opacity="0"/>
</linearGradient>
<linearGradient id="paint4_linear" x1="68.6518" y1="126.602" x2="128.188" y2="129.013" gradientUnits="userSpaceOnUse">
<stop/>
<stop offset="1" stop-opacity="0"/>
</linearGradient>
<linearGradient id="paint5_linear" x1="6318.2" y1="6269.65" x2="4407.5" y2="6474.85" gradientUnits="userSpaceOnUse">
<stop/>
<stop offset="1" stop-opacity="0"/>
</linearGradient>
<linearGradient id="paint6_linear" x1="3860.8" y1="-1846.52" x2="3726.83" y2="-1635.89" gradientUnits="userSpaceOnUse">
<stop offset="0.01"/>
<stop offset="0.13" stop-opacity="0.69"/>
<stop offset="0.25" stop-opacity="0.32"/>
<stop offset="1" stop-opacity="0"/>
</linearGradient>
</defs>
</svg>
