<svg width="219" height="162" viewBox="0 0 219 162" fill="none" xmlns="http://www.w3.org/2000/svg">
<path d="M103.248 158.259L103.766 158.329C104.142 158.626 103.092 158.689 103.248 158.259Z" fill="url(#paint0_linear)"/>
<path d="M218.044 98.5144C214.19 100.077 210.14 101.547 207.641 103.305L148.489 144.755C143.951 148.021 139.225 151.017 134.333 153.726C130.346 155.875 128.066 159.978 123.241 161.072C120.842 161.488 118.385 161.445 116.002 160.947C112.113 160.314 108.286 159.344 104.565 158.048C104.103 157.892 103.461 157.798 103.257 158.235C68.7888 153.547 35.8169 141.043 1.63865 134.549C1.23955 134.475 0.875286 134.274 0.600732 133.976C0.326178 133.677 0.15621 133.298 0.116435 132.895C0.0766599 132.492 0.169234 132.087 0.380207 131.741C0.591179 131.395 0.909125 131.127 1.28614 130.977C4.14694 129.967 7.10189 129.244 10.1069 128.82C15.5904 127.812 21.0035 126.828 26.4714 125.937C37.4914 124.032 48.6176 122.801 59.788 122.248C78.3381 121.467 97.0527 123.444 115.407 120.576C132.821 117.88 149.264 110.917 165.488 103.985C169.404 102.312 173.384 100.578 176.455 97.6392C178.852 95.3416 180.787 92.2938 183.85 90.7777C186.913 89.2617 190.9 89.4883 194.316 89.6446C201.107 90.1058 207.861 91.009 214.534 92.3485C215.782 94.3752 216.952 96.4305 218.044 98.5144Z" fill="url(#paint1_linear)" fill-opacity="0.1"/>
<path d="M3.16634 122.928L80.5943 89.3241C82.2701 88.4807 84.1639 88.1672 86.023 88.4253L181.79 96.545C183.623 96.8028 183.294 104.665 181.79 105.923L125.246 154C123.539 155.492 121.498 156.555 119.294 157.099C117.09 157.643 114.787 157.652 112.579 157.126L3.84787 130.758C2.46131 130.422 1.86595 123.576 3.16634 122.928Z" fill="url(#paint2_linear)" fill-opacity="0.8"/>
<path d="M181.812 100.359L125.246 148.389C123.543 149.889 121.505 150.959 119.302 151.51C117.1 152.06 114.796 152.076 112.586 151.554L3.83939 125.187C2.45283 124.85 2.27266 122.662 3.56521 122.014L33.388 105.235L41.2216 100.843L65.0438 87.4486C66.7177 86.6078 68.6082 86.2944 70.4647 86.5499L180.841 96.17C182.674 96.3888 183.293 99.1006 181.812 100.359Z" fill="#E2E2E2"/>
<path d="M70.4573 89.207L171.355 104.094L140.302 129.258L36.7412 108.353L70.4573 89.207Z" fill="url(#paint3_linear)" fill-opacity="0.1"/>
<path d="M110.965 115.66C115.254 114.735 119.357 113.094 123.099 110.807C124.133 110.151 125.269 108.971 124.666 107.892C124.258 107.111 123.256 106.9 122.942 106.079C124.313 105.524 125.817 105.782 127.063 104.712C128.308 103.641 128.441 101.586 127.118 100.804C128.156 100.735 129.159 100.401 130.032 99.8351C130.456 99.5405 130.772 99.1143 130.929 98.6225C131.086 98.1308 131.077 97.6011 130.901 97.1155C130.423 96.123 129.17 95.8417 128.089 95.6698C126.575 95.3727 125.032 95.2495 123.491 95.3025C121.726 95.4589 120.017 95.992 118.477 96.8654C117.036 97.6469 115.868 99.0067 114.435 99.7257C111.505 101.195 107.659 101.031 104.51 101.718C102.16 102.226 99.8877 103.11 97.5768 103.805C95.2659 104.501 93.0725 105.001 90.7929 105.501C85.278 106.71 79.75 107.856 74.209 108.939C74.5693 111.401 77.2093 112.761 79.5202 113.691C82.728 115.093 86.0798 116.141 89.516 116.817C92.2078 117.205 94.9313 117.328 97.6473 117.184C102.125 117.106 106.585 116.596 110.965 115.66Z" fill="url(#paint4_linear)" fill-opacity="0.1"/>
<path d="M59.8975 114.59L101.479 122.975L79.9752 140.48L36.7412 130.798L59.8975 114.59Z" fill="url(#paint5_linear)" fill-opacity="0.1"/>
<path d="M39.0986 133.822C39.5229 134.675 40.1245 135.429 40.8633 136.033C41.6021 136.636 42.4613 137.076 43.3837 137.323C46.4388 138.057 64.2447 142.606 64.2447 142.606C64.2447 142.606 67.1432 142.95 68.7491 141.043L39.0986 133.822Z" fill="url(#paint6_linear)"/>
<path d="M67.2842 86.542L181.154 102.703C181.99 102.823 182.839 102.618 183.527 102.131C184.215 101.644 184.69 100.911 184.852 100.085L201.099 18.2482C201.273 17.3747 201.26 16.4744 201.062 15.6061C200.864 14.7377 200.485 13.9208 199.949 13.2085C199.413 12.4963 198.733 11.9046 197.952 11.4722C197.172 11.0399 196.309 10.7764 195.419 10.699L82.9672 0.828886C81.3119 0.684222 79.6657 1.19224 78.3815 2.24405C77.0972 3.29586 76.2772 4.80773 76.0971 6.45557L67.2842 86.542Z" fill="#363636"/>
<path d="M179.118 98.0064L195.295 15.427L80.6018 4.86133L71.4834 83.0488L179.118 98.0064Z" fill="white"/>
<path d="M62.5451 132.267C62.5229 132.483 62.5478 132.702 62.6181 132.909C62.6884 133.115 62.8024 133.304 62.9525 133.462C63.1164 133.577 63.3036 133.654 63.5008 133.689C64.0164 133.791 64.5435 133.823 65.0676 133.783C66.0399 133.715 67.006 133.576 67.9582 133.369L69.6033 133.056C69.7065 133.049 69.8074 133.023 69.9002 132.977C69.9929 132.931 70.0757 132.868 70.1438 132.79C70.1903 132.687 70.2062 132.572 70.1895 132.46C70.1729 132.348 70.1244 132.243 70.0498 132.157C69.7667 131.836 69.401 131.598 68.9922 131.469C68.0084 131.071 66.9947 130.749 65.9606 130.508C65.7892 130.482 65.6259 130.418 65.4828 130.321C65.2791 130.141 65.2399 129.836 65.0989 129.594C64.9568 129.391 64.7571 129.235 64.5254 129.145C64.2937 129.056 64.0406 129.038 63.7985 129.094C63.3285 129.188 62.647 129.508 62.5373 130.024C62.4577 130.769 62.4603 131.522 62.5451 132.267Z" fill="#F9C6D6"/>
<path d="M67.8405 130.704C67.6737 130.66 67.4984 130.661 67.3321 130.707C67.1658 130.752 67.0143 130.84 66.8926 130.962C66.6263 131.36 66.9788 131.993 66.6498 132.353C66.5501 132.434 66.4349 132.495 66.3111 132.532C66.1872 132.568 66.0573 132.579 65.9291 132.564H64.1038C63.6178 132.583 63.1311 132.544 62.6546 132.446C62.5444 132.406 62.4263 132.393 62.3099 132.407C62.2309 132.432 62.1608 132.479 62.108 132.543C62.0551 132.607 62.0219 132.685 62.0122 132.767C61.9931 132.932 62.0174 133.099 62.0827 133.251C62.1974 133.582 62.3669 133.891 62.5841 134.166C62.6412 134.249 62.7161 134.318 62.8034 134.369C62.9062 134.407 63.0151 134.425 63.1246 134.423C64.1978 134.423 65.271 134.423 66.3442 134.377C67.0884 134.322 67.8248 134.212 68.569 134.15C69.6365 134.148 70.696 133.966 71.7025 133.611C71.8342 133.566 71.9556 133.495 72.0592 133.403C72.1628 133.31 72.2467 133.197 72.3057 133.072C72.3374 132.956 72.3418 132.834 72.3187 132.716C72.2956 132.598 72.2456 132.487 72.1725 132.392C72.0276 132.204 71.8464 132.047 71.6398 131.931C71.0532 131.558 70.4105 131.281 69.7362 131.11C69.1149 130.93 68.4813 130.794 67.8405 130.704Z" fill="#565056"/>
<path d="M42.6865 130.266C42.6787 130.305 42.6787 130.345 42.6865 130.383C42.7492 131.821 44.6606 131.86 45.6868 131.805C46.6612 131.737 47.6297 131.601 48.5853 131.399L50.2225 131.087C50.3263 131.079 50.4276 131.051 50.5204 131.004C50.6132 130.957 50.6957 130.892 50.763 130.813C50.8099 130.711 50.8259 130.597 50.8093 130.486C50.7926 130.375 50.7438 130.272 50.669 130.188C50.3891 129.865 50.0262 129.624 49.6193 129.492C48.734 129.155 47.8319 128.863 46.9167 128.617C46.1333 128.375 46.7835 127.257 46.8697 126.663C46.9091 126.547 46.9091 126.42 46.8697 126.304C46.7819 126.173 46.6474 126.081 46.4937 126.046C46.019 125.884 45.5225 125.794 45.021 125.78C44.921 125.77 44.8202 125.789 44.7311 125.835C44.65 125.896 44.5898 125.981 44.5588 126.077L42.992 129.406C42.8372 129.671 42.7336 129.963 42.6865 130.266Z" fill="#F9C6D6"/>
<path d="M43.3838 87.894C43.3838 87.894 42.2166 94.4585 44.6294 99.3897C45.8972 102.037 47.3121 104.612 48.8674 107.103C48.8674 107.103 43.8382 112.526 43.8382 119.364C43.8382 126.202 43.7128 126.515 43.7128 126.515L46.7288 128.078L54.2491 107.111C54.2491 107.111 54.7035 104.141 54.2491 103.133C53.7947 102.125 49.9406 90.6996 49.9406 90.6996L43.3838 87.894Z" fill="#473F47"/>
<path d="M70.7 61.2533C69.1333 61.2533 67.4333 59.5965 66.4855 57.0333C65.3888 54.0714 65.8588 51.3519 67.5822 50.7189C69.3056 50.0859 71.4285 51.8442 72.5252 54.8139C73.6219 57.7757 73.1519 60.4952 71.4285 61.1282C71.195 61.2126 70.9483 61.2549 70.7 61.2533ZM68.3499 51.9927C68.2672 51.9898 68.1847 52.0031 68.107 52.0318C67.3237 52.3287 67.0103 54.3215 67.8329 56.5488C68.6554 58.776 70.183 60.1123 70.9663 59.8153C71.7497 59.5184 72.063 57.5256 71.2405 55.2984C70.4493 53.2743 69.1332 51.9927 68.295 51.9927H68.3499Z" fill="#473F47"/>
<path d="M76.8886 67.763C76.7825 67.764 76.6775 67.7414 76.5813 67.6968C76.4851 67.6522 76.4001 67.5867 76.3324 67.5051L71.1466 61.0032C71.0313 60.8581 70.9784 60.6733 70.9997 60.4893C71.021 60.3054 71.1147 60.1374 71.2601 60.0224C71.4056 59.9074 71.5909 59.8547 71.7752 59.876C71.9596 59.8972 72.128 59.9906 72.2433 60.1357L77.4292 66.6689C77.5128 66.7701 77.5658 66.8931 77.5817 67.0233C77.5977 67.1535 77.5759 67.2855 77.5191 67.4038C77.4623 67.5221 77.3728 67.6217 77.261 67.6909C77.1493 67.7601 77.0201 67.796 76.8886 67.7943V67.763Z" fill="#473F47"/>
<path d="M67.6917 58.0804C67.7751 58.7674 67.8039 59.4599 67.7778 60.1514C67.6463 60.6894 67.3198 61.1598 66.8613 61.4721C66.4014 61.7804 65.8891 62.0029 65.3494 62.1285C65.1898 62.1617 65.0382 62.2254 64.9029 62.3161C64.8088 62.4307 64.7394 62.5633 64.6989 62.7059C64.6585 62.8484 64.6479 62.9977 64.6679 63.1445V64.9106C64.6896 65.0944 64.6452 65.28 64.5425 65.4342C64.4603 65.5208 64.3539 65.5807 64.237 65.6061C63.8073 65.7045 63.3566 65.6497 62.9631 65.4513C62.5697 65.2529 62.2582 64.9234 62.0828 64.5199C61.8747 64.131 61.6473 63.7528 61.4012 63.3867C61.1636 62.8976 61.0251 62.3664 60.9939 61.8237C60.8148 60.1262 61.1332 58.4133 61.9104 56.8926C62.3934 55.9262 63.0962 55.0858 63.9628 54.4387C64.66 53.9386 66.0074 53.1962 66.7203 54.0558C67.0728 54.4778 67.065 55.1108 67.394 55.5562C67.629 55.8767 68.052 56.1033 68.1147 56.494C68.1774 56.8848 67.9188 57.1661 67.8013 57.4943C67.7297 57.6815 67.6926 57.8801 67.6917 58.0804Z" fill="#F9C6D6"/>
<path d="M72.8937 61.6595C72.8973 61.6231 72.8973 61.5865 72.8937 61.5501C72.8994 61.143 73.0524 60.7517 73.3245 60.4482C73.4614 60.3003 73.6452 60.204 73.845 60.1755C74.0448 60.1471 74.2483 60.1882 74.4212 60.2919C74.5544 60.3857 74.6562 60.542 74.8129 60.6123C74.9696 60.6827 75.3064 60.6123 75.4709 60.7999C75.6354 60.9874 75.5884 61.1437 75.6668 61.3078C75.7451 61.472 75.9723 61.6204 76.1211 61.7767C76.8575 62.5582 76.0428 63.9883 75.7529 64.7933C75.3142 65.9968 74.8834 67.2081 74.5231 68.4428C74.0898 68.5052 73.6482 68.4199 73.2697 68.2005C73.1323 68.1179 73.0104 68.0122 72.9093 67.8879C72.7889 67.6748 72.7141 67.439 72.6899 67.1955C72.6656 66.952 72.6923 66.7061 72.7683 66.4735C72.8608 66.1192 72.8873 65.751 72.8467 65.3872C72.7409 64.9937 72.6101 64.6074 72.455 64.2306C72.3453 63.9102 72.2513 63.5038 72.502 63.2772C72.6019 63.2151 72.6963 63.1445 72.784 63.0662C72.8456 62.9735 72.8783 62.8648 72.878 62.7536C72.9093 62.3863 72.878 62.019 72.8937 61.6595Z" fill="#F9C6D6"/>
<path d="M58.5738 90.6996L65.8826 107.111L65.5771 130.352L62.2243 130.11C62.2243 130.11 56.4901 116.887 60.1797 108.697C60.1797 108.697 51.3198 101.14 48.0454 96.842C44.0267 91.5514 44.9119 87.1125 44.9119 87.1125L58.5738 90.6996Z" fill="#565056"/>
<path d="M61.9578 62.4724C62.8549 62.6788 63.725 62.9882 64.5507 63.3946C67.3552 64.684 67.4805 66.8956 68.4675 69.5449C69.0944 71.232 69.8083 72.8858 70.6061 74.4995L71.9614 66.5127L75.7058 68.0288C75.7058 68.0288 76.0819 79.8136 73.3557 81.4C71.5853 82.4159 69.1021 81.228 67.4962 80.4075C66.9086 80.1105 65.9294 79.2118 65.3106 79.1259C64.112 78.9617 64.0337 80.384 62.9605 81.2124C62.2668 81.6168 61.602 82.0685 60.9707 82.5644C60.3756 83.2464 59.93 84.0449 59.6625 84.9088C59.3612 85.978 59.2733 87.0959 59.404 88.1989C59.4874 88.5677 59.4914 88.9499 59.4158 89.3204C59.3402 89.6908 59.1866 90.0411 58.9653 90.348C58.6562 90.6099 58.2783 90.7781 57.8764 90.8325C56.5425 91.0239 55.1868 91.0081 53.8578 90.7856C51.2226 90.5786 48.6144 90.1127 46.0711 89.3946C45.1452 89.1092 44.2397 88.7619 43.3606 88.3552C43.1701 88.2739 42.9951 88.1602 42.8436 88.0191C42.6835 87.8323 42.5779 87.6053 42.5381 87.3627C42.1856 85.7528 43.3215 84.2368 43.9403 82.7285C44.332 81.6969 44.4573 80.5716 44.8099 79.5244C45.2704 78.4583 45.8654 77.4552 46.5803 76.5392C47.1051 75.7577 47.3636 74.7574 47.9277 73.9134C49.338 71.7514 50.9092 69.6981 52.6279 67.7709C53.6306 66.5284 54.7479 65.3824 55.965 64.348C57.3522 63.1191 59.1316 62.4212 60.9864 62.3787C61.3122 62.3833 61.6371 62.4147 61.9578 62.4724Z" fill="#40798C"/>
<path d="M58.8002 47.4992C57.8247 47.6357 56.9 48.0176 56.1132 48.6089C54.3977 50 54.006 52.5163 52.3766 54.009C50.9822 55.2672 48.9689 55.5172 47.0967 55.7126C47.3989 56.5792 47.8701 57.3775 48.4829 58.0616C49.0958 58.7458 49.8383 59.3022 50.6677 59.6988C51.497 60.0954 52.3969 60.3244 53.3153 60.3726C54.2338 60.4208 55.1527 60.2872 56.0192 59.9795L54.1 61.8863C54.0497 61.9258 54.0139 61.9807 53.9981 62.0426C53.9981 62.1677 54.1156 62.2458 54.2332 62.2849C55.1219 62.6123 56.1022 62.5899 56.9749 62.2224C56.9878 62.6283 57.1444 63.0166 57.4168 63.3184C57.6892 63.6203 58.06 63.8161 58.4633 63.8713C59.0303 63.9528 59.6088 63.8827 60.1398 63.6681C60.4361 63.5509 60.7533 63.4951 61.072 63.504C61.3383 63.504 61.5811 63.6447 61.8553 63.5509C62.6676 63.0404 63.3192 62.3118 63.7354 61.4487C64.3543 60.0577 63.4456 58.3228 64.1898 56.9473C64.8086 55.8533 66.7514 55.5251 67.0412 54.2903C67.3546 52.9227 66.6104 50.9221 65.8192 49.8437C64.9194 48.6134 63.593 47.7611 62.0982 47.4523C61.2237 47.2981 60.3305 47.2796 59.4504 47.3976L58.8002 47.4992Z" fill="#D86B7F"/>
<path d="M48.162 128.476C47.9946 128.433 47.8187 128.435 47.6522 128.482C47.4857 128.528 47.3346 128.618 47.2142 128.742C46.9478 129.133 47.3004 129.766 46.9713 130.125C46.8727 130.209 46.7576 130.271 46.6334 130.307C46.5093 130.343 46.3789 130.353 46.2506 130.336H44.4254C43.9392 130.364 43.4515 130.325 42.9762 130.219C42.8652 130.183 42.7478 130.169 42.6315 130.18C42.5525 130.205 42.4823 130.252 42.4295 130.316C42.3767 130.38 42.3435 130.457 42.3338 130.539C42.318 130.704 42.3422 130.871 42.4043 131.024C42.519 131.355 42.6884 131.664 42.9057 131.938C42.965 132.02 43.0395 132.089 43.125 132.142C43.227 132.182 43.3365 132.201 43.4462 132.196C44.5194 132.196 45.5926 132.196 46.6658 132.149C47.4492 132.095 48.1464 131.985 48.8906 131.931C49.9586 131.926 51.0181 131.741 52.0241 131.384C52.1558 131.339 52.2771 131.268 52.3808 131.175C52.4844 131.083 52.5682 130.97 52.6272 130.844C52.6589 130.728 52.6634 130.607 52.6403 130.489C52.6172 130.371 52.5672 130.26 52.4941 130.164C52.347 129.979 52.1663 129.822 51.9614 129.703C51.3748 129.33 50.7321 129.053 50.0578 128.883C49.4355 128.706 48.8022 128.57 48.162 128.476Z" fill="#565056"/>
<path d="M96.1747 116.324C83.5076 116.145 73.2925 111.823 73.3709 106.657C73.3709 106.087 72.94 102.844 73.1907 102.328C75.1883 97.9985 85.1762 97.4906 96.441 97.639C107.526 97.8031 116.809 97.639 118.908 101.914C119.213 102.523 119.26 106.681 119.253 107.298C119.182 112.472 108.85 116.488 96.1747 116.324Z" fill="#E8A825"/>
<path d="M119.091 103.009C119.165 97.8514 108.953 93.5241 96.2827 93.3432C83.6119 93.1623 73.2802 97.1963 73.2062 102.353C73.1322 107.51 83.344 111.838 96.0147 112.019C108.686 112.2 119.017 108.166 119.091 103.009Z" fill="#F8C244"/>
<path d="M115.691 102.96C115.754 98.5666 107.056 94.8802 96.2625 94.7261C85.4692 94.572 76.6684 98.0085 76.6053 102.402C76.5423 106.795 85.2409 110.481 96.0342 110.635C106.828 110.79 115.628 107.353 115.691 102.96Z" fill="#E8A825"/>
<path d="M83.8214 101.75L86.9549 101.797C87.0165 101.39 87.1755 101.005 87.4182 100.673C87.6609 100.341 87.9803 100.072 88.3493 99.8899L90.4252 100.21C90.0654 100.373 89.7526 100.624 89.5157 100.94C89.2788 101.255 89.1255 101.625 89.07 102.016C89.07 102.914 90.3234 103.578 92.0781 103.578C92.7574 103.627 93.4392 103.528 94.0763 103.288C94.7134 103.048 95.2905 102.672 95.7678 102.187C96.4587 101.47 97.3028 100.918 98.2373 100.572C99.1718 100.225 100.173 100.094 101.165 100.187C103.735 100.187 105.685 100.968 106.14 102.156L109.273 102.203V102.985L106.257 102.938C106.211 103.276 106.087 103.6 105.896 103.883C105.704 104.166 105.45 104.401 105.153 104.571L103.116 104.227C103.404 104.068 103.65 103.844 103.835 103.572C104.02 103.301 104.139 102.99 104.181 102.664C104.181 101.703 102.779 101.304 101.533 101.289C100.864 101.251 100.194 101.368 99.5772 101.631C98.9603 101.894 98.4126 102.296 97.9769 102.805C96.6608 104.079 95.0314 104.712 92.2426 104.712C89.7829 104.712 87.4563 103.93 86.9862 102.641L83.7666 102.594L83.8214 101.75Z" fill="#F8C244"/>
<path d="M92.5563 107.111C79.8892 106.931 69.6741 102.609 69.7525 97.4437C69.7525 96.8733 69.3216 93.6301 69.5645 93.1143C71.5699 88.7849 81.5578 88.2769 92.8226 88.4254C103.907 88.5895 113.19 88.4254 115.29 92.7001C115.595 93.3097 115.642 97.4672 115.634 98.0845C115.564 103.203 105.231 107.251 92.5563 107.111Z" fill="#E8A825"/>
<path d="M115.476 93.7559C115.55 88.5988 105.338 84.2714 92.6675 84.0905C79.9967 83.9096 69.665 87.9436 69.591 93.1007C69.517 98.2578 79.7287 102.585 92.3995 102.766C105.07 102.947 115.402 98.913 115.476 93.7559Z" fill="#F8C244"/>
<path d="M112.076 93.7072C112.139 89.3139 103.441 85.6275 92.6472 85.4734C81.8539 85.3193 73.0531 88.7558 72.9901 93.1491C72.9271 97.5423 81.6257 101.229 92.419 101.383C103.212 101.537 112.013 98.1004 112.076 93.7072Z" fill="#E8A825"/>
<path d="M80.2022 92.4969L83.3357 92.5438C83.3973 92.1375 83.5562 91.7521 83.799 91.4202C84.0417 91.0882 84.3611 90.8196 84.7301 90.637L86.806 90.9574C86.4462 91.1203 86.1334 91.3712 85.8965 91.6867C85.6596 92.0023 85.5063 92.3723 85.4508 92.7626C85.4508 93.6613 86.7041 94.3256 88.4589 94.3256C89.1421 94.3809 89.8292 94.2864 90.472 94.0488C91.1148 93.8112 91.6977 93.4362 92.1799 92.9502C92.8697 92.2318 93.7137 91.6786 94.6485 91.3321C95.5833 90.9856 96.5846 90.8548 97.5773 90.9496C100.147 90.9496 102.097 91.731 102.552 92.9189L105.685 92.9658V93.7473L102.669 93.7004C102.623 94.0389 102.499 94.3623 102.308 94.6455C102.116 94.9287 101.862 95.1642 101.565 95.3337L99.5279 94.9898C99.8158 94.8308 100.062 94.6066 100.247 94.3351C100.432 94.0636 100.551 93.7525 100.593 93.4269C100.593 92.4735 99.191 92.0749 97.9455 92.0593C97.2757 92.0217 96.6062 92.1389 95.9893 92.4019C95.3724 92.6649 94.8247 93.0665 94.389 93.5753C93.0729 94.8492 91.4435 95.4822 88.6547 95.4822C86.195 95.4822 83.8684 94.7007 83.3983 93.4112L80.1787 93.3643L80.2022 92.4969Z" fill="#F8C244"/>
<path d="M103.233 102.68C90.5584 102.492 80.3433 98.1706 80.4216 93.0128C80.4216 92.4424 79.9908 89.1992 80.2415 88.6834C82.239 84.354 92.2348 83.846 103.5 83.9945C114.584 84.1586 123.867 83.9945 125.959 88.2692C126.264 88.8788 126.311 93.0441 126.303 93.6615C126.241 98.8192 115.9 102.86 103.233 102.68Z" fill="#E8A825"/>
<path d="M126.15 89.3645C126.224 84.2074 116.012 79.8801 103.341 79.6991C90.6705 79.5182 80.3388 83.5522 80.2648 88.7093C80.1908 93.8664 90.4025 98.1938 103.073 98.3747C115.744 98.5556 126.076 94.5216 126.15 89.3645Z" fill="#F8C244"/>
<path d="M122.75 89.316C122.813 84.9228 114.114 81.2364 103.321 81.0823C92.5278 80.9282 83.727 84.3647 83.6639 88.758C83.6009 93.1512 92.2995 96.8376 103.093 96.9917C113.886 97.1458 122.687 93.7093 122.75 89.316Z" fill="#E8A825"/>
<path d="M90.8712 88.0972L94.0046 88.1441C94.0656 87.7377 94.2243 87.3519 94.4671 87.0199C94.7099 86.6879 95.0296 86.4194 95.399 86.2373L97.4749 86.5655C97.1161 86.731 96.804 86.9824 96.5661 87.2974C96.3283 87.6123 96.1723 87.9811 96.1119 88.3708C96.1119 89.2617 97.3653 89.8947 99.1278 89.9337C99.8111 89.989 100.498 89.8946 101.141 89.657C101.784 89.4194 102.367 89.0444 102.849 88.5583C103.538 87.8415 104.381 87.2893 105.314 86.9429C106.247 86.5964 107.247 86.4648 108.238 86.5577C110.816 86.5577 112.766 87.3392 113.213 88.5349L116.346 88.5818V89.3632L113.338 89.3164C113.289 89.6549 113.163 89.9778 112.97 90.2607C112.778 90.5437 112.523 90.7792 112.226 90.9497L110.189 90.6058C110.477 90.4458 110.724 90.2214 110.91 89.9502C111.096 89.679 111.217 89.3684 111.262 89.0428C111.262 88.0894 109.852 87.6909 108.614 87.6674C107.945 87.6316 107.276 87.7497 106.659 88.0126C106.043 88.2754 105.495 88.676 105.058 89.1835C103.734 90.4651 102.112 91.0981 99.3158 91.0981C96.8561 91.0981 94.5373 90.3167 94.0673 89.0272L90.8477 88.9803L90.8712 88.0972Z" fill="#F8C244"/>
<path d="M87.7458 57.9241C87.3776 57.6662 89.3125 44.7717 89.3125 44.7717L95.885 45.4126L94.2008 58.3696L87.7458 57.9241Z" fill="#70A9A1"/>
<path d="M100.883 59.198C100.515 58.9323 103.797 39.6609 103.797 39.6609L110.37 40.3017L107.362 59.6825L100.883 59.198Z" fill="#70A9A1"/>
<path d="M114.02 60.464C113.659 60.2061 118.9 25.8442 118.9 25.8442L125.473 26.4851L120.498 60.9094L114.02 60.464Z" fill="#70A9A1"/>
<path d="M127.157 61.7378C126.797 61.4799 130.917 35.6284 130.917 35.6284L137.49 36.2692L133.636 62.1832L127.157 61.7378Z" fill="#70A9A1"/>
<path d="M133.761 65.739L82.2939 62.0113L82.3409 61.6987C82.8736 57.6037 87.5738 21.6789 87.8245 21.0146L88.3885 21.1944C88.1927 21.9759 84.8007 47.6789 82.999 61.4642L133.824 65.1372L133.761 65.739Z" fill="#70A9A1"/>
<path opacity="0.39" d="M155.539 77.4143L156.745 71.0921C153.413 71.167 150.136 70.2353 147.345 68.4194L149.695 64.2228C152.276 65.9773 155.338 66.8918 158.461 66.8408C163.098 66.8408 166.678 64.2385 167.36 60.6749C168.041 57.1113 165.903 55.1264 161.477 53.2664C155.335 50.8126 151.81 47.9602 152.86 42.5367C153.855 37.3476 158.429 33.3855 164.61 32.3774L165.817 26.0708H169.835L168.621 32.1351C171.434 32.1099 174.201 32.8473 176.627 34.2686L174.238 38.4729C171.914 37.0271 169.212 36.3035 166.475 36.3942C161.485 36.3942 159.064 39.3169 158.586 41.8099C157.959 45.0609 160.051 46.6707 165.245 48.8823C171.425 51.4612 174.167 54.6809 173.078 60.2451C172.138 65.1841 167.673 69.8417 160.811 70.9514L159.612 77.4143H155.539Z" fill="#70A9A1"/>
<defs>
<linearGradient id="paint0_linear" x1="102.63" y1="157.727" x2="104.944" y2="159.46" gradientUnits="userSpaceOnUse">
<stop offset="0.01"/>
<stop offset="0.08" stop-opacity="0.69"/>
<stop offset="0.21" stop-opacity="0.32"/>
<stop offset="1" stop-opacity="0"/>
</linearGradient>
<linearGradient id="paint1_linear" x1="-17107.9" y1="518.316" x2="24485.1" y2="94911.2" gradientUnits="userSpaceOnUse">
<stop offset="0.01"/>
<stop offset="0.08" stop-opacity="0.69"/>
<stop offset="0.21" stop-opacity="0.32"/>
<stop offset="1" stop-opacity="0"/>
</linearGradient>
<linearGradient id="paint2_linear" x1="31542.4" y1="11815.1" x2="33785.2" y2="30410.5" gradientUnits="userSpaceOnUse">
<stop offset="0.01" stop-opacity="0.66"/>
<stop offset="0.08" stop-opacity="0.69"/>
<stop offset="0.21" stop-opacity="0.32"/>
<stop offset="1" stop-opacity="0"/>
</linearGradient>
<linearGradient id="paint3_linear" x1="26248.7" y1="3345.36" x2="25668" y2="16536.2" gradientUnits="userSpaceOnUse">
<stop offset="0.01"/>
<stop offset="0.08" stop-opacity="0.69"/>
<stop offset="0.21" stop-opacity="0.32"/>
<stop offset="1" stop-opacity="0"/>
</linearGradient>
<linearGradient id="paint4_linear" x1="9696.89" y1="4451.79" x2="15332.7" y2="9500.66" gradientUnits="userSpaceOnUse">
<stop offset="0.01"/>
<stop offset="0.08" stop-opacity="0.69"/>
<stop offset="0.21" stop-opacity="0.32"/>
<stop offset="1" stop-opacity="0"/>
</linearGradient>
<linearGradient id="paint5_linear" x1="9575.8" y1="3388.45" x2="9187.67" y2="9948.57" gradientUnits="userSpaceOnUse">
<stop offset="0.01"/>
<stop offset="0.08" stop-opacity="0.69"/>
<stop offset="0.21" stop-opacity="0.32"/>
<stop offset="1" stop-opacity="0"/>
</linearGradient>
<linearGradient id="paint6_linear" x1="4367.76" y1="2260.53" x2="4309.56" y2="2764.43" gradientUnits="userSpaceOnUse">
<stop offset="0.01"/>
<stop offset="0.08" stop-opacity="0.69"/>
<stop offset="0.21" stop-opacity="0.32"/>
<stop offset="1" stop-opacity="0"/>
</linearGradient>
</defs>
</svg>
