<svg width="283.56" height="210.44" xmlns="http://www.w3.org/2000/svg" xmlns:xlink="http://www.w3.org/1999/xlink">
 <defs>
  <linearGradient y2="3.8855" x2="2.79028" y1="-1.72693" x1="-0.98019" id="linear-gradient">
   <stop offset="0.01"/>
   <stop stop-opacity="0.69" offset="0.08"/>
   <stop stop-opacity="0.32" offset="0.21"/>
   <stop stop-opacity="0" offset="1"/>
  </linearGradient>
  <linearGradient xlink:href="#linear-gradient" y2="568.95" x2="674.23" y1="5.97" x1="-78.5" id="linear-gradient-2"/>
  <linearGradient xlink:href="#linear-gradient" y2="417.64" x2="252.77" y1="169.52" x1="174.64" id="linear-gradient-3"/>
  <linearGradient xlink:href="#linear-gradient" y2="404.22" x2="146.94" y1="81.3" x1="194.72" id="linear-gradient-4"/>
  <linearGradient xlink:href="#linear-gradient" y2="253.7" x2="328.96" y1="198.46" x1="169.32" id="linear-gradient-5"/>
  <linearGradient xlink:href="#linear-gradient" y2="375.27" x2="110.54" y1="126.45" x1="147.35" id="linear-gradient-6"/>
  <linearGradient xlink:href="#linear-gradient" y2="291.81" x2="126.41" y1="241.45" x1="145.99" id="linear-gradient-7"/>
  <linearGradient xlink:href="#linear-gradient" y2="775.13" x2="316.53" y1="42.3" x1="232.62" id="linear-gradient-8"/>
 </defs>
 <title>4</title>
 <g>
  <title>background</title>
  <rect fill="none" id="canvas_background" height="212.44" width="285.56" y="-1" x="-1"/>
 </g>
 <g>
  <title>Layer 1</title>
  <path id="svg_2" fill="url(#linear-gradient)" d="m135.31,204.34l0.66,0.09c0.48,0.38 -0.86,0.46 -0.66,-0.09z"/>
  <path id="svg_3" fill="url(#linear-gradient-2)" d="m281.85,127.89c-4.92,2 -10.09,3.88 -13.28,6.13l-75.51,53.04a181.24,181.24 0 0 1 -18.07,11.48c-5.09,2.75 -8,8 -14.16,9.4a24.57,24.57 0 0 1 -9.24,-0.16a86.56,86.56 0 0 1 -14.6,-3.71c-0.59,-0.2 -1.41,-0.32 -1.67,0.24l0,0c-44,-6 -86.09,-22 -129.72,-30.31a2.39,2.39 0 0 1 -0.45,-4.57a58.1,58.1 0 0 1 11.26,-2.76c7,-1.29 13.91,-2.55 20.89,-3.69a351,351 0 0 1 42.53,-4.72c23.68,-1 47.57,1.53 71,-2.14c22.23,-3.45 43.22,-12.36 63.93,-21.23c5,-2.14 10.08,-4.36 14,-8.12c3.06,-2.94 5.53,-6.84 9.44,-8.78s9,-1.65 13.36,-1.45a199.55,199.55 0 0 1 25.81,3.46q2.39,3.89 4.48,7.89z"/>
  <path id="svg_4" fill="#70a9a1" d="m7.55,159.13l98.84,-43a11.78,11.78 0 0 1 6.93,-1.15l122.25,10.39c2.34,0.33 1.92,10.39 0,12l-72.18,61.52a18.14,18.14 0 0 1 -16.17,4l-138.8,-33.74c-1.77,-0.43 -2.53,-9.19 -0.87,-10.02z"/>
  <path id="svg_5" fill="url(#linear-gradient-3)" d="m7.55,159.13l98.84,-43a11.78,11.78 0 0 1 6.93,-1.15l122.25,10.39c2.34,0.33 1.92,10.39 0,12l-72.18,61.52a18.14,18.14 0 0 1 -16.17,4l-138.8,-33.74c-1.77,-0.43 -2.53,-9.19 -0.87,-10.02z"/>
  <path id="svg_6" fill="#70a9a1" d="m235.6,130.25l-72.21,61.46a18.11,18.11 0 0 1 -16.16,4.05l-138.82,-33.74c-1.77,-0.43 -2,-3.23 -0.35,-4.06l38.07,-21.47l10,-5.62l30.41,-17.14a11.8,11.8 0 0 1 6.92,-1.15l140.9,12.31c2.34,0.28 3.13,3.75 1.24,5.36z"/>
  <polygon id="svg_7" fill="url(#linear-gradient-4)" points="93.44999694824219,115.97999572753906 222.25,135.02999877929688 182.61000061035156,167.22999572753906 50.410003662109375,140.47999572753906 93.44999694824219,115.97999572753906 "/>
  <path id="svg_8" fill="url(#linear-gradient-5)" d="m145.16,149.83a49.8,49.8 0 0 0 15.49,-6.21c1.32,-0.84 2.77,-2.35 2,-3.73c-0.52,-1 -1.8,-1.27 -2.2,-2.32c1.75,-0.71 3.67,-0.38 5.26,-1.75s1.76,-4 0.07,-5a7.77,7.77 0 0 0 3.72,-1.24a3,3 0 0 0 1.11,-3.48c-0.61,-1.27 -2.21,-1.63 -3.59,-1.85a25.81,25.81 0 0 0 -5.87,-0.47a15.77,15.77 0 0 0 -6.4,2c-1.84,1 -3.33,2.74 -5.16,3.66c-3.74,1.88 -8.65,1.67 -12.67,2.55c-3,0.65 -5.9,1.78 -8.85,2.67s-5.75,1.53 -8.66,2.17q-10.56,2.32 -21.17,4.4c0.46,3.15 3.83,4.89 6.78,6.08a61.33,61.33 0 0 0 12.76,4a53,53 0 0 0 10.38,0.47a88.58,88.58 0 0 0 17,-1.95z"/>
  <polygon id="svg_9" fill="url(#linear-gradient-6)" points="79.97000122070312,148.4600067138672 133.0500030517578,159.19000244140625 105.60000610351562,181.58999633789062 50.410003662109375,169.1999969482422 79.97000122070312,148.4600067138672 "/>
  <path id="svg_10" fill="url(#linear-gradient-7)" d="m53.42,173.07a8.59,8.59 0 0 0 5.47,4.48c3.9,0.94 26.63,6.76 26.63,6.76s3.7,0.44 5.75,-2l-37.85,-9.24z"/>
  <path id="svg_11" fill="#70a9a1" d="m89.4,112.57l145.36,20.68a4.2,4.2 0 0 0 4.72,-3.35l20.74,-104.72a8.11,8.11 0 0 0 -7.25,-9.66l-143.55,-12.63a8.11,8.11 0 0 0 -8.77,7.2l-11.25,102.48z"/>
  <path id="svg_12" fill="url(#linear-gradient-8)" d="m89.4,112.57l145,20.63a4.63,4.63 0 0 0 5.19,-3.68l20.66,-104.34a8.11,8.11 0 0 0 -7.25,-9.66l-143.58,-12.63a8.11,8.11 0 0 0 -8.77,7.2l-11.25,102.48z"/>
  <polygon id="svg_13" fill="#fff" points="232.16000366210938,127.24000549316406 252.80999755859375,21.56999969482422 106.39999389648438,8.049999237060547 94.75999450683594,108.10000610351562 232.16000366210938,127.24000549316406 "/>
  <path id="svg_14" fill="#f9c6d6" d="m83.35,171.08a1.94,1.94 0 0 0 0.52,1.53a1.74,1.74 0 0 0 0.7,0.29a7.36,7.36 0 0 0 2,0.12a25.62,25.62 0 0 0 3.69,-0.53l2.1,-0.4a1,1 0 0 0 0.69,-0.34a0.76,0.76 0 0 0 -0.12,-0.81a3,3 0 0 0 -1.35,-0.88a26,26 0 0 0 -3.87,-1.23a1.47,1.47 0 0 1 -0.61,-0.24c-0.26,-0.23 -0.31,-0.62 -0.49,-0.93a1.59,1.59 0 0 0 -1.66,-0.64c-0.6,0.12 -1.47,0.53 -1.61,1.19a13.12,13.12 0 0 0 0.01,2.87z"/>
  <path id="svg_15" fill="#565056" d="m90.11,169.08a1.26,1.26 0 0 0 -1.21,0.33c-0.34,0.51 0.11,1.32 -0.31,1.78a1.22,1.22 0 0 1 -0.92,0.27l-2.33,0a7.63,7.63 0 0 1 -1.85,-0.15a0.94,0.94 0 0 0 -0.44,-0.05a0.55,0.55 0 0 0 -0.38,0.46a1.22,1.22 0 0 0 0.09,0.62a4,4 0 0 0 0.64,1.17a0.87,0.87 0 0 0 0.28,0.26a1.14,1.14 0 0 0 0.41,0.07c1.37,0 2.74,0 4.11,-0.06c0.95,-0.07 1.89,-0.21 2.84,-0.29a12.06,12.06 0 0 0 4,-0.69a1.32,1.32 0 0 0 0.77,-0.69a1,1 0 0 0 -0.17,-0.87a2.27,2.27 0 0 0 -0.68,-0.59a8.33,8.33 0 0 0 -2.43,-1.05a17.29,17.29 0 0 0 -2.42,-0.52z"/>
  <path id="svg_16" fill="#f9c6d6" d="m58,168.52a0.38,0.38 0 0 0 0,0.15c0.08,1.84 2.52,1.89 3.83,1.82a27,27 0 0 0 3.7,-0.52l2.09,-0.4a1,1 0 0 0 0.69,-0.35a0.74,0.74 0 0 0 -0.12,-0.8a3,3 0 0 0 -1.34,-0.89a35.56,35.56 0 0 0 -3.45,-1.12c-1,-0.31 -0.17,-1.74 -0.06,-2.5a0.72,0.72 0 0 0 0,-0.46a0.79,0.79 0 0 0 -0.48,-0.33a6.36,6.36 0 0 0 -1.88,-0.34a0.65,0.65 0 0 0 -0.37,0.07a0.63,0.63 0 0 0 -0.22,0.31l-2,4.26a3.14,3.14 0 0 0 -0.39,1.1z"/>
  <path id="svg_17" fill="#473f47" d="m58.89,114.3s-1.49,8.4 1.59,14.71a101,101 0 0 0 5.41,9.87s-6.42,6.94 -6.42,15.69s-0.16,9.15 -0.16,9.15l3.85,2l9.6,-26.83s0.58,-3.8 0,-5.09s-5.5,-15.91 -5.5,-15.91l-8.37,-3.59z"/>
  <path id="svg_18" fill="#473f47" d="m93.76,80.21c-2,0 -4.17,-2.12 -5.38,-5.4c-1.4,-3.79 -0.8,-7.27 1.4,-8.08s4.91,1.44 6.31,5.24l0,0c1.4,3.79 0.8,7.27 -1.4,8.08a2.68,2.68 0 0 1 -0.93,0.16zm-3,-11.85a0.81,0.81 0 0 0 -0.31,0.05c-1,0.38 -1.4,2.93 -0.35,5.78s3,4.56 4,4.18s1.4,-2.93 0.35,-5.78l0,0c-1.01,-2.59 -2.69,-4.23 -3.76,-4.23l0.07,0z"/>
  <path id="svg_19" fill="#473f47" d="m101.66,88.54a0.91,0.91 0 0 1 -0.71,-0.33l-6.62,-8.32a0.89,0.89 0 1 1 1.4,-1.11l6.62,8.36a0.88,0.88 0 0 1 -0.69,1.44l0,-0.04z"/>
  <path id="svg_20" fill="#f9c6d6" d="m89.92,76.15a16.79,16.79 0 0 1 0.11,2.65a2.87,2.87 0 0 1 -1.17,1.69a5.84,5.84 0 0 1 -1.93,0.84a1.61,1.61 0 0 0 -0.57,0.24a1.38,1.38 0 0 0 -0.3,1.06l0,2.26a1,1 0 0 1 -0.16,0.67a0.76,0.76 0 0 1 -0.39,0.22a2.41,2.41 0 0 1 -2.75,-1.39a16.85,16.85 0 0 0 -0.87,-1.45a5.28,5.28 0 0 1 -0.52,-2a11.29,11.29 0 0 1 1.17,-6.31a8.86,8.86 0 0 1 2.62,-3.14c0.89,-0.64 2.61,-1.59 3.52,-0.49c0.45,0.54 0.44,1.35 0.86,1.92c0.3,0.41 0.84,0.7 0.92,1.2s-0.25,0.86 -0.4,1.28a2.13,2.13 0 0 0 -0.14,0.75z"/>
  <path id="svg_21" fill="#f9c6d6" d="m96.56,80.73a0.71,0.71 0 0 0 0,-0.14a2.16,2.16 0 0 1 0.55,-1.41a1.12,1.12 0 0 1 1.4,-0.2c0.17,0.12 0.3,0.32 0.5,0.41s0.63,0 0.84,0.24s0.15,0.44 0.25,0.65s0.39,0.4 0.58,0.6c0.94,1 -0.1,2.83 -0.47,3.86c-0.56,1.54 -1.11,3.09 -1.57,4.67a2.48,2.48 0 0 1 -1.6,-0.31a1.77,1.77 0 0 1 -0.46,-0.4a2.26,2.26 0 0 1 -0.18,-1.81a3.83,3.83 0 0 0 0.1,-1.39a12.25,12.25 0 0 0 -0.5,-1.48c-0.14,-0.41 -0.26,-0.93 0.06,-1.22a2.6,2.6 0 0 0 0.36,-0.27a0.72,0.72 0 0 0 0.12,-0.4c0.04,-0.47 0,-0.94 0.02,-1.4z"/>
  <path id="svg_22" fill="#565056" d="m78.28,117.89l9.33,21l-0.39,29.74l-4.28,-0.31s-7.32,-16.92 -2.61,-27.4c0,0 -11.31,-9.67 -15.49,-15.17c-5.13,-6.77 -4,-12.45 -4,-12.45l17.44,4.59z"/>
  <path id="svg_23" fill="#70a9a1" d="m82.6,81.77a15.2,15.2 0 0 1 3.31,1.18c3.58,1.65 3.74,4.48 5,7.87a66.88,66.88 0 0 0 2.73,6.34l1.73,-10.22l4.78,1.94s0.48,15.08 -3,17.11c-2.26,1.3 -5.43,-0.22 -7.48,-1.27c-0.75,-0.38 -2,-1.53 -2.79,-1.64c-1.53,-0.21 -1.63,1.61 -3,2.67a22.26,22.26 0 0 0 -2.54,1.73a8.3,8.3 0 0 0 -1.67,3a10.85,10.85 0 0 0 -0.33,4.21a3.42,3.42 0 0 1 -0.56,2.75a2.71,2.71 0 0 1 -1.39,0.62a16.66,16.66 0 0 1 -5.13,-0.06a51.28,51.28 0 0 1 -9.94,-1.78a27.55,27.55 0 0 1 -3.46,-1.33a2.28,2.28 0 0 1 -0.66,-0.43a1.72,1.72 0 0 1 -0.39,-0.84c-0.45,-2.06 1,-4 1.79,-5.93c0.5,-1.32 0.66,-2.76 1.11,-4.1a17.48,17.48 0 0 1 2.26,-3.82c0.67,-1 1,-2.28 1.72,-3.36a65.92,65.92 0 0 1 6,-7.86a32.66,32.66 0 0 1 4.26,-4.38a10,10 0 0 1 6.41,-2.52a7.59,7.59 0 0 1 1.24,0.12z"/>
  <path id="svg_24" fill="#fc682d" d="m78.57,62.61a7.41,7.41 0 0 0 -3.43,1.42c-2.19,1.78 -2.69,5 -4.77,6.91c-1.78,1.61 -4.35,1.93 -6.74,2.18a8.9,8.9 0 0 0 11.39,5.46l-2.45,2.44a0.37,0.37 0 0 0 -0.13,0.2c0,0.16 0.15,0.26 0.3,0.31a4.76,4.76 0 0 0 3.5,-0.08a2.2,2.2 0 0 0 1.9,2.11a4.13,4.13 0 0 0 2.14,-0.26a3,3 0 0 1 1.19,-0.21c0.34,0 0.65,0.18 1,0.06a6.52,6.52 0 0 0 2.4,-2.69c0.79,-1.78 -0.37,-4 0.58,-5.76c0.79,-1.4 3.27,-1.82 3.64,-3.4c0.4,-1.75 -0.55,-4.31 -1.56,-5.69a7.85,7.85 0 0 0 -4.75,-3.06a11,11 0 0 0 -3.38,-0.07l-0.83,0.13z"/>
  <path id="svg_25" fill="#565056" d="m64.99,166.23a1.25,1.25 0 0 0 -1.21,0.34c-0.34,0.5 0.11,1.31 -0.31,1.77a1.18,1.18 0 0 1 -0.92,0.27l-2.33,0a6.75,6.75 0 0 1 -1.85,-0.15a1.09,1.09 0 0 0 -0.44,-0.05a0.55,0.55 0 0 0 -0.38,0.46a1.32,1.32 0 0 0 0.09,0.62a4,4 0 0 0 0.64,1.17a1,1 0 0 0 0.28,0.26a1,1 0 0 0 0.41,0.07c1.37,0 2.74,0 4.11,-0.06c1,-0.07 1.89,-0.21 2.84,-0.28a12.06,12.06 0 0 0 4,-0.7a1.32,1.32 0 0 0 0.77,-0.69a1,1 0 0 0 -0.17,-0.87a2.42,2.42 0 0 0 -0.68,-0.59a8.33,8.33 0 0 0 -2.43,-1.05a18.8,18.8 0 0 0 -2.42,-0.52z"/>
  <path id="svg_26" fill="#e8a825" d="m126.28,150.68c-16.17,-0.23 -29.21,-5.76 -29.11,-12.37c0,-0.73 -0.55,-4.88 -0.23,-5.54c2.55,-5.54 15.3,-6.19 29.68,-6c14.15,0.21 26,0 28.68,5.47c0.39,0.78 0.45,6.1 0.44,6.89c-0.09,6.62 -13.28,11.76 -29.46,11.55z"/>
  <ellipse id="svg_27" fill="#f8c244" transform="rotate(-89.18000030517578 -84.86000061035159,325.70999145507807) " ry="29.29" rx="11.95" cy="534.03999" cx="110.63"/>
  <ellipse id="svg_28" fill="#e8a825" transform="rotate(-89.18000030517578 -84.86000061035159,325.70999145507807) " ry="24.95" rx="10.18" cy="534.03999" cx="110.63"/>
  <path id="svg_29" fill="#f8c244" d="m110.51,132.03l4,0.06a3.27,3.27 0 0 1 1.78,-2.44l2.65,0.41a3,3 0 0 0 -1.73,2.31c0,1.15 1.6,2 3.84,2a6,6 0 0 0 4.71,-1.78a8.46,8.46 0 0 1 6.89,-2.56c3.28,0 5.77,1 6.35,2.52l4,0.06l0,1l-3.85,-0.06a2.85,2.85 0 0 1 -1.41,2.09l-2.6,-0.44a2.68,2.68 0 0 0 1.36,-2c0,-1.23 -1.79,-1.74 -3.38,-1.76a5.56,5.56 0 0 0 -4.54,1.94c-1.68,1.63 -3.76,2.44 -7.32,2.44c-3.14,0 -6.11,-1 -6.71,-2.65l-4.11,-0.06l0.07,-1.08z"/>
  <path id="svg_30" fill="#e8a825" d="m121.66,138.89c-16.17,-0.23 -29.21,-5.76 -29.11,-12.37c0,-0.73 -0.55,-4.88 -0.24,-5.54c2.56,-5.54 15.31,-6.19 29.69,-6c14.15,0.21 26,0 28.68,5.47c0.39,0.78 0.45,6.1 0.44,6.89c-0.09,6.55 -13.28,11.73 -29.46,11.55z"/>
  <ellipse id="svg_31" fill="#f8c244" transform="rotate(-89.18000030517578 -77.5699996948242,309.4200134277344) " ry="29.29" rx="11.95" cy="505.91001" cx="113.3"/>
  <ellipse id="svg_32" fill="#e8a825" transform="rotate(-89.18000030517578 -77.5699996948242,309.4200134277344) " ry="24.95" rx="10.18" cy="505.91001" cx="113.3"/>
  <path id="svg_33" fill="#f8c244" d="m105.89,120.19l4,0.06a3.27,3.27 0 0 1 1.78,-2.44l2.65,0.41a3,3 0 0 0 -1.73,2.31c0,1.15 1.6,2 3.84,2a6,6 0 0 0 4.75,-1.76a8.43,8.43 0 0 1 6.89,-2.56c3.28,0 5.77,1 6.35,2.52l4,0.06l0,1l-3.85,-0.06a2.85,2.85 0 0 1 -1.41,2.09l-2.6,-0.44a2.68,2.68 0 0 0 1.36,-2c0,-1.22 -1.79,-1.73 -3.38,-1.75a5.56,5.56 0 0 0 -4.54,1.94c-1.68,1.63 -3.76,2.44 -7.32,2.44c-3.14,0 -6.11,-1 -6.71,-2.65l-4.11,-0.06l0.03,-1.11z"/>
  <path id="svg_34" fill="#e8a825" d="m135.29,133.22c-16.18,-0.24 -29.22,-5.77 -29.12,-12.37c0,-0.73 -0.55,-4.88 -0.23,-5.54c2.55,-5.54 15.31,-6.19 29.69,-6c14.15,0.21 26,0 28.67,5.47c0.39,0.78 0.45,6.11 0.44,6.9c-0.08,6.6 -13.28,11.77 -29.45,11.54z"/>
  <ellipse id="svg_35" fill="#f8c244" transform="rotate(-89.18000030517578 -58.52000045776365,317.5) " ry="29.29" rx="11.95" cy="508.37" cx="145.97"/>
  <ellipse id="svg_36" fill="#e8a825" transform="rotate(-89.18000030517578 -58.52000045776365,317.5) " ry="24.95" rx="10.18" cy="508.37" cx="145.97"/>
  <path id="svg_37" fill="#f8c244" d="m119.51,114.56l4,0.06a3.26,3.26 0 0 1 1.78,-2.44l2.65,0.42a3.06,3.06 0 0 0 -1.74,2.31c0,1.14 1.6,1.95 3.85,2a6,6 0 0 0 4.75,-1.76a8.44,8.44 0 0 1 6.88,-2.56c3.29,0 5.78,1 6.35,2.53l4,0.06l0,1l-3.84,-0.06a2.89,2.89 0 0 1 -1.42,2.09l-2.6,-0.44a2.72,2.72 0 0 0 1.37,-2c0,-1.22 -1.8,-1.73 -3.38,-1.76a5.59,5.59 0 0 0 -4.54,1.94c-1.69,1.64 -3.76,2.45 -7.33,2.45c-3.14,0 -6.1,-1 -6.7,-2.65l-4.11,-0.06l0.03,-1.13z"/>
  <path id="svg_38" fill="#70a9a1" d="m115.52,75.95c-0.47,-0.33 2,-16.83 2,-16.83l8.39,0.82l-2.15,16.58l-8.24,-0.57z"/>
  <path id="svg_39" fill="#70a9a1" d="m132.29,77.58c-0.47,-0.34 3.72,-25 3.72,-25l8.39,0.82l-3.84,24.8l-8.27,-0.62z"/>
  <path id="svg_40" fill="#70a9a1" d="m149.06,79.2c-0.46,-0.33 6.23,-44.3 6.23,-44.3l8.39,0.82l-6.35,44.05l-8.27,-0.57z"/>
  <path id="svg_41" fill="#70a9a1" d="m165.83,80.83c-0.46,-0.33 4.8,-33.41 4.8,-33.41l8.39,0.82l-4.92,33.16l-8.27,-0.57z"/>
  <path id="svg_42" fill="#70a9a1" d="m174.26,85.95l-65.7,-4.77l0.06,-0.4c0.68,-5.24 6.68,-51.21 7,-52.06l0.72,0.23c-0.25,1 -4.58,33.89 -6.88,51.53l64.88,4.7l-0.08,0.77z"/>
  <path id="svg_43" opacity="0.39" fill="#70a9a1" d="m202.06,100.89l1.54,-8.09a21.1,21.1 0 0 1 -12,-3.42l3,-5.37a19.31,19.31 0 0 0 11.19,3.35c5.92,0 10.49,-3.33 11.36,-7.89s-1.86,-7.1 -7.51,-9.48c-7.84,-3.14 -12.34,-6.79 -11,-13.73c1.27,-6.64 7.11,-11.71 15,-13l1.54,-8.07l5.13,0l-1.55,7.76a19.83,19.83 0 0 1 10.22,2.73l-3.05,5.38a17.62,17.62 0 0 0 -9.91,-2.66c-6.37,0 -9.46,3.74 -10.07,6.93c-0.8,4.16 1.87,6.22 8.5,9.05c7.89,3.3 11.39,7.42 10,14.54c-1.2,6.32 -6.9,12.28 -15.66,13.7l-1.53,8.27l-5.2,0z"/>
 </g>
</svg>