<svg width="20" height="25" viewBox="0 0 20 25" fill="none" xmlns="http://www.w3.org/2000/svg">
<path d="M19.0474 23.7493C19.0474 24.2644 18.5242 24.7253 17.9087 24.7253H2.09079C1.44454 24.7253 0.952148 24.2644 0.952148 23.7222C0.952148 23.1799 1.47531 22.7191 2.09079 22.7191H2.55241C2.55241 22.5564 2.55241 22.448 2.55241 22.3124C2.55241 20.6586 3.13712 18.7337 4.24499 16.8631C5.29131 15.1009 6.67615 13.6097 8.03022 12.7422C8.6457 12.3355 8.6457 12.2 8.6457 12.1186C8.6457 12.0915 8.6457 11.9289 8.33796 11.7933C6.98389 11.0342 5.53751 9.54309 4.39886 7.67243C3.19867 5.72043 2.55241 3.65999 2.55241 2.03333H2.09079C1.47531 2.03333 0.952148 1.57244 0.952148 1.00311C0.952148 0.460888 1.47531 0 2.09079 0H17.878C18.5242 0 19.0166 0.460888 19.0166 1.05733C19.0166 1.57244 18.4934 2.03333 17.878 2.03333H17.4471C17.4471 3.9311 16.8009 6.04576 15.6314 7.94354C14.5236 9.73287 13.0464 11.1698 11.6 11.8475C11.3846 11.9289 11.3538 12.0373 11.3538 12.1458C11.3538 12.2542 11.5385 12.4711 11.9385 12.7422C13.2926 13.5555 14.6467 15.0737 15.7238 16.8902C16.8316 18.788 17.4779 20.7128 17.4779 22.3124C17.4779 22.4751 17.4779 22.6106 17.4779 22.7191H17.9087C18.5242 22.7191 19.0474 23.1528 19.0474 23.7493ZM9.13809 10.6275C9.5997 10.8986 9.84589 11.1969 9.99977 11.4409C10.1844 11.1155 10.4614 10.8173 10.8922 10.6275C12.0924 10.0582 13.3542 8.8382 14.3389 7.29287C15.3853 5.58488 15.9392 3.74132 15.9392 2.06044C15.9392 2.03333 15.9392 2.03333 15.9392 2.03333H4.09112C4.09112 3.4431 4.67583 5.28665 5.75293 7.04887C6.7377 8.67554 7.99944 10.0311 9.13809 10.6275ZM5.99912 16.8631C7.23009 16.0497 8.67647 15.9142 9.99977 15.9142C11.3231 15.9142 12.7694 16.0226 14.0004 16.8631C13.108 15.5075 12.0616 14.396 11.0769 13.7995C10.5537 13.5013 10.2152 13.1217 9.99977 12.7422C9.78435 13.2031 9.35351 13.5284 8.92267 13.7995C7.90712 14.4502 6.8608 15.5617 5.99912 16.8631Z" fill="white"/>
</svg>
