<svg width="181.44" height="224.69" xmlns="http://www.w3.org/2000/svg" xmlns:xlink="http://www.w3.org/1999/xlink">
 <defs>
  <linearGradient y2="-1.31318" x2="-3.39963" y1="1.35706" x1="2.34284" id="linear-gradient">
   <stop offset="0.01"/>
   <stop stop-opacity="0.69" offset="0.13"/>
   <stop stop-opacity="0.32" offset="0.25"/>
   <stop stop-opacity="0" offset="1"/>
  </linearGradient>
  <linearGradient xlink:href="#linear-gradient" y2="281.42" x2="227.89" y1="42.12" x1="145.12" id="linear-gradient-2"/>
 </defs>
 <title>2</title>
 <g>
  <title>background</title>
  <rect fill="none" id="canvas_background" height="226.69" width="183.44" y="-1" x="-1"/>
 </g>
 <g>
  <title>Layer 1</title>
  <path stroke="null" id="svg_1" opacity="0.18" fill="#70a9a1" d="m62.77254,182.17155a45.03794,11.6236 0 0 0 -5.08444,0.87525c-10.67732,2.13235 -16.81423,5.40895 -22.56473,8.56351c-6.6657,3.65714 -13.25004,7.32609 -20.00217,10.97274c-5.59288,3.01809 -9.79771,5.85379 -5.12511,9.22224c3.28455,2.36199 10.62647,4.36574 19.8293,5.20031c5.62339,0.51176 11.6942,0.58918 17.643,0.63774c11.18576,0.09186 22.4122,0.10235 33.40475,-0.40941c5.23189,-0.24407 10.3875,-0.60493 15.67023,-0.76371c10.2248,-0.30443 20.65807,0.15878 30.81169,-0.26244c7.07245,-0.29656 13.77882,-1.01565 20.18013,-1.8371c4.80988,-0.6233 9.5384,-1.31878 13.49918,-2.25701c10.48919,-2.48402 14.37879,-6.5099 11.55692,-10.11192s-12.34501,-5.09008 -20.65298,-7.76437c-8.8876,-2.86063 -9.7367,-6.94161 -18.15652,-9.89672c-10.88069,-3.81986 -31.85908,-4.79483 -49.97493,-4.00225c-7.34701,0.30968 -14.62284,0.8805 -21.03431,1.83316z"/>
  <path id="svg_3" fill="#fbb9ad" d="m71.5,192.36a12.08,12.08 0 0 0 1,5.11a8.56,8.56 0 0 0 3.72,3.45a14.63,14.63 0 0 0 10.84,1.07a2.15,2.15 0 0 0 1.25,-0.76a1.68,1.68 0 0 0 0.22,-1.08c-0.08,-2 -1.42,-3.69 -2.84,-5.09s-3,-2.7 -3.9,-4.49c-1.66,-3.36 -0.43,-12.29 -6.76,-10.85c-5.33,1.19 -3.67,8.92 -3.53,12.64z"/>
  <path id="svg_4" fill="#70a9a1" d="m70.62,198.42s-0.9,2.21 0.21,3.5s12.48,8.36 20.14,2.67s-10.41,-6.43 -10.41,-6.43l-9.94,0.26z"/>
  <path id="svg_5" fill="#fff" d="m71.07,193.28a1.6,1.6 0 0 1 2,0.53a6.7,6.7 0 0 0 6.09,2.18c2.49,-0.6 3.48,-3.47 4.71,-3.48s7.85,5.61 8.24,8s-3,4.19 -6.73,4.42s-12.16,-2.29 -13.77,-4.29s-1.41,-6.13 -0.54,-7.36z"/>
  <path id="svg_6" fill="#fbb9ad" d="m49.81,195.8a12.08,12.08 0 0 0 0.95,5.11a8.48,8.48 0 0 0 3.72,3.44a14.58,14.58 0 0 0 10.84,1.07a2.09,2.09 0 0 0 1.25,-0.75a1.92,1.92 0 0 0 0.23,-1.08c-0.08,-2 -1.43,-3.7 -2.85,-5.1s-3,-2.69 -3.9,-4.45c-1.66,-3.37 -0.43,-12.3 -6.75,-10.87c-5.28,1.2 -3.64,8.92 -3.49,12.63z"/>
  <path id="svg_7" fill="#70a9a1" d="m48.93,201.88s-0.89,2.21 0.21,3.5s12.47,8.36 20.11,2.67s-10.38,-6.41 -10.38,-6.41l-9.94,0.24z"/>
  <path id="svg_8" fill="#fff" d="m49.38,196.74a1.62,1.62 0 0 1 2.05,0.53a6.59,6.59 0 0 0 6.08,2.18c2.48,-0.6 3.49,-3.47 4.71,-3.48s7.85,5.61 8.21,8s-3,4.2 -6.73,4.44s-12.19,-2.36 -13.8,-4.32s-1.38,-6.11 -0.52,-7.35z"/>
  <path id="svg_9" fill="#473f47" d="m45.28,102.46s-1.17,65 3.64,86.64l12.21,1.5l8.45,-88.96l-24.3,0.82z"/>
  <path id="svg_10" fill="#473f47" d="m83.02,95.36s5.74,35.05 -1.23,91.33l-12.21,1.51l-8.45,-89l21.89,-3.84z"/>
  <path id="svg_11" fill="#70a9a1" d="m97.32,67.45c-0.14,2.35 -0.9,4.39 -2.95,5.07a3.07,3.07 0 0 1 -0.52,0.14c-3.75,0.75 -8.67,-2.1 -12.1,-4.59a46.84,46.84 0 0 1 -4.12,-3.33l0,-25.1l18.24,18.64a29.18,29.18 0 0 1 1.45,9.17z"/>
  <path id="svg_12" fill="#70a9a1" d="m81.87,67.96c0,1.18 0.14,2.36 0.15,3.53c0,6.48 -1.5,13.17 0.43,19.53c0.43,1.42 1,2.94 0.54,4.34a5.37,5.37 0 0 1 -2.71,2.6c-5.72,3.13 -12.33,4.08 -18.77,5c-4.85,0.68 -11.73,2.13 -16.21,-0.49c-1.92,-1.11 -2.57,-3.18 -3.17,-5.25c-1.95,-6.58 -2.52,-13.65 -3,-20.45c-0.06,-0.9 -0.13,-1.8 -0.18,-2.7q-0.56,-9.31 -0.38,-18.63c0.09,-4.51 0.44,-9.38 3.39,-12.78c3.91,-4.53 11.48,-7.53 17.24,-8.59a19.2,19.2 0 0 1 5.66,-0.31a23.8,23.8 0 0 1 7.66,2.6c2.85,1.41 5.39,2.61 6.79,5.43a38.58,38.58 0 0 1 3.19,10.28a37.06,37.06 0 0 1 0.23,10.09c-0.18,1.64 -0.59,3.28 -0.76,4.92a4.4,4.4 0 0 0 -0.1,0.88z"/>
  <path id="svg_13" opacity="0.1" fill="#020202" d="m55.44,104.64c-1.88,0.55 -6.21,-1.18 -7.65,-1.42c-0.87,-0.16 -1.65,-0.59 -2.51,-0.79c-4.29,-1.07 -4.8,-13.14 -5.22,-16.38c-1.11,-8.58 -2.82,-17.47 -2.94,-26.07a28.73,28.73 0 0 1 1.13,-9.83c1.09,-3.13 3.32,-6 6.44,-7.16c5.49,-2 7.12,15.37 7.87,19c0.94,4.5 1.9,9 2.83,13.49c0.68,3.29 0.3,5.92 2.91,8.36a1.19,1.19 0 0 0 0.66,0.39a1.4,1.4 0 0 0 0.66,-0.16a10.49,10.49 0 0 1 3.45,-0.82a2.64,2.64 0 0 1 1.56,0.25a2.58,2.58 0 0 1 1.06,1.72a7.74,7.74 0 0 1 -3.32,8.14c-1.18,0.73 -2.51,1.13 -3.69,1.85c-4.43,2.69 -0.72,5.57 -2.49,8.89a1.16,1.16 0 0 1 -0.75,0.54z"/>
  <path id="svg_14" fill="#fbb9ad" d="m70.28,25.76a4.14,4.14 0 0 1 -2.18,2c-1.11,0.45 -2.36,0.51 -3.25,1.32l0,0a5.72,5.72 0 0 0 -1.46,3.15c-0.26,1.22 -0.52,2.43 -0.79,3.65c-0.13,0.61 -0.27,1.22 -0.4,1.83a2.64,2.64 0 0 1 -0.34,1a2.27,2.27 0 0 1 -1.84,0.77a7.5,7.5 0 0 1 -4.08,-1a1.28,1.28 0 0 1 -0.51,-0.47a1.38,1.38 0 0 1 -0.08,-0.81c0.15,-1.75 0.3,-3.5 0.46,-5.25a6.68,6.68 0 0 0 -0.65,-4.22c-1.35,-2.82 -2.81,-5.64 -3.34,-8.75a7.15,7.15 0 0 1 0.36,-4.31a7.26,7.26 0 0 1 4.78,-3.44a13.9,13.9 0 0 1 7.88,-0.08c1,0.33 1.25,1 1.7,1.85c0.68,1.33 1.31,2.69 1.88,4.08c0.64,1.57 1.2,3.18 1.7,4.82a5.62,5.62 0 0 1 0.16,3.86z"/>
  <path id="svg_15" fill="#fbb9ad" d="m109.11,52.16c0.16,-0.26 0.48,-0.55 0.74,-0.37a0.76,0.76 0 0 1 0.21,0.37a1.74,1.74 0 0 0 1.51,0.87c0.59,0 1.2,-0.09 1.81,-0.1a5.14,5.14 0 0 1 4,2.16a8.12,8.12 0 0 1 1.45,4.43a5.61,5.61 0 0 1 -1.09,4c-1.41,1.61 -3.85,1.65 -6,1.58l-1.94,-0.07a1.81,1.81 0 0 1 -2,-1.47c-0.81,-1.93 -2.25,-3.86 -1.25,-5.81c0.86,-1.67 1.38,-4.11 2.56,-5.59z"/>
  <path id="svg_16" fill="#fff" d="m70.87,72.64l0,-14.52a2.83,2.83 0 0 1 1.79,-2.63l36,-14.33c1.87,-0.74 5.66,1.47 5.66,3.48l-1.77,33.68a2.85,2.85 0 0 1 -1.75,2.63l-34.27,15.79c-1.87,0.77 -5.7,-1.45 -5.7,-3.47l0.04,-20.63z"/>
  <path id="svg_17" fill="url(#linear-gradient)" d="m70.87,72.64l0,-14.52a2.83,2.83 0 0 1 1.79,-2.63l36,-14.33c1.87,-0.74 5.66,1.47 5.66,3.48l-1.77,33.68a2.85,2.85 0 0 1 -1.75,2.63l-34.27,15.79c-1.87,0.77 -5.7,-1.45 -5.7,-3.47l0.04,-20.63z"/>
  <path id="svg_18" fill="#fff" d="m72.6,73.5l0,-14.53a2.85,2.85 0 0 1 1.79,-2.64l36,-14.33a2.84,2.84 0 0 1 3.89,2.64l0,34.53a2.83,2.83 0 0 1 -1.75,2.62l-36,14.95a2.85,2.85 0 0 1 -3.93,-2.63l0,-20.61z"/>
  <path id="svg_19" fill="#473f47" d="m64.07,12.74a3.47,3.47 0 0 1 -2.2,1.48c-2.44,0.52 -3.93,-0.67 -5.16,2.18a5.65,5.65 0 0 0 -0.35,3.07c0,0.21 0.76,2.65 1,2.52c-0.63,0.45 -1.11,-0.77 -1.8,-1.13s-1.71,0.68 -1.54,1.58a5.24,5.24 0 0 0 1.48,2.26a7.78,7.78 0 0 1 1.72,4.8c0,0.41 -0.16,1 -0.56,1s-0.87,-0.57 -1.19,-0.78a11.09,11.09 0 0 0 -1.57,-0.89c-1.68,-0.8 -4.2,-1.05 -5.6,-2.17a4,4 0 0 1 -1.32,-2.37c-0.06,-0.21 0,-2.58 0.41,-2.44a3.27,3.27 0 0 1 -1.18,-5.6c-1.72,-2.39 -0.93,-5.93 1.13,-8s5.05,-3 8,-3.39a21.61,21.61 0 0 1 9.59,0.63a7.17,7.17 0 0 1 2.89,1.57a3.48,3.48 0 0 1 1.13,3a1.05,1.05 0 0 1 -1.1,-0.2a2,2 0 0 1 -3.33,2a2.39,2.39 0 0 1 -0.45,0.88z"/>
  <path id="svg_20" fill="#dc9f95" d="m65.63,28.52l-0.42,0.12a0.52,0.52 0 0 0 -0.32,0.16a0.49,0.49 0 0 0 -0.05,0.29a5.72,5.72 0 0 0 -1.46,3.15c-0.26,1.22 -0.52,2.43 -0.79,3.65a29.81,29.81 0 0 1 -2.95,-7.43a28.68,28.68 0 0 0 5.99,0.06z"/>
  <path id="svg_21" fill="#fbb9ad" d="m67.72,72.75c0.53,-0.5 1.23,-1 1.93,-0.82a7.49,7.49 0 0 1 1.22,0.71a2.85,2.85 0 0 0 1.11,0.25a11.28,11.28 0 0 0 4.57,-0.65a5.62,5.62 0 0 1 2.32,-0.6a3.5,3.5 0 0 1 2.36,1.67a6.62,6.62 0 0 1 0.22,7.19a7,7 0 0 1 -2.35,2.15a14.55,14.55 0 0 1 -6.75,1.69c-2.34,0.1 -4.71,-0.08 -7,0.1a2.57,2.57 0 0 1 -1.61,-0.22a2.47,2.47 0 0 1 -0.78,-2.05c-0.09,-1.76 -0.39,-3.25 0.65,-4.75c1.26,-1.73 2.75,-3.08 4.11,-4.67z"/>
  <path id="svg_22" fill="#70a9a1" d="m41.96,42.64s-25.77,33.7 -17.63,45.61s42.5,-2 42.5,-2l-3.35,-9.86s-24.14,3.05 -24.32,0.36s15.31,-18.11 15.31,-18.11s2.8,-22.69 -12.51,-16z"/>
  <path id="svg_23" fill="url(#linear-gradient-2)" d="m72.77,58.03l27.36,12.61l13.29,-27.81s0.87,0 0.74,2.36l-10.09,23l10.22,10.91a2.91,2.91 0 0 1 -1,2.2l-10.31,-11.47l-1.4,2.89l-5.61,-1.72l-14.74,23.73l-5.56,2.16l17.32,-27.06l-20.35,-9.36l0.13,-2.44z"/>
 </g>
</svg>