<svg width="200" height="200" viewBox="0 0 200 200" fill="none" xmlns="http://www.w3.org/2000/svg">
<path d="M33.2298 26.2344H119.363C126.892 26.2344 132.995 32.5214 132.995 40.2768V48.6232C132.995 56.3786 126.892 62.6656 119.363 62.6656H33.2298C25.7011 62.6656 19.5979 56.3786 19.5979 48.6232V40.2768C19.5979 32.5214 25.7011 26.2344 33.2298 26.2344Z" fill="white"/>
<path d="M14.0912 66.9261H100.224C107.753 66.9261 113.856 73.2132 113.856 80.9686V89.3149C113.856 97.0704 107.753 103.357 100.224 103.357H14.0912C6.56243 103.357 0.459206 97.0704 0.459206 89.3149V80.9686C0.459206 73.2132 6.56243 66.9261 14.0912 66.9261Z" fill="white"/>
<path d="M39.1195 108.584H125.253C132.782 108.584 138.885 114.871 138.885 122.627V130.973C138.885 138.728 132.782 145.015 125.253 145.015H39.1195C31.5907 145.015 25.4875 138.728 25.4875 130.973V122.627C25.4875 114.871 31.5907 108.584 39.1195 108.584Z" fill="white"/>
<path opacity="0.18" d="M105.826 127.053C105.826 129.783 106.611 132.452 108.084 134.722C109.556 136.991 111.649 138.761 114.097 139.805C116.546 140.85 119.24 141.123 121.839 140.591C124.439 140.058 126.826 138.744 128.7 136.813C130.574 134.883 131.85 132.423 132.368 129.746C132.885 127.068 132.619 124.293 131.605 121.771C130.591 119.248 128.873 117.093 126.67 115.576C124.466 114.059 121.875 113.25 119.225 113.25C117.475 113.24 115.74 113.586 114.119 114.267C112.499 114.948 111.024 115.951 109.78 117.219C108.535 118.487 107.546 119.995 106.867 121.657C106.189 123.319 105.835 125.103 105.826 126.906V127.053Z" fill="#A5A5A5"/>
<path opacity="0.34" d="M119.593 129.961C117.403 129.961 115.627 128.132 115.627 125.875C115.627 123.619 117.403 121.789 119.593 121.789C121.784 121.789 123.56 123.619 123.56 125.875C123.56 128.132 121.784 129.961 119.593 129.961Z" fill="#A5A5A5"/>
<path opacity="0.34" d="M110.951 137.911C113.413 139.901 116.473 140.941 119.601 140.85C122.729 140.76 125.727 139.544 128.076 137.415C127.478 135.528 126.303 133.891 124.727 132.749C123.152 131.606 121.26 131.019 119.334 131.075C117.408 131.131 115.551 131.827 114.04 133.059C112.529 134.291 111.446 135.993 110.951 137.911V137.911Z" fill="#A5A5A5"/>
<path opacity="0.18" d="M36.0643 116.277H92.5664V119.838H36.0643V116.277Z" fill="#A5A5A5"/>
<path opacity="0.18" d="M36.0643 122.599H92.5664V126.16H36.0643V122.599Z" fill="#A5A5A5"/>
<path opacity="0.18" d="M36.0643 128.921H92.5664V132.482H36.0643V128.921Z" fill="#A5A5A5"/>
<path opacity="0.18" d="M36.0643 135.243H92.5664V138.804H36.0643V135.243Z" fill="#A5A5A5"/>
<path opacity="0.18" d="M82.8359 85.1371C82.8548 88.772 84.2723 92.2508 86.7774 94.8107C89.2826 97.3706 92.671 98.8027 96.1997 98.793C99.7283 98.7833 103.109 97.3324 105.601 94.7587C108.093 92.185 109.492 88.6984 109.492 85.0635C109.492 81.4285 108.093 77.9419 105.601 75.3682C103.109 72.7945 99.7283 71.3437 96.1997 71.3339C92.671 71.3242 89.2826 72.7563 86.7774 75.3162C84.2723 77.8761 82.8548 81.355 82.8359 84.9898V85.1371Z" fill="#A5A5A5"/>
<path opacity="0.34" d="M96.5854 88.045C94.3949 88.045 92.6191 86.2158 92.6191 83.9593C92.6191 81.7028 94.3949 79.8735 96.5854 79.8735C98.776 79.8735 100.552 81.7028 100.552 83.9593C100.552 86.2158 98.776 88.045 96.5854 88.045Z" fill="#A5A5A5"/>
<path opacity="0.34" d="M87.9504 95.9957C90.412 97.9856 93.4721 99.0254 96.5999 98.9346C99.7278 98.8438 102.726 97.6283 105.075 95.4988C104.477 93.6122 103.302 91.9756 101.726 90.8331C100.151 89.6906 98.2587 89.1035 96.3326 89.1594C94.4066 89.2153 92.5497 89.9112 91.0391 91.1432C89.5284 92.3753 88.445 94.0774 87.9504 95.9957V95.9957Z" fill="#A5A5A5"/>
<path opacity="0.18" d="M13.0632 74.3613H69.5654V77.9226H13.0632V74.3613Z" fill="#A5A5A5"/>
<path opacity="0.18" d="M13.0632 80.6833H69.5654V84.2446H13.0632V80.6833Z" fill="#A5A5A5"/>
<path opacity="0.18" d="M13.0632 87.0051H69.5654V90.5664H13.0632V87.0051Z" fill="#A5A5A5"/>
<path opacity="0.18" d="M13.0632 93.327H69.5654V96.8883H13.0632V93.327Z" fill="#A5A5A5"/>
<path opacity="0.18" d="M100.564 44.4453C100.564 47.1753 101.35 49.844 102.822 52.1139C104.295 54.3839 106.387 56.1531 108.836 57.1978C111.284 58.2425 113.978 58.5159 116.578 57.9833C119.177 57.4507 121.565 56.1361 123.439 54.2056C125.313 52.2752 126.589 49.8157 127.106 47.1382C127.623 44.4606 127.357 41.6852 126.343 39.163C125.329 36.6408 123.612 34.4851 121.408 32.9683C119.204 31.4516 116.614 30.6421 113.964 30.6421C110.41 30.6421 107.001 32.0963 104.489 34.685C101.976 37.2736 100.564 40.7845 100.564 44.4453Z" fill="#A5A5A5"/>
<path opacity="0.34" d="M114.339 47.3624C112.149 47.3624 110.373 45.5332 110.373 43.2767C110.373 41.0202 112.149 39.1909 114.339 39.1909C116.53 39.1909 118.306 41.0202 118.306 43.2767C118.306 45.5332 116.53 47.3624 114.339 47.3624Z" fill="#A5A5A5"/>
<path opacity="0.34" d="M105.689 55.313C108.152 57.3041 111.214 58.3436 114.344 58.2512C117.474 58.1587 120.474 56.9401 122.822 54.8069C122.225 52.9168 121.05 51.2767 119.473 50.1319C117.895 48.9871 116 48.3992 114.072 48.4562C112.143 48.5132 110.284 49.2119 108.773 50.4479C107.262 51.684 106.18 53.3908 105.689 55.313V55.313Z" fill="#A5A5A5"/>
<path opacity="0.18" d="M30.8016 33.6788H87.3037V37.2401H30.8016V33.6788Z" fill="#A5A5A5"/>
<path opacity="0.18" d="M30.8016 40.0007H87.3037V43.562H30.8016V40.0007Z" fill="#A5A5A5"/>
<path opacity="0.18" d="M30.8016 46.3134H87.3037V49.8746H30.8016V46.3134Z" fill="#A5A5A5"/>
<path opacity="0.18" d="M30.8016 52.6353H87.3037V56.1965H30.8016V52.6353Z" fill="#A5A5A5"/>
<path d="M25.6592 32.0225C22.8174 32.0225 20.5137 29.6494 20.5137 26.7221C20.5137 23.7947 22.8174 21.4216 25.6592 21.4216C28.501 21.4216 30.8047 23.7947 30.8047 26.7221C30.8047 29.6494 28.501 32.0225 25.6592 32.0225Z" fill="#D86B7F"/>
<path opacity="0.18" d="M150.523 199.032C123.772 199.032 102.086 193.748 102.086 187.229C102.086 180.71 123.772 175.426 150.523 175.426C177.275 175.426 198.961 180.71 198.961 187.229C198.961 193.748 177.275 199.032 150.523 199.032Z" fill="#40798C" fill-opacity="0.5"/>
<path d="M170.096 183.719C170.891 184.345 171.588 185.421 171.168 186.369C170.748 187.317 169.613 187.446 168.649 187.473C165 187.571 161.352 187.238 157.777 186.48C157.671 186.47 157.57 186.424 157.491 186.351C157.419 186.257 157.384 186.139 157.393 186.019C157.128 183.729 157.014 181.424 157.053 179.118C159.019 178.547 161.297 179.237 163.056 180.167C165.317 181.317 168.086 182.118 170.096 183.719Z" fill="#AFAFAF"/>
<path d="M132.946 182.329C132.151 182.964 131.445 184.041 131.865 184.98C132.285 185.918 133.429 186.065 134.393 186.084C138.043 186.177 141.692 185.834 145.265 185.062C145.371 185.053 145.472 185.007 145.551 184.934C145.615 184.836 145.647 184.72 145.64 184.602C145.914 182.313 146.027 180.007 145.98 177.701C144.014 177.121 141.736 177.82 139.977 178.75C137.716 179.937 134.956 180.737 132.946 182.329Z" fill="#AFAFAF"/>
<path d="M162.463 117.316V179.753C162.463 179.753 159.086 180.995 157.032 179.753L150.653 127.153L146.187 178.888C146.187 178.888 142.613 179.753 139.933 178.511L137.254 116.856C137.254 116.856 153.083 113.184 162.463 117.316Z" fill="#473F47"/>
<path d="M116.457 83.4156C118.164 90.4736 118.137 93.9244 120.736 100.688C121.433 102.528 122.523 104.553 124.399 104.783C125.828 104.958 127.141 103.973 128.276 103.053C131.391 100.495 134.514 97.9366 137.647 95.3784C137.963 103.015 137.724 110.665 136.932 118.264C141.256 120.611 145.812 123.012 150.698 122.865C153.769 122.641 156.767 121.8 159.524 120.39C160.194 120.095 160.846 119.792 161.498 119.47C161.736 119.387 161.944 119.233 162.097 119.028C162.99 117.592 162.57 113.985 162.642 112.283C162.749 109.688 162.874 107.083 162.999 104.479C163.053 103.559 163.097 102.703 163.16 101.811C163.383 97.5869 163.642 93.3815 164.053 89.1577C163.982 89.8847 164.687 91.1914 164.946 91.9184C165.277 93.0594 165.607 94.2189 165.947 95.3692C166.311 96.4158 166.609 97.4854 166.84 98.5715C167.037 99.8874 166.42 101.148 166.501 102.501C166.506 103.066 166.638 103.622 166.886 104.127C167.134 104.631 167.491 105.07 167.93 105.409C169.315 106.329 171.128 105.758 172.638 105.096C173.482 104.839 174.216 104.294 174.719 103.55C175.048 102.706 175.095 101.774 174.853 100.9C174.154 96.0042 172.916 91.2066 171.164 86.5995C169.654 82.569 168.171 78.1704 164.017 76.3668C161.865 75.4465 159.301 75.3821 156.996 75.3361L148.885 75.1705C146.311 74.9836 143.725 75.1914 141.211 75.787C137.915 76.7072 135.851 79.247 133.984 82.0537C131.662 85.575 129.482 89.2007 127.445 92.9306C125.998 87.9707 126.15 86.6916 124.399 81.842C121.704 82.0655 119.041 82.5932 116.457 83.4156Z" fill="#40798C"/>
<path d="M151.046 103.145C151.494 103.752 152.075 104.242 152.74 104.576C153.406 104.91 154.138 105.079 154.878 105.068C156.074 105.113 157.267 105.221 158.452 105.39C158.778 105.426 159.088 105.557 159.345 105.768C159.53 106.002 159.656 106.281 159.711 106.577C160.828 110.875 159.81 115.411 159.452 119.838C159.416 120.02 159.435 120.209 159.506 120.381C160.176 120.086 160.828 119.782 161.48 119.46C161.718 119.378 161.926 119.224 162.079 119.019C162.972 117.583 162.552 113.976 162.623 112.274C162.731 109.679 162.856 107.074 162.981 104.47C163.034 103.55 163.079 102.694 163.142 101.802C162.936 101.746 162.722 101.709 162.516 101.673L156.754 100.66C155.334 100.403 153.181 99.5378 151.761 100.09C150.34 100.642 150.385 102.05 151.046 103.145Z" fill="url(#paint0_linear)" fill-opacity="0.15"/>
<path d="M157.234 75.3086C155.877 74.0755 154.626 71.8025 154.876 69.8701C155.126 67.9376 156.493 65.904 157.288 64.0727C157.69 63.1525 158.092 62.0207 157.61 61.1189C157.321 60.7159 156.995 60.3429 156.636 60.0054C155.814 59.0852 155.591 57.7417 155.046 56.6098C154.608 55.7298 153.964 54.9767 153.171 54.419C152.378 53.8612 151.463 53.5167 150.508 53.4167C149.55 53.3449 148.592 53.5393 147.732 53.9796C146.873 54.4199 146.144 55.0899 145.621 55.9197C145.14 56.8073 144.816 57.7765 144.666 58.7815C144.16 61.4589 144.126 64.2083 144.567 66.8978C144.693 67.8303 144.996 68.7279 145.461 69.5388C145.693 69.9408 146.016 70.2799 146.401 70.5279C146.786 70.776 147.223 70.9259 147.676 70.9651C148.149 70.9651 148.694 70.8547 149.025 71.1952C149.175 71.3626 149.269 71.5756 149.293 71.8025C149.417 72.4579 149.339 73.1368 149.07 73.7442C148.754 74.5121 148.527 75.3149 148.391 76.1367C148.212 77.0109 148.096 78.06 148.748 78.6397C149.157 78.9364 149.652 79.0793 150.15 79.0446C151.533 79.0368 152.894 78.6947 154.124 78.0458C155.355 77.3968 156.42 76.4592 157.234 75.3086Z" fill="#FCE6BA"/>
<path d="M148.32 90.8049L142.209 70.551L170.456 77.7747L154.993 99.9518L148.32 90.8049Z" fill="url(#paint1_linear)"/>
<path d="M142.693 51.3737C142.861 50.7449 143.188 50.1733 143.64 49.7173C144.273 49.0625 145.062 48.5922 145.928 48.3545C146.795 48.1169 147.707 48.1204 148.571 48.3646C149.393 48.6039 150.153 49.064 150.966 49.3492C152.393 49.6803 153.846 49.8835 155.307 49.9566C156.754 50.1682 158.3 50.7756 158.979 52.1099C159.324 53.0392 159.535 54.0159 159.604 55.0086C160.086 57.5391 161.846 60.0513 160.944 62.4623C160.042 64.8732 156.62 66.7229 155.218 68.7473C154.86 67.8823 155.289 66.1523 155.655 65.2873C155.962 65.3026 156.266 65.2149 156.52 65.0374C156.775 64.8598 156.967 64.602 157.067 64.3027C157.339 63.8447 157.49 63.3212 157.505 62.7844C157.537 62.517 157.506 62.2457 157.416 61.9928C157.326 61.7399 157.179 61.5128 156.986 61.3304C156.74 61.2139 156.461 61.1935 156.202 61.273C155.942 61.3526 155.719 61.5267 155.575 61.7629C155.301 62.2498 155.153 62.8013 155.146 63.3641C153.36 61.6065 155.316 58.0453 153.708 56.1036C152.477 56.5649 151.214 56.9309 149.929 57.1987C148.571 57.3215 147.202 57.1394 145.918 56.6649C144.105 55.9472 142.211 53.4534 142.693 51.3737Z" fill="black"/>
<path d="M171.199 98.139C172.042 98.4987 172.769 99.0949 173.299 99.8597C173.605 100.395 173.772 101.002 173.783 101.623C173.794 102.243 173.648 102.857 173.361 103.403C173.063 103.941 172.663 104.411 172.184 104.786C171.705 105.161 171.157 105.432 170.574 105.583C168.895 106.044 167.117 105.583 165.429 105.142L159.399 103.541C159.237 103.515 159.087 103.438 158.97 103.32C158.917 103.213 158.89 103.095 158.89 102.975C158.89 102.855 158.917 102.737 158.97 102.63C159.354 101.12 159.604 99.4825 160.131 98.0285C160.605 96.7402 161.167 96.7494 162.49 96.7126C165.384 96.6574 168.537 96.7954 171.199 98.139Z" fill="#40798C"/>
<path d="M121.18 84.1794C120.925 84.1964 120.67 84.1356 120.448 84.0045C120.288 83.8814 120.159 83.7205 120.073 83.5352C119.671 82.8184 119.456 82.0071 119.447 81.1795C119.476 80.7768 119.437 80.372 119.331 79.9832C119.21 79.729 119.063 79.4885 118.893 79.2654C118.278 78.0564 118.062 76.6739 118.277 75.3269C118.278 74.8126 118.375 74.3033 118.563 73.827C118.743 73.4687 118.996 73.1543 119.304 72.9051C119.612 72.6559 119.969 72.4776 120.35 72.3822C121.112 72.1906 121.897 72.1132 122.681 72.1522C123.187 72.106 123.696 72.1881 124.164 72.3914C124.843 72.7411 125.2 74.3147 125.334 75.0416C125.545 76.239 125.319 77.4743 124.7 78.5109C124.497 78.7981 124.323 79.1066 124.182 79.4311C123.807 80.4801 124.691 81.9801 124.039 82.8911C123.669 83.2904 123.226 83.61 122.735 83.8312C122.245 84.0523 121.716 84.1707 121.18 84.1794Z" fill="#FCE6BA"/>
<path d="M109.339 57.8152V79.7347C110.052 78.9056 110.838 78.1477 111.689 77.4709C115.281 74.5259 119.688 72.8311 124.276 72.6306C125.086 72.6163 125.877 72.367 126.556 71.9112C127.235 71.4555 127.776 70.8119 128.117 70.054V70.054C128.447 69.286 128.574 68.4412 128.483 67.6063C128.32 66.5526 127.789 65.5967 126.989 64.9187C126.19 64.2407 125.177 63.8874 124.142 63.9254C121.73 63.8242 116.995 62.904 109.339 57.8152Z" fill="#D86B7F"/>
<path d="M108.371 79.6887C105.342 79.6887 102.887 74.7901 102.887 68.7474C102.887 62.7046 105.342 57.806 108.371 57.806C111.401 57.806 113.856 62.7046 113.856 68.7474C113.856 74.7901 111.401 79.6887 108.371 79.6887Z" fill="#D86B7F"/>
<path d="M108.371 79.6887C105.342 79.6887 102.887 74.7901 102.887 68.7474C102.887 62.7046 105.342 57.806 108.371 57.806C111.401 57.806 113.856 62.7046 113.856 68.7474C113.856 74.7901 111.401 79.6887 108.371 79.6887Z" fill="url(#paint2_linear)" fill-opacity="0.3"/>
<path d="M113.341 64.1371L108.366 65.7382V71.2595L113.386 73.1552C113.973 70.178 113.958 67.1079 113.341 64.1371Z" fill="url(#paint3_linear)" fill-opacity="0.15"/>
<path d="M122.938 77.8943H119.839V80.7009C119.839 81.1256 120.002 81.5329 120.294 81.8331C120.585 82.1334 120.981 82.3021 121.393 82.3021C121.805 82.3021 122.201 82.1334 122.492 81.8331C122.784 81.5329 122.947 81.1256 122.947 80.7009V77.8943H122.938Z" fill="#D86B7F"/>
<path d="M108.374 71.2596C107.679 71.2596 107.115 70.0236 107.115 68.4989C107.115 66.9743 107.679 65.7383 108.374 65.7383C109.07 65.7383 109.634 66.9743 109.634 68.4989C109.634 70.0236 109.07 71.2596 108.374 71.2596Z" fill="#D86B7F"/>
<path d="M111.698 77.425C115.291 74.4799 119.698 72.7851 124.285 72.5847C125.095 72.5703 125.886 72.321 126.565 71.8653C127.244 71.4096 127.785 70.7659 128.126 70.0081C128.01 70.1369 126.679 71.4436 122.936 70.7902C119.005 70.1001 113.574 72.1522 113.574 72.1522L111.698 77.425Z" fill="url(#paint4_linear)" fill-opacity="0.1"/>
<path d="M151.621 101.258H155.391C155.529 101.265 155.667 101.243 155.798 101.194C155.928 101.145 156.047 101.07 156.149 100.973C156.251 100.877 156.334 100.76 156.392 100.631C156.451 100.501 156.484 100.361 156.489 100.219C156.511 100.097 156.511 99.9722 156.489 99.8506L154.703 91.7251C154.612 91.3349 154.399 90.9861 154.097 90.7319C153.796 90.4777 153.422 90.3321 153.032 90.3172H149.272C149.132 90.3123 148.993 90.3357 148.862 90.3863C148.731 90.4368 148.611 90.5134 148.509 90.6117C148.407 90.71 148.325 90.828 148.267 90.9591C148.209 91.0901 148.177 91.2316 148.173 91.3754C148.155 91.4912 148.155 91.6093 148.173 91.7251L149.959 99.8506C150.05 100.239 150.262 100.587 150.561 100.841C150.861 101.095 151.233 101.242 151.621 101.258V101.258Z" fill="#473F47"/>
<path d="M156.685 95.3783C156.57 95.1862 156.438 95.0045 156.292 94.8354C156.092 94.6243 155.82 94.5021 155.533 94.4949C155.503 94.4922 155.472 94.4957 155.443 94.5051C155.414 94.5146 155.387 94.5299 155.363 94.5502C155.338 94.5926 155.32 94.6393 155.31 94.6882C155.265 94.955 155.247 95.2219 155.185 95.4796C155.134 95.7449 155.003 95.9867 154.81 96.1697C154.408 96.5102 153.63 96.2893 153.166 96.2341L151.201 96.0041C151.001 95.9496 150.793 95.942 150.59 95.9819C150.387 96.0217 150.196 96.1079 150.03 96.2341C149.646 96.6206 149.816 97.274 150.03 97.7893C150.629 99.3169 151.415 100.982 152.916 101.562C154.702 102.262 156.703 101.13 158.588 101.433C159.642 101.599 160.813 102.013 161.438 100.808C161.621 100.48 161.708 100.106 161.689 99.7285C161.67 99.3514 161.545 98.9879 161.331 98.6819C160.752 98.156 160.082 97.747 159.357 97.4764C158.748 97.1463 158.171 96.7581 157.632 96.317C157.349 96.0904 157.083 95.8412 156.837 95.5716L156.685 95.3783Z" fill="#FCE6BA"/>
<defs>
<linearGradient id="paint0_linear" x1="-1000.64" y1="-3365.33" x2="-1824.48" y2="-3067.21" gradientUnits="userSpaceOnUse">
<stop offset="0.01"/>
<stop offset="0.08" stop-opacity="0.69"/>
<stop offset="0.21" stop-opacity="0.32"/>
<stop offset="1" stop-opacity="0"/>
</linearGradient>
<linearGradient id="paint1_linear" x1="150.616" y1="103.651" x2="156.261" y2="76.2564" gradientUnits="userSpaceOnUse">
<stop offset="0.01" stop-color="white"/>
<stop offset="1" stop-color="white" stop-opacity="0"/>
</linearGradient>
<linearGradient id="paint2_linear" x1="-1519.77" y1="-4397.51" x2="-2430.13" y2="-4178.19" gradientUnits="userSpaceOnUse">
<stop offset="0.01"/>
<stop offset="0.08" stop-opacity="0.69"/>
<stop offset="0.21" stop-opacity="0.32"/>
<stop offset="1" stop-opacity="0"/>
</linearGradient>
<linearGradient id="paint3_linear" x1="-681.479" y1="-1735.91" x2="-1064.44" y2="-1654.13" gradientUnits="userSpaceOnUse">
<stop offset="0.01"/>
<stop offset="0.08" stop-opacity="0.69"/>
<stop offset="0.21" stop-opacity="0.32"/>
<stop offset="1" stop-opacity="0"/>
</linearGradient>
<linearGradient id="paint4_linear" x1="-2512.34" y1="-1217.45" x2="-2510.46" y2="-1457.67" gradientUnits="userSpaceOnUse">
<stop offset="0.01"/>
<stop offset="0.08" stop-opacity="0.69"/>
<stop offset="0.21" stop-opacity="0.32"/>
<stop offset="1" stop-opacity="0"/>
</linearGradient>
</defs>
</svg>
