<svg width="247.98" height="222.68" xmlns="http://www.w3.org/2000/svg" xmlns:xlink="http://www.w3.org/1999/xlink">
 <defs>
  <linearGradient y2="1.56388" x2="1.82897" y1="0.41902" x1="0.39873" id="linear-gradient">
   <stop offset="0.01"/>
   <stop stop-opacity="0.69" offset="0.08"/>
   <stop stop-opacity="0.32" offset="0.21"/>
   <stop stop-opacity="0" offset="1"/>
  </linearGradient>
  <linearGradient xlink:href="#linear-gradient" gradientTransform="matrix(1, 0, 0, -1, 0, 352)" y2="280.24" x2="331.64" y1="95.84" x1="244.19" id="linear-gradient-2"/>
  <linearGradient xlink:href="#linear-gradient" gradientTransform="translate(-462.22 51.25) rotate(-172.52)" y2="-182.04" x2="-616.77" y1="-7.43" x1="-755.66" id="linear-gradient-3"/>
  <linearGradient xlink:href="#linear-gradient" gradientTransform="matrix(1, 0, 0, -1, 0, 352)" y2="135.57" x2="147.89" y1="168.11" x1="92.81" id="linear-gradient-4"/>
  <linearGradient y2="0.19186" x2="0.5136" y1="1.12582" x1="0.7024" id="linear-gradient-5">
   <stop stop-color="#fff" offset="0.01"/>
   <stop stop-opacity="0" stop-color="#fff" offset="1"/>
  </linearGradient>
  <linearGradient xlink:href="#linear-gradient" gradientTransform="matrix(1, 0, 0, -1, -19.54, 314.22)" y2="173.67" x2="221.84" y1="207.95" x1="150.51" id="linear-gradient-6"/>
  <linearGradient xlink:href="#linear-gradient" gradientTransform="matrix(1, 0, 0, -1, 0, 352)" y2="181.82" x2="211.25" y1="204.9" x1="145.93" id="linear-gradient-7"/>
  <linearGradient xlink:href="#linear-gradient" gradientTransform="matrix(1, 0, 0, -1, 0, 352)" y2="210.82" x2="160.17" y1="178.44" x1="160.73" id="linear-gradient-8"/>
  <linearGradient xlink:href="#linear-gradient" gradientTransform="matrix(0.16, 0.99, 0.99, -0.16, -1394.52, -412.45)" y2="1330.11" x2="744.57" y1="1363.03" x1="793.95" id="linear-gradient-9"/>
  <linearGradient xlink:href="#linear-gradient-5" gradientTransform="matrix(0.28, 0.96, 0.96, -0.28, -1116.96, -321.38)" y2="991.15" x2="791.58" y1="1038.41" x1="788.75" id="linear-gradient-10"/>
  <linearGradient xlink:href="#linear-gradient" gradientTransform="matrix(0.28, 0.96, 0.96, -0.28, -1136.5, -359.16)" y2="950.52" x2="835.54" y1="1030.49" x1="771.92" id="linear-gradient-11"/>
 </defs>
 <title>15</title>
 <g>
  <title>background</title>
  <rect fill="none" id="canvas_background" height="224.68" width="249.98" y="-1" x="-1"/>
 </g>
 <g>
  <title>Layer 1</title>
  <path id="svg_2" fill="#70a9a1" d="m168.08,168.14l52.6,24a4.64,4.64 0 0 0 6.14,-2.29l13.45,-29.47a4.41,4.41 0 0 0 0.42,-1.75a4.65,4.65 0 0 0 -2.7,-4.4l-52.6,-24a4.6,4.6 0 0 0 -6.19,2.24l-13.46,29.49a4.63,4.63 0 0 0 2.28,6.15l0.06,0.03z"/>
  <path id="svg_3" fill="url(#linear-gradient)" d="m168.08,168.14l52.6,24a4.64,4.64 0 0 0 6.14,-2.29l13.45,-29.47a4.41,4.41 0 0 0 0.42,-1.75a4.65,4.65 0 0 0 -2.7,-4.4l-52.6,-24a4.6,4.6 0 0 0 -6.19,2.24l-13.46,29.49a4.63,4.63 0 0 0 2.28,6.15l0.06,0.03z"/>
  <path id="svg_4" fill="#70a9a1" d="m165.65,167.04l52.6,24a4.64,4.64 0 0 0 6.14,-2.28l13.45,-29.48a4.58,4.58 0 0 0 0.42,-1.74a4.65,4.65 0 0 0 -2.71,-4.4l-52.59,-24a4.64,4.64 0 0 0 -6.14,2.29l-13.46,29.48a4.63,4.63 0 0 0 2.29,6.13z"/>
  <polygon id="svg_5" fill="#70a9a1" points="240.04998779296875,156.08999633789062 223.94000244140625,113.77000427246094 181.44000244140625,130.27999877929688 235.94000244140625,163.4600067138672 240.04998779296875,156.08999633789062 "/>
  <path id="svg_6" fill="url(#linear-gradient-2)" d="m179.01,129.22l16.45,36l44.61,-9.11l-16.11,-42.32s-43.75,14.81 -44.95,15.43z"/>
  <polygon id="svg_7" fill="url(#linear-gradient-3)" points="210.7899932861328,162.4499969482422 215.08999633789062,189.60000610351562 165.66000366210938,167.0399932861328 189.55999755859375,152.32000732421875 195.44000244140625,165.1999969482422 210.7899932861328,162.4499969482422 "/>
  <rect id="svg_8" fill="#fff" rx="15.26" height="39.59" width="126.94" y="10.26" x="93.31"/>
  <rect id="svg_9" fill="#fff" rx="15.26" height="39.59" width="126.94" y="54.48" x="114.74"/>
  <rect id="svg_10" fill="#fff" rx="15.26" height="39.59" width="126.94" y="99.75" x="86.72"/>
  <path id="svg_11" opacity="0.18" fill="#70a9a1" d="m123.73,119.82a15,15 0 1 1 -15,-15l0,0a14.92,14.92 0 0 1 15,14.84l0,0.16z"/>
  <circle id="svg_12" opacity="0.34" fill="#70a9a1" r="4.44" cy="118.54" cx="108.32"/>
  <path id="svg_13" opacity="0.34" fill="#70a9a1" d="m117.99,131.62a15,15 0 0 1 -19.17,-0.54a10,10 0 0 1 19.17,0.54z"/>
  <rect id="svg_14" opacity="0.18" fill="#70a9a1" height="3.87" width="63.25" y="108.11" x="138.57"/>
  <rect id="svg_15" opacity="0.18" fill="#70a9a1" height="3.87" width="63.25" y="114.98" x="138.57"/>
  <rect id="svg_16" opacity="0.18" fill="#70a9a1" height="3.87" width="63.25" y="121.85" x="138.57"/>
  <rect id="svg_17" opacity="0.18" fill="#70a9a1" height="3.87" width="63.25" y="128.72" x="138.57"/>
  <ellipse id="svg_18" opacity="0.18" fill="#70a9a1" ry="12.77" rx="104.8" cy="208.31" cx="117.82"/>
  <path id="svg_19" fill="#70a9a1" d="m51.79,204.22c-0.89,0.68 -1.67,1.85 -1.2,2.88s1.74,1.17 2.82,1.2a53.48,53.48 0 0 0 12.17,-1.08a0.55,0.55 0 0 0 0.32,-0.14a0.52,0.52 0 0 0 0.11,-0.36a55.26,55.26 0 0 0 0.38,-7.5c-2.2,-0.62 -4.75,0.13 -6.72,1.14c-2.53,1.25 -5.63,2.12 -7.88,3.86z"/>
  <path id="svg_20" fill="#70a9a1" d="m93.37,202.71c0.89,0.69 1.68,1.86 1.21,2.88s-1.75,1.18 -2.83,1.2a52.89,52.89 0 0 1 -12.17,-1.11a0.55,0.55 0 0 1 -0.32,-0.14a0.58,0.58 0 0 1 -0.1,-0.36a52.2,52.2 0 0 1 -0.38,-7.5c2.2,-0.63 4.75,0.13 6.72,1.14c2.53,1.29 5.62,2.16 7.87,3.89z"/>
  <path id="svg_21" fill="#473f47" d="m60.33,132.06l0,67.85s3.78,1.35 6.08,0l7.14,-57.16l5,56.22s4,0.94 7,-0.41l3,-67s-17.72,-3.99 -28.22,0.5z"/>
  <path id="svg_22" fill="#70a9a1" d="m111.83,95.22c-1.91,7.67 -1.88,11.42 -4.79,18.77c-0.78,2 -2,4.2 -4.1,4.45c-1.6,0.19 -3.07,-0.88 -4.34,-1.88q-5.23,-4.17 -10.49,-8.34a166.59,166.59 0 0 0 0.8,24.87c-4.84,2.55 -9.94,5.16 -15.41,5a26.4,26.4 0 0 1 -9.88,-2.69c-0.75,-0.32 -1.48,-0.65 -2.21,-1a1.41,1.41 0 0 1 -0.67,-0.48c-1,-1.56 -0.53,-5.48 -0.61,-7.33c-0.12,-2.82 -0.26,-5.65 -0.4,-8.48c-0.06,-1 -0.11,-1.93 -0.18,-2.9c-0.25,-4.59 -0.54,-9.16 -1,-13.75c0.08,0.79 -0.71,2.21 -1,3c-0.37,1.24 -0.74,2.5 -1.12,3.75a28.18,28.18 0 0 0 -1,3.48c-0.22,1.43 0.47,2.8 0.38,4.27a4,4 0 0 1 -1.6,3.16c-1.55,1 -3.58,0.38 -5.27,-0.34a4.34,4.34 0 0 1 -2.33,-1.68a4.45,4.45 0 0 1 -0.15,-2.88a70.87,70.87 0 0 1 4.13,-15.54c1.69,-4.38 3.35,-9.16 8,-11.12c2.41,-1 5.28,-1.07 7.86,-1.12l9.08,-0.18a29.17,29.17 0 0 1 8.59,0.67c3.69,1 6,3.76 8.09,6.81q3.9,5.74 7.32,11.82c1.62,-5.39 1.45,-6.78 3.41,-12.05a41.34,41.34 0 0 1 8.89,1.71z"/>
  <path id="svg_23" fill="url(#linear-gradient-4)" d="m73.11,116.66a5.3,5.3 0 0 1 -4.29,2.09a39.65,39.65 0 0 0 -4,0.35a1.94,1.94 0 0 0 -1,0.41a2,2 0 0 0 -0.41,0.88c-1.25,4.67 -0.11,9.6 0.29,14.41a1,1 0 0 1 -0.06,0.59l0,0c-0.75,-0.32 -1.48,-0.65 -2.21,-1a1.41,1.41 0 0 1 -0.67,-0.48c-1,-1.56 -0.53,-5.48 -0.61,-7.33c-0.12,-2.82 -0.26,-5.65 -0.4,-8.48c-0.06,-1 -0.11,-1.93 -0.18,-2.9c0.23,-0.06 0.47,-0.1 0.7,-0.14l6.45,-1.1c1.59,-0.28 4,-1.22 5.59,-0.62s1.54,2.13 0.8,3.32z"/>
  <path id="svg_24" fill="#fcbdba" d="m66.18,86.41c1.52,-1.34 2.92,-3.81 2.64,-5.91s-1.81,-4.31 -2.7,-6.3c-0.45,-1 -0.9,-2.23 -0.36,-3.21a8.34,8.34 0 0 1 1.09,-1.21c0.92,-1 1.17,-2.46 1.78,-3.69a6.44,6.44 0 0 1 5.08,-3.47a6,6 0 0 1 5.47,2.72a9.27,9.27 0 0 1 1.07,3.11a24.66,24.66 0 0 1 0.11,8.82a7.74,7.74 0 0 1 -1,2.87a3.2,3.2 0 0 1 -2.48,1.55c-0.53,0 -1.14,-0.12 -1.51,0.25a1.15,1.15 0 0 0 -0.3,0.66a3.48,3.48 0 0 0 0.25,2.11a11.75,11.75 0 0 1 0.76,2.6c0.2,0.95 0.33,2.09 -0.4,2.72a2.44,2.44 0 0 1 -1.57,0.44a9.88,9.88 0 0 1 -7.93,-4.06z"/>
  <polygon id="svg_25" fill="url(#linear-gradient-5)" points="76.16000366210938,103.25 83,81.23999786376953 51.37999725341797,89.08999633789062 68.69000244140625,113.19000244140625 76.16000366210938,103.25 "/>
  <path id="svg_26" fill="#fc682d" d="m82.46,60.4a4,4 0 0 0 -1.06,-1.8a5.67,5.67 0 0 0 -5.52,-1.47c-0.92,0.26 -1.77,0.76 -2.68,1.07a28.4,28.4 0 0 1 -4.86,0.66c-1.62,0.23 -3.35,0.89 -4.11,2.34a11,11 0 0 0 -0.7,3.15c-0.54,2.75 -2.51,5.48 -1.5,8.1s4.84,4.63 6.41,6.83c0.4,-0.94 -0.08,-2.82 -0.49,-3.76a1.59,1.59 0 0 1 -1.58,-1.07a3.34,3.34 0 0 1 -0.49,-1.65a1.84,1.84 0 0 1 0.58,-1.58a1.25,1.25 0 0 1 1.58,0.47a3.56,3.56 0 0 1 0.48,1.74c2,-1.91 -0.19,-5.78 1.61,-7.89a29.51,29.51 0 0 0 4.23,1.19a10.56,10.56 0 0 0 4.49,-0.58c2.03,-0.78 4.15,-3.49 3.61,-5.75z"/>
  <path id="svg_27" fill="#70a9a1" d="m50.55,111.22a5.45,5.45 0 0 0 -2.35,1.87a3.91,3.91 0 0 0 -0.07,3.85a5,5 0 0 0 3.12,2.37c1.88,0.5 3.87,0 5.76,-0.48l6.75,-1.74a0.88,0.88 0 0 0 0.48,-0.24a0.83,0.83 0 0 0 0,-0.75c-0.43,-1.64 -0.71,-3.42 -1.3,-5c-0.53,-1.4 -1.16,-1.39 -2.64,-1.43c-3.24,-0.06 -6.77,0.09 -9.75,1.55z"/>
  <path id="svg_28" fill="#fcbdba" d="m106.54,96.05a1.46,1.46 0 0 0 0.82,-0.19a1.39,1.39 0 0 0 0.42,-0.51a5.23,5.23 0 0 0 0.7,-2.56a3.79,3.79 0 0 1 0.13,-1.3a4.46,4.46 0 0 1 0.49,-0.78a6.83,6.83 0 0 0 0.69,-4.28a4.34,4.34 0 0 0 -0.32,-1.63a3.07,3.07 0 0 0 -2,-1.57a9.15,9.15 0 0 0 -2.61,-0.25a3.48,3.48 0 0 0 -1.66,0.26c-0.76,0.38 -1.16,2.09 -1.31,2.88a5.37,5.37 0 0 0 0.71,3.77a5.54,5.54 0 0 1 0.58,1c0.42,1.14 -0.57,2.77 0.16,3.76a4.52,4.52 0 0 0 3.2,1.4z"/>
  <path id="svg_29" fill="#70a9a1" d="m119.79,67.4l0,23.82a19.12,19.12 0 0 0 -2.63,-2.46a24.28,24.28 0 0 0 -14.09,-5.26a4.83,4.83 0 0 1 -4.3,-2.8l0,0a5.15,5.15 0 0 1 -0.41,-2.66a4.75,4.75 0 0 1 4.86,-4c2.7,-0.11 8,-1.11 16.57,-6.64z"/>
  <ellipse id="svg_30" fill="#70a9a1" ry="11.89" rx="6.14" cy="79.28" cx="120.88"/>
  <ellipse id="svg_31" fill="url(#linear-gradient-6)" ry="11.89" rx="6.14" cy="79.28" cx="120.88"/>
  <path id="svg_32" fill="url(#linear-gradient-7)" d="m115.31,74.27l5.57,1.74l0,6l-5.62,2.06a24,24 0 0 1 0.05,-9.8z"/>
  <path id="svg_33" fill="#70a9a1" d="m104.57,89.22l3.47,0l0,3.05a1.74,1.74 0 0 1 -1.74,1.74l0,0a1.74,1.74 0 0 1 -1.74,-1.74l0,0l0,-3.05l0.01,0z"/>
  <ellipse id="svg_34" fill="#70a9a1" ry="3" rx="1.41" cy="79.01" cx="120.88"/>
  <path id="svg_35" fill="url(#linear-gradient-8)" d="m117.16,88.71a24.28,24.28 0 0 0 -14.09,-5.26a4.83,4.83 0 0 1 -4.3,-2.8c0.13,0.14 1.62,1.56 5.81,0.85c4.4,-0.75 10.48,1.48 10.48,1.48l2.1,5.73z"/>
  <path id="svg_36" fill="#473f47" d="m72.46,114.61l-4.22,0a1.18,1.18 0 0 1 -1.23,-1.13a1.1,1.1 0 0 1 0,-0.4l2,-8.83a2,2 0 0 1 1.87,-1.53l4.21,0a1.19,1.19 0 0 1 1.23,1.15a1.2,1.2 0 0 1 0,0.38l-2,8.83a2,2 0 0 1 -1.86,1.53z"/>
  <path id="svg_37" fill="#fcbdba" d="m66.8,108.22a4.31,4.31 0 0 1 0.44,-0.59a1.23,1.23 0 0 1 0.85,-0.37a0.26,0.26 0 0 1 0.19,0.06a0.47,0.47 0 0 1 0.06,0.15c0.05,0.29 0.07,0.58 0.14,0.86a1.38,1.38 0 0 0 0.42,0.75c0.45,0.37 1.32,0.13 1.84,0.07l2.2,-0.25a1.54,1.54 0 0 1 1.31,0.25c0.43,0.42 0.24,1.13 0,1.69c-0.67,1.66 -1.55,3.47 -3.23,4.1c-2,0.76 -4.24,-0.47 -6.35,-0.14c-1.18,0.18 -2.49,0.63 -3.19,-0.68a2.13,2.13 0 0 1 0.12,-2.31a6.88,6.88 0 0 1 2.21,-1.31a12.31,12.31 0 0 0 1.93,-1.26a7.65,7.65 0 0 0 0.89,-0.81l0.17,-0.21z"/>
  <path id="svg_38" opacity="0.18" fill="#70a9a1" d="m149.46,74.27a14.92,14.92 0 1 1 0,-0.16l0,0.16z"/>
  <circle id="svg_39" opacity="0.34" fill="#70a9a1" r="4.44" cy="72.99" cx="134.07"/>
  <path id="svg_40" opacity="0.34" fill="#70a9a1" d="m143.74,86.07a15,15 0 0 1 -19.17,-0.54a10,10 0 0 1 19.17,0.54z"/>
  <rect id="svg_41" opacity="0.18" fill="#70a9a1" height="3.87" width="63.25" y="62.56" x="164.32"/>
  <rect id="svg_42" opacity="0.18" fill="#70a9a1" height="3.87" width="63.25" y="69.43" x="164.32"/>
  <rect id="svg_43" opacity="0.18" fill="#70a9a1" height="3.87" width="63.25" y="76.3" x="164.32"/>
  <rect id="svg_44" opacity="0.18" fill="#70a9a1" height="3.87" width="63.25" y="83.17" x="164.32"/>
  <path id="svg_45" opacity="0.18" fill="#70a9a1" d="m129.62,30.05a15,15 0 1 1 -15,-15l0,0a15,15 0 0 1 15,15z"/>
  <circle id="svg_46" opacity="0.34" fill="#70a9a1" r="4.44" cy="28.78" cx="114.2"/>
  <path id="svg_47" opacity="0.34" fill="#70a9a1" d="m123.88,41.86a15,15 0 0 1 -19.18,-0.55a10,10 0 0 1 19.18,0.55z"/>
  <rect id="svg_48" opacity="0.18" fill="#70a9a1" height="3.87" width="63.25" y="18.35" x="144.46"/>
  <rect id="svg_49" opacity="0.18" fill="#70a9a1" height="3.87" width="63.25" y="25.22" x="144.46"/>
  <rect id="svg_50" opacity="0.18" fill="#70a9a1" height="3.87" width="63.25" y="32.08" x="144.46"/>
  <rect id="svg_51" opacity="0.18" fill="#70a9a1" height="3.87" width="63.25" y="38.95" x="144.46"/>
  <circle id="svg_52" fill="#70a9a1" r="5.76" cy="10.79" cx="213.47"/>
  <path id="svg_53" fill="#70a9a1" d="m21.31,92.33l-14.68,-22a2.14,2.14 0 0 1 0.53,-3l0,0l12.4,-8.21a2.11,2.11 0 0 1 0.76,-0.31a2.14,2.14 0 0 1 2.19,0.9l14.68,22a2.14,2.14 0 0 1 0.26,1.79a2.09,2.09 0 0 1 -0.85,1.15l-12.35,8.27a2.12,2.12 0 0 1 -2.93,-0.57l-0.01,-0.02z"/>
  <path id="svg_54" fill="url(#linear-gradient-9)" d="m21.31,92.33l-14.68,-22a2.14,2.14 0 0 1 0.53,-3l0,0l12.4,-8.21a2.11,2.11 0 0 1 0.76,-0.31a2.14,2.14 0 0 1 2.19,0.9l14.68,22a2.14,2.14 0 0 1 0.26,1.79a2.09,2.09 0 0 1 -0.85,1.15l-12.35,8.27a2.12,2.12 0 0 1 -2.93,-0.57l-0.01,-0.02z"/>
  <path id="svg_55" fill="#70a9a1" d="m21.98,93.35l-14.68,-22a2.13,2.13 0 0 1 0.59,-2.95l12.35,-8.18a2.11,2.11 0 0 1 0.76,-0.31a2.13,2.13 0 0 1 2.18,0.9l14.68,22a2.12,2.12 0 0 1 -0.58,2.94l-12.36,8.23a2.12,2.12 0 0 1 -2.94,-0.63z"/>
  <path id="svg_56" fill="url(#linear-gradient-10)" d="m38.13,84.56l-17.48,-4.81l0.35,-19.92a2.13,2.13 0 0 1 2.18,0.9l14.68,22a2.08,2.08 0 0 1 0.27,1.83z"/>
  <polygon id="svg_57" fill="url(#linear-gradient-11)" points="20.770000457763672,72.61000061035156 8.189998626708984,72.63999938964844 21.979999542236328,93.35000610351562 26.90999984741211,81.47000122070312 20.65999984741211,79.75 20.770000457763672,72.61000061035156 "/>
 </g>
</svg>