<svg width="192" height="194" viewBox="0 0 192 194" fill="none" xmlns="http://www.w3.org/2000/svg">
<path d="M31.9001 5.07727H114.588C121.816 5.07727 127.675 11.1757 127.675 18.6985V26.7944C127.675 34.3172 121.816 40.4156 114.588 40.4156H31.9001C24.6725 40.4156 18.8134 34.3172 18.8134 26.7944V18.6985C18.8134 11.1757 24.6725 5.07727 31.9001 5.07727Z" fill="white"/>
<path d="M13.5271 44.5483H96.2151C103.443 44.5483 109.302 50.6467 109.302 58.1695V66.2655C109.302 73.7882 103.443 79.8866 96.2151 79.8866H13.5271C6.29951 79.8866 0.440422 73.7882 0.440422 66.2655V58.1695C0.440422 50.6467 6.29951 44.5483 13.5271 44.5483Z" fill="white"/>
<path d="M37.5544 84.9567H120.242C127.47 84.9567 133.329 91.0551 133.329 98.5778V106.674C133.329 114.197 127.47 120.295 120.242 120.295H37.5544C30.3268 120.295 24.4677 114.197 24.4677 106.674V98.5778C24.4677 91.0551 30.3268 84.9567 37.5544 84.9567Z" fill="white"/>
<path opacity="0.18" d="M101.593 102.871C101.593 105.519 102.347 108.108 103.761 110.31C105.174 112.512 107.183 114.228 109.534 115.241C111.884 116.255 114.471 116.52 116.966 116.003C119.461 115.486 121.754 114.211 123.553 112.339C125.352 110.466 126.577 108.081 127.073 105.483C127.569 102.886 127.315 100.194 126.341 97.7474C125.367 95.3009 123.719 93.2098 121.603 91.7386C119.488 90.2674 117.001 89.4821 114.457 89.4821C112.776 89.4727 111.111 89.8079 109.555 90.4685C107.999 91.1291 106.583 92.1022 105.389 93.3322C104.194 94.5623 103.244 96.0252 102.593 97.6374C101.942 99.2496 101.602 100.98 101.593 102.728V102.871Z" fill="#70A9A1"/>
<path opacity="0.34" d="M114.809 105.692C112.706 105.692 111.001 103.918 111.001 101.729C111.001 99.54 112.706 97.7656 114.809 97.7656C116.911 97.7656 118.616 99.54 118.616 101.729C118.616 103.918 116.911 105.692 114.809 105.692Z" fill="#70A9A1"/>
<path opacity="0.34" d="M106.513 113.404C108.876 115.334 111.814 116.343 114.817 116.255C117.82 116.167 120.698 114.988 122.953 112.922C122.378 111.092 121.251 109.505 119.738 108.396C118.226 107.288 116.409 106.719 114.56 106.773C112.711 106.827 110.929 107.502 109.478 108.697C108.028 109.892 106.988 111.543 106.513 113.404V113.404Z" fill="#70A9A1"/>
<path opacity="0.18" d="M34.6213 92.4188H88.8633V95.8732H34.6213V92.4188Z" fill="#70A9A1"/>
<path opacity="0.18" d="M34.6213 98.551H88.8633V102.005H34.6213V98.551Z" fill="#70A9A1"/>
<path opacity="0.18" d="M34.6213 104.683H88.8633V108.138H34.6213V104.683Z" fill="#70A9A1"/>
<path opacity="0.18" d="M34.6213 110.815H88.8633V114.27H34.6213V110.815Z" fill="#70A9A1"/>
<path opacity="0.18" d="M79.5223 62.213C79.5404 65.7388 80.9012 69.1133 83.3061 71.5964C85.7111 74.0795 88.964 75.4687 92.3515 75.4592C95.739 75.4498 98.9847 74.0425 101.377 71.546C103.769 69.0494 105.112 65.6674 105.112 62.1416C105.112 58.6157 103.769 55.2337 101.377 52.7371C98.9847 50.2406 95.739 48.8334 92.3515 48.8239C88.964 48.8144 85.7111 50.2036 83.3061 52.6867C80.9012 55.1699 79.5404 58.5443 79.5223 62.0701V62.213Z" fill="#70A9A1"/>
<path opacity="0.34" d="M92.7216 65.0337C90.6187 65.0337 88.914 63.2593 88.914 61.0705C88.914 58.8817 90.6187 57.1073 92.7216 57.1073C94.8245 57.1073 96.5293 58.8817 96.5293 61.0705C96.5293 63.2593 94.8245 65.0337 92.7216 65.0337Z" fill="#70A9A1"/>
<path opacity="0.34" d="M84.4322 72.7459C86.7954 74.6761 89.7331 75.6846 92.7358 75.5966C95.7386 75.5085 98.617 74.3295 100.872 72.2638C100.297 70.4339 99.1696 68.8463 97.657 67.7381C96.1445 66.6299 94.3282 66.0604 92.4792 66.1146C90.6302 66.1688 88.8476 66.8438 87.3974 68.0389C85.9472 69.234 84.9071 70.8851 84.4322 72.7459V72.7459Z" fill="#70A9A1"/>
<path opacity="0.18" d="M12.5401 51.7605H66.7822V55.2149H12.5401V51.7605Z" fill="#70A9A1"/>
<path opacity="0.18" d="M12.5401 57.8928H66.7822V61.3472H12.5401V57.8928Z" fill="#70A9A1"/>
<path opacity="0.18" d="M12.5401 64.0249H66.7822V67.4793H12.5401V64.0249Z" fill="#70A9A1"/>
<path opacity="0.18" d="M12.5401 70.1572H66.7822V73.6116H12.5401V70.1572Z" fill="#70A9A1"/>
<path opacity="0.18" d="M96.5411 22.7419C96.5411 25.39 97.2956 27.9787 98.7091 30.1805C100.123 32.3823 102.132 34.0984 104.482 35.1118C106.833 36.1252 109.419 36.3904 111.914 35.8737C114.41 35.3571 116.702 34.0819 118.501 32.2094C120.3 30.3369 121.525 27.9512 122.021 25.354C122.518 22.7567 122.263 20.0646 121.289 17.6181C120.316 15.1716 118.667 13.0805 116.552 11.6093C114.436 10.138 111.949 9.35278 109.405 9.35278C105.993 9.35278 102.721 10.7634 100.309 13.2744C97.8964 15.7853 96.5411 19.1909 96.5411 22.7419V22.7419Z" fill="#70A9A1"/>
<path opacity="0.34" d="M109.766 25.5715C107.663 25.5715 105.958 23.7971 105.958 21.6083C105.958 19.4195 107.663 17.6451 109.766 17.6451C111.869 17.6451 113.573 19.4195 113.573 21.6083C113.573 23.7971 111.869 25.5715 109.766 25.5715Z" fill="#70A9A1"/>
<path opacity="0.34" d="M101.461 33.2836C103.826 35.2149 106.766 36.2233 109.77 36.1336C112.775 36.0439 115.655 34.8619 117.909 32.7927C117.336 30.9593 116.208 29.3683 114.693 28.2579C113.179 27.1474 111.36 26.5772 109.509 26.6325C107.657 26.6877 105.872 27.3655 104.422 28.5645C102.971 29.7634 101.932 31.419 101.461 33.2836V33.2836Z" fill="#70A9A1"/>
<path opacity="0.18" d="M29.5695 12.2985H83.8115V15.7528H29.5695V12.2985Z" fill="#70A9A1"/>
<path opacity="0.18" d="M29.5695 18.4307H83.8115V21.8851H29.5695V18.4307Z" fill="#70A9A1"/>
<path opacity="0.18" d="M29.5695 24.554H83.8115V28.0083H29.5695V24.554Z" fill="#70A9A1"/>
<path opacity="0.18" d="M29.5695 30.6862H83.8115V34.1406H29.5695V30.6862Z" fill="#70A9A1"/>
<path d="M24.6326 10.6918C21.9045 10.6918 19.6929 8.38987 19.6929 5.55035C19.6929 2.71082 21.9045 0.408936 24.6326 0.408936C27.3607 0.408936 29.5723 2.71082 29.5723 5.55035C29.5723 8.38987 27.3607 10.6918 24.6326 10.6918Z" fill="#D86B7F"/>
<path opacity="0.18" d="M144.503 193.061C118.822 193.061 98.0029 187.935 98.0029 181.612C98.0029 175.289 118.822 170.163 144.503 170.163C170.184 170.163 191.003 175.289 191.003 181.612C191.003 187.935 170.184 193.061 144.503 193.061Z" fill="#40798C" fill-opacity="0.5"/>
<path d="M163.292 178.207C164.055 178.814 164.724 179.859 164.321 180.778C163.918 181.697 162.829 181.822 161.903 181.849C158.4 181.944 154.898 181.62 151.466 180.885C151.364 180.876 151.268 180.832 151.192 180.76C151.123 180.669 151.089 180.554 151.097 180.439C150.843 178.218 150.734 175.981 150.771 173.744C152.658 173.191 154.845 173.86 156.534 174.762C158.704 175.878 161.363 176.654 163.292 178.207Z" fill="#AFAFAF"/>
<path d="M127.628 176.859C126.865 177.475 126.187 178.52 126.59 179.43C126.993 180.341 128.091 180.483 129.017 180.501C132.521 180.592 136.024 180.259 139.454 179.51C139.556 179.501 139.653 179.457 139.729 179.386C139.79 179.291 139.821 179.178 139.814 179.064C140.077 176.844 140.186 174.606 140.14 172.37C138.253 171.807 136.067 172.486 134.377 173.387C132.208 174.539 129.558 175.315 127.628 176.859Z" fill="#AFAFAF"/>
<path d="M155.964 113.797V174.36C155.964 174.36 152.722 175.565 150.75 174.36L144.627 123.339L140.339 173.521C140.339 173.521 136.908 174.36 134.336 173.155L131.763 113.35C131.763 113.35 146.959 109.789 155.964 113.797Z" fill="#473F47"/>
<path d="M111.799 80.9131C113.437 87.7594 113.412 91.1067 115.907 97.6673C116.576 99.4525 117.622 101.416 119.423 101.639C120.795 101.809 122.056 100.854 123.145 99.9613C126.135 97.4799 129.134 94.9984 132.141 92.517C132.444 99.9241 132.215 107.345 131.455 114.716C135.606 116.992 139.979 119.322 144.67 119.179C147.618 118.962 150.497 118.146 153.143 116.778C153.786 116.492 154.413 116.198 155.039 115.885C155.267 115.805 155.467 115.656 155.613 115.457C156.471 114.065 156.068 110.565 156.136 108.914C156.239 106.397 156.359 103.871 156.479 101.345C156.531 100.452 156.574 99.6221 156.634 98.7563C156.848 94.6592 157.097 90.58 157.491 86.483C157.423 87.1881 158.1 88.4556 158.349 89.1608C158.666 90.2676 158.983 91.3923 159.309 92.5081C159.659 93.5233 159.945 94.5608 160.167 95.6143C160.356 96.8908 159.764 98.1136 159.841 99.4258C159.846 99.974 159.973 100.514 160.211 101.003C160.449 101.492 160.792 101.917 161.213 102.246C162.542 103.139 164.283 102.586 165.733 101.943C166.543 101.694 167.248 101.165 167.731 100.443C168.047 99.6251 168.092 98.7206 167.859 97.8726C167.188 93.124 166 88.4704 164.318 84.0015C162.868 80.0919 161.445 75.8252 157.457 74.0757C155.39 73.1831 152.929 73.1206 150.716 73.076L142.929 72.9153C140.459 72.734 137.976 72.9356 135.563 73.5134C132.398 74.406 130.417 76.8696 128.625 79.592C126.395 83.0077 124.303 86.5246 122.348 90.1426C120.958 85.3315 121.104 84.0908 119.423 79.3867C116.836 79.6035 114.279 80.1153 111.799 80.9131Z" fill="#40798C"/>
<path d="M145.005 100.051C145.435 100.639 145.992 101.115 146.631 101.439C147.27 101.763 147.973 101.926 148.684 101.916C149.831 101.96 150.976 102.064 152.114 102.229C152.427 102.264 152.725 102.39 152.971 102.595C153.149 102.822 153.27 103.092 153.323 103.38C154.395 107.549 153.417 111.949 153.074 116.243C153.04 116.419 153.058 116.603 153.126 116.769C153.769 116.484 154.395 116.189 155.021 115.877C155.249 115.796 155.449 115.647 155.596 115.448C156.453 114.056 156.05 110.557 156.119 108.905C156.222 106.388 156.342 103.862 156.462 101.336C156.513 100.443 156.556 99.6133 156.616 98.7474C156.419 98.6939 156.213 98.6582 156.016 98.6225L150.485 97.6406C149.121 97.3907 147.054 96.5516 145.691 97.0872C144.327 97.6227 144.37 98.9884 145.005 100.051Z" fill="url(#paint0_linear)" fill-opacity="0.15"/>
<path d="M150.945 73.0493C149.641 71.8532 148.441 69.6485 148.681 67.774C148.921 65.8995 150.233 63.9269 150.996 62.1506C151.382 61.258 151.768 60.1601 151.305 59.2853C151.028 58.8944 150.715 58.5327 150.37 58.2053C149.581 57.3126 149.367 56.0094 148.844 54.9115C148.423 54.0579 147.805 53.3274 147.044 52.7864C146.283 52.2454 145.404 51.9112 144.487 51.8142C143.568 51.7445 142.648 51.9331 141.823 52.3602C140.997 52.7873 140.298 53.4372 139.796 54.2421C139.334 55.1031 139.023 56.0432 138.879 57.0181C138.393 59.6151 138.361 62.282 138.784 64.8909C138.905 65.7954 139.196 66.6661 139.642 67.4527C139.865 67.8426 140.175 68.1715 140.545 68.4121C140.914 68.6527 141.334 68.7981 141.769 68.8362C142.223 68.8362 142.746 68.7291 143.064 69.0594C143.208 69.2217 143.298 69.4284 143.321 69.6485C143.44 70.2842 143.365 70.9427 143.106 71.5319C142.804 72.2767 142.585 73.0555 142.455 73.8527C142.283 74.7006 142.172 75.7182 142.798 76.2805C143.19 76.5683 143.665 76.7069 144.144 76.6733C145.471 76.6657 146.778 76.3339 147.959 75.7044C149.14 75.0749 150.163 74.1655 150.945 73.0493Z" fill="#FCE6BA"/>
<path d="M142.387 88.0807L136.521 68.4344L163.638 75.4414L148.793 96.9532L142.387 88.0807Z" fill="url(#paint1_linear)"/>
<path d="M136.986 49.8325C137.147 49.2226 137.461 48.6682 137.895 48.2259C138.502 47.5907 139.26 47.1345 140.092 46.904C140.924 46.6734 141.799 46.6768 142.629 46.9137C143.418 47.1458 144.147 47.5921 144.928 47.8688C146.298 48.1899 147.692 48.387 149.095 48.4579C150.485 48.6632 151.968 49.2524 152.62 50.5466C152.952 51.4481 153.154 52.3955 153.22 53.3584C153.683 55.813 155.373 58.2498 154.507 60.5885C153.641 62.9271 150.356 64.7212 149.01 66.685C148.667 65.8459 149.078 64.1678 149.43 63.3288C149.725 63.3436 150.016 63.2585 150.26 63.0863C150.505 62.9141 150.689 62.664 150.785 62.3737C151.046 61.9294 151.191 61.4216 151.205 60.9009C151.236 60.6416 151.207 60.3783 151.12 60.1331C151.034 59.8878 150.892 59.6675 150.708 59.4906C150.471 59.3775 150.204 59.3577 149.954 59.4349C149.705 59.5121 149.491 59.681 149.353 59.9101C149.09 60.3824 148.948 60.9173 148.941 61.4632C147.226 59.7583 149.104 56.304 147.56 54.4206C146.378 54.868 145.166 55.223 143.933 55.4827C142.628 55.6019 141.315 55.4253 140.082 54.965C138.341 54.2688 136.523 51.8498 136.986 49.8325Z" fill="black"/>
<path d="M164.352 95.1949C165.16 95.5438 165.859 96.1222 166.367 96.864C166.661 97.3828 166.821 97.9719 166.831 98.5741C166.842 99.1763 166.703 99.7711 166.427 100.301C166.141 100.823 165.756 101.279 165.296 101.642C164.837 102.006 164.311 102.269 163.751 102.416C162.139 102.862 160.432 102.416 158.812 101.988L153.023 100.434C152.868 100.409 152.724 100.335 152.611 100.22C152.561 100.116 152.534 100.002 152.534 99.8855C152.534 99.7692 152.561 99.6545 152.611 99.5508C152.98 98.0869 153.22 96.4981 153.726 95.0878C154.181 93.8381 154.721 93.847 155.99 93.8113C158.769 93.7578 161.796 93.8917 164.352 95.1949Z" fill="#40798C"/>
<path d="M116.333 81.654C116.088 81.6705 115.843 81.6116 115.63 81.4844C115.476 81.365 115.353 81.2088 115.27 81.0292C114.884 80.3339 114.677 79.5468 114.669 78.7441C114.697 78.3535 114.659 77.9609 114.558 77.5837C114.441 77.3372 114.3 77.1038 114.138 76.8875C113.547 75.7147 113.339 74.3737 113.546 73.0671C113.546 72.5683 113.64 72.0742 113.82 71.6122C113.993 71.2646 114.236 70.9597 114.532 70.718C114.828 70.4762 115.17 70.3033 115.535 70.2108C116.267 70.0249 117.021 69.9498 117.774 69.9876C118.259 69.9428 118.748 70.0225 119.197 70.2197C119.849 70.5589 120.192 72.0852 120.321 72.7904C120.523 73.9519 120.306 75.1501 119.712 76.1555C119.517 76.4342 119.35 76.7334 119.215 77.0481C118.854 78.0657 119.703 79.5207 119.077 80.4043C118.722 80.7917 118.297 81.1017 117.826 81.3162C117.355 81.5308 116.847 81.6456 116.333 81.654Z" fill="#FCE6BA"/>
<path d="M104.966 56.0808V77.3427C105.649 76.5386 106.405 75.8034 107.221 75.1469C110.67 72.2902 114.901 70.6462 119.304 70.4518C120.083 70.4379 120.841 70.196 121.494 69.754C122.146 69.312 122.665 68.6876 122.992 67.9525V67.9525C123.309 67.2075 123.431 66.3881 123.344 65.5782C123.187 64.5561 122.677 63.6289 121.91 62.9712C121.142 62.3136 120.17 61.9709 119.176 62.0077C116.86 61.9095 112.315 61.0169 104.966 56.0808Z" fill="#D86B7F"/>
<path d="M104.037 77.2981C101.129 77.2981 98.7716 72.5465 98.7716 66.685C98.7716 60.8235 101.129 56.0719 104.037 56.0719C106.945 56.0719 109.303 60.8235 109.303 66.685C109.303 72.5465 106.945 77.2981 104.037 77.2981Z" fill="#D86B7F"/>
<path d="M104.037 77.2981C101.129 77.2981 98.7716 72.5465 98.7716 66.685C98.7716 60.8235 101.129 56.0719 104.037 56.0719C106.945 56.0719 109.303 60.8235 109.303 66.685C109.303 72.5465 106.945 77.2981 104.037 77.2981Z" fill="url(#paint2_linear)" fill-opacity="0.3"/>
<path d="M108.807 62.213L104.031 63.7661V69.1218L108.85 70.9605C109.414 68.0727 109.4 65.0947 108.807 62.213Z" fill="url(#paint3_linear)" fill-opacity="0.15"/>
<path d="M118.021 75.5575H115.045V78.2799C115.045 78.6919 115.202 79.0869 115.482 79.3782C115.762 79.6694 116.141 79.8331 116.537 79.8331C116.933 79.8331 117.312 79.6694 117.592 79.3782C117.872 79.0869 118.029 78.6919 118.029 78.2799V75.5575H118.021Z" fill="#D86B7F"/>
<path d="M104.039 69.1218C103.371 69.1218 102.83 67.9229 102.83 66.4439C102.83 64.965 103.371 63.7661 104.039 63.7661C104.707 63.7661 105.248 64.965 105.248 66.4439C105.248 67.9229 104.707 69.1218 104.039 69.1218Z" fill="#D86B7F"/>
<path d="M107.23 75.1023C110.679 72.2455 114.91 70.6016 119.313 70.4071C120.092 70.3932 120.85 70.1514 121.502 69.7093C122.155 69.2673 122.674 68.6429 123.001 67.9078C122.889 68.0328 121.612 69.3003 118.018 68.6666C114.245 67.9971 109.031 69.9876 109.031 69.9876L107.23 75.1023Z" fill="url(#paint4_linear)" fill-opacity="0.1"/>
<path d="M145.556 98.2208H149.175C149.307 98.2267 149.44 98.2054 149.565 98.1579C149.69 98.1104 149.805 98.0378 149.903 97.9441C150.001 97.8504 150.08 97.7375 150.136 97.6119C150.192 97.4863 150.224 97.3505 150.229 97.2121C150.25 97.0941 150.25 96.9731 150.229 96.8551L148.514 88.9734C148.427 88.5948 148.222 88.2565 147.933 88.01C147.643 87.7634 147.284 87.6221 146.911 87.6077H143.3C143.166 87.6029 143.032 87.6257 142.907 87.6747C142.781 87.7237 142.666 87.798 142.568 87.8934C142.47 87.9887 142.391 88.1032 142.336 88.2303C142.281 88.3574 142.25 88.4947 142.245 88.6342C142.228 88.7465 142.228 88.861 142.245 88.9734L143.96 96.8551C144.048 97.2322 144.251 97.5694 144.538 97.8158C144.826 98.0622 145.183 98.2044 145.556 98.2208V98.2208Z" fill="#473F47"/>
<path d="M150.418 92.517C150.307 92.3306 150.181 92.1544 150.041 91.9903C149.848 91.7855 149.587 91.667 149.312 91.6601C149.282 91.6574 149.253 91.6608 149.225 91.67C149.197 91.6791 149.171 91.694 149.149 91.7136C149.124 91.7548 149.107 91.8001 149.097 91.8475C149.054 92.1064 149.037 92.3652 148.977 92.6152C148.929 92.8725 148.803 93.1071 148.617 93.2846C148.231 93.6149 147.485 93.4006 147.039 93.3471L145.152 93.1239C144.961 93.0711 144.761 93.0638 144.566 93.1024C144.372 93.141 144.188 93.2246 144.029 93.3471C143.66 93.722 143.823 94.3557 144.029 94.8556C144.604 96.3373 145.358 97.953 146.799 98.5153C148.514 99.1937 150.435 98.0958 152.245 98.3903C153.257 98.551 154.38 98.9527 154.98 97.7834C155.156 97.4659 155.239 97.1024 155.221 96.7366C155.203 96.3708 155.084 96.0183 154.877 95.7214C154.322 95.2113 153.679 94.8146 152.982 94.5521C152.398 94.2319 151.844 93.8554 151.327 93.4274C151.055 93.2077 150.8 92.9659 150.564 92.7044L150.418 92.517Z" fill="#FCE6BA"/>
<defs>
<linearGradient id="paint0_linear" x1="-960.611" y1="-3264.37" x2="-1753.38" y2="-2980.45" gradientUnits="userSpaceOnUse">
<stop offset="0.01"/>
<stop offset="0.08" stop-opacity="0.69"/>
<stop offset="0.21" stop-opacity="0.32"/>
<stop offset="1" stop-opacity="0"/>
</linearGradient>
<linearGradient id="paint1_linear" x1="144.591" y1="100.542" x2="150.12" y2="73.9913" gradientUnits="userSpaceOnUse">
<stop offset="0.01" stop-color="white"/>
<stop offset="1" stop-color="white" stop-opacity="0"/>
</linearGradient>
<linearGradient id="paint2_linear" x1="-1458.98" y1="-4265.59" x2="-2333.91" y2="-4056.97" gradientUnits="userSpaceOnUse">
<stop offset="0.01"/>
<stop offset="0.08" stop-opacity="0.69"/>
<stop offset="0.21" stop-opacity="0.32"/>
<stop offset="1" stop-opacity="0"/>
</linearGradient>
<linearGradient id="paint3_linear" x1="-654.22" y1="-1683.83" x2="-1022.2" y2="-1606.06" gradientUnits="userSpaceOnUse">
<stop offset="0.01"/>
<stop offset="0.08" stop-opacity="0.69"/>
<stop offset="0.21" stop-opacity="0.32"/>
<stop offset="1" stop-opacity="0"/>
</linearGradient>
<linearGradient id="paint4_linear" x1="-2411.85" y1="-1180.93" x2="-2410.01" y2="-1413.94" gradientUnits="userSpaceOnUse">
<stop offset="0.01"/>
<stop offset="0.08" stop-opacity="0.69"/>
<stop offset="0.21" stop-opacity="0.32"/>
<stop offset="1" stop-opacity="0"/>
</linearGradient>
</defs>
</svg>
