<svg width="557.91" height="467.46" xmlns="http://www.w3.org/2000/svg" xmlns:xlink="http://www.w3.org/1999/xlink">
 <defs>
  <linearGradient y2="0.50011" x2="1.00005" y1="0.50011" x1="0" id="linear-gradient">
   <stop stop-opacity="0" stop-color="#fff" offset="0"/>
   <stop stop-opacity="0.23" stop-color="#fff" offset="0.13"/>
   <stop stop-opacity="0.41" stop-color="#fff" offset="0.23"/>
   <stop stop-opacity="0.59" stop-color="#fff" offset="0.35"/>
   <stop stop-opacity="0.74" stop-color="#fff" offset="0.48"/>
   <stop stop-opacity="0.85" stop-color="#fff" offset="0.6"/>
   <stop stop-opacity="0.93" stop-color="#fff" offset="0.72"/>
   <stop stop-opacity="0.98" stop-color="#fff" offset="0.84"/>
   <stop stop-color="#fff" offset="0.95"/>
  </linearGradient>
  <linearGradient y2="-3.13236" x2="0.62909" y1="1.08121" x1="0.47155" id="linear-gradient-7">
   <stop stop-opacity="0" stop-color="#010101" offset="0"/>
   <stop stop-color="#010101" offset="0.95"/>
  </linearGradient>
  <linearGradient xlink:href="#linear-gradient" y2="403.3" x2="431.15" y1="403.3" x1="416.47" id="svg_58"/>
  <linearGradient xlink:href="#linear-gradient" y2="394.27" x2="431.15" y1="394.27" x1="416.47" id="svg_59"/>
  <linearGradient xlink:href="#linear-gradient-7" y2="182.37" x2="351.23" y1="188.08" x1="248.06" id="svg_60"/>
  <linearGradient xlink:href="#linear-gradient-7" y2="157.02" x2="235.6" y1="354.79" x1="229.88" id="svg_61"/>
  <linearGradient xlink:href="#linear-gradient" y2="396.13" x2="455.77" y1="396.13" x1="255.19" id="svg_62"/>
  <linearGradient xlink:href="#linear-gradient" y2="333.36" x2="455.77" y1="333.36" x1="255.19" id="svg_63"/>
  <linearGradient xlink:href="#linear-gradient" y2="270.59" x2="455.77" y1="270.59" x1="255.19" id="svg_64"/>
  <linearGradient xlink:href="#linear-gradient" y2="207.83" x2="455.77" y1="207.83" x1="255.19" id="svg_65"/>
  <linearGradient xlink:href="#linear-gradient" y2="145.06" x2="455.77" y1="145.06" x1="255.19" id="svg_66"/>
  <linearGradient y2="0.50011" x2="1.00005" y1="0.50011" x1="0" id="svg_67">
   <stop stop-opacity="0" stop-color="#fff" offset="0"/>
   <stop stop-opacity="0.23" stop-color="#fff" offset="0.13"/>
   <stop stop-opacity="0.41" stop-color="#fff" offset="0.23"/>
   <stop stop-opacity="0.59" stop-color="#fff" offset="0.35"/>
   <stop stop-opacity="0.74" stop-color="#fff" offset="0.48"/>
   <stop stop-opacity="0.85" stop-color="#fff" offset="0.6"/>
   <stop stop-opacity="0.93" stop-color="#fff" offset="0.72"/>
   <stop stop-opacity="0.98" stop-color="#fff" offset="0.84"/>
   <stop stop-color="#fff" offset="0.95"/>
  </linearGradient>
 </defs>
 <title>Personal data 2</title>
 <g>
  <title>background</title>
  <rect fill="none" id="canvas_background" height="602" width="802" y="-1" x="-1"/>
 </g>
 <g>
  <title>Layer 1</title>
  <path stroke="null" id="svg_1" opacity="0.24" fill="#70a9a1" d="m274.15,1.4c-48.05,-2.27 -98.06,-4.21 -142.19,14.93c-50.89,22.08 -87.09,70.09 -106.28,122.14s-23.37,108.31 -25.34,163.75c-2,55.1 3.16,120.14 49.81,149.53c29.25,18.42 66.39,16.64 100.87,14.23l264.82,-18.48c39.37,-2.75 82.1,-6.9 110.87,-33.91c37.12,-34.83 36.46,-94.39 22,-143.2s-40,-95 -43.81,-145.79c-3.31,-43.19 9.03,-103.06 -43.31,-114.91c-57.47,-12.98 -128.4,-5.5 -187.44,-8.29z"/>
  <path stroke="null" id="svg_2" opacity="0.24" fill="#70a9a1" d="m207.59,409.37c-15.32,0.09 -31.38,2.16 -43.88,11c-2.09,1.48 -4.15,3.27 -4.91,5.71c-2,6.4 5.67,11.43 12.13,13.22c17.84,4.95 36.65,4.63 55.15,4.28l57.07,-1.09c4.82,-0.1 10.36,-0.55 13.18,-4.47c2.46,-3.42 1.7,-8.4 -0.78,-11.81s-6.32,-5.56 -10.15,-7.33c-24.32,-11.22 -51.61,-9.66 -77.81,-9.51z"/>
  <rect stroke="null" id="svg_3" fill="url(#svg_67)" height="45.45" width="200.57" y="59.56" x="255.19"/>
  <rect stroke="null" id="svg_4" fill="url(#svg_66)" height="45.45" width="200.57" y="122.33" x="255.19"/>
  <rect stroke="null" id="svg_5" fill="url(#svg_65)" height="45.45" width="200.57" y="185.1" x="255.19"/>
  <rect stroke="null" id="svg_6" fill="url(#svg_64)" height="45.45" width="200.57" y="247.87" x="255.19"/>
  <rect stroke="null" id="svg_7" fill="url(#svg_63)" height="45.45" width="200.57" y="310.64" x="255.19"/>
  <rect stroke="null" id="svg_8" fill="url(#svg_62)" height="45.45" width="200.57" y="373.41" x="255.19"/>
  <path id="svg_9" fill="#845335" d="m261.79,392.32l1.25,13s-5,7.53 -11.48,8s-8.71,-2.64 -8.71,-2.64l1.06,-19.13"/>
  <path stroke="null" id="svg_10" fill="#fff" d="m242.85,410.7l0.43,-7.67l19.05,-5.11l0.71,7.42s-5,7.53 -11.48,8s-8.71,-2.64 -8.71,-2.64z"/>
  <path id="svg_11" fill="#845335" d="m200.94,393.7l-1.28,13.35s5.11,7.74 11.79,8.23s8.94,-2.71 8.94,-2.71l-1.09,-19.65"/>
  <path stroke="null" id="svg_12" fill="#fff" d="m220.39,412.57l-0.43,-7.87l-19.57,-5.27l-0.73,7.62s5.11,7.74 11.79,8.23s8.94,-2.71 8.94,-2.71z"/>
  <path stroke="null" id="svg_13" fill="#70a9a1" d="m216.93,101.75s-25.83,12.48 -26.41,16.57s2.92,104.6 2.92,104.6s8.38,10.87 34.06,10.87c26.3,0 33.07,-7.52 34.24,-11s5.37,-103.71 4.79,-108s-24.4,-13 -24.4,-13l-25.2,-0.04z"/>
  <path stroke="null" id="svg_14" fill="#f2fbff" d="m219.39,111.16l0,118.88s11.95,5.88 26.2,-1.26l-5,-125.14l-11.69,8.37l-9.51,-0.85z"/>
  <path stroke="null" id="svg_15" fill="#845335" d="m217.01,86.14s-0.19,9 -0.08,15.61c0.08,4.92 1.76,14.37 12.23,14.37s11.7,-12 11.51,-14.37c-0.14,-1.68 0.68,-5.12 0,-10.48c-0.69,-5.74 -23.08,-9.12 -23.66,-5.13z"/>
  <path stroke="null" id="svg_16" fill="#482816" d="m221.19,102.76a10.64,10.64 0 0 0 3.7,2.25a15.54,15.54 0 0 0 6.3,1a8.38,8.38 0 0 0 3.72,-1a11.31,11.31 0 0 0 3.18,-3.09a12.46,12.46 0 0 0 2.36,-4a10.81,10.81 0 0 0 0.38,-2.59a34.51,34.51 0 0 0 -0.2,-5.57c-5.36,0.58 -10.72,1 -16.09,1.38c-3.08,0.22 -8.38,0.92 -7,5.26a16.08,16.08 0 0 0 3.65,6.36z"/>
  <path stroke="null" id="svg_17" fill="#606161" d="m193.44,222.92s-1.17,19 1.76,75.44s4.39,95.92 4.39,95.92s0.38,4.61 10.09,4.75s12.29,-6.28 12.29,-6.28l9.49,-144.63l9.91,147.6s11.66,6.7 20.75,1.67c6.45,-3.57 -0.37,-174.58 -0.37,-174.58s-31.16,17.11 -68.31,0.11z"/>
  <path stroke="null" id="svg_18" fill="url(#svg_61)" d="m193.44,222.92s-1.17,19 1.76,75.44s4.39,95.92 4.39,95.92s0.38,4.61 10.09,4.75s12.29,-6.28 12.29,-6.28l9.49,-144.63l9.91,147.6s11.66,6.7 20.75,1.67c6.45,-3.57 -0.37,-174.58 -0.37,-174.58s-31.16,17.11 -68.31,0.11z"/>
  <path stroke="null" id="svg_19" fill="#70a9a1" d="m266.53,114.81s11.72,49.26 12.63,57.64s-6.83,28.34 -11.62,27c-10.64,-3 -8.94,-21.17 -8.94,-21.17l7.93,-63.47z"/>
  <path stroke="null" id="svg_20" fill="#845335" d="m273.89,206.92a2.09,2.09 0 0 1 2.15,-0.61a3.19,3.19 0 0 1 1.55,2c2.36,6 2.08,11.32 2.27,17.49c0.14,4.34 0.63,9.15 -0.3,13.43c-0.82,3.78 -12,13.24 -13.56,12.11s1.85,-4.35 4.08,-6.24s2.35,-6.62 2.68,-8.13s-3.32,-1.52 -2.34,-6.05c0.73,-3.36 2.19,-5 1.94,-8.51a59.77,59.77 0 0 1 0.41,-12.47a6,6 0 0 1 0.84,-2.66a3,3 0 0 1 0.28,-0.36z"/>
  <path stroke="null" id="svg_21" fill="#70a9a1" d="m261.79,191.53c-0.17,0.75 9.29,31.84 9.29,31.84s4.2,0.87 10.79,-2.32c0,0 -1.23,-43.65 -2.32,-46.68s-3.2,-2.33 -13,1.14s-4.76,16.02 -4.76,16.02z"/>
  <path stroke="null" id="svg_22" fill="#70a9a1" d="m189.72,116.34s-11.73,49.26 -12.63,57.64s6.82,28.34 11.61,27c10.64,-3 8.95,-21.18 8.95,-21.18l-7.93,-63.46z"/>
  <path stroke="null" id="svg_23" fill="#845335" d="m182.35,208.42a2.09,2.09 0 0 0 -2.15,-0.61a3.09,3.09 0 0 0 -1.54,2c-2.37,6 -2.08,11.31 -2.28,17.48c-0.13,4.34 -0.62,9.16 0.3,13.44c0.82,3.78 12,13.23 13.57,12.1s-1.86,-4.35 -4.09,-6.24s-2.35,-6.62 -2.68,-8.13s3.32,-1.51 2.34,-6.05c-0.73,-3.35 -2.18,-5 -1.94,-8.51a59.68,59.68 0 0 0 -0.41,-12.46a6,6 0 0 0 -0.83,-2.66a2.37,2.37 0 0 0 -0.29,-0.36z"/>
  <path stroke="null" id="svg_24" fill="#70a9a1" d="m194.45,193.05c0.18,0.75 -9.29,31.84 -9.29,31.84s-4.2,0.87 -10.79,-2.32c0,0 1.23,-43.65 2.32,-46.68s3.2,-2.33 13,1.15s4.76,16.01 4.76,16.01z"/>
  <path stroke="null" id="svg_25" fill="#70a9a1" d="m208.67,409.26c-3.67,-1.88 -7.69,-4 -11.69,-3a14.83,14.83 0 0 0 -5.5,3.07c-3.29,2.59 -6.47,5.62 -7.94,9.54s-0.79,8.93 2.58,11.43c2.51,1.87 5.87,2 9,2a41.87,41.87 0 0 0 11.56,-1.21a37.35,37.35 0 0 0 8.14,-3.71c3,-1.73 6.05,-3.76 7.6,-6.86c1.17,-2.34 1.42,-7.42 -1.52,-8.81c-1.39,-0.65 -3.89,0.3 -5.59,0a22.37,22.37 0 0 1 -6.64,-2.45z"/>
  <path stroke="null" id="svg_26" fill="#70a9a1" d="m253.21,409.26c3.66,-1.88 7.68,-4 11.68,-3a14.83,14.83 0 0 1 5.5,3.07c3.29,2.59 6.47,5.62 7.94,9.54s0.79,8.93 -2.57,11.43c-2.51,1.87 -5.88,2 -9,2a41.87,41.87 0 0 1 -11.56,-1.21a37.35,37.35 0 0 1 -8.14,-3.71c-3,-1.73 -6,-3.76 -7.6,-6.86c-1.17,-2.34 -1.42,-7.42 1.52,-8.81c1.39,-0.65 3.89,0.3 5.59,0a22.43,22.43 0 0 0 6.64,-2.45z"/>
  <polygon stroke="null" id="svg_27" fill="url(#svg_60)" points="255.54 149.11 253.02 226.37 261.75 222.81 263.37 198.26 260.3 179.55 255.54 149.11"/>
  <path stroke="null" id="svg_28" fill="#845335" d="m208.72,57.92a120.68,120.68 0 0 0 4.45,30.4a20.06,20.06 0 0 0 3.09,7.05a12.08,12.08 0 0 0 7.06,4.25a19.25,19.25 0 0 0 8.27,-0.28a17.2,17.2 0 0 0 9.59,-5.45a21.05,21.05 0 0 0 3.32,-6.46a53.87,53.87 0 0 0 2.53,-24.55c-0.53,-4 -1.68,-8.21 -4.68,-10.69a13.87,13.87 0 0 0 -6.14,-2.59a34.35,34.35 0 0 0 -23.42,3.69a7.23,7.23 0 0 0 -2.86,2.42a8.43,8.43 0 0 0 -0.88,4"/>
  <path stroke="null" id="svg_29" fill="#000000" d="m210.28,75.53c-0.32,-3.23 -1.93,-6.16 -3.42,-9s-2.91,-6 -2.78,-9.2s2.33,-6.62 5.55,-7c0.81,-4.37 3,-8.66 6.68,-11.12c5.28,-3.55 12.28,-2.62 18.38,-0.79c4.93,1.48 10.21,4 12.06,8.76a19.34,19.34 0 0 1 1,5.35c0.52,6.46 0.91,13.46 -2.66,18.86a47.82,47.82 0 0 0 -1.65,-13.83a37.18,37.18 0 0 1 -25.86,0.58c-8.99,-3.11 -7.85,11.78 -7.3,17.39z"/>
  <rect stroke="null" id="svg_30" fill="#70a9a1" rx="4.57" height="22.42" width="35.94" y="325.28" x="406.25"/>
  <path stroke="null" id="svg_31" fill="#70a9a1" d="m425.15,329.92l-3.34,0a5.28,5.28 0 0 1 0,-10.56l3.34,0a5.28,5.28 0 0 1 0,10.56zm-3.34,-7a1.77,1.77 0 0 0 0,3.54l3.34,0a1.77,1.77 0 0 0 0,-3.54l-3.34,0z"/>
  <polygon stroke="null" id="svg_32" fill="#70a9a1" points="436.57 138.92 436.57 161.67 428.76 161.67 428.76 147.33 421.61 147.33 421.61 161.67 412.96 161.67 412.96 138.92 424.73 132.73 436.57 138.92"/>
  <path stroke="null" id="svg_33" fill="#70a9a1" d="m410.04,138.72a0.88,0.88 0 0 1 -0.41,-1.65l15,-8.05l14.96,7.72a0.87,0.87 0 1 1 -0.81,1.55l-14.09,-7.29l-14.18,7.62a0.92,0.92 0 0 1 -0.47,0.1z"/>
  <path stroke="null" id="svg_34" fill="#70a9a1" d="m423.73,219.61c-2.84,-0.71 -10.75,-6.18 -12.82,-11.23a9.12,9.12 0 0 1 -0.75,-3.36a7.31,7.31 0 0 1 5.71,-6.83a7.83,7.83 0 0 1 8.38,3.68a8,8 0 0 1 4,-3.28c4.52,-1.62 7.82,2.72 8,4.06c1.42,11.27 -12.52,16.96 -12.52,16.96z"/>
  <path stroke="null" id="svg_35" fill="#70a9a1" d="m424.01,287.69l0,-4.25a12.29,12.29 0 0 1 -6.45,-1.86l1,-2.82a11.26,11.26 0 0 0 6.07,1.81c3,0 5,-1.73 5,-4.13s-1.64,-3.75 -4.76,-5c-4.3,-1.69 -6.95,-3.63 -6.95,-7.29c0,-3.5 2.49,-6.15 6.36,-6.78l0,-4.26l2.61,0l0,4.09a11.27,11.27 0 0 1 5.48,1.47l-1.05,2.78a10.25,10.25 0 0 0 -5.31,-1.43c-3.25,0 -4.47,1.94 -4.47,3.63c0,2.18 1.56,3.28 5.23,4.8c4.34,1.77 6.53,4 6.53,7.71c0,3.32 -2.32,6.44 -6.66,7.16l0,4.38l-2.63,-0.01z"/>
  <path stroke="null" id="svg_36" fill="#70a9a1" d="m418.01,97.62q10.88,-0.33 21.75,-0.14a11.78,11.78 0 0 0 -5.68,-12c-1,-0.58 -2.24,-1.13 -2.56,-2.26s0.36,-2.16 0.71,-3.22a5.6,5.6 0 0 0 -1.7,-6.08a4.83,4.83 0 0 0 -6.16,0.22a6,6 0 0 0 -1.45,2.54a7.31,7.31 0 0 0 0.28,5.46a4.09,4.09 0 0 1 0.78,2.15c-0.08,0.83 -0.8,1.42 -1.41,2a14.93,14.93 0 0 0 -4.56,11.33z"/>
  <polygon stroke="null" id="svg_37" fill="#70a9a1" points="436.42 412.45 410.7 412.45 410.7 382.77 432.3 382.73 436.42 387.02 436.42 412.45"/>
  <rect stroke="null" id="svg_38" fill="url(#svg_59)" height="2.8" width="14.67" y="392.87" x="416.47"/>
  <rect stroke="null" id="svg_39" fill="url(#svg_58)" height="2.8" width="14.67" y="401.9" x="416.47"/>
  <rect stroke="null" id="svg_40" opacity="0.24" fill="#70a9a1" rx="4.2" height="8.41" width="98.91" y="80.81" x="307.01"/>
  <rect stroke="null" id="svg_41" opacity="0.24" fill="#70a9a1" rx="4.2" height="8.41" width="98.91" y="145.1" x="307.01"/>
  <rect stroke="null" id="svg_42" opacity="0.24" fill="#70a9a1" rx="4.2" height="8.41" width="98.91" y="209.39" x="307.01"/>
  <rect stroke="null" id="svg_43" opacity="0.24" fill="#70a9a1" rx="4.2" height="8.41" width="98.91" y="273.68" x="307.01"/>
  <rect stroke="null" id="svg_44" opacity="0.24" fill="#70a9a1" rx="4.2" height="8.41" width="98.91" y="337.97" x="307.01"/>
  <rect stroke="null" id="svg_45" opacity="0.24" fill="#70a9a1" rx="4.2" height="8.41" width="98.91" y="402.27" x="307.01"/>
 </g>
</svg>