<svg width="192" height="269" viewBox="0 0 192 269" fill="none" xmlns="http://www.w3.org/2000/svg">
<g clip-path="url(#clip0)">
<path d="M123.748 41.0979L116.039 37.9596L119.735 19.5031L120.369 19.5553C121.208 18.9855 123.729 16.4272 123.282 14.3399C122.883 12.4292 119.977 11.4363 117.6 10.9277C114.224 10.2155 111.96 10.4189 111.047 11.5063C109.821 12.9768 111.026 16.0271 111.597 17.0769L111.747 17.3511L109.073 35.2657L100.49 32.1193L101.131 30.3772L107.344 32.6834L109.599 17.5385C109.05 16.4521 107.45 12.622 109.358 10.307C110.774 8.60944 113.643 8.20029 117.897 9.09335C124.542 10.5024 125.601 13.3873 125.326 15.5621C125.051 17.7369 122.986 20.2625 121.515 21.1443L118.365 36.8543L124.468 39.3366L123.748 41.0979Z" fill="#BDBDBD" fill-opacity="0.9"/>
<path d="M170.223 267.89L11.0174 254.79L1.784 245.815L29.3681 31.7732L179.34 35.8991L188.573 44.8734L170.223 267.89Z" fill="black" fill-opacity="0.5"/>
<path d="M166.045 263.78L6.67277 250.666L2.06689 245.671L24.7804 28.0869L179.857 36.0451L184.946 41.266L166.045 263.78Z" fill="url(#paint0_linear)" fill-opacity="0.1"/>
<path d="M179.34 35.8991L20.1348 22.799L1.78399 245.815L160.989 258.916L179.34 35.8991Z" fill="#FEFDF7"/>
<path d="M69.0286 42.4464C68.8997 43.0043 68.8037 43.7054 69.2341 44.0603C69.4706 44.2307 69.7492 44.3331 70.0397 44.3565C84.6014 46.8331 99.4409 47.2283 114.114 45.5303C116.531 45.2501 119.5 44.3957 119.87 41.9924C120.205 39.8609 118.36 37.071 120.132 35.8626C120.785 35.5404 121.513 35.3996 122.24 35.4548C123.573 35.3708 124.871 34.9922 126.04 34.3462C127.209 33.7001 128.221 32.8028 129.002 31.7187L87.4002 27.957C83.3572 27.5924 76.1288 25.2857 72.9381 28.6833C70.4705 31.2844 69.3011 39.1345 69.0286 42.4464Z" fill="url(#paint1_linear)"/>
<path d="M115.629 40.5321L72.5289 36.9856L71.8178 9.9392L115.234 13.2178L115.629 40.5321Z" fill="#D86B7F"/>
<path d="M115.233 13.2178L130.602 22.5052L127.501 31.6336L115.656 30.6589L115.233 13.2178Z" fill="#D86B7F"/>
<path d="M115.233 13.2178L130.602 22.5052L127.501 31.6336L115.656 30.6589L115.233 13.2178Z" fill="url(#paint2_linear)" fill-opacity="0.1"/>
<path d="M103.394 39.1036L95.1266 38.0976L93.9655 17.1399L94.5741 17.0367C95.24 16.1589 97.0224 12.6518 96.0534 10.5408C95.1776 8.61631 92.1091 8.43409 89.6867 8.62441C86.2366 8.88986 84.0933 9.79941 83.4951 11.2513C82.696 13.204 84.6338 16.1102 85.449 17.0651L85.6648 17.3129L87.6725 37.3693L78.5668 36.62L78.737 34.5516L85.3634 35.0969L83.6673 18.1577C82.8817 17.1541 80.3123 13.5445 81.581 10.4614C82.5072 8.20611 85.1816 6.89314 89.5631 6.55741C96.3475 6.03614 98.1113 8.80661 98.4096 11.2329C98.7079 13.6592 97.348 16.9967 96.1542 18.3932L97.1368 36.2445L103.678 37.0447L103.394 39.1036Z" fill="#C1C1C1" fill-opacity="0.9"/>
<path d="M90.3417 62.801L41.4141 58.775L36.3307 120.553L85.2583 124.579L90.3417 62.801Z" fill="#40798C"/>
<path d="M154.291 76.6737L107.304 72.8074C105.91 72.6927 104.687 73.7303 104.572 75.1249C104.458 76.5195 105.495 77.7431 106.888 77.8578L153.876 81.7241C155.27 81.8388 156.493 80.8012 156.607 79.4066C156.722 78.012 155.685 76.7884 154.291 76.6737Z" fill="black" fill-opacity="0.17"/>
<path d="M153.38 87.7453L106.393 83.8789C104.999 83.7642 103.776 84.8018 103.661 86.1965C103.547 87.5911 104.583 88.8146 105.977 88.9293L152.965 92.7956C154.358 92.9103 155.581 91.8727 155.696 90.4781C155.811 89.0835 154.774 87.8599 153.38 87.7453Z" fill="black" fill-opacity="0.17"/>
<path d="M152.054 103.867L105.067 100.001C103.673 99.8861 102.45 100.924 102.335 102.318C102.22 103.713 103.257 104.936 104.651 105.051L151.638 108.917C153.032 109.032 154.255 107.995 154.37 106.6C154.485 105.205 153.448 103.982 152.054 103.867Z" fill="black" fill-opacity="0.17"/>
<path d="M151.143 114.939L104.156 111.072C102.762 110.958 101.539 111.995 101.424 113.39C101.309 114.784 102.346 116.008 103.74 116.123L150.727 119.989C152.121 120.104 153.344 119.066 153.459 117.671C153.574 116.277 152.537 115.053 151.143 114.939Z" fill="black" fill-opacity="0.17"/>
<path d="M117.215 163.785L70.2279 159.918C68.834 159.804 67.6111 160.841 67.4963 162.236C67.3816 163.631 68.4185 164.854 69.8123 164.969L116.8 168.835C118.193 168.95 119.416 167.912 119.531 166.518C119.646 165.123 118.609 163.899 117.215 163.785Z" fill="black" fill-opacity="0.17"/>
<path d="M116.304 174.856L69.3167 170.99C67.9229 170.875 66.6999 171.913 66.5852 173.307C66.4704 174.702 67.5073 175.926 68.9012 176.04L115.888 179.907C117.282 180.021 118.505 178.984 118.62 177.589C118.735 176.194 117.698 174.971 116.304 174.856Z" fill="black" fill-opacity="0.17"/>
<path d="M114.146 201.079L67.1585 197.213C65.7647 197.098 64.5417 198.136 64.427 199.53C64.3122 200.925 65.3491 202.148 66.743 202.263L113.73 206.129C115.124 206.244 116.347 205.206 116.462 203.812C116.577 202.417 115.54 201.194 114.146 201.079Z" fill="black" fill-opacity="0.17"/>
<path d="M113.236 212.15L66.2484 208.284C64.8545 208.169 63.6316 209.207 63.5168 210.602C63.4021 211.996 64.439 213.22 65.8328 213.334L112.82 217.201C114.214 217.315 115.437 216.278 115.552 214.883C115.666 213.489 114.63 212.265 113.236 212.15Z" fill="black" fill-opacity="0.17"/>
<path d="M149.218 138.255L37.0003 129.021C35.6065 128.906 34.3835 129.944 34.2688 131.339C34.154 132.733 35.1909 133.957 36.5847 134.072L148.803 143.305C150.196 143.42 151.419 142.382 151.534 140.988C151.649 139.593 150.612 138.37 149.218 138.255Z" fill="black" fill-opacity="0.17"/>
<path d="M148.307 149.326L36.0892 140.093C34.6954 139.978 33.4724 141.016 33.3576 142.41C33.2429 143.805 34.2798 145.028 35.6736 145.143L147.892 154.377C149.285 154.492 150.508 153.454 150.623 152.059C150.738 150.665 149.701 149.441 148.307 149.326Z" fill="black" fill-opacity="0.17"/>
<path d="M58.6444 155.835L38.2578 154.158L36.7715 172.221L57.158 173.899L58.6444 155.835Z" fill="#40798C"/>
<path d="M55.3836 195.464L34.9971 193.787L33.5107 211.85L53.8973 213.528L55.3836 195.464Z" fill="#40798C"/>
<path d="M47.4298 110.499C44.3032 112.42 41.3389 116.092 41.5603 119.764C56.0574 120.241 69.692 122.2 82.2562 123.048C82.274 119.728 81.2938 115.425 79.1941 112.857C78.0893 111.654 76.7855 110.65 75.3398 109.889C72.4071 108.134 69.4296 106.382 66.1326 105.408C59.5528 103.442 53.0167 107.075 47.4298 110.499Z" fill="white"/>
<path d="M74.6102 90.5193C74.6221 91.0539 74.5196 91.5849 74.3096 92.0766C74.0996 92.5683 73.7869 93.0094 73.3925 93.3702C73.2072 93.5575 72.9759 93.6926 72.7218 93.7622C71.4197 94.0702 71.5735 91.5023 71.995 90.8024C72.4946 90.0067 74.5557 88.8541 74.6102 90.5193Z" fill="url(#paint3_linear)"/>
<path d="M52.1982 87.2316C52.0987 87.7565 52.1122 88.2966 52.238 88.8159C52.3637 89.3351 52.5986 89.8215 52.9272 90.2427C53.0835 90.4539 53.2885 90.6242 53.5248 90.739C54.759 91.2557 55.0275 88.6908 54.7193 87.9373C54.3676 87.0907 52.5242 85.5976 52.1982 87.2316Z" fill="url(#paint4_linear)"/>
<path d="M63.4948 68.1038C64.7938 66.7489 66.5746 65.9612 68.4504 65.9118C70.2669 65.8697 72.2195 66.6563 73.0581 68.2584C73.5845 69.4774 73.7615 70.819 73.5692 72.133C73.5802 73.367 73.2871 74.5846 72.7157 75.6782C72.0426 76.698 71.0219 77.4381 69.8439 77.7606C67.1204 78.5841 64.0763 77.4841 62.189 75.438C60.3018 73.392 61.7371 69.9138 63.4948 68.1038Z" fill="#606161"/>
<path d="M63.4948 68.1038C64.7938 66.7489 66.5746 65.9612 68.4504 65.9118C70.2669 65.8697 72.2195 66.6563 73.0581 68.2584C73.5845 69.4774 73.7615 70.819 73.5692 72.133C73.5802 73.367 73.2871 74.5846 72.7157 75.6782C72.0426 76.698 71.0219 77.4381 69.8439 77.7606C67.1204 78.5841 64.0763 77.4841 62.189 75.438C60.3018 73.392 61.7371 69.9138 63.4948 68.1038Z" fill="url(#paint5_linear)"/>
<path d="M67.4888 97.1515C67.4888 97.1515 66.8748 105.545 68.6383 107.466C70.4018 109.387 60.1676 116.843 56.879 107.31C56.879 107.31 59.5584 103.532 59.3039 96.7718C59.0493 90.0119 67.4888 97.1515 67.4888 97.1515Z" fill="url(#paint6_linear)"/>
<path d="M67.6048 99.1603L67.4534 101C67.4534 101 62.0282 107.58 60.2361 105.076C58.444 102.571 59.0707 102.093 59.0707 102.093L59.291 96.7771L67.6048 99.1603Z" fill="url(#paint7_linear)"/>
<path d="M73.0988 85.5404C73.0988 85.5404 73.4403 98.4588 66.3894 100.434C59.3386 102.409 55.561 98.4312 54.1925 92.097C52.824 85.7628 56.7229 73.5255 63.8711 75.3337C71.0192 77.1419 73.0988 85.5404 73.0988 85.5404Z" fill="url(#paint8_linear)"/>
<path d="M73.8289 89.9312C74.1774 89.5138 74.4216 89.0193 74.5413 88.4887C75.1841 86.1223 75.1946 83.6286 74.5719 81.257C73.9493 78.8853 72.7151 76.7189 70.993 74.9743C70.2951 74.2489 69.466 73.6626 68.5496 73.2466C67.6313 72.8903 66.6564 72.7019 65.6715 72.6904C62.5746 72.5318 59.5071 73.3596 56.9096 75.0547C55.6256 75.9147 54.5338 77.0319 53.7035 78.3358C52.8731 79.6397 52.3222 81.1017 52.0857 82.6295C51.9258 83.533 51.9988 84.4624 52.2976 85.3298C52.4494 85.7619 52.7002 86.1524 53.0299 86.4702C53.3596 86.7879 53.759 87.024 54.1963 87.1596C55.7528 87.5623 56.304 86.1385 57.6648 85.2732C59.6877 83.9641 60.5009 81.8401 64.846 82.5681C71.9116 83.7499 71.7339 92.1159 73.8289 89.9312Z" fill="#606161"/>
<path d="M53.3912 88.2496C53.3141 88.1661 53.2548 88.0678 53.2171 87.9606C53.1977 87.8375 53.1908 87.7128 53.1966 87.5884C53.1898 87.4654 53.1408 87.3486 53.0578 87.2576C53.013 87.2145 52.958 87.1835 52.8979 87.1674C52.8379 87.1513 52.7747 87.1506 52.7143 87.1655C52.6626 87.1847 52.6155 87.2146 52.576 87.2531C52.5366 87.2917 52.5056 87.3381 52.4852 87.3894C52.4489 87.4928 52.425 87.6002 52.4142 87.7093C52.3367 88.1271 52.3649 88.5576 52.4963 88.9616C52.6294 89.2428 52.809 89.4994 53.0275 89.7208C53.064 89.774 53.1106 89.8194 53.1647 89.8546C53.2188 89.8897 53.2792 89.9138 53.3427 89.9255C53.4254 89.9269 53.5069 89.9048 53.5777 89.8618C53.6102 89.8485 53.6399 89.8293 53.6654 89.8052C53.674 89.7742 53.6766 89.7419 53.6732 89.71C53.751 89.4251 53.7754 89.1282 53.7452 88.8344C53.6887 88.6083 53.5653 88.4045 53.3912 88.2496V88.2496Z" fill="url(#paint9_linear)"/>
<path d="M73.0818 91.2559C73.1715 91.1862 73.246 91.0989 73.3008 90.9993C73.3403 90.8833 73.3673 90.7635 73.3813 90.6418C73.4066 90.5196 73.4771 90.4113 73.5786 90.3387C73.6273 90.3005 73.6855 90.2764 73.7469 90.269C73.8083 90.2617 73.8705 90.2714 73.9268 90.2971C73.9739 90.3254 74.015 90.3628 74.0475 90.4071C74.08 90.4515 74.1034 90.5019 74.1162 90.5554C74.1349 90.6655 74.1407 90.7775 74.1334 90.889C74.1416 91.3138 74.0434 91.7339 73.8477 92.111C73.6704 92.3647 73.4514 92.5864 73.2001 92.7668C73.1084 92.8599 72.9856 92.9158 72.8552 92.9236C72.7729 92.9092 72.6963 92.8719 72.6342 92.816C72.6016 92.8016 72.5745 92.7769 72.557 92.7458C72.5531 92.7139 72.5558 92.6815 72.5648 92.6506C72.5345 92.359 72.5588 92.0642 72.6364 91.7814C72.7292 91.5658 72.8843 91.3828 73.0818 91.2559V91.2559Z" fill="url(#paint10_linear)"/>
</g>
<defs>
<linearGradient id="paint0_linear" x1="73021.4" y1="56626.6" x2="18934" y2="56137.2" gradientUnits="userSpaceOnUse">
<stop stop-color="#010101" stop-opacity="0"/>
<stop offset="0.95" stop-color="#010101"/>
</linearGradient>
<linearGradient id="paint1_linear" x1="15050.7" y1="3384.9" x2="15703.1" y2="-1231.38" gradientUnits="userSpaceOnUse">
<stop stop-color="#010101" stop-opacity="0"/>
<stop offset="0.95" stop-color="#010101"/>
</linearGradient>
<linearGradient id="paint2_linear" x1="4981.28" y1="769.578" x2="4632.05" y2="1272.95" gradientUnits="userSpaceOnUse">
<stop stop-color="#010101" stop-opacity="0"/>
<stop offset="0.95" stop-color="#010101"/>
</linearGradient>
<linearGradient id="paint3_linear" x1="74.5212" y1="91.8343" x2="71.7501" y2="91.6062" gradientUnits="userSpaceOnUse">
<stop stop-color="#E4C5D5"/>
<stop offset="0.42" stop-color="#E9D3CF"/>
<stop offset="1" stop-color="#EFE8CA"/>
</linearGradient>
<linearGradient id="paint4_linear" x1="-455.967" y1="703.432" x2="-443.82" y2="704.432" gradientUnits="userSpaceOnUse">
<stop stop-color="#E4C5D5"/>
<stop offset="0.42" stop-color="#E9D3CF"/>
<stop offset="1" stop-color="#EFE8CA"/>
</linearGradient>
<linearGradient id="paint5_linear" x1="4014.76" y1="1887.85" x2="3951.83" y2="2020.84" gradientUnits="userSpaceOnUse">
<stop stop-color="#010101" stop-opacity="0"/>
<stop offset="0.95" stop-color="#010101"/>
</linearGradient>
<linearGradient id="paint6_linear" x1="-4608.16" y1="2914.35" x2="-4383.29" y2="2932.85" gradientUnits="userSpaceOnUse">
<stop stop-color="#E4C5D5"/>
<stop offset="0.42" stop-color="#E9D3CF"/>
<stop offset="1" stop-color="#EFE8CA"/>
</linearGradient>
<linearGradient id="paint7_linear" x1="64.0644" y1="107.428" x2="60.7849" y2="79.7121" gradientUnits="userSpaceOnUse">
<stop offset="0.12" stop-color="#010101" stop-opacity="0"/>
<stop offset="0.95" stop-color="#010101"/>
</linearGradient>
<linearGradient id="paint8_linear" x1="-7321.09" y1="3425.97" x2="-6756.72" y2="3472.41" gradientUnits="userSpaceOnUse">
<stop stop-color="#E4C5D5"/>
<stop offset="0.42" stop-color="#E9D3CF"/>
<stop offset="1" stop-color="#EFE8CA"/>
</linearGradient>
<linearGradient id="paint9_linear" x1="-481.559" y1="467.94" x2="-494.801" y2="465.333" gradientUnits="userSpaceOnUse">
<stop offset="0.12" stop-color="#010101" stop-opacity="0"/>
<stop offset="0.95" stop-color="#010101"/>
</linearGradient>
<linearGradient id="paint10_linear" x1="-19.9166" y1="514.38" x2="-33.1554" y2="511.786" gradientUnits="userSpaceOnUse">
<stop offset="0.12" stop-color="#010101" stop-opacity="0"/>
<stop offset="0.95" stop-color="#010101"/>
</linearGradient>
<clipPath id="clip0">
<rect width="170" height="255" fill="white" transform="translate(21.7422 0.45874) rotate(4.70395)"/>
</clipPath>
</defs>
</svg>
