<svg width="321.91" height="326.46" xmlns="http://www.w3.org/2000/svg" xmlns:xlink="http://www.w3.org/1999/xlink">
 <defs>
  <linearGradient id="linear-gradient" x1="0" y1="0.50011" x2="1.00005" y2="0.50011">
   <stop offset="0" stop-color="#fff" stop-opacity="0"/>
   <stop offset="0.13" stop-color="#fff" stop-opacity="0.23"/>
   <stop offset="0.23" stop-color="#fff" stop-opacity="0.41"/>
   <stop offset="0.35" stop-color="#fff" stop-opacity="0.59"/>
   <stop offset="0.48" stop-color="#fff" stop-opacity="0.74"/>
   <stop offset="0.6" stop-color="#fff" stop-opacity="0.85"/>
   <stop offset="0.72" stop-color="#fff" stop-opacity="0.93"/>
   <stop offset="0.84" stop-color="#fff" stop-opacity="0.98"/>
   <stop offset="0.95" stop-color="#fff"/>
  </linearGradient>
  <linearGradient id="linear-gradient-7" x1="0.47155" y1="1.08121" x2="0.62909" y2="-3.13236">
   <stop offset="0" stop-color="#010101" stop-opacity="0"/>
   <stop offset="0.95" stop-color="#010101"/>
  </linearGradient>
  <linearGradient id="svg_58" x1="416.47" y1="403.3" x2="431.15" y2="403.3" xlink:href="#linear-gradient"/>
  <linearGradient id="svg_59" x1="416.47" y1="394.27" x2="431.15" y2="394.27" xlink:href="#linear-gradient"/>
  <linearGradient id="svg_60" x1="248.06" y1="188.08" x2="351.23" y2="182.37" xlink:href="#linear-gradient-7"/>
  <linearGradient id="svg_61" x1="229.88" y1="354.79" x2="235.6" y2="157.02" xlink:href="#linear-gradient-7"/>
  <linearGradient id="svg_62" x1="255.19" y1="396.13" x2="455.77" y2="396.13" xlink:href="#linear-gradient"/>
  <linearGradient id="svg_63" x1="255.19" y1="333.36" x2="455.77" y2="333.36" xlink:href="#linear-gradient"/>
  <linearGradient id="svg_65" x1="255.19" y1="207.83" x2="455.77" y2="207.83" xlink:href="#linear-gradient"/>
  <linearGradient id="svg_66" x1="255.19" y1="145.06" x2="455.77" y2="145.06" xlink:href="#linear-gradient"/>
  <linearGradient id="svg_67" x1="0" y1="0.50011" x2="1.00005" y2="0.50011">
   <stop offset="0" stop-color="#fff" stop-opacity="0"/>
   <stop offset="0.13" stop-color="#fff" stop-opacity="0.23"/>
   <stop offset="0.23" stop-color="#fff" stop-opacity="0.41"/>
   <stop offset="0.35" stop-color="#fff" stop-opacity="0.59"/>
   <stop offset="0.48" stop-color="#fff" stop-opacity="0.74"/>
   <stop offset="0.6" stop-color="#fff" stop-opacity="0.85"/>
   <stop offset="0.72" stop-color="#fff" stop-opacity="0.93"/>
   <stop offset="0.84" stop-color="#fff" stop-opacity="0.98"/>
   <stop offset="0.95" stop-color="#fff"/>
  </linearGradient>
 </defs>
 <title>Personal data 2</title>
 <g>
  <title>background</title>
  <rect x="-1" y="-1" width="323.91" height="328.46" id="canvas_background" fill="none"/>
 </g>
 <g>
  <title>Layer 1</title>
  <rect x="112.52295" y="4.89319" width="200.57" height="45.45" fill="url(#svg_67)" id="svg_3" stroke="null"/>
  <rect x="116.52296" y="67.66319" width="200.57" height="45.45" fill="url(#svg_66)" id="svg_4" stroke="null"/>
  <rect x="116.52296" y="130.43319" width="200.57" height="45.45" fill="url(#svg_65)" id="svg_5" stroke="null"/>
  <rect x="116.52296" y="189.30634" width="200.57" height="45.45" fill="url(#svg_63)" id="svg_7" stroke="null"/>
  <rect x="116.52296" y="252.07634" width="200.57" height="45.45" fill="url(#svg_62)" id="svg_8" stroke="null"/>
  <rect x="267.58296" y="203.94634" width="35.94" height="22.42" rx="4.57" fill="#70a9a1" id="svg_30" stroke="null"/>
  <path d="m286.48296,208.58634l-3.34,0a5.28,5.28 0 0 1 0,-10.56l3.34,0a5.28,5.28 0 0 1 0,10.56zm-3.34,-7a1.77,1.77 0 0 0 0,3.54l3.34,0a1.77,1.77 0 0 0 0,-3.54l-3.34,0z" fill="#70a9a1" id="svg_31" stroke="null"/>
  <polygon points="297.90294075012207,84.25318908691406 297.90294075012207,107.00316619873047 290.0929431915283,107.00316619873047 290.0929431915283,92.66319274902344 282.9429187774658,92.66319274902344 282.9429187774658,107.00316619873047 274.29292488098145,107.00316619873047 274.29292488098145,84.25318908691406 286.06294441223145,78.06319427490234 297.90294075012207,84.25318908691406 " fill="#70a9a1" id="svg_32" stroke="null"/>
  <path d="m271.37296,84.05319a0.88,0.88 0 0 1 -0.41,-1.65l15,-8.05l14.96,7.72a0.87,0.87 0 1 1 -0.81,1.55l-14.09,-7.29l-14.18,7.62a0.92,0.92 0 0 1 -0.47,0.1z" fill="#70a9a1" id="svg_33" stroke="null"/>
  <path d="m285.06296,164.94319c-2.84,-0.71 -10.75,-6.18 -12.82,-11.23a9.12,9.12 0 0 1 -0.75,-3.36a7.31,7.31 0 0 1 5.71,-6.83a7.83,7.83 0 0 1 8.38,3.68a8,8 0 0 1 4,-3.28c4.52,-1.62 7.82,2.72 8,4.06c1.42,11.27 -12.52,16.96 -12.52,16.96z" fill="#70a9a1" id="svg_34" stroke="null"/>
  <path d="m275.34295,42.95319q10.88,-0.33 21.75,-0.14a11.78,11.78 0 0 0 -5.68,-12c-1,-0.58 -2.24,-1.13 -2.56,-2.26s0.36,-2.16 0.71,-3.22a5.6,5.6 0 0 0 -1.7,-6.08a4.83,4.83 0 0 0 -6.16,0.22a6,6 0 0 0 -1.45,2.54a7.31,7.31 0 0 0 0.28,5.46a4.09,4.09 0 0 1 0.78,2.15c-0.08,0.83 -0.8,1.42 -1.41,2a14.93,14.93 0 0 0 -4.56,11.33z" fill="#70a9a1" id="svg_36" stroke="null"/>
  <polygon points="297.7529468536377,291.11632537841797 272.03294563293457,291.11632537841797 272.03294563293457,261.4363021850586 293.63292121887207,261.39632415771484 297.7529468536377,265.6863021850586 297.7529468536377,291.11632537841797 " fill="#70a9a1" id="svg_37" stroke="null"/>
  <rect x="277.80296" y="271.53634" width="14.67" height="2.8" fill="url(#svg_59)" id="svg_38" stroke="null"/>
  <rect x="277.80296" y="280.56634" width="14.67" height="2.8" fill="url(#svg_58)" id="svg_39" stroke="null"/>
  <rect x="164.34295" y="26.14319" width="98.91" height="8.41" rx="4.2" fill="#70a9a1" opacity="0.24" id="svg_40" stroke="null"/>
  <rect x="164.34295" y="90.43319" width="98.91" height="8.41" rx="4.2" fill="#70a9a1" opacity="0.24" id="svg_41" stroke="null"/>
  <rect x="164.34295" y="154.72319" width="98.91" height="8.41" rx="4.2" fill="#70a9a1" opacity="0.24" id="svg_42" stroke="null"/>
  <rect x="164.34295" y="216.63634" width="98.91" height="8.41" rx="4.2" fill="#70a9a1" opacity="0.24" id="svg_44" stroke="null"/>
  <rect x="164.34295" y="280.93634" width="98.91" height="8.41" rx="4.2" fill="#70a9a1" opacity="0.24" id="svg_45" stroke="null"/>
  <g stroke="null" id="svg_1">
   <path stroke="null" d="m43.525,295.96784c-12.3885,0.06924 -25.3754,1.66176 -35.48352,8.46266c-1.69008,1.13861 -3.35589,2.51572 -3.97047,4.39289c-1.6173,4.92373 4.58504,8.79347 9.80891,10.17058c14.4263,3.8082 29.63698,3.56201 44.59699,3.29274l46.1496,-0.83857c3.89769,-0.07693 8.3776,-0.42313 10.65799,-3.43892c1.98928,-2.63112 1.3747,-6.4624 -0.63075,-9.08582s-5.11066,-4.27749 -8.20779,-5.63921c-19.66634,-8.63191 -41.73437,-7.43175 -62.92098,-7.31635z" fill="#70a9a1" opacity="0.24" id="svg_2"/>
   <path stroke="null" d="m87.35378,282.85072l1.01081,10.00133s-4.04324,5.79308 -9.28329,6.15466s-7.04333,-2.03104 -7.04333,-2.03104l0.85717,-14.71734" fill="#845335" id="svg_9"/>
   <path stroke="null" d="m72.03797,296.99105l0.34772,-5.90078l15.40476,-3.93129l0.57414,5.70845s-4.04324,5.79308 -9.28329,6.15466s-7.04333,-2.03104 -7.04333,-2.03104z" fill="#fff" id="svg_10"/>
   <path stroke="null" d="m38.14749,283.9124l-1.03507,10.27059s4.1322,5.95464 9.53397,6.33161s7.22932,-2.08489 7.22932,-2.08489l-0.88143,-15.11739" fill="#845335" id="svg_11"/>
   <path stroke="null" d="m53.87571,298.4297l-0.34772,-6.05465l-15.82526,-4.05438l-0.59031,5.86232s4.1322,5.95464 9.53397,6.33161s7.22932,-2.08489 7.22932,-2.08489z" fill="#fff" id="svg_12"/>
   <path stroke="null" d="m51.07778,59.3057s-20.8874,9.60127 -21.35642,12.74784s2.36125,80.47221 2.36125,80.47221s6.77648,8.36265 27.54258,8.36265c21.26747,0 26.74202,-5.78538 27.68814,-8.46266s4.34244,-79.7875 3.87343,-83.08794s-19.73103,-10.00133 -19.73103,-10.00133l-20.37795,-0.03077z" fill="#70a9a1" id="svg_13"/>
   <path stroke="null" d="m53.06706,66.54512l0,91.45828s9.66336,4.52368 21.1866,-0.96936l-4.04324,-96.2743l-9.45311,6.43932l-7.69025,-0.65393z" fill="#f2fbff" id="svg_14"/>
   <path stroke="null" d="m51.14248,47.29641s-0.15364,6.92399 -0.06469,12.00928c0.06469,3.78512 1.42322,11.05531 9.88978,11.05531s9.46119,-9.23199 9.30755,-11.05531c-0.11321,-1.29248 0.54988,-3.93898 0,-8.06261c-0.55797,-4.41597 -18.66362,-7.01631 -19.13263,-3.94668z" fill="#845335" id="svg_15"/>
   <path stroke="null" d="m54.52263,60.08272a8.60403,8.1857 0 0 0 2.992,1.731a12.5664,11.95543 0 0 0 5.09449,0.76933a6.77648,6.44701 0 0 0 3.00817,-0.76933a9.14582,8.70115 0 0 0 2.5715,-2.37724a10.07577,9.58589 0 0 0 1.90841,-3.07733a8.7415,8.31649 0 0 0 0.30729,-1.99257a27.90648,26.54967 0 0 0 -0.16173,-4.28518c-4.33436,0.44621 -8.66872,0.76933 -13.01116,1.06168c-2.49064,0.16925 -6.77648,0.70779 -5.66054,4.04669a13.00308,12.37087 0 0 0 2.95157,4.89296z" fill="#482816" id="svg_16"/>
   <path stroke="null" d="m32.08262,152.52575s-0.94612,14.61732 1.42322,58.03846s3.54997,73.7944 3.54997,73.7944s0.30729,3.54662 8.15927,3.65433s9.9383,-4.83141 9.9383,-4.83141l7.67408,-111.2686l8.01371,113.55351s9.42885,5.15453 16.77947,1.28479c5.21579,-2.74652 -0.2992,-134.31011 -0.2992,-134.31011s-25.1975,13.16328 -55.23881,0.08463z" fill="#606161" id="svg_17"/>
   <path stroke="null" d="m32.08262,152.52575s-0.94612,14.61732 1.42322,58.03846s3.54997,73.7944 3.54997,73.7944s0.30729,3.54662 8.15927,3.65433s9.9383,-4.83141 9.9383,-4.83141l7.67408,-111.2686l8.01371,113.55351s9.42885,5.15453 16.77947,1.28479c5.21579,-2.74652 -0.2992,-134.31011 -0.2992,-134.31011s-25.1975,13.16328 -55.23881,0.08463z" fill="url(#svg_61)" id="svg_18"/>
   <path stroke="null" d="m91.18677,69.35318s9.47737,37.89733 10.21324,44.34434s-5.52307,21.80289 -9.3965,20.77198c-8.60403,-2.308 -7.22932,-16.28677 -7.22932,-16.28677l6.41259,-48.82955z" fill="#70a9a1" id="svg_19"/>
   <path stroke="null" d="m97.13843,140.21642a1.69008,1.60791 0 0 1 1.7386,-0.46929a2.57959,2.45417 0 0 1 1.25341,1.53867c1.90841,4.616 1.68199,8.70885 1.83563,13.45563c0.11321,3.3389 0.50945,7.03939 -0.24259,10.33214c-0.66309,2.90808 -9.70379,10.18597 -10.96528,9.31662s1.496,-3.3466 3.29929,-4.80064s1.90033,-5.09298 2.16718,-6.25468s-2.68471,-1.16939 -1.89224,-4.65446c0.59031,-2.58496 1.77094,-3.84666 1.56878,-6.54702a48.33295,45.98302 0 0 1 0.33155,-9.59358a4.85189,4.616 0 0 1 0.67927,-2.04643a2.42595,2.308 0 0 1 0.22642,-0.27696z" fill="#845335" id="svg_20"/>
   <path stroke="null" d="m87.35378,128.37639c-0.13747,0.577 7.51235,24.49555 7.51235,24.49555s3.39633,0.66932 8.72532,-1.78485c0,0 -0.99464,-33.58137 -1.87607,-35.91245s-2.58768,-1.79255 -10.51244,0.87704s-3.84917,12.32471 -3.84917,12.32471z" fill="#70a9a1" id="svg_21"/>
   <path stroke="null" d="m29.07445,70.53026s-9.48545,37.89733 -10.21324,44.34434s5.51499,21.80289 9.38841,20.77198c8.60403,-2.308 7.23741,-16.29447 7.23741,-16.29447l-6.41259,-48.82186z" fill="#70a9a1" id="svg_22"/>
   <path stroke="null" d="m23.1147,141.37042a1.69008,1.60791 0 0 0 -1.7386,-0.46929a2.49873,2.37724 0 0 0 -1.24532,1.53867c-1.9165,4.616 -1.68199,8.70115 -1.84372,13.44794c-0.10512,3.3389 -0.50136,7.04709 0.24259,10.33983c0.66309,2.90808 9.70379,10.17827 10.97337,9.30893s-1.50409,-3.3466 -3.30737,-4.80064s-1.90033,-5.09298 -2.16718,-6.25468s2.68471,-1.16169 1.89224,-4.65446c-0.59031,-2.57726 -1.76285,-3.84666 -1.56878,-6.54702a48.26017,45.91378 0 0 0 -0.33155,-9.58589a4.85189,4.616 0 0 0 -0.67118,-2.04643a1.9165,1.82332 0 0 0 -0.23451,-0.27696z" fill="#845335" id="svg_23"/>
   <path stroke="null" d="m32.89936,129.54578c0.14556,0.577 -7.51235,24.49555 -7.51235,24.49555s-3.39633,0.66932 -8.72532,-1.78485c0,0 0.99464,-33.58137 1.87607,-35.91245s2.58768,-1.79255 10.51244,0.88473s3.84917,12.31702 3.84917,12.31702z" fill="#70a9a1" id="svg_24"/>
   <path stroke="null" d="m44.39834,295.88321c-2.96774,-1.44635 -6.21851,-3.07733 -9.45311,-2.308a11.99226,11.4092 0 0 0 -4.44757,2.36185c-2.66046,1.99257 -5.23196,4.32365 -6.42067,7.33943s-0.63883,6.87014 2.08631,8.79347c2.02971,1.43865 4.74677,1.53867 7.27784,1.53867a33.85813,32.21196 0 0 0 9.34798,-0.93089a30.20304,28.73458 0 0 0 6.5824,-2.85422c2.42595,-1.33095 4.89233,-2.89269 6.14573,-5.27762c0.94612,-1.80024 1.14828,-5.70845 -1.22915,-6.77782c-1.12402,-0.50007 -3.14564,0.2308 -4.52035,0a18.08948,17.20997 0 0 1 -5.36943,-1.88487z" fill="#70a9a1" id="svg_25"/>
   <path stroke="null" d="m80.41557,295.88321c2.95966,-1.44635 6.21042,-3.07733 9.44502,-2.308a11.99226,11.4092 0 0 1 4.44757,2.36185c2.66046,1.99257 5.23196,4.32365 6.42067,7.33943s0.63883,6.87014 -2.07823,8.79347c-2.02971,1.43865 -4.75486,1.53867 -7.27784,1.53867a33.85813,32.21196 0 0 1 -9.34798,-0.93089a30.20304,28.73458 0 0 1 -6.5824,-2.85422c-2.42595,-1.33095 -4.85189,-2.89269 -6.14573,-5.27762c-0.94612,-1.80024 -1.14828,-5.70845 1.22915,-6.77782c1.12402,-0.50007 3.14564,0.2308 4.52035,0a18.138,17.25613 0 0 0 5.36943,-1.88487z" fill="#70a9a1" id="svg_26"/>
   <polygon stroke="null" points="82.2996768951416,95.74127197265625 80.26189613342285,155.17989349365234 87.32139778137207,152.44107818603516 88.63140296936035,133.55394744873047 86.14884376525879,119.15975189208984 82.2996768951416,95.74127197265625 " fill="url(#svg_60)" id="svg_27"/>
   <path stroke="null" d="m44.43878,25.58584a97.58776,92.84308 0 0 0 3.59849,23.38772a16.2215,15.43282 0 0 0 2.49873,5.4238a9.76848,9.29354 0 0 0 5.70906,3.26966a15.56649,14.80966 0 0 0 6.68753,-0.21541a13.90876,13.23252 0 0 0 7.75494,-4.19286a17.02206,16.19445 0 0 0 2.68471,-4.96989a43.56192,41.44396 0 0 0 2.04588,-18.88712c-0.42858,-3.07733 -1.35853,-6.31622 -3.78448,-8.22417a11.21596,10.67065 0 0 0 -4.9651,-1.99257a27.77709,26.42658 0 0 0 -18.93856,2.83884a5.84653,5.56228 0 0 0 -2.31274,1.86179a6.81691,6.48548 0 0 0 -0.71161,3.07733" fill="#845335" id="svg_28"/>
   <path stroke="null" d="m45.70027,39.13379c-0.25877,-2.48494 -1.56069,-4.73909 -2.76558,-6.92399s-2.35317,-4.616 -2.24804,-7.07786s1.88415,-5.09298 4.488,-5.38533c0.65501,-3.36198 2.42595,-6.66242 5.40178,-8.55498c4.26967,-2.73113 9.93021,-2.01565 14.86297,-0.60777c3.98664,1.13861 8.25631,3.07733 9.75231,6.73935a15.63927,14.8789 0 0 1 0.80865,4.11593c0.4205,4.96989 0.73587,10.35522 -2.15101,14.50962a38.66959,36.78949 0 0 0 -1.33427,-10.63987a30.06557,28.60379 0 0 1 -20.91166,0.44621c-7.26975,-2.39262 -6.34789,9.06274 -5.90314,13.3787z" fill="#000000" id="svg_29"/>
  </g>
 </g>
</svg>