<svg width="563" height="424" viewBox="0 0 563 424" fill="none" xmlns="http://www.w3.org/2000/svg">
<g clip-path="url(#clip0)">
<path opacity="0.24" d="M183.785 421.722C292.593 415.852 399.302 389.427 498.284 343.842C510.964 337.99 523.827 331.601 533.318 321.343C541.487 312.522 546.676 301.341 550.761 290.035C566.055 247.675 566.035 196.211 537.016 161.777C506.182 125.199 453.539 118.143 411.106 96.0795C378.504 79.164 351.819 53.115 323.872 29.2986C312.404 19.5076 300.183 9.81344 285.618 5.92036C273.644 2.78428 260.988 3.72937 248.626 4.74827C197.761 8.94065 140.956 16.1443 108.928 55.9799C68.4344 106.378 86.0961 187.286 43.9495 236.316C35.8634 245.72 25.8968 253.459 18.5256 263.433C-8.06596 299.386 6.68735 362.255 39.166 390.227C76.9479 422.762 137.116 424.202 183.785 421.722V421.722Z" fill="#BABABA"/>
<path d="M59.0716 285.873C69.0279 292.27 75.6274 302.607 84.7756 310.079L76.7001 331.59L71.4049 325.929C66.8704 321.129 62.2784 316.283 56.7758 312.57C51.2727 308.856 44.6968 306.399 38.04 306.829C38.04 306.829 41.4088 286.869 43.0816 284.899C47.9847 279.114 52.7956 281.843 59.0716 285.873Z" fill="#70A9A1"/>
<path d="M46.2276 286.761L44.5615 299.07C45.6856 299.32 46.7008 299.921 47.46 300.787C48.2192 301.652 48.6828 302.737 48.7838 303.884C48.7838 303.884 65.3306 309.348 71.4475 321.075C71.4475 321.075 75.6015 319.934 77.1536 321.805L80.4283 313.82C80.4283 313.82 78.2491 311.059 78.8306 308.8C78.8306 308.8 63.0144 287.719 53.1088 285.928C50.9408 286.853 48.5539 287.143 46.2276 286.761Z" fill="white"/>
<path d="M170.639 76.1026H151.075V348.985H170.639V76.1026Z" fill="#70A9A1"/>
<path d="M170.639 76.1026H151.075V348.985H170.639V76.1026Z" fill="url(#paint0_linear)"/>
<path d="M127.087 179.385H414.218C416.343 179.385 418.449 179.805 420.411 180.623C422.374 181.442 424.159 182.64 425.661 184.151C427.164 185.662 428.355 187.456 429.169 189.43C429.982 191.404 430.401 193.52 430.401 195.656V370.728H110.86V195.656C110.86 193.516 111.28 191.397 112.096 189.419C112.912 187.442 114.109 185.647 115.615 184.135C117.123 182.623 118.913 181.425 120.881 180.61C122.85 179.796 124.959 179.379 127.087 179.385V179.385Z" fill="#70A9A1"/>
<path d="M414.098 193.518H128.25V356.595H414.098V193.518Z" fill="white"/>
<path opacity="0.26" d="M141.293 233.225L142.415 237.005C142.415 237.005 185.958 236.438 189.772 234.782C190.926 234.221 191.95 233.426 192.773 232.447C193.597 231.467 194.202 230.327 194.55 229.1L193.024 219.449L183.277 202.215L141.293 233.225Z" fill="url(#paint1_linear)"/>
<path d="M90.2208 369.641H449.965V370.775C449.965 377.395 447.348 383.743 442.688 388.423C438.029 393.103 431.711 395.733 425.121 395.733H115.054C108.464 395.733 102.146 393.103 97.4866 388.423C92.8271 383.743 90.21 377.395 90.21 370.775V369.641H90.2208Z" fill="#70A9A1"/>
<path d="M90.2208 369.641H449.965V370.775C449.965 377.395 447.348 383.743 442.688 388.423C438.029 393.103 431.711 395.733 425.121 395.733H115.054C108.464 395.733 102.146 393.103 97.4866 388.423C92.8271 383.743 90.21 377.395 90.21 370.775V369.641H90.2208Z" fill="url(#paint2_linear)"/>
<path d="M128.863 54.9756C129.873 53.1593 131.108 51.3881 131.445 49.3349C131.782 47.2817 130.827 44.8222 128.819 44.3033C126.809 43.7843 124.33 45.612 122.287 44.7207C120.986 44.1567 120.379 42.6788 119.705 41.4265C118.211 38.5046 115.643 36.2831 112.546 35.2329C111.002 34.7392 109.357 34.6563 107.772 34.9925C106.186 35.3287 104.714 36.0723 103.5 37.1508C102.867 37.8615 102.172 38.5146 101.424 39.1025C100.521 39.5647 99.5092 39.7722 98.4973 39.7026C97.4854 39.6331 96.5116 39.2893 95.679 38.7076C94.2868 37.8728 92.6488 36.6206 91.1892 37.4328C90.8642 37.6571 90.5881 37.9478 90.3816 38.286C90.1751 38.6241 90.0403 39.0022 89.9882 39.3958C89.3045 42.9608 91.9076 46.2437 93.0303 49.741C94.478 54.1747 93.5466 59.0032 92.6032 63.5722C91.2348 70.0252 89.7752 76.704 85.6342 81.8596C81.4932 87.0157 75.1415 89.8358 70.8657 94.8336C66.59 99.8313 64.7716 106.487 63.4587 112.963C62.8979 114.889 62.8979 116.937 63.4587 118.864C64.0717 120.15 64.9336 121.301 65.9955 122.248C70.1919 126.568 74.5915 131.002 80.2139 133.135C86.2852 135.391 92.9966 134.759 99.4831 134.635C103.972 134.545 108.517 134.736 112.949 133.969C117.383 133.202 121.816 131.375 124.722 127.934C127.23 124.704 128.634 120.748 128.729 116.652C128.812 112.589 128.508 108.529 127.82 104.525C126.66 95.837 125.841 87.1211 125.362 78.3737C124.902 70.2847 124.79 62.3086 128.863 54.9756V54.9756Z" fill="#70A9A1"/>
<path opacity="0.26" d="M85.5538 88.8063C84.9235 90.125 84.3268 91.8167 85.255 92.9441L95.552 85.4588C95.7596 85.2657 96.0324 85.1609 96.3139 85.1657C96.6454 85.1657 96.8443 85.5603 96.9986 85.8646L99.5843 91.0948L104.478 83.9821L114.598 94.2846C115.527 95.2315 117.007 96.2121 117.989 95.3217C118.808 94.589 118.421 93.2257 117.989 92.2113C114.973 85.5378 113.946 76.9483 112.344 69.7904C111.715 66.9836 111.394 64.1543 110.753 61.325C109.129 54.1558 102.81 49.6018 97.4964 44.5744C98.4789 47.956 99.3517 51.4053 100.115 54.8546L97.5181 53.7049C94.0325 59.7198 91.8197 66.4124 91.0219 73.3524C90.2926 79.1238 88.083 83.5426 85.5538 88.8063V88.8063Z" fill="url(#paint3_linear)"/>
<path d="M98.8901 54.6311C100.824 55.1657 102.709 55.8566 104.53 56.697C105.434 57.1211 106.245 57.7222 106.913 58.4648C107.582 59.2074 108.095 60.0764 108.422 61.0206C108.559 61.3848 108.596 61.7793 108.528 62.1627C108.461 62.546 108.292 62.9041 108.038 63.1994C107.708 63.4136 107.334 63.5511 106.944 63.6019C106.554 63.6526 106.157 63.6155 105.782 63.4929C101.314 62.7108 96.9207 61.5436 92.6525 60.0046C91.5102 59.6581 90.4407 59.1074 89.4941 58.3791C89.0235 58.0108 88.6507 57.5314 88.4105 56.9835C88.1703 56.4358 88.0703 55.8369 88.1181 55.2407C88.9419 49.0543 95.9012 53.6716 98.8901 54.6311V54.6311Z" fill="url(#paint4_linear)"/>
<path d="M97.7629 61.4157C99.6932 61.9573 101.579 62.648 103.403 63.4816C104.305 63.9058 105.113 64.5071 105.781 65.2498C106.447 65.9924 106.958 66.8614 107.283 67.8052C107.425 68.1697 107.465 68.5661 107.4 68.952C107.334 69.3377 107.165 69.6984 106.91 69.9953C106.58 70.208 106.206 70.3446 105.816 70.3954C105.425 70.4461 105.029 70.4098 104.655 70.2888C100.199 69.4984 95.8174 68.3315 91.559 66.8005C90.4124 66.4541 89.3396 65.9034 88.3886 65.1749C87.9191 64.803 87.5485 64.3212 87.3083 63.772C87.0681 63.2227 86.967 62.623 87.0126 62.0253C87.9039 55.8503 94.8751 60.4449 97.7629 61.4157V61.4157Z" fill="url(#paint5_linear)"/>
<path d="M96.5213 67.4552C98.4516 67.993 100.337 68.68 102.161 69.5099C103.064 69.936 103.874 70.5391 104.54 71.2837C105.207 72.0284 105.717 72.8992 106.041 73.8448C106.181 74.2086 106.219 74.6037 106.152 74.9874C106.085 75.3713 105.914 75.7296 105.658 76.0235C105.327 76.2363 104.953 76.373 104.563 76.4236C104.173 76.4744 103.776 76.438 103.402 76.3171C98.9342 75.545 94.5421 74.3893 90.2729 72.8627C89.1262 72.5163 88.0524 71.9655 87.1025 71.2371C86.633 70.8651 86.2623 70.3833 86.0221 69.8341C85.7819 69.285 85.6809 68.6851 85.7265 68.0874C86.6177 61.8786 93.5889 66.4619 96.5213 67.4552Z" fill="url(#paint6_linear)"/>
<path d="M95.1338 73.4609C97.0674 73.9955 98.9531 74.6864 100.775 75.5269C101.678 75.9526 102.487 76.5542 103.155 77.2966C103.823 78.0389 104.336 78.9072 104.666 79.8505C104.803 80.2147 104.84 80.6091 104.772 80.9926C104.705 81.3759 104.535 81.734 104.282 82.0293C103.954 82.2484 103.58 82.3897 103.19 82.4426C102.798 82.4954 102.401 82.4582 102.027 82.3341C97.5554 81.5473 93.159 80.3803 88.8854 78.8458C87.7431 78.4993 86.6736 77.9485 85.7269 77.2202C85.2552 76.8502 84.8824 76.3688 84.6422 75.8191C84.402 75.2694 84.302 74.6686 84.351 74.0706C85.2422 67.8956 92.2014 72.4676 95.1338 73.4609V73.4609Z" fill="url(#paint7_linear)"/>
<path d="M132.571 64.5089C126.683 55.6584 115.81 51.4137 105.263 50.1042C103.48 49.8785 101.146 50.1042 100.627 51.7863C100.461 52.4811 100.558 53.2126 100.898 53.8408C102.691 57.6227 108.285 58.3564 110.068 62.1382C110.55 63.3733 110.81 64.6843 110.835 66.0103C111.794 77.2992 115.121 89.0846 123.536 96.6709C124.877 98.006 126.522 98.9942 128.33 99.5498C129.878 99.8596 131.47 99.9064 133.034 99.6857C135.29 99.4824 137.545 99.2791 139.801 98.929C142.057 98.5789 142.768 98.3756 142.339 96.0958C141.651 92.5277 140.083 89.0063 139.328 85.3934C137.805 78.2475 136.7 70.7178 132.571 64.5089V64.5089Z" fill="url(#paint8_linear)"/>
<path d="M145.539 95.5914C145.645 95.8577 145.669 96.1502 145.607 96.4307C145.468 96.7101 145.24 96.9384 144.957 97.0786L131.284 105.805C130.747 106.217 130.104 106.474 129.427 106.544C128.788 106.482 128.181 106.237 127.683 105.839C124.855 103.857 122.796 100.995 121.837 97.7168C121.766 97.5678 121.729 97.4059 121.729 97.2417C121.729 97.0764 121.766 96.9144 121.837 96.7655C122.031 96.5231 122.306 96.3567 122.612 96.2958C127.979 94.4944 132.423 90.3664 137.425 87.8158C143.431 84.7617 144.046 90.6349 145.539 95.5914V95.5914Z" fill="white"/>
<path d="M421.858 50.3799C420.821 48.868 420.054 47.1899 419.59 45.4191C419.296 43.6038 420.135 41.4279 421.915 40.9769C423.695 40.5259 425.917 42.1044 427.731 41.3489C428.865 40.8528 429.432 39.5563 429.999 38.4514C431.332 35.882 433.616 33.929 436.371 33.0057C437.744 32.5716 439.208 32.4982 440.619 32.7925C442.029 33.0869 443.339 33.7391 444.421 34.6857C444.977 35.3139 445.592 35.8877 446.258 36.3994C447.062 36.8082 447.962 36.9927 448.862 36.9331C449.763 36.8735 450.63 36.5722 451.371 36.0612C452.607 35.317 454.07 34.2234 455.318 34.9337C455.605 35.1308 455.847 35.3849 456.031 35.6797C456.213 35.9747 456.334 36.3042 456.383 36.6474C457.04 39.7931 454.761 42.7132 453.753 45.7686C452.471 49.6696 453.299 53.9202 454.138 57.934C455.329 63.5712 456.621 69.5355 460.306 74.0341C463.991 78.5326 469.649 81.0581 473.447 85.444C477.245 89.8293 478.89 95.6696 480.023 101.409C480.522 103.106 480.522 104.91 480.023 106.607C479.476 107.749 478.705 108.772 477.756 109.617C474.014 113.405 470.113 117.318 465.114 119.189C459.705 121.218 453.775 120.62 447.958 120.508C443.959 120.611 439.957 120.418 435.986 119.933C432.04 119.257 428.106 117.678 425.509 114.612C423.277 111.773 422.028 108.293 421.949 104.69C421.872 101.113 422.142 97.5374 422.754 94.0128C423.785 86.3798 424.511 78.6905 424.942 71.0012C425.384 63.8531 425.486 56.8402 421.858 50.3799V50.3799Z" fill="#70A9A1"/>
<path opacity="0.26" d="M427.193 45.397C428.308 44.8878 429.356 46.0533 430.293 46.8341C431.111 47.5232 432.1 47.9711 433.151 48.1291C434.203 48.2871 435.278 48.149 436.258 47.73C437.238 47.311 438.086 46.6271 438.708 45.7528C439.332 44.8784 439.707 43.8474 439.792 42.7717C440.423 42.9638 441.006 43.2862 441.507 43.7185C442.008 44.1509 442.415 44.6838 442.703 45.2839C442.948 45.8157 443.171 46.4154 443.729 46.6078C444.042 46.6736 444.368 46.6298 444.654 46.4833C446.236 45.6505 447.577 44.4143 448.546 42.8962L450.575 40.2256C452.18 41.8777 451.634 44.5936 451.188 46.8794C450.033 52.8556 450.416 59.0335 452.303 64.8149C452.737 66.2837 453.403 67.6711 454.277 68.9226C455.532 70.3884 456.951 71.7022 458.503 72.8379C461.195 75.1142 463.458 77.8671 465.181 80.9627L453.485 75.3047C452.147 74.6598 450.397 74.06 449.326 75.1011C448.815 75.7469 448.515 76.5378 448.468 77.3642C447.914 80.4623 446.839 83.4405 445.29 86.1679L443.884 77.3303C443.85 76.4703 443.486 75.6579 442.87 75.0671C441.509 74.06 439.703 75.6329 438.979 77.1944C437.306 80.8042 437.284 85.0137 435.789 88.703C434.809 91.1133 433.225 93.2289 432.177 95.6163C431.167 97.9951 430.71 100.577 430.842 103.164C430.973 105.75 431.689 108.271 432.935 110.531C433.548 111.662 434.318 112.794 434.106 114.039C433.912 114.763 433.467 115.391 432.852 115.807C432.237 116.224 431.494 116.399 430.761 116.302C429.312 116.047 427.992 115.301 427.015 114.186C423.301 110.429 421.674 104.929 421.707 99.6106C421.883 95.4 422.534 91.2242 423.648 87.1635C424.487 83.0336 425.68 78.9859 427.215 75.0671C429.244 70.3144 432.356 65.7541 432.333 60.5716C432.333 57.1767 430.738 54.5741 429.178 51.7565C428.419 50.4099 424.785 46.5173 427.193 45.397V45.397Z" fill="url(#paint9_linear)"/>
<path d="M449.079 50.2059C447.386 50.6779 445.734 51.2856 444.139 52.0234C443.351 52.4006 442.645 52.9314 442.065 53.5846C441.483 54.2379 441.038 55.0004 440.755 55.8277C440.631 56.1473 440.596 56.4945 440.654 56.8324C440.712 57.1704 440.859 57.4864 441.082 57.7469C441.369 57.9383 441.696 58.0614 442.039 58.1064C442.381 58.1514 442.729 58.1173 443.056 58.0065C446.992 57.3184 450.86 56.291 454.618 54.9358C455.626 54.6326 456.57 54.1467 457.404 53.5022C457.816 53.175 458.141 52.7519 458.352 52.2698C458.561 51.7875 458.65 51.2611 458.61 50.7364C457.798 45.2952 451.663 49.3253 449.079 50.2059V50.2059Z" fill="url(#paint10_linear)"/>
<path d="M449.981 56.1889C448.292 56.6612 446.643 57.269 445.052 58.0065C444.262 58.3817 443.555 58.9117 442.975 59.5652C442.393 60.2187 441.949 60.9823 441.669 61.8108C441.546 62.1314 441.512 62.4792 441.572 62.8172C441.632 63.1551 441.782 63.4706 442.007 63.7299C442.293 63.9215 442.621 64.0444 442.963 64.0895C443.305 64.1345 443.653 64.1003 443.98 63.9895C447.911 63.3001 451.775 62.2728 455.531 60.919C456.54 60.6181 457.485 60.132 458.317 59.4854C458.731 59.1609 459.06 58.7381 459.27 58.2553C459.48 57.7724 459.568 57.2446 459.524 56.7196C458.712 51.2782 452.564 55.3084 449.981 56.1889V56.1889Z" fill="url(#paint11_linear)"/>
<path d="M451.12 61.4948C449.428 61.9667 447.776 62.5746 446.18 63.3122C445.391 63.6896 444.687 64.2203 444.106 64.8735C443.524 65.5267 443.08 66.2893 442.796 67.1166C442.673 67.4382 442.637 67.7871 442.695 68.1267C442.752 68.4663 442.9 68.7842 443.123 69.047C443.414 69.2304 443.741 69.3486 444.082 69.3934C444.423 69.4382 444.769 69.4086 445.097 69.3067C449.028 68.608 452.892 67.577 456.648 66.2248C457.656 65.9257 458.6 65.4435 459.434 64.8024C459.849 64.4754 460.178 64.051 460.39 63.5665C460.603 63.0822 460.692 62.5527 460.652 62.0253C459.84 56.5953 453.704 60.6142 451.12 61.4948V61.4948Z" fill="url(#paint12_linear)"/>
<path d="M452.328 66.7892C450.651 67.265 449.014 67.8727 447.432 68.6068C446.643 68.984 445.939 69.5148 445.357 70.168C444.776 70.8213 444.331 71.5838 444.048 72.4112C443.925 72.7326 443.889 73.0815 443.947 73.4213C444.004 73.7609 444.152 74.0788 444.375 74.3416C444.666 74.5249 444.993 74.643 445.334 74.6878C445.675 74.7326 446.02 74.703 446.349 74.6012C450.28 73.9024 454.144 72.8715 457.9 71.5192C458.908 71.2202 459.852 70.738 460.686 70.0969C461.101 69.77 461.43 69.3454 461.642 68.8611C461.855 68.3766 461.944 67.8473 461.904 67.3198C461.047 61.8786 454.922 65.9087 452.328 66.7892V66.7892Z" fill="url(#paint13_linear)"/>
<path d="M419.379 58.8983C424.557 51.109 434.144 47.3836 443.416 46.2208C444.985 46.0176 447.049 46.2208 447.5 47.6997C447.642 48.3106 447.559 48.9525 447.263 49.5059C445.684 52.8362 440.755 53.4796 439.186 56.8098C438.767 57.891 438.537 59.0369 438.51 60.1965C437.676 70.142 434.731 80.5165 427.332 87.1994C426.158 88.4018 424.705 89.2944 423.102 89.7956C421.738 90.0652 420.339 90.1033 418.962 89.9087C416.988 89.7282 414.991 89.5477 413.03 89.2433C411.067 88.9378 410.412 88.7573 410.773 86.748C411.371 83.6098 412.758 80.5053 413.424 77.333C414.721 71 415.736 64.3734 419.379 58.8983V58.8983Z" fill="url(#paint14_linear)"/>
<path d="M404.341 92.9952C404.286 93.3007 404.324 93.6148 404.452 93.8964C404.655 94.1671 404.942 94.3606 405.266 94.4487L421.328 100.714C421.975 101.035 422.697 101.163 423.414 101.086C424.06 100.886 424.632 100.493 425.054 99.9585C427.537 97.2384 429.032 93.7464 429.291 90.0543C429.324 89.8793 429.322 89.6988 429.283 89.5249C429.245 89.3498 429.172 89.1857 429.069 89.0411C428.814 88.8291 428.495 88.7138 428.165 88.7138C422.22 87.9811 416.722 84.5788 410.978 82.9676C404.106 81.0746 404.776 87.4071 404.341 92.9952Z" fill="white"/>
<path d="M340.19 356.595H210.853C210.853 353.625 214.636 338.863 217.534 336.744C220.43 334.626 226.819 335.937 230.412 335.937C241.731 335.937 253.025 335.773 264.298 335.445C275.628 335.04 286.913 334.47 298.197 333.651C301.375 333.449 329.849 329.381 330.545 330.804C333.633 336.991 340.146 353.781 340.19 356.595Z" fill="#606161"/>
<path d="M136.629 233.744L182.758 231.22C184.677 231.119 186.844 230.895 188.041 229.416C189.238 227.935 189.024 225.85 188.775 223.976C187.383 213.114 187.22 202.132 188.29 191.234C188.674 187.275 189.294 183.171 191.609 179.93C193.923 176.691 198.383 174.672 202.04 176.364C202.648 176.734 203.311 177.004 204.005 177.161C206.262 177.408 207.279 173.943 205.833 172.205C204.389 170.466 201.86 170.152 199.602 169.962C187.42 169.054 175.171 169.547 163.013 168.605C156.024 168.067 148.889 165.835 142.375 169.424C122.471 180.424 132.508 216.912 136.629 233.744V233.744Z" fill="#70A9A1"/>
<path opacity="0.26" d="M164.115 168.207L157.596 167.426C157.596 167.426 165.646 191.728 174.844 205.998C184.043 220.267 196.314 243.789 196.697 249.576C197.08 255.362 211.649 313.98 206.29 330.944C200.93 347.908 194.783 356.595 194.783 356.595H263.022L259.161 236.077L168.033 168.128" fill="url(#paint15_linear)"/>
<path d="M139.457 171.164C139.457 171.164 130.014 177.105 141.721 220.017C141.721 220.017 146.25 219.871 146.148 225.046L176.514 222.796C176.514 222.796 174.781 218.633 180.42 217.486C180.42 217.486 172.177 186.736 173.91 180.987C174.89 177.334 174.487 173.451 172.777 170.073C172.777 170.073 157.935 168.341 155.432 168.15C152.93 167.958 146.59 165.415 139.457 171.164V171.164Z" fill="url(#paint16_linear)"/>
<path d="M184.326 76.3979C190.388 73.4552 197.484 74.1429 204.184 73.3424C211.296 72.5444 218.132 70.1417 224.167 66.3179C223.681 76.663 225.062 87.0113 228.243 96.8742C222.032 96.6253 215.401 96.4796 210.076 99.6922C205.364 102.545 202.389 107.675 197.587 110.449C192.239 113.583 185.597 113.223 179.421 112.772C181.395 108.735 178.716 104.067 176.014 100.481C172.675 96.073 170.088 92.3635 172.971 87.3353C175.653 82.7082 179.587 78.9196 184.326 76.3979V76.3979Z" fill="#70A9A1"/>
<path d="M186.114 76.3081C191.471 73.7082 197.761 74.2709 203.686 73.6181C209.983 72.9129 216.033 70.7877 221.373 67.4051C220.936 76.551 222.159 85.7003 224.982 94.4183C219.476 94.1932 213.63 94.0693 208.92 96.9057C204.754 99.4269 202.108 103.952 197.908 106.406C193.174 109.173 187.294 108.859 181.823 108.454C183.57 104.897 181.187 100.766 178.78 97.6037C175.829 93.7094 173.535 90.4338 176.089 85.9877C178.455 81.8968 181.926 78.5437 186.114 76.3081Z" fill="url(#paint17_linear)"/>
<path d="M476.251 80.061C475.392 74.5402 477.257 68.1805 482.068 65.4597C484.927 63.8386 488.343 63.7139 491.613 63.6346L513.775 63.0564C512.961 70.1867 514.848 77.3642 519.055 83.1331C522.917 88.3703 528.522 92.2026 532.095 97.5983C534.928 102.186 536.205 107.591 535.729 112.984C535.254 118.379 533.052 123.467 529.46 127.47C519.019 126.002 508.395 126.65 498.201 129.374C500.433 123.219 496.471 116.564 492.083 111.724C484.569 103.403 478.005 91.4992 476.251 80.061V80.061Z" fill="#70A9A1"/>
<path opacity="0.26" d="M479.698 82.1597C478.572 77.0299 479.878 70.9757 483.931 68.1572C486.341 66.4886 489.324 66.1842 492.184 65.9023L511.548 64.1436C511.214 70.8091 513.253 77.377 517.301 82.6784C520.993 87.3799 526.128 90.5707 529.573 95.5196C535.202 103.636 535 115.949 529.021 123.705C519.798 122.897 510.508 124.088 501.787 127.2C503.42 121.303 499.535 115.294 495.392 110.999C488.345 103.569 481.904 92.769 479.698 82.1597Z" fill="url(#paint18_linear)"/>
<path d="M35.7219 225.22C35.2856 225.5 34.9553 225.918 34.7839 226.408C34.7631 226.742 34.813 227.077 34.9305 227.39C35.0479 227.703 35.23 227.988 35.465 228.225C40.0674 234.295 44.9914 240.111 50.2157 245.65C50.6318 246.173 51.1905 246.563 51.8237 246.771C52.5629 246.848 53.307 246.683 53.9452 246.301L63.1793 242.006C66.4519 240.481 69.8125 238.9 72.3362 236.298C77.3162 231.141 77.9195 223.281 78.2542 216.115C71.32 210.116 64.7096 198.085 56.1785 203.646C48.8423 208.434 42.8906 219.345 35.7219 225.22Z" fill="#70A9A1"/>
<path d="M465.181 304.455C471.605 309.708 478.455 314.42 485.658 318.544C488.943 304.444 502.528 296.071 514.09 289.182C492.708 264.41 470.063 308.451 465.181 304.455Z" fill="#70A9A1"/>
<g opacity="0.24">
<path opacity="0.24" d="M454.358 254.795V245.369C441.95 244.341 434.697 236.981 433.659 227.047H442.762C443.264 229.887 444.661 232.494 446.746 234.486C448.832 236.478 451.498 237.752 454.358 238.121V213.06C440.597 208.917 435.182 203.735 435.182 194.106C435.182 183.652 443.246 176.709 454.358 175.987V168.942H460.257V176.088C474.018 177.432 478.462 186.339 479.083 192.762H470.182C469.055 188.518 466.562 184.375 460.257 183.234V205.812C476.048 210.328 480.639 217 480.639 226.212C480.639 237.703 472.98 244.443 460.257 245.403V254.828L454.358 254.795V254.795ZM454.358 204.052V183.031C446.902 183.652 444.206 188.099 444.206 193.079C444.206 198.057 446.597 201.364 454.358 204.052V204.052ZM460.257 214.821V238.223C467.397 237.5 471.22 233.876 471.22 227.149C471.22 221.662 468.863 217.824 460.257 214.821Z" fill="#70A9A1"/>
</g>
<path d="M457.513 254.366V244.939C445.169 243.901 437.954 236.552 436.922 226.606H445.978C446.474 229.449 447.862 232.058 449.937 234.052C452.012 236.047 454.666 237.323 457.513 237.692V212.631C443.822 208.487 438.437 203.306 438.437 193.677C438.437 183.222 446.46 176.28 457.513 175.558V168.513H463.381V175.659C477.071 177.003 481.503 185.909 482.121 192.333H473.267C472.144 188.089 469.665 183.945 463.381 182.805V205.383C479.09 209.898 483.657 216.559 483.657 225.782C483.657 237.275 476.038 244.003 463.381 244.974V254.4L457.513 254.366ZM457.513 203.622V182.647C450.096 183.268 447.413 187.716 447.413 192.683C447.413 197.65 449.793 200.924 457.513 203.622ZM463.381 214.392V237.793C470.483 237.071 474.287 233.448 474.287 226.708C474.287 221.221 471.92 217.395 463.381 214.392Z" fill="white"/>
<g opacity="0.24">
<path opacity="0.24" d="M453.985 112.882V109.495C449.597 109.134 447.037 106.537 446.676 103.027H449.891C450.062 104.032 450.554 104.955 451.292 105.659C452.03 106.362 452.974 106.809 453.985 106.933V98.0821C449.123 96.6263 447.218 94.7966 447.218 91.3883C447.218 87.6962 450.071 85.2466 453.985 84.987V82.5034H456.061V85.0208C460.933 85.5062 462.502 88.6443 462.716 90.9132H459.58C459.418 90.0533 458.992 89.264 458.362 88.6573C457.73 88.0507 456.926 87.6549 456.061 87.5267V95.4968C461.701 97.1112 463.269 99.4476 463.269 102.71C463.269 106.763 460.562 109.145 456.061 109.484V112.871L453.985 112.882V112.882ZM453.985 94.9554V87.5386C451.346 87.7528 450.398 89.3216 450.398 91.0828C450.398 92.844 451.245 94.0073 453.985 94.9554ZM456.061 98.7594V107.034C458.588 106.774 459.941 105.488 459.941 103.117C459.941 101.175 459.095 99.8205 456.061 98.7594V98.7594Z" fill="#70A9A1"/>
</g>
<path d="M454.973 113.01V109.618C450.661 109.244 448.157 106.644 447.791 103.127H450.949C451.112 104.142 451.593 105.076 452.317 105.791C453.042 106.507 453.973 106.963 454.973 107.096V98.231C450.196 96.7601 448.323 94.9282 448.323 91.5253C448.323 87.8278 451.116 85.3622 454.973 85.1134V82.6256H457.023V85.1587C461.8 85.6335 463.341 88.7889 463.563 91.0611H460.47C460.316 90.1989 459.901 89.4075 459.282 88.7986C458.664 88.1898 457.874 87.7952 457.023 87.6691V95.6751C462.565 97.2917 464.094 99.6324 464.094 102.89C464.094 106.96 461.434 109.346 457.023 109.675V113.067L454.973 113.01V113.01ZM454.973 95.0532V87.6125C452.391 87.8387 451.459 89.4107 451.459 91.1633C451.459 92.9158 452.28 94.103 454.973 95.0532V95.0532ZM457.023 98.8637V107.096C459.505 106.847 460.825 105.559 460.825 103.183C460.846 101.284 460.004 99.927 457.023 98.8637Z" fill="white"/>
<g opacity="0.24">
<path opacity="0.24" d="M94.0739 123.155V119.768C89.6862 119.407 87.1255 116.799 86.7646 113.288H89.9796C90.1503 114.295 90.6415 115.219 91.3795 115.925C92.1164 116.63 93.0609 117.079 94.0739 117.206V108.355C89.2123 106.887 87.3059 105.059 87.3059 101.661C87.3059 97.969 90.16 95.5196 94.0739 95.2598V92.7766H96.1498V95.2935C101.01 95.7675 102.59 98.917 102.805 101.187H99.668C99.5082 100.325 99.0833 99.5356 98.4518 98.9279C97.8203 98.3213 97.016 97.9266 96.1498 97.7994V105.77C101.79 107.384 103.357 109.721 103.357 112.972C103.357 117.036 100.649 119.418 96.1498 119.745V123.132L94.0739 123.155V123.155ZM94.0739 105.228V97.7994C91.4339 98.0255 90.4872 99.5943 90.4872 101.356C90.4872 103.117 91.3328 104.28 94.0739 105.228ZM96.1498 108.988V117.251C98.6757 117.048 100.018 115.761 100.018 113.39C100.018 111.448 99.1832 110.116 96.1498 108.988V108.988Z" fill="#70A9A1"/>
</g>
<path d="M95.2182 122.851V119.519C90.9066 119.145 88.4024 116.539 88.0361 113.014H91.2055C91.3772 114.023 91.8608 114.95 92.5847 115.657C93.3085 116.364 94.2356 116.816 95.229 116.947V108.061C90.4522 106.588 88.5796 104.752 88.5796 101.34C88.5796 97.6233 91.3717 95.1641 95.229 94.9151V92.4102H97.2789V94.9488C102.056 95.425 103.597 98.5865 103.819 100.853H100.716C100.557 99.9911 100.14 99.2008 99.5222 98.5909C98.9049 97.982 98.1169 97.5841 97.268 97.4537V105.489C102.81 107.098 104.339 109.455 104.339 112.72C104.339 116.799 101.68 119.179 97.268 119.519V122.851H95.2182V122.851ZM95.2182 104.865V97.408C92.6358 97.6233 91.7043 99.2106 91.7043 100.966C91.7043 102.723 92.5249 103.902 95.2182 104.865ZM97.268 108.684V116.981C99.7504 116.72 101.07 115.439 101.07 113.048C101.07 111.155 100.249 109.75 97.268 108.684Z" fill="white"/>
<g opacity="0.24">
<path opacity="0.24" d="M25.7299 281.708V277.192C19.8194 276.707 16.3791 273.196 15.8828 268.466H20.2141C20.4395 269.83 21.0974 271.086 22.0907 272.047C23.0839 273.009 24.3599 273.626 25.7299 273.805V261.84C19.1765 259.863 16.6159 257.403 16.6159 252.808C16.6159 247.829 20.4624 244.522 25.7299 244.184V240.796H28.5386V244.184C35.0921 244.826 37.2126 249.06 37.5059 252.085H33.2647C33.0428 250.935 32.4685 249.882 31.6216 249.073C30.7747 248.264 29.6972 247.739 28.5386 247.57V258.317C36.0734 260.485 38.2391 263.645 38.2391 268.026C38.2391 273.501 34.5957 276.707 28.5386 277.147V281.662L25.7299 281.708ZM25.7299 257.55V247.548C22.1881 247.841 20.9022 249.952 20.9022 252.322C20.9022 254.694 22.0415 256.262 25.7299 257.55ZM28.5386 262.675V273.805C31.9224 273.455 33.761 271.739 33.761 268.533C33.761 265.903 32.633 264.109 28.5386 262.675Z" fill="#70A9A1"/>
</g>
<path d="M26.9849 281.579V277.02C21.2322 276.518 17.8727 272.984 17.3896 268.207H21.6164C21.842 269.576 22.4859 270.833 23.4528 271.792C24.4197 272.75 25.6581 273.36 26.9849 273.531V261.528C20.6064 259.533 18.1143 257.047 18.1143 252.407C18.1143 247.38 21.8469 244.04 26.9849 243.687V240.267H29.7185V243.687C36.086 244.336 38.15 248.611 38.4354 251.667H34.2856C34.0696 250.505 33.5106 249.441 32.6863 248.624C31.862 247.807 30.8133 247.277 29.6855 247.106V257.993C37.0192 260.182 39.1271 263.374 39.1271 267.797C39.1271 273.326 35.5811 276.563 29.6855 277.008V281.569L26.9849 281.579V281.579ZM26.9849 257.195V247.083C23.5267 247.392 22.286 249.523 22.286 251.917C22.286 254.311 23.3839 255.896 26.9849 257.195ZM29.7185 262.371V273.622C33.012 273.269 34.7906 271.525 34.7906 268.298C34.7906 265.654 33.6927 263.818 29.7185 262.371V262.371Z" fill="white"/>
<g opacity="0.24">
<path opacity="0.24" d="M169.569 183.054H166.365C166.027 187.275 163.546 189.737 160.173 190.098V187.005C161.142 186.844 162.032 186.371 162.708 185.658C163.383 184.944 163.808 184.03 163.918 183.054H155.424C154.026 187.739 152.277 189.567 149.006 189.579C145.453 189.579 143.095 186.847 142.835 183.088H140.444V181.123H142.881C143.321 176.449 146.344 174.926 148.521 174.711V177.736C147.697 177.893 146.943 178.304 146.365 178.912C145.786 179.519 145.412 180.292 145.295 181.123H152.954C154.488 175.738 156.732 174.18 159.857 174.18C163.76 174.18 166.05 176.766 166.377 181.089H169.58L169.569 183.054V183.054ZM152.356 183.054H145.216C145.43 185.583 146.953 186.497 148.6 186.497C150.247 186.497 151.442 185.752 152.356 183.098V183.054ZM156 181.033H163.895C163.647 178.606 162.418 177.308 160.128 177.308C158.311 177.353 157.015 178.154 156 181.078V181.033Z" fill="#70A9A1"/>
</g>
<path d="M169.541 181.972H166.324C165.983 186.286 163.472 188.801 160.073 189.169V186.009C161.046 185.835 161.938 185.349 162.62 184.623C163.3 183.896 163.735 182.967 163.857 181.972H155.288C153.879 186.759 152.117 188.627 148.821 188.639C145.24 188.639 142.866 185.848 142.616 182.007H140.206V179.954H142.649C143.105 175.179 146.139 173.623 148.333 173.404V176.495C147.502 176.655 146.743 177.074 146.16 177.695C145.576 178.315 145.2 179.105 145.082 179.954H152.799C154.345 174.453 156.606 172.862 159.766 172.862C163.687 172.862 165.994 175.502 166.324 179.92H169.552L169.541 181.972ZM152.196 181.972H145.002C145.23 184.567 146.752 185.433 148.412 185.433C150.072 185.433 151.276 184.706 152.196 182.019V181.972ZM155.868 179.909H163.824C163.574 177.429 162.335 176.102 160.027 176.102C158.197 176.148 156.891 176.968 155.868 179.954V179.909Z" fill="white"/>
<g opacity="0.24">
<path opacity="0.24" d="M199.809 97.5852L199.201 95.5087C196.38 96.0838 194.305 94.9216 193.437 92.7875L195.444 92.2004C195.739 92.7973 196.216 93.2844 196.806 93.5909C197.396 93.8975 198.069 94.0073 198.727 93.9051L197.103 88.3627C193.798 88.3627 192.275 87.5386 191.642 85.416C190.966 83.1017 192.309 81.0359 194.711 80.1667L194.249 78.6087L195.557 78.225L196.019 79.8054C199.144 79.207 200.711 80.9342 201.264 82.2663L199.291 82.8421C199.031 82.3375 198.622 81.9263 198.118 81.6653C197.615 81.4043 197.043 81.3067 196.482 81.3858L197.936 86.4094C201.738 86.4094 203.171 87.5386 203.769 89.5934C204.513 92.1439 203.261 94.1084 200.497 95.1586L201.107 97.2352L199.809 97.5852V97.5852ZM196.527 86.4094L195.162 81.7696C194.865 81.8459 194.587 81.982 194.344 82.1696C194.101 82.3572 193.899 82.5924 193.751 82.8608C193.602 83.1291 193.509 83.425 193.478 83.7304C193.448 84.0359 193.479 84.3444 193.572 84.637C193.899 85.7207 194.632 86.2739 196.527 86.4094ZM198.523 88.4073L200.035 93.5888C200.365 93.5105 200.674 93.3637 200.944 93.1571C201.212 92.9506 201.435 92.6897 201.597 92.3918C201.759 92.0939 201.856 91.7645 201.882 91.4264C201.909 91.0883 201.863 90.748 201.749 90.4283C201.388 89.1639 200.621 88.4758 198.523 88.3627V88.4073V88.4073Z" fill="#70A9A1"/>
</g>
<path d="M200.347 96.759L199.764 94.7662C197.07 95.3152 195.086 94.2171 194.257 92.1819L196.176 91.621C196.456 92.1906 196.912 92.6559 197.477 92.9462C198.042 93.2376 198.685 93.3387 199.312 93.2365L197.76 87.9485C194.602 87.9485 193.136 87.1733 192.543 85.1377C191.897 82.9836 193.179 80.9695 195.464 80.1295L195.033 78.6431L196.283 78.2769L196.725 79.7847C199.711 79.2247 201.209 80.8618 201.737 82.1435L199.851 82.6928C199.605 82.2095 199.214 81.8148 198.733 81.5638C198.253 81.3129 197.705 81.2181 197.167 81.2926L198.558 86.0639C202.19 86.0639 203.559 87.1407 204.13 89.1009C204.842 91.5242 203.635 93.4094 201.004 94.3998L201.586 96.3926L200.347 96.759V96.759ZM197.199 86.0532L195.906 81.6158C195.621 81.6884 195.354 81.8185 195.121 81.9982C194.888 82.178 194.694 82.4034 194.552 82.6608C194.409 82.918 194.321 83.2017 194.293 83.4943C194.265 83.787 194.296 84.0823 194.387 84.3622C194.688 85.4393 195.389 85.967 197.188 86.0532H197.199ZM199.118 87.9593L200.551 92.8821C200.866 92.8071 201.163 92.6657 201.42 92.469C201.677 92.2722 201.89 92.0232 202.045 91.7395C202.199 91.4546 202.291 91.1404 202.317 90.8175C202.342 90.4957 202.299 90.1707 202.19 89.8663C201.846 88.7247 201.112 88.0561 199.108 87.9593H199.118V87.9593Z" fill="white"/>
<g opacity="0.24">
<path opacity="0.24" d="M496.397 298.562L495.134 297.648C494.646 298.352 493.908 298.846 493.071 299.029C492.233 299.21 491.358 299.068 490.621 298.63L491.512 297.399C491.943 297.612 492.43 297.682 492.903 297.598C493.375 297.515 493.809 297.284 494.141 296.936L490.757 294.476C488.851 295.92 487.632 296.135 486.347 295.197C486.023 294.951 485.751 294.642 485.547 294.29C485.342 293.936 485.211 293.547 485.159 293.143C485.105 292.738 485.134 292.327 485.241 291.935C485.349 291.541 485.532 291.173 485.782 290.852L484.847 290.152L485.422 289.362L486.38 290.062C486.829 289.432 487.495 288.993 488.251 288.828C489.005 288.664 489.794 288.785 490.464 289.169L489.584 290.366C489.214 290.189 488.797 290.132 488.393 290.203C487.989 290.274 487.616 290.469 487.328 290.762L490.351 293.019C492.517 291.337 493.848 291.383 495.088 292.285C496.623 293.415 496.781 295.096 495.652 296.902L496.915 297.817L496.397 298.562V298.562ZM489.629 293.595L486.81 291.54C486.668 291.712 486.564 291.912 486.505 292.127C486.445 292.341 486.432 292.567 486.465 292.786C486.498 293.007 486.577 293.218 486.697 293.406C486.816 293.593 486.974 293.754 487.158 293.877C487.813 294.373 488.479 294.373 489.595 293.595H489.629V293.595ZM491.648 293.855L494.784 296.112C494.938 295.923 495.051 295.702 495.115 295.466C495.18 295.229 495.193 294.982 495.155 294.74C495.117 294.498 495.027 294.267 494.894 294.061C494.759 293.857 494.584 293.682 494.377 293.549C493.611 293.053 492.855 292.997 491.615 293.855H491.648Z" fill="#70A9A1"/>
</g>
<path d="M496.188 298.403L494.937 297.443C494.454 298.183 493.725 298.701 492.896 298.893C492.067 299.084 491.201 298.935 490.472 298.474L491.353 297.182C491.778 297.402 492.258 297.474 492.723 297.387C493.188 297.299 493.616 297.058 493.943 296.696L490.595 294.11C488.719 295.628 487.503 295.853 486.23 294.857C485.909 294.598 485.64 294.273 485.437 293.903C485.236 293.532 485.106 293.121 485.055 292.697C485.004 292.272 485.033 291.84 485.141 291.427C485.249 291.014 485.433 290.628 485.683 290.292L484.745 289.568L485.315 288.739L486.263 289.473C486.707 288.812 487.367 288.35 488.113 288.178C488.861 288.005 489.641 288.133 490.304 288.536L489.445 289.794C489.078 289.606 488.667 289.545 488.266 289.619C487.866 289.694 487.497 289.9 487.212 290.208L490.203 292.581C492.347 290.814 493.664 290.861 494.892 291.81C496.411 292.996 496.567 294.763 495.451 296.648L496.701 297.621L496.188 298.403V298.403ZM489.489 293.185L486.698 291.027C486.559 291.209 486.458 291.42 486.399 291.646C486.342 291.871 486.33 292.108 486.363 292.339C486.397 292.57 486.477 292.792 486.595 292.988C486.715 293.185 486.871 293.354 487.056 293.482C487.737 294.004 488.35 294.004 489.456 293.185H489.489V293.185ZM491.488 293.458L494.602 295.83C494.754 295.63 494.866 295.4 494.928 295.152C494.99 294.904 495.002 294.644 494.963 294.391C494.924 294.138 494.835 293.896 494.702 293.682C494.568 293.468 494.393 293.286 494.189 293.149C493.43 292.617 492.693 292.557 491.454 293.458H491.488Z" fill="white"/>
<path d="M511.227 247.877C510.564 254.883 503.858 256.595 504.333 263.612C509.802 261.504 515.723 261.787 521.303 263.227C526.882 264.666 531.898 267.761 537.344 269.62C537.59 267.436 538.18 265.308 539.09 263.317C540.107 261.288 541.376 259.394 542.349 257.343C540.869 257.627 539.51 256.527 538.294 255.62C533.412 251.946 527.346 250.563 521.413 250.11C520.033 250.008 510.984 250.484 511.227 247.877V247.877Z" fill="#70A9A1"/>
<g opacity="0.24">
<path opacity="0.24" d="M520.975 261.016L521.416 259.988C520.855 259.762 520.398 259.335 520.138 258.789C519.877 258.243 519.829 257.62 520.005 257.042L520.998 257.459C520.918 257.791 520.947 258.139 521.082 258.452C521.216 258.765 521.447 259.027 521.743 259.198L522.87 256.477C521.562 255.348 521.212 254.58 521.653 253.53C521.767 253.262 521.934 253.019 522.145 252.817C522.355 252.614 522.604 252.455 522.875 252.351C523.147 252.245 523.438 252.195 523.73 252.204C524.021 252.213 524.308 252.28 524.574 252.402L524.9 251.634L525.544 251.905L525.206 252.683C525.707 252.899 526.113 253.289 526.349 253.78C526.586 254.272 526.636 254.833 526.491 255.359L525.521 254.953C525.581 254.669 525.55 254.373 525.435 254.106C525.32 253.839 525.125 253.615 524.878 253.463L523.841 255.912C525.352 257.143 525.544 258.068 525.115 259.074C524.994 259.358 524.815 259.613 524.593 259.825C524.369 260.037 524.104 260.201 523.814 260.308C523.524 260.413 523.216 260.459 522.908 260.44C522.6 260.422 522.299 260.341 522.024 260.202L521.584 261.23L520.975 261.016ZM523.31 255.495L524.281 253.237C524.138 253.165 523.982 253.125 523.823 253.117C523.664 253.11 523.506 253.137 523.357 253.195C523.209 253.254 523.075 253.343 522.963 253.457C522.853 253.572 522.767 253.709 522.712 253.858C522.487 254.388 522.599 254.851 523.31 255.495ZM523.457 256.94L522.385 259.491C522.542 259.566 522.712 259.608 522.886 259.612C523.059 259.617 523.232 259.586 523.393 259.52C523.552 259.453 523.698 259.354 523.818 259.229C523.937 259.104 524.03 258.954 524.088 258.791C524.337 258.193 524.258 257.663 523.457 256.94V256.94Z" fill="#70A9A1"/>
</g>
<path d="M521.667 260.729L522.085 259.798C521.541 259.589 521.099 259.201 520.845 258.709C520.591 258.215 520.542 257.652 520.709 257.127L521.677 257.505C521.605 257.807 521.636 258.123 521.769 258.405C521.902 258.689 522.129 258.926 522.415 259.081L523.518 256.616C522.239 255.592 521.909 254.896 522.338 253.944C522.45 253.702 522.612 253.482 522.817 253.299C523.02 253.115 523.262 252.971 523.526 252.876C523.791 252.78 524.074 252.736 524.359 252.743C524.642 252.751 524.922 252.812 525.179 252.921L525.499 252.226L526.127 252.471L525.808 253.177C526.295 253.374 526.689 253.728 526.918 254.174C527.147 254.62 527.194 255.126 527.052 255.602L526.116 255.234C526.175 254.976 526.147 254.708 526.035 254.465C525.922 254.224 525.73 254.019 525.488 253.884L524.475 256.104C525.951 257.219 526.127 258.058 525.72 258.968C525.601 259.227 525.427 259.461 525.208 259.653C524.989 259.847 524.729 259.997 524.445 260.092C524.161 260.188 523.859 260.229 523.557 260.212C523.255 260.195 522.96 260.12 522.692 259.992L522.273 260.923L521.667 260.729V260.729ZM523.947 255.725L524.894 253.678C524.754 253.614 524.601 253.577 524.446 253.572C524.289 253.565 524.134 253.59 523.989 253.644C523.845 253.699 523.714 253.781 523.606 253.886C523.498 253.99 523.415 254.115 523.363 254.252C523.132 254.722 523.242 255.132 523.947 255.725V255.725ZM524.089 257.035L522.988 259.337C523.14 259.406 523.308 259.446 523.477 259.451C523.647 259.456 523.816 259.428 523.974 259.367C524.131 259.308 524.273 259.217 524.389 259.103C524.507 258.988 524.596 258.852 524.651 258.703C524.949 258.161 524.861 257.69 524.089 257.035Z" fill="white"/>
<path d="M394.946 36.2084C390.532 29.1795 385.543 22.5277 380.032 16.3213C372.422 28.6366 356.877 32.2373 343.722 35.076C356.086 65.3775 391.594 30.8627 394.946 36.2084Z" fill="#70A9A1"/>
<g opacity="0.24">
<path opacity="0.24" d="M363.482 31.8323L364.388 33.102C365.075 32.5895 365.931 32.357 366.782 32.4514C367.634 32.5458 368.419 32.9602 368.977 33.6109L367.74 34.4927C367.4 34.1539 366.961 33.9324 366.487 33.8605C366.012 33.7886 365.527 33.8699 365.102 34.0928L367.524 37.505C369.791 36.7437 371.015 36.9292 371.934 38.2275C372.162 38.565 372.322 38.9444 372.403 39.3438C372.483 39.7434 372.484 40.1549 372.405 40.5547C372.325 40.9546 372.168 41.3348 371.942 41.6732C371.715 42.0118 371.422 42.3018 371.083 42.5267L371.747 43.4888L370.949 44.0541L370.264 43.0848C369.638 43.5378 368.866 43.7419 368.099 43.6573C367.33 43.5727 366.622 43.2056 366.11 42.6271L367.325 41.7738C367.619 42.0598 367.996 42.2467 368.402 42.3087C368.807 42.3705 369.222 42.3043 369.59 42.1192L367.444 39.0147C364.855 39.9179 363.609 39.4503 362.721 38.1985C361.626 36.639 362.013 34.9945 363.659 33.6426L362.752 32.3728L363.482 31.8323V31.8323ZM368.312 38.6995L370.33 41.5466C370.518 41.4285 370.68 41.2722 370.805 41.0877C370.929 40.9031 371.014 40.6944 371.053 40.4753C371.092 40.256 371.084 40.0309 371.031 39.8148C370.978 39.5987 370.88 39.396 370.743 39.2202C370.282 38.5407 369.651 38.3283 368.344 38.7102L368.312 38.6995V38.6995ZM366.481 37.8091L364.229 34.6686C364.022 34.799 363.845 34.9717 363.709 35.1755C363.573 35.3793 363.482 35.6095 363.44 35.8511C363.4 36.0926 363.411 36.3401 363.472 36.5772C363.534 36.8143 363.645 37.0357 363.797 37.2269C364.365 37.9425 365.064 38.2371 366.514 37.8198L366.481 37.8091Z" fill="#70A9A1"/>
</g>
<path d="M363.63 32.0499L364.509 33.3592C365.203 32.8114 366.059 32.5529 366.906 32.6358C367.752 32.7188 368.525 33.1371 369.07 33.8063L367.822 34.75C367.489 34.4054 367.058 34.1844 366.589 34.1187C366.12 34.053 365.638 34.146 365.212 34.3843L367.561 37.903C369.823 37.0629 371.048 37.2376 371.937 38.5878C372.159 38.9359 372.31 39.3295 372.382 39.7455C372.455 40.1615 372.448 40.5916 372.361 41.0107C372.274 41.4297 372.109 41.8293 371.874 42.1863C371.64 42.5432 371.342 42.8501 370.999 43.0893L371.656 44.074L370.852 44.6792L370.188 43.6795C369.555 44.1641 368.784 44.3914 368.021 44.3171C367.258 44.2429 366.559 43.8726 366.059 43.2779L367.274 42.3609C367.562 42.6557 367.933 42.8451 368.337 42.9023C368.74 42.9596 369.154 42.8818 369.523 42.6799L367.444 39.4776C364.849 40.4682 363.616 40.0029 362.755 38.712C361.694 37.1036 362.109 35.3792 363.769 33.9484L362.894 32.6279L363.63 32.0499V32.0499ZM368.314 39.1323L370.271 42.0683C370.461 41.9408 370.624 41.7737 370.751 41.578C370.878 41.3822 370.965 41.1622 371.006 40.9321C371.049 40.702 371.045 40.4671 370.995 40.2424C370.943 40.0178 370.849 39.8084 370.715 39.6279C370.236 38.9161 369.654 38.7201 368.346 39.143L368.314 39.1323V39.1323ZM366.507 38.2362L364.311 34.9947C364.104 35.1346 363.924 35.3182 363.786 35.5334C363.648 35.7485 363.555 35.9904 363.51 36.243C363.467 36.4954 363.474 36.7529 363.533 36.9982C363.591 37.2436 363.698 37.4714 363.848 37.6664C364.397 38.4144 365.078 38.7057 366.538 38.2469L366.507 38.2362V38.2362Z" fill="white"/>
<path d="M333.262 75.137C336.125 68.7085 343.027 69.2262 344.814 62.4239C338.959 62.6772 333.436 60.5189 328.608 57.374C323.779 54.2292 320.012 49.6955 315.443 46.1953C314.514 48.1869 313.276 50.0162 311.779 51.6122C310.169 53.211 308.36 54.5999 306.785 56.2345C308.279 56.4382 309.215 57.9141 310.078 59.1614C313.535 64.2008 318.842 67.447 324.321 69.77C325.597 70.3074 334.324 72.7434 333.262 75.137V75.137Z" fill="#70A9A1"/>
<g opacity="0.24">
<path opacity="0.24" d="M328.214 59.5745L327.469 60.4077C327.929 60.8002 328.225 61.3511 328.297 61.9514C328.371 62.5518 328.217 63.158 327.866 63.6501L327.058 62.9375C327.239 62.6489 327.322 62.3094 327.295 61.9697C327.268 61.6299 327.132 61.3081 326.907 61.0523L324.97 63.2708C325.85 64.7583 325.937 65.5974 325.185 66.452C324.99 66.6698 324.754 66.8463 324.491 66.9714C324.227 67.0965 323.941 67.1675 323.65 67.1803C323.358 67.1931 323.066 67.1476 322.793 67.046C322.52 66.9446 322.268 66.7895 322.057 66.5896L321.501 67.2128L320.978 66.7509L321.548 66.1206C321.141 65.7569 320.881 65.258 320.813 64.7164C320.746 64.1748 320.877 63.6271 321.182 63.1746L321.972 63.8693C321.825 64.12 321.76 64.4098 321.784 64.6994C321.808 64.9889 321.92 65.2638 322.107 65.4868L323.871 63.4963C322.83 61.8477 322.945 60.9092 323.671 60.0937C323.876 59.8635 324.126 59.6777 324.406 59.548C324.686 59.4183 324.989 59.3473 325.298 59.3395C325.606 59.3316 325.913 59.3871 326.199 59.5024C326.484 59.6178 326.743 59.7905 326.961 60.01L327.705 59.1768L328.214 59.5745V59.5745ZM324.24 64.0613L322.601 65.8916C322.712 66.005 322.847 66.0935 322.996 66.1511C323.144 66.2087 323.303 66.2341 323.462 66.2259C323.622 66.2175 323.777 66.1755 323.918 66.1028C324.061 66.03 324.185 65.9279 324.285 65.8034C324.667 65.3725 324.709 64.8979 324.24 64.0613V64.0613ZM324.562 62.645L326.391 60.569C326.267 60.448 326.118 60.3545 325.955 60.2944C325.792 60.2344 325.619 60.2092 325.445 60.2205C325.273 60.2318 325.104 60.2793 324.95 60.36C324.797 60.4407 324.662 60.5526 324.554 60.6888C324.128 61.1767 324.034 61.7047 324.562 62.645V62.645Z" fill="#70A9A1"/>
</g>
<path d="M327.467 59.6252L326.772 60.3741C327.222 60.745 327.518 61.254 327.602 61.8026C327.685 62.3513 327.552 62.9006 327.226 63.3445L326.428 62.6764C326.594 62.4141 326.664 62.1051 326.629 61.7942C326.593 61.4833 326.454 61.1867 326.231 60.9475L324.401 62.9332C325.286 64.3107 325.377 65.0755 324.666 65.8403C324.484 66.0352 324.26 66.1916 324.007 66.3005C323.755 66.4095 323.48 66.4686 323.2 66.4745C322.918 66.4804 322.636 66.4329 322.368 66.3348C322.102 66.2367 321.857 66.0901 321.647 65.9035L321.123 66.461L320.606 66.028L321.134 65.4607C320.735 65.1188 320.474 64.6576 320.399 64.1622C320.324 63.6669 320.441 63.1708 320.728 62.7653L321.498 63.4131C321.359 63.6385 321.3 63.9022 321.329 64.1675C321.359 64.4328 321.475 64.6866 321.662 64.8935L323.33 63.1124C322.287 61.5845 322.388 60.7331 323.064 60C323.259 59.7927 323.498 59.6272 323.767 59.5139C324.037 59.4008 324.331 59.3422 324.631 59.3418C324.93 59.3415 325.23 59.3995 325.511 59.5121C325.791 59.6248 326.046 59.7897 326.261 59.9965L326.954 59.2477L327.467 59.6252V59.6252ZM323.711 63.6399L322.16 65.2772C322.272 65.3833 322.404 65.4667 322.551 65.522C322.697 65.5774 322.852 65.6032 323.006 65.5981C323.161 65.5929 323.311 65.5568 323.447 65.492C323.582 65.4273 323.701 65.3355 323.793 65.2226C324.163 64.8504 324.189 64.4272 323.711 63.6399V63.6399ZM323.992 62.3529L325.77 60.5224C325.648 60.4077 325.502 60.3178 325.343 60.2587C325.183 60.1994 325.015 60.1722 324.847 60.179C324.678 60.1856 324.515 60.2259 324.368 60.2974C324.22 60.3687 324.092 60.4695 323.992 60.593C323.537 61.0121 323.471 61.4863 323.992 62.3529V62.3529Z" fill="white"/>
<g opacity="0.24">
<path opacity="0.24" d="M495.528 97.6983L497.999 96.9307C497.254 93.5442 498.597 91.0828 501.122 89.9989L501.856 92.3929C501.151 92.756 500.58 93.3354 500.228 94.0465C499.875 94.7564 499.757 95.562 499.893 96.3437L506.47 94.3117C506.47 90.3609 507.361 88.5203 509.853 87.7419C512.594 86.8948 515.076 88.441 516.158 91.297L518.009 90.7219L518.494 92.2678L516.621 92.8549C517.377 96.5807 515.403 98.4996 513.779 99.154L513.045 96.8177C513.645 96.5013 514.131 96.0034 514.436 95.3967C514.739 94.789 514.844 94.1019 514.738 93.4311L508.815 95.2706C508.918 99.7868 507.542 101.536 505.128 102.293C502.116 103.23 499.725 101.762 498.439 98.4887L495.969 99.2562L495.528 97.6983V97.6983ZM508.838 93.567L514.354 91.8623C514.264 91.5035 514.1 91.1665 513.873 90.8752C513.644 90.5838 513.358 90.3435 513.032 90.1685C512.706 89.9945 512.348 89.8902 511.978 89.863C511.61 89.8358 511.239 89.8858 510.891 90.0108C509.56 90.4283 508.906 91.3089 508.838 93.567V93.567ZM506.492 95.9936L500.344 97.9016C501.122 99.7194 502.387 100.43 504.146 99.877C505.59 99.4367 506.401 98.4995 506.492 95.9936V95.9936Z" fill="#70A9A1"/>
</g>
<path d="M495.613 98.368L498.069 97.5929C497.328 94.1693 498.662 91.6829 501.174 90.599L501.914 93.018C501.21 93.3789 500.64 93.9617 500.289 94.6792C499.937 95.3968 499.823 96.21 499.963 96.9993L506.487 94.9347C506.487 90.9415 507.373 89.0933 509.85 88.2942C512.575 87.4386 515.041 89.0128 516.128 91.8884L517.955 91.3057L518.438 92.881L516.577 93.4627C517.339 97.2276 515.377 99.1671 513.752 99.8401L513.035 97.4787C513.627 97.1547 514.108 96.6514 514.409 96.0382C514.71 95.4261 514.817 94.7336 514.716 94.0563L508.831 95.9045C508.92 100.467 507.563 102.247 505.154 103C502.161 103.947 499.784 102.465 498.516 99.1671L496.05 99.9433L495.613 98.368ZM508.852 94.2498L514.335 92.5266C514.246 92.1646 514.081 91.8243 513.855 91.5297C513.629 91.235 513.346 90.9915 513.021 90.8154C512.697 90.6393 512.34 90.5338 511.974 90.5066C511.607 90.4794 511.239 90.5295 510.893 90.6556C509.57 91.0209 508.931 91.9678 508.852 94.2498ZM506.521 96.7025L500.423 98.6311C501.185 100.467 502.44 101.186 504.201 100.639C505.624 100.126 506.431 99.178 506.521 96.6459V96.7025Z" fill="white"/>
<g opacity="0.24">
<path opacity="0.24" d="M62.5802 309.422L62.8845 307.942C62.0791 307.789 61.3596 307.339 60.8695 306.68C60.3786 306.023 60.1521 305.204 60.2343 304.387L61.6672 304.681C61.6509 305.143 61.7835 305.6 62.0454 305.981C62.3074 306.363 62.6845 306.651 63.1215 306.803L63.9453 302.863C61.915 301.734 61.2379 300.775 61.5542 299.251C61.639 298.865 61.7998 298.498 62.0281 298.175C62.2552 297.852 62.5454 297.577 62.8802 297.366C63.2149 297.157 63.5888 297.015 63.979 296.951C64.3692 296.887 64.7681 296.901 65.1517 296.992L65.3778 295.864L66.3136 296.056L66.0767 297.185C66.8092 297.329 67.4613 297.741 67.9069 298.339C68.3526 298.938 68.5612 299.681 68.4906 300.425L67.0929 300.131C67.0983 299.734 66.9809 299.345 66.757 299.018C66.5331 298.69 66.2125 298.441 65.8408 298.302L65.1072 301.859C67.4418 303.089 67.9493 304.285 67.645 305.73C67.2733 307.537 65.8517 308.349 63.8094 308.078L63.5051 309.557L62.5802 309.422V309.422ZM64.2388 301.441L64.9267 298.133C64.717 298.08 64.4996 298.071 64.2866 298.107C64.0735 298.142 63.8703 298.221 63.6888 298.338C63.5084 298.456 63.353 298.61 63.2345 298.79C63.1149 298.97 63.0345 299.173 62.9975 299.386C62.7943 300.188 63.0997 300.764 64.2388 301.441V301.441ZM64.8137 303.326L64.0464 307.006C64.2779 307.075 64.5213 307.093 64.7594 307.06C64.9985 307.025 65.2267 306.94 65.43 306.809C65.6321 306.678 65.8039 306.505 65.9332 306.301C66.0625 306.098 66.1462 305.868 66.1788 305.629C66.3136 304.759 66.0658 304.082 64.8137 303.326V303.326Z" fill="#70A9A1"/>
</g>
<path d="M63.0336 309.695L63.3129 308.158C62.5728 307.999 61.9131 307.535 61.462 306.856C61.012 306.177 60.8039 305.333 60.8794 304.491L62.1946 304.794C62.1772 305.271 62.2967 305.743 62.538 306.138C62.7793 306.532 63.1271 306.829 63.5303 306.983L64.2868 302.919C62.4228 301.755 61.8011 300.765 62.0913 299.206C62.1674 298.806 62.3152 298.429 62.5239 298.094C62.7326 297.76 62.9988 297.475 63.3064 297.259C63.614 297.041 63.9575 296.896 64.3161 296.83C64.6748 296.765 65.0411 296.78 65.3943 296.877L65.6019 295.713L66.4616 295.911L66.2442 297.075C66.9159 297.224 67.5148 297.649 67.9235 298.267C68.3332 298.883 68.5245 299.649 68.4604 300.416L67.1757 300.114C67.1811 299.706 67.0724 299.306 66.867 298.97C66.6605 298.635 66.3671 298.379 66.0269 298.239L65.353 301.895C67.4974 303.175 67.9626 304.397 67.6833 305.9C67.342 307.762 66.0269 308.588 64.1618 308.309L63.8825 309.846L63.0336 309.695V309.695ZM64.5563 301.464L65.1878 298.052C64.9965 297.995 64.7954 297.982 64.5998 298.017C64.4031 298.05 64.2161 298.131 64.0488 298.251C63.8825 298.372 63.7401 298.531 63.6303 298.717C63.5216 298.904 63.4488 299.114 63.4162 299.333C63.2608 300.16 63.5097 300.765 64.5563 301.464V301.464ZM65.0835 303.408L64.3803 307.203C64.59 307.265 64.8096 307.276 65.0237 307.236C65.2378 307.195 65.4421 307.104 65.6226 306.969C65.803 306.834 65.9573 306.657 66.0725 306.451C66.1888 306.244 66.2649 306.013 66.2953 305.771C66.4616 304.886 66.2334 304.177 65.0835 303.408Z" fill="#70A9A1"/>
<path d="M276.447 57.565C286.403 63.9618 293.002 74.2985 302.151 81.7708L294.075 103.282L288.78 97.6211C284.245 92.8212 279.653 87.9756 274.151 84.2616C268.648 80.548 262.072 78.0912 255.415 78.5215C255.415 78.5215 258.783 58.5614 260.457 56.5914C265.36 50.806 270.17 53.5345 276.447 57.565V57.565Z" fill="#70A9A1"/>
<path d="M263.602 58.4533L261.936 70.7621C263.059 71.0122 264.075 71.6135 264.834 72.479C265.593 73.3446 266.057 74.4294 266.158 75.576C266.158 75.576 282.705 81.0403 288.822 92.7669C288.822 92.7669 292.976 91.6264 294.528 93.4974L297.802 85.5121C297.802 85.5121 295.623 82.7515 296.205 80.4928C296.205 80.4928 280.388 59.4115 270.483 57.6205C268.314 58.5461 265.928 58.835 263.602 58.4533V58.4533Z" fill="white"/>
<g opacity="0.24">
<path opacity="0.24" d="M303.557 40.0784L304.645 35.696C299.026 33.8 296.534 29.5635 297.192 24.8532L301.396 25.8973C301.286 27.276 301.622 28.6532 302.354 29.8258C303.086 30.9986 304.175 31.904 305.462 32.4092L308.346 20.7958C302.462 17.2986 300.571 14.2931 301.679 9.83411C302.879 5.00252 307.408 2.7193 312.603 3.66058L313.419 0.373788L316.145 1.05082L315.328 4.33761C321.534 6.54204 322.571 11.1617 322.127 14.1687L318.011 13.1463C318.072 11.976 317.769 10.8159 317.142 9.82642C316.515 8.8371 315.596 8.06736 314.512 7.62441L311.921 18.0546C318.712 21.9746 320.051 25.5642 318.995 29.8152C317.675 35.1289 313.366 37.362 307.382 36.3292L306.293 40.7115L303.557 40.0784V40.0784ZM309.38 16.6325L311.792 6.92554C308.283 6.35654 306.526 8.0953 305.955 10.3961C305.383 12.6968 306.111 14.4943 309.38 16.6325ZM310.871 22.2836L308.187 33.0862C311.556 33.5624 313.754 32.3402 314.527 29.2287C315.161 26.6759 314.498 24.6619 310.871 22.2836V22.2836Z" fill="#70A9A1"/>
</g>
<path d="M219.3 57.0572L217.962 52.6981C212.315 53.9075 208.066 51.5155 206.202 47.0911L210.243 45.8502C210.86 47.0923 211.845 48.1043 213.05 48.7372C214.256 49.3698 215.62 49.5893 216.937 49.3635L213.414 37.8884C206.731 37.8537 203.619 36.2097 202.257 31.7743C200.781 26.9686 203.369 22.6799 208.176 20.8339L207.172 17.5646L209.785 16.7622L210.789 20.0314C217.067 18.7832 220.295 22.2638 221.465 25.1004L217.498 26.3189C216.951 25.2715 216.104 24.4194 215.076 23.8802C214.049 23.341 212.89 23.1418 211.762 23.3102L214.958 33.7174C222.612 33.6566 225.563 36.0892 226.862 40.3175C228.485 45.6028 226.045 49.7387 220.54 51.8943L221.879 56.2534L219.3 57.0572V57.0572ZM212.142 33.7474L209.173 24.0813C205.958 25.3908 205.398 27.7927 206.101 30.0812C206.804 32.3696 208.318 33.5621 212.142 33.7474ZM216.274 37.8924L219.577 48.6482C222.623 47.3433 223.81 45.154 222.863 42.07C222.087 39.5418 220.499 38.1096 216.274 37.8924Z" fill="white"/>
<g opacity="0.24">
<path opacity="0.24" d="M279.955 81.1142L280.259 79.6353C279.454 79.4814 278.734 79.0311 278.244 78.3728C277.753 77.7146 277.527 76.8964 277.609 76.0794L279.042 76.3728C279.026 76.8359 279.158 77.2917 279.42 77.6736C279.682 78.0556 280.059 78.3435 280.496 78.4952L281.32 74.5554C279.29 73.4265 278.613 72.4669 278.929 70.9429C279.014 70.5565 279.175 70.191 279.403 69.8676C279.63 69.5442 279.92 69.2694 280.255 69.0592C280.59 68.849 280.964 68.7078 281.354 68.6435C281.744 68.5793 282.143 68.5934 282.526 68.6852L282.753 67.5562L283.688 67.7481L283.451 68.8771C284.184 69.022 284.836 69.4336 285.282 70.0322C285.727 70.6307 285.936 71.3735 285.865 72.117L284.468 71.8234C284.473 71.4265 284.356 71.0374 284.132 70.7098C283.908 70.3823 283.587 70.1324 283.216 69.9947L282.482 73.5506C284.817 74.7811 285.324 75.9778 285.02 77.4227C284.648 79.229 283.226 80.0417 281.184 79.7708L280.88 81.2497L279.955 81.1142V81.1142ZM281.614 73.1329L282.302 69.8253C282.092 69.7723 281.874 69.7633 281.661 69.7986C281.448 69.8339 281.245 69.9128 281.064 70.0304C280.883 70.1481 280.728 70.3019 280.609 70.4823C280.49 70.6625 280.409 70.8655 280.372 71.0784C280.169 71.8798 280.474 72.4556 281.614 73.1329V73.1329ZM282.188 75.0182L281.421 78.6984C281.653 78.7675 281.896 78.7855 282.134 78.7515C282.373 78.7174 282.601 78.632 282.805 78.5012C283.007 78.3703 283.179 78.197 283.308 77.9933C283.437 77.7896 283.521 77.5603 283.554 77.3212C283.688 76.4519 283.441 75.7746 282.188 75.0182V75.0182Z" fill="#70A9A1"/>
</g>
<path d="M280.408 81.3871L280.688 79.8504C279.948 79.6917 279.288 79.2271 278.837 78.5484C278.387 77.8696 278.179 77.0258 278.254 76.1831L279.569 76.4858C279.552 76.964 279.672 77.4359 279.913 77.8305C280.154 78.2252 280.502 78.5213 280.905 78.6745L281.662 74.6115C279.798 73.4473 279.176 72.4577 279.466 70.8977C279.542 70.4985 279.69 70.1206 279.899 69.7862C280.107 69.4518 280.374 69.1679 280.681 68.9509C280.989 68.7339 281.332 68.5884 281.691 68.5228C282.05 68.4573 282.416 68.4731 282.769 68.5693L282.977 67.4051L283.836 67.6031L283.619 68.7672C284.291 68.9167 284.89 69.3412 285.298 69.9585C285.708 70.5758 285.899 71.3419 285.835 72.1085L284.551 71.8058C284.556 71.3979 284.447 70.9985 284.242 70.6627C284.035 70.3269 283.742 70.0714 283.402 69.9314L282.728 73.587C284.872 74.8676 285.337 76.0901 285.058 77.5918C284.717 79.4545 283.402 80.2811 281.537 80.0017L281.257 81.5385L280.408 81.3871V81.3871ZM281.931 73.1562L282.563 69.7452C282.371 69.6869 282.17 69.6744 281.975 69.7084C281.778 69.7426 281.591 69.8226 281.424 69.9433C281.257 70.0639 281.115 70.2227 281.005 70.4091C280.896 70.5956 280.824 70.8057 280.791 71.0258C280.636 71.8523 280.885 72.4577 281.931 73.1562V73.1562ZM282.458 75.1005L281.755 78.8957C281.965 78.9572 282.184 78.968 282.399 78.9277C282.613 78.8874 282.817 78.7966 282.997 78.6615C283.178 78.5263 283.332 78.3498 283.447 78.1434C283.564 77.937 283.64 77.7054 283.67 77.4638C283.836 76.579 283.608 75.8688 282.458 75.1005V75.1005Z" fill="#70A9A1"/>
<g opacity="0.24">
<path opacity="0.24" d="M98.9463 202.584V196.329C90.7013 195.641 85.8843 190.753 85.1963 184.149H91.2426C91.5806 186.035 92.5088 187.765 93.8934 189.088C95.2792 190.411 97.0486 191.259 98.9463 191.509V174.87C89.7992 172.115 86.2234 168.672 86.2234 162.282C86.2234 155.329 91.5925 150.722 98.9463 150.237V145.564H102.86V150.305C112.008 151.196 114.964 157.078 115.37 161.379H109.46C109.15 159.771 108.348 158.299 107.166 157.166C105.984 156.034 104.48 155.297 102.86 155.057V170.049C113.384 173.075 116.396 177.477 116.396 183.595C116.396 191.238 111.309 195.709 102.86 196.329V202.584H98.9463V202.584ZM98.9463 168.886V154.922C93.9945 155.329 92.1784 158.309 92.1784 161.594C92.1784 164.878 93.7913 167.091 98.9463 168.886ZM102.86 176.032V191.577C107.61 191.103 110.148 188.687 110.148 184.216C110.169 180.571 108.568 178.03 102.86 176.032V176.032Z" fill="#70A9A1"/>
</g>
<path d="M100.841 202.193V195.929C92.5097 195.234 87.6448 190.294 86.9492 183.62H93.0683C93.3976 185.53 94.3302 187.284 95.729 188.622C97.1278 189.962 98.92 190.815 100.841 191.059V174.187C91.6097 171.403 87.998 167.924 87.998 161.467C87.998 154.439 93.4107 149.785 100.841 149.295V144.595H104.795V149.386C114.036 150.287 117.021 156.231 117.432 160.578H111.46C111.147 158.952 110.338 157.465 109.144 156.32C107.95 155.175 106.429 154.431 104.795 154.189V169.338C115.426 172.395 118.469 176.845 118.469 183.028C118.469 190.751 113.33 195.268 104.795 195.896V202.215L100.841 202.193V202.193ZM100.841 168.14V154.029C95.8377 154.439 94.003 157.452 94.003 160.771C94.003 164.09 95.6322 166.327 100.841 168.14V168.14ZM104.795 175.396V191.104C109.592 190.625 112.156 188.184 112.156 183.666C112.156 179.959 110.56 177.381 104.795 175.396Z" fill="white"/>
<path d="M421.827 109.675C395.719 151.628 340.419 233.272 334.557 282.356C333.122 294.573 332.919 306.926 332.467 319.223C332.297 322.466 332.343 327.914 330.659 330.66C327.79 335.294 321.52 334.481 316.154 335.012C297.05 336.944 276.794 337.147 257.408 336.978C243.14 336.9 229.369 336.605 216.908 336.651C216.129 322.263 214.739 306.136 213.96 291.748C213.26 278.876 212.525 265.833 208.831 253.491C205.679 243.116 200.516 233.476 195.353 223.96C175.305 187.342 154.398 151.217 132.632 115.586C131.197 113.246 124.272 104.555 125.051 101.922C125.144 101.67 125.253 101.424 125.379 101.187C126.027 100.026 126.889 98.9986 127.921 98.1582C131.299 95.2532 135.067 92.8375 139.116 90.9817C139.986 90.511 140.963 90.274 141.952 90.2924C143.341 90.4512 149.86 97.4689 150.843 98.4865L206.899 155.482C218.998 167.789 232.724 171.678 249.286 176.638C256.753 178.899 264.616 179.385 272.412 179.476C290.689 179.634 313.081 179.758 326.762 166.433C343.029 150.52 389.223 107.381 404.317 90.2359L420.46 99.752C421.604 100.289 422.591 101.11 423.329 102.137C424.697 104.465 423.262 107.381 421.827 109.675Z" fill="#FF789D"/>
<path d="M268.931 196.285C271.039 198.026 273.601 199.13 276.315 199.464C279.029 199.797 281.782 199.348 284.249 198.17C286.255 197.358 287.952 195.931 289.099 194.094C290.039 192.155 290.562 190.04 290.634 187.885L291.378 180.706C291.924 176.821 292.044 172.888 291.739 168.977C291.299 165.172 289.9 161.526 287.227 159.46C283.719 156.728 278.597 157.292 274.312 159.64C260.483 167.283 258.306 187.095 268.931 196.285V196.285Z" fill="url(#paint19_linear)"/>
<path opacity="0.26" d="M289.821 166.967C289.821 166.967 279.456 192.932 264.183 187.728C264.183 187.728 260.156 186.858 263.901 170.422C267.646 153.985 289.821 166.967 289.821 166.967Z" fill="#C4C4C4" fill-opacity="0.61"/>
<path d="M246.529 146.771C247.714 156.999 252.328 167.566 261.294 172.385C269.608 176.901 280.075 175.445 288.444 171.02C291.965 169.297 295.034 166.777 297.412 163.66C299.436 160.554 300.894 157.114 301.721 153.499C303.402 147.392 304.62 141.081 304.078 134.76C303.641 129.464 301.961 124.344 299.174 119.82C296.386 115.296 292.572 111.495 288.04 108.724C283.508 105.954 278.386 104.294 273.092 103.879C267.798 103.464 262.48 104.305 257.573 106.335C250.478 109.246 247.274 113.683 246.913 121.202C246.507 129.714 245.526 138.26 246.529 146.771V146.771Z" fill="url(#paint20_linear)"/>
<path d="M242.762 122.249C242.762 119.067 243.276 115.828 242.472 112.757C241.712 109.9 239.835 107.457 238.83 104.677C237.98 102.242 237.798 99.6215 238.306 97.0917C238.813 94.5618 239.989 92.2157 241.712 90.299C243.803 88.1159 246.438 86.5334 249.344 85.7157C253.045 84.5985 256.978 84.5017 260.729 85.4356C263.087 86.0295 265.321 87.0157 267.691 87.531C271.042 88.2485 274.562 87.9789 278.003 87.9572C283.466 87.9572 289.054 88.5399 294.004 90.8599C298.953 93.1789 303.221 97.3819 304.629 102.682C304.866 104.154 305.321 105.583 305.981 106.919C306.867 108.024 307.839 109.058 308.886 110.012C311.121 112.556 311.468 116.186 311.724 119.548C312.113 122.204 311.953 124.913 311.255 127.504C310.429 129.903 308.719 131.864 307.411 134.027C305.756 137.023 304.463 140.205 303.556 143.508C302.919 142.253 303.132 140.763 302.987 139.361C302.841 137.961 301.992 136.369 300.585 136.369C300.04 136.439 299.526 136.663 299.102 137.014C298.679 137.365 298.364 137.829 298.194 138.352C297.875 139.409 297.437 140.423 296.886 141.379C296.776 141.573 296.612 141.73 296.413 141.83C296.213 141.93 295.989 141.967 295.769 141.939C295.388 141.827 295.21 141.401 295.087 141.031C294.093 137.67 295.233 134.06 295.388 130.542C295.491 127.91 295.037 125.285 294.059 122.841C293.081 120.396 291.6 118.186 289.713 116.354C285.984 113.014 281.324 110.903 276.361 110.303C271.424 109.726 266.437 109.726 261.5 110.303C258.606 110.55 255.578 110.886 253.187 112.544C250.494 114.393 249.042 117.587 248.259 120.758C247.645 123.292 247.836 128.446 246.025 130.251C243.445 128.76 242.808 124.86 242.762 122.249V122.249Z" fill="#756029"/>
<path d="M41.7322 223.128C41.7322 223.128 42.0113 228.521 40.2139 229.289L49.0336 240.267C49.0336 240.267 52.7402 237.373 55.1182 238.82C55.1182 238.82 62.5317 228.521 68.0465 223.321C73.5613 218.121 77.1675 215.147 77.1675 215.147C77.1675 215.147 70.2344 206.67 67.477 204.974C64.7196 203.278 62.8328 202.215 62.8328 202.215C62.8328 202.215 56.7481 202.917 41.7322 223.128V223.128Z" fill="white"/>
<path d="M59.5989 241.315C59.5989 241.315 73.2654 220.706 75.35 221.829C77.4346 222.951 74.4913 232.413 73.5436 234.108C72.5969 235.803 65.0942 241.315 65.0942 241.315L57.6035 244.615L59.5989 241.315V241.315Z" fill="url(#paint21_linear)"/>
<path d="M246.049 337.026L216.862 336.743C216.082 322.353 214.693 306.224 213.914 291.834C213.214 278.959 212.48 265.915 208.788 253.572C205.637 243.194 200.478 233.552 195.318 224.035C175.279 187.411 154.383 151.282 132.628 115.645C131.194 113.306 124.272 104.613 125.051 101.98C125.144 101.727 125.253 101.482 125.378 101.245L132.244 95.6718L136.5 104.895C136.5 104.895 198.773 193.447 214.14 205.012C229.507 216.575 240.291 244.258 239.512 250.418C238.812 255.922 253.714 322.478 257 336.743C257.418 338.462 246.049 337.026 246.049 337.026Z" fill="url(#paint22_linear)" fill-opacity="0.3"/>
<g opacity="0.24">
<path opacity="0.24" d="M68.841 219.212L67.7128 217.846C66.9781 218.472 66.0369 218.8 65.0728 218.767C64.1088 218.733 63.1914 218.34 62.5024 217.665L63.8218 216.537C64.2338 216.892 64.7478 217.106 65.2902 217.147C65.8325 217.187 66.3738 217.053 66.8336 216.763L63.8327 213.117C61.3405 214.178 59.9302 214.065 58.7797 212.676C58.4934 212.313 58.2818 211.898 58.1568 211.453C58.032 211.008 57.9962 210.543 58.0518 210.084C58.1074 209.626 58.2531 209.183 58.4807 208.781C58.7082 208.379 59.0131 208.026 59.3775 207.743L58.5428 206.715L59.4114 206.072L60.2686 207.111C60.9373 206.543 61.7926 206.247 62.6676 206.276C63.5436 206.304 64.3772 206.659 65.0065 207.269L63.6979 208.33C63.3382 208.034 62.8958 207.856 62.4306 207.822C61.9665 207.787 61.5024 207.898 61.1036 208.137L63.8218 211.412C66.664 210.17 68.1193 210.588 69.2247 211.93C70.6007 213.591 70.3528 215.487 68.5595 217.158L69.6877 218.523L68.841 219.212V219.212ZM62.7947 211.852L60.2686 208.793C60.0661 208.944 59.8974 209.136 59.7733 209.357C59.6492 209.577 59.5726 209.821 59.5481 210.072C59.5237 210.325 59.5522 210.579 59.6315 210.819C59.711 211.06 59.8395 211.28 60.0092 211.468C60.5394 212.213 61.3068 212.394 62.7947 211.852V211.852ZM64.938 212.698L67.7465 216.086C67.9704 215.92 68.1563 215.711 68.2921 215.469C68.4291 215.228 68.5128 214.96 68.5389 214.684C68.5639 214.408 68.5312 214.13 68.441 213.867C68.3508 213.605 68.2074 213.364 68.0182 213.161C67.3074 212.371 66.5064 212.1 64.8935 212.698H64.938V212.698Z" fill="#70A9A1"/>
</g>
<path d="M69.394 218.523L68.2777 217.173C67.5517 217.792 66.6203 218.119 65.6671 218.088C64.7128 218.057 63.8042 217.671 63.1205 217.005L64.4378 215.889C64.8465 216.239 65.3562 216.449 65.8931 216.487C66.4301 216.525 66.9637 216.39 67.418 216.101L64.4378 212.508C61.9706 213.546 60.5862 213.445 59.4364 212.061C59.1523 211.703 58.9423 211.291 58.8187 210.851C58.6951 210.411 58.6603 209.951 58.7165 209.496C58.7726 209.043 58.9185 208.605 59.1455 208.208C59.3726 207.811 59.6763 207.463 60.0393 207.185L59.2019 206.18L60.0503 205.477L60.899 206.503C61.5576 205.943 62.401 205.647 63.2651 205.674C64.1302 205.701 64.9541 206.048 65.5758 206.649L64.3041 207.764C63.9476 207.476 63.5107 207.304 63.0532 207.272C62.5967 207.24 62.1402 207.35 61.7467 207.586L64.427 210.823C67.2398 209.595 68.6799 209.996 69.7733 211.325C71.1351 212.976 70.8906 214.852 69.1266 216.492L70.2428 217.853L69.394 218.523V218.523ZM63.3662 211.247L60.8541 208.211C60.6537 208.361 60.4867 208.55 60.3639 208.769C60.2412 208.986 60.1652 209.228 60.1411 209.477C60.117 209.726 60.145 209.977 60.2236 210.215C60.3022 210.452 60.4294 210.67 60.5974 210.856C61.2109 211.56 61.9706 211.783 63.3662 211.247V211.247ZM65.4986 212.095L68.2777 215.443C68.4973 215.278 68.6788 215.068 68.8114 214.828C68.9451 214.587 69.0255 214.322 69.0505 214.049C69.0744 213.775 69.0407 213.5 68.9527 213.24C68.8636 212.981 68.7212 212.743 68.5342 212.541C67.8756 211.772 67.0833 211.56 65.4986 212.095Z" fill="#70A9A1"/>
</g>
<defs>
<linearGradient id="paint0_linear" x1="3038.29" y1="24065.1" x2="-22386.9" y2="24287.3" gradientUnits="userSpaceOnUse">
<stop stop-color="#010101" stop-opacity="0"/>
<stop offset="0.95" stop-color="#010101"/>
</linearGradient>
<linearGradient id="paint1_linear" x1="8066.43" y1="6284.85" x2="8472.36" y2="13834.6" gradientUnits="userSpaceOnUse">
<stop stop-color="#010101" stop-opacity="0.6"/>
<stop offset="0.95" stop-color="#010101"/>
</linearGradient>
<linearGradient id="paint2_linear" x1="269.749" y1="386.386" x2="269.752" y2="359.147" gradientUnits="userSpaceOnUse">
<stop stop-color="white" stop-opacity="0"/>
<stop offset="0.95" stop-color="white"/>
</linearGradient>
<linearGradient id="paint3_linear" x1="2881.3" y1="3958.13" x2="3909.61" y2="3958.13" gradientUnits="userSpaceOnUse">
<stop stop-color="#010101" stop-opacity="0.49"/>
<stop offset="0.95" stop-color="#010101"/>
</linearGradient>
<linearGradient id="paint4_linear" x1="98.3336" y1="52.0742" x2="98.3336" y2="63.6239" gradientUnits="userSpaceOnUse">
<stop stop-color="#F8F0DC"/>
<stop offset="1" stop-color="#E7D5A9"/>
</linearGradient>
<linearGradient id="paint5_linear" x1="97.2162" y1="58.8606" x2="97.2162" y2="70.4176" gradientUnits="userSpaceOnUse">
<stop stop-color="#F8F0DC"/>
<stop offset="1" stop-color="#E7D5A9"/>
</linearGradient>
<linearGradient id="paint6_linear" x1="95.9496" y1="64.8943" x2="95.9496" y2="76.4459" gradientUnits="userSpaceOnUse">
<stop stop-color="#F8F0DC"/>
<stop offset="1" stop-color="#E7D5A9"/>
</linearGradient>
<linearGradient id="paint7_linear" x1="94.5719" y1="70.8998" x2="94.5719" y2="82.4658" gradientUnits="userSpaceOnUse">
<stop stop-color="#F8F0DC"/>
<stop offset="1" stop-color="#E7D5A9"/>
</linearGradient>
<linearGradient id="paint8_linear" x1="121.503" y1="50.0309" x2="121.503" y2="99.8226" gradientUnits="userSpaceOnUse">
<stop stop-color="#F8F0DC"/>
<stop offset="1" stop-color="#E7D5A9"/>
</linearGradient>
<linearGradient id="paint9_linear" x1="17020.9" y1="6401.64" x2="18717.7" y2="6401.64" gradientUnits="userSpaceOnUse">
<stop stop-color="#010101" stop-opacity="0.51"/>
<stop offset="0.95" stop-color="#010101"/>
</linearGradient>
<linearGradient id="paint10_linear" x1="449.623" y1="47.9431" x2="449.623" y2="58.1256" gradientUnits="userSpaceOnUse">
<stop stop-color="#F8F0DC"/>
<stop offset="1" stop-color="#E7D5A9"/>
</linearGradient>
<linearGradient id="paint11_linear" x1="450.54" y1="53.9263" x2="450.54" y2="64.1087" gradientUnits="userSpaceOnUse">
<stop stop-color="#F8F0DC"/>
<stop offset="1" stop-color="#E7D5A9"/>
</linearGradient>
<linearGradient id="paint12_linear" x1="451.665" y1="59.2371" x2="451.665" y2="69.4137" gradientUnits="userSpaceOnUse">
<stop stop-color="#F8F0DC"/>
<stop offset="1" stop-color="#E7D5A9"/>
</linearGradient>
<linearGradient id="paint13_linear" x1="452.917" y1="64.5266" x2="452.917" y2="74.7081" gradientUnits="userSpaceOnUse">
<stop stop-color="#F8F0DC"/>
<stop offset="1" stop-color="#E7D5A9"/>
</linearGradient>
<linearGradient id="paint14_linear" x1="429.123" y1="46.1545" x2="429.123" y2="90.0317" gradientUnits="userSpaceOnUse">
<stop stop-color="#F8F0DC"/>
<stop offset="1" stop-color="#E7D5A9"/>
</linearGradient>
<linearGradient id="paint15_linear" x1="15738.6" y1="46824.2" x2="25610.7" y2="46824.2" gradientUnits="userSpaceOnUse">
<stop stop-color="#010101" stop-opacity="0"/>
<stop offset="0.95" stop-color="#010101"/>
</linearGradient>
<linearGradient id="paint16_linear" x1="7370.02" y1="8760.37" x2="2864.25" y2="14937" gradientUnits="userSpaceOnUse">
<stop stop-color="white" stop-opacity="0.17"/>
<stop offset="0.95" stop-color="white"/>
</linearGradient>
<linearGradient id="paint17_linear" x1="9104.8" y1="2988.64" x2="11583.9" y2="14926.3" gradientUnits="userSpaceOnUse">
<stop stop-color="#010101" stop-opacity="0.19"/>
<stop offset="0.95" stop-color="#010101"/>
</linearGradient>
<linearGradient id="paint18_linear" x1="27232.1" y1="5125.68" x2="17747.7" y2="8473.63" gradientUnits="userSpaceOnUse">
<stop stop-color="#010101" stop-opacity="0"/>
<stop offset="0.95" stop-color="#010101"/>
</linearGradient>
<linearGradient id="paint19_linear" x1="307.5" y1="189" x2="228.5" y2="167" gradientUnits="userSpaceOnUse">
<stop stop-color="#F8F0DC"/>
<stop offset="1" stop-color="#E7D5A9"/>
</linearGradient>
<linearGradient id="paint20_linear" x1="188" y1="146" x2="340" y2="189" gradientUnits="userSpaceOnUse">
<stop stop-color="#E7D5A9"/>
<stop offset="1" stop-color="#F8EEDC"/>
</linearGradient>
<linearGradient id="paint21_linear" x1="1149.21" y1="5268.3" x2="1455.56" y2="5268.3" gradientUnits="userSpaceOnUse">
<stop stop-color="#010101" stop-opacity="0.23"/>
<stop offset="0.95" stop-color="#010101"/>
</linearGradient>
<linearGradient id="paint22_linear" x1="27128.7" y1="47659.2" x2="-10481.4" y2="49870.2" gradientUnits="userSpaceOnUse">
<stop stop-color="#010101" stop-opacity="0"/>
<stop offset="0.95" stop-color="#010101"/>
</linearGradient>
<clipPath id="clip0">
<rect width="563" height="424" fill="white"/>
</clipPath>
</defs>
</svg>
