<svg width="204" height="204" viewBox="0 0 204 204" fill="none" xmlns="http://www.w3.org/2000/svg">
<path d="M58.7518 137.772L89.5227 160.966C90.1774 161.459 91.0039 161.676 91.8209 161.57C92.6378 161.464 93.3785 161.044 93.8803 160.401L107.086 143.442C107.334 143.126 107.513 142.763 107.61 142.374C107.771 141.791 107.753 141.174 107.556 140.601C107.36 140.028 106.995 139.525 106.508 139.156L75.7272 115.962C75.3635 115.689 74.9434 115.499 74.4966 115.403C74.0499 115.308 73.5873 115.31 73.1417 115.41C72.4392 115.574 71.8143 115.968 71.3697 116.527L58.1642 133.496C57.9172 133.814 57.7364 134.177 57.6322 134.565C57.5281 134.952 57.5025 135.356 57.5571 135.753C57.6117 136.15 57.7453 136.533 57.9503 136.88C58.1553 137.226 58.4276 137.53 58.7518 137.772Z" fill="#40798C"/>
<path d="M73.1417 115.41L78.4831 140.982L107.61 142.374C107.771 141.791 107.753 141.174 107.556 140.601C107.36 140.028 106.995 139.525 106.508 139.156L75.7272 115.962C75.3635 115.689 74.9434 115.499 74.4966 115.403C74.0499 115.308 73.5873 115.31 73.1417 115.41V115.41Z" fill="url(#paint0_linear)"/>
<path d="M88.9356 141.485L87.6818 159.57L58.7527 137.773L76.5787 131.838L78.484 140.982L88.9356 141.485Z" fill="url(#paint1_linear)"/>
<path d="M60.093 167.428L94.9296 155.941C95.6702 155.696 96.2812 155.172 96.6287 154.484C96.9761 153.797 97.0315 153.002 96.7828 152.273L90.2025 133.08C90.0813 132.72 89.8848 132.389 89.6256 132.108C89.2442 131.675 88.7404 131.362 88.1781 131.21C87.6158 131.057 87.0204 131.073 86.4675 131.254L51.6254 142.749C51.2149 142.886 50.8401 143.109 50.5275 143.404C50.2148 143.699 49.972 144.058 49.8161 144.455C49.5754 145.085 49.5599 145.776 49.7722 146.417L56.3604 165.615C56.4845 165.975 56.6796 166.307 56.9344 166.593C57.1892 166.879 57.4988 167.113 57.8454 167.281C58.1921 167.449 58.569 167.549 58.9546 167.574C59.3403 167.6 59.7271 167.55 60.093 167.428Z" fill="#40798C"/>
<path d="M49.8161 144.455L73.1007 153.88L89.6255 132.108C89.2442 131.674 88.7403 131.362 88.1781 131.21C87.6158 131.057 87.0204 131.073 86.4675 131.254L51.6254 142.749C51.2149 142.886 50.8401 143.109 50.5275 143.404C50.2148 143.699 49.972 144.058 49.8161 144.455V144.455Z" fill="url(#paint2_linear)"/>
<path d="M79.0327 146.07L92.8375 156.624L60.0926 167.428L64.7766 150.506L73.1004 153.88L79.0327 146.07Z" fill="url(#paint3_linear)"/>
<path d="M120.016 141.927L162.438 161.63C163.34 162.048 164.374 162.097 165.312 161.767C166.251 161.436 167.017 160.752 167.444 159.866L178.648 136.488C178.86 136.052 178.977 135.577 178.991 135.093C179.03 134.363 178.847 133.637 178.466 133.009C178.085 132.38 177.522 131.877 176.85 131.563L134.416 111.863C133.915 111.632 133.369 111.512 132.816 111.511C132.263 111.511 131.716 111.63 131.215 111.86C130.427 112.23 129.791 112.853 129.41 113.626L118.208 137.016C117.999 137.455 117.88 137.93 117.857 138.414C117.835 138.899 117.91 139.383 118.078 139.839C118.245 140.295 118.503 140.714 118.835 141.073C119.168 141.431 119.569 141.721 120.016 141.927V141.927Z" fill="#40798C"/>
<path d="M131.215 111.86L144.184 140.766L178.991 135.093C179.03 134.363 178.847 133.637 178.466 133.008C178.085 132.38 177.522 131.877 176.85 131.563L134.416 111.863C133.915 111.632 133.369 111.512 132.816 111.511C132.263 111.511 131.716 111.63 131.215 111.86V111.86Z" fill="url(#paint4_linear)"/>
<path d="M156.674 138.735L159.895 160.441L120.015 141.927L139.551 130.428L144.183 140.766L156.674 138.735Z" fill="url(#paint5_linear)"/>
<path d="M94.7529 167.886L141.462 170.361C142.455 170.413 143.433 170.073 144.18 169.417C144.928 168.76 145.384 167.84 145.45 166.859L147.135 140.99C147.17 140.506 147.101 140.021 146.933 139.567C146.697 138.875 146.257 138.27 145.669 137.828C145.082 137.387 144.372 137.13 143.632 137.089L96.9128 134.621C96.3618 134.593 95.81 134.685 95.2966 134.891C94.7831 135.097 94.3205 135.411 93.9413 135.811C93.3478 136.448 92.9893 137.264 92.9247 138.123L91.2455 164.002C91.2148 164.488 91.2813 164.973 91.441 165.431C91.6007 165.889 91.8506 166.31 92.1763 166.671C92.502 167.032 92.8973 167.325 93.3394 167.533C93.7815 167.742 94.2618 167.862 94.7529 167.886V167.886Z" fill="#40798C"/>
<path d="M93.9413 135.811L116.748 157.802L146.933 139.567C146.697 138.875 146.257 138.27 145.669 137.828C145.082 137.387 144.372 137.13 143.632 137.089L96.9128 134.621C96.3617 134.593 95.81 134.685 95.2966 134.891C94.7831 135.097 94.3204 135.411 93.9413 135.811V135.811Z" fill="url(#paint6_linear)"/>
<path d="M127.58 151.263L138.659 170.205L94.7515 167.887L108.596 149.936L116.746 157.802L127.58 151.263Z" fill="url(#paint7_linear)"/>
<path d="M92.3041 171.43C93.0141 172.664 93.4433 174.034 93.562 175.447C93.514 176.858 93.026 178.22 92.1643 179.349C90.3906 181.847 87.7066 183.576 84.6696 184.177C84.2716 184.29 83.8461 184.264 83.4657 184.102C83.206 183.94 83.0059 183.7 82.8945 183.418C82.1926 181.954 82.5166 180.232 83.0208 178.71C83.525 177.187 84.2051 175.644 84.1603 174.018C84.0912 170.979 79.7766 165.043 84.9387 163.7C89.2436 162.547 90.9848 168.699 92.3041 171.43Z" fill="#B2857F"/>
<path d="M95.2536 175.444C95.2536 175.444 96.7492 176.693 96.4395 178.038C96.1298 179.383 90.5237 188.703 82.7783 187.498C75.0329 186.294 87.9087 178.948 87.9087 178.948L95.2536 175.444Z" fill="#40798C"/>
<path d="M92.9661 171.928C92.6478 171.934 92.3425 172.052 92.106 172.262C91.8695 172.471 91.7176 172.757 91.6781 173.068C91.4607 173.961 91.0152 174.785 90.3839 175.461C89.7526 176.137 88.9563 176.644 88.0702 176.933C86.0346 177.441 84.2113 175.746 83.2939 176.202C82.3765 176.658 79.7142 183.169 80.3533 185.048C80.9924 186.927 84.1368 186.932 86.9506 185.699C89.7645 184.467 94.94 179.442 95.3645 177.432C95.789 175.421 94.0661 172.488 92.9661 171.928Z" fill="white"/>
<path d="M125.043 182.832C125.773 184.238 126.183 185.782 126.245 187.358C126.109 188.911 125.5 190.386 124.498 191.592C122.404 194.29 119.332 196.089 115.923 196.615C115.476 196.723 115.006 196.673 114.592 196.475C114.315 196.274 114.103 195.998 113.983 195.68C113.276 194.02 113.731 192.119 114.358 190.434C114.984 188.749 115.81 187.09 115.872 185.302C115.928 181.927 111.436 175.109 117.235 173.863C122.081 172.821 123.722 179.741 125.043 182.832Z" fill="#B2857F"/>
<path d="M128.134 187.492C128.134 187.492 129.706 188.955 129.323 190.432C128.939 191.909 122.242 202.011 113.683 200.299C105.124 198.586 119.79 191.097 119.79 191.097L128.134 187.492Z" fill="#40798C"/>
<path d="M125.767 183.433C125.41 183.423 125.062 183.541 124.787 183.765C124.511 183.988 124.328 184.302 124.27 184.648C123.987 185.628 123.452 186.52 122.718 187.238C121.983 187.955 121.074 188.475 120.076 188.747C117.785 189.212 115.831 187.256 114.818 187.71C113.804 188.164 110.493 195.292 111.129 197.399C111.764 199.505 115.249 199.673 118.438 198.439C121.627 197.204 127.63 191.856 128.161 189.643C128.693 187.431 126.961 184.112 125.767 183.433Z" fill="white"/>
<path d="M109.196 100.696C108.978 100.729 108.764 100.781 108.555 100.85C103.481 102.65 97.2695 110.946 93.7723 114.876C89.2283 119.851 85.4221 125.433 82.4666 131.456C76.4623 144.082 75.6646 159.879 83.6129 171.426L89.8896 170.243C90.4369 170.193 90.9554 169.98 91.3763 169.632C91.5948 169.328 91.7482 168.983 91.8269 168.619C91.9057 168.254 91.9083 167.878 91.8346 167.512C91.5773 163.111 91.8571 158.696 92.668 154.361C93.1304 151.388 94.1068 148.516 95.5549 145.868C97.5755 142.424 100.716 139.783 103.776 137.196C113.489 129.013 122.218 120.531 127.162 108.814C122.912 106.671 113.829 99.9722 109.196 100.696Z" fill="#473F47"/>
<path d="M123.577 107.341C123.369 107.419 123.172 107.521 122.989 107.646C118.48 110.554 114.403 120.063 111.932 124.67C108.698 130.554 106.32 136.857 104.868 143.393C102.031 157.045 104.989 172.591 115.454 182.037L121.283 179.441C121.801 179.266 122.254 178.943 122.584 178.513C122.724 178.165 122.79 177.793 122.78 177.419C122.77 177.045 122.683 176.677 122.524 176.337C121.23 172.115 120.455 167.756 120.218 163.353C119.962 160.357 120.231 157.339 121.013 154.433C122.154 150.629 124.587 147.34 126.947 144.114C134.419 133.939 140.927 123.676 142.955 111.15C138.321 110.036 127.9 105.608 123.577 107.341Z" fill="#473F47"/>
<path d="M98.0891 77.0146C98.0846 77.0484 98.084 77.0826 98.0874 77.1166C97.9938 78.426 97.5358 79.5724 97.8566 80.9124C98.199 82.4018 99.5809 83.7672 101.116 83.573C102.396 83.4137 103.285 82.298 104.28 81.4903C105.32 80.6985 106.47 80.0568 107.695 79.5846C109.303 78.8812 110.958 78.2258 112.612 77.6253C113.672 77.2347 115.687 77.0171 116.152 75.965C116.616 74.9129 116.5 73.2388 116.647 72.1187L118.93 54.344L100.195 68.9479C99.4093 70.5659 98.7903 72.2572 98.3469 73.9964C98.1537 74.9907 98.0673 76.0024 98.0891 77.0146V77.0146Z" fill="#40798C"/>
<path d="M111.78 79.2052C111.65 80.255 111.386 81.2947 111.241 82.3364C110.474 88.1251 111.098 94.2824 108.612 99.7441C108.049 100.959 107.326 102.251 107.623 103.559C107.995 104.669 108.765 105.609 109.79 106.201C114.617 109.641 120.52 111.239 126.273 112.756C130.603 113.911 136.69 115.983 141.062 114.156C142.926 113.402 143.755 111.595 144.542 109.818C147.031 104.16 148.396 97.9022 149.63 91.8465C149.787 91.0641 149.952 90.2817 150.101 89.4599C151.134 83.9975 151.962 78.4846 152.587 72.9212C153.021 68.8776 153.262 64.4853 150.972 61.1186C147.934 56.6247 141.4 53.1088 136.296 51.4537C134.646 50.9008 132.922 50.589 131.18 50.5286C128.695 50.6014 126.241 51.0915 123.925 51.9779C121.172 52.9134 118.725 53.6891 117.129 56.049C115.358 58.7919 113.987 61.7657 113.055 64.8836C112.179 67.8032 111.717 70.8285 111.685 73.8731C111.66 75.3643 111.842 76.8746 111.81 78.3578C111.83 78.6405 111.82 78.9246 111.78 79.2052V79.2052Z" fill="#40798C"/>
<path opacity="0.1" d="M131.615 115.02C133.263 115.73 137.399 114.676 138.732 114.612C139.531 114.578 140.334 114.278 141.134 114.197C145.132 113.722 147.01 102.998 147.752 100.176C149.745 92.6336 152.316 84.8888 153.417 77.2137C153.834 74.2453 154.148 71.2124 153.518 68.2894C152.888 65.3664 151.22 62.5282 148.489 61.1403C143.741 58.7532 140.253 74.0742 139.156 77.1961C137.782 81.0984 136.4 85.0006 135.034 88.9031C134.431 90.6516 134.214 92.6027 133.206 94.1953C131.674 96.6113 130.421 96.1272 127.93 95.6776C122.703 94.6956 117.841 92.4243 112.699 91.1141C112.488 91.0325 112.262 90.994 112.036 91.001C111.809 91.0081 111.586 91.0604 111.381 91.1549C111.099 91.3754 110.905 91.686 110.832 92.0329C110.511 93.0189 110.328 94.0431 110.286 95.0776C110.251 95.3734 110.29 95.6732 110.399 95.9509C110.575 96.2356 110.821 96.472 111.114 96.638C114.566 98.9664 118.369 100.744 122.383 101.905C125.56 102.837 128.56 104.363 130.67 107.02C132.57 109.407 130.007 111.845 131.018 114.413C131.071 114.548 131.151 114.672 131.253 114.776C131.356 114.88 131.479 114.963 131.615 115.02V115.02Z" fill="#020202"/>
<path d="M135.451 103.221L105.03 92.5642L82.3839 104.779L113.395 117.888L135.451 103.221Z" fill="#B8B8B8"/>
<path d="M135.451 103.221L105.03 92.5642L82.3839 104.779L113.395 117.888L135.451 103.221Z" fill="url(#paint8_linear)" fill-opacity="0.1"/>
<path d="M134.217 101.576L103.795 90.9186L81.1496 103.134L112.161 116.242L134.217 101.576Z" fill="#B8B8B8"/>
<path d="M110.691 114.483L85.5654 103.066L98.0275 96.6005L123.036 106.39L110.691 114.483Z" fill="url(#paint9_linear)" fill-opacity="0.1"/>
<path d="M112.161 116.242L81.9934 115.74L56.2875 99.399L81.1498 103.134L112.161 116.242Z" fill="#B8B8B8"/>
<path d="M123.667 43.4952C123.96 44.607 124.277 45.7192 124.618 46.8239C125.374 49.3486 126.931 51.6669 129.698 52.3174C130.31 52.4438 130.93 52.5276 131.553 52.5681C131.673 52.5701 131.809 52.5724 131.968 52.575C131.977 52.5793 131.986 52.5817 131.996 52.5818C132.006 52.582 132.015 52.58 132.024 52.576L132.096 52.5772C132.408 52.5679 132.719 52.6049 133.02 52.6868C133.104 52.6925 133.186 52.7181 133.258 52.7614C134.05 53.1357 133.965 54.406 133.897 55.1271C133.687 55.9362 133.769 56.7921 134.128 57.5489C134.128 57.5489 134.127 57.596 134.175 57.6282C134.392 57.8692 134.656 58.0653 134.951 58.205C135.246 58.3447 135.566 58.4252 135.893 58.4419C137.267 58.5741 138.64 58.1872 139.734 57.3596C140.361 56.8056 140.869 56.1333 141.227 55.3826C141.339 55.1695 141.433 54.9479 141.51 54.72C141.607 54.3332 141.648 53.9349 141.633 53.5367C141.629 52.9262 141.58 52.3167 141.488 51.713C141.213 50.5198 141.002 49.3136 140.854 48.0991C140.853 47.485 140.821 46.8713 140.757 46.2604C140.661 45.8692 140.593 45.472 140.553 45.0716C140.572 43.9179 141.189 42.8134 141.216 41.6442C141.246 40.4879 141.156 39.3316 140.947 38.1933C140.558 35.9359 139.597 33.8111 138.152 32.0156C135.468 28.8307 130.643 27.1803 126.799 28.9062C124.879 29.769 123.374 31.3311 122.601 33.264C121.269 36.5469 122.804 40.2543 123.667 43.4952Z" fill="#B2857F"/>
<path d="M126.698 100.218C126.029 100.128 125.352 100.046 124.683 99.9802C124.284 99.9183 123.877 99.9356 123.485 100.031C123.292 100.077 123.116 100.173 122.973 100.309C122.831 100.444 122.727 100.615 122.674 100.802C122.676 100.946 122.644 101.088 122.579 101.217C122.475 101.332 122.332 101.405 122.177 101.422C119.773 101.995 117.284 102.911 115.823 104.826C115.65 105.006 115.528 105.228 115.468 105.469C115.408 105.71 115.412 105.963 115.481 106.202C115.797 106.866 116.756 106.788 117.478 106.604C117.372 106.747 117.314 106.919 117.311 107.096C117.308 107.272 117.361 107.446 117.461 107.593C117.566 107.737 117.706 107.854 117.867 107.933C118.029 108.012 118.207 108.052 118.387 108.048C118.626 108.009 118.869 108.013 119.106 108.06C119.267 108.137 119.416 108.237 119.548 108.358C119.88 108.581 120.255 108.737 120.651 108.813C121.046 108.89 121.453 108.887 121.847 108.804C122.646 108.7 123.449 108.446 124.248 108.397C125.486 108.323 126.588 108.742 127.745 108.266C129.023 107.671 130.37 107.234 131.758 106.967C132.198 106.905 132.607 106.705 132.924 106.398C133.063 106.134 133.138 105.843 133.143 105.546C133.148 105.249 133.083 104.955 132.953 104.687C132.762 103.721 132.405 102.793 131.897 101.945C131.235 100.992 130.104 100.808 128.998 100.602C128.187 100.455 127.462 100.341 126.698 100.218Z" fill="#B2857F"/>
<path d="M150.99 61.1111C156.695 70.7601 162.303 81.9226 163.786 93.0792C164.176 96.0139 164.358 99.4711 162.916 102.195C160.559 106.63 152.781 107.372 148.306 107.745C142.946 108.19 137.558 108.171 132.201 107.689C132.083 107.709 131.963 107.7 131.849 107.663C131.736 107.626 131.634 107.562 131.551 107.477C131.469 107.391 131.41 107.288 131.378 107.174C131.346 107.061 131.343 106.942 131.37 106.827L131.231 101.746C131.198 101.508 131.235 101.266 131.338 101.049C131.481 100.891 131.659 100.769 131.858 100.692C132.058 100.615 132.273 100.585 132.487 100.605C135.616 100.411 138.698 99.7608 141.633 98.6767C144.42 97.6397 149.877 94.8887 149.545 91.3034C149.363 89.2907 147.162 86.8047 146.079 85.2009C143.478 81.3501 140.667 77.6136 137.791 73.9545C137.791 73.9545 137.846 53.4108 150.99 61.1111Z" fill="#40798C"/>
<path d="M124.662 38.8956C124.267 38.7987 123.897 38.6206 123.576 38.3731C123.256 38.1256 122.992 37.8142 122.803 37.4594C122.461 38.3565 120.917 38.0561 120.541 37.1627C120.165 36.2694 120.573 35.2713 120.938 34.3903C120.573 34.2993 120.237 34.1203 119.96 33.8694C119.683 33.6185 119.473 33.3037 119.351 32.9533C119.228 32.603 119.196 32.2282 119.258 31.8628C119.32 31.4974 119.473 31.153 119.704 30.8606C119.972 30.5746 120.344 30.3295 120.422 29.9383C120.444 29.6395 120.403 29.3395 120.301 29.0571C120.259 28.5955 120.341 28.1312 120.54 27.7113C120.739 27.2914 121.048 26.9307 121.434 26.6658C122.227 26.1467 123.11 25.7731 124.038 25.563C123.797 25.1617 123.712 24.6874 123.8 24.2293C123.889 23.7711 124.144 23.3605 124.519 23.0746C125.285 22.519 126.207 22.2107 127.159 22.1922C128.542 22.0661 130.065 22.1542 131.135 23.0434C131.884 22.6034 132.76 22.4218 133.626 22.5272C134.492 22.6326 135.297 23.0191 135.914 23.6254C136.132 23.9331 136.44 24.1682 136.797 24.2996C137.053 24.3221 137.311 24.2833 137.549 24.1865C138.562 23.78 139.677 23.6863 140.746 23.9178C141.28 24.0525 141.743 24.3791 142.044 24.8332C142.346 25.2873 142.463 25.8359 142.373 26.3707C142.768 26.4241 143.138 26.5953 143.432 26.8612C143.725 27.1271 143.929 27.475 144.016 27.8582C144.03 28.0979 144.103 28.3308 144.228 28.5369C144.455 28.8076 144.863 28.7987 145.205 28.8358C145.859 28.9028 146.462 29.2097 146.896 29.6954C147.33 30.1811 147.561 30.8097 147.545 31.4558C147.528 32.1018 147.264 32.7177 146.806 33.1805C146.347 33.6432 145.728 33.9188 145.072 33.9521C145.142 34.2687 145.145 34.5961 145.081 34.9138C145.017 35.2315 144.886 35.5327 144.698 35.7985C144.264 36.4586 143.697 36.4963 143.131 36.9029C142.8 37.1486 142.927 37.1743 142.935 37.6847C142.943 38.1544 142.911 38.6239 142.84 39.0883C142.716 39.9831 142.473 40.858 142.118 41.6905C141.869 42.2909 141.556 42.8666 141.33 43.4752C141.018 44.4078 140.804 45.3697 140.692 46.3456L139.406 42.5717C139.391 42.5202 139.392 42.4658 139.408 42.4148C139.437 42.3456 139.488 42.2882 139.555 42.2523C140.15 41.8114 140.575 41.1836 140.758 40.4728C140.941 39.7621 140.872 39.0109 140.562 38.3439C140.475 38.1348 140.336 37.9512 140.156 37.8107C139.977 37.6702 139.764 37.5776 139.537 37.5418C138.995 37.5327 138.572 37.9889 138.301 38.4476C138.013 38.9362 137.792 39.4605 137.645 40.0067C137.294 39.1418 136.803 38.3383 136.192 37.6274C135.933 37.3326 135.623 36.8329 135.197 36.9749C134.772 37.117 134.56 37.8671 134.38 38.1389C133.755 37.8879 133.189 37.5153 132.714 37.0435C132.76 37.5891 132.647 38.1363 132.387 38.6203C132.127 39.1043 131.732 39.5049 131.248 39.7746C130.235 40.2209 128.786 39.5374 128.804 38.4386C128.796 38.933 126.631 38.0649 126.473 37.968C126.3 38.2825 126.035 38.5388 125.712 38.704C125.389 38.8693 125.024 38.936 124.662 38.8956Z" fill="#473F47"/>
<path d="M134.96 52.6642C134.316 52.7364 133.667 52.7518 133.02 52.7103C133.105 52.7161 133.186 52.7417 133.258 52.785C134.05 53.1592 133.965 54.4293 133.897 55.1503C133.687 55.9592 133.769 56.8149 134.128 57.5716C134.377 57.5776 134.624 57.5473 134.864 57.4818C135.109 57.4011 135.336 57.2743 135.532 57.1083C136.266 56.5345 136.808 55.7584 137.09 54.8794C137.372 54.0003 137.38 53.0584 137.115 52.1741C136.42 52.424 135.696 52.5886 134.96 52.6642V52.6642Z" fill="#96625E"/>
<path d="M103.097 66.6963C103.097 66.6963 88.3117 77.0561 90.154 87.677C91.865 97.5578 93.4182 105.418 93.4182 105.418L100.321 101.608C100.321 101.608 95.9965 86.6909 105.646 80.3985C115.296 74.1061 103.097 66.6963 103.097 66.6963Z" fill="#40798C"/>
<path d="M101.537 101.479L102.136 104.826C102.244 105.25 102.253 105.693 102.162 106.121C102.114 106.335 101.995 106.527 101.823 106.666C101.652 106.806 101.438 106.885 101.215 106.891C100.737 106.883 100.338 106.358 99.8582 106.444C99.6864 106.491 99.5234 106.565 99.3757 106.664C98.3452 107.196 97.1177 106.626 96.0488 106.114C95.8784 106.016 95.6796 105.977 95.484 106.002C95.2516 106.061 95.1042 106.286 94.9023 106.424C94.701 106.539 94.469 106.591 94.237 106.573C94.005 106.555 93.784 106.468 93.6031 106.324C93.2465 106.023 92.9776 105.634 92.8238 105.197C92.4097 104.261 92.2404 103.239 92.3312 102.223C92.422 101.207 92.7701 100.23 93.3436 99.3801C93.9682 98.6458 94.782 98.0901 95.6999 97.7712C96.6178 97.4522 97.6061 97.3818 98.5614 97.5672C100.631 97.9235 101.194 99.5344 101.537 101.479Z" fill="#B2857F"/>
<path d="M113.394 117.888L83.2268 117.385L57.5209 101.045L82.3832 104.779L113.394 117.888Z" fill="#B8B8B8"/>
<path d="M112.161 116.242L113.395 117.888L83.2273 117.386L81.9937 115.74L112.161 116.242Z" fill="url(#paint10_linear)" fill-opacity="0.1"/>
<path d="M56.2882 99.3989L57.5218 101.045L83.2276 117.385L81.994 115.74L56.2882 99.3989Z" fill="#B8B8B8"/>
<path d="M56.2882 99.3989L57.5218 101.045L83.2276 117.385L81.994 115.74L56.2882 99.3989Z" fill="url(#paint11_linear)" fill-opacity="0.1"/>
<path d="M80.8348 103.835L60.249 100.658L81.5515 113.997L105.026 114.789L80.8348 103.835Z" fill="white"/>
<path d="M116.019 102.662L104.409 98.2062L110.11 94.2503L122.026 98.4995L116.019 102.662Z" fill="url(#paint12_linear)" fill-opacity="0.1"/>
<defs>
<linearGradient id="paint0_linear" x1="103.1" y1="100.311" x2="76.029" y2="163.053" gradientUnits="userSpaceOnUse">
<stop offset="0.01" stop-color="white"/>
<stop offset="1" stop-color="white" stop-opacity="0"/>
</linearGradient>
<linearGradient id="paint1_linear" x1="122.225" y1="119.376" x2="-4.4569" y2="197.567" gradientUnits="userSpaceOnUse">
<stop offset="0.01"/>
<stop offset="0.08" stop-opacity="0.69"/>
<stop offset="0.21" stop-opacity="0.32"/>
<stop offset="1" stop-opacity="0"/>
</linearGradient>
<linearGradient id="paint2_linear" x1="53.5869" y1="113.3" x2="87.9064" y2="168.441" gradientUnits="userSpaceOnUse">
<stop offset="0.01" stop-color="white"/>
<stop offset="1" stop-color="white" stop-opacity="0"/>
</linearGradient>
<linearGradient id="paint3_linear" x1="78.9579" y1="108.625" x2="72.4071" y2="247.872" gradientUnits="userSpaceOnUse">
<stop offset="0.01"/>
<stop offset="0.08" stop-opacity="0.69"/>
<stop offset="0.21" stop-opacity="0.32"/>
<stop offset="1" stop-opacity="0"/>
</linearGradient>
<linearGradient id="paint4_linear" x1="162.715" y1="86.4716" x2="146.524" y2="167.389" gradientUnits="userSpaceOnUse">
<stop offset="0.01" stop-color="white"/>
<stop offset="1" stop-color="white" stop-opacity="0"/>
</linearGradient>
<linearGradient id="paint5_linear" x1="190.289" y1="104.217" x2="61.0178" y2="228.745" gradientUnits="userSpaceOnUse">
<stop offset="0.01"/>
<stop offset="0.08" stop-opacity="0.69"/>
<stop offset="0.21" stop-opacity="0.32"/>
<stop offset="1" stop-opacity="0"/>
</linearGradient>
<linearGradient id="paint6_linear" x1="113.711" y1="100.513" x2="128.841" y2="181.635" gradientUnits="userSpaceOnUse">
<stop offset="0.01" stop-color="white"/>
<stop offset="1" stop-color="white" stop-opacity="0"/>
</linearGradient>
<linearGradient id="paint7_linear" x1="145.911" y1="106.704" x2="72.3568" y2="270.436" gradientUnits="userSpaceOnUse">
<stop offset="0.01"/>
<stop offset="0.08" stop-opacity="0.69"/>
<stop offset="0.21" stop-opacity="0.32"/>
<stop offset="1" stop-opacity="0"/>
</linearGradient>
<linearGradient id="paint8_linear" x1="-11526.8" y1="3227.26" x2="-11280.3" y2="6506.04" gradientUnits="userSpaceOnUse">
<stop offset="0.01"/>
<stop offset="0.08" stop-opacity="0.69"/>
<stop offset="0.21" stop-opacity="0.32"/>
<stop offset="1" stop-opacity="0"/>
</linearGradient>
<linearGradient id="paint9_linear" x1="-7530.69" y1="2374.14" x2="-8940.62" y2="4697.94" gradientUnits="userSpaceOnUse">
<stop offset="0.01"/>
<stop offset="0.08" stop-opacity="0.69"/>
<stop offset="0.21" stop-opacity="0.32"/>
<stop offset="1" stop-opacity="0"/>
</linearGradient>
<linearGradient id="paint10_linear" x1="-6162.43" y1="311.239" x2="-6203.54" y2="-283.995" gradientUnits="userSpaceOnUse">
<stop offset="0.01"/>
<stop offset="0.08" stop-opacity="0.69"/>
<stop offset="0.21" stop-opacity="0.32"/>
<stop offset="1" stop-opacity="0"/>
</linearGradient>
<linearGradient id="paint11_linear" x1="-6886.88" y1="2486.82" x2="-7723.67" y2="4165.95" gradientUnits="userSpaceOnUse">
<stop offset="0.01"/>
<stop offset="0.08" stop-opacity="0.69"/>
<stop offset="0.21" stop-opacity="0.32"/>
<stop offset="1" stop-opacity="0"/>
</linearGradient>
<linearGradient id="paint12_linear" x1="-3520.91" y1="1164.7" x2="-3633.66" y2="1490.67" gradientUnits="userSpaceOnUse">
<stop offset="0.01"/>
<stop offset="0.08" stop-opacity="0.69"/>
<stop offset="0.21" stop-opacity="0.32"/>
<stop offset="1" stop-opacity="0"/>
</linearGradient>
</defs>
</svg>
