<svg width="223.08" height="244.02" xmlns="http://www.w3.org/2000/svg" xmlns:xlink="http://www.w3.org/1999/xlink">
 <defs>
  <linearGradient y2="1.78924" x2="0.91608" y1="-0.58572" x1="0.15156" id="linear-gradient">
   <stop stop-color="#fff" offset="0.01"/>
   <stop stop-opacity="0" stop-color="#fff" offset="1"/>
  </linearGradient>
  <linearGradient y2="2.36737" x2="3.0965" y1="-0.47999" x1="-1.0885" id="linear-gradient-2">
   <stop offset="0.01"/>
   <stop stop-opacity="0.69" offset="0.08"/>
   <stop stop-opacity="0.32" offset="0.21"/>
   <stop stop-opacity="0" offset="1"/>
  </linearGradient>
  <linearGradient xlink:href="#linear-gradient-2" gradientTransform="matrix(1, 0, 0, 1, 0, 0)" y2="20.55" x2="-1.85" y1="217.79" x1="286.71" id="linear-gradient-3"/>
  <linearGradient xlink:href="#linear-gradient-2" gradientTransform="matrix(1, 0, 0, 1, 0, 0)" y2="258.55" x2="194.42" y1="132.16" x1="218.89" id="linear-gradient-4"/>
  <linearGradient xlink:href="#linear-gradient-2" gradientTransform="matrix(1, 0, 0, 1, 0, 0)" y2="206.24" x2="290" y1="136.07" x1="202.95" id="linear-gradient-5"/>
  <linearGradient xlink:href="#linear-gradient-2" gradientTransform="matrix(1, 0, 0, 1, 0, 0)" y2="86.14" x2="362.44" y1="184.28" x1="199.53" id="linear-gradient-6"/>
  <linearGradient xlink:href="#linear-gradient-2" gradientTransform="matrix(1, 0, 0, 1, 0, 0)" y2="219.19" x2="311.18" y1="142.72" x1="254.44" id="linear-gradient-7"/>
  <linearGradient xlink:href="#linear-gradient-2" gradientTransform="matrix(1, 0, 0, 1, 0, 0)" y2="165.5" x2="226.17" y1="136.03" x1="205.72" id="linear-gradient-8"/>
  <linearGradient xlink:href="#linear-gradient-2" gradientTransform="matrix(1, 0, 0, 1, 0, 0)" y2="291.24" x2="46.65" y1="211.85" x1="165.73" id="linear-gradient-9"/>
  <linearGradient xlink:href="#linear-gradient" gradientTransform="translate(-248.47 37.8) rotate(-7.33)" y2="271.49" x2="379.58" y1="157.53" x1="372.76" id="linear-gradient-10"/>
  <linearGradient xlink:href="#linear-gradient-2" gradientTransform="translate(-269.06 16.53) rotate(-7.33)" y2="369.46" x2="485.56" y1="176.6" x1="332.15" id="linear-gradient-11"/>
  <linearGradient xlink:href="#linear-gradient" gradientTransform="translate(953.27 63.97) rotate(28.37)" y2="402.49" x2="-532.65" y1="334.24" x1="-536.73" id="linear-gradient-12"/>
  <linearGradient xlink:href="#linear-gradient-2" gradientTransform="translate(932.68 42.71) rotate(28.37)" y2="461.16" x2="-469.18" y1="345.66" x1="-561.05" id="linear-gradient-13"/>
 </defs>
 <title>11</title>
 <g>
  <title>background</title>
  <rect fill="none" id="canvas_background" height="246.02" width="225.08" y="-1" x="-1"/>
 </g>
 <g>
  <title>Layer 1</title>
  <path id="svg_2" fill="#70a9a1" d="m198.69,159.56l-30.74,22.75a3.07,3.07 0 0 1 -4.29,-0.64l-12.75,-17.23a2.87,2.87 0 0 1 -0.5,-1.08a3.06,3.06 0 0 1 1.14,-3.21l30.75,-22.75a3.08,3.08 0 0 1 2.56,-0.51a3.14,3.14 0 0 1 1.73,1.15l12.75,17.24a3.06,3.06 0 0 1 -0.65,4.28z"/>
  <path id="svg_3" fill="url(#linear-gradient)" d="m184.86,136.89l-5.69,25.56l-28.76,0.91a3.06,3.06 0 0 1 1.14,-3.21l30.75,-22.75a3.08,3.08 0 0 1 2.56,-0.51z"/>
  <polygon id="svg_4" fill="url(#linear-gradient-2)" points="168.85000610351562,162.77999877929688 169.79000854492188,180.94000244140625 198.69000244140625,159.55999755859375 181.20001220703125,153.30999755859375 179.17001342773438,162.4499969482422 168.85000610351562,162.77999877929688 "/>
  <path id="svg_5" fill="#70a9a1" d="m204.41,14.12l-34.34,48.93l-6.6,-18.31a637,637 0 0 0 -67.21,21.91c-25.34,10.09 -49.74,22.63 -56.75,35.59c-16.07,29.77 21.68,42.93 21.68,42.93a103.9,103.9 0 0 1 -21.55,-0.52c-18.83,-2.47 -42.21,-11.59 -35.44,-42.41c5.35,-24.35 40.18,-44.83 74.4,-59.42l0.05,0c5,-2.12 10,-4.11 14.86,-6l0.14,-0.06a545.89,545.89 0 0 1 55.93,-18l-3.29,-16.02l58.12,11.38z"/>
  <path id="svg_6" fill="url(#linear-gradient-3)" d="m39.51,102.24c-16.07,29.77 21.68,42.93 21.68,42.93a103.9,103.9 0 0 1 -21.55,-0.52a117.09,117.09 0 0 1 -7.92,-10.33c-21.67,-31.52 24.81,-56.36 24.81,-56.36c3.87,-14.13 22.07,-25.82 22.07,-25.82l0,-9.32l0.05,0l14.86,-6l0.14,-0.06l3.27,27.32l-0.66,2.55c-25.34,10.11 -49.74,22.65 -56.75,35.61z"/>
  <path id="svg_7" fill="#b2857f" d="m144.89,205.04a12.47,12.47 0 0 0 -1.66,5.09a8.77,8.77 0 0 0 1.67,5a15.1,15.1 0 0 0 9.29,6.31a2.24,2.24 0 0 0 1.51,-0.07a1.81,1.81 0 0 0 0.73,-0.86c0.91,-1.85 0.54,-4.05 -0.06,-6s-1.42,-3.93 -1.33,-6c0.15,-3.87 5.68,-11.34 -0.76,-13.16c-5.37,-1.56 -7.68,6.24 -9.39,9.69z"/>
  <path id="svg_8" fill="#70a9a1" d="m141.11,210.09s-1.9,1.56 -1.54,3.28s7.19,13.71 16.92,12.34s-6.25,-11 -6.25,-11l-9.13,-4.62z"/>
  <path id="svg_9" fill="#fff" d="m144.05,205.66a1.66,1.66 0 0 1 1.59,1.48a6.88,6.88 0 0 0 4.44,5c2.54,0.69 4.86,-1.43 6,-0.83s4.34,8.95 3.5,11.33s-4.78,2.32 -8.28,0.69s-9.88,-8.14 -10.37,-10.71s1.73,-6.27 3.12,-6.96z"/>
  <path id="svg_10" fill="#b2857f" d="m103.63,218.87a13.85,13.85 0 0 0 -1.6,5.74a9.86,9.86 0 0 0 2.1,5.43a16.81,16.81 0 0 0 10.64,6.58a2.46,2.46 0 0 0 1.67,-0.15a2.21,2.21 0 0 0 0.78,-1c0.92,-2.1 0.39,-4.53 -0.36,-6.69s-1.75,-4.29 -1.79,-6.57c0,-4.3 5.77,-12.89 -1.47,-14.6c-6.05,-1.43 -8.25,7.35 -9.97,11.26z"/>
  <path id="svg_11" fill="#70a9a1" d="m99.66,224.74s-2,1.83 -1.55,3.72s8.63,14.9 19.39,12.9s-7.46,-11.85 -7.46,-11.85l-10.38,-4.77z"/>
  <path id="svg_12" fill="#fff" d="m102.71,219.62a1.85,1.85 0 0 1 1.85,1.58a7.57,7.57 0 0 0 5.17,5.31c2.86,0.64 5.35,-1.81 6.61,-1.21s5.26,9.75 4.42,12.42s-5.21,2.81 -9.18,1.17s-11.38,-8.58 -12,-11.41s1.62,-7.02 3.13,-7.86z"/>
  <path id="svg_13" fill="#473f47" d="m125.2,114.58a4.93,4.93 0 0 1 0.8,0.21c6.32,2.4 13.93,13.1 18.23,18.18a90.47,90.47 0 0 1 13.82,21.36c7.26,16.21 7.93,36.35 -2.27,50.89l-7.84,-1.64a3.39,3.39 0 0 1 -1.85,-0.81a3.5,3.5 0 0 1 -0.53,-2.71a70.29,70.29 0 0 0 -0.77,-16.77a33.57,33.57 0 0 0 -3.44,-10.88c-2.46,-4.43 -6.34,-7.86 -10.12,-11.22c-12,-10.63 -22.76,-21.62 -28.71,-36.65c5.37,-2.64 16.89,-10.98 22.68,-9.96z"/>
  <path id="svg_14" fill="#473f47" d="m107.04,122.74a3.41,3.41 0 0 1 0.73,0.4c5.59,3.8 10.5,16 13.5,21.92a91.09,91.09 0 0 1 8.46,24c3.27,17.45 -0.76,37.19 -14.07,49l-7.25,-3.43a3.44,3.44 0 0 1 -1.61,-1.21a3.53,3.53 0 0 1 0.12,-2.77a70.1,70.1 0 0 0 3.16,-16.49a33.47,33.47 0 0 0 -0.81,-11.38c-1.35,-4.87 -4.33,-9.11 -7.22,-13.27c-9.15,-13.12 -17.09,-26.33 -19.37,-42.33c5.83,-1.32 18.98,-6.74 24.36,-4.44z"/>
  <path id="svg_15" fill="#fff" d="m139.61,84.65a0.57,0.57 0 0 1 0,0.13c0.09,1.67 0.64,3.14 0.21,4.84c-0.46,1.89 -2.22,3.6 -4.14,3.32c-1.6,-0.23 -2.69,-1.67 -3.92,-2.72a17.34,17.34 0 0 0 -4.24,-2.5c-2,-0.93 -4.06,-1.8 -6.12,-2.6c-1.32,-0.52 -3.84,-0.84 -4.4,-2.19s-0.38,-3.48 -0.54,-4.91l-2.49,-22.69l23.17,19a34.3,34.3 0 0 1 2.21,6.47a18.41,18.41 0 0 1 0.26,3.85z"/>
  <path id="svg_16" fill="#fff" d="m122.41,87.15c0.14,1.34 0.45,2.67 0.61,4c0.84,7.39 -0.07,15.22 2.93,22.23c0.68,1.56 1.56,3.22 1.16,4.88a6.12,6.12 0 0 1 -2.77,3.32c-6.12,4.28 -13.55,6.19 -20.79,8c-5.45,1.38 -13.12,3.89 -18.56,1.47c-2.32,-1 -3.32,-3.32 -4.27,-5.6c-3,-7.26 -4.58,-15.26 -6,-23c-0.18,-1 -0.37,-2 -0.54,-3.05q-1.77,-10.47 -2.77,-21.12c-0.46,-5.16 -0.67,-10.76 2.27,-15c3.9,-5.66 12.16,-10 18.59,-12a22.32,22.32 0 0 1 6.43,-1.07a27.33,27.33 0 0 1 9.06,2c3.43,1.25 6.48,2.29 8.43,5.33a44.3,44.3 0 0 1 4.92,11.34a42,42 0 0 1 1.53,11.48c0,1.9 -0.26,3.82 -0.25,5.71a5.1,5.1 0 0 0 0.02,1.08z"/>
  <path id="svg_17" opacity="0.1" fill="#020202" d="m96.81,132.35c-2.08,0.87 -7.24,-0.56 -8.91,-0.67c-1,-0.06 -2,-0.46 -3,-0.58c-5,-0.69 -7.13,-14.39 -8,-18c-2.34,-9.65 -5.4,-19.57 -6.62,-29.37c-0.46,-3.79 -0.79,-7.66 0.06,-11.37s3,-7.29 6.45,-9c6,-2.94 10.05,16.65 11.36,20.65c1.64,5 3.29,10 4.92,15c0.72,2.24 0.95,4.73 2.18,6.78c1.87,3.11 3.45,2.52 6.58,2c6.57,-1.14 12.71,-3.93 19.18,-5.49a2.09,2.09 0 0 1 1.65,0.08a1.93,1.93 0 0 1 0.67,1.13a14.63,14.63 0 0 1 0.62,3.89a2.33,2.33 0 0 1 -0.16,1.11a2.51,2.51 0 0 1 -0.91,0.86a49.77,49.77 0 0 1 -14.23,6.47c-4,1.12 -7.79,3 -10.49,6.34c-2.43,3 0.73,6.16 -0.59,9.41a1.37,1.37 0 0 1 -0.76,0.76z"/>
  <polygon id="svg_18" fill="#70a9a1" points="92.25,117.24000549316406 130.58999633789062,104.30999755859375 158.7100067138672,120.35000610351562 119.58000183105469,136.38999938964844 92.25,117.24000549316406 "/>
  <polygon id="svg_19" fill="url(#linear-gradient-4)" points="92.25,117.24000549316406 130.58999633789062,104.30999755859375 158.7100067138672,120.35000610351562 119.58000183105469,136.38999938964844 92.25,117.24000549316406 "/>
  <polygon id="svg_20" fill="#70a9a1" points="93.83000183105469,115.16999816894531 132.1699981689453,102.24000549316406 160.2899932861328,118.27999877929688 121.16000366210938,134.32000732421875 93.83000183105469,115.16999816894531 "/>
  <polygon id="svg_21" fill="url(#linear-gradient-5)" points="123.03999328613281,132.11000061035156 154.75999450683594,118.10000610351562 139.27999877929688,109.60000610351562 107.74000549316406,121.53999328613281 123.03999328613281,132.11000061035156 "/>
  <polygon id="svg_22" fill="#70a9a1" points="121.16000366210938,134.32000732421875 158.97000122070312,134.32000732421875 191.51998901367188,114.05000305175781 160.2899932861328,118.27999877929688 121.16000366210938,134.32000732421875 "/>
  <path id="svg_23" fill="#b2857f" d="m108.26,41.41c-0.39,1.41 -0.81,2.82 -1.26,4.22c-1,3.2 -3,6.12 -6.48,6.89a16.65,16.65 0 0 1 -2.33,0.28c-0.15,0 -0.32,0 -0.52,0a0.08,0.08 0 0 1 -0.07,0l-0.09,0a3.9,3.9 0 0 0 -1.16,0.12a0.66,0.66 0 0 0 -0.3,0.09c-1,0.46 -0.92,2.08 -0.85,3a4.6,4.6 0 0 1 -0.34,3.08s0,0.06 -0.06,0.1a3.09,3.09 0 0 1 -2.17,1a6.81,6.81 0 0 1 -4.79,-1.46a7.9,7.9 0 0 1 -1.83,-2.55a5.79,5.79 0 0 1 -0.34,-0.85a5.45,5.45 0 0 1 -0.13,-1.51a16.41,16.41 0 0 1 0.22,-2.32a45.24,45.24 0 0 0 0.87,-4.59a22.8,22.8 0 0 1 0.16,-2.34a11.14,11.14 0 0 0 0.28,-1.51c0,-1.47 -0.75,-2.89 -0.76,-4.38a21.62,21.62 0 0 1 0.41,-4.39a17.33,17.33 0 0 1 3.63,-7.81c3.43,-4 9.51,-6 14.29,-3.72a10.22,10.22 0 0 1 5.17,5.64c1.6,4.21 -0.4,8.9 -1.55,13.01z"/>
  <path id="svg_24" fill="#b2857f" d="m103.28,113.6c0.84,-0.1 1.69,-0.19 2.53,-0.26a3.79,3.79 0 0 1 1.5,0.09a1.4,1.4 0 0 1 1,1a1.17,1.17 0 0 0 0.11,0.53a0.8,0.8 0 0 0 0.5,0.27c3,0.78 6.1,2 7.89,4.47a1.83,1.83 0 0 1 0.4,1.76c-0.41,0.84 -1.61,0.72 -2.51,0.47a1.1,1.1 0 0 1 0,1.26a1.39,1.39 0 0 1 -1.17,0.56a2.48,2.48 0 0 0 -0.9,0a2.27,2.27 0 0 0 -0.56,0.37a3.72,3.72 0 0 1 -2.89,0.52c-1,-0.15 -2,-0.49 -3,-0.57c-1.55,-0.12 -2.94,0.39 -4.38,-0.24a21.27,21.27 0 0 0 -5,-1.74a2.61,2.61 0 0 1 -1.45,-0.75a2.45,2.45 0 0 1 0,-2.18a11,11 0 0 1 1.38,-3.47c0.85,-1.2 2.27,-1.41 3.66,-1.65c1.02,-0.17 1.93,-0.3 2.89,-0.44z"/>
  <path id="svg_25" fill="#fff" d="m73.66,63.27c-7.35,12.17 -14.61,26.27 -16.7,40.45c-0.55,3.73 -0.85,8.13 0.9,11.63c2.86,5.7 12.59,6.81 18.19,7.38a115.26,115.26 0 0 0 20.18,0.27a0.91,0.91 0 0 0 1.06,-1.08l0.28,-6.47a1.59,1.59 0 0 0 -0.12,-0.89a1.71,1.71 0 0 0 -1.43,-0.59a39.73,39.73 0 0 1 -11.42,-2.65c-3.47,-1.38 -10.25,-5 -9.76,-9.56c0.27,-2.56 3.08,-5.68 4.47,-7.7c3.34,-4.85 6.94,-9.55 10.62,-14.15c0,0 0.36,-26.17 -16.27,-16.64z"/>
  <path id="svg_26" fill="#473f47" d="m107.11,35.53a3.62,3.62 0 0 0 2.36,-1.79c0.41,1.15 2.35,0.8 2.84,-0.33s0,-2.41 -0.44,-3.54a2.84,2.84 0 0 0 1.62,-4.47c-0.33,-0.37 -0.79,-0.69 -0.88,-1.19a2.76,2.76 0 0 1 0.17,-1.12a3.35,3.35 0 0 0 -1.37,-3.07a9.9,9.9 0 0 0 -3.24,-1.46a2.44,2.44 0 0 0 -0.55,-3.18a5.77,5.77 0 0 0 -3.29,-1.18c-1.73,-0.19 -3.64,-0.11 -5,1a4.91,4.91 0 0 0 -6,0.64a2.35,2.35 0 0 1 -1.12,0.84a2,2 0 0 1 -0.94,-0.16a6.76,6.76 0 0 0 -4,-0.41a2.76,2.76 0 0 0 -2.09,3.09a2.45,2.45 0 0 0 -2.09,1.86a1.9,1.9 0 0 1 -0.28,0.86c-0.29,0.34 -0.8,0.32 -1.23,0.36a3.27,3.27 0 0 0 0.06,6.52a3,3 0 0 0 0.43,2.36c0.53,0.85 1.24,0.91 1.94,1.44c0.41,0.32 0.25,0.35 0.23,1a10.69,10.69 0 0 0 0.09,1.79a13.15,13.15 0 0 0 0.85,3.33c0.3,0.77 0.68,1.51 0.95,2.29a18.23,18.23 0 0 1 0.74,3.67l1.69,-4.78a0.36,0.36 0 0 0 0,-0.2a0.41,0.41 0 0 0 -0.18,-0.21a4.1,4.1 0 0 1 -1.18,-5a1.67,1.67 0 0 1 1.3,-1c0.68,0 1.2,0.59 1.53,1.18a8.09,8.09 0 0 1 0.79,2a11,11 0 0 1 1.87,-3c0.33,-0.37 0.73,-1 1.26,-0.81s0.78,1.15 1,1.5a6.27,6.27 0 0 0 2.11,-1.36a3.65,3.65 0 0 0 1.78,3.51c1.26,0.59 3.09,-0.25 3.09,-1.65c0,0.63 2.73,-0.43 2.93,-0.55a2.29,2.29 0 0 0 2.25,1.22z"/>
  <path id="svg_27" fill="#96625e" d="m93.92,52.85a13.63,13.63 0 0 0 2.43,0.1a0.66,0.66 0 0 0 -0.3,0.09c-1,0.46 -0.92,2.08 -0.85,3a4.6,4.6 0 0 1 -0.34,3.08a3.15,3.15 0 0 1 -0.92,-0.13a2.5,2.5 0 0 1 -0.83,-0.49a5.9,5.9 0 0 1 -1.88,-6.32a11.28,11.28 0 0 0 2.69,0.67z"/>
  <path id="svg_28" fill="#fff" d="m133.55,71.4s18.31,13.51 15.78,27c-2.35,12.55 -4.46,22.53 -4.46,22.53l-8.57,-5s5.73,-18.91 -6.23,-27.13s3.48,-17.4 3.48,-17.4z"/>
  <path id="svg_29" fill="#b2857f" d="m134.78,115.74l-0.82,4.25a3.69,3.69 0 0 0 -0.06,1.65a1.25,1.25 0 0 0 1.17,1c0.6,0 1.11,-0.66 1.71,-0.54a2.08,2.08 0 0 1 0.6,0.29c1.28,0.7 2.83,0 4.18,-0.63a1.11,1.11 0 0 1 0.71,-0.13c0.29,0.08 0.47,0.37 0.72,0.55a1.44,1.44 0 0 0 1.63,-0.1a3.33,3.33 0 0 0 1,-1.42a7.78,7.78 0 0 0 -0.53,-7.42a6.81,6.81 0 0 0 -6.5,-2.42c-2.6,0.41 -3.34,2.45 -3.81,4.92z"/>
  <polygon id="svg_30" fill="#70a9a1" points="119.58000183105469,136.38999938964844 157.38999938964844,136.38999938964844 189.94000244140625,116.1199951171875 158.7100067138672,120.35000610351562 119.58000183105469,136.38999938964844 "/>
  <polygon id="svg_31" fill="url(#linear-gradient-6)" points="121.16000366210938,134.32000732421875 119.58000183105469,136.38999938964844 157.38999938964844,136.38999938964844 158.97000122070312,134.32000732421875 121.16000366210938,134.32000732421875 "/>
  <polygon id="svg_32" fill="#70a9a1" points="191.51998901367188,114.05000305175781 189.94000244140625,116.1199951171875 157.38999938964844,136.38999938964844 158.97000122070312,134.32000732421875 191.51998901367188,114.05000305175781 "/>
  <polygon id="svg_33" fill="url(#linear-gradient-7)" points="191.51998901367188,114.05000305175781 189.94000244140625,116.1199951171875 157.38999938964844,136.38999938964844 158.97000122070312,134.32000732421875 191.51998901367188,114.05000305175781 "/>
  <polygon id="svg_34" fill="#fff" points="160.6699981689453,119.17999267578125 186.52999877929688,115.57000732421875 159.55999755859375,132.11000061035156 130.1300048828125,132.6199951171875 160.6699981689453,119.17999267578125 "/>
  <polygon id="svg_35" fill="url(#linear-gradient-8)" points="116.61000061035156,116.94000244140625 131.25,111.50999450683594 124.19000244140625,106.35000610351562 109.16999816894531,111.50999450683594 116.61000061035156,116.94000244140625 "/>
  <path id="svg_36" fill="#70a9a1" d="m85.28,172.91l-58.09,26.52a5.13,5.13 0 0 1 -6.79,-2.53l-14.86,-32.56a4.74,4.74 0 0 1 -0.45,-1.93a5.11,5.11 0 0 1 3,-4.85l58.09,-26.52a5.17,5.17 0 0 1 4.37,0.06a5.1,5.1 0 0 1 2.42,2.47l14.84,32.57a5.11,5.11 0 0 1 -2.53,6.77z"/>
  <path id="svg_37" fill="url(#linear-gradient-9)" d="m85.28,172.91l-58.09,26.52a5.13,5.13 0 0 1 -6.79,-2.53l-14.86,-32.56a4.74,4.74 0 0 1 -0.45,-1.93a5.11,5.11 0 0 1 3,-4.85l58.09,-26.52a5.17,5.17 0 0 1 4.37,0.06a5.1,5.1 0 0 1 2.42,2.47l14.84,32.57a5.11,5.11 0 0 1 -2.53,6.77z"/>
  <path id="svg_38" fill="#70a9a1" d="m87.97,171.74l-58.09,26.52a5.13,5.13 0 0 1 -6.79,-2.53l-14.86,-32.55a5,5 0 0 1 -0.46,-1.93a5.14,5.14 0 0 1 3,-4.86l58.09,-26.51a5.14,5.14 0 0 1 6.79,2.52l14.86,32.57a5.11,5.11 0 0 1 -2.54,6.77z"/>
  <path id="svg_39" fill="url(#linear-gradient-10)" d="m73.21,129.88l-18.14,39.78l-47.3,-8.46a5.14,5.14 0 0 1 3,-4.86l58.09,-26.51a5.11,5.11 0 0 1 4.35,0.05z"/>
  <polygon id="svg_40" fill="url(#linear-gradient-11)" points="38.11000061035156,166.6199951171875 33.36000061035156,196.61000061035156 87.97000122070312,171.69000244140625 61.55999755859375,155.42999267578125 55.07000732421875,169.66000366210938 38.11000061035156,166.6199951171875 "/>
  <path id="svg_41" fill="#70a9a1" d="m212.34,108.4l-37.52,-7.41a3.06,3.06 0 0 1 -2.41,-3.6l4.15,-21a2.91,2.91 0 0 1 0.45,-1.1a3.06,3.06 0 0 1 3.15,-1.32l37.52,7.41a3,3 0 0 1 2.1,1.55a3.11,3.11 0 0 1 0.32,2.05l-4.16,21a3.06,3.06 0 0 1 -3.6,2.42z"/>
  <path id="svg_42" fill="url(#linear-gradient-12)" d="m219.78,82.91l-22.72,13l-20,-20.64a3.06,3.06 0 0 1 3.15,-1.32l37.52,7.41a3,3 0 0 1 2.05,1.55z"/>
  <polygon id="svg_43" fill="url(#linear-gradient-13)" points="189.8699951171875,88.5 177.07998657226562,101.42999267578125 212.33999633789062,108.39999389648438 205.17999267578125,91.26000213623047 197.05999755859375,95.91000366210938 189.8699951171875,88.5 "/>
 </g>
</svg>