<svg width="365.1" height="468.44" xmlns="http://www.w3.org/2000/svg" xmlns:xlink="http://www.w3.org/1999/xlink">
 <defs>
  <linearGradient y2="-1.76399" x2="0.77369" y1="1.33014" x1="0.41348" id="linear-gradient">
   <stop stop-opacity="0" stop-color="#010101" offset="0"/>
   <stop stop-color="#010101" offset="0.95"/>
  </linearGradient>
  <linearGradient xlink:href="#linear-gradient" y2="338.95" x2="395.29" y1="423.36" x1="335.24" id="linear-gradient-3"/>
  <linearGradient xlink:href="#linear-gradient" y2="236.18" x2="450.75" y1="240.96" x1="399.4" id="linear-gradient-4"/>
  <linearGradient xlink:href="#linear-gradient" y2="248.06" x2="228.22" y1="257.76" x1="303.16" id="linear-gradient-5"/>
  <linearGradient xlink:href="#linear-gradient" y2="161.81" x2="346.84" y1="193.95" x1="339.75" id="linear-gradient-6"/>
  <linearGradient xlink:href="#linear-gradient" y2="146.47" x2="358.12" y1="146.47" x1="317.87" id="linear-gradient-8"/>
  <linearGradient y2="-1.48019" x2="0.56213" y1="1.3247" x1="0.46953" id="linear-gradient-10">
   <stop stop-opacity="0" stop-color="#fff" offset="0"/>
   <stop stop-color="#fff" offset="0.95"/>
  </linearGradient>
  <linearGradient xlink:href="#linear-gradient-10" y2="366.35" x2="207.24" y1="263.8" x1="200.77" id="linear-gradient-11"/>
 </defs>
 <title>Social Media 1</title>
 <g>
  <title>background</title>
  <rect fill="none" id="canvas_background" height="470.44" width="367.1" y="-1" x="-1"/>
 </g>
 <g>
  <title>Layer 1</title>
  <path stroke="null" id="svg_1" opacity="0.24" fill="#70a9a1" d="m29.98686,254.92385c-5.23847,-11.34123 -9.83653,-23.46251 -10.75871,-36.37148c-2.5616,-35.87439 22.66373,-64.94252 34.40865,-98.1097c4.84142,-13.67372 7.42863,-28.3875 12.43015,-41.97709c14.85086,-40.34053 50.0344,-66.36495 86.38987,-73.87479c9.88777,-2.04188 20.42874,-2.81428 29.61206,2.01894c11.24541,5.92681 18.4371,19.11873 28.10713,28.15042c28.93964,27.1486 71.8528,12.51895 106.70974,26.66681c27.84456,11.29535 49.95115,46.0685 44.62943,80.61223c-5.20645,33.91663 -33.59535,58.82452 -35.58059,93.22295c-0.89656,15.56265 3.87442,30.78116 4.84142,46.33616c1.9212,30.83469 -12.71193,62.22766 -35.61901,76.62789c-11.52719,7.23453 -24.48887,10.31647 -37.25203,13.30664c-22.31151,5.22324 -47.7866,16.11327 -70.62964,14.84379c-21.13318,-1.17771 -44.14272,-12.8019 -62.82317,-23.96724c-38.3343,-22.8966 -75.07401,-61.08818 -94.4653,-107.48552z"/>
  <path id="svg_2" fill="#70a9a1" d="m154.25,452.65a12,12 0 0 0 -3.31,3.69a4.16,4.16 0 0 0 0.39,4.66c1.23,1.27 3.24,1.25 5,1.07a72.41,72.41 0 0 0 19.33,-4.72c1.86,-0.74 3.84,-1.68 4.76,-3.47a8.88,8.88 0 0 0 0.72,-3.58l0.34,-5.51c0.08,-1.29 -0.09,-2.95 -1.33,-3.31a2.81,2.81 0 0 0 -1,-0.05c-4,0.22 -9.82,-0.59 -13.34,1.47c-4.19,2.47 -7.74,6.69 -11.56,9.75z"/>
  <path id="svg_3" fill="#70a9a1" d="m226.28,456.62a12.24,12.24 0 0 1 2.8,4.09a4.19,4.19 0 0 1 -1,4.57c-1.39,1.1 -3.38,0.81 -5.09,0.4a72.18,72.18 0 0 1 -18.53,-7.24c-1.75,-1 -3.59,-2.17 -4.26,-4.06a9,9 0 0 1 -0.24,-3.65l0.39,-5.51c0.09,-1.29 0.48,-2.91 1.75,-3.1a2.89,2.89 0 0 1 1,0.07c3.9,0.75 9.81,0.72 13,3.23c3.83,3.01 6.8,7.66 10.18,11.2z"/>
  <path id="svg_4" fill="url(#linear-gradient)" d="m154.25,452.65a12,12 0 0 0 -3.31,3.69a4.16,4.16 0 0 0 0.39,4.66c1.23,1.27 3.24,1.25 5,1.07a72.41,72.41 0 0 0 19.33,-4.72c1.86,-0.74 3.84,-1.68 4.76,-3.47a8.88,8.88 0 0 0 0.72,-3.58l0.34,-5.51c0.08,-1.29 -0.09,-2.95 -1.33,-3.31a2.81,2.81 0 0 0 -1,-0.05c-4,0.22 -9.82,-0.59 -13.34,1.47c-4.19,2.47 -7.74,6.69 -11.56,9.75z"/>
  <path id="svg_5" fill="url(#linear-gradient)" d="m226.28,456.62a12.24,12.24 0 0 1 2.8,4.09a4.19,4.19 0 0 1 -1,4.57c-1.39,1.1 -3.38,0.81 -5.09,0.4a72.18,72.18 0 0 1 -18.53,-7.24c-1.75,-1 -3.59,-2.17 -4.26,-4.06a9,9 0 0 1 -0.24,-3.65l0.39,-5.51c0.09,-1.29 0.48,-2.91 1.75,-3.1a2.89,2.89 0 0 1 1,0.07c3.9,0.75 9.81,0.72 13,3.23c3.83,3.01 6.8,7.66 10.18,11.2z"/>
  <path id="svg_6" fill="#606161" d="m161.02,275.88l2.49,65.71l2.5,100.65s4.4,3.18 15.19,0.52l9.76,-103.67l5,-46.58l12.47,50.74l-6.65,99.78s5.82,5 15.8,5l18.3,-104.81l-13.31,-76.49l-61.55,9.15z"/>
  <path id="svg_7" fill="url(#linear-gradient-3)" d="m161.02,275.88l2.49,65.71l2.5,100.65s4.37,1.35 15.19,0.52l9.76,-103.67l5,-46.58l12.47,50.74l-6.65,99.78s5.82,5 15.8,5l18.3,-104.81l-13.31,-76.49l-61.55,9.15z"/>
  <path id="svg_8" fill="#70a9a1" d="m165.18,156.09s-16.44,9 -18.3,10.82c-1.67,1.66 12.47,104 13.31,109s28.28,3.32 39.92,0a129.08,129.08 0 0 0 22.46,-9.15s-5.82,-106.48 -8.31,-108.14s-25.79,-6.66 -25.79,-6.66l-23.29,4.13z"/>
  <path id="svg_9" fill="#70a9a1" d="m214.26,158.59s5,1.66 7.48,5s22.46,43.25 20,51.57s-10.82,10.82 -13.31,9.15s-7.52,-13.28 -8.3,-16.64s-2.44,-14.29 -2.44,-14.29l-3.43,-34.79z"/>
  <path id="svg_10" fill="#70a9a1" d="m238.87,230.87a8,8 0 0 0 3.67,-0.41a11.15,11.15 0 0 0 3.33,-2.39a40.31,40.31 0 0 0 5.43,-5.73a31.45,31.45 0 0 0 3.31,-6.09a71.45,71.45 0 0 0 5.54,-21.5c0.31,-3.13 0.38,-6.41 -0.95,-9.25a2.77,2.77 0 0 0 -0.8,-1.1a2.49,2.49 0 0 0 -2,-0.26c-3.44,0.7 -5.42,4.21 -7.15,7.27a85.38,85.38 0 0 1 -11.86,16.16a73.88,73.88 0 0 0 -6.44,7.27c-2.11,3 -4.54,7.26 -2,10.52a14.29,14.29 0 0 0 9.92,5.51z"/>
  <path id="svg_11" fill="url(#linear-gradient-4)" d="m238.87,230.87a8,8 0 0 0 3.67,-0.41a11.15,11.15 0 0 0 3.33,-2.39a40.31,40.31 0 0 0 5.43,-5.73a31.45,31.45 0 0 0 3.31,-6.09a71.45,71.45 0 0 0 5.54,-21.5c0.31,-3.13 0.38,-6.41 -0.95,-9.25a2.77,2.77 0 0 0 -0.8,-1.1a2.49,2.49 0 0 0 -2,-0.26c-3.44,0.7 -5.42,4.21 -7.15,7.27a85.38,85.38 0 0 1 -11.86,16.16a73.88,73.88 0 0 0 -6.44,7.27c-2.11,3 -4.54,7.26 -2,10.52a14.29,14.29 0 0 0 9.92,5.51z"/>
  <path id="svg_12" fill="#70a9a1" d="m147.66,166.28s-11.6,5.62 -14.09,13.94s-20,49.9 -14.14,55.73c0.5,0.5 1.25,1.32 2.16,2.32a10.23,10.23 0 0 0 17.44,-4.06l10.71,-37.71s2.86,-24.19 -2.08,-30.22z"/>
  <path id="svg_13" fill="#70a9a1" d="m135.01,237.87a2.67,2.67 0 0 1 -1.07,1.3a10.28,10.28 0 0 1 -2.22,1.29l0,0.05a13.72,13.72 0 0 1 -7.7,1.25c-5.14,-0.69 -9.92,-6.3 -13.17,-11.54c-0.55,-0.89 -0.51,-2.93 -0.88,-3.9a5.65,5.65 0 0 1 -0.28,-2.64c0.24,-5.15 -0.23,-13.36 0.24,-18.88a9.14,9.14 0 0 1 0.09,-1.2c0.09,-0.79 0.32,-1.72 1,-1.86a1.87,1.87 0 0 1 1.3,0.33c4.91,2.87 10.38,16.13 13.45,21c2.78,4.32 7.69,8.3 9.18,13.27a2.45,2.45 0 0 1 0.06,1.53z"/>
  <path id="svg_14" fill="url(#linear-gradient-5)" d="m131.86,240.09c-0.05,0.14 -0.1,0.28 -0.14,0.37l0,0.05a13.72,13.72 0 0 1 -7.7,1.25c-5.14,-0.69 -9.92,-6.3 -13.17,-11.54c-0.55,-0.89 -0.51,-2.93 -0.88,-3.9a5.65,5.65 0 0 1 -0.28,-2.64c0.24,-5.15 -0.23,-13.36 0.24,-18.88c4.73,3.67 9.78,15.86 12.7,20.5c2.78,4.31 7.7,8.3 9.18,13.26a2.54,2.54 0 0 1 0.05,1.53z"/>
  <path id="svg_15" fill="#f5e0cd" d="m163.51,146.11s2.5,10.81 1.67,15s5.82,15.81 14.14,15.81s8.32,-14.14 8.32,-15.81s-3.5,-5.16 -2.67,-9.32s-20.62,-10.67 -21.46,-5.68z"/>
  <path id="svg_16" fill="url(#linear-gradient-6)" d="m168.13,158.95a14.3,14.3 0 0 0 2.93,3.15a11.28,11.28 0 0 0 6.84,2.13a6.88,6.88 0 0 0 4.87,-1.72a6.2,6.2 0 0 0 1.38,-3.58a48.46,48.46 0 0 0 0.48,-6.59c0,-1 -0.2,-2.32 -1.37,-2.71a4.11,4.11 0 0 0 -1.91,0a51,51 0 0 1 -11.31,0.54c-2.6,-0.17 -6.08,-0.92 -5.47,1.91a19.42,19.42 0 0 0 3.56,6.87z"/>
  <path id="svg_17" fill="#fff" d="m165.34,159.53s6.7,15.69 12.42,17.36c0,0 1.56,0.83 -2.6,3.33s-15.81,-10 -14.14,-19.14a6.86,6.86 0 0 1 4.14,-5.31l0.18,3.76z"/>
  <path id="svg_18" fill="#fff" d="m184.72,153.47s3.1,14.16 -1.57,22.12c0,0 2,3 3.66,3s5.82,-10 4.15,-17.47c-0.97,-4.41 -5.41,-8.84 -6.24,-7.65z"/>
  <path id="svg_19" stroke-width="2.1" stroke-miterlimit="10" stroke="#000" fill="none" d="m143.55,222.64"/>
  <path id="svg_20" fill="#f5e0cd" d="m187.54,120.35s1.66,21.63 0,27.46s-6.66,10.81 -11.65,10.81s-12.48,-4.16 -15.8,-11.65s-5,-25.78 -4.16,-28.28s5.85,-10.36 19.13,-9.15c9.15,0.83 12.48,7.49 12.48,10.81z"/>
  <path id="svg_21" fill="#f5e0cd" d="m190.9,133.57a7.91,7.91 0 0 1 -0.51,1.72a3.4,3.4 0 0 1 -0.63,1.19a3.36,3.36 0 0 1 -1.51,0.81a1.32,1.32 0 0 1 -0.73,0.08c-1.63,-0.45 -1.43,-4.53 -0.61,-5.64c0.45,-0.6 2.08,-1.9 2.8,-1.67c1.07,0.33 1.32,2.65 1.19,3.51z"/>
  <path id="svg_22" fill="#f5e0cd" d="m156.79,135.68a1.51,1.51 0 0 0 -0.77,-0.4a1.06,1.06 0 0 0 -0.62,0.17a2.15,2.15 0 0 0 -0.94,1.66a5.25,5.25 0 0 0 0.26,2c0.4,1.44 1.05,3 2.4,3.64a0.93,0.93 0 0 0 1,0a1,1 0 0 0 0.28,-0.48a9.3,9.3 0 0 0 0.78,-3.72c-0.16,-1.15 -1.53,-2.16 -2.39,-2.87z"/>
  <path id="svg_23" fill="#70a9a1" d="m250.13,57.9l-139.74,0a10.13,10.13 0 0 0 -10.11,10.13l0,258.27a10.1,10.1 0 0 0 10.11,10.11l139.74,0a10.12,10.12 0 0 0 10.16,-10.11l0,-258.27a10.14,10.14 0 0 0 -10.16,-10.13zm-3.89,247.21l-133.81,0l0,-235.67l133.83,0l-0.02,235.67z"/>
  <circle id="svg_24" fill="#ffffff" r="9.63" cy="319.62" cx="186.36"/>
  <path id="svg_25" fill="none" d="m168.41,161.52a10.16,10.16 0 0 0 2.18,3.06a6.7,6.7 0 0 0 4.86,1.44a5.15,5.15 0 0 0 2.77,-0.89a7.57,7.57 0 0 0 1.39,-1.54a32.92,32.92 0 0 0 4.42,-7a7.48,7.48 0 0 0 0.69,-3.1a3.54,3.54 0 0 0 -1.32,-2.78a5.08,5.08 0 0 0 -2.45,-0.7a33.19,33.19 0 0 0 -7.65,-0.11c-2.16,0.28 -6.2,1.11 -7.32,3.41s1.4,6.24 2.43,8.21z"/>
  <path id="svg_26" fill="#f5e0cd" d="m100.13,179.46a37.13,37.13 0 0 1 11.21,1.13a6.22,6.22 0 0 1 2.08,0.85a2.4,2.4 0 0 1 1.09,1.87c0,1.1 -0.95,1.92 -1.82,2.58a5.75,5.75 0 0 1 1.87,2.15a2,2 0 0 1 -0.76,2.49c-0.24,0.11 -0.55,0.19 -0.62,0.44s0.15,0.48 0.32,0.67a2.65,2.65 0 0 1 -1.37,4.39a1.33,1.33 0 0 1 1.2,1.58a2.14,2.14 0 0 1 -1.54,1.52a6.34,6.34 0 0 1 -2.26,0.15c-2.62,-0.14 -5.34,-0.22 -7.78,0.76a6,6 0 0 1 -2.79,0.77a2.89,2.89 0 0 1 -2.1,-1.56a6.4,6.4 0 0 1 -0.63,-2.63c-0.22,-3.82 1,-7.67 0.37,-11.45c-0.54,-3.14 -0.3,-5.52 3.53,-5.71z"/>
  <path id="svg_27" fill="#f5e0cd" d="m251.83,168.03c-2.14,0.33 -4.39,0.69 -6.12,2s-2.7,3.89 -1.53,5.71c0.36,0.56 0.91,1.06 0.95,1.72a3,3 0 0 1 -0.45,1.43a6.42,6.42 0 0 0 0.62,6.35c-0.72,2.11 -1.17,4.8 0.5,6.27c1.45,1.27 3.67,0.87 5.54,0.4l5,-1.26a4.79,4.79 0 0 0 2.79,-1.43a4.43,4.43 0 0 0 0.65,-1.57c1.39,-5.15 2.23,-11.08 1.43,-16.41s-5.08,-3.88 -9.38,-3.21z"/>
  <path id="svg_28" fill="#606161" d="m160.24,102.23c3.58,-3.19 8,-5.52 10.73,-9.48l0.44,4.32l4.91,-4a5,5 0 0 0 0.35,3a6.41,6.41 0 0 1 2.55,-2.51a8.33,8.33 0 0 0 0.67,3.62a21.07,21.07 0 0 0 3.21,-4a4.84,4.84 0 0 0 0.41,3.69a4,4 0 0 0 2.07,-2.65c1.31,4.68 3.93,8.93 5,13.67c0.87,3.82 0.69,7.8 0.51,11.72a29.67,29.67 0 0 1 -3.16,12c-1.14,-3.72 -1.65,-6.57 -3.18,-10.15a14.48,14.48 0 0 0 -3,-5c-3,-2.89 -7.77,-2.81 -12,-2.47c-3.85,0.31 -8.08,0.88 -10.61,3.79c-2.07,2.39 -2.46,5.8 -2.26,8.95s0.9,6.29 0.62,9.44c-2.72,-3.2 -5.36,-6.68 -6.24,-10.78a11.52,11.52 0 0 1 0.35,-6.24c0.74,-2.06 2.84,-3.1 3.57,-4.86s0,-4.05 0.65,-6a15.53,15.53 0 0 1 4.41,-6.06z"/>
  <path id="svg_29" fill="url(#linear-gradient-8)" d="m160.24,102.23c3.58,-3.19 8,-5.52 10.73,-9.48l0.44,4.32l4.91,-4a5,5 0 0 0 0.35,3a6.41,6.41 0 0 1 2.55,-2.51a8.33,8.33 0 0 0 0.67,3.62a21.07,21.07 0 0 0 3.21,-4a4.84,4.84 0 0 0 0.41,3.69a4,4 0 0 0 2.07,-2.65c1.31,4.68 3.93,8.93 5,13.67c0.87,3.82 0.69,7.8 0.51,11.72a29.67,29.67 0 0 1 -3.16,12c-1.14,-3.72 -1.65,-6.57 -3.18,-10.15a14.48,14.48 0 0 0 -3,-5c-3,-2.89 -7.77,-2.81 -12,-2.47c-3.85,0.31 -8.08,0.88 -10.61,3.79c-2.07,2.39 -2.46,5.8 -2.26,8.95s0.9,6.29 0.62,9.44c-2.72,-3.2 -5.36,-6.68 -6.24,-10.78a11.52,11.52 0 0 1 0.35,-6.24c0.74,-2.06 2.84,-3.1 3.57,-4.86s0,-4.05 0.65,-6a15.53,15.53 0 0 1 4.41,-6.06z"/>
  <path id="svg_33" fill="#70a9a1" d="m135.96,118.58l0,24.93a10.43,10.43 0 0 1 -10.43,10.43l-1.88,0l0,11l-5.69,-11l-43.28,0a10.42,10.42 0 0 1 -10.43,-10.43l0,-24.93a10.42,10.42 0 0 1 10.43,-10.43l50.85,0a10.42,10.42 0 0 1 10.43,10.43z"/>
  <path id="svg_34" fill="url(#linear-gradient-10)" d="m135.96,118.58l0,24.93a10.43,10.43 0 0 1 -10.43,10.43l-1.88,0l0,11l-5.69,-11l-43.28,0a10.42,10.42 0 0 1 -10.43,-10.43l0,-24.93a10.42,10.42 0 0 1 10.43,-10.43l50.85,0a10.42,10.42 0 0 1 10.43,10.43z"/>
  <rect id="svg_35" fill="#70a9a1" height="2.99" width="53.43" y="117.2" x="73.28"/>
  <rect id="svg_36" fill="#70a9a1" height="2.99" width="53.43" y="125.09" x="73.28"/>
  <rect id="svg_37" fill="#70a9a1" height="2.99" width="53.43" y="132.97" x="73.28"/>
  <path id="svg_38" fill="#70a9a1" d="m286.85,107.75c0,14.86 -15.45,26.88 -34.51,26.88a42.13,42.13 0 0 1 -9.51,-1.06l-15.06,7.71l6,-10.9c-9.61,-4.73 -16,-13.08 -16,-22.63c0,-14.85 15.45,-26.87 34.51,-26.87s34.57,12.02 34.57,26.87z"/>
  <path id="svg_39" fill="url(#linear-gradient-11)" d="m286.85,107.75c0,14.86 -15.45,26.88 -34.51,26.88a42.13,42.13 0 0 1 -9.51,-1.06l-15.06,7.71l6,-10.9c-9.61,-4.73 -16,-13.08 -16,-22.63c0,-14.85 15.45,-26.87 34.51,-26.87s34.57,12.02 34.57,26.87z"/>
  <ellipse ry="11" rx="11" id="svg_48" cy="321.17" cx="249.29002" fill-opacity="null" stroke-opacity="null" stroke-width="null" stroke="null" fill="#70a9a1"/>
 </g>
</svg>