<svg width="200" height="200" viewBox="0 0 200 200" fill="none" xmlns="http://www.w3.org/2000/svg">
<g clip-path="url(#clip0)">
<path d="M114.754 49.4565C114.754 39.675 111.837 30.113 106.373 21.98C100.909 13.8469 93.1431 7.50792 84.0568 3.76468C74.9704 0.0214298 64.972 -0.957975 55.3259 0.950315C45.6799 2.85861 36.8194 7.56888 29.865 14.4855C22.9106 21.4021 18.1746 30.2144 16.2559 39.808C14.3371 49.4017 15.3219 59.3457 19.0856 68.3827C22.8493 77.4197 29.2229 85.1438 37.4004 90.5781C45.578 96.0125 55.1921 98.913 65.0271 98.913C78.2087 98.8909 90.8439 93.6732 100.165 84.4031C109.485 75.133 114.732 62.5664 114.754 49.4565ZM108.856 49.4565C108.856 58.0824 106.284 66.5145 101.465 73.6866C96.6468 80.8588 89.7982 86.4488 81.7854 89.7497C73.7726 93.0507 64.9555 93.9144 56.4492 92.2315C47.9429 90.5487 40.1293 86.395 33.9966 80.2956C27.8639 74.1962 23.6874 66.4251 21.9954 57.965C20.3034 49.5049 21.1718 40.7358 24.4908 32.7665C27.8098 24.7973 33.4304 17.9859 40.6417 13.1936C47.853 8.40136 56.3312 5.8435 65.0042 5.8435C76.6306 5.85559 87.7773 10.4544 95.9984 18.6308C104.219 26.8072 108.843 37.8933 108.856 49.4565Z" fill="#CCCCCC"/>
<path d="M140.858 134.176C140.017 134.173 139.185 134.002 138.412 133.675C137.638 133.348 136.938 132.87 136.352 132.27L95.5051 91.058C94.9216 90.4692 94.4605 89.772 94.148 89.0061C93.8356 88.2402 93.6781 87.4206 93.6843 86.5942C93.6905 85.7677 93.8604 84.9506 94.1844 84.1894C94.5083 83.4283 94.9799 82.738 95.5722 82.158C96.1645 81.578 96.8659 81.1196 97.6364 80.8091C98.4069 80.4985 99.2314 80.3419 100.063 80.3481C100.894 80.3543 101.716 80.5232 102.482 80.8452C103.248 81.1672 103.942 81.6359 104.526 82.2247L145.373 123.456C146.25 124.341 146.844 125.463 147.081 126.683C147.318 127.902 147.187 129.164 146.705 130.31C146.222 131.456 145.41 132.434 144.369 133.122C143.329 133.81 142.107 134.177 140.858 134.176V134.176Z" fill="#CCCCCC"/>
<path d="M160.434 147.269C159.024 148.646 157.123 149.411 155.146 149.397C153.169 149.383 151.279 148.59 149.889 147.193L101.795 98.6811C101.529 98.4125 101.285 98.1225 101.067 97.814C100.943 97.6517 100.828 97.4831 100.722 97.3089C100.379 96.7344 100.224 96.068 100.279 95.4022C100.334 94.7364 100.596 94.104 101.028 93.5927C101.959 92.4892 102.975 91.4601 104.067 90.5148C105.326 89.4045 106.691 88.4183 108.141 87.5704C108.735 87.22 109.423 87.0628 110.111 87.1209C110.799 87.179 111.451 87.4495 111.976 87.8944V87.8944C112.123 88.0076 112.26 88.1319 112.388 88.266L160.473 136.768C161.166 137.459 161.716 138.279 162.09 139.181C162.463 140.084 162.654 141.051 162.65 142.026C162.647 143.002 162.449 143.968 162.069 144.868C161.689 145.767 161.133 146.583 160.434 147.269V147.269Z" fill="#473F47"/>
<path d="M145.135 187.929C144.491 187.94 143.849 188.01 143.218 188.138C142.904 188.207 142.608 188.339 142.348 188.526C142.087 188.713 141.868 188.951 141.703 189.225C141.489 189.751 141.468 190.335 141.644 190.875C141.819 191.414 142.179 191.876 142.662 192.179C143.65 192.721 144.776 192.966 145.902 192.884C146.613 192.921 147.324 192.801 147.982 192.531C148.788 192.131 149.468 191.292 150.36 191.397C150.748 191.484 151.12 191.632 151.462 191.836C152.118 192.147 152.868 192.201 153.561 191.985C154.255 191.769 154.841 191.301 155.201 190.673C155.381 190.267 155.481 189.83 155.498 189.387C155.613 187.967 155.143 186.328 153.887 185.728C152.382 185.013 151.462 185.851 150.264 186.528C148.673 187.35 146.925 187.827 145.135 187.929V187.929Z" fill="#D86B7F"/>
<path d="M144.875 180.21L149.668 187.729C149.668 187.729 151.787 188.52 153.052 187.729L154.317 186.976L151.087 175.846L144.875 180.21Z" fill="#FCBDBA"/>
<path d="M130.161 125.267C130.161 125.267 132.126 146.812 133.037 151.948C135.05 162.954 144.09 180.306 144.09 180.306C144.09 180.306 149.775 181.611 151.145 178.619L151.922 176.913C151.922 176.913 142.106 153.901 147.503 134.615C147.647 134.047 147.752 133.471 147.819 132.89C148.114 130.663 148.204 128.415 148.087 126.172L130.161 125.267Z" fill="#473F47"/>
<path d="M127.988 190.73C127.354 190.625 126.712 190.58 126.07 190.597C125.744 190.611 125.424 190.689 125.13 190.829C124.835 190.968 124.571 191.164 124.354 191.407C124.049 191.902 123.929 192.489 124.015 193.064C124.101 193.639 124.387 194.165 124.824 194.551C125.71 195.273 126.79 195.721 127.93 195.838C128.637 195.999 129.371 195.999 130.077 195.838C130.959 195.58 131.793 194.885 132.656 195.123C133.035 195.28 133.385 195.499 133.691 195.771C134.287 196.211 135.03 196.405 135.766 196.312C136.502 196.22 137.174 195.848 137.641 195.275C137.893 194.897 138.074 194.478 138.178 194.037C138.542 192.636 138.379 190.911 137.219 190.082C135.848 189.129 134.775 189.777 133.452 190.235C131.687 190.787 129.824 190.956 127.988 190.73Z" fill="#D86B7F"/>
<path d="M129.135 182.917L132.577 191.302C132.577 191.302 134.552 192.484 135.961 191.959L137.36 191.435L136.152 179.715L129.135 182.917Z" fill="#FCBDBA"/>
<path d="M103.562 97.5947C103.331 97.2898 103.034 96.9563 102.66 97.0039C102.44 97.0039 102.229 97.204 102.009 97.1468C101.874 97.0955 101.757 97.0061 101.673 96.8896C101.147 96.3335 100.562 95.8351 99.9284 95.403C99.5389 95.0657 99.0711 94.8299 98.5671 94.717C98.2138 94.6933 97.861 94.7704 97.5502 94.9392C97.2395 95.108 96.9837 95.3615 96.8129 95.6698C96.4907 96.3339 96.4127 97.0891 96.5924 97.8043C96.7812 98.5032 97.065 99.1732 97.436 99.7959C97.6761 100.256 97.9723 100.685 98.3179 101.073C99.4203 102.216 101.136 102.407 102.545 103.112C102.694 103.202 102.861 103.258 103.034 103.274C103.187 103.252 103.332 103.194 103.457 103.104C103.582 103.015 103.684 102.896 103.753 102.759C104.3 101.985 104.631 101.081 104.712 100.139C104.61 99.1909 104.207 98.2998 103.562 97.5947V97.5947Z" fill="#FCBDBA"/>
<path d="M117.268 88.5041C117.101 88.4574 116.923 88.4744 116.769 88.5518C116.683 88.6215 116.606 88.7015 116.539 88.79C116.242 89.114 115.753 89.1235 115.36 89.295C115.109 89.4267 114.889 89.6093 114.714 89.8309C114.539 90.0525 114.413 90.3082 114.344 90.5814C114.206 91.136 114.145 91.7066 114.162 92.2776C114.136 92.5795 114.169 92.8835 114.258 93.1733C114.303 93.315 114.391 93.4399 114.509 93.5316C114.627 93.6233 114.77 93.6778 114.919 93.6879C115.159 93.6508 115.386 93.5559 115.58 93.4115C115.98 93.192 116.445 93.1179 116.894 93.2019C117.475 93.3831 118.029 93.6394 118.543 93.9642C118.804 94.1186 119.102 94.2 119.405 94.2C119.709 94.2 120.007 94.1186 120.268 93.9642C120.508 93.7581 120.692 93.4962 120.805 93.2019C121.284 92.1727 121.821 90.9912 120.863 90.1431C119.844 89.2695 118.598 88.7012 117.268 88.5041V88.5041Z" fill="#FCBDBA"/>
<path d="M124.34 125.295C124.34 125.295 122.423 147.212 122.423 152.51C122.423 163.887 128.319 182.888 128.319 182.888C128.319 182.888 133.773 185.213 135.681 182.459L136.803 180.887C136.803 180.887 131.156 156.112 140.062 137.768C140.308 137.229 140.514 136.671 140.675 136.101C141.377 133.927 141.877 131.695 142.171 129.431L124.34 125.295Z" fill="#473F47"/>
<path d="M127.015 69.3606C126.283 70.8145 125.816 72.3856 125.635 74.0012C125.552 74.8117 125.685 75.6297 126.022 76.3725C126.358 77.1154 126.886 77.7568 127.552 78.232C127.949 78.4229 128.322 78.6595 128.664 78.9372C129.834 80.1378 128.482 82.3104 129.172 83.8636C129.455 84.4001 129.864 84.8605 130.365 85.2057C130.866 85.5508 131.443 85.7704 132.048 85.8456C133.031 85.9379 134.021 85.7771 134.924 85.3787C135.207 85.3004 135.469 85.1583 135.689 84.9633C135.908 84.7683 136.079 84.5257 136.189 84.2543C136.235 83.8437 136.179 83.4284 136.026 83.0441C135.173 79.7757 137.368 76.3739 136.985 73.0388C136.63 70.1801 133.467 64.7105 129.949 65.2156C128.098 65.4538 127.61 67.998 127.015 69.3606Z" fill="#FCBDBA"/>
<path d="M102.68 103.979C102.68 103.979 116.1 115.862 117.011 115.862C117.922 115.862 122.178 110.554 123.52 108.896L123.903 108.4L124.383 125.295C126.036 126.26 127.756 127.107 129.531 127.83C131.867 128.842 134.342 129.507 136.874 129.802C137.674 129.878 138.48 129.878 139.28 129.802C145.789 129.212 148.646 127.049 148.646 127.049L145.29 93.6974C145.079 91.3362 144.205 89.0814 142.768 87.1897C141.33 85.2979 139.388 83.845 137.161 82.9964C136.329 82.6048 135.395 82.4752 134.487 82.6248C132.632 82.955 130.733 82.955 128.879 82.6248C125.14 82.1293 121.325 87.2082 121.325 87.2082L116.349 103.407L104.683 99.2813C103.906 99.7666 103.297 100.477 102.939 101.317C102.58 102.157 102.49 103.086 102.68 103.979Z" fill="#40798C"/>
<path d="M128.819 67.7122C129.577 68.4078 130.334 68.8461 130.66 69.8752C130.875 70.6435 130.953 71.4433 130.89 72.2384C131.024 72.2384 131.13 72.1336 131.187 72.0002C131.208 71.8662 131.272 71.7425 131.369 71.6476C131.413 71.6261 131.462 71.6142 131.511 71.6128C131.56 71.6114 131.609 71.6205 131.655 71.6394C131.7 71.6584 131.741 71.6868 131.774 71.7227C131.808 71.7586 131.833 71.8012 131.849 71.8477C131.911 72.0396 131.911 72.2465 131.849 72.4385C131.532 73.7058 131.11 74.9351 130.89 76.2501C130.89 76.393 130.89 76.555 130.813 76.6979C130.744 77.1171 130.767 77.5462 130.88 77.9557C131.035 78.3462 131.27 78.7001 131.571 78.9944C131.75 79.2379 131.974 79.445 132.232 79.6042C132.473 79.7233 132.732 79.8037 132.999 79.8425C133.863 79.9425 134.738 79.9232 135.597 79.7853C136.323 79.7105 137.034 79.5274 137.706 79.2421C138.124 79.0399 138.525 78.8041 138.904 78.537C139.823 77.9179 140.683 77.2162 141.473 76.4406C143.39 74.6587 144.023 71.0949 143.985 68.5983C143.985 68.3411 143.985 68.0743 143.985 67.8074C143.923 67.0256 143.742 66.2576 143.448 65.53C142.663 63.8781 141.343 62.5359 139.7 61.7185C136.344 59.9175 131.35 59.0027 128.196 61.89C128.035 62.033 127.893 62.1964 127.774 62.376C126.787 63.8434 127.64 66.6259 128.819 67.7122Z" fill="#1E1E1E"/>
<path d="M130.871 77.9175C131.025 78.308 131.26 78.6619 131.561 78.9562C131.74 79.1997 131.964 79.4068 132.222 79.566C132.464 79.6851 132.722 79.7655 132.989 79.8043C133.854 79.9043 134.728 79.8851 135.587 79.7471C136.313 79.6723 137.024 79.4892 137.696 79.2039C138.114 79.0017 138.515 78.7659 138.894 78.4988C139.813 77.8797 140.673 77.178 141.463 76.4024C143.381 74.6205 144.013 71.0567 143.975 68.5601C143.975 68.3029 143.975 68.0361 143.975 67.7692C143.256 67.2166 142.384 66.9021 141.761 67.5596C141.366 68.1521 141.093 68.8158 140.955 69.513C140.651 70.333 140.272 71.124 139.824 71.8762C139.404 72.6393 138.841 73.3154 138.166 73.8678C136.971 74.6639 135.599 75.1578 134.168 75.3066C134.06 74.7001 134.113 74.0761 134.322 73.4961C133.66 74.2746 132.88 74.9464 132.011 75.4877C131.628 75.7354 131.216 75.9641 130.832 76.25C130.832 76.3929 130.832 76.5549 130.755 76.6978C130.707 77.1079 130.746 77.5235 130.871 77.9175Z" fill="url(#paint0_linear)"/>
<path d="M142.881 64.3483C143.366 64.1385 143.88 64.0035 144.405 63.9481C144.503 63.9213 144.606 63.9194 144.705 63.9427C144.804 63.9661 144.895 64.0138 144.971 64.0815C145.814 64.8432 146.36 65.8754 146.514 66.9974C146.653 67.4671 146.653 67.9665 146.514 68.4362C146.389 68.7367 146.192 69.0018 145.939 69.2081C145.428 69.6672 144.774 69.9377 144.086 69.9742C143.398 70.0106 142.719 69.8108 142.162 69.4082C140.734 68.1789 141.165 65.1678 142.881 64.3483Z" fill="#D86B7F"/>
<path d="M152.015 89.6381C151.985 89.3256 151.872 89.0265 151.689 88.771C151.814 89.0537 151.922 89.3433 152.015 89.6381Z" fill="#F6A569"/>
<path d="M145.885 83.1108C145.855 82.6056 145.929 82.0996 146.104 81.6243C146.279 81.149 146.55 80.7144 146.901 80.3474C146.587 81.5756 146.654 82.8692 147.092 84.0591C147.53 85.2491 148.318 86.2802 149.355 87.0176C149.892 87.3797 150.496 87.6656 151.004 88.0658C151.261 88.2696 151.49 88.5067 151.684 88.771C151.253 87.9128 150.971 86.9881 150.85 86.0362C150.82 85.6899 150.87 85.3413 150.994 85.0166C151.059 84.8547 151.153 84.7062 151.272 84.5782C151.449 84.3854 151.638 84.204 151.838 84.0351C153.388 82.549 154.776 80.9041 155.979 79.1277C157.515 77.293 158.692 75.1891 159.449 72.9244C159.953 70.8563 159.874 68.69 159.219 66.6639C158.658 64.5679 157.447 62.7008 155.758 61.3277C154.782 60.6826 153.673 60.2623 152.512 60.0974C151.351 59.9326 150.167 60.0273 149.048 60.3748C149.048 60.3748 143.248 61.4897 144.14 65.8063C144.37 66.8926 144.629 67.9122 144.821 68.8842C145.434 71.8 145.616 74.3347 143.392 77.2124C141.954 79.0134 143.728 82.2151 145.885 83.1108Z" fill="#1E1E1E"/>
<path d="M152.015 89.6381C151.985 89.3256 151.872 89.0265 151.689 88.771C151.814 89.0537 151.922 89.3433 152.015 89.6381Z" fill="url(#paint1_linear)"/>
<path d="M145.886 83.1108C145.856 82.6056 145.931 82.0996 146.105 81.6243C146.28 81.149 146.551 80.7144 146.902 80.3474C146.589 81.5756 146.655 82.8692 147.093 84.0591C147.531 85.2491 148.32 86.2802 149.356 87.0176C149.893 87.3797 150.497 87.6656 151.005 88.0658C151.262 88.2696 151.491 88.5067 151.686 88.771C151.254 87.9127 150.972 86.9881 150.852 86.0362C150.822 85.6899 150.871 85.3413 150.995 85.0166C151.06 84.8547 151.154 84.7062 151.273 84.5782C150.563 83.3674 150.155 82.0047 150.085 80.6047C149.998 77.746 151.705 74.954 151.427 72.0287C150.504 73.4847 149.254 74.7079 147.774 75.602C148.397 74.0297 146.729 68.1504 144.812 68.8079C145.426 71.7238 145.608 74.2584 143.384 77.1362C141.956 79.0134 143.729 82.2151 145.886 83.1108Z" fill="url(#paint2_linear)"/>
<path d="M123.517 111.547L123.9 111.052L124.379 127.946C126.033 128.911 127.753 129.758 129.527 130.481C131.864 131.494 134.338 132.158 136.87 132.454C136.723 130.468 135.863 128.6 134.445 127.194C133.544 126.307 132.422 125.621 131.569 124.668C130.521 123.341 129.802 121.787 129.47 120.133C127.84 113.786 128.003 107.145 128.166 100.608C127.207 103.057 126.249 105.534 125.29 107.945C124.753 109.174 123.957 110.289 123.517 111.547Z" fill="url(#paint3_linear)" fill-opacity="0.1"/>
<path opacity="0.18" d="M132.883 200.186C106.405 200.186 84.94 194.93 84.94 188.446C84.94 181.962 106.405 176.706 132.883 176.706C159.361 176.706 180.826 181.962 180.826 188.446C180.826 194.93 159.361 200.186 132.883 200.186Z" fill="#40798C" fill-opacity="0.5"/>
<path d="M99.7806 36.4999L64.3058 30.77C63.2535 30.6001 62.2618 31.3112 62.0908 32.3584C61.9198 33.4056 62.6342 34.3923 63.6866 34.5623L99.1614 40.2922C100.214 40.4621 101.205 39.751 101.376 38.7038C101.547 37.6566 100.833 36.6699 99.7806 36.4999Z" fill="#CBCCCC"/>
<path d="M98.4232 44.8134L62.9484 39.0835C61.896 38.9135 60.9043 39.6247 60.7334 40.6719C60.5624 41.7191 61.2768 42.7058 62.3291 42.8758L97.8039 48.6056C98.8563 48.7756 99.848 48.0645 100.019 47.0173C100.19 45.9701 99.4755 44.9833 98.4232 44.8134Z" fill="#CBCCCC"/>
<path d="M95.2064 64.5034L59.7316 58.7736C58.6793 58.6036 57.6876 59.3147 57.5166 60.3619C57.3456 61.4091 58.06 62.3959 59.1123 62.5658L94.5872 68.2957C95.6395 68.4657 96.6312 67.7545 96.8022 66.7073C96.9732 65.6601 96.2587 64.6734 95.2064 64.5034Z" fill="#CBCCCC"/>
<path d="M93.85 72.8169L58.3751 67.0871C57.3228 66.9171 56.3311 67.6282 56.1601 68.6754C55.9891 69.7226 56.7036 70.7093 57.7559 70.8793L93.2307 76.6092C94.283 76.7791 95.2747 76.068 95.4457 75.0208C95.6167 73.9736 94.9023 72.9869 93.85 72.8169Z" fill="#CBCCCC"/>
<path opacity="0.18" d="M34.8458 30.4199C34.356 32.7817 34.5537 35.2292 35.414 37.453C36.2743 39.6768 37.7585 41.577 39.6789 42.9132C41.5994 44.2494 43.8698 44.9617 46.203 44.96C48.5363 44.9583 50.8276 44.2426 52.7872 42.9035C54.7468 41.5644 56.2868 39.6619 57.2123 37.4368C58.1378 35.2117 58.4073 32.7638 57.9867 30.4026C57.5661 28.0415 56.4743 25.8732 54.8494 24.1719C53.2245 22.4706 51.1394 21.3127 48.8579 20.8447C45.7985 20.2171 42.6034 20.8733 39.9756 22.669C37.3479 24.4647 35.5026 27.2528 34.8458 30.4199Z" fill="#8E8F8F"/>
<path opacity="0.34" d="M46.1819 35.3765C44.2961 34.9897 43.0956 33.0935 43.5004 31.1414C43.9053 29.1892 45.7622 27.9203 47.648 28.3071C49.5338 28.694 50.7343 30.5901 50.3295 32.5423C49.9246 34.4944 48.0677 35.7634 46.1819 35.3765Z" fill="#8E8F8F"/>
<path opacity="0.34" d="M37.307 40.727C39.0704 42.8846 41.5204 44.3248 44.2314 44.7975C46.9425 45.2703 49.7434 44.7457 52.148 43.315C51.9731 41.5743 51.2556 39.9479 50.1031 38.6789C48.9505 37.41 47.4247 36.5667 45.754 36.2754C44.0834 35.9841 42.3576 36.2603 40.8349 37.0628C39.3122 37.8652 38.0745 39.1507 37.307 40.727V40.727Z" fill="#8E8F8F"/>
<path opacity="0.18" d="M29.753 58.0334C29.2632 60.3952 29.461 62.8428 30.3213 65.0666C31.1815 67.2904 32.6658 69.1905 34.5862 70.5268C36.5066 71.863 38.777 72.5753 41.1102 72.5735C43.4435 72.5718 45.7348 71.8561 47.6944 70.517C49.6541 69.1779 51.194 67.2755 52.1195 65.0504C53.045 62.8252 53.3145 60.3773 52.8939 58.0162C52.4733 55.655 51.3815 53.4867 49.7566 51.7854C48.1317 50.0841 46.0467 48.9262 43.7651 48.4582C40.7057 47.8306 37.5106 48.4868 34.8829 50.2825C32.2551 52.0782 30.4098 54.8663 29.753 58.0334Z" fill="#8E8F8F"/>
<path opacity="0.34" d="M41.0891 62.9898C39.2033 62.603 38.0028 60.7068 38.4076 58.7547C38.8125 56.8025 40.6694 55.5336 42.5552 55.9204C44.441 56.3073 45.6415 58.2034 45.2367 60.1556C44.8318 62.1077 42.9749 63.3767 41.0891 62.9898Z" fill="#8E8F8F"/>
<path opacity="0.34" d="M32.2142 68.3403C33.9777 70.4979 36.4276 71.938 39.1386 72.4108C41.8497 72.8835 44.6507 72.359 47.0552 70.9283C46.8803 69.1876 46.1629 67.5612 45.0103 66.2922C43.8577 65.0232 42.332 64.18 40.6613 63.8887C38.9906 63.5974 37.2648 63.8736 35.7421 64.676C34.2195 65.4785 32.9818 66.764 32.2142 68.3403V68.3403Z" fill="#8E8F8F"/>
</g>
<defs>
<linearGradient id="paint0_linear" x1="-1063.49" y1="2055.58" x2="-898.784" y2="2426.54" gradientUnits="userSpaceOnUse">
<stop offset="0.01"/>
<stop offset="0.13" stop-opacity="0.69"/>
<stop offset="0.25" stop-opacity="0.32"/>
<stop offset="1" stop-opacity="0"/>
</linearGradient>
<linearGradient id="paint1_linear" x1="128.902" y1="248.3" x2="128.377" y2="248.519" gradientUnits="userSpaceOnUse">
<stop offset="0.01"/>
<stop offset="0.13" stop-opacity="0.69"/>
<stop offset="0.25" stop-opacity="0.32"/>
<stop offset="1" stop-opacity="0"/>
</linearGradient>
<linearGradient id="paint2_linear" x1="-416.988" y1="2929.38" x2="-1172.88" y2="3892.16" gradientUnits="userSpaceOnUse">
<stop offset="0.01"/>
<stop offset="0.13" stop-opacity="0.69"/>
<stop offset="0.25" stop-opacity="0.32"/>
<stop offset="1" stop-opacity="0"/>
</linearGradient>
<linearGradient id="paint3_linear" x1="-879.74" y1="6251.91" x2="-1859.3" y2="6710.65" gradientUnits="userSpaceOnUse">
<stop offset="0.01"/>
<stop offset="0.13" stop-opacity="0.69"/>
<stop offset="0.25" stop-opacity="0.32"/>
<stop offset="1" stop-opacity="0"/>
</linearGradient>
<clipPath id="clip0">
<rect width="200" height="200" fill="white" transform="matrix(-1 0 0 1 200 0)"/>
</clipPath>
</defs>
</svg>
