<svg width="91" height="150" viewBox="0 0 91 150" fill="none" xmlns="http://www.w3.org/2000/svg">
<g clip-path="url(#clip0)">
<g clip-path="url(#clip1)">
<path d="M38.8329 4.35777C30.7003 8.84971 26.2478 17.9648 28.5104 27.3148C29.408 30.4338 24.9315 31.6873 24.298 28.4948C24.1455 27.8586 24.0453 27.2191 23.9407 26.5834C12.763 49.6437 11.9051 79.6378 22.2641 105.101H30.0934C30.1849 105.101 30.2764 105.101 30.3635 105.101H68.7945C68.9688 105.054 69.1518 105.026 69.3304 105.026L74.9559 105.073C75.9715 98.6415 75.4269 91.6926 72.8453 85.8366C70.0228 79.4339 65.1567 74.3941 57.9444 72.4426C49.8951 70.2649 45.5075 67.8418 42.5922 65.0187C39.7496 62.2658 38.5183 59.4427 36.6181 56.7446L33.6675 54.1572C33.6239 54.1104 33.5847 54.1101 33.5499 54.0726C31.4999 52.0157 34.23 48.6464 36.409 50.5441L36.5179 50.6515C43.0745 57.1924 55.2936 58.5702 63.8435 53.5138C65.5999 52.4708 67.6229 54.3168 66.9497 56.3474C70.6606 58.3575 76.0107 58.5578 79.7395 56.3474C76.6669 54.6103 73.5867 52.0429 70.915 49.9425C69.2005 48.6398 68.8243 48.0873 69.5913 47.1236C70.3583 46.1598 71.4602 46.7453 73.1212 48.0512C76.0483 50.3524 78.0258 52.3462 81.505 54.198C83.4539 51.5144 85.0835 47.2766 84.2844 43.9516C83.1106 39.0693 78.8324 35.3599 73.4936 34.9278C73.4152 34.9278 73.3411 34.8812 73.2627 34.8718C64.921 33.2372 58.2939 27.8365 55.1193 20.5818C49.8886 20.3524 44.8919 18.3997 41.0184 14.895C41.062 16.0456 41.1447 17.1031 41.3495 17.8572C42.3068 20.9304 37.9105 22.3157 37.1711 19.1738C36.2979 15.9719 36.4434 11.9383 37.3323 7.8737C37.6591 6.3767 38.3627 5.62296 38.8298 4.3352L38.8329 4.35777ZM48.413 30.5563C51.3179 30.7154 51.3192 36.0437 48.413 35.8855H45.9463C43 35.9323 43 30.5114 45.9463 30.5563H47.8555C48.1804 30.5563 47.6241 30.5131 48.413 30.5563Z" fill="#40798C"/>
<path d="M6.17294 100.447C2.23193 75.9695 7.61339 47.8478 18.5977 28.3113V28.3216C9.28739 50.1162 8.28004 76.6829 16.0958 100.494L6.17294 100.447Z" fill="#EA6F8C"/>
<path d="M28.9091 119.19H71.7142C74.1655 119.19 76.0713 121.238 76.0713 123.871C76.0713 126.489 74.186 128.496 71.7569 128.543H24.4753C22.0454 128.517 20.1609 126.489 20.1609 123.871C20.1609 121.238 22.0663 119.19 24.518 119.19H28.4067H28.9091Z" fill="#40798C"/>
<path d="M30.8322 109.8H65.6973V114.509H30.8322V109.8Z" fill="#40798C"/>
<path d="M71.7144 133.233H80.3947V133.238C83.3322 133.238 85.3047 135.254 85.3047 137.352V138.459V138.575V140.916V142.57H80.3947H16.1357H11.2339V140.916H11.2775L11.2339 138.575V138.529C11.2344 138.533 11.2339 138.528 11.2339 138.453V137.348C11.2339 135.249 13.1985 133.233 16.1357 133.233H24.5183H71.7144Z" fill="#40798C"/>
</g>
</g>
<defs>
<clipPath id="clip0">
<rect width="91" height="150" fill="white" transform="matrix(-1 0 0 1 91 0)"/>
</clipPath>
<clipPath id="clip1">
<rect width="81.1855" height="139.013" fill="white" transform="matrix(-1 0 0 1 85.8008 4.07757)"/>
</clipPath>
</defs>
</svg>
