<svg width="135" height="135" viewBox="0 0 135 135" fill="none" xmlns="http://www.w3.org/2000/svg">
<g clip-path="url(#clip0)">
<path d="M58.8754 -3.71983C51.062 0.771688 46.7841 9.88594 48.958 19.235C49.8204 22.3537 45.5195 23.607 44.9109 20.4149C44.7643 19.7788 44.6681 19.1393 44.5676 18.5037C33.8285 41.5618 33.0042 71.553 42.9568 97.0136H50.4788C50.5668 97.0136 50.6547 97.0136 50.7384 97.0136H87.6614C87.8288 96.9668 88.0047 96.9388 88.1763 96.9388L93.581 96.9856C94.5568 90.5549 94.0335 83.6067 91.5533 77.7512C88.8415 71.3491 84.1664 66.3098 77.2371 64.3585C69.5036 62.181 65.2882 59.7582 62.4872 56.9353C59.7562 54.1826 58.5732 51.3599 56.7476 48.662L53.9127 46.0748C53.8709 46.028 53.8332 46.0277 53.7997 45.9903C51.8301 43.9336 54.4532 40.5646 56.5466 42.4621L56.6513 42.5695C62.9506 49.1097 74.6902 50.4875 82.9047 45.4315C84.5921 44.3886 86.5358 46.2344 85.889 48.2649C89.4543 50.2747 94.5944 50.475 98.1769 48.2649C95.2249 46.5279 92.2656 43.9607 89.6987 41.8605C88.0514 40.5579 87.6901 40.0056 88.427 39.0419C89.1639 38.0782 90.2225 38.6636 91.8184 39.9694C94.6306 42.2704 96.5305 44.264 99.8731 46.1156C101.746 43.4323 103.311 39.1949 102.544 35.8703C101.416 30.9884 97.3054 27.2793 92.1762 26.8473C92.1008 26.8473 92.0296 26.8006 91.9543 26.7913C83.9399 25.1568 77.5728 19.7566 74.5228 12.5026C69.4973 12.2733 64.6967 10.3208 60.9752 6.81641C61.017 7.9669 61.0966 9.02431 61.2933 9.77836C62.213 12.8512 57.9892 14.2364 57.2788 11.0948C56.4399 7.89324 56.5797 3.85995 57.4337 -0.204226C57.7477 -1.70109 58.4237 -2.45476 58.8725 -3.7424L58.8754 -3.71983ZM68.0797 22.4762C70.8706 22.6353 70.8718 27.9631 68.0797 27.8049H65.7097C62.879 27.8517 62.879 22.4313 65.7097 22.4762H67.544C67.8562 22.4762 67.3217 22.433 68.0797 22.4762Z" fill="#40798C"/>
<path d="M27.4974 92.3604C23.711 67.885 28.8813 39.766 39.4346 20.2315V20.2417C30.4896 42.0342 29.5218 68.5984 37.0309 92.4073L27.4974 92.3604Z" fill="#EA6F8C"/>
<path d="M49.3407 111.102H90.4662C92.8213 111.102 94.6523 113.149 94.6523 115.782C94.6523 118.399 92.841 120.406 90.5072 120.453H45.0809C42.7463 120.428 40.9358 118.399 40.9358 115.782C40.9358 113.149 42.7664 111.102 45.1219 111.102H48.8581H49.3407Z" fill="#40798C"/>
<path d="M51.1885 101.712H84.6855V106.421H51.1885V101.712Z" fill="#40798C"/>
<path d="M90.4664 125.144H98.8061V125.148C101.628 125.148 103.523 127.164 103.523 129.262V130.368V130.485V132.825V134.48H98.8061H37.0684H32.359V132.825H32.4009L32.359 130.485V130.438C32.3595 130.443 32.359 130.438 32.359 130.363V129.257C32.359 127.159 34.2466 125.144 37.0684 125.144H45.1222H90.4664Z" fill="#40798C"/>
</g>
<defs>
<clipPath id="clip0">
<rect width="135" height="135" fill="white" transform="matrix(-1 0 0 1 135 0)"/>
</clipPath>
</defs>
</svg>
