<svg width="354" height="323" viewBox="0 0 354 323" fill="none" xmlns="http://www.w3.org/2000/svg">
<path d="M234.33 304.46H112.29L133.58 261.32H218.18L234.33 304.46Z" fill="#DCDCDC"/>
<path d="M231.87 298.18H115.15L133.58 261.32H218.18L231.87 298.18Z" fill="url(#paint0_linear)"/>
<path d="M245.61 301.35H102.31V311.8H245.61V301.35Z" fill="#DCDCDC"/>
<path d="M353.5 11.8901V258.6C353.515 260.095 353.234 261.579 352.675 262.966C352.116 264.353 351.289 265.616 350.242 266.683C349.194 267.75 347.946 268.6 346.57 269.185C345.194 269.769 343.716 270.077 342.22 270.09H12.2203C9.19852 270.064 6.31089 268.839 4.19199 266.684C2.07309 264.53 0.896312 261.622 0.920285 258.6V11.8901C0.896215 8.86268 2.07109 5.94874 4.18831 3.78467C6.30554 1.62061 9.19306 0.382261 12.2203 0.340088H342.22C345.246 0.382263 348.131 1.62126 350.245 3.7859C352.359 5.95055 353.53 8.86453 353.5 11.8901Z" fill="#DCDCDC"/>
<path d="M353.51 11.8901V218.2H0.930327V11.8901C0.89831 8.86204 2.06922 5.94504 4.18598 3.77953C6.30274 1.61402 9.19233 0.37701 12.2203 0.340088H342.22C345.248 0.37701 348.138 1.61402 350.255 3.77953C352.371 5.94504 353.542 8.86204 353.51 11.8901Z" fill="url(#paint1_linear)"/>
<path d="M342.04 14.8799H13.8701V209.24H342.04V14.8799Z" fill="white"/>
<path opacity="0.2" d="M252.01 80.34C248.8 95.93 235.27 107.64 219.07 107.64C200.43 107.64 185.34 92.21 185.34 73.18C185.325 68.5687 186.226 64.0004 187.99 59.74C187.502 62.0988 187.258 64.5013 187.26 66.91C187.26 85.91 202.35 101.37 220.96 101.37C227.637 101.337 234.154 99.3208 239.683 95.5763C245.211 91.8318 249.502 86.5285 252.01 80.34Z" fill="#231F20"/>
<path d="M174.54 251.69C178.837 251.69 182.32 248.126 182.32 243.73C182.32 239.334 178.837 235.77 174.54 235.77C170.243 235.77 166.76 239.334 166.76 243.73C166.76 248.126 170.243 251.69 174.54 251.69Z" fill="url(#paint2_linear)"/>
<path opacity="0.2" d="M280.39 91.3999L274.26 92.9399L275.46 111.45H244.46L243.17 91.3999L237.06 92.9399L248.37 270.09H254.6L253.55 253.92H284.55L285.6 270.09H291.79L280.39 91.3999ZM244.8 117.34H275.8L277.18 138.77H246.18L244.8 117.34ZM246.54 144.64H277.54L278.92 166.1H247.92L246.54 144.64ZM248.29 171.97H279.29L280.67 193.44H249.67L248.29 171.97ZM251.47 221.57L250.03 199.34H281.03L282.42 220.77H251.6L251.47 221.57ZM253.16 248.07L251.77 226.61H282.77L284.15 248.07H253.16Z" fill="#231F20"/>
<path opacity="0.07" d="M290.7 196.56C291.175 188.635 288.579 180.831 283.45 174.77C282.45 178.39 283.26 182.22 283.29 185.97C283.32 189.72 282.29 193.97 279.03 195.74C275.5 193.16 274.6 188.28 273.97 183.9C271.676 167.76 269.38 151.62 267.08 135.48C264.77 136.6 261.92 135.65 260.03 133.88C258.14 132.11 257.03 129.68 255.96 127.31C251.15 116.71 246.26 105.74 245.89 94.0699C247.7 96.5499 249.57 99.0699 252.12 100.75C254.67 102.43 258.12 103.05 260.74 101.52C262.378 100.395 263.714 98.8838 264.63 97.1199C266.44 94.1699 268.17 90.8599 267.75 87.3999C267.418 85.6529 266.88 83.9511 266.15 82.3299C263.84 76.1699 263.49 69.4499 263.15 62.8599C263.024 61.9308 263.149 60.9851 263.51 60.1199C264.067 59.2548 264.932 58.6331 265.93 58.3799C268.605 57.6048 271.474 57.8608 273.969 59.0975C276.465 60.3342 278.406 62.4617 279.41 65.0599C280.53 68.1899 280.22 71.6299 280.41 74.9499C281.09 84.8299 286.56 93.6999 288.48 103.41C289.99 111.03 289.26 118.9 288.53 126.64L284.25 172.16" fill="#231F20"/>
<path d="M237.6 92.9699L296.1 320.26C296.193 320.647 296.363 321.012 296.599 321.333C296.834 321.654 297.132 321.924 297.473 322.129C297.815 322.334 298.194 322.469 298.588 322.525C298.982 322.582 299.384 322.56 299.77 322.46C300.549 322.24 301.212 321.723 301.614 321.02C302.016 320.316 302.126 319.483 301.92 318.7L292.92 283.88H323.92L333.28 320.26C333.373 320.647 333.543 321.012 333.779 321.333C334.014 321.654 334.312 321.924 334.653 322.129C334.995 322.334 335.374 322.469 335.768 322.525C336.163 322.582 336.564 322.56 336.95 322.46C337.729 322.24 338.392 321.723 338.794 321.02C339.196 320.316 339.306 319.483 339.1 318.7L280.61 91.3999L274.8 92.9699L279.62 111.72H248.62L243.39 91.3999L237.6 92.9699ZM278.7 228.48H309.7L315.3 250.23H284.3L278.7 228.48ZM271.6 200.77H302.6L308.19 222.52H277.38V223.34L271.6 200.77ZM264.48 173.07H295.48L301.08 194.82H270.08L264.48 173.07ZM257.32 145.34H288.32L293.92 167.09H262.92L257.32 145.34ZM250.19 117.64H281.19L286.79 139.39H255.79L250.19 117.64ZM322.45 277.9H291.45L285.85 256.15H316.85L322.45 277.9Z" fill="#B89D8E"/>
<path d="M270.03 95.2599C269.089 97.2601 267.519 98.8969 265.56 99.9199L257.31 105.12C256.955 105.31 256.655 105.589 256.44 105.93C256.347 106.24 256.323 106.567 256.367 106.888C256.412 107.209 256.526 107.517 256.7 107.79C257.135 108.89 257.728 109.921 258.46 110.85C258.825 111.31 259.288 111.681 259.816 111.938C260.344 112.194 260.923 112.328 261.51 112.33C262.543 112.173 263.516 111.745 264.33 111.09L273.72 104.73C274.4 104.347 274.976 103.805 275.4 103.15C275.669 102.574 275.813 101.946 275.82 101.31C276.081 98.3873 275.65 95.4442 274.56 92.7199C272.74 88.7199 271.33 92.9999 270.03 95.2599Z" fill="#40798C"/>
<path d="M270.03 95.2599C269.089 97.2601 267.519 98.8969 265.56 99.9199L257.31 105.12C256.955 105.31 256.655 105.589 256.44 105.93C256.347 106.24 256.323 106.567 256.367 106.888C256.412 107.209 256.526 107.517 256.7 107.79C257.135 108.89 257.728 109.921 258.46 110.85C258.825 111.31 259.288 111.681 259.816 111.938C260.344 112.194 260.923 112.328 261.51 112.33C262.543 112.173 263.516 111.745 264.33 111.09L273.72 104.73C274.4 104.347 274.976 103.805 275.4 103.15C275.669 102.574 275.813 101.946 275.82 101.31C276.081 98.3873 275.65 95.4442 274.56 92.7199C272.74 88.7199 271.33 92.9999 270.03 95.2599Z" fill="#C85771"/>
<path d="M253.4 109.72C253.103 109.962 252.761 110.142 252.393 110.249C252.025 110.357 251.639 110.389 251.259 110.344C250.878 110.299 250.511 110.178 250.178 109.989C249.845 109.799 249.553 109.544 249.32 109.24L240.09 97.34C239.609 96.7202 239.39 95.9366 239.48 95.1571C239.569 94.3775 239.961 93.6642 240.57 93.17C240.867 92.9286 241.209 92.7494 241.577 92.6432C241.944 92.5369 242.33 92.5057 242.709 92.5514C243.089 92.5972 243.456 92.7189 243.788 92.9093C244.119 93.0998 244.409 93.3551 244.64 93.66L253.87 105.59C254.341 106.206 254.554 106.98 254.467 107.75C254.379 108.519 253.997 109.226 253.4 109.72Z" fill="#40798C"/>
<path d="M253.4 109.72C253.103 109.962 252.761 110.142 252.393 110.249C252.025 110.357 251.639 110.389 251.259 110.344C250.878 110.299 250.511 110.178 250.178 109.989C249.845 109.799 249.553 109.544 249.32 109.24L240.09 97.34C239.609 96.7202 239.39 95.9366 239.48 95.1571C239.569 94.3775 239.961 93.6642 240.57 93.17C240.867 92.9286 241.209 92.7494 241.577 92.6432C241.944 92.5369 242.33 92.5057 242.709 92.5514C243.089 92.5972 243.456 92.7189 243.788 92.9093C244.119 93.0998 244.409 93.3551 244.64 93.66L253.87 105.59C254.341 106.206 254.554 106.98 254.467 107.75C254.379 108.519 253.997 109.226 253.4 109.72Z" fill="url(#paint3_linear)"/>
<path d="M270.51 131.34C269.969 131.781 269.344 132.108 268.674 132.302C268.004 132.497 267.302 132.555 266.609 132.473C265.916 132.391 265.246 132.17 264.64 131.825C264.034 131.479 263.503 131.015 263.08 130.46L246.24 108.67C245.37 107.538 244.975 106.112 245.137 104.694C245.3 103.276 246.007 101.976 247.11 101.07C247.652 100.631 248.277 100.306 248.948 100.113C249.618 99.92 250.32 99.8633 251.013 99.9462C251.705 100.029 252.374 100.25 252.98 100.596C253.586 100.942 254.116 101.406 254.54 101.96L271.38 123.74C272.254 124.87 272.653 126.297 272.49 127.717C272.328 129.137 271.617 130.437 270.51 131.34Z" fill="#40798C"/>
<path d="M270.51 131.34C269.969 131.781 269.344 132.108 268.674 132.302C268.004 132.497 267.302 132.555 266.609 132.473C265.916 132.391 265.246 132.17 264.64 131.825C264.034 131.479 263.503 131.015 263.08 130.46L246.24 108.67C245.37 107.538 244.975 106.112 245.137 104.694C245.3 103.276 246.007 101.976 247.11 101.07C247.652 100.631 248.277 100.306 248.948 100.113C249.618 99.92 250.32 99.8633 251.013 99.9462C251.705 100.029 252.374 100.25 252.98 100.596C253.586 100.942 254.116 101.406 254.54 101.96L271.38 123.74C272.254 124.87 272.653 126.297 272.49 127.717C272.328 129.137 271.617 130.437 270.51 131.34Z" fill="url(#paint4_linear)"/>
<path d="M220.38 32.55C200.94 32.55 185.1 48.73 185.1 68.62C185.1 88.51 200.94 104.7 220.38 104.7C239.82 104.7 255.65 88.5201 255.65 68.62C255.65 48.72 239.83 32.55 220.38 32.55ZM220.76 100.41C203.64 100.41 189.76 86.1701 189.76 68.6701C189.76 51.1701 203.68 36.9201 220.76 36.9201C237.84 36.9201 251.76 51.1701 251.76 68.6701C251.76 86.1701 237.87 100.41 220.76 100.41Z" fill="#40798C"/>
<path d="M220.38 32.55C200.94 32.55 185.1 48.73 185.1 68.62C185.1 88.51 200.94 104.7 220.38 104.7C239.82 104.7 255.65 88.5201 255.65 68.62C255.65 48.72 239.83 32.55 220.38 32.55ZM220.76 100.41C203.64 100.41 189.76 86.1701 189.76 68.6701C189.76 51.1701 203.68 36.9201 220.76 36.9201C237.84 36.9201 251.76 51.1701 251.76 68.6701C251.76 86.1701 237.87 100.41 220.76 100.41Z" fill="url(#paint5_linear)"/>
<path d="M295.54 155.44C294.28 163.24 296.1 171.31 299.4 178.44C300.102 179.712 300.579 181.096 300.81 182.53C300.922 183.248 300.825 183.984 300.531 184.649C300.237 185.314 299.757 185.88 299.15 186.28C297.64 187.09 295.78 186.28 294.41 185.2C290.41 182.2 287.98 177.48 286.07 172.79C282.854 164.865 280.809 156.514 280 148C279.483 144.198 279.693 140.333 280.62 136.61C281.606 133.552 283.164 130.708 285.21 128.23C286.301 126.715 287.681 125.43 289.27 124.45C290.558 123.808 291.991 123.511 293.428 123.588C294.865 123.665 296.258 124.114 297.47 124.89C300.47 126.75 300.84 128.89 300.82 132.22C300.78 140.34 296.8 147.53 295.54 155.44Z" fill="#366372"/>
<path d="M286.44 154.07C285.163 155.898 284.103 157.868 283.28 159.94C282.653 162.187 282.39 164.52 282.5 166.85C282.521 170.799 282.748 174.744 283.18 178.67C283.43 180.89 283.73 183.25 282.89 185.27C282.05 187.29 279.55 188.64 277.96 187.27C277.406 186.701 276.983 186.019 276.72 185.27C271.101 172.323 269.177 158.073 271.16 144.1C271.83 139.47 272.96 134.81 275.35 130.96C277.74 127.11 281.58 124.13 285.79 123.96C288.05 123.87 291.87 124.74 293.35 126.89C294.83 129.04 293.82 132.78 293.35 135.36C292.243 141.976 289.899 148.323 286.44 154.07Z" fill="#606161"/>
<path d="M286.44 154.07C285.163 155.898 284.103 157.868 283.28 159.94C282.653 162.187 282.39 164.52 282.5 166.85C282.521 170.799 282.748 174.744 283.18 178.67C283.43 180.89 283.73 183.25 282.89 185.27C282.05 187.29 279.55 188.64 277.96 187.27C277.406 186.701 276.983 186.019 276.72 185.27C271.101 172.323 269.177 158.073 271.16 144.1C271.83 139.47 272.96 134.81 275.35 130.96C277.74 127.11 281.58 124.13 285.79 123.96C288.05 123.87 291.87 124.74 293.35 126.89C294.83 129.04 293.82 132.78 293.35 135.36C292.243 141.976 289.899 148.323 286.44 154.07Z" fill="#40798C"/>
<path d="M250.14 107.78C249.72 108.47 250.76 109.53 250.14 110.11C249.79 110.47 249.19 110.21 248.7 110.31C248.395 110.412 248.136 110.619 247.968 110.893C247.8 111.167 247.733 111.492 247.78 111.81C247.894 112.448 248.154 113.05 248.54 113.57L249.64 115.29C249.789 115.546 249.97 115.782 250.18 115.99C250.413 116.196 250.68 116.359 250.97 116.47C251.57 116.696 252.214 116.778 252.852 116.71C253.489 116.642 254.101 116.427 254.64 116.08C254.874 115.941 255.078 115.758 255.24 115.54C255.395 115.33 255.507 115.093 255.57 114.84C255.717 114.023 255.68 113.184 255.463 112.383C255.245 111.582 254.851 110.84 254.31 110.21C253.5 109.28 251.44 107.68 250.14 107.78Z" fill="#C8A59C"/>
<path d="M269.69 58.5399C269.205 61.0627 269.154 63.65 269.54 66.1899L270.01 71.0699C270.021 72.2461 270.335 73.3997 270.92 74.4199C272.11 76.1499 274.49 76.3599 276.55 76.4199L276.95 80.4699C276.963 81.0047 277.093 81.5303 277.33 82.0099C277.646 82.4402 278.083 82.7656 278.586 82.944C279.089 83.1223 279.634 83.1453 280.15 83.0099C283.15 82.4599 284.85 79.2799 285.69 76.3199C286.861 72.1375 287.069 67.7444 286.3 63.4699C285.897 60.3889 284.541 57.5112 282.42 55.2399C278.11 51.0999 271.21 52.5599 269.69 58.5399Z" fill="#C8A59C"/>
<path d="M275.54 47.6401C273.18 47.2501 270.54 46.64 268.54 47.98C267.627 48.6795 266.963 49.6544 266.648 50.7604C266.333 51.8664 266.383 53.0445 266.79 54.12C267.218 55.1766 267.873 56.1267 268.707 56.9039C269.541 57.6812 270.535 58.2669 271.62 58.62C273.83 59.41 276.62 59.7401 277.53 61.9501C278.1 63.41 277.53 65.2201 278.38 66.5301L280.38 63.22C280.434 63.0979 280.529 62.9988 280.65 62.94C280.723 62.9214 280.799 62.9188 280.873 62.9326C280.948 62.9465 281.018 62.9763 281.08 63.0201C281.661 63.3365 282.142 63.8092 282.469 64.3849C282.796 64.9606 282.956 65.6162 282.93 66.2777C282.904 66.9392 282.693 67.5803 282.322 68.1285C281.951 68.6767 281.434 69.1102 280.83 69.3801C281.754 70.0823 282.469 71.0231 282.899 72.1013C283.329 73.1796 283.457 74.3545 283.27 75.5001C283.839 75.7513 284.47 75.8293 285.083 75.7244C285.697 75.6194 286.266 75.3362 286.72 74.9101C287.61 74.0282 288.294 72.959 288.72 71.7801C289.391 70.2432 289.959 68.6629 290.42 67.05C291.111 64.9919 291.363 62.8117 291.16 60.65C291.055 59.5772 290.705 58.5426 290.138 57.6256C289.572 56.7086 288.802 55.9336 287.89 55.36C287.194 55.195 286.578 54.7917 286.149 54.2199C285.719 53.6481 285.504 52.9441 285.54 52.23C284.5 46.88 279.53 48.3401 275.54 47.6401Z" fill="#606161"/>
<path d="M275.54 47.6401C273.18 47.2501 270.54 46.64 268.54 47.98C267.627 48.6795 266.963 49.6544 266.648 50.7604C266.333 51.8664 266.383 53.0445 266.79 54.12C267.218 55.1766 267.873 56.1267 268.707 56.9039C269.541 57.6812 270.535 58.2669 271.62 58.62C273.83 59.41 276.62 59.7401 277.53 61.9501C278.1 63.41 277.53 65.2201 278.38 66.5301L280.38 63.22C280.434 63.0979 280.529 62.9988 280.65 62.94C280.723 62.9214 280.799 62.9188 280.873 62.9326C280.948 62.9465 281.018 62.9763 281.08 63.0201C281.661 63.3365 282.142 63.8092 282.469 64.3849C282.796 64.9606 282.956 65.6162 282.93 66.2777C282.904 66.9392 282.693 67.5803 282.322 68.1285C281.951 68.6767 281.434 69.1102 280.83 69.3801C281.754 70.0823 282.469 71.0231 282.899 72.1013C283.329 73.1796 283.457 74.3545 283.27 75.5001C283.839 75.7513 284.47 75.8293 285.083 75.7244C285.697 75.6194 286.266 75.3362 286.72 74.9101C287.61 74.0282 288.294 72.959 288.72 71.7801C289.391 70.2432 289.959 68.6629 290.42 67.05C291.111 64.9919 291.363 62.8117 291.16 60.65C291.055 59.5772 290.705 58.5426 290.138 57.6256C289.572 56.7086 288.802 55.9336 287.89 55.36C287.194 55.195 286.578 54.7917 286.149 54.2199C285.719 53.6481 285.504 52.9441 285.54 52.23C284.5 46.88 279.53 48.3401 275.54 47.6401Z" fill="url(#paint6_linear)"/>
<path d="M279.85 67.28C279.954 67.2228 280.045 67.1428 280.114 67.0458C280.183 66.9488 280.23 66.8374 280.25 66.72C280.274 66.5542 280.274 66.3857 280.25 66.22C280.176 65.8907 280.176 65.5493 280.25 65.22C280.344 64.8907 280.563 64.611 280.86 64.44C280.922 64.4207 280.988 64.4207 281.05 64.44C281.102 64.4268 281.157 64.4268 281.21 64.44L281.54 64.58C281.636 64.6151 281.722 64.6735 281.79 64.75C281.828 64.8149 281.855 64.8859 281.87 64.96C281.981 65.4704 281.978 65.9995 281.858 66.5082C281.739 67.017 281.507 67.4925 281.18 67.9C281.116 67.9827 281.038 68.0537 280.95 68.11C280.832 68.169 280.702 68.1999 280.57 68.2C280.274 68.2495 279.971 68.2219 279.69 68.12C279.53 68.03 279.17 67.82 279.25 67.6C279.33 67.38 279.68 67.34 279.85 67.28Z" fill="url(#paint7_linear)" fill-opacity="0.3"/>
<path d="M301.41 122.26C301.35 124.44 301.17 126.72 300.02 128.53C298.1 131.67 294.02 132.59 290.4 132.59C288.765 132.608 287.133 132.454 285.53 132.13C284.344 131.933 283.187 131.598 282.08 131.13C279.423 130.014 277.243 128 275.92 125.44C275.013 123.314 274.482 121.047 274.35 118.74C273.93 115.21 273.51 111.67 273.18 108.1C272.82 104.1 272.58 100.17 272.55 96.2099C272.446 93.049 272.8 89.8897 273.6 86.8299C274.394 83.7835 276.208 81.1012 278.74 79.2299C280.74 77.8499 284.63 76.0999 287.16 76.4699C289.98 76.8699 291.88 80.6499 292.99 82.9799C298.926 95.2017 301.815 108.679 301.41 122.26Z" fill="#E26784"/>
<path d="M286.41 113.93C285.821 117.319 285.609 120.764 285.78 124.2C285.96 126.5 287.22 129.36 285.96 131.54C285.837 131.751 285.693 131.948 285.53 132.13C284.344 131.933 283.186 131.598 282.08 131.13C279.423 130.014 277.242 128 275.92 125.44C275.013 123.314 274.482 121.047 274.35 118.74C273.93 115.21 273.51 111.67 273.18 108.1C273.99 104.81 276.49 102.17 278.74 99.6499C281.96 96.1099 285.05 92.2699 286.5 87.6499C287.177 88.0274 287.757 88.5573 288.195 89.1977C288.632 89.8382 288.915 90.5715 289.02 91.3399C289.209 92.8951 289.158 94.4701 288.87 96.0099C288.023 101.95 287.203 107.923 286.41 113.93Z" fill="black" fill-opacity="0.19"/>
<path d="M280.24 84.07C276.06 87.96 274.88 94.07 272.3 99.22C271.957 99.9749 271.505 100.676 270.96 101.3C269.74 102.62 267.96 103.18 266.28 103.78C262.844 105.003 259.554 106.603 256.47 108.55C254.943 109.328 253.721 110.596 253 112.15C252.21 114.45 253.64 117.1 255.73 118.29C257.896 119.366 260.35 119.716 262.73 119.29C267.273 118.607 271.687 117.238 275.82 115.23C277.254 114.641 278.6 113.857 279.82 112.9C280.866 111.928 281.796 110.837 282.59 109.65C283.953 107.809 285.212 105.893 286.36 103.91C288.563 99.9655 289.925 95.6072 290.36 91.11C290.66 89.0501 290.447 86.948 289.74 84.99C287.7 80.16 283.4 81.13 280.24 84.07Z" fill="#EA6F8C"/>
<path d="M283.94 189.17C284.22 190.17 284.46 191.46 283.81 192.32C283.485 192.734 283.011 193.003 282.49 193.07C281.778 193.145 281.063 192.949 280.49 192.52C279.909 192.07 279.432 191.5 279.09 190.85C278.49 189.773 278.148 188.571 278.09 187.34C278.048 186.964 278.11 186.583 278.27 186.24C278.538 185.823 278.951 185.52 279.43 185.39C280.33 185.05 282.03 184.46 282.8 185.32C283.57 186.18 283.66 188.09 283.94 189.17Z" fill="#C8A59C"/>
<path d="M302.6 186.34C303.16 187.27 303.73 188.34 303.34 189.41C303.146 189.897 302.769 190.288 302.29 190.5C301.62 190.789 300.865 190.811 300.18 190.56C299.498 190.299 298.883 189.889 298.38 189.36C297.513 188.498 296.861 187.442 296.48 186.28C296.338 185.928 296.293 185.545 296.35 185.17C296.487 184.692 296.797 184.282 297.22 184.02C297.99 183.44 299.46 182.38 300.44 183.02C301.42 183.66 302.04 185.34 302.6 186.34Z" fill="#C8A59C"/>
<path d="M281.77 191.39C281.181 191.603 280.547 191.659 279.93 191.55C279.619 191.495 279.301 191.495 278.99 191.55C278.726 191.64 278.477 191.768 278.25 191.93L274.79 194.15C274.346 194.35 273.991 194.706 273.79 195.15C273.727 195.447 273.76 195.756 273.884 196.033C274.008 196.309 274.217 196.54 274.48 196.69C275.013 196.963 275.601 197.11 276.2 197.12C278.908 197.362 281.635 197.268 284.32 196.84C284.715 196.81 285.094 196.668 285.41 196.43C285.626 196.215 285.787 195.951 285.88 195.66C286.324 194.609 286.436 193.447 286.2 192.33C286.1 191.811 285.887 191.321 285.576 190.894C285.265 190.467 284.863 190.114 284.4 189.86C283.36 189.59 282.6 191 281.77 191.39Z" fill="#40798C"/>
<path d="M300.6 188.98C300.038 189.257 299.415 189.388 298.79 189.36C298.473 189.354 298.158 189.404 297.86 189.51C297.607 189.63 297.374 189.789 297.17 189.98L294.01 192.61C293.604 192.876 293.303 193.276 293.16 193.74C293.133 194.043 293.203 194.346 293.36 194.606C293.516 194.867 293.75 195.071 294.03 195.19C294.591 195.4 295.195 195.472 295.79 195.4C298.499 195.307 301.187 194.877 303.79 194.12C304.166 194.028 304.511 193.838 304.79 193.57C304.976 193.328 305.105 193.048 305.17 192.75C305.479 191.654 305.451 190.49 305.09 189.41C304.78 188.57 303.95 187.35 303.01 187.18C301.98 186.99 301.39 188.48 300.6 188.98Z" fill="#40798C"/>
<path d="M281.77 191.39C281.181 191.603 280.547 191.659 279.93 191.55C279.619 191.495 279.301 191.495 278.99 191.55C278.726 191.64 278.477 191.768 278.25 191.93L274.79 194.15C274.346 194.35 273.991 194.706 273.79 195.15C273.727 195.447 273.76 195.756 273.884 196.033C274.008 196.309 274.217 196.54 274.48 196.69C275.013 196.963 275.601 197.11 276.2 197.12C278.908 197.362 281.635 197.268 284.32 196.84C284.715 196.81 285.094 196.668 285.41 196.43C285.626 196.215 285.787 195.951 285.88 195.66C286.324 194.609 286.436 193.447 286.2 192.33C286.1 191.811 285.887 191.321 285.576 190.894C285.265 190.467 284.863 190.114 284.4 189.86C283.36 189.59 282.6 191 281.77 191.39Z" fill="#494949"/>
<path d="M300.6 188.98C300.038 189.257 299.415 189.388 298.79 189.36C298.473 189.354 298.158 189.404 297.86 189.51C297.607 189.63 297.374 189.789 297.17 189.98L294.01 192.61C293.604 192.876 293.303 193.276 293.16 193.74C293.133 194.043 293.203 194.346 293.36 194.606C293.516 194.867 293.75 195.071 294.03 195.19C294.591 195.4 295.195 195.472 295.79 195.4C298.499 195.307 301.187 194.877 303.79 194.12C304.166 194.028 304.511 193.838 304.79 193.57C304.976 193.328 305.105 193.048 305.17 192.75C305.479 191.654 305.451 190.49 305.09 189.41C304.78 188.57 303.95 187.35 303.01 187.18C301.98 186.99 301.39 188.48 300.6 188.98Z" fill="#494949"/>
<path opacity="0.36" d="M135.59 56.3201H53.5596C51.7868 56.3201 50.3496 57.7572 50.3496 59.5301V59.6001C50.3496 61.3729 51.7868 62.8101 53.5596 62.8101H135.59C137.362 62.8101 138.8 61.3729 138.8 59.6001V59.5301C138.8 57.7572 137.362 56.3201 135.59 56.3201Z" fill="#40798C"/>
<path opacity="0.36" d="M164.16 75.1499H82.1299C80.3571 75.1499 78.9199 76.5871 78.9199 78.3599V78.4299C78.9199 80.2027 80.3571 81.6399 82.1299 81.6399H164.16C165.933 81.6399 167.37 80.2027 167.37 78.4299V78.3599C167.37 76.5871 165.933 75.1499 164.16 75.1499Z" fill="#40798C"/>
<path opacity="0.36" d="M139.61 93.76H57.5801C55.8073 93.76 54.3701 95.1972 54.3701 96.97V97.04C54.3701 98.8128 55.8073 100.25 57.5801 100.25H139.61C141.383 100.25 142.82 98.8128 142.82 97.04V96.97C142.82 95.1972 141.383 93.76 139.61 93.76Z" fill="#40798C"/>
<path d="M228.15 62.45C229.15 61.45 230.15 60.62 231.15 59.76C231.37 59.56 231.64 59.25 231.88 59.26C232.331 59.2409 232.775 59.3748 233.14 59.64C233.229 59.7373 233.296 59.8524 233.337 59.9778C233.377 60.1031 233.39 60.2357 233.375 60.3665C233.36 60.4973 233.317 60.6234 233.249 60.7361C233.181 60.8489 233.089 60.9457 232.98 61.02C232.03 61.91 231.07 62.79 230.05 63.73C230.329 64.046 230.586 64.3801 230.82 64.73C231.453 65.6989 231.982 66.7311 232.4 67.81C232.46 68.1895 232.666 68.5304 232.975 68.7588C233.284 68.9872 233.67 69.0846 234.05 69.03C235.46 69.03 236.87 69.14 238.28 69.22C239.16 69.22 239.56 69.68 239.53 70.44C239.5 71.2 239.05 71.61 238.2 71.58C236.46 71.52 234.73 71.42 232.9 71.33C232.581 73.5175 231.572 75.5459 230.02 77.12L218.55 64.03L216.6 65.8L228.17 79.05C226.763 80.3381 224.947 81.0888 223.04 81.17C222.18 81.17 221.9 81.49 221.95 82.36C222.03 83.65 221.95 84.94 221.95 86.23C221.95 87.36 221.45 88.02 220.6 88.01C219.75 88 219.4 87.45 219.4 86.21C219.4 84.71 219.4 83.21 219.4 81.7C219.42 81.4642 219.364 81.2283 219.242 81.0255C219.12 80.8228 218.938 80.6635 218.72 80.57C217.42 79.77 216.19 78.84 214.77 77.85L213.15 79.34L212.15 80.26C211.31 81.02 210.62 81.1 210.1 80.52C209.58 79.94 209.72 79.3 210.59 78.52L213.47 75.87C212.2 74.43 210.99 73.03 209.75 71.67C209.509 71.4992 209.216 71.4146 208.92 71.43C207.66 71.34 206.4 71.28 205.14 71.21C204.22 71.21 203.77 70.75 203.78 69.97C203.79 69.19 204.21 68.83 205.19 68.86C206.48 68.86 207.77 69.03 209.06 69.03C209.523 69.0115 209.967 68.8391 210.32 68.54C214.06 65.16 217.78 61.76 221.48 58.34C221.777 58.0175 221.96 57.6065 222 57.17C222.13 55.89 222.15 54.59 222.22 53.31C222.22 53.07 222.22 52.73 222.39 52.61C222.76 52.32 223.24 51.91 223.62 51.97C223.837 52.0511 224.03 52.185 224.182 52.3596C224.334 52.5343 224.44 52.7441 224.49 52.97C224.53 54.2586 224.48 55.5484 224.34 56.83C224.282 57.1919 224.312 57.5624 224.427 57.9104C224.542 58.2584 224.738 58.5738 225 58.83C226.07 59.99 227.07 61.21 228.15 62.45Z" fill="#40798C"/>
<path d="M218.6 57.34L209.38 65.78C208.741 65.0985 208.27 64.277 208.004 63.3812C207.739 62.4853 207.686 61.5398 207.85 60.62C207.999 59.4418 208.486 58.3318 209.251 57.4236C210.017 56.5155 211.028 55.8479 212.164 55.5013C213.3 55.1547 214.512 55.1439 215.654 55.4701C216.796 55.7963 217.819 56.4457 218.6 57.34Z" fill="#40798C"/>
<path d="M228.17 62.43C229.17 61.43 230.17 60.6 231.17 59.74C231.39 59.54 231.66 59.23 231.9 59.24C232.351 59.2209 232.795 59.3548 233.16 59.62C233.249 59.7173 233.316 59.8324 233.356 59.9578C233.397 60.0831 233.41 60.2157 233.395 60.3465C233.379 60.4773 233.336 60.6034 233.268 60.7161C233.2 60.8289 233.109 60.9257 233 61C232.05 61.89 231.09 62.77 230.07 63.71C230.348 64.0261 230.606 64.3601 230.84 64.71C231.472 65.6789 232.002 66.7111 232.42 67.79C232.479 68.1689 232.686 68.5089 232.995 68.7357C233.304 68.9625 233.691 69.0575 234.07 69C235.48 69 236.89 69.12 238.3 69.2C239.18 69.2 239.58 69.66 239.55 70.42C239.52 71.18 239.07 71.59 238.22 71.56C236.48 71.5 234.75 71.4 232.92 71.31C232.606 73.4989 231.596 75.5288 230.04 77.1L218.57 64.01L216.6 65.78L228.17 79.03C226.763 80.3181 224.946 81.0688 223.04 81.15C222.18 81.15 221.9 81.47 221.95 82.34C222.03 83.63 222 84.92 222 86.21C222 87.34 221.5 88 220.65 87.98C219.8 87.96 219.45 87.43 219.45 86.19C219.45 84.69 219.45 83.19 219.45 81.67C219.469 81.4356 219.413 81.2012 219.291 81.0002C219.169 80.7992 218.987 80.6417 218.77 80.55C217.47 79.75 216.24 78.82 214.82 77.83L213.17 79.34L212.17 80.26C211.33 81.02 210.64 81.1 210.12 80.52C209.6 79.94 209.74 79.3 210.61 78.52L213.49 75.87C212.22 74.43 211.01 73.03 209.77 71.66C209.525 71.4968 209.234 71.4162 208.94 71.43C207.68 71.34 206.42 71.28 205.16 71.21C204.24 71.16 203.79 70.75 203.8 69.97C203.81 69.19 204.23 68.83 205.21 68.86C206.5 68.86 207.79 69.03 209.08 69.03C209.546 69.0115 209.992 68.8392 210.35 68.54C214.083 65.16 217.8 61.76 221.5 58.34C221.797 58.0175 221.98 57.6065 222.02 57.17C222.15 55.89 222.17 54.59 222.24 53.31C222.24 53.07 222.24 52.73 222.41 52.61C222.78 52.32 223.26 51.91 223.64 51.97C223.857 52.0511 224.05 52.185 224.202 52.3596C224.354 52.5343 224.46 52.7441 224.51 52.97C224.55 54.2586 224.5 55.5484 224.36 56.83C224.302 57.1919 224.332 57.5624 224.446 57.9104C224.561 58.2584 224.758 58.5738 225.02 58.83C226.09 59.97 227.09 61.19 228.17 62.43Z" fill="url(#paint8_linear)"/>
<path d="M218.6 57.28L209.38 65.72C208.742 65.0375 208.273 64.2157 208.009 63.3199C207.745 62.4241 207.694 61.479 207.86 60.56C208.011 59.384 208.497 58.2764 209.262 57.3703C210.027 56.4642 211.037 55.798 212.171 55.4517C213.305 55.1054 214.514 55.0937 215.655 55.418C216.795 55.7423 217.818 56.3888 218.6 57.28Z" fill="url(#paint9_linear)"/>
<defs>
<linearGradient id="paint0_linear" x1="173.35" y1="312.02" x2="174.8" y2="185.9" gradientUnits="userSpaceOnUse">
<stop stop-color="#010101" stop-opacity="0"/>
<stop offset="0.95" stop-color="#010101"/>
</linearGradient>
<linearGradient id="paint1_linear" x1="103367" y1="124.52" x2="103592" y2="134806" gradientUnits="userSpaceOnUse">
<stop stop-color="#010101" stop-opacity="0"/>
<stop offset="0.95" stop-color="#010101"/>
</linearGradient>
<linearGradient id="paint2_linear" x1="4686.94" y1="4723.78" x2="4689.06" y2="5439.86" gradientUnits="userSpaceOnUse">
<stop stop-color="#010101" stop-opacity="0"/>
<stop offset="0.95" stop-color="#010101"/>
</linearGradient>
<linearGradient id="paint3_linear" x1="5731.42" y1="2824.48" x2="5641.09" y2="2892.31" gradientUnits="userSpaceOnUse">
<stop stop-color="#010101" stop-opacity="0"/>
<stop offset="0.95" stop-color="#010101"/>
</linearGradient>
<linearGradient id="paint4_linear" x1="11024.3" y1="5144.09" x2="10197.7" y2="5732.7" gradientUnits="userSpaceOnUse">
<stop stop-color="#010101" stop-opacity="0"/>
<stop offset="0.95" stop-color="#010101"/>
</linearGradient>
<linearGradient id="paint5_linear" x1="210.26" y1="54.6401" x2="307.48" y2="189.01" gradientUnits="userSpaceOnUse">
<stop stop-color="white" stop-opacity="0"/>
<stop offset="0.13" stop-color="white" stop-opacity="0.23"/>
<stop offset="0.23" stop-color="white" stop-opacity="0.41"/>
<stop offset="0.35" stop-color="white" stop-opacity="0.59"/>
<stop offset="0.48" stop-color="white" stop-opacity="0.74"/>
<stop offset="0.6" stop-color="white" stop-opacity="0.85"/>
<stop offset="0.72" stop-color="white" stop-opacity="0.93"/>
<stop offset="0.84" stop-color="white" stop-opacity="0.98"/>
<stop offset="0.95" stop-color="white"/>
</linearGradient>
<linearGradient id="paint6_linear" x1="10080.4" y1="3002.8" x2="10023.4" y2="3579.95" gradientUnits="userSpaceOnUse">
<stop stop-color="#010101" stop-opacity="0"/>
<stop offset="0.95" stop-color="#010101"/>
</linearGradient>
<linearGradient id="paint7_linear" x1="1358.95" y1="520.23" x2="1347.57" y2="519.881" gradientUnits="userSpaceOnUse">
<stop stop-color="#010101" stop-opacity="0"/>
<stop offset="0.95" stop-color="#010101"/>
</linearGradient>
<linearGradient id="paint8_linear" x1="13025.8" y1="3010.71" x2="11603.7" y2="5870.36" gradientUnits="userSpaceOnUse">
<stop stop-color="#010101" stop-opacity="0"/>
<stop offset="0.95" stop-color="#010101"/>
</linearGradient>
<linearGradient id="paint9_linear" x1="3969.52" y1="862.414" x2="3564.25" y2="1706.34" gradientUnits="userSpaceOnUse">
<stop stop-color="#010101" stop-opacity="0"/>
<stop offset="0.95" stop-color="#010101"/>
</linearGradient>
</defs>
</svg>
