<svg width="410" height="864" viewBox="0 0 410 864" fill="none" xmlns="http://www.w3.org/2000/svg">
<g clip-path="url(#clip0)">
<path d="M379.792 865H30C16.1929 865 5 853.807 5 840V115.685C5 66.6063 26.2566 6.62306 155.794 52.2237C157.174 52.7095 158.704 53.111 160.146 53.3572C300.79 77.3696 295.68 91.0987 358.816 94.5444C366.802 94.9803 373.507 95.3065 379.126 95.5437C394.869 96.2082 404.792 109.224 404.792 124.981V840C404.792 853.807 393.599 865 379.792 865Z" fill="#40798C" fill-opacity="0.1" stroke="#40798C" stroke-opacity="0.1"/>
<path d="M79.4998 289.951C55.8198 237.302 103 110.217 238 300.049C293 422.227 352.748 300.048 352.748 459.393C334 560.562 267.5 1062.91 89.5001 594.389C59.1402 519.177 109.1 355.763 79.4998 289.951Z" stroke="white" stroke-width="1.5"/>
</g>
<defs>
<clipPath id="clip0">
<rect width="410" height="864" fill="white"/>
</clipPath>
</defs>
</svg>
