<svg width="224" height="272" viewBox="0 0 224 272" fill="none" xmlns="http://www.w3.org/2000/svg">
<path opacity="0.39" d="M112 272C173.856 272 224 259.464 224 244C224 228.536 173.856 216 112 216C50.1441 216 0 228.536 0 244C0 259.464 50.1441 272 112 272Z" fill="black" fill-opacity="0.1"/>
<path d="M111.868 256.056C77.333 255.56 49.4893 243.735 49.6708 229.673C49.6708 228.101 48.4607 219.25 49.1746 217.848C54.62 206.011 81.8466 204.548 112.582 205.055C142.834 205.491 168.185 205.055 173.848 216.723C174.659 218.392 174.816 229.746 174.78 231.438C174.562 245.537 146.404 256.479 111.868 256.056Z" fill="#E0E0E0"/>
<path d="M173.35 219.15C173.49 205.067 145.601 193.372 111.058 193.029C76.5152 192.686 48.399 203.823 48.2588 217.906C48.1185 231.989 76.0075 243.683 110.55 244.027C145.093 244.37 173.21 233.232 173.35 219.15Z" fill="#F2F2F2"/>
<path d="M116.306 239.214C81.758 238.719 53.9143 226.918 54.12 212.819C54.12 211.26 52.9099 202.397 53.6239 200.994C59.0692 189.169 86.2958 187.779 117.032 188.202C147.283 188.649 172.622 188.202 178.273 199.87C179.108 201.538 179.241 212.892 179.217 214.585C179.036 228.647 150.841 239.698 116.306 239.214Z" fill="#E0E0E0"/>
<path d="M178.771 202.832C178.973 188.75 151.135 176.934 116.594 176.44C82.0528 175.946 53.8882 186.961 53.6865 201.043C53.4848 215.125 81.3224 226.941 115.863 227.435C150.405 227.929 178.569 216.914 178.771 202.832Z" fill="#F2F2F2"/>
<path d="M120.306 219.103C85.758 218.607 57.9143 206.807 58.12 192.72C58.12 191.161 56.9099 182.298 57.6239 180.895C63.0692 169.058 90.2958 167.68 121.032 168.103C151.283 168.538 176.622 168.103 182.273 179.771C183.108 181.439 183.241 192.793 183.217 194.486C183.036 208.584 154.841 219.599 120.306 219.103Z" fill="#E0E0E0"/>
<path d="M182.773 182.745C182.975 168.663 155.137 156.847 120.596 156.353C86.0548 155.859 57.8902 166.874 57.6885 180.956C57.4868 195.038 85.3243 206.854 119.865 207.348C154.407 207.842 182.571 196.827 182.773 182.745Z" fill="#F2F2F2"/>
<path d="M116.378 199.344C81.8302 198.921 53.9622 187.156 54.1195 173.082C54.1195 171.522 52.9095 162.672 53.5992 161.257C59.0203 149.42 86.2712 147.957 116.971 148.332C147.222 148.706 172.634 148.211 178.273 159.867C179.084 161.535 179.265 172.889 179.241 174.581C179.059 188.68 150.925 199.683 116.378 199.344Z" fill="#E0E0E0"/>
<path d="M178.866 158.435C179.007 144.353 151.118 132.658 116.575 132.315C82.0318 131.971 53.9156 143.109 53.7754 157.192C53.6352 171.275 81.5241 182.969 116.067 183.313C150.61 183.656 178.726 172.518 178.866 158.435Z" fill="#F2F2F2"/>
<path d="M118.242 176.419C83.6942 175.924 55.8504 164.123 56.0682 150.024C56.0682 148.465 54.8582 139.614 55.5721 138.199C61.0174 126.374 88.2441 124.996 118.968 125.407C149.22 125.854 174.558 125.407 180.222 137.087C181.044 138.743 181.178 150.109 181.153 151.802C180.972 165.936 152.789 176.915 118.242 176.419Z" fill="#E0E0E0"/>
<path d="M180.705 140.046C180.907 125.964 153.07 114.148 118.529 113.654C83.9874 113.16 55.8228 124.175 55.6211 138.257C55.4194 152.339 83.257 164.155 117.798 164.649C152.339 165.143 180.504 154.128 180.705 140.046Z" fill="#F2F2F2"/>
<path d="M117.274 156.336C82.7385 155.84 54.8948 144.039 55.1005 129.941C55.1005 128.381 53.8904 119.518 54.6043 118.116C60.0497 106.291 87.2763 104.912 118.012 105.323C148.264 105.771 173.591 105.323 179.254 116.991C180.089 118.66 180.222 130.026 180.186 131.718C180.053 145.805 151.822 156.832 117.274 156.336Z" fill="#E0E0E0"/>
<path d="M179.75 119.965C179.952 105.883 152.115 94.0674 117.573 93.5734C83.0323 93.0794 54.8677 104.095 54.666 118.177C54.4643 132.258 82.3019 144.075 116.843 144.569C151.384 145.063 179.549 134.047 179.75 119.965Z" fill="#F2F2F2"/>
<path d="M170.494 119.833C170.666 107.834 146.948 97.7663 117.519 97.3454C88.0897 96.9245 64.0934 106.31 63.9215 118.309C63.7497 130.308 87.4673 140.376 116.896 140.796C146.326 141.217 170.322 131.832 170.494 119.833Z" fill="#E0E0E0"/>
<path d="M83.5972 116.532L92.0677 116.653C92.2379 115.542 92.6732 114.489 93.3366 113.582C94.0001 112.675 94.8722 111.941 95.8794 111.442L101.53 112.336C100.556 112.79 99.7092 113.476 99.0634 114.334C98.4176 115.193 97.9932 116.197 97.8276 117.257C97.8276 119.676 101.252 121.429 106.044 121.477C107.906 121.629 109.778 121.372 111.529 120.724C113.281 120.077 114.87 119.054 116.184 117.729C118.064 115.769 120.363 114.258 122.909 113.31C125.454 112.361 128.182 112 130.887 112.252C137.905 112.252 143.23 114.464 144.452 117.644L152.922 117.777V119.917L144.718 119.784C144.592 120.709 144.253 121.592 143.728 122.364C143.203 123.136 142.506 123.776 141.693 124.234L136.139 123.303C136.931 122.861 137.608 122.239 138.115 121.487C138.621 120.735 138.943 119.874 139.055 118.974C139.055 116.375 135.219 115.274 131.794 115.226C129.971 115.128 128.15 115.45 126.472 116.167C124.793 116.884 123.302 117.977 122.114 119.361C118.484 122.856 114.079 124.573 106.468 124.573C99.7638 124.573 93.4351 122.493 92.1524 118.926L83.4883 118.781L83.5972 116.532Z" fill="#F2F2F2"/>
<path d="M140.852 121.965C142.212 119.686 142.512 116.405 140.938 114.319C137.832 110.195 129.681 110.882 125.182 109.64C120.191 108.241 115.018 109.049 110.969 112.92C109.898 113.994 108.902 115.236 107.756 116.261C106.075 117.632 104.247 118.758 102.315 119.613L69.8401 135.833C67.1089 137.208 64.0885 138.921 63.2209 142.141C62.8533 144.069 62.9159 146.071 63.403 147.965L58.8038 169.416C57.0336 178.891 57.0336 184.377 57.4761 191.359C55.9097 193.012 55.9383 193.783 54.8207 195.847C53.2954 198.664 54.0193 202.262 53.5531 204.459C50.3951 208.315 48.6248 213.301 49.0672 218.787L53.5527 220C59.0416 219.697 61.3604 218.595 66.8261 217.891C67.095 214.134 70.5311 210.992 70.8081 207.22C70.9438 206.294 70.8689 205.344 70.5905 204.459C70.2197 203.452 69.2786 202.783 68.966 201.736C68.8378 201.122 68.8671 200.48 69.0504 199.884C69.2337 199.289 69.5636 198.764 70.0015 198.37L71.8002 198.664C74.9352 199.954 78.3684 199.992 81.5255 198.772C82.3932 198.503 83.1505 197.902 83.6676 197.072C84.0057 196.23 84.1282 195.299 84.0211 194.383L83.0892 168.515C82.8309 165.341 83.0225 162.142 83.6569 159.036C84.728 154.936 87.3521 151.366 87.6413 147.109C87.7162 145.903 87.652 144.348 88.5195 143.491C88.9929 143.101 89.5449 142.848 90.1261 142.756C105.517 138.824 121.273 135.351 135.197 127.006C137.42 125.872 139.362 124.141 140.852 121.965Z" fill="black" fill-opacity="0.2"/>
<path d="M76.1676 177.87C76.7968 179.926 77.3776 182.344 76.1676 184.073C75.58 184.809 74.8014 185.369 73.9168 185.693C72.8886 186.199 71.7377 186.403 70.598 186.281C69.4583 186.159 68.3767 185.716 67.4792 185.004C66.5322 183.956 65.8625 182.689 65.531 181.316C63.9064 176.304 62.732 171.157 62.0218 165.936C61.9181 165.455 61.9431 164.954 62.0944 164.485C62.3559 163.979 62.783 163.578 63.3045 163.349C66.0514 161.874 70.335 160.689 71.8718 163.965C73.8684 168.161 74.776 173.372 76.1676 177.87Z" fill="#B99A7E"/>
<path d="M43.2175 200.928C43.1664 201.311 43.2079 201.701 43.3385 202.065C43.5418 202.431 43.8436 202.732 44.2098 202.935C45.3351 203.723 46.661 204.176 48.0336 204.241C48.7251 204.268 49.4134 204.134 50.0437 203.849C50.674 203.563 51.2288 203.134 51.6638 202.597C52.3022 201.578 52.688 200.421 52.7892 199.223C53.2883 196.641 53.5355 194.018 53.5274 191.388C53.5435 191.204 53.5229 191.018 53.4668 190.842C53.4107 190.665 53.3203 190.502 53.2006 190.36C53.002 190.212 52.7688 190.116 52.523 190.082C50.3691 189.635 46.1217 188.498 45.0326 191.158C43.9083 194.297 43.2955 197.595 43.2175 200.928Z" fill="#B99A7E"/>
<path d="M67.8903 180.252C67.3082 180.172 66.7155 180.23 66.1599 180.422C65.7813 180.633 65.4515 180.921 65.1919 181.268L59.2504 188.051C58.1009 189.357 56.8303 191.158 57.6894 192.706C57.973 193.137 58.3496 193.498 58.7915 193.764C59.2334 194.029 59.7293 194.193 60.2427 194.242C63.0743 194.75 65.9421 193.734 68.5922 192.585C70.4194 191.787 72.2224 190.905 73.9891 189.961C75.3205 189.361 76.481 188.439 77.3652 187.277C78.7205 185.173 79.1198 180.143 76.6997 178.572C75.4896 177.786 74.4247 178.354 73.2631 178.898C71.6127 179.789 69.7661 180.254 67.8903 180.252Z" fill="white"/>
<path d="M34.1663 200.662C32.3317 200.757 30.5192 201.107 28.7814 201.702C27.9119 202.007 27.1137 202.486 26.4355 203.11C25.7573 203.734 25.2133 204.489 24.8366 205.329C24.4934 206.168 24.4549 207.101 24.7277 207.965C25.3208 209.231 26.3648 210.232 27.6561 210.77C33.7694 214.069 40.6887 215.582 47.6223 215.135C49.4109 215.199 51.1518 214.551 52.4626 213.334C53.5879 212.04 53.6726 210.154 53.7452 208.425L53.9873 200.215C52.4384 199.973 51.0105 200.989 49.5342 201.496C46.993 202.367 45.9887 200.287 43.8832 199.767C41.1242 199.151 36.9736 200.384 34.1663 200.662Z" fill="white"/>
<path d="M67.8903 180.252C67.3082 180.172 66.7155 180.23 66.1599 180.422C65.7813 180.633 65.4515 180.921 65.1919 181.268L59.2504 188.051C58.1009 189.357 56.8303 191.158 57.6894 192.706C57.973 193.137 58.3496 193.498 58.7915 193.764C59.2334 194.029 59.7293 194.193 60.2427 194.242C63.0743 194.75 65.9421 193.734 68.5922 192.585C70.4194 191.787 72.2224 190.905 73.9891 189.961C75.3205 189.361 76.481 188.439 77.3652 187.277C78.7205 185.173 79.1198 180.143 76.6997 178.572C75.4896 177.786 74.4247 178.354 73.2631 178.898C71.6127 179.789 69.7661 180.254 67.8903 180.252Z" fill="url(#paint0_linear)" fill-opacity="0.1"/>
<path d="M34.1663 200.662C32.3317 200.757 30.5192 201.107 28.7814 201.702C27.9119 202.007 27.1137 202.486 26.4355 203.11C25.7573 203.734 25.2133 204.489 24.8366 205.329C24.4934 206.168 24.4549 207.101 24.7277 207.965C25.3208 209.231 26.3648 210.232 27.6561 210.77C33.7694 214.069 40.6887 215.582 47.6223 215.135C49.4109 215.199 51.1518 214.551 52.4626 213.334C53.5879 212.04 53.6726 210.154 53.7452 208.425L53.9873 200.215C52.4384 199.973 51.0105 200.989 49.5342 201.496C46.993 202.367 45.9887 200.287 43.8832 199.767C41.1242 199.151 36.9736 200.384 34.1663 200.662Z" fill="url(#paint1_linear)"/>
<path d="M56.1162 110.015C54.3614 110.373 52.7403 111.21 51.4332 112.433C49.9085 114.15 49.7754 116.689 49.7754 118.999C49.8151 135.584 52.8994 152.022 58.8751 167.496C59.1659 168.646 59.9014 169.633 60.9202 170.241C61.833 170.505 62.8079 170.458 63.6912 170.108C67.2786 169.103 70.8126 167.917 74.2793 166.553L69.5843 135.031C69.3645 134.154 69.4151 133.231 69.7295 132.383C70.0713 131.772 70.5573 131.253 71.1453 130.872C76.5008 126.914 82.166 123.392 88.0863 120.341C92.7813 117.922 98.1662 115.166 99.4609 109.979C99.7212 109.107 99.7725 108.187 99.6106 107.292C99.4488 106.397 99.0783 105.553 98.5292 104.828C97.7881 104.081 96.9085 103.485 95.9396 103.075C92.8176 101.515 88.8849 99.5076 85.291 99.8825C82.4231 100.185 81.322 101.865 78.9139 103.111C72.1738 106.605 63.3403 107.899 56.1162 110.015Z" fill="#282328"/>
<path d="M59.4811 131.997C57.2581 134.854 55.5019 138.045 54.2778 141.452C47.4965 158.082 43.0969 175.585 41.209 193.444C46.741 194.145 52.3396 194.145 57.8717 193.444C58.3069 180.825 60.228 168.301 63.5953 156.13C64.1902 153.52 65.208 151.025 66.6084 148.743C69.0285 145.115 73.1186 143.024 77.0029 141.065C85.941 136.618 95.3009 133.074 104.943 130.485C109.009 129.336 113.111 128.309 117.044 126.942C120.467 125.919 123.674 124.28 126.507 122.106C127.928 120.994 129.112 119.61 129.989 118.034C130.866 116.457 131.419 114.722 131.613 112.929C131.553 113.836 111.405 112.844 109.53 112.639C103.213 111.962 95.759 108.286 89.515 110.873C84.6748 112.905 80.1612 117.137 75.7687 120.063C70.3717 123.617 63.7889 126.918 59.4811 131.997Z" fill="#473F47"/>
<path d="M106.94 109.398C104.027 108.257 101.197 106.916 98.4695 105.384C88.0992 99.5922 96.5939 96.7387 100.055 89.7501C102.475 84.8048 101.519 78.868 100.224 73.4996C97.9734 64.0564 94.9603 54.2868 97.1384 44.8315C97.4206 43.3005 98.0226 41.8462 98.9051 40.5633C99.5377 39.7721 100.265 39.0614 101.071 38.4474C103.259 36.5463 105.771 35.0554 108.489 34.0462C113.716 32.3293 119.513 33.5868 124.426 36.0896C143.726 45.9076 147.84 70.7428 147.078 90.5843C146.86 96.0979 146.037 101.938 142.528 106.146C139.237 110.099 134.058 111.961 129.012 112.602C121.502 113.385 113.916 112.284 106.94 109.398Z" fill="#40798C"/>
<path d="M88.2565 130.654L123.421 113.219L82.7144 98.5645L50.6475 112.784L88.2565 130.654Z" fill="#D86B7F"/>
<path d="M88.0508 128.006L117.419 113.449L83.4283 101.212L56.6494 113.086L88.0508 128.006Z" fill="url(#paint2_linear)" fill-opacity="0.7"/>
<path d="M87.2507 78.5575C86.5619 78.9265 85.7759 79.0743 85 78.9807C85.1325 75.6621 85.8324 72.3906 87.0692 69.3078C88.3398 66.6236 90.409 64.3988 92.1273 61.9685C93.0373 60.5649 94.0187 59.2089 95.0678 57.9059C96.1025 56.5732 97.5152 55.583 99.1215 55.0645C99.2452 55.0091 99.3818 54.9888 99.5163 55.0059C99.6508 55.0229 99.7779 55.0767 99.8839 55.1612C99.9729 55.2767 100.027 55.415 100.041 55.5602L101.505 63.891C101.861 65.2166 101.84 66.615 101.445 67.9294C100.705 69.1193 99.7533 70.1642 98.6375 71.0127C96.4971 73.0409 94.1346 74.8214 91.5949 76.3207C90.1935 77.1535 88.7428 77.9005 87.2507 78.5575Z" fill="#B99A7E"/>
<path d="M87.2507 78.5575C86.5619 78.9265 85.7759 79.0743 85 78.9807C85.1325 75.6621 85.8324 72.3906 87.0692 69.3078C88.3398 66.6236 90.409 64.3988 92.1273 61.9685C93.0373 60.5649 94.0187 59.2089 95.0678 57.9059C96.1025 56.5732 97.5152 55.583 99.1215 55.0645C99.2452 55.0091 99.3818 54.9888 99.5163 55.0059C99.6508 55.0229 99.7779 55.0767 99.8839 55.1612C99.9729 55.2767 100.027 55.415 100.041 55.5602L101.505 63.891C101.861 65.2166 101.84 66.615 101.445 67.9294C100.705 69.1193 99.7533 70.1642 98.6375 71.0127C96.4971 73.0409 94.1346 74.8214 91.5949 76.3207C90.1935 77.1535 88.7428 77.9005 87.2507 78.5575Z" fill="url(#paint3_linear)" fill-opacity="0.2"/>
<path d="M118.593 47.5883C117.751 48.6448 116.697 49.5134 115.498 50.1381C114.3 50.7628 112.984 51.1299 111.635 51.2157C111.213 51.2665 110.787 51.1727 110.425 50.9496C110.045 50.5565 109.828 50.0334 109.82 49.4866C109.699 48.3984 109.542 46.9958 109.421 45.6054C109.3 44.2149 109.082 42.51 108.937 41.3251C108.611 38.1702 107.413 35.1682 105.476 32.6558C105.083 32.1061 104.623 31.6066 104.108 31.1685C100.769 28.1579 114.37 29.3428 116.209 25.256C118.278 27.916 118.097 31.6764 119.004 34.9289C119.593 36.5135 120.098 38.1279 120.517 39.7653C120.771 41.131 120.73 42.535 120.398 43.8839C120.067 45.2328 119.451 46.4956 118.593 47.5883Z" fill="#B99A7E"/>
<path d="M109.602 46.2341L109.421 45.5933C109.239 44.0456 109.082 42.498 108.937 41.313C108.611 38.1581 107.413 35.1562 105.476 32.6437L105.379 32.3051C105.379 32.3051 116.161 25.2439 117.31 33.5143C118.46 41.7846 109.602 46.2341 109.602 46.2341Z" fill="url(#paint4_linear)" fill-opacity="0.2"/>
<path d="M98.2996 27.7467C98.0812 29.4688 98.3981 31.2164 99.2072 32.7525C99.6367 33.3952 100.178 33.9562 100.804 34.409C105.088 37.6373 111.526 36.9844 115.785 33.6472C120.045 30.3101 122.247 24.7602 122.477 19.3313C122.586 16.502 122.138 13.4671 120.238 11.3995C119.184 10.3788 117.891 9.63814 116.477 9.24529C115.063 8.85243 113.573 8.81987 112.143 9.15058C108.226 10.05 104.659 12.076 101.881 14.9785C99.1709 18.0255 98.4932 23.8776 98.2996 27.7467Z" fill="#B99A7E"/>
<path d="M137.07 55.9916C137.167 56.5962 137.24 57.2008 137.3 57.8053C138.256 66.7407 137.397 75.543 137.07 84.4058C136.865 89.9194 136.151 100.414 130.379 103.232C119.585 108.516 98.7715 106.484 98.7715 106.484C96.3563 106.094 93.8872 106.192 91.511 106.774C90.2162 107.186 89.0304 107.875 87.7598 108.358C83.2099 110.136 78.0792 109.241 73.3357 108.358C72.5071 108.254 71.7083 107.983 70.9882 107.56C69.1247 106.351 69.2094 103.292 70.601 101.515C72.1385 99.8541 74.1637 98.7238 76.3851 98.2864C82.4355 96.5211 89.0304 95.7473 95.1049 97.5489C95.9036 97.7786 96.7022 98.0567 97.5251 98.2139C98.4813 98.3665 99.449 98.4353 100.417 98.4194L107.774 98.4799C116.245 98.5645 124.171 98.6008 125.441 88.5651C125.913 84.8562 126.01 81.1093 125.732 77.3809C125.224 70.634 123.493 63.9597 123.856 57.2129C123.869 55.0827 124.388 52.9859 125.369 51.0947C125.865 50.1624 126.594 49.3735 127.484 48.8038C128.374 48.2342 129.396 47.9031 130.451 47.8422C131.555 47.9303 132.616 48.3046 133.531 48.928C134.446 49.5514 135.182 50.4024 135.667 51.397C136.399 52.8351 136.874 54.3901 137.07 55.9916Z" fill="#B99A7E"/>
<path d="M98.8203 48.4346C98.8443 48.2956 98.8977 48.1633 98.977 48.0465C99.0563 47.9297 99.1597 47.8312 99.2801 47.7575C99.7036 47.6004 100.103 48.0598 100.563 48.1324C100.731 48.1446 100.899 48.1195 101.056 48.0589C101.213 47.9983 101.354 47.9036 101.47 47.7817C101.704 47.5422 101.923 47.2877 102.124 47.02C102.475 46.6331 102.91 46.3187 103.249 45.9197C103.571 45.5178 103.786 45.0406 103.873 44.5329C103.96 44.0252 103.916 43.5038 103.745 43.0178C104.264 42.9035 104.724 42.6081 105.043 42.1846C105.363 41.7612 105.52 41.2377 105.488 40.7084C105.446 40.5541 105.446 40.3912 105.488 40.2369C105.597 40.0192 105.863 39.9709 106.093 39.9104C106.461 39.8053 106.798 39.6147 107.078 39.3541C107.358 39.0935 107.572 38.7703 107.702 38.4111C107.792 38.2127 107.821 37.9925 107.787 37.7775C107.752 37.5626 107.656 37.3625 107.509 37.202C107.325 37.0763 107.113 36.9974 106.891 36.9723C105.137 36.6216 103.382 36.3193 101.616 36.0654C101.351 36.0324 101.09 35.9675 100.841 35.872C100.466 35.6906 100.2 35.352 99.8489 35.1465C99.3523 34.9261 98.7931 34.8916 98.2732 35.0492C97.7533 35.2068 97.3075 35.5461 97.0173 36.005C96.5134 37.0294 96.1589 38.1206 95.9645 39.2454C95.5168 40.4545 95.5652 41.8087 95.057 43.0178C94.6805 43.8614 94.231 44.6705 93.7138 45.436C91.4509 49.0634 82.4964 61.0457 80.5119 63.5727C78.3943 66.3053 76.325 69.2677 75.8894 72.6895C75.6969 73.8827 75.8264 75.1056 76.2645 76.2322C77.8739 80.0288 83.2951 81.0686 86.3565 78.5416C87.845 77.1823 88.979 75.4806 89.66 73.5842C90.2409 72.1695 90.5555 70.6823 91.1 69.2677C91.6229 68.2224 92.2005 67.2053 92.8304 66.2207C94.2484 63.4931 95.4618 60.664 96.4606 57.7569C97.0657 56.0037 97.5739 54.2263 98.0095 52.4247C98.2152 51.5179 98.4089 50.6111 98.5783 49.6921C98.6751 49.4261 98.6993 48.882 98.8203 48.4346Z" fill="#B99A7E"/>
<path d="M37.4453 80.7059L82.2543 103.848L88.2562 130.654L50.6472 112.784L37.4453 80.7059Z" fill="#D86B7F"/>
<path d="M114.406 23.2609C114.799 25.3038 114.957 27.3849 114.877 29.4637C116.305 28.2546 116.196 25.0262 118.096 25.1109C119.234 25.1109 119.766 26.7432 119.234 27.7709C118.916 28.2526 118.505 28.6656 118.025 28.9854C117.545 29.3053 117.005 29.5255 116.438 29.633C116.112 33.9979 119.585 36.9965 122.489 39.6444C125.664 42.7239 127.883 46.6535 128.878 50.9617C130.257 56.3786 130.185 62.0614 130.088 67.6838C131.637 66.4747 133.827 67.1034 135.775 67.3089C141.523 67.9014 147.259 63.3551 148.505 57.636C149.035 54.7706 148.669 51.8116 147.457 49.1615C146.244 46.5113 144.244 44.2987 141.729 42.8244C140.18 41.9417 138.389 41.2525 137.433 39.7412C136.126 37.6736 136.901 34.9772 136.973 32.4865C136.998 29.7809 136.113 27.1454 134.461 25.0016C132.809 22.8578 130.485 21.3295 127.862 20.6613C128.922 18.7438 129.592 16.6358 129.834 14.4586C129.835 12.9977 129.535 11.5522 128.952 10.2125C128.369 8.87272 127.516 7.66745 126.446 6.6719C124.318 4.71592 121.859 3.15215 119.185 2.05309C116.68 0.904434 113.873 -0.123314 111.223 0.662609C108.113 1.59363 106.177 4.73733 105.076 7.80847C104.329 7.46334 103.492 7.36401 102.685 7.52481C101.878 7.68561 101.144 8.09824 100.587 8.70322C100.026 9.32888 99.596 10.0591 99.3197 10.8519C99.0435 11.6446 98.9271 12.4841 98.9771 13.322C99.0032 14.4137 99.2287 15.4914 99.6427 16.502C100.671 15.2929 101.906 14.0838 103.14 14.9664C104.374 15.8491 105.112 17.6627 106.25 18.5938C107.482 19.624 108.82 20.5198 110.243 21.2659C110.739 21.5803 114.321 22.8498 114.406 23.2609Z" fill="black"/>
<defs>
<linearGradient id="paint0_linear" x1="3250.43" y1="3821.66" x2="3757.52" y2="4148.77" gradientUnits="userSpaceOnUse">
<stop offset="0.01"/>
<stop offset="0.13" stop-opacity="0.69"/>
<stop offset="0.25" stop-opacity="0.32"/>
<stop offset="1" stop-opacity="0"/>
</linearGradient>
<linearGradient id="paint1_linear" x1="3833.12" y1="4276.05" x2="3983.85" y2="3636.86" gradientUnits="userSpaceOnUse">
<stop offset="0.01"/>
<stop offset="0.13" stop-opacity="0.69"/>
<stop offset="0.25" stop-opacity="0.32"/>
<stop offset="1" stop-opacity="0"/>
</linearGradient>
<linearGradient id="paint2_linear" x1="81.1897" y1="126.314" x2="94.7367" y2="95.9932" gradientUnits="userSpaceOnUse">
<stop/>
<stop offset="1" stop-opacity="0"/>
</linearGradient>
<linearGradient id="paint3_linear" x1="3263.73" y1="2253.42" x2="3768.38" y2="3022.48" gradientUnits="userSpaceOnUse">
<stop offset="0.01"/>
<stop offset="0.13" stop-opacity="0.69"/>
<stop offset="0.25" stop-opacity="0.32"/>
<stop offset="1" stop-opacity="0"/>
</linearGradient>
<linearGradient id="paint4_linear" x1="2388.15" y1="1562.15" x2="2735.73" y2="2107.76" gradientUnits="userSpaceOnUse">
<stop offset="0.01"/>
<stop offset="0.13" stop-opacity="0.69"/>
<stop offset="0.25" stop-opacity="0.32"/>
<stop offset="1" stop-opacity="0"/>
</linearGradient>
</defs>
</svg>
