<svg width="200" height="200" viewBox="0 0 200 200" fill="none" xmlns="http://www.w3.org/2000/svg">
<path d="M76.9256 170.842C58.5714 170.581 43.7699 164.319 43.8834 156.834C43.8834 156.008 43.2591 151.308 43.6223 150.561C46.5168 144.288 60.9891 143.552 77.3116 143.767C93.373 144.005 106.824 143.767 109.866 149.961C110.308 150.844 110.376 156.868 110.365 157.763C110.263 165.259 95.2912 171.079 76.9256 170.842Z" fill="#F2F2F2"/>
<path d="M110.132 151.547C110.239 144.075 95.4422 137.805 77.0826 137.542C58.7229 137.28 43.7525 143.126 43.6453 150.598C43.5381 158.071 58.3346 164.341 76.6943 164.603C95.054 164.865 110.024 159.02 110.132 151.547Z" fill="#E0E0E0"/>
<path d="M105.205 151.477C105.297 145.111 92.6927 139.769 77.0534 139.546C61.4141 139.323 48.662 144.302 48.5706 150.668C48.4793 157.034 61.0834 162.375 76.7227 162.599C92.3619 162.822 105.114 157.842 105.205 151.477Z" fill="#D0D0D0"/>
<path d="M59.0267 149.723L63.5671 149.791C63.6564 149.203 63.8866 148.644 64.2384 148.163C64.5901 147.682 65.0529 147.293 65.5875 147.028L68.5955 147.493C68.0741 147.729 67.6209 148.092 67.2776 148.55C66.9344 149.007 66.7122 149.543 66.6318 150.108C66.6318 151.411 68.4479 152.373 70.9905 152.373C71.9748 152.444 72.9627 152.3 73.8858 151.952C74.8089 151.604 75.6452 151.06 76.3367 150.358C77.3378 149.319 78.5609 148.518 79.915 148.017C81.2691 147.515 82.7192 147.324 84.1574 147.459C87.8805 147.459 90.7069 148.591 91.3652 150.312L95.9055 150.38V151.513L91.5355 151.445C91.4685 151.935 91.2893 152.404 91.0118 152.814C90.7343 153.224 90.3659 153.566 89.935 153.811L86.9838 153.313C87.401 153.083 87.7581 152.758 88.0263 152.364C88.2945 151.971 88.4661 151.52 88.5275 151.048C88.5275 149.656 86.4957 149.078 84.6909 149.055C83.7204 149.001 82.7503 149.171 81.8565 149.552C80.9626 149.933 80.169 150.515 79.5377 151.252C77.6307 153.098 75.2697 154.015 71.2289 154.015C67.6647 154.015 64.2935 152.883 63.6125 151.014L58.9473 150.946L59.0267 149.723Z" fill="#E0E0E0"/>
<path d="M98.2737 159.802C79.9195 159.541 65.118 153.28 65.2315 145.795C65.2315 144.968 64.6072 140.269 64.9591 139.521C67.8649 133.248 82.3372 132.512 98.6597 132.727C114.721 132.965 128.172 132.727 131.214 138.921C131.657 139.805 131.725 145.829 131.713 146.723C131.611 154.14 116.639 160.006 98.2737 159.802Z" fill="#F2F2F2"/>
<path d="M131.483 140.451C131.59 132.979 116.794 126.708 98.4341 126.446C80.0744 126.184 65.1041 132.029 64.9969 139.502C64.8896 146.974 79.6862 153.244 98.0459 153.507C116.406 153.769 131.376 147.924 131.483 140.451Z" fill="#E0E0E0"/>
<path d="M126.557 140.38C126.648 134.015 114.044 128.673 98.405 128.45C82.7657 128.227 70.0135 133.206 69.9222 139.572C69.8309 145.938 82.435 151.279 98.0742 151.502C113.713 151.726 126.466 146.746 126.557 140.38Z" fill="#EAEAEA"/>
<path d="M80.3729 138.627L84.9132 138.695C85.0026 138.106 85.2328 137.548 85.5846 137.067C85.9363 136.586 86.3991 136.196 86.9337 135.932L89.9416 136.396C89.4203 136.632 88.967 136.996 88.6238 137.453C88.2806 137.91 88.0584 138.446 87.978 139.012C87.978 140.314 89.7941 141.277 92.3367 141.277C93.3267 141.357 94.3223 141.22 95.2537 140.876C96.185 140.531 97.0297 139.988 97.7283 139.284C98.7279 138.243 99.9508 137.441 101.305 136.939C102.66 136.437 104.111 136.248 105.549 136.385C109.272 136.385 112.098 137.517 112.757 139.238L117.297 139.306V140.439L112.927 140.371C112.86 140.861 112.681 141.33 112.403 141.74C112.126 142.151 111.757 142.492 111.327 142.737L108.375 142.239C108.793 142.009 109.15 141.684 109.418 141.29C109.686 140.897 109.858 140.446 109.919 139.974C109.919 138.593 107.887 138.015 106.083 137.993C105.112 137.938 104.142 138.108 103.248 138.489C102.354 138.87 101.561 139.452 100.929 140.19C99.0223 142.035 96.6613 142.952 92.6204 142.952C89.0563 142.952 85.6851 141.82 85.0041 139.952L80.3389 139.884L80.3729 138.627Z" fill="#E0E0E0"/>
<path d="M85.9985 169.567C67.6329 169.295 52.8314 163.033 52.9449 155.559C52.9449 154.733 52.3206 150.034 52.6839 149.286C55.5783 143.013 70.062 142.277 86.3845 142.492C102.446 142.73 115.897 142.492 118.927 148.686C119.37 149.569 119.438 155.605 119.427 156.499C119.336 163.973 104.353 169.827 85.9985 169.567Z" fill="#F2F2F2"/>
<path d="M119.203 150.273C119.31 142.801 104.514 136.53 86.1538 136.268C67.7942 136.006 52.8238 141.851 52.7166 149.324C52.6094 156.796 67.4059 163.067 85.7656 163.329C104.125 163.591 119.096 157.746 119.203 150.273Z" fill="#E0E0E0"/>
<path d="M114.277 150.203C114.368 143.837 101.764 138.496 86.1247 138.272C70.4854 138.049 57.7333 143.028 57.6419 149.394C57.5506 155.76 70.1547 161.101 85.7939 161.325C101.433 161.548 114.185 156.569 114.277 150.203Z" fill="#F2F2F2"/>
<path d="M68.0858 148.437L72.6261 148.505C72.7145 147.916 72.9445 147.357 73.2963 146.876C73.6481 146.395 74.1114 146.006 74.6466 145.742L77.6545 146.217C77.1347 146.457 76.6823 146.821 76.3377 147.278C75.9931 147.734 75.767 148.269 75.6795 148.833C75.6795 150.124 77.4956 151.041 80.0496 151.098C81.0396 151.178 82.0352 151.041 82.9666 150.697C83.8979 150.353 84.7425 149.809 85.4412 149.105C86.44 148.066 87.6612 147.266 89.0134 146.764C90.3657 146.262 91.8141 146.071 93.2506 146.206C96.985 146.206 99.8113 147.338 100.458 149.071L104.999 149.139V150.271L100.64 150.203C100.568 150.694 100.386 151.162 100.107 151.572C99.8278 151.982 99.4589 152.323 99.0281 152.57L96.0769 152.072C96.494 151.84 96.8515 151.515 97.1213 151.122C97.3912 150.729 97.566 150.279 97.632 149.807C97.632 148.426 95.5888 147.848 93.7954 147.814C92.8252 147.762 91.856 147.933 90.9625 148.314C90.069 148.695 89.2752 149.275 88.6421 150.011C86.7238 151.868 84.3742 152.785 80.322 152.785C76.7578 152.785 73.398 151.653 72.7169 149.784L68.0518 149.716L68.0858 148.437Z" fill="#E0E0E0"/>
<path d="M159.804 145.025C159.883 150.198 158.941 155.337 157.032 160.147C155.122 164.957 152.283 169.345 148.675 173.059C145.068 176.773 140.763 179.741 136.007 181.794C131.251 183.847 126.136 184.945 120.955 185.024C115.774 185.103 110.628 184.162 105.812 182.255C100.995 180.348 96.6014 177.513 92.882 173.91C89.1626 170.308 86.1901 166.009 84.1343 161.259C82.0786 156.51 80.9797 151.402 80.9005 146.229C80.9005 145.824 80.9005 145.429 80.9005 145.025C80.8805 144.018 80.9204 143.012 81.0202 142.01C81.7837 131.84 86.467 122.362 94.0851 115.57C101.703 108.778 111.662 105.201 121.867 105.592C132.072 105.982 141.728 110.31 148.803 117.664C155.879 125.018 159.822 134.826 159.804 145.025Z" fill="#40798C"/>
<path opacity="0.14" d="M103.773 162.92C102.466 168.618 104.058 174.684 102.852 180.382C93.7379 175.887 86.7099 168.055 83.2301 158.517C83.0366 156.558 83.083 154.583 83.3681 152.635C83.635 150.54 84.0216 148.37 83.4326 146.339C82.8624 144.779 82.0349 143.325 80.9844 142.038C81.4204 136.278 83.1227 130.685 85.9703 125.657C88.8179 120.629 92.7406 116.29 97.459 112.949C97.5051 113.213 97.5051 113.484 97.459 113.748L95.7655 121.248C96.1061 123.472 96.1061 125.734 95.7655 127.957C95.5849 129.069 95.1614 130.126 94.5251 131.056C93.8888 131.985 93.0554 132.763 92.0841 133.334C91.3563 133.637 90.6492 133.987 89.9672 134.382C89.3075 134.912 88.76 135.568 88.3565 136.312C87.2633 137.829 86.4498 139.528 85.9544 141.33C85.7103 142.231 85.6961 143.178 85.9132 144.085C86.1302 144.992 86.5716 145.83 87.1969 146.523L98.2413 144.391C99.3918 144.17 100.782 144.014 101.573 144.878C102.493 145.907 101.923 147.562 102.135 148.95C102.392 150.723 103.975 152.001 104.712 153.655C106.046 156.532 104.491 159.813 103.773 162.92Z" fill="#020202"/>
<path d="M112.13 76.1942L120.413 49.1914C121.481 44.0169 121.95 37.9141 122.539 32.6477C122.833 30.9278 122.817 29.1694 122.493 27.4549C121.959 25.2215 120.459 22.8043 121.656 20.8374C122.852 18.8706 126.175 19.1923 128.209 20.5525C131.016 22.3907 132.893 26.6001 130.666 29.1368C129.974 29.7301 129.325 30.3721 128.724 31.0577C127.96 32.2341 128.172 33.815 128.319 35.166C129 41.5997 127.657 48.0333 126.331 54.4669L122.65 72.0583C121.729 76.3413 120.312 81.2492 116.207 82.8393C115.908 82.9852 115.581 83.0671 115.249 83.0797C114.916 83.0924 114.584 83.0355 114.274 82.9128C113.906 82.7023 113.591 82.4098 113.354 82.058C112.406 80.5599 112.231 77.9865 112.13 76.1942Z" fill="#C1A7A7"/>
<path d="M112.13 76.1942L120.413 49.1914C121.481 44.0169 121.95 37.9141 122.539 32.6477C122.833 30.9278 122.817 29.1694 122.493 27.4549C121.959 25.2215 120.459 22.8043 121.656 20.8374C122.852 18.8706 126.175 19.1923 128.209 20.5525C131.016 22.3907 132.893 26.6001 130.666 29.1368C129.974 29.7301 129.325 30.3721 128.724 31.0577C127.96 32.2341 128.172 33.815 128.319 35.166C129 41.5997 127.657 48.0333 126.331 54.4669L122.65 72.0583C121.729 76.3413 120.312 81.2492 116.207 82.8393C115.908 82.9852 115.581 83.0671 115.249 83.0797C114.916 83.0924 114.584 83.0355 114.274 82.9128C113.906 82.7023 113.591 82.4098 113.354 82.058C112.406 80.5599 112.231 77.9865 112.13 76.1942Z" fill="url(#paint0_linear)" fill-opacity="0.2"/>
<path opacity="0.14" d="M93.7591 117.406C92.1853 119.244 90.5562 121.202 90.0776 123.564C89.9286 124.071 89.9286 124.61 90.0776 125.117C90.2895 125.517 90.5834 125.868 90.9402 126.147C91.2971 126.426 91.7088 126.626 92.1484 126.735C95.8894 128.169 99.8775 128.85 103.883 128.739C103.653 130.99 103.552 133.601 105.199 135.172C105.822 135.715 106.544 136.133 107.325 136.404C109.806 137.379 112.43 137.938 115.093 138.058C117.321 138.159 119.576 137.939 121.803 138.187C124.553 138.488 127.183 139.474 129.451 141.054C130.033 141.405 130.512 141.903 130.841 142.497C131.082 143.14 131.179 143.827 131.126 144.51C131.142 146.928 131.451 149.335 132.047 151.679C132.645 153.958 133.611 156.275 135.526 157.662C136.539 158.314 137.643 158.813 138.802 159.142L146.671 161.826C146.862 161.913 147.076 161.932 147.279 161.881C147.472 161.777 147.623 161.608 147.702 161.403C148.576 159.694 149.442 157.8 149.083 155.889C148.724 153.977 147.242 152.589 146.552 150.834C145.42 148.076 146.303 144.804 145.374 141.955C144.711 140.228 143.663 138.676 142.309 137.415C140.033 135.173 137.614 133.082 135.065 131.156C131.016 127.957 126.911 124.722 122.18 122.59C120.284 121.726 118.167 120.945 117.072 119.18C115.756 117.057 116.327 114.144 114.909 112.085C113.75 110.412 111.568 109.769 109.534 109.658C106.168 109.557 102.833 110.337 99.8612 111.919C97.1829 113.27 95.7103 115.118 93.7591 117.406Z" fill="#020202"/>
<path opacity="0.14" d="M159.804 145.025C159.812 150.983 158.462 156.865 155.859 162.226C153.255 167.587 149.465 172.287 144.775 175.971C144.231 175.614 143.764 175.151 143.403 174.61C142.225 172.827 142.612 170.015 144.517 169.004C143.854 169.353 141.25 168.498 140.467 168.379L136.409 167.754C134.467 167.451 131.07 167.579 129.966 165.622C129.841 165.35 129.69 165.092 129.515 164.85C129.273 164.604 128.985 164.407 128.668 164.271C127.444 163.673 126.018 163.002 125.723 161.67C125.521 160.695 126.008 159.592 125.502 158.729C125.346 158.462 125.106 158.251 124.95 157.984C124.779 157.583 124.715 157.145 124.764 156.712C124.812 156.279 124.971 155.865 125.226 155.512C126.938 152.525 130.481 151.073 133.887 150.503C137.292 149.933 140.808 150.016 144.121 149.06C146.211 148.453 148.199 147.442 150.352 147.148C151.54 146.983 153.031 146.854 153.463 145.742C153.702 145.108 153.463 144.372 153.712 143.738C153.813 143.462 153.997 143.223 154.098 142.948C154.164 142.744 154.189 142.53 154.172 142.317C154.155 142.104 154.096 141.896 153.999 141.706C153.901 141.515 153.767 141.346 153.604 141.208C153.441 141.069 153.253 140.964 153.049 140.898C152.947 140.868 152.842 140.846 152.736 140.834C153.012 140.099 153.233 139.152 152.653 138.628C152.449 138.479 152.212 138.381 151.962 138.342C151.712 138.304 151.457 138.326 151.217 138.407C149.8 138.757 148.778 139.952 147.591 140.797C143.652 143.554 138.249 142.635 134.964 139.308C134.431 138.838 134.049 138.221 133.868 137.534C133.817 136.948 133.95 136.36 134.248 135.853C134.547 135.346 134.996 134.944 135.534 134.704C136.613 134.244 137.776 134.015 138.949 134.033C138.516 131.174 138.028 128.307 137.633 125.457C131.08 127.213 128.429 120.972 127.509 115.789C126.588 110.605 130.27 108.748 135.019 108.436C142.338 111.365 148.61 116.415 153.028 122.937C157.445 129.458 159.806 137.151 159.804 145.025Z" fill="#020202"/>
<path d="M130.768 162.506C130.768 164.675 134.274 166.724 135.986 167.23C136.702 167.378 137.399 167.603 138.066 167.901C138.395 168.063 138.671 168.315 138.863 168.627C139.055 168.939 139.156 169.299 139.152 169.666C139.079 170.3 138.563 170.814 138.425 171.43C138.35 171.971 138.417 172.522 138.618 173.029C139.272 175.134 141.867 176.439 142.502 178.544C146.092 178.186 147.712 178.489 151.264 177.891L154.228 175.998C152.737 173.241 151.255 170.428 149.755 167.634C149.184 166.45 148.477 165.337 147.647 164.316C146.668 163.304 145.56 162.423 144.352 161.697C141.235 159.673 137.992 157.849 134.642 156.238C135.093 156.495 130.768 161.945 130.768 162.506Z" fill="url(#paint1_linear)"/>
<path d="M132.865 152.662C132.497 153.857 132.165 155.263 132.865 156.265C133.206 156.687 133.659 157.005 134.172 157.184C134.769 157.476 135.436 157.594 136.097 157.524C136.758 157.454 137.386 157.199 137.908 156.789C138.46 156.182 138.849 155.445 139.04 154.648C139.97 151.731 140.642 148.739 141.047 145.705C141.121 145.428 141.121 145.136 141.047 144.859C140.89 144.567 140.641 144.334 140.338 144.198C138.746 143.343 136.252 142.654 135.359 144.556C134.19 147.047 133.656 150.061 132.865 152.662Z" fill="#C1A7A7"/>
<path d="M137.66 154.05C138.001 154.005 138.347 154.04 138.672 154.151C138.892 154.272 139.083 154.438 139.234 154.639L142.676 158.572C143.348 159.335 144.057 160.41 143.596 161.274C143.435 161.53 143.218 161.745 142.961 161.904C142.705 162.063 142.415 162.162 142.115 162.194C140.446 162.362 138.764 162.043 137.273 161.274C136.206 160.806 135.166 160.3 134.135 159.749C133.366 159.396 132.695 158.86 132.184 158.186C131.401 156.973 131.162 154.05 132.57 153.14C133.27 152.69 133.886 153.012 134.568 153.333C135.525 153.818 136.586 154.064 137.66 154.05Z" fill="#ABABAB"/>
<path d="M151.982 166.045C152.008 166.268 151.983 166.494 151.908 166.706C151.789 166.915 151.618 167.089 151.411 167.212C150.754 167.666 149.982 167.927 149.184 167.965C148.788 167.983 148.394 167.91 148.031 167.75C147.669 167.591 147.348 167.35 147.094 167.046C146.727 166.454 146.506 165.783 146.45 165.089C146.159 163.593 146.014 162.072 146.018 160.548C145.997 160.459 145.997 160.366 146.017 160.277C146.036 160.188 146.076 160.104 146.132 160.032C146.189 159.959 146.261 159.901 146.343 159.86C146.425 159.819 146.515 159.796 146.607 159.795C147.849 159.528 150.288 158.876 150.951 160.41C151.587 162.223 151.935 164.124 151.982 166.045V166.045Z" fill="#C1A7A7"/>
<path d="M157.237 165.888C158.3 165.942 159.351 166.146 160.357 166.495C160.863 166.672 161.327 166.951 161.722 167.315C162.116 167.678 162.431 168.119 162.648 168.609C162.849 169.097 162.871 169.64 162.713 170.144C162.371 170.875 161.767 171.453 161.019 171.761C157.475 173.683 153.457 174.563 149.432 174.298C148.396 174.333 147.388 173.96 146.625 173.259C146.06 172.418 145.797 171.41 145.879 170.401L145.741 165.64C146.662 165.502 147.462 166.09 148.318 166.384C149.8 166.89 150.38 165.677 151.604 165.383C153.196 165.015 155.608 165.723 157.237 165.888Z" fill="#ABABAB"/>
<path d="M137.66 154.05C138.001 154.005 138.347 154.04 138.672 154.151C138.892 154.272 139.083 154.438 139.234 154.639L142.676 158.572C143.348 159.335 144.057 160.41 143.596 161.274C143.435 161.53 143.218 161.745 142.961 161.904C142.705 162.063 142.415 162.162 142.115 162.194C140.446 162.362 138.764 162.043 137.273 161.274C136.206 160.806 135.166 160.3 134.135 159.749C133.366 159.396 132.695 158.86 132.184 158.186C131.401 156.973 131.162 154.05 132.57 153.14C133.27 152.69 133.886 153.012 134.568 153.333C135.525 153.818 136.586 154.064 137.66 154.05Z" fill="url(#paint2_linear)"/>
<path d="M131.697 154.767C131.751 155.126 131.847 155.478 131.982 155.815C132.131 156.261 132.329 156.689 132.571 157.093C132.902 157.559 133.314 157.964 133.786 158.287C134.972 159.084 136.268 159.703 137.633 160.126C139.705 160.932 141.956 161.167 144.15 160.806C143.951 161.29 143.576 161.68 143.101 161.899C142.629 162.113 142.118 162.228 141.6 162.239C139.577 162.181 137.597 161.646 135.82 160.677L133.786 159.758C133.501 159.632 133.227 159.481 132.967 159.308C132.606 159.039 132.294 158.709 132.047 158.333C131.585 157.658 131.303 156.877 131.228 156.063C131.191 155.669 131.219 155.272 131.311 154.887C131.311 154.721 131.55 153.968 131.771 153.968C131.691 154.226 131.666 154.498 131.697 154.767V154.767Z" fill="#473F47"/>
<path d="M157.237 165.888C158.3 165.942 159.351 166.146 160.357 166.495C160.863 166.672 161.327 166.951 161.722 167.315C162.116 167.678 162.431 168.119 162.648 168.609C162.849 169.097 162.871 169.64 162.713 170.144C162.371 170.875 161.767 171.453 161.019 171.761C157.475 173.683 153.457 174.563 149.432 174.298C148.396 174.333 147.388 173.96 146.625 173.259C146.06 172.418 145.797 171.41 145.879 170.401L145.741 165.64C146.662 165.502 147.462 166.09 148.318 166.384C149.8 166.89 150.38 165.677 151.604 165.383C153.196 165.015 155.608 165.723 157.237 165.888Z" fill="url(#paint3_linear)"/>
<path d="M144.49 113.307C145.525 113.5 146.483 113.985 147.251 114.704C148.172 115.697 148.172 117.167 148.172 118.509C148.152 128.128 146.361 137.661 142.889 146.633C142.81 146.964 142.665 147.275 142.463 147.549C142.26 147.822 142.004 148.051 141.711 148.223C141.181 148.379 140.614 148.353 140.1 148.15C138.019 147.57 135.97 146.883 133.961 146.091L136.676 127.81C136.806 127.299 136.777 126.761 136.593 126.266C136.392 125.923 136.111 125.633 135.774 125.421C132.675 123.129 129.397 121.088 125.972 119.318C123.211 117.912 120.119 116.312 119.373 113.298C119.22 112.793 119.189 112.26 119.282 111.74C119.374 111.221 119.589 110.731 119.907 110.311C120.338 109.881 120.847 109.537 121.407 109.3C123.248 108.381 125.503 107.232 127.592 107.462C129.249 107.627 129.893 108.61 131.274 109.3C135.176 111.331 140.303 112.066 144.49 113.307Z" fill="white"/>
<path d="M136.124 146.817C135.894 146.744 136.704 142.433 136.777 142.001C136.925 141.155 137.56 137.406 138.231 140.007C138.34 140.577 138.408 141.154 138.434 141.735C138.517 142.427 138.637 143.114 138.793 143.793C138.879 144.327 139.037 144.846 139.262 145.337C139.689 146.058 140.259 146.683 140.937 147.176C141.064 147.31 141.233 147.398 141.416 147.424C141.683 147.424 141.885 147.176 141.996 146.927C142.272 146.156 142.391 145.337 142.346 144.519C142.484 139.924 144.867 135.917 144.711 131.202C144.711 130.053 143.616 128.665 143.155 127.608C142.748 126.754 142.439 125.857 142.235 124.934C141.655 121.799 143.505 118.739 143.763 115.559L137.523 118.619L133.961 146.128L136.124 146.817Z" fill="url(#paint4_linear)"/>
<path d="M119.906 110.623C118.655 111.322 117.368 111.954 116.05 112.517C115.7 112.673 115.35 112.82 114.991 112.958C110.939 114.622 106.537 115.254 102.18 114.796C101.738 114.741 101.296 114.667 100.854 114.575C98.343 114.174 96.0441 112.929 94.338 111.046C92.3039 108.611 91.8253 105.219 91.6965 102.03V101.111C91.5837 97.1342 91.8922 93.157 92.6169 89.2453C93.3679 84.5934 95.1715 80.1738 97.8906 76.3229C99.7239 73.8459 102.109 71.829 104.858 70.4315C107.702 68.9885 111.07 68.2533 114.108 69.2551C115.683 69.8355 117.14 70.6983 118.406 71.8009C118.879 72.1539 119.303 72.568 119.667 73.0325C120.176 73.7774 120.527 74.6189 120.697 75.5049C121.958 81.0194 120.21 86.6534 118.857 92.1312C118.111 95.2561 117.541 98.6935 118.967 101.561C121.001 105.614 125.925 107.269 119.906 110.623Z" fill="#40798C"/>
<path d="M119.906 110.642C119.796 111.91 118.194 112.379 116.915 112.48L116.05 112.526C111.451 112.792 106.838 112.371 102.364 111.276C101.813 111.082 101.217 111.056 100.652 111.202C100.566 111.232 100.485 111.276 100.413 111.331V111.634C100.267 112.135 100.237 112.662 100.325 113.177C100.413 113.691 100.616 114.178 100.919 114.603C98.4078 114.202 96.109 112.957 94.4028 111.074C92.3688 108.638 91.8902 105.247 91.7613 102.057V101.138C91.7015 98.7831 91.7752 96.4265 91.9822 94.0796C92.0492 91.9802 92.358 89.8955 92.9026 87.8666C94.2312 84.0166 96.5936 80.6051 99.7318 78.0048C100.024 77.7326 100.364 77.5175 100.735 77.3706C101.155 77.2665 101.591 77.2503 102.017 77.323C102.443 77.3958 102.85 77.5559 103.211 77.7934C103.839 78.094 104.397 78.523 104.849 79.0525C105.43 79.8564 105.751 80.8185 105.769 81.8098C105.797 83.1516 105.677 84.4924 105.41 85.8078C105.135 87.7764 104.71 89.7212 104.14 91.6257C103.867 92.3213 103.66 93.0415 103.524 93.7763C103.413 94.7223 103.579 95.68 104.002 96.5336C104.343 97.3056 104.398 98.1145 104.674 98.9232C105.243 100.586 106.156 102.111 107.352 103.399C109.846 106.023 113.136 107.754 116.713 108.326C117.458 108.391 118.188 108.574 118.875 108.868C119.192 109.043 119.455 109.3 119.637 109.612C119.818 109.925 119.911 110.28 119.906 110.642V110.642Z" fill="url(#paint5_linear)"/>
<path d="M108.236 77.1041C108.723 77.7172 109.333 78.2214 110.028 78.5839C110.722 78.9465 111.485 79.1594 112.267 79.2088C112.514 79.2365 112.763 79.1815 112.976 79.0525C113.199 78.8271 113.324 78.5236 113.326 78.207C113.399 77.5728 113.491 76.764 113.556 75.9552C113.62 75.1464 113.749 74.117 113.841 73.4737C114.027 71.6437 114.722 69.9022 115.847 68.4462C116.077 68.1286 116.342 67.8386 116.639 67.5823C118.581 65.836 110.684 66.5253 109.644 64.1449C108.448 65.6982 108.558 67.8764 108.024 69.7789C107.668 70.7057 107.361 71.6506 107.104 72.6097C106.968 73.3963 106.998 74.2025 107.193 74.9766C107.388 75.7507 107.744 76.4754 108.236 77.1041V77.1041Z" fill="#C1A7A7"/>
<path d="M113.455 76.3229L113.556 75.9552C113.666 75.0361 113.749 74.117 113.841 73.4737C114.027 71.6437 114.722 69.9022 115.848 68.4462L115.903 68.2532C115.903 68.2532 109.644 64.1449 108.973 68.9517C108.301 73.7586 113.455 76.3229 113.455 76.3229Z" fill="url(#paint6_linear)"/>
<path d="M119.98 65.5971C120.1 66.5939 119.914 67.6035 119.446 68.4922C119.197 68.8508 118.885 69.162 118.526 69.4113C116.041 71.2495 112.304 70.9095 109.838 68.9702C108.64 67.945 107.675 66.6774 107.005 65.2513C106.335 63.8252 105.977 62.2733 105.954 60.6984C105.78 59.057 106.245 57.4118 107.251 56.1029C107.864 55.5098 108.614 55.0789 109.436 54.8493C110.257 54.6198 111.123 54.5989 111.954 54.7886C114.223 55.3218 116.291 56.4959 117.909 58.1709C119.502 59.9539 119.897 63.3453 119.98 65.5971Z" fill="#C1A7A7"/>
<path d="M142.547 126.064C143.839 127.73 144.855 129.592 145.557 131.579C149.48 141.207 152.024 151.341 153.113 161.679C149.901 162.083 146.651 162.083 143.44 161.679C143.188 154.356 142.073 147.088 140.117 140.025C139.777 138.513 139.186 137.068 138.369 135.751C136.942 133.647 134.595 132.433 132.34 131.294C127.147 128.719 121.712 126.663 116.114 125.154C113.758 124.492 111.383 123.895 109.064 123.095C107.064 122.5 105.192 121.54 103.542 120.265C102.717 119.62 102.03 118.817 101.521 117.903C101.012 116.989 100.692 115.983 100.578 114.943C100.578 115.476 112.304 114.943 113.399 114.778C117.08 114.382 121.388 112.25 125.014 113.757C127.849 114.934 130.435 117.388 132.984 119.079C136.215 121.184 140.044 123.151 142.547 126.064Z" fill="white"/>
<path d="M125.843 125.283L105.429 115.173L129.055 106.671L147.665 114.915L125.843 125.283Z" fill="#D86B7F"/>
<path d="M125.953 123.748L108.917 115.302L128.641 108.206L144.186 115.09L125.953 123.748Z" fill="black" fill-opacity="0.1"/>
<path d="M97.5045 81.9752C97.4585 82.3244 97.4125 82.6737 97.3757 83.0229C96.8234 88.2066 97.3204 93.3076 97.5137 98.4728C97.6333 101.662 98.0475 107.756 101.388 109.392C107.665 112.452 119.741 111.276 119.741 111.276C121.14 111.055 122.569 111.111 123.947 111.441C124.701 111.68 125.392 112.085 126.119 112.36C128.76 113.39 131.715 112.866 134.494 112.36C134.976 112.305 135.44 112.148 135.856 111.901C136.933 111.165 136.887 109.419 136.086 108.39C135.182 107.447 134.009 106.806 132.727 106.552C129.217 105.384 125.448 105.237 121.858 106.129C121.399 106.284 120.932 106.413 120.459 106.515C119.905 106.605 119.344 106.645 118.783 106.634H114.513C109.617 106.68 104.996 106.699 104.26 100.881C103.984 98.7292 103.929 96.555 104.094 94.3921C104.389 90.486 105.392 86.6166 105.18 82.7013C105.159 81.4597 104.844 80.2409 104.26 79.1444C103.973 78.6039 103.551 78.1465 103.035 77.8164C102.519 77.4864 101.927 77.2948 101.315 77.2603C100.674 77.3096 100.057 77.5256 99.5262 77.8868C98.995 78.248 98.5677 78.7418 98.2868 79.319C97.877 80.1536 97.6124 81.0519 97.5045 81.9752V81.9752Z" fill="#C1A7A7"/>
<path d="M155.331 96.3131L129.322 109.741L125.843 125.283L147.665 114.915L155.331 96.3131Z" fill="#D86B7F"/>
<path d="M120.256 54.5679C120.142 54.408 120.002 54.2682 119.842 54.1544C120.017 54.0766 120.163 53.9463 120.261 53.7816C120.358 53.6168 120.401 53.4258 120.385 53.2353C120.33 52.8492 120.053 52.8217 119.777 52.6654C119.501 52.5092 119.649 52.3437 119.455 52.0404C119.316 51.8666 119.115 51.7544 118.894 51.728L116.943 51.2316C116.943 50.9835 117.007 50.6894 116.823 50.5239C116.639 50.3585 116.114 50.5239 115.737 50.432C115.203 50.3493 114.964 49.7243 114.577 49.3383C113.712 48.4836 113.141 49.3383 112.359 49.4762C111.577 49.614 111.264 48.7777 110.362 48.6582C109.656 48.6047 108.947 48.7019 108.282 48.9431C107.545 49.11 106.862 49.4575 106.294 49.9541C105.898 50.4032 105.586 50.9201 105.374 51.4798C105.151 51.3135 104.871 51.2415 104.596 51.2793C104.32 51.3172 104.071 51.4618 103.901 51.682L103.818 51.8199C103.643 52.1967 103.708 52.6654 103.459 52.9871C103.273 52.9687 103.084 52.9687 102.898 52.9871C102.712 53.0354 102.54 53.1231 102.392 53.2445C102.241 53.3732 102.12 53.5324 102.036 53.7114C101.952 53.8905 101.907 54.0853 101.904 54.283C101.616 54.2124 101.313 54.2349 101.039 54.3474C101.186 54.0811 101.289 53.7923 101.342 53.4926C101.374 53.3802 101.378 53.2616 101.352 53.1476C101.326 53.0336 101.272 52.9278 101.195 52.8401C101.011 52.693 100.652 52.8401 100.726 53.079C100.765 52.9867 100.786 52.8875 100.787 52.7872C100.788 52.6868 100.769 52.5873 100.731 52.4942C100.694 52.4011 100.638 52.3164 100.568 52.2448C100.497 52.1733 100.413 52.1163 100.321 52.0772V52.0772C100.128 52.0138 99.9213 52.0043 99.7234 52.0496C99.5255 52.095 99.3438 52.1935 99.1979 52.3346C99.0598 52.2059 99.2991 51.9669 99.2439 51.7831C99.2181 51.719 99.177 51.6622 99.1242 51.6177C98.8783 51.3855 98.5952 51.196 98.2867 51.057C98.1372 50.9924 97.9733 50.9686 97.8116 50.988C97.6499 51.0074 97.4962 51.0693 97.3663 51.1673C97.2559 50.4872 96.6668 49.4486 95.8201 49.6508C95.5716 49.706 95.3599 50.0001 95.4888 50.2298C95.1878 49.9024 94.8202 49.6428 94.4107 49.4684C94.0013 49.2941 93.5593 49.209 93.1142 49.2188C92.8105 49.2188 92.3963 49.467 92.5528 49.7335C92.1613 49.4425 91.7148 49.2337 91.2402 49.12C90.7656 49.0062 90.2728 48.9898 89.7917 49.0718C89.706 49.0687 89.6214 49.0917 89.5491 49.1376C89.4768 49.1836 89.4202 49.2503 89.3867 49.3291C89.3407 49.4854 89.6076 49.66 89.672 49.5038C89.4304 49.4671 89.1832 49.4974 88.9576 49.5914C88.732 49.6854 88.5366 49.8395 88.3927 50.0368C88.1549 50.3073 88.0284 50.6576 88.0387 51.0173C88.0489 51.3771 88.1951 51.7196 88.4479 51.9761C89.0094 52.4357 90.077 51.9761 89.9297 51.2316C90.1303 51.4776 90.4131 51.6428 90.726 51.6968C91.0389 51.7509 91.3608 51.6901 91.6324 51.5258C91.7037 51.8911 91.9172 52.2134 92.226 52.4218C92.5348 52.6303 92.9138 52.708 93.2799 52.6379C93.4526 52.6026 93.6177 52.5373 93.7677 52.4448C93.8521 52.7985 94.0353 53.121 94.296 53.3748C94.5567 53.6286 94.8841 53.8033 95.2403 53.8786C95.9546 54.0165 96.6888 54.0165 97.4031 53.8786C97.2197 54.0366 97.0019 54.1496 96.767 54.2086C96.5321 54.2677 96.2867 54.2711 96.0502 54.2187C95.8234 54.1637 95.5867 54.1637 95.3599 54.2187C95.1171 54.348 94.9015 54.5227 94.7249 54.7334C94.6893 54.7719 94.6491 54.8058 94.6052 54.8345C94.4917 54.8825 94.3696 54.9073 94.2463 54.9073C94.1229 54.9073 94.0009 54.8825 93.8873 54.8345C93.5653 54.7238 93.2154 54.7238 92.8933 54.8345C92.7355 54.896 92.6023 55.0075 92.5142 55.152C92.4261 55.2965 92.3879 55.4658 92.4055 55.6341C92.2048 55.5925 91.9979 55.5909 91.7966 55.6294C91.5953 55.668 91.4037 55.7458 91.2326 55.8586C91.0615 55.9713 90.9145 56.1167 90.7999 56.2864C90.6853 56.456 90.6054 56.6467 90.5648 56.8473C90.5417 56.9996 90.5417 57.1545 90.5648 57.3068C90.3615 57.2394 90.1419 57.2387 89.9382 57.3049C89.7345 57.371 89.5574 57.5005 89.4327 57.6745C89.3273 57.8373 89.2525 58.0179 89.2118 58.2075C89.1367 58.5547 89.1028 58.9094 89.1106 59.2645C89.1035 59.4081 89.1353 59.551 89.2026 59.6781C89.2353 59.7422 89.288 59.7939 89.3528 59.8255C89.4176 59.857 89.4909 59.8665 89.5616 59.8527C89.4638 59.9635 89.3903 60.0935 89.3459 60.2344C89.3015 60.3753 89.2872 60.5239 89.3039 60.6707C89.3392 60.7881 89.4023 60.8953 89.4879 60.9832C89.6335 61.172 89.8373 61.3076 90.0678 61.3692C90.1817 61.4006 90.3019 61.4019 90.4165 61.3729C90.531 61.3439 90.6361 61.2856 90.7213 61.2038C90.9606 60.974 90.9606 60.5972 91.163 60.2847C91.1407 60.3802 91.1442 60.48 91.1733 60.5737C91.2025 60.6674 91.2561 60.7517 91.3287 60.8178C91.4869 60.9443 91.6885 61.0037 91.8901 60.9832C91.9462 60.9788 92.0001 60.9598 92.0466 60.928C92.0846 60.8892 92.1129 60.8419 92.1294 60.7902C92.2795 60.3933 92.3021 59.9596 92.1938 59.5494C92.2832 59.6304 92.3922 59.6867 92.5101 59.7125C92.628 59.7383 92.7506 59.7327 92.8657 59.6965C92.9797 59.6556 93.0803 59.5843 93.1566 59.4903C93.2329 59.3963 93.2819 59.2832 93.2983 59.1634C93.2891 59.0349 93.2891 58.9059 93.2983 58.7774C93.2983 58.5936 93.5744 58.5384 93.7217 58.4373C93.9273 58.297 94.1212 58.1402 94.3015 57.9686C94.3843 57.8859 95.2219 56.9208 95.139 56.8565C95.3532 56.9944 95.611 57.0481 95.8625 57.0074C96.1141 56.9666 96.3416 56.8343 96.5012 56.6359C96.6448 56.891 96.8742 57.0873 97.1487 57.1899C97.4233 57.2924 97.7253 57.2948 98.0014 57.1965C97.0613 57.8492 96.1969 58.6044 95.4244 59.4483C94.6573 60.286 94.1967 61.3582 94.1174 62.4905C94.0886 63.0655 94.2647 63.6321 94.6144 64.0897C94.7962 64.3104 95.038 64.4739 95.3108 64.5603C95.5835 64.6468 95.8755 64.6525 96.1514 64.5768C96.1411 64.4923 96.1119 64.4112 96.066 64.3394C96.0202 64.2677 95.9588 64.2071 95.8864 64.1621C95.814 64.1172 95.7324 64.089 95.6477 64.0796C95.563 64.0703 95.4772 64.08 95.3967 64.1081C95.2374 64.1762 95.0949 64.278 94.9789 64.4066C94.8629 64.5351 94.7762 64.6873 94.7249 64.8526C94.6296 65.0553 94.5802 65.2766 94.5802 65.5005C94.5802 65.7245 94.6296 65.9457 94.7249 66.1485C94.8215 66.3396 94.9901 66.4847 95.1937 66.5519C95.3973 66.6191 95.6192 66.6029 95.8109 66.5069V66.5069C95.9816 66.3536 96.1221 66.1696 96.2251 65.9647C96.5561 65.5943 96.9063 65.2415 97.2743 64.9077C97.4486 64.7345 97.5583 64.5068 97.585 64.2627C97.6118 64.0186 97.5541 63.7727 97.4216 63.5658C97.937 63.3177 97.9186 62.5456 97.6332 62.0493C97.28 61.606 96.9717 61.1288 96.7129 60.6247H98.6272L99.5476 59.7792C99.9401 60.0278 100.38 60.1915 100.84 60.2595C101.3 60.3276 101.769 60.2986 102.217 60.1744C102.141 60.6231 102.206 61.0843 102.404 61.4943C102.602 61.9042 102.922 62.2427 103.321 62.4629C103.165 62.5824 102.944 62.7295 102.971 62.9592C102.987 63.0336 103.025 63.1018 103.078 63.1556C103.132 63.2094 103.201 63.2465 103.275 63.2625C103.421 63.2901 103.571 63.2901 103.717 63.2625C103.781 63.4004 103.625 63.5475 103.643 63.7037C103.663 63.793 103.716 63.8716 103.791 63.9243C103.961 64.0616 104.159 64.1617 104.37 64.2184C104.33 64.2712 104.308 64.3358 104.308 64.4022C104.308 64.4686 104.33 64.5332 104.37 64.586C104.445 64.6949 104.551 64.7783 104.674 64.825C104.977 64.9826 105.303 65.0912 105.64 65.1467C105.602 65.3318 105.621 65.5244 105.696 65.6981C105.729 65.7864 105.793 65.8599 105.875 65.9055C105.958 65.951 106.054 65.9654 106.147 65.9463C106.23 65.9463 106.303 65.8544 106.386 65.8728C106.438 65.8891 106.483 65.9213 106.515 65.9647C106.668 66.1383 106.784 66.3416 106.855 66.5621C106.878 66.6663 106.918 66.7658 106.975 66.8562C107.06 66.9662 107.175 67.0492 107.306 67.0951C107.481 67.1595 107.693 67.2146 107.831 67.0951C107.876 67.0466 107.907 66.9866 107.92 66.9217C107.933 66.8568 107.927 66.7896 107.905 66.7275C107.858 66.6076 107.793 66.4959 107.711 66.3966C107.757 66.4184 107.809 66.423 107.858 66.4095C107.907 66.396 107.95 66.3653 107.978 66.3231C108.015 66.2253 108.015 66.1176 107.978 66.0198C107.869 65.7652 107.72 65.5295 107.536 65.3213C107.527 65.3011 107.523 65.2791 107.523 65.257C107.523 65.2348 107.527 65.2128 107.536 65.1926C107.542 65.1708 107.552 65.1505 107.567 65.133C107.581 65.1156 107.599 65.1014 107.619 65.0915C107.776 64.9169 107.619 64.632 107.527 64.4298C107.435 64.2276 107.224 63.9978 107.325 63.7772C107.379 63.684 107.444 63.5976 107.518 63.5199C107.619 63.382 107.619 63.1339 107.748 63.0328C107.811 62.9977 107.885 62.9876 107.955 63.0047C108.025 63.0217 108.086 63.0646 108.125 63.1247C108.218 63.235 108.254 63.382 108.337 63.4923C108.501 63.6538 108.683 63.7956 108.88 63.9151C109.018 64.0438 109.119 64.2276 109.267 64.3563C109.312 64.4165 109.374 64.4616 109.445 64.4855C109.516 64.5093 109.593 64.5109 109.665 64.4899C109.737 64.4689 109.801 64.4263 109.849 64.3679C109.896 64.3095 109.924 64.2381 109.929 64.1632C109.944 64.0403 109.928 63.9156 109.883 63.8002C109.839 63.6847 109.766 63.5822 109.672 63.5015C109.599 63.4527 109.534 63.3939 109.478 63.3269C109.448 63.2945 109.431 63.2518 109.431 63.2074C109.431 63.163 109.448 63.1203 109.478 63.0879C109.515 63.094 109.552 63.0884 109.585 63.0719C109.618 63.0553 109.645 63.0288 109.662 62.996C109.672 62.9661 109.672 62.934 109.662 62.9041C109.645 62.8176 109.604 62.7379 109.543 62.6743C109.543 62.6743 109.469 62.6008 109.478 62.5548C109.469 62.5312 109.469 62.5049 109.478 62.4813C109.57 62.3251 109.699 62.1872 109.782 62.031C109.847 61.9069 109.862 61.7628 109.825 61.628C109.787 61.4931 109.699 61.3776 109.58 61.3049C109.764 61.421 109.983 61.4681 110.199 61.4378C110.415 61.4075 110.613 61.3018 110.758 61.1394C111.041 60.8154 111.249 60.4323 111.365 60.0181C111.43 60.067 111.504 60.1027 111.582 60.1232C111.66 60.1436 111.742 60.1484 111.823 60.1373C111.903 60.1262 111.98 60.0994 112.05 60.0585C112.12 60.0175 112.181 59.9632 112.23 59.8987C112.279 59.8341 112.315 59.7605 112.335 59.6822C112.356 59.6038 112.361 59.5222 112.35 59.4419C112.339 59.3617 112.312 59.2845 112.271 59.2146C112.23 59.1447 112.175 59.0836 112.111 59.0347H112.037C112.277 59.1554 112.535 59.2361 112.801 59.2737C112.935 59.2914 113.071 59.2745 113.197 59.2246C113.323 59.1747 113.434 59.0935 113.519 58.9888C113.749 58.6671 113.629 58.1616 113.933 57.9042C114.402 58.3128 114.91 58.673 115.452 58.9796C115.885 59.1219 116.357 59.0866 116.764 58.8816C117.172 58.6765 117.481 58.3184 117.624 57.8859C117.624 57.8859 117.624 57.8859 117.624 57.8307C117.849 57.9797 118.107 58.0732 118.376 58.1036C118.645 58.134 118.917 58.1003 119.17 58.0053C119.372 57.8479 119.516 57.6286 119.581 57.3812C119.646 57.1337 119.628 56.8719 119.529 56.6359C119.804 56.6031 120.059 56.4729 120.246 56.2689C120.433 56.0648 120.541 55.8005 120.55 55.5238C120.562 55.1813 120.458 54.8448 120.256 54.5679V54.5679Z" fill="#473F47"/>
<path d="M146.008 171.862C146.008 171.862 146.928 173.7 153.15 172.653C159.372 171.605 162.298 169.666 162.648 168.572C162.771 168.78 162.852 169.01 162.885 169.25C162.919 169.489 162.905 169.732 162.844 169.966C162.784 170.2 162.677 170.42 162.531 170.613C162.386 170.806 162.203 170.968 161.995 171.09C160.439 172.009 154.411 176.145 147.066 173.609C147.066 173.645 146.146 173.388 146.008 171.862Z" fill="#473F47"/>
<path d="M106.736 62.3711C106.614 62.3755 106.496 62.4137 106.395 62.4814C106.172 62.6277 105.995 62.8339 105.885 63.0761C105.774 63.3184 105.734 63.5869 105.769 63.8508C105.844 64.3843 106.082 64.8818 106.45 65.2754C106.599 65.4669 106.787 65.6237 107.003 65.735C107.295 65.8549 107.607 65.9174 107.923 65.9188C108.044 65.9464 108.17 65.9464 108.291 65.9188C108.413 65.8517 108.515 65.7533 108.586 65.6337C108.657 65.5141 108.695 65.3778 108.696 65.2387C108.744 64.575 108.6 63.9114 108.282 63.327C108.18 63.1395 108.023 62.9884 107.831 62.895C107.509 62.6413 107.135 62.4624 106.736 62.3711V62.3711Z" fill="#C1A7A7"/>
<path d="M100.256 55.34C99.8894 56.388 99.7117 57.4928 99.7317 58.6028C99.6791 59.2037 99.7576 59.8089 99.9618 60.3766C100.147 60.7525 100.383 61.1019 100.661 61.4152C100.937 61.4407 101.216 61.4035 101.476 61.3064C101.735 61.2093 101.97 61.0548 102.161 60.8546C102.256 60.7599 102.326 60.643 102.364 60.5145C102.465 60.1652 102.226 59.8344 102.033 59.5219C101.461 58.483 101.325 57.26 101.655 56.1212C101.812 55.4963 102.907 53.8235 101.499 54.0901C101.201 54.1723 100.929 54.3309 100.711 54.5502C100.493 54.7694 100.336 55.0417 100.256 55.34V55.34Z" fill="#D86B7F"/>
<path d="M69.9276 196.905C51.5733 196.645 36.7719 190.383 36.8854 182.898C36.8854 182.072 36.2611 177.372 36.6243 176.625C39.5188 170.352 53.9911 169.616 70.3135 169.831C86.3749 170.069 99.8256 169.831 102.868 176.025C103.31 176.908 103.378 182.932 103.367 183.827C103.265 191.323 88.2932 197.143 69.9276 196.905Z" fill="#F2F2F2"/>
<path d="M103.133 177.611C103.24 170.139 88.4432 163.868 70.0835 163.606C51.7239 163.344 36.7535 169.189 36.6463 176.662C36.5391 184.134 51.3356 190.405 69.6953 190.667C88.055 190.929 103.025 185.084 103.133 177.611Z" fill="#E0E0E0"/>
<path d="M98.2064 177.541C98.2977 171.175 85.6936 165.833 70.0544 165.61C54.4151 165.387 41.6629 170.366 41.5716 176.732C41.4803 183.098 54.0844 188.439 69.7236 188.662C85.3629 188.886 98.1151 183.906 98.2064 177.541Z" fill="#D0D0D0"/>
<path d="M52.0277 175.787L56.568 175.855C56.6573 175.267 56.8876 174.708 57.2393 174.227C57.5911 173.746 58.0539 173.357 58.5885 173.092L61.5964 173.557C61.0751 173.793 60.6218 174.156 60.2786 174.613C59.9354 175.071 59.7132 175.607 59.6327 176.172C59.6327 177.474 61.4489 178.437 63.9915 178.437C64.9758 178.507 65.9637 178.364 66.8868 178.016C67.8099 177.668 68.6462 177.124 69.3377 176.421C70.3388 175.383 71.5619 174.582 72.916 174.08C74.2701 173.579 75.7202 173.388 77.1584 173.523C80.8815 173.523 83.7078 174.655 84.3662 176.376L88.9065 176.444V177.576L84.5364 177.508C84.4695 177.999 84.2903 178.468 84.0128 178.878C83.7353 179.288 83.3668 179.629 82.936 179.875L79.9848 179.377C80.402 179.146 80.7591 178.821 81.0273 178.428C81.2954 178.035 81.4671 177.584 81.5285 177.112C81.5285 175.719 79.4967 175.142 77.6919 175.119C76.7214 175.065 75.7513 175.235 74.8574 175.616C73.9635 175.997 73.17 176.579 72.5386 177.316C70.6317 179.162 68.2707 180.079 64.2298 180.079C60.6657 180.079 57.2945 178.947 56.6134 177.078L51.9482 177.01L52.0277 175.787Z" fill="#E0E0E0"/>
<path d="M65.8411 188.179C47.4869 187.919 32.6854 181.657 32.7989 174.172C32.7989 173.346 32.1746 168.646 32.5265 167.899C35.4323 161.626 49.9046 160.89 66.2271 161.105C82.2885 161.343 95.7392 161.105 98.7812 167.299C99.2239 168.182 99.292 174.206 99.2806 175.101C99.1785 182.518 84.2068 188.383 65.8411 188.179Z" fill="#F2F2F2"/>
<path d="M99.0505 168.829C99.1578 161.356 84.3612 155.086 66.0015 154.824C47.6418 154.561 32.6714 160.407 32.5642 167.879C32.457 175.352 47.2536 181.622 65.6133 181.884C83.973 182.146 98.9433 176.301 99.0505 168.829Z" fill="#E0E0E0"/>
<path d="M94.1244 168.758C94.2157 162.392 81.6116 157.051 65.9724 156.827C50.3331 156.604 37.5809 161.584 37.4896 167.949C37.3983 174.315 50.0024 179.656 65.6416 179.88C81.2809 180.103 94.033 175.124 94.1244 168.758Z" fill="#EAEAEA"/>
<path d="M47.9403 167.004L52.4806 167.072C52.5699 166.483 52.8002 165.925 53.1519 165.444C53.5037 164.963 53.9664 164.574 54.5011 164.309L57.509 164.773C56.9877 165.01 56.5344 165.373 56.1912 165.83C55.8479 166.288 55.6258 166.824 55.5453 167.389C55.5453 168.691 57.3615 169.654 59.9041 169.654C60.8941 169.734 61.8897 169.597 62.821 169.253C63.7524 168.909 64.597 168.365 65.2957 167.661C66.2953 166.62 67.5182 165.819 68.8727 165.316C70.2272 164.814 71.678 164.625 73.1164 164.762C76.8395 164.762 79.6658 165.894 80.3242 167.616L84.8645 167.684V168.816L80.4944 168.748C80.4275 169.239 80.2483 169.707 79.9708 170.117C79.6933 170.528 79.3248 170.869 78.894 171.115L75.9428 170.616C76.36 170.386 76.7171 170.061 76.9853 169.668C77.2534 169.274 77.4251 168.823 77.4865 168.352C77.4865 166.97 75.4547 166.393 73.6499 166.37C72.6794 166.316 71.7093 166.486 70.8154 166.867C69.9215 167.248 69.128 167.829 68.4966 168.567C66.5897 170.413 64.2287 171.33 60.1878 171.33C56.6237 171.33 53.2525 170.197 52.5714 168.329L47.9062 168.261L47.9403 167.004Z" fill="#E0E0E0"/>
<path d="M80.1548 177.135C61.7892 176.863 46.9877 170.601 47.1012 163.128C47.1012 162.301 46.4769 157.602 46.8401 156.854C49.7346 150.581 64.2182 149.845 80.5407 150.06C96.6021 150.298 110.053 150.06 113.083 156.254C113.526 157.137 113.594 163.173 113.583 164.067C113.492 171.541 98.5091 177.395 80.1548 177.135Z" fill="#F2F2F2"/>
<path d="M113.36 157.841C113.467 150.369 98.6707 144.098 80.3111 143.836C61.9514 143.574 46.981 149.419 46.8738 156.892C46.7666 164.364 61.5631 170.635 79.9228 170.897C98.2825 171.159 113.253 165.314 113.36 157.841Z" fill="#E0E0E0"/>
<path d="M108.434 157.771C108.525 151.405 95.9212 146.064 80.2819 145.841C64.6426 145.617 51.8905 150.597 51.7992 156.962C51.7078 163.328 64.3119 168.67 79.9512 168.893C95.5904 169.116 108.343 164.137 108.434 157.771Z" fill="#F2F2F2"/>
<path d="M62.243 156.005L66.7834 156.073C66.8718 155.484 67.1017 154.925 67.4535 154.444C67.8053 153.963 68.2686 153.574 68.8038 153.31L71.8118 153.786C71.2919 154.025 70.8395 154.39 70.4949 154.846C70.1504 155.302 69.9242 155.837 69.8367 156.401C69.8367 157.692 71.6529 158.609 74.2068 158.666C75.1968 158.746 76.1924 158.609 77.1238 158.265C78.0552 157.921 78.8998 157.377 79.5984 156.673C80.5973 155.634 81.8184 154.834 83.1706 154.332C84.5229 153.83 85.9713 153.64 87.4078 153.774C91.1422 153.774 93.9686 154.907 94.6156 156.639L99.1559 156.707V157.839L94.7972 157.771C94.7257 158.262 94.5435 158.73 94.2643 159.14C93.985 159.55 93.6161 159.891 93.1853 160.138L90.2341 159.64C90.6512 159.408 91.0087 159.083 91.2786 158.69C91.5484 158.297 91.7232 157.847 91.7892 157.375C91.7892 155.994 89.746 155.416 87.9526 155.382C86.9824 155.33 86.0132 155.501 85.1197 155.882C84.2262 156.263 83.4324 156.844 82.7994 157.579C80.8811 159.436 78.5314 160.353 74.4792 160.353C70.9151 160.353 67.5552 159.221 66.8742 157.352L62.209 157.285L62.243 156.005Z" fill="#E0E0E0"/>
<defs>
<linearGradient id="paint0_linear" x1="103.57" y1="53.6949" x2="151.51" y2="46.4235" gradientUnits="userSpaceOnUse">
<stop offset="0.01"/>
<stop offset="0.13" stop-opacity="0.69"/>
<stop offset="0.25" stop-opacity="0.32"/>
<stop offset="1" stop-opacity="0"/>
</linearGradient>
<linearGradient id="paint1_linear" x1="17797.9" y1="-3100.95" x2="16461.3" y2="-1801.52" gradientUnits="userSpaceOnUse">
<stop offset="0.01"/>
<stop offset="0.13" stop-opacity="0.69"/>
<stop offset="0.25" stop-opacity="0.32"/>
<stop offset="1" stop-opacity="0"/>
</linearGradient>
<linearGradient id="paint2_linear" x1="2937.11" y1="1430.5" x2="2860.59" y2="1271.77" gradientUnits="userSpaceOnUse">
<stop offset="0.01"/>
<stop offset="0.13" stop-opacity="0.69"/>
<stop offset="0.25" stop-opacity="0.32"/>
<stop offset="1" stop-opacity="0"/>
</linearGradient>
<linearGradient id="paint3_linear" x1="12638.8" y1="-909.02" x2="12572" y2="-1192.16" gradientUnits="userSpaceOnUse">
<stop offset="0.01"/>
<stop offset="0.13" stop-opacity="0.69"/>
<stop offset="0.25" stop-opacity="0.32"/>
<stop offset="1" stop-opacity="0"/>
</linearGradient>
<linearGradient id="paint4_linear" x1="77.6894" y1="128.867" x2="145.981" y2="131.632" gradientUnits="userSpaceOnUse">
<stop/>
<stop offset="1" stop-opacity="0"/>
</linearGradient>
<linearGradient id="paint5_linear" x1="7246.29" y1="7175.3" x2="5054.6" y2="7410.68" gradientUnits="userSpaceOnUse">
<stop/>
<stop offset="1" stop-opacity="0"/>
</linearGradient>
<linearGradient id="paint6_linear" x1="4427.5" y1="-2134.43" x2="4273.84" y2="-1892.81" gradientUnits="userSpaceOnUse">
<stop offset="0.01"/>
<stop offset="0.13" stop-opacity="0.69"/>
<stop offset="0.25" stop-opacity="0.32"/>
<stop offset="1" stop-opacity="0"/>
</linearGradient>
</defs>
</svg>
