<svg width="117" height="176" viewBox="0 0 117 176" fill="none" xmlns="http://www.w3.org/2000/svg">
<path opacity="0.18" d="M5.2119 161.969C7.81124 161.346 11.6604 160.821 16.0939 160.585C21.1783 160.315 26.4279 160.441 31.4334 160.568C38.8109 160.755 46.4019 160.931 54.0307 160.679C66.7284 160.262 77.9641 158.711 90.7114 158.432C94.6668 158.349 98.5932 158.393 102.245 158.561C105.896 158.728 109.193 159.016 111.931 159.406C113.369 159.615 114.651 159.855 115.412 160.143C116.279 160.474 116.396 160.854 116.259 161.228C115.891 162.224 113.822 163.171 110.429 164.056L110.348 164.077C106.871 164.983 104.875 165.986 104.557 166.989C104.444 167.354 104.568 167.716 104.394 168.082C104.088 168.778 102.789 169.476 101.032 170.144C98.4549 171.122 94.7612 172.064 89.6123 172.781C86.1188 173.267 82.0604 173.637 78.0392 174.002C75.9761 174.19 73.8724 174.38 71.6009 174.47C70.0206 174.525 68.4244 174.55 66.8529 174.541C65.496 174.54 64.1604 174.529 62.8461 174.507C55.1463 174.379 48.0114 173.945 42.1008 173.247C35.8821 172.516 30.6861 171.664 25.5233 170.762C18.4626 169.529 10.3318 168.417 5.26234 166.951C4.29317 166.671 3.4712 166.377 2.80346 166.073C-0.0791774 164.757 -0.0375266 163.226 5.2119 161.969Z" fill="#70A9A1"/>
<g clip-path="url(#clip0)">
<path d="M47.7751 0.332157C38.5593 5.65702 33.5137 16.4623 36.0777 27.546C37.0948 31.2433 32.022 32.7292 31.3041 28.9448C31.1313 28.1906 31.0178 27.4325 30.8993 26.6789C18.2326 54.0152 17.2604 89.5709 28.9993 119.756H37.8715C37.9752 119.756 38.0789 119.756 38.1776 119.756H81.7279C81.9254 119.7 82.1327 119.667 82.3352 119.667L88.71 119.722C89.8609 112.098 89.2437 103.861 86.3183 96.9192C83.1197 89.3292 77.6055 83.355 69.4325 81.0416C60.311 78.4602 55.3389 75.5878 52.0352 72.2411C48.814 68.9777 47.4187 65.6312 45.2654 62.4328L41.9217 59.3656C41.8724 59.3101 41.8279 59.3098 41.7884 59.2654C39.4653 56.8271 42.5592 52.833 45.0284 55.0826L45.1518 55.2099C52.5818 62.9636 66.4285 64.597 76.1174 58.6029C78.1077 57.3666 80.4002 59.5548 79.6373 61.962C83.8426 64.3447 89.9053 64.5822 94.1308 61.962C90.6489 59.9027 87.1585 56.8593 84.1308 54.3694C82.1879 52.8251 81.7617 52.1703 82.6308 51.0278C83.5 49.8854 84.7486 50.5794 86.6309 52.1274C89.9479 54.8553 92.1889 57.2188 96.1314 59.414C98.34 56.2328 100.187 51.2092 99.2812 47.2677C97.951 41.4801 93.1029 37.0828 87.053 36.5706C86.9641 36.5706 86.8801 36.5153 86.7913 36.5043C77.3384 34.5665 69.8285 28.1644 66.231 19.5645C60.3036 19.2926 54.6412 16.9778 50.2518 12.8233C50.3012 14.1872 50.395 15.4408 50.627 16.3348C51.7118 19.9777 46.7299 21.62 45.892 17.8954C44.9025 14.0999 45.0674 9.31827 46.0747 4.50004C46.445 2.72545 47.2424 1.83194 47.7717 0.305401L47.7751 0.332157ZM58.6314 31.3885C61.9233 31.5772 61.9248 37.8934 58.6314 37.7059H55.8361C52.4974 37.7614 52.4974 31.3353 55.8361 31.3885H57.9996C58.3678 31.3885 57.7375 31.3373 58.6314 31.3885Z" fill="#40798C"/>
<path d="M10.7659 114.239C6.29996 85.2224 12.3983 51.8862 24.8457 28.7273V28.7395C14.2953 54.5753 13.1537 86.0682 22.0106 114.295L10.7659 114.239Z" fill="#EA6F8C"/>
<path d="M36.5301 136.458H85.0371C87.8149 136.458 89.9746 138.885 89.9746 142.007C89.9746 145.109 87.8382 147.489 85.0855 147.544H31.5057C28.7521 147.514 26.6166 145.109 26.6166 142.007C26.6166 138.885 28.7758 136.458 31.5541 136.458H35.9608H36.5301Z" fill="#40798C"/>
<path d="M38.7094 125.326H78.2188V130.908H38.7094V125.326Z" fill="#40798C"/>
<path d="M85.0369 153.105H94.8734V153.11C98.2023 153.11 100.438 155.5 100.438 157.987V159.299V159.437V162.211V164.173H94.8734H22.0547H16.5V162.211H16.5494L16.5 159.437V159.382C16.5005 159.387 16.5 159.381 16.5 159.292V157.982C16.5 155.494 18.7263 153.105 22.0547 153.105H31.5539H85.0369Z" fill="#40798C"/>
</g>
<defs>
<clipPath id="clip0">
<rect width="92" height="164.79" fill="white" transform="matrix(-1 0 0 1 101 0)"/>
</clipPath>
</defs>
</svg>
