<svg width="135" height="135" viewBox="0 0 135 135" fill="none" xmlns="http://www.w3.org/2000/svg">
<g clip-path="url(#clip0)">
<path d="M105.499 119.542C89.1635 130.495 67.687 133.921 47.5222 126.939C14.7035 115.577 -2.21328 80.9487 9.73744 49.5956C18.7042 26.0712 41.3745 11.0743 65.9991 9.85124L65.9991 19.5001C47.5222 19.5001 25.8543 34.0001 18.499 54.5001C11.1438 75.0001 19.999 103.862 47.5222 116C76.999 129 100.499 111.5 100.499 111.5L105.499 119.542Z" fill="#40798C"/>
<path d="M82.4871 106.319C73.9315 109.287 64.2806 109.514 55.0593 106.319C34.188 99.0892 23.4215 77.0703 31.0117 57.1388C35.8099 44.539 46.7951 35.7895 59.5001 32.8839L61.5 39.5C61.5 39.5 47.1922 39.5 39 56.5C30.8078 73.5 40.5 91.5 55.0593 98C69.6186 104.5 80 100 80 100L82.4871 106.319Z" fill="#70A9A1"/>
<path d="M100.54 55.0709C99.2124 58.141 95.5477 59.6178 92.3545 58.3692C89.1614 57.1207 85.7218 52.8662 87.0494 49.796C88.3769 46.7259 92.0417 45.2491 95.2348 46.4977C98.428 47.7462 101.868 52.0007 100.54 55.0709Z" fill="#EA6F8C"/>
<path fill-rule="evenodd" clip-rule="evenodd" d="M85.759 81.0979C101.075 81.0407 104.207 87.5393 108.296 92.1272C112.384 96.7151 117.088 102.641 117.474 102.754C123.322 98.2101 127.084 93.5786 124.887 88.5176C123.929 80.2511 119.42 78.5611 90.7037 26.551C86.6806 19.2646 76.7682 19.2646 76.7682 19.2646L76.7682 10.2131C76.7682 10.2131 85.9721 12.1069 90.736 15.6857C95.5 19.2646 97.9383 26.2115 98.6292 26.1639C106.534 23.8806 111.952 17.1882 111.952 17.1882C111.952 17.1882 113.173 18.3723 113.391 19.2646C113.863 20.9611 107.028 30.0765 102.934 32.4L120.55 63.7476C130.873 82.7903 131.022 84.8842 131.544 87.9862C133.478 99.4639 123.413 107.483 114.875 112.474C111.82 108.08 107.97 104.111 105.159 99.5697C98.3768 88.6166 88.7805 88.1162 83.7409 88.1401C59.1832 88.2566 45.8959 67.7165 62.6627 54.1933C65.1417 53.2688 68.6701 58.7965 66.8765 60.4413C56.7824 72.8063 70.4434 81.1551 85.759 81.0979Z" fill="#40798C"/>
</g>
<defs>
<clipPath id="clip0">
<rect width="135" height="135" fill="white" transform="matrix(-1 0 0 1 135 0)"/>
</clipPath>
</defs>
</svg>
