<svg width="53" height="91" viewBox="0 0 53 91" fill="none" xmlns="http://www.w3.org/2000/svg">
<g clip-path="url(#clip0)">
<path d="M22.8813 -1.66836C17.6656 1.25949 14.7649 7.27915 16.1442 13.4983C16.6954 15.5739 13.8327 16.3765 13.4504 14.2539C13.3575 13.8308 13.2979 13.4057 13.2355 12.9832C5.95242 28.2129 5.20232 48.1108 11.6349 65.075L16.6268 65.1259C16.6852 65.1265 16.7435 65.1271 16.7991 65.1277L41.3028 65.3777C41.4143 65.3478 41.5311 65.3304 41.645 65.3315L45.2315 65.3992C45.9227 61.1381 45.6225 56.5234 44.0161 52.6207C42.2598 48.3536 39.1913 44.9777 34.6059 43.6357C29.4884 42.1383 26.7072 40.5019 24.8675 38.6095C23.0737 36.7642 22.3077 34.8829 21.1145 33.0801L19.2507 31.3439C19.2232 31.3126 19.1982 31.3121 19.1762 31.2871C17.8831 29.9088 19.6466 27.6908 21.0231 28.9642L21.0918 29.0362C25.228 33.4192 33.0096 34.4131 38.4954 31.1133C39.6223 30.4327 40.8997 31.6708 40.4567 33.0139C42.8092 34.3719 46.2191 34.5396 48.6115 33.0971C46.6642 31.9244 44.7177 30.2007 43.0283 28.7895C41.741 27.7142 39.9067 25.9103 41.2035 25.9103C42.5002 25.9103 41.715 25.5664 43.5002 27C46.5526 29.4512 48.5002 30.5 50.5002 31C51.761 29.2319 52.0803 27.1126 51.5933 24.9011C50.878 21.6536 48.1753 19.1643 44.7742 18.8428C44.7242 18.8423 44.6773 18.8109 44.6273 18.8042C39.3197 17.6652 35.1308 14.0383 33.1557 9.20353C29.8222 9.01729 26.6495 7.68902 24.2035 5.33817C24.2235 6.10197 24.2691 6.80425 24.3945 7.306C24.9841 9.35149 22.1716 10.2422 21.7214 8.15245C21.1864 6.02209 21.3065 3.34637 21.9007 0.654982C22.1192 -0.336274 22.573 -0.831867 22.8795 -1.68336L22.8813 -1.66836Z" fill="#40798C"/>
<path d="M1.40688 61.8673C-0.940178 45.5987 2.68148 26.9727 9.81738 14.0801L9.81731 14.087C3.73347 28.4888 2.91129 46.1115 7.73344 61.9629L1.40688 61.8673Z" fill="#EA6F8C"/>
<path d="M15.7759 74.4527L43.0686 74.7312C44.6315 74.7472 45.8328 76.1183 45.815 77.8658C45.7973 79.6026 44.5816 80.9223 43.0325 80.9376L12.8856 80.63C11.3364 80.5974 10.1486 79.2388 10.1663 77.5021C10.1841 75.7545 11.4129 74.4082 12.9761 74.4242L15.4556 74.4495L15.7759 74.4527Z" fill="#40798C"/>
<path d="M17.0658 68.2341L39.2959 68.461L39.264 71.5858L17.0339 71.359L17.0658 68.2341Z" fill="#40798C"/>
<path d="M42.9735 84.05L48.508 84.1065L48.508 84.1095C50.381 84.1286 51.625 85.4791 51.6108 86.8716L51.6033 87.6057L51.6025 87.683L51.5867 89.2362L51.5755 90.3343L48.4448 90.3023L7.47297 89.8843L4.3476 89.8524L4.35881 88.7543L4.38659 88.7545L4.37466 87.2011L4.37497 87.1704C4.37522 87.1735 4.37497 87.1701 4.37548 87.1204L4.38297 86.3866C4.39718 84.9941 5.66347 83.6693 7.5362 83.6884L12.881 83.743L42.9735 84.05Z" fill="#40798C"/>
<path d="M28.9273 15.7465C28.5151 15.7063 28.2134 15.3396 28.2535 14.9273C28.2937 14.5151 28.6604 14.2134 29.0727 14.2535L28.9273 15.7465ZM33 16.5294L33.4746 15.9487C33.7493 16.1732 33.8291 16.5594 33.666 16.8743C33.5029 17.1893 33.1414 17.3469 32.7996 17.2521L33 16.5294ZM29.4177 17.6229C29.0737 17.8536 28.6078 17.7617 28.3771 17.4177C28.1464 17.0737 28.2383 16.6078 28.5823 16.3771L29.4177 17.6229ZM29.0727 14.2535C29.531 14.2982 30.2684 14.4332 31.0609 14.6933C31.8499 14.9521 32.7434 15.351 33.4746 15.9487L32.5254 17.1101C31.99 16.6725 31.2862 16.3459 30.5932 16.1185C29.9038 15.8923 29.2745 15.7803 28.9273 15.7465L29.0727 14.2535ZM33 16.5294C32.7996 17.2521 32.7998 17.2522 32.8 17.2523C32.8001 17.2523 32.8003 17.2523 32.8004 17.2524C32.8006 17.2524 32.8008 17.2525 32.8009 17.2525C32.8013 17.2526 32.8014 17.2526 32.8015 17.2527C32.8016 17.2527 32.8011 17.2526 32.8001 17.2523C32.7981 17.2518 32.794 17.2507 32.7879 17.2491C32.7756 17.246 32.7552 17.2409 32.7275 17.2345C32.6719 17.2216 32.5872 17.2034 32.479 17.1844C32.2617 17.146 31.9554 17.1051 31.6041 17.0953C30.8848 17.0753 30.0662 17.188 29.4177 17.6229L28.5823 16.3771C29.6005 15.6943 30.7819 15.5718 31.6459 15.5959C32.0863 15.6082 32.4675 15.6591 32.7397 15.7072C32.8764 15.7313 32.987 15.7549 33.0655 15.7731C33.1048 15.7822 33.1362 15.7899 33.1589 15.7957C33.1702 15.7986 33.1795 15.801 33.1864 15.8029C33.1899 15.8038 33.1928 15.8046 33.1951 15.8052C33.1963 15.8056 33.1973 15.8058 33.1982 15.8061C33.1986 15.8062 33.1991 15.8063 33.1994 15.8064C33.1996 15.8065 33.1999 15.8065 33.1999 15.8066C33.2002 15.8066 33.2004 15.8067 33 16.5294Z" fill="white"/>
</g>
<defs>
<clipPath id="clip0">
<rect width="51.767" height="92.2514" fill="white" transform="matrix(-0.999948 -0.0102034 -0.0102034 0.999948 52.8301 -1.56371)"/>
</clipPath>
</defs>
</svg>
