<svg width="135" height="135" viewBox="0 0 135 135" fill="none" xmlns="http://www.w3.org/2000/svg">
<g clip-path="url(#clip0)">
<path d="M118.846 100.944C107.819 116.449 89.5636 126.906 68.9289 127.497C35.3457 128.46 8.17897 102.927 8.25031 70.4684C8.30385 46.1144 23.6762 24.7808 45.5349 15.2389L48.8402 23.9681C32.1243 30.2976 17.4887 50.8382 17.8569 71.9041C18.2252 92.9699 36.1234 116.047 65.1815 117.6C96.3023 119.264 111.568 95.3814 111.568 95.3814L118.846 100.944Z" fill="#40798C"/>
<path d="M93.4985 96.8649C86.7749 102.48 78.1215 105.992 68.6848 106.261C47.3259 106.869 30.0428 90.6372 30.0818 70.0052C30.1064 56.9626 37.0474 45.2838 47.5462 38.3029L51.6219 43.6034C51.6219 43.6034 38.6777 48.5047 37.0899 66.6908C35.502 84.8769 50.4366 97.8412 65.8349 98.7343C81.2333 99.6273 89.0837 91.9999 89.0837 91.9999L93.4985 96.8649Z" fill="#40798C"/>
<path d="M92.2756 44.3167C92.1263 47.549 89.3167 50.1403 86.0002 50.1047C82.6837 50.069 78.1145 47.3982 78.2638 44.1659C78.4131 40.9336 81.2227 38.3422 84.5393 38.3779C87.8558 38.4136 92.425 41.0843 92.2756 44.3167Z" fill="#EA6F8C"/>
<path fill-rule="evenodd" clip-rule="evenodd" d="M87.8198 72.9262C101.656 67.6279 106.716 72.4341 111.987 75.1842C117.257 77.9342 123.543 81.6842 123.931 81.6536C127.665 75.5399 129.482 70.061 125.76 66.2351C122.062 59.0845 117.404 59.1001 73.6075 21.8842C67.4718 16.6703 58.5041 20.066 58.5041 20.066L55.4034 11.8772C55.4034 11.8772 64.3788 10.4375 69.9147 12.0433C75.4506 13.6491 80.0362 19.0987 80.645 18.819C87.0144 14.0454 89.6231 6.13487 89.6231 6.13487C89.6231 6.13487 91.1336 6.78786 91.6364 7.52041C92.6447 8.89352 89.5833 19.4817 86.6755 22.9862L113.351 45.3115C129.214 59.0031 130.066 60.8463 131.601 63.4736C137.283 73.1949 130.924 83.898 124.909 91.3382C120.64 88.4096 115.798 86.1373 111.698 82.992C101.811 75.406 92.9575 78.2406 88.4064 79.9886C66.2291 88.5065 47.172 74.4757 57.7082 56.4978C59.6342 54.8122 64.7199 58.6043 63.6607 60.7068C58.7644 75.3511 73.9835 78.2245 87.8198 72.9262Z" fill="#40798C"/>
</g>
<defs>
<clipPath id="clip0">
<rect width="135" height="135" fill="white" transform="matrix(-1 0 0 1 135 0)"/>
</clipPath>
</defs>
</svg>
