<svg width="125" height="164" viewBox="0 0 125 164" fill="none" xmlns="http://www.w3.org/2000/svg">
<path opacity="0.18" d="M41.3808 134.722C40.0442 134.937 38.7612 135.178 37.5405 135.443C29.4759 137.201 24.8407 139.901 20.4974 142.502C15.4627 145.516 10.4896 148.54 5.38969 151.546C1.16537 154.034 -2.01054 156.371 1.51868 159.148C3.9995 161.095 9.54487 162.746 16.4958 163.434C20.7431 163.856 25.3284 163.92 29.8216 163.96C38.2702 164.035 46.7495 164.044 55.0522 163.622C59.0039 163.421 62.8979 163.124 66.888 162.993C74.6108 162.742 82.4911 163.124 90.1601 162.776C95.5019 162.532 100.567 161.939 105.402 161.262C109.035 160.748 112.607 160.175 115.598 159.402C123.521 157.354 126.458 154.036 124.327 151.067C122.196 148.098 115.003 146.871 108.728 144.667C102.015 142.309 101.374 138.945 95.0142 136.51C86.796 133.361 70.951 132.557 57.2681 133.211C51.7189 133.466 46.2234 133.936 41.3808 134.722Z" fill="#40798C"/>
<path d="M63.6763 139.606C63.6453 140.904 63.8969 142.194 64.4138 143.385C65.0501 144.494 66.0066 145.383 67.1571 145.936C69.6209 147.222 72.4843 147.505 75.1512 146.727C75.5146 146.654 75.8408 146.455 76.0731 146.165C76.2152 145.925 76.2723 145.643 76.2353 145.366C76.1763 143.888 75.1881 142.638 74.1409 141.603C73.0937 140.567 71.9285 139.606 71.2648 138.282C70.0406 135.798 70.9477 129.194 66.2796 130.259C62.3489 131.139 63.5731 136.855 63.6763 139.606Z" fill="#FBB9AD"/>
<path d="M63.0264 144.087C63.0264 144.087 62.3627 145.721 63.1813 146.675C63.9999 147.629 72.3848 152.857 78.0338 148.65C83.6828 144.442 70.3568 143.895 70.3568 143.895L63.0264 144.087Z" fill="#40798C"/>
<path d="M63.3581 140.286C63.6105 140.166 63.8972 140.139 64.1673 140.211C64.4374 140.283 64.6733 140.448 64.8331 140.678C65.3851 141.305 66.0865 141.782 66.8718 142.064C67.6571 142.345 68.5008 142.423 69.3242 142.29C71.1605 141.847 71.8906 139.724 72.7977 139.717C73.7047 139.709 78.5867 143.865 78.8743 145.633C79.162 147.4 76.662 148.731 73.9112 148.901C71.1605 149.071 64.9437 147.208 63.7564 145.729C62.5691 144.25 62.7166 141.196 63.3581 140.286Z" fill="white"/>
<path d="M47.6802 142.15C47.6376 143.445 47.8766 144.735 48.3808 145.928C49.0154 147.037 49.9726 147.924 51.1242 148.472C53.5869 149.762 56.4517 150.045 59.1183 149.264C59.482 149.196 59.8092 148.999 60.0401 148.709C60.1734 148.465 60.2324 148.187 60.2097 147.91C60.1507 146.431 59.1552 145.174 58.108 144.139C57.0608 143.104 55.8956 142.15 55.2319 140.848C54.0077 138.356 54.9148 131.753 50.254 132.81C46.3602 133.698 47.5696 139.406 47.6802 142.15Z" fill="#FBB9AD"/>
<path d="M47.031 146.646C47.031 146.646 46.3747 148.28 47.1859 149.234C47.9971 150.188 56.382 155.416 62.0162 151.208C67.6505 147.001 54.3614 146.468 54.3614 146.468L47.031 146.646Z" fill="#40798C"/>
<path d="M47.3629 142.845C47.6198 142.717 47.9139 142.687 48.1915 142.759C48.469 142.831 48.7115 143 48.8747 143.237C49.4212 143.869 50.1208 144.349 50.9061 144.631C51.6914 144.914 52.5359 144.989 53.3584 144.849C55.1873 144.405 55.9322 142.283 56.8319 142.275C57.7316 142.268 62.621 146.424 62.8864 148.191C63.1519 149.959 60.6741 151.297 57.9233 151.474C55.1726 151.652 48.9337 149.729 47.7463 148.28C46.559 146.831 46.7286 143.762 47.3629 142.845Z" fill="white"/>
<path d="M44.3385 73.1271C44.3385 73.1271 43.4757 121.193 47.0229 137.195L56.0273 138.304L62.2589 72.5208L44.3385 73.1271Z" fill="#473F47"/>
<path d="M72.1714 67.877C72.1714 67.877 76.4044 93.7955 71.2643 135.413L62.2599 136.53L56.0283 70.7165L72.1714 67.877Z" fill="#473F47"/>
<path d="M82.7169 47.2381C82.6137 48.9759 82.0532 50.4844 80.5414 50.9873C80.4169 51.033 80.2885 51.0676 80.1579 51.0908C77.3925 51.6454 73.7641 49.5379 71.2346 47.6966C70.1763 46.9339 69.1619 46.1118 68.1963 45.2342V26.6733L81.6476 40.4571C82.3627 42.6458 82.7237 44.9351 82.7169 47.2381Z" fill="#40798C"/>
<path d="M71.3228 47.6154C71.3228 48.488 71.4261 49.3606 71.4335 50.2258C71.4335 55.0176 70.3273 59.9646 71.7506 64.6677C72.0677 65.7178 72.488 66.8418 72.1488 67.877C71.7351 68.7382 71.0255 69.4209 70.1503 69.7997C65.932 72.1142 61.0574 72.8167 56.3081 73.497C52.7314 73.9999 47.6576 75.0721 44.3538 73.1347C42.9379 72.3139 42.4585 70.7832 42.0161 69.2524C40.578 64.3867 40.1577 59.1586 39.8037 54.1302C39.7594 53.4647 39.7078 52.7991 39.6709 52.1336C39.3956 47.5439 39.3022 42.9518 39.3907 38.3572C39.4571 35.0222 39.7152 31.4209 41.8907 28.9067C44.7742 25.5569 50.3568 23.3384 54.6046 22.5546C55.9769 22.2715 57.3836 22.1943 58.7786 22.3254C60.7572 22.6383 62.6678 23.2886 64.4276 24.248C66.5293 25.2907 68.4025 26.178 69.4349 28.2634C70.5695 30.6746 71.3614 33.2334 71.7875 35.8651C72.183 38.3329 72.2401 40.8432 71.9571 43.3265C71.8243 44.5392 71.522 45.7519 71.3966 46.9647C71.3503 47.1785 71.3255 47.3966 71.3228 47.6154Z" fill="#40798C"/>
<path opacity="0.1" d="M51.8319 74.7392C50.4454 75.1459 47.2522 73.8666 46.1903 73.6892C45.5487 73.5709 44.9735 73.2529 44.3392 73.105C41.1755 72.3137 40.7994 63.3883 40.4897 60.9924C39.6711 54.6477 38.41 48.0738 38.3215 41.7143C38.178 39.2612 38.4599 36.8017 39.1549 34.4452C39.9587 32.1307 41.6033 30.0084 43.9041 29.1506C47.9528 27.6717 49.1549 40.5163 49.708 43.2006C50.4012 46.5283 51.1092 49.8559 51.795 53.1761C52.2965 55.609 52.0162 57.5538 53.941 59.3582C54.0671 59.5055 54.2382 59.6069 54.4277 59.6465C54.5972 59.6478 54.7644 59.6071 54.9145 59.5282C55.7221 59.1828 56.5824 58.9777 57.4587 58.9219C57.852 58.8643 58.2535 58.9288 58.6091 59.1067C58.8181 59.2551 58.995 59.4442 59.1293 59.6628C59.2636 59.8813 59.3526 60.1248 59.3909 60.3786C59.6398 61.5126 59.5389 62.6956 59.1016 63.7707C58.6643 64.8457 57.9113 65.7621 56.9425 66.398C56.0723 66.9378 55.0914 67.2336 54.2212 67.766C50.9543 69.7552 53.6903 71.8849 52.385 74.3399C52.325 74.4409 52.2449 74.5285 52.1498 74.5972C52.0546 74.6659 51.9464 74.7142 51.8319 74.7392Z" fill="#020202"/>
<path d="M62.7755 16.4094C62.4395 17.0841 61.8671 17.6107 61.1678 17.8884C60.3492 18.2211 59.4274 18.2655 58.7711 18.8645C58.1801 19.5103 57.8039 20.3243 57.6944 21.1938C57.5026 22.096 57.3109 22.9907 57.1118 23.8929C57.0159 24.344 56.9127 24.795 56.8168 25.2461C56.7837 25.507 56.6984 25.7586 56.566 25.9856C56.398 26.1778 56.1884 26.3291 55.9533 26.4278C55.7181 26.5264 55.4636 26.5699 55.2091 26.555C54.1564 26.6009 53.1125 26.3444 52.2003 25.8155C52.0454 25.7366 51.9152 25.6163 51.8242 25.468C51.7449 25.2788 51.7243 25.0701 51.7652 24.869C51.8758 23.5749 51.9864 22.2808 52.1044 20.9868C52.2894 19.922 52.121 18.8258 51.625 17.8662C50.6295 15.7808 49.5528 13.6955 49.1619 11.3958C48.9202 10.3314 49.0129 9.21805 49.4274 8.20863C49.8052 7.56122 50.314 7.00037 50.9212 6.56223C51.5283 6.12409 52.2203 5.81839 52.9525 5.66483C54.8433 5.0834 56.8615 5.06286 58.7637 5.60568C59.5011 5.84971 59.6855 6.34515 60.0174 6.97371C60.5188 7.95721 60.9834 8.9629 61.4038 9.99077C61.8758 11.1517 62.2887 12.3423 62.6575 13.555C63.032 14.4626 63.0738 15.4739 62.7755 16.4094Z" fill="#FBB9AD"/>
<path d="M91.4117 35.9316C91.5297 35.7394 91.7657 35.5249 91.9574 35.658C92.034 35.7326 92.0877 35.8275 92.1123 35.9316C92.2251 36.1276 92.3875 36.2902 92.583 36.4032C92.7785 36.5161 93.0002 36.5754 93.2259 36.575C93.661 36.575 94.1108 36.5084 94.5607 36.501C95.1416 36.5226 95.7098 36.6779 96.2213 36.9549C96.7328 37.2319 97.1739 37.6231 97.5105 38.0983C98.1786 39.062 98.5504 40.2009 98.5799 41.3742C98.6984 42.4269 98.4108 43.4852 97.776 44.3321C96.7362 45.5226 94.9368 45.5522 93.3512 45.5005L91.9206 45.4487C91.5829 45.4901 91.2421 45.4006 90.968 45.1986C90.6939 44.9966 90.507 44.6972 90.4456 44.3617C89.8483 42.9345 88.7863 41.5073 89.5238 40.0653C90.158 38.8304 90.5415 37.0261 91.4117 35.9316Z" fill="#FBB9AD"/>
<path d="M63.2111 51.076V40.3388C63.2114 39.9193 63.3374 39.5096 63.5728 39.1628C63.8082 38.816 64.1421 38.5481 64.5312 38.394L91.0799 27.7973C92.4589 27.2501 95.2539 28.8843 95.2539 30.3707L93.9486 55.2762C93.9487 55.6918 93.8263 56.0982 93.5966 56.4443C93.367 56.7903 93.0404 57.0606 92.658 57.221L67.3852 68.8973C66.0061 69.4667 63.1816 67.8251 63.1816 66.3313L63.2111 51.076Z" fill="white"/>
<path d="M63.2111 51.076V40.3388C63.2114 39.9193 63.3374 39.5096 63.5728 39.1628C63.8082 38.816 64.1421 38.5481 64.5312 38.394L91.0799 27.7973C92.4589 27.2501 95.2539 28.8843 95.2539 30.3707L93.9486 55.2762C93.9487 55.6918 93.8263 56.0982 93.5966 56.4443C93.367 56.7903 93.0404 57.0606 92.658 57.221L67.3852 68.8973C66.0061 69.4667 63.1816 67.8251 63.1816 66.3313L63.2111 51.076Z" fill="url(#paint0_linear)" fill-opacity="0.6"/>
<path d="M64.4863 51.712V40.9675C64.4871 40.5472 64.6133 40.1367 64.8485 39.7889C65.0837 39.441 65.4173 39.1716 65.8064 39.0153L92.3551 28.4186C92.6728 28.2918 93.0168 28.245 93.3568 28.2822C93.6968 28.3194 94.0225 28.4396 94.3055 28.6322C94.5885 28.8248 94.8202 29.0839 94.9802 29.387C95.1403 29.6901 95.2239 30.0278 95.2238 30.3708V55.9049C95.2244 56.3197 95.102 56.7254 94.8722 57.0703C94.6425 57.4153 94.3156 57.684 93.9332 57.8423L67.3846 68.8974C67.0658 69.0283 66.7198 69.0787 66.3771 69.044C66.0344 69.0093 65.7054 68.8907 65.4192 68.6986C65.1329 68.5065 64.8981 68.2468 64.7354 67.9424C64.5728 67.6379 64.4872 67.298 64.4863 66.9526V51.712Z" fill="white"/>
<path d="M58.1968 6.78139C57.8218 7.34716 57.2384 7.74074 56.5744 7.87581C54.775 8.26034 53.6762 7.38036 52.7691 9.48787C52.4744 10.2058 52.385 10.992 52.511 11.7581C52.511 11.9133 53.0715 13.7177 53.2485 13.6215C52.7839 13.9543 52.4299 13.0521 51.921 12.7859C51.4122 12.5197 50.6599 13.2888 50.7853 13.9543C50.9972 14.5974 51.3735 15.1737 51.8768 15.6255C52.6852 16.6322 53.132 17.8825 53.1452 19.175C53.1452 19.4782 53.0272 19.9145 52.7322 19.9145C52.4372 19.9145 52.0906 19.493 51.8546 19.3377C51.4872 19.0871 51.1 18.867 50.6968 18.6795C49.4579 18.088 47.5995 17.9031 46.567 17.0749C46.0489 16.6222 45.7046 16.0024 45.5936 15.3223C45.5493 15.167 45.5936 13.4145 45.8959 13.518C45.484 13.3914 45.1135 13.1564 44.8229 12.8375C44.5322 12.5186 44.3321 12.1275 44.2432 11.7047C44.1544 11.282 44.1801 10.8432 44.3177 10.4338C44.4554 10.0244 44.6998 9.65948 45.0257 9.37694C43.7573 7.6096 44.3399 4.99186 45.8591 3.46115C47.3782 1.93043 49.5833 1.24272 51.7588 0.954329C54.1212 0.575345 56.5384 0.73457 58.831 1.4202C59.6216 1.63637 60.3512 2.03382 60.9623 2.58117C61.2684 2.85688 61.5039 3.20235 61.6489 3.58844C61.7939 3.97452 61.8443 4.38992 61.7957 4.79959C61.6603 4.85406 61.5123 4.86908 61.3688 4.84292C61.2253 4.81675 61.092 4.75047 60.9844 4.6517C61.0819 4.96778 61.0709 5.30751 60.9531 5.61656C60.8353 5.92561 60.6176 6.18614 60.3347 6.35648C60.0519 6.52683 59.7203 6.59715 59.3928 6.55621C59.0654 6.51527 58.7612 6.36543 58.5287 6.13065C58.4645 6.36838 58.3515 6.59003 58.1968 6.78139Z" fill="#473F47"/>
<path d="M59.3461 18.4504L59.0364 18.5391C58.9462 18.5493 58.8626 18.5912 58.8004 18.6574C58.7665 18.7234 58.7536 18.7983 58.7635 18.8719C58.1726 19.5177 57.7964 20.3317 57.6868 21.2012C57.4951 22.1034 57.3033 22.9981 57.1042 23.9003C56.1363 22.1751 55.4046 20.3271 54.9287 18.406C56.3956 18.5754 57.8761 18.5902 59.3461 18.4504Z" fill="#DC9F95"/>
<path d="M60.8882 51.1572C61.279 50.7875 61.7952 50.4178 62.3115 50.5509C62.6272 50.6971 62.9284 50.8729 63.2112 51.0759C63.4689 51.1921 63.7473 51.2549 64.0297 51.2608C65.1742 51.3352 66.3216 51.1716 67.3999 50.7801C67.9318 50.5106 68.5154 50.3593 69.1109 50.3364C69.4719 50.4061 69.814 50.5523 70.1142 50.7653C70.4143 50.9783 70.6656 51.2531 70.8513 51.5713C71.3865 52.3476 71.6866 53.2624 71.7154 54.2057C71.7442 55.149 71.5005 56.0806 71.0135 56.8882C70.5654 57.5446 69.9723 58.0887 69.2805 58.478C67.7464 59.2922 66.0383 59.721 64.3026 59.7278C62.5769 59.8017 60.8292 59.6686 59.1404 59.8017C58.7375 59.8777 58.3209 59.8206 57.9531 59.639C57.7472 59.4478 57.5882 59.2116 57.4884 58.9486C57.3887 58.6856 57.3508 58.4031 57.3778 58.1231C57.3115 56.8216 57.0902 55.7198 57.8572 54.6106C58.7864 53.3313 59.8852 52.333 60.8882 51.1572Z" fill="#FBB9AD"/>
<path d="M41.8906 28.8918C41.8906 28.8918 22.8862 53.8121 28.8891 62.6193C34.8921 71.4264 60.2313 61.1403 60.2313 61.1403L57.7608 53.8491C57.7608 53.8491 39.9584 56.1045 39.8257 54.1153C39.6929 52.1261 51.1163 40.7234 51.1163 40.7234C51.1163 40.7234 53.1811 23.9447 41.8906 28.8918Z" fill="#40798C"/>
<path d="M64.6115 40.2722L84.7885 49.597L94.5894 29.0322C94.5894 29.0322 95.231 29.0322 95.1351 30.7774L87.6941 47.7853L95.231 55.853C95.2314 56.1613 95.1658 56.4661 95.0386 56.7468C94.9114 57.0275 94.7255 57.2775 94.4935 57.4798L86.8903 48.998L85.8578 51.1351L81.7206 49.8632L70.8504 67.411L66.7501 69.0082L79.523 48.998L64.5156 42.0766L64.6115 40.2722Z" fill="url(#paint1_linear)" fill-opacity="0.1"/>
<defs>
<linearGradient id="paint0_linear" x1="138.322" y1="83.7681" x2="-46.1159" y2="-26.1338" gradientUnits="userSpaceOnUse">
<stop offset="0.01"/>
<stop offset="0.13" stop-opacity="0.69"/>
<stop offset="0.25" stop-opacity="0.32"/>
<stop offset="1" stop-opacity="0"/>
</linearGradient>
<linearGradient id="paint1_linear" x1="4521.93" y1="1712.82" x2="8531.08" y2="10618.7" gradientUnits="userSpaceOnUse">
<stop offset="0.01"/>
<stop offset="0.13" stop-opacity="0.69"/>
<stop offset="0.25" stop-opacity="0.32"/>
<stop offset="1" stop-opacity="0"/>
</linearGradient>
</defs>
</svg>
