<svg width="579" height="436" viewBox="0 0 579 436" fill="none" xmlns="http://www.w3.org/2000/svg">
<g clip-path="url(#clip0)">
<path opacity="0.24" d="M189.009 433.658C300.909 427.621 410.651 400.448 512.445 353.574C525.486 347.556 538.715 340.986 548.475 330.438C556.876 321.367 562.213 309.87 566.414 298.243C582.142 254.684 582.122 201.764 552.278 166.355C520.568 128.742 466.43 121.486 422.79 98.7987C389.262 81.4045 361.818 54.6183 333.077 30.1278C321.283 20.0597 308.715 10.0912 293.736 6.08792C281.421 2.86308 268.406 3.83492 255.693 4.88266C203.382 9.19369 144.963 16.6012 112.025 57.5642C70.3802 109.389 88.5438 192.587 45.1994 243.004C36.8835 252.674 26.6337 260.632 19.0529 270.889C-8.29429 307.86 6.8783 372.507 40.28 401.271C79.1356 434.727 141.014 436.208 189.009 433.658Z" fill="#BABABA"/>
<path d="M60.7513 293.964C70.9905 300.542 77.7776 311.171 87.1858 318.855L78.8808 340.974L73.4351 335.153C68.7718 330.217 64.0493 325.235 58.3903 321.416C52.7308 317.597 45.968 315.07 39.1221 315.513C39.1221 315.513 42.5866 294.988 44.3069 292.962C49.3494 287.013 54.297 289.819 60.7513 293.964Z" fill="#70A9A1"/>
<path d="M47.5415 294.877L45.8281 307.534C46.9841 307.791 48.0282 308.41 48.809 309.3C49.5897 310.189 50.0666 311.305 50.1704 312.485C50.1704 312.485 67.1874 318.103 73.4782 330.162C73.4782 330.162 77.7503 328.989 79.3464 330.913L82.7142 322.702C82.7142 322.702 80.4731 319.863 81.0711 317.54C81.0711 317.54 64.8055 295.862 54.6183 294.021C52.3887 294.972 49.934 295.269 47.5415 294.877Z" fill="white"/>
<path d="M175.489 78.2564H155.369V358.862H175.489V78.2564Z" fill="#70A9A1"/>
<path d="M175.489 78.2564H155.369V358.862H175.489V78.2564Z" fill="url(#paint0_linear)"/>
<path d="M130.7 184.462H425.991C428.176 184.462 430.341 184.894 432.36 185.735C434.379 186.577 436.214 187.809 437.759 189.363C439.305 190.917 440.53 192.761 441.367 194.791C442.203 196.822 442.633 198.997 442.633 201.194V381.221H114.012V201.194C114.012 198.993 114.443 196.814 115.283 194.78C116.122 192.747 117.353 190.901 118.902 189.346C120.452 187.792 122.293 186.56 124.317 185.721C126.342 184.884 128.511 184.456 130.7 184.462Z" fill="#0B2027" fill-opacity="0.8"/>
<path d="M425.868 198.995H131.896V366.687H425.868V198.995Z" fill="#F9F9F9"/>
<path opacity="0.26" d="M145.31 239.826L146.463 243.713C146.463 243.713 191.244 243.129 195.166 241.427C196.353 240.85 197.406 240.033 198.252 239.025C199.1 238.018 199.722 236.845 200.08 235.584L198.51 225.66L188.486 207.938L145.31 239.826Z" fill="url(#paint1_linear)"/>
<path d="M92.7856 380.103H462.753V381.269C462.753 388.076 460.062 394.603 455.27 399.416C450.478 404.229 443.98 406.933 437.203 406.933H118.324C111.547 406.933 105.05 404.229 100.258 399.416C95.466 394.603 92.7744 388.076 92.7744 381.269V380.103H92.7856Z" fill="url(#paint2_linear)" fill-opacity="0.8"/>
<path d="M132.526 56.5315C133.565 54.6638 134.834 52.8425 135.181 50.7312C135.527 48.6198 134.546 46.0908 132.48 45.5572C130.414 45.0235 127.864 46.9029 125.763 45.9864C124.425 45.4064 123.801 43.8866 123.108 42.599C121.571 39.5944 118.93 37.31 115.745 36.23C114.157 35.7224 112.466 35.6372 110.835 35.9829C109.204 36.3285 107.691 37.0932 106.442 38.2022C105.79 38.933 105.076 39.6047 104.307 40.2092C103.378 40.6845 102.338 40.8978 101.297 40.8263C100.256 40.7548 99.2549 40.4012 98.3987 39.8031C96.9668 38.9446 95.2823 37.657 93.7812 38.4922C93.447 38.7228 93.1631 39.0218 92.9507 39.3696C92.7383 39.7173 92.5997 40.1061 92.5461 40.5108C91.843 44.1766 94.52 47.5525 95.6747 51.1487C97.1635 55.7079 96.2056 60.6731 95.2354 65.3714C93.8281 72.0071 92.327 78.8749 88.0683 84.1764C83.8097 89.4784 77.2775 92.3783 72.8802 97.5175C68.4829 102.657 66.6129 109.501 65.2627 116.16C64.6859 118.14 64.6859 120.247 65.2627 122.228C65.8931 123.55 66.7795 124.734 67.8715 125.708C72.1872 130.15 76.7119 134.709 82.4941 136.903C88.7379 139.223 95.64 138.573 102.311 138.446C106.927 138.353 111.602 138.55 116.16 137.76C120.719 136.972 125.279 135.093 128.267 131.555C130.846 128.233 132.29 124.165 132.388 119.954C132.474 115.776 132.161 111.6 131.453 107.483C130.26 98.5494 129.418 89.5868 128.925 80.5918C128.452 72.2739 128.337 64.0721 132.526 56.5315V56.5315Z" fill="#70A9A1"/>
<path opacity="0.26" d="M87.9861 91.3196C87.3378 92.6757 86.7242 94.4152 87.6787 95.5746L98.2684 87.8775C98.4819 87.6788 98.7624 87.5711 99.0519 87.5761C99.3929 87.5761 99.5974 87.9818 99.7561 88.2947L102.415 93.6729L107.449 86.359L117.856 96.953C118.811 97.9267 120.333 98.9351 121.343 98.0195C122.185 97.266 121.787 95.8641 121.343 94.8211C118.242 87.9587 117.185 79.1261 115.538 71.7656C114.891 68.8794 114.561 65.9699 113.901 63.0606C112.231 55.6885 105.733 51.0056 100.268 45.8359C101.279 49.3133 102.176 52.8602 102.961 56.4071L100.29 55.2249C96.7058 61.4099 94.43 68.292 93.6096 75.4285C92.8596 81.3632 90.5872 85.907 87.9861 91.3196V91.3196Z" fill="url(#paint3_linear)"/>
<path d="M101.701 56.1773C103.69 56.727 105.629 57.4374 107.501 58.3016C108.431 58.7377 109.265 59.3558 109.953 60.1195C110.64 60.883 111.168 61.7766 111.504 62.7476C111.645 63.1221 111.683 63.5278 111.614 63.922C111.544 64.3162 111.37 64.6844 111.11 64.988C110.77 65.2083 110.385 65.3497 109.984 65.4019C109.583 65.4541 109.175 65.4159 108.789 65.2899C104.194 64.4856 99.676 63.2854 95.2866 61.7028C94.1118 61.3465 93.012 60.7802 92.0384 60.0313C91.5544 59.6526 91.171 59.1596 90.924 58.5963C90.677 58.0331 90.5741 57.4172 90.6233 56.8041C91.4706 50.4426 98.6276 55.1906 101.701 56.1773V56.1773Z" fill="url(#paint4_linear)"/>
<path d="M100.541 63.1539C102.527 63.7108 104.466 64.421 106.341 65.2782C107.269 65.7145 108.101 66.3328 108.787 67.0965C109.472 67.8602 109.998 68.7537 110.332 69.7242C110.478 70.0991 110.52 70.5067 110.453 70.9034C110.384 71.3001 110.211 71.671 109.948 71.9763C109.609 72.195 109.224 72.3355 108.823 72.3877C108.422 72.4398 108.014 72.4025 107.629 72.2781C103.046 71.4653 98.5406 70.2654 94.1612 68.6911C92.9819 68.3348 91.8787 67.7686 90.9007 67.0195C90.4178 66.637 90.0367 66.1416 89.7896 65.5769C89.5426 65.0121 89.4386 64.3953 89.4856 63.7808C90.4022 57.4309 97.5715 62.1556 100.541 63.1539V63.1539Z" fill="url(#paint5_linear)"/>
<path d="M99.2649 69.3643C101.25 69.9173 103.189 70.6237 105.065 71.4772C105.994 71.9153 106.827 72.5355 107.512 73.3012C108.197 74.0669 108.722 74.9624 109.055 75.9348C109.2 76.3088 109.239 76.7151 109.169 77.1097C109.1 77.5045 108.925 77.8728 108.661 78.1751C108.321 78.3939 107.937 78.5344 107.535 78.5865C107.134 78.6387 106.726 78.6013 106.341 78.477C101.746 77.683 97.2295 76.4946 92.8389 74.9248C91.6597 74.5686 90.5553 74.0023 89.5784 73.2532C89.0955 72.8707 88.7144 72.3753 88.4674 71.8105C88.2203 71.2459 88.1164 70.629 88.1633 70.0144C89.0799 63.6298 96.2492 68.3429 99.2649 69.3643Z" fill="url(#paint6_linear)"/>
<path d="M97.8381 75.54C99.8266 76.0897 101.766 76.8002 103.639 77.6644C104.568 78.1022 105.4 78.7208 106.087 79.4842C106.775 80.2476 107.302 81.1404 107.641 82.1104C107.782 82.4849 107.82 82.8905 107.75 83.2848C107.681 83.679 107.507 84.0473 107.246 84.3509C106.909 84.5762 106.524 84.7215 106.123 84.7758C105.721 84.8302 105.311 84.7919 104.927 84.6643C100.328 83.8552 95.8071 82.6552 91.4121 81.0773C90.2373 80.7209 89.1374 80.1546 88.1638 79.4057C87.6787 79.0252 87.2953 78.5302 87.0483 77.965C86.8013 77.3996 86.6985 76.7818 86.7488 76.167C87.6653 69.8171 94.8223 74.5185 97.8381 75.54V75.54Z" fill="url(#paint7_linear)"/>
<path d="M136.339 66.3346C130.284 57.2336 119.102 52.8688 108.255 51.5222C106.422 51.2901 104.021 51.5222 103.488 53.2519C103.317 53.9664 103.416 54.7187 103.766 55.3646C105.611 59.2535 111.364 60.008 113.197 63.8968C113.693 65.1669 113.96 66.515 113.986 67.8785C114.972 79.4869 118.393 91.6058 127.048 99.4069C128.426 100.78 130.119 101.796 131.977 102.367C133.57 102.686 135.207 102.734 136.815 102.507C139.136 102.298 141.455 102.089 143.775 101.729C146.095 101.369 146.826 101.16 146.385 98.8155C145.678 95.1464 144.065 91.5253 143.288 87.8102C141.722 80.462 140.585 72.7192 136.339 66.3346V66.3346Z" fill="url(#paint8_linear)"/>
<path d="M149.675 98.2968C149.785 98.5707 149.809 98.8714 149.746 99.1598C149.602 99.4471 149.368 99.6819 149.077 99.8261L135.016 108.8C134.464 109.224 133.802 109.487 133.105 109.559C132.448 109.495 131.824 109.244 131.313 108.835C128.404 106.797 126.286 103.853 125.3 100.482C125.227 100.329 125.189 100.163 125.189 99.9938C125.189 99.8239 125.227 99.6573 125.3 99.5041C125.499 99.2548 125.782 99.0838 126.097 99.0212C131.617 97.1687 136.187 92.9239 141.331 90.3012C147.508 87.1606 148.14 93.2 149.675 98.2968V98.2968Z" fill="white"/>
<path d="M433.848 51.8058C432.782 50.251 431.993 48.5255 431.516 46.7046C431.213 44.8379 432.075 42.6003 433.906 42.1366C435.737 41.6729 438.022 43.296 439.888 42.5192C441.054 42.0091 441.637 40.6758 442.22 39.5396C443.591 36.8976 445.94 34.8893 448.774 33.9398C450.185 33.4934 451.691 33.418 453.142 33.7206C454.592 34.0233 455.94 34.694 457.052 35.6674C457.624 36.3133 458.257 36.9034 458.941 37.4296C459.768 37.8499 460.694 38.0397 461.619 37.9784C462.546 37.9171 463.438 37.6072 464.2 37.0818C465.471 36.3166 466.975 35.192 468.259 35.9224C468.554 36.1251 468.803 36.3863 468.992 36.6895C469.18 36.9928 469.304 37.3317 469.354 37.6846C470.03 40.9193 467.686 43.9221 466.649 47.064C465.331 51.0754 466.183 55.4462 467.046 59.5736C468.27 65.3704 469.599 71.5034 473.389 76.1294C477.178 80.7553 482.997 83.3522 486.903 87.8623C490.809 92.3716 492.501 98.3773 493.666 104.279C494.179 106.024 494.179 107.879 493.666 109.624C493.103 110.799 492.311 111.851 491.335 112.719C487.486 116.614 483.475 120.638 478.333 122.562C472.771 124.649 466.672 124.034 460.69 123.919C456.577 124.024 452.461 123.826 448.377 123.328C444.319 122.632 440.273 121.009 437.603 117.855C435.307 114.936 434.023 111.358 433.941 107.653C433.863 103.975 434.14 100.298 434.769 96.6735C435.83 88.8245 436.577 80.9176 437.019 73.0107C437.474 65.6603 437.579 58.4489 433.848 51.8058V51.8058Z" fill="#70A9A1"/>
<path opacity="0.26" d="M439.334 46.6819C440.481 46.1582 441.559 47.3566 442.522 48.1596C443.364 48.8682 444.381 49.3288 445.462 49.4913C446.544 49.6537 447.649 49.5117 448.656 49.0809C449.665 48.65 450.537 47.9467 451.177 47.0476C451.819 46.1486 452.204 45.0883 452.291 43.9822C452.94 44.1798 453.54 44.5112 454.055 44.9558C454.571 45.4005 454.989 45.9485 455.285 46.5655C455.537 47.1124 455.767 47.729 456.34 47.9269C456.662 47.9945 456.997 47.9495 457.291 47.7989C458.919 46.9424 460.298 45.6713 461.294 44.1102L463.381 41.3641C465.032 43.0629 464.469 45.8557 464.011 48.2062C462.823 54.3515 463.218 60.7043 465.158 66.6493C465.604 68.1597 466.289 69.5863 467.188 70.8733C468.479 72.3805 469.938 73.7315 471.534 74.8993C474.302 77.2401 476.63 80.0708 478.402 83.2541L466.373 77.4359C464.997 76.7728 463.197 76.156 462.096 77.2266C461.571 77.8907 461.263 78.7039 461.213 79.5538C460.644 82.7395 459.539 85.802 457.945 88.6066L456.5 79.5189C456.465 78.6345 456.091 77.7992 455.457 77.1917C454.057 76.156 452.2 77.7735 451.455 79.3792C449.735 83.0911 449.712 87.4198 448.175 91.2134C447.167 93.6919 445.538 95.8675 444.46 98.3225C443.421 100.769 442.951 103.424 443.087 106.083C443.222 108.743 443.959 111.335 445.239 113.66C445.87 114.822 446.661 115.986 446.443 117.266C446.244 118.011 445.786 118.657 445.155 119.085C444.522 119.513 443.757 119.693 443.004 119.594C441.514 119.331 440.156 118.564 439.151 117.418C435.332 113.555 433.658 107.899 433.692 102.43C433.873 98.1 434.543 93.806 435.688 89.6304C436.551 85.3836 437.778 81.2213 439.357 77.1917C441.444 72.3045 444.644 67.6151 444.62 62.2858C444.62 58.7949 442.98 56.1187 441.375 53.2213C440.595 51.8366 436.857 47.8338 439.334 46.6819V46.6819Z" fill="url(#paint9_linear)"/>
<path d="M461.842 51.6268C460.101 52.1122 458.402 52.7371 456.761 53.4957C455.95 53.8837 455.225 54.4295 454.628 55.1011C454.03 55.7729 453.572 56.557 453.281 57.4077C453.154 57.7364 453.118 58.0934 453.177 58.4409C453.236 58.7885 453.388 59.1133 453.618 59.3812C453.913 59.5781 454.249 59.7046 454.601 59.7509C454.953 59.7972 455.311 59.7621 455.647 59.6482C459.695 58.9406 463.673 57.8841 467.538 56.4906C468.574 56.1788 469.546 55.6791 470.403 55.0164C470.827 54.68 471.161 54.2449 471.378 53.7491C471.593 53.2532 471.685 52.7118 471.644 52.1723C470.809 46.5771 464.499 50.7213 461.842 51.6268V51.6268Z" fill="url(#paint10_linear)"/>
<path d="M462.77 57.7792C461.033 58.2648 459.337 58.8899 457.701 59.6482C456.888 60.034 456.161 60.579 455.564 61.251C454.966 61.923 454.509 62.7082 454.221 63.5602C454.095 63.8899 454.06 64.2475 454.121 64.5951C454.183 64.9425 454.337 65.267 454.569 65.5336C454.864 65.7306 455.2 65.857 455.552 65.9033C455.904 65.9496 456.262 65.9145 456.598 65.8006C460.641 65.0916 464.615 64.0352 468.477 62.6432C469.515 62.3337 470.487 61.8339 471.343 61.1689C471.769 60.8353 472.106 60.4005 472.323 59.9041C472.539 59.4075 472.629 58.8647 472.584 58.3248C471.749 52.7295 465.426 56.8737 462.77 57.7792V57.7792Z" fill="url(#paint11_linear)"/>
<path d="M463.941 63.2352C462.201 63.7205 460.502 64.3456 458.861 65.1041C458.05 65.4921 457.325 66.0379 456.727 66.7096C456.129 67.3812 455.672 68.1654 455.381 69.0161C455.254 69.3468 455.217 69.7056 455.277 70.0548C455.336 70.4041 455.488 70.7309 455.717 71.0012C456.017 71.1898 456.353 71.3113 456.703 71.3573C457.054 71.4034 457.409 71.373 457.747 71.2682C461.79 70.5497 465.763 69.4896 469.626 68.0991C470.663 67.7915 471.634 67.2957 472.491 66.6365C472.918 66.3002 473.257 65.8637 473.475 65.3656C473.694 64.8675 473.786 64.3231 473.744 63.7808C472.909 58.1971 466.598 62.3297 463.941 63.2352V63.2352Z" fill="url(#paint12_linear)"/>
<path d="M465.184 68.6795C463.459 69.1687 461.776 69.7936 460.149 70.5485C459.338 70.9364 458.614 71.4822 458.016 72.1539C457.418 72.8256 456.96 73.6098 456.669 74.4605C456.542 74.7911 456.505 75.1499 456.565 75.4992C456.624 75.8485 456.776 76.1754 457.005 76.4456C457.305 76.6341 457.641 76.7556 457.991 76.8016C458.342 76.8477 458.697 76.8173 459.035 76.7125C463.078 75.994 467.052 74.9339 470.915 73.5434C471.951 73.2358 472.922 72.74 473.779 72.0807C474.206 71.7446 474.545 71.308 474.763 70.81C474.982 70.3118 475.074 69.7675 475.032 69.2251C474.15 63.6298 467.852 67.7741 465.184 68.6795V68.6795Z" fill="url(#paint13_linear)"/>
<path d="M431.298 60.5652C436.623 52.5555 446.483 48.7247 456.019 47.5289C457.632 47.32 459.754 47.5289 460.218 49.0497C460.365 49.6778 460.278 50.338 459.974 50.907C458.35 54.3315 453.281 54.9931 451.668 58.4176C451.237 59.5294 451.001 60.7078 450.973 61.9002C450.115 72.1272 447.087 82.7953 439.477 89.6673C438.27 90.9038 436.775 91.8216 435.127 92.337C433.724 92.6142 432.285 92.6534 430.869 92.4533C428.839 92.2677 426.786 92.0821 424.768 91.7691C422.75 91.4549 422.077 91.2693 422.448 89.2032C423.063 85.9761 424.489 82.7838 425.174 79.5217C426.508 73.0094 427.552 66.1953 431.298 60.5652V60.5652Z" fill="url(#paint14_linear)"/>
<path d="M415.833 95.6271C415.776 95.9412 415.815 96.2643 415.947 96.5539C416.156 96.8322 416.451 97.0312 416.784 97.1218L433.303 103.565C433.968 103.894 434.711 104.026 435.448 103.947C436.113 103.741 436.701 103.338 437.134 102.788C439.688 99.9905 441.225 96.3996 441.492 92.603C441.526 92.4231 441.524 92.2375 441.483 92.0586C441.444 91.8786 441.369 91.7098 441.263 91.5611C441.002 91.3431 440.673 91.2246 440.334 91.2246C434.22 90.4711 428.565 86.9725 422.658 85.3157C415.592 83.3691 416.28 89.8808 415.833 95.6271Z" fill="white"/>
<path d="M349.859 366.687H216.846C216.846 363.633 220.737 348.453 223.717 346.275C226.695 344.097 233.266 345.445 236.961 345.445C248.601 345.445 260.217 345.276 271.81 344.939C283.462 344.523 295.068 343.936 306.672 343.094C309.941 342.886 339.224 338.703 339.94 340.166C343.116 346.528 349.813 363.794 349.859 366.687Z" fill="#606161"/>
<path d="M140.513 240.359L187.953 237.764C189.927 237.66 192.156 237.43 193.386 235.908C194.617 234.386 194.397 232.242 194.141 230.315C192.71 219.146 192.543 207.852 193.642 196.646C194.037 192.576 194.675 188.355 197.056 185.023C199.436 181.691 204.022 179.615 207.783 181.356C208.408 181.736 209.09 182.013 209.804 182.175C212.126 182.429 213.171 178.866 211.684 177.079C210.199 175.291 207.598 174.968 205.276 174.772C192.748 173.839 180.151 174.345 167.647 173.377C160.459 172.824 153.121 170.529 146.423 174.219C125.953 185.53 136.276 223.051 140.513 240.359V240.359Z" fill="#70A9A1"/>
<path opacity="0.26" d="M168.781 172.968L162.076 172.164C162.076 172.164 170.355 197.155 179.815 211.828C189.275 226.501 201.895 250.689 202.289 256.64C202.682 262.589 217.666 322.866 212.154 340.31C206.642 357.755 200.32 366.687 200.32 366.687H270.499L266.528 242.758L172.81 172.886" fill="url(#paint15_linear)"/>
<path d="M143.422 176.009C143.422 176.009 133.71 182.117 145.75 226.244C145.75 226.244 150.408 226.094 150.303 231.415L181.532 229.101C181.532 229.101 179.75 224.821 185.549 223.641C185.549 223.641 177.072 192.021 178.853 186.109C179.862 182.353 179.447 178.36 177.689 174.886C177.689 174.886 162.425 173.105 159.85 172.909C157.277 172.712 150.757 170.097 143.422 176.009V176.009Z" fill="url(#paint16_linear)"/>
<path d="M189.565 78.5602C195.799 75.5341 203.097 76.2413 209.987 75.4182C217.302 74.5976 224.331 72.1268 230.538 68.1949C230.039 78.8327 231.458 89.4739 234.73 99.6159C228.343 99.3599 221.524 99.2101 216.046 102.514C211.201 105.447 208.142 110.723 203.202 113.575C197.703 116.798 190.872 116.428 184.52 115.964C186.551 111.813 183.796 107.012 181.017 103.325C177.583 98.792 174.922 94.9776 177.887 89.8071C180.646 85.049 184.691 81.1531 189.565 78.5602V78.5602Z" fill="#70A9A1"/>
<path d="M191.404 78.4678C196.913 75.7942 203.382 76.3729 209.476 75.7017C215.951 74.9764 222.173 72.7911 227.665 69.3128C227.216 78.7176 228.473 88.1258 231.377 97.0905C225.714 96.8591 219.702 96.7316 214.858 99.6484C210.573 102.241 207.853 106.894 203.534 109.417C198.665 112.263 192.617 111.94 186.991 111.523C188.788 107.865 186.337 103.618 183.861 100.366C180.826 96.3616 178.468 92.9932 181.094 88.4213C183.527 84.2146 187.097 80.7666 191.404 78.4678Z" fill="url(#paint17_linear)"/>
<path d="M489.787 82.3269C488.903 76.6498 490.821 70.1102 495.77 67.3124C498.709 65.6454 502.223 65.5172 505.586 65.4356L528.377 64.841C527.54 72.1731 529.481 79.5538 533.807 85.486C537.78 90.8714 543.544 94.8121 547.218 100.361C550.132 105.078 551.445 110.636 550.956 116.182C550.467 121.729 548.203 126.961 544.508 131.077C533.77 129.568 522.844 130.234 512.361 133.036C514.656 126.706 510.581 119.863 506.069 114.886C498.342 106.329 491.59 94.0888 489.787 82.3269V82.3269Z" fill="#70A9A1"/>
<path opacity="0.26" d="M493.331 84.485C492.173 79.21 493.516 72.9845 497.684 70.0862C500.163 68.3704 503.231 68.0574 506.172 67.7675L526.087 65.959C525.742 72.8131 527.839 79.5669 532.003 85.0183C535.8 89.8529 541.08 93.1341 544.624 98.223C550.413 106.57 550.205 119.23 544.056 127.206C534.571 126.375 525.017 127.6 516.048 130.8C517.727 124.736 513.732 118.557 509.471 114.14C502.224 106.5 495.6 95.3946 493.331 84.485Z" fill="url(#paint18_linear)"/>
<path d="M36.7379 231.594C36.2892 231.882 35.9495 232.312 35.7733 232.816C35.7519 233.159 35.8032 233.504 35.9241 233.826C36.0448 234.148 36.2321 234.441 36.4738 234.684C41.2069 240.926 46.2708 246.907 51.6437 252.603C52.0716 253.141 52.6462 253.541 53.2973 253.755C54.0576 253.835 54.8228 253.665 55.4792 253.271L64.9757 248.855C68.3412 247.287 71.7974 245.661 74.3928 242.986C79.5144 237.683 80.1347 229.6 80.479 222.231C73.3477 216.063 66.5495 203.691 57.7759 209.41C50.2312 214.333 44.1104 225.553 36.7379 231.594Z" fill="#70A9A1"/>
<path d="M478.402 313.071C485.009 318.473 492.054 323.319 499.462 327.559C502.84 313.06 516.811 304.45 528.702 297.367C506.712 271.893 483.423 317.181 478.402 313.071Z" fill="#70A9A1"/>
<g opacity="0.24">
<path opacity="0.24" d="M467.271 262.006V252.313C454.511 251.257 447.052 243.688 445.984 233.472H455.346C455.862 236.394 457.298 239.074 459.443 241.123C461.588 243.171 464.33 244.481 467.271 244.86V219.09C453.119 214.83 447.55 209.501 447.55 199.6C447.55 188.85 455.844 181.71 467.271 180.968V173.724H473.338V181.072C487.49 182.454 492.061 191.613 492.699 198.218H483.546C482.386 193.853 479.822 189.593 473.338 188.42V211.637C489.578 216.281 494.3 223.141 494.3 232.614C494.3 244.431 486.423 251.361 473.338 252.348V262.04L467.271 262.006V262.006ZM467.271 209.827V188.211C459.603 188.85 456.831 193.423 456.831 198.543C456.831 203.662 459.29 207.063 467.271 209.827V209.827ZM473.338 220.901V244.965C480.681 244.221 484.613 240.495 484.613 233.578C484.613 227.935 482.189 223.989 473.338 220.901Z" fill="#70A9A1"/>
</g>
<path d="M470.516 261.565V251.872C457.821 250.804 450.402 243.247 449.34 233.02H458.653C459.164 235.943 460.591 238.626 462.725 240.676C464.859 242.728 467.588 244.039 470.516 244.419V218.648C456.437 214.388 450.898 209.06 450.898 199.158C450.898 188.408 459.149 181.269 470.516 180.526V173.282H476.551V180.63C490.63 182.012 495.188 191.17 495.823 197.776H486.718C485.563 193.412 483.013 189.151 476.551 187.979V211.196C492.707 215.839 497.404 222.688 497.404 232.172C497.404 243.99 489.568 250.909 476.551 251.907V261.6L470.516 261.565ZM470.516 209.385V187.817C462.888 188.455 460.13 193.028 460.13 198.136C460.13 203.244 462.576 206.61 470.516 209.385ZM476.551 220.459V244.523C483.855 243.781 487.767 240.055 487.767 233.125C487.767 227.482 485.333 223.547 476.551 220.459Z" fill="white"/>
<g opacity="0.24">
<path opacity="0.24" d="M466.888 116.077V112.594C462.376 112.223 459.742 109.552 459.371 105.942H462.677C462.854 106.977 463.359 107.926 464.118 108.649C464.877 109.372 465.849 109.832 466.888 109.959V100.858C461.888 99.361 459.929 97.4795 459.929 93.9748C459.929 90.1782 462.863 87.6592 466.888 87.3923V84.8384H469.023V87.427C474.034 87.9262 475.647 91.1531 475.867 93.4862H472.642C472.476 92.6019 472.038 91.7903 471.389 91.1665C470.74 90.5427 469.913 90.1357 469.023 90.0038V98.1995C474.823 99.8596 476.436 102.262 476.436 105.617C476.436 109.785 473.652 112.234 469.023 112.583V116.065L466.888 116.077V116.077ZM466.888 97.6428V90.0161C464.174 90.2363 463.199 91.8495 463.199 93.6606C463.199 95.4717 464.07 96.6679 466.888 97.6428ZM469.023 101.554V110.063C471.622 109.796 473.013 108.473 473.013 106.035C473.013 104.039 472.144 102.646 469.023 101.554V101.554Z" fill="#70A9A1"/>
</g>
<path d="M467.904 116.209V112.721C463.47 112.336 460.894 109.662 460.518 106.045H463.766C463.933 107.089 464.427 108.05 465.172 108.785C465.917 109.521 466.875 109.991 467.904 110.127V101.011C462.991 99.4986 461.064 97.6148 461.064 94.1156C461.064 90.3135 463.937 87.7781 467.904 87.5223V84.9641H470.012V87.5688C474.924 88.0571 476.509 91.3018 476.737 93.6383H473.557C473.399 92.7517 472.972 91.9379 472.336 91.3118C471.7 90.6858 470.887 90.28 470.012 90.1503V98.3828C475.711 100.045 477.284 102.452 477.284 105.802C477.284 109.987 474.549 112.441 470.012 112.779V116.267L467.904 116.209V116.209ZM467.904 97.7434V90.0921C465.248 90.3247 464.29 91.9412 464.29 93.7434C464.29 95.5455 465.134 96.7663 467.904 97.7434V97.7434ZM470.012 101.662V110.127C472.565 109.871 473.922 108.546 473.922 106.103C473.944 104.15 473.078 102.755 470.012 101.662Z" fill="white"/>
<g opacity="0.24">
<path opacity="0.24" d="M96.7484 126.64V123.158C92.236 122.787 89.6025 120.105 89.2314 116.495H92.5378C92.7133 117.53 93.2185 118.48 93.9774 119.206C94.7353 119.931 95.7066 120.393 96.7484 120.523V111.421C91.7486 109.912 89.7881 108.032 89.7881 104.538C89.7881 100.742 92.7233 98.223 96.7484 97.9558V95.4024H98.8833V97.9905C103.882 98.4779 105.506 101.717 105.727 104.051H102.501C102.337 103.164 101.9 102.353 101.251 101.728C100.601 101.104 99.7742 100.698 98.8833 100.567V108.763C104.683 110.423 106.295 112.827 106.295 116.169C106.295 120.348 103.511 122.798 98.8833 123.134V126.617L96.7484 126.64V126.64ZM96.7484 108.206V100.567C94.0333 100.8 93.0598 102.413 93.0598 104.224C93.0598 106.035 93.9294 107.231 96.7484 108.206ZM98.8833 112.072V120.57C101.481 120.361 102.861 119.037 102.861 116.599C102.861 114.602 102.003 113.233 98.8833 112.072V112.072Z" fill="#70A9A1"/>
</g>
<path d="M97.9252 126.328V122.902C93.4911 122.517 90.9157 119.837 90.5391 116.213H93.7985C93.9751 117.25 94.4725 118.203 95.2169 118.931C95.9613 119.657 96.9148 120.122 97.9364 120.257V111.12C93.0238 109.605 91.0979 107.717 91.0979 104.208C91.0979 100.386 93.9695 97.8574 97.9364 97.6014V95.0256H100.044V97.636C104.957 98.1257 106.542 101.377 106.77 103.708H103.579C103.416 102.821 102.986 102.008 102.352 101.381C101.717 100.755 100.906 100.346 100.033 100.212V108.475C105.733 110.129 107.305 112.553 107.305 115.91C107.305 120.105 104.57 122.552 100.033 122.902V126.328H97.9252V126.328ZM97.9252 107.833V100.165C95.2694 100.386 94.3115 102.018 94.3115 103.824C94.3115 105.63 95.1554 106.842 97.9252 107.833ZM100.033 111.76V120.291C102.586 120.023 103.943 118.706 103.943 116.248C103.943 114.301 103.099 112.856 100.033 111.76Z" fill="white"/>
<g opacity="0.24">
<path opacity="0.24" d="M26.4619 289.681V285.037C20.3834 284.538 16.8453 280.928 16.335 276.064H20.7893C21.0212 277.467 21.6978 278.758 22.7193 279.747C23.7407 280.736 25.0529 281.37 26.4619 281.554V269.25C19.7222 267.218 17.0889 264.688 17.0889 259.963C17.0889 254.843 21.0446 251.442 26.4619 251.095V247.611H29.3504V251.095C36.0902 251.755 38.2709 256.109 38.5726 259.22H34.2109C33.9826 258.037 33.392 256.954 32.521 256.122C31.6501 255.29 30.5419 254.75 29.3504 254.577V265.628C37.0994 267.857 39.3266 271.107 39.3266 275.611C39.3266 281.241 35.5797 284.538 29.3504 284.991V289.634L26.4619 289.681ZM26.4619 264.839V254.554C22.8194 254.855 21.497 257.027 21.497 259.464C21.497 261.902 22.6686 263.515 26.4619 264.839ZM29.3504 270.109V281.554C32.8304 281.194 34.7212 279.43 34.7212 276.133C34.7212 273.429 33.5612 271.583 29.3504 270.109Z" fill="#70A9A1"/>
</g>
<path d="M27.7527 289.549V284.86C21.8365 284.344 18.3815 280.71 17.8848 275.798H22.2316C22.4637 277.205 23.1258 278.498 24.1202 279.484C25.1146 280.47 26.3882 281.097 27.7527 281.273V268.929C21.1929 266.878 18.63 264.322 18.63 259.551C18.63 254.381 22.4687 250.947 27.7527 250.584V247.067H30.564V250.584C37.1125 251.251 39.2351 255.647 39.5286 258.789H35.2609C35.0387 257.594 34.4638 256.501 33.6161 255.66C32.7684 254.821 31.6899 254.275 30.5301 254.1V265.295C38.0722 267.545 40.24 270.828 40.24 275.376C40.24 281.061 36.5932 284.39 30.5301 284.848V289.537L27.7527 289.549V289.549ZM27.7527 264.474V254.076C24.1962 254.394 22.9203 256.585 22.9203 259.047C22.9203 261.508 24.0493 263.138 27.7527 264.474ZM30.564 269.797V281.366C33.9511 281.003 35.7802 279.21 35.7802 275.892C35.7802 273.173 34.6512 271.285 30.564 269.797V269.797Z" fill="white"/>
<g opacity="0.24">
<path opacity="0.24" d="M174.389 188.235H171.094C170.746 192.576 168.195 195.107 164.726 195.478V192.297C165.722 192.132 166.637 191.645 167.333 190.912C168.027 190.179 168.464 189.239 168.577 188.235H159.842C158.404 193.052 156.606 194.932 153.241 194.945C149.587 194.945 147.163 192.135 146.896 188.269H144.437V186.249H146.943C147.395 181.443 150.504 179.877 152.743 179.655V182.767C151.895 182.928 151.12 183.35 150.525 183.975C149.93 184.6 149.546 185.395 149.425 186.249H157.302C158.879 180.712 161.187 179.11 164.401 179.11C168.415 179.11 170.77 181.768 171.106 186.214H174.4L174.389 188.235V188.235ZM156.687 188.235H149.343C149.564 190.835 151.13 191.775 152.824 191.775C154.518 191.775 155.747 191.009 156.687 188.28V188.235ZM160.434 186.156H168.553C168.298 183.661 167.034 182.326 164.679 182.326C162.811 182.372 161.478 183.196 160.434 186.203V186.156Z" fill="#70A9A1"/>
</g>
<path d="M174.36 187.122H171.051C170.701 191.558 168.118 194.144 164.623 194.523V191.273C165.623 191.094 166.541 190.595 167.242 189.848C167.942 189.101 168.389 188.145 168.515 187.122H159.701C158.253 192.045 156.441 193.965 153.051 193.978C149.369 193.978 146.927 191.108 146.669 187.158H144.191V185.047H146.704C147.172 180.137 150.293 178.536 152.549 178.312V181.49C151.695 181.654 150.914 182.086 150.314 182.724C149.714 183.361 149.328 184.174 149.206 185.047H157.142C158.732 179.391 161.057 177.754 164.308 177.754C168.34 177.754 170.713 180.469 171.051 185.012H174.371L174.36 187.122ZM156.523 187.122H149.124C149.358 189.791 150.924 190.681 152.631 190.681C154.337 190.681 155.576 189.934 156.523 187.17V187.122ZM160.298 185H168.48C168.223 182.45 166.949 181.086 164.576 181.086C162.694 181.133 161.35 181.976 160.298 185.047V185Z" fill="white"/>
<g opacity="0.24">
<path opacity="0.24" d="M205.489 100.347L204.863 98.2118C201.962 98.8032 199.828 97.6081 198.935 95.4136L201 94.8099C201.303 95.4236 201.793 95.9245 202.4 96.2397C203.007 96.555 203.699 96.6679 204.375 96.5628L202.705 90.8635C199.306 90.8635 197.74 90.0161 197.09 87.8334C196.394 85.4536 197.775 83.3293 200.245 82.4355L199.77 80.8335L201.116 80.4389L201.591 82.064C204.805 81.4487 206.416 83.2248 206.985 84.5946L204.955 85.1867C204.688 84.6678 204.268 84.2449 203.749 83.9766C203.232 83.7082 202.644 83.6078 202.067 83.6892L203.563 88.8549C207.473 88.8549 208.946 90.0161 209.561 92.129C210.326 94.7517 209.039 96.7719 206.196 97.8518L206.823 99.9871L205.489 100.347V100.347ZM202.113 88.8549L200.709 84.0838C200.404 84.1623 200.118 84.3023 199.869 84.4951C199.618 84.6881 199.41 84.9299 199.258 85.2059C199.105 85.4818 199.009 85.7861 198.978 86.1002C198.946 86.4143 198.979 86.7315 199.074 87.0324C199.41 88.1468 200.165 88.7156 202.113 88.8549ZM204.166 90.9094L205.721 96.2375C206.06 96.157 206.378 96.0061 206.656 95.7937C206.932 95.5813 207.161 95.313 207.327 95.0066C207.494 94.7003 207.593 94.3616 207.62 94.0139C207.648 93.6662 207.601 93.3163 207.484 92.9876C207.113 91.6874 206.324 90.9798 204.166 90.8635V90.9094V90.9094Z" fill="#70A9A1"/>
</g>
<path d="M206.041 99.4974L205.442 97.4482C202.671 98.0128 200.631 96.8837 199.778 94.7909L201.751 94.214C202.04 94.7998 202.509 95.2783 203.089 95.5768C203.67 95.8764 204.332 95.9804 204.977 95.8753L203.381 90.4376C200.133 90.4376 198.625 89.6405 198.016 87.5472C197.351 85.3322 198.67 83.2611 201.019 82.3973L200.577 80.8688L201.862 80.4923L202.317 82.0428C205.387 81.4669 206.928 83.1503 207.471 84.4683L205.532 85.0332C205.278 84.5361 204.877 84.1303 204.381 83.8722C203.887 83.6142 203.324 83.5167 202.771 83.5934L204.201 88.4997C207.937 88.4997 209.344 89.6069 209.932 91.6226C210.664 94.1145 209.422 96.053 206.717 97.0715L207.315 99.1207L206.041 99.4974V99.4974ZM202.804 88.4887L201.474 83.9256C201.181 84.0003 200.906 84.1341 200.667 84.3189C200.427 84.5038 200.228 84.7356 200.081 85.0002C199.935 85.2647 199.844 85.5565 199.815 85.8573C199.786 86.1583 199.819 86.462 199.911 86.7498C200.221 87.8573 200.942 88.4 202.793 88.4887H202.804ZM204.777 90.4487L206.251 95.5108C206.576 95.4337 206.881 95.2883 207.144 95.086C207.409 94.8837 207.628 94.6276 207.787 94.3359C207.946 94.043 208.041 93.7199 208.068 93.3878C208.093 93.0569 208.049 92.7227 207.937 92.4096C207.583 91.2358 206.828 90.5482 204.767 90.4487H204.777V90.4487Z" fill="white"/>
<g opacity="0.24">
<path opacity="0.24" d="M510.505 307.012L509.207 306.072C508.705 306.796 507.946 307.304 507.085 307.492C506.223 307.678 505.323 307.532 504.566 307.082L505.482 305.816C505.925 306.035 506.426 306.107 506.912 306.021C507.398 305.936 507.844 305.697 508.185 305.34L504.705 302.81C502.745 304.296 501.492 304.516 500.169 303.552C499.836 303.298 499.557 302.981 499.347 302.619C499.137 302.255 499.001 301.855 498.948 301.439C498.893 301.023 498.922 300.601 499.033 300.197C499.143 299.792 499.332 299.413 499.589 299.084L498.627 298.364L499.218 297.551L500.204 298.271C500.666 297.624 501.351 297.172 502.128 297.002C502.904 296.833 503.715 296.958 504.404 297.353L503.499 298.584C503.118 298.402 502.69 298.344 502.274 298.416C501.858 298.489 501.475 298.69 501.179 298.991L504.287 301.312C506.515 299.582 507.884 299.629 509.16 300.557C510.738 301.719 510.9 303.448 509.74 305.305L511.039 306.245L510.505 307.012V307.012ZM503.545 301.904L500.646 299.791C500.5 299.968 500.393 300.174 500.333 300.395C500.271 300.615 500.258 300.847 500.291 301.073C500.325 301.299 500.406 301.516 500.529 301.71C500.652 301.902 500.814 302.067 501.004 302.194C501.677 302.705 502.363 302.705 503.51 301.904H503.545V301.904ZM505.622 302.171L508.847 304.492C509.005 304.298 509.122 304.071 509.188 303.828C509.253 303.585 509.267 303.331 509.228 303.081C509.189 302.833 509.097 302.595 508.96 302.384C508.821 302.174 508.641 301.994 508.429 301.857C507.641 301.346 506.863 301.289 505.587 302.171H505.622Z" fill="#70A9A1"/>
</g>
<path d="M510.289 306.848L509.003 305.861C508.506 306.622 507.756 307.155 506.904 307.352C506.052 307.549 505.161 307.396 504.411 306.922L505.317 305.592C505.755 305.819 506.247 305.893 506.726 305.804C507.204 305.713 507.645 305.465 507.981 305.093L504.537 302.434C502.608 303.995 501.357 304.226 500.048 303.202C499.719 302.936 499.441 302.602 499.233 302.221C499.027 301.839 498.893 301.417 498.84 300.981C498.788 300.544 498.818 300.1 498.928 299.675C499.04 299.25 499.229 298.853 499.486 298.508L498.521 297.763L499.107 296.91L500.083 297.666C500.539 296.986 501.218 296.511 501.985 296.334C502.754 296.156 503.557 296.288 504.239 296.702L503.355 297.996C502.978 297.803 502.554 297.74 502.142 297.816C501.731 297.893 501.352 298.104 501.059 298.422L504.135 300.861C506.339 299.045 507.694 299.093 508.957 300.069C510.518 301.288 510.679 303.105 509.531 305.043L510.817 306.044L510.289 306.848V306.848ZM503.401 301.483L500.53 299.264C500.387 299.45 500.283 299.667 500.223 299.9C500.163 300.131 500.151 300.375 500.186 300.613C500.22 300.85 500.302 301.078 500.424 301.28C500.547 301.483 500.708 301.656 500.898 301.788C501.599 302.325 502.229 302.325 503.366 301.483H503.401V301.483ZM505.456 301.763L508.658 304.203C508.815 303.997 508.93 303.76 508.994 303.505C509.057 303.25 509.07 302.983 509.03 302.723C508.989 302.462 508.898 302.214 508.761 301.994C508.624 301.773 508.444 301.587 508.234 301.446C507.454 300.898 506.696 300.837 505.421 301.763H505.456Z" fill="white"/>
<path d="M525.756 254.892C525.074 262.096 518.178 263.857 518.666 271.072C524.291 268.905 530.38 269.196 536.119 270.677C541.856 272.157 547.015 275.34 552.616 277.251C552.869 275.005 553.476 272.816 554.411 270.769C555.457 268.683 556.763 266.736 557.763 264.626C556.241 264.918 554.844 263.787 553.593 262.854C548.572 259.077 542.334 257.655 536.232 257.189C534.812 257.083 525.507 257.573 525.756 254.892V254.892Z" fill="#70A9A1"/>
<g opacity="0.24">
<path opacity="0.24" d="M535.782 268.403L536.235 267.346C535.658 267.114 535.189 266.674 534.921 266.113C534.652 265.552 534.603 264.911 534.784 264.317L535.806 264.746C535.723 265.087 535.753 265.445 535.892 265.767C536.029 266.089 536.268 266.358 536.572 266.534L537.731 263.735C536.386 262.575 536.026 261.786 536.479 260.706C536.596 260.429 536.768 260.18 536.985 259.972C537.201 259.763 537.457 259.6 537.736 259.493C538.016 259.384 538.315 259.333 538.615 259.342C538.914 259.351 539.209 259.42 539.483 259.545L539.819 258.756L540.48 259.034L540.133 259.835C540.648 260.056 541.066 260.457 541.309 260.963C541.552 261.468 541.604 262.045 541.455 262.586L540.457 262.169C540.518 261.876 540.487 261.572 540.369 261.298C540.25 261.023 540.05 260.793 539.796 260.636L538.729 263.155C540.284 264.421 540.48 265.372 540.04 266.406C539.915 266.698 539.731 266.961 539.502 267.179C539.272 267.397 538.999 267.565 538.702 267.675C538.404 267.783 538.086 267.83 537.77 267.811C537.453 267.792 537.144 267.71 536.861 267.567L536.408 268.623L535.782 268.403ZM538.183 262.726L539.182 260.404C539.035 260.33 538.874 260.289 538.711 260.281C538.548 260.273 538.385 260.301 538.231 260.361C538.079 260.422 537.942 260.513 537.827 260.631C537.713 260.748 537.624 260.889 537.569 261.042C537.337 261.588 537.452 262.064 538.183 262.726ZM538.334 264.212L537.232 266.835C537.393 266.912 537.569 266.955 537.747 266.959C537.925 266.965 538.103 266.933 538.268 266.864C538.433 266.796 538.582 266.694 538.705 266.566C538.828 266.437 538.923 266.283 538.984 266.115C539.24 265.501 539.158 264.955 538.334 264.212V264.212Z" fill="#70A9A1"/>
</g>
<path d="M536.494 268.108L536.924 267.151C536.364 266.936 535.91 266.537 535.648 266.03C535.387 265.523 535.337 264.944 535.509 264.404L536.505 264.793C536.43 265.104 536.462 265.428 536.599 265.719C536.736 266.01 536.969 266.254 537.264 266.414L538.397 263.878C537.083 262.825 536.743 262.11 537.184 261.132C537.299 260.882 537.466 260.656 537.676 260.468C537.885 260.279 538.134 260.131 538.406 260.033C538.679 259.934 538.969 259.888 539.262 259.896C539.554 259.904 539.841 259.967 540.106 260.08L540.435 259.364L541.081 259.617L540.752 260.342C541.253 260.545 541.659 260.909 541.894 261.367C542.129 261.826 542.178 262.347 542.032 262.836L541.07 262.457C541.13 262.193 541.101 261.916 540.986 261.667C540.869 261.419 540.673 261.209 540.424 261.069L539.382 263.352C540.9 264.499 541.081 265.362 540.662 266.298C540.54 266.564 540.361 266.804 540.135 267.002C539.91 267.201 539.643 267.355 539.35 267.454C539.059 267.552 538.748 267.594 538.437 267.577C538.127 267.559 537.824 267.482 537.548 267.351L537.117 268.308L536.494 268.108V268.108ZM538.839 262.963L539.812 260.858C539.669 260.792 539.511 260.754 539.352 260.748C539.191 260.741 539.031 260.767 538.882 260.823C538.733 260.879 538.599 260.964 538.488 261.071C538.377 261.179 538.292 261.307 538.238 261.448C538 261.931 538.113 262.352 538.839 262.963V262.963ZM538.985 264.31L537.853 266.677C538.009 266.748 538.181 266.788 538.356 266.794C538.53 266.8 538.704 266.771 538.866 266.708C539.027 266.646 539.174 266.554 539.293 266.436C539.414 266.318 539.506 266.178 539.563 266.025C539.869 265.467 539.779 264.983 538.985 264.31Z" fill="white"/>
<path d="M406.171 37.2332C401.632 30.0053 396.502 23.1652 390.833 16.7832C383.007 29.4471 367.021 33.1496 353.491 36.0687C366.207 67.2278 402.724 31.7362 406.171 37.2332Z" fill="#70A9A1"/>
<g opacity="0.24">
<path opacity="0.24" d="M373.812 32.7332L374.744 34.0389C375.45 33.5119 376.331 33.2727 377.206 33.3699C378.083 33.4669 378.89 33.8931 379.463 34.5622L378.191 35.4689C377.841 35.1205 377.39 34.8927 376.902 34.8188C376.414 34.7448 375.915 34.8285 375.478 35.0576L377.969 38.5664C380.3 37.7836 381.559 37.9744 382.505 39.3094C382.739 39.6564 382.904 40.0466 382.986 40.4573C383.069 40.8682 383.07 41.2913 382.989 41.7025C382.907 42.1137 382.745 42.5046 382.512 42.8527C382.279 43.2008 381.978 43.499 381.629 43.7302L382.312 44.7196L381.492 45.301L380.787 44.3042C380.143 44.77 379.349 44.9799 378.56 44.8929C377.77 44.8059 377.041 44.4284 376.514 43.8335L377.764 42.9561C378.067 43.2502 378.455 43.4424 378.872 43.5061C379.289 43.5697 379.716 43.5016 380.094 43.3112L377.887 40.1189C375.225 41.0476 373.943 40.5668 373.029 39.2796C371.904 37.676 372.302 35.9849 373.994 34.5947L373.062 33.289L373.812 32.7332V32.7332ZM378.779 39.7947L380.855 42.7224C381.048 42.601 381.215 42.4402 381.343 42.2505C381.471 42.0607 381.558 41.8462 381.598 41.6208C381.638 41.3953 381.631 41.1639 381.576 40.9416C381.521 40.7194 381.42 40.511 381.28 40.3302C380.806 39.6315 380.156 39.4131 378.813 39.8058L378.779 39.7947V39.7947ZM376.897 38.8791L374.581 35.6498C374.367 35.7839 374.185 35.9615 374.045 36.171C373.906 36.3806 373.812 36.6173 373.769 36.8657C373.728 37.1141 373.739 37.3686 373.802 37.6124C373.865 37.8562 373.979 38.0839 374.136 38.2805C374.72 39.0163 375.439 39.3193 376.93 38.8902L376.897 38.8791Z" fill="#70A9A1"/>
</g>
<path d="M373.965 32.957L374.869 34.3034C375.583 33.74 376.463 33.4742 377.334 33.5595C378.205 33.6448 379 34.075 379.56 34.7631L378.276 35.7334C377.934 35.3792 377.491 35.1519 377.009 35.0844C376.526 35.0167 376.031 35.1124 375.593 35.3575L378.008 38.9757C380.334 38.1119 381.594 38.2915 382.508 39.6799C382.736 40.0379 382.892 40.4426 382.967 40.8704C383.041 41.2981 383.034 41.7404 382.944 42.1714C382.855 42.6022 382.685 43.0132 382.443 43.3802C382.203 43.7472 381.897 44.0628 381.544 44.3088L382.22 45.3214L381.393 45.9437L380.71 44.9157C380.059 45.414 379.266 45.6477 378.481 45.5714C377.696 45.495 376.978 45.1143 376.463 44.5027L377.713 43.5598C378.009 43.8629 378.39 44.0577 378.806 44.1165C379.221 44.1754 379.647 44.0955 380.026 43.8879L377.887 40.5948C375.219 41.6135 373.951 41.135 373.065 39.8076C371.974 38.1537 372.401 36.3805 374.108 34.9092L373.209 33.5513L373.965 32.957V32.957ZM378.783 40.2398L380.795 43.2589C380.99 43.1278 381.158 42.9559 381.289 42.7547C381.42 42.5534 381.509 42.3272 381.551 42.0905C381.595 41.854 381.591 41.6124 381.539 41.3813C381.487 41.1504 381.389 40.935 381.252 40.7495C380.759 40.0175 380.161 39.816 378.815 40.2508L378.783 40.2398V40.2398ZM376.924 39.3184L374.666 35.9851C374.453 36.129 374.268 36.3178 374.126 36.539C373.984 36.7603 373.888 37.009 373.842 37.2687C373.798 37.5283 373.805 37.793 373.866 38.0454C373.925 38.2977 374.036 38.5319 374.19 38.7325C374.754 39.5016 375.454 39.8011 376.956 39.3293L376.924 39.3184V39.3184Z" fill="white"/>
<path d="M342.735 77.2636C345.679 70.6531 352.777 71.1854 354.614 64.1906C348.593 64.4511 342.913 62.2317 337.948 58.9978C332.982 55.764 329.108 51.102 324.409 47.5028C323.453 49.5507 322.18 51.4318 320.641 53.0729C318.984 54.717 317.125 56.1452 315.505 57.826C317.041 58.0355 318.004 59.5531 318.892 60.8358C322.446 66.0178 327.904 69.3559 333.539 71.7446C334.851 72.2972 343.827 74.8022 342.735 77.2636V77.2636Z" fill="#70A9A1"/>
<g opacity="0.24">
<path opacity="0.24" d="M337.542 61.2606L336.776 62.1174C337.249 62.521 337.553 63.0874 337.628 63.7048C337.704 64.3221 337.545 64.9455 337.184 65.4516L336.353 64.7187C336.539 64.422 336.625 64.0729 336.597 63.7235C336.569 63.3742 336.43 63.0433 336.198 62.7802L334.206 65.0615C335.111 66.5911 335.2 67.4539 334.426 68.3327C334.226 68.5567 333.984 68.7382 333.713 68.8668C333.442 68.9955 333.148 69.0685 332.848 69.0816C332.548 69.0948 332.248 69.048 331.967 68.9436C331.686 68.8393 331.428 68.6797 331.21 68.4743L330.638 69.1151L330.101 68.6401L330.686 67.992C330.268 67.6179 330 67.1049 329.931 66.548C329.862 65.9911 329.997 65.4279 330.31 64.9626L331.122 65.6769C330.971 65.9347 330.904 66.2328 330.929 66.5305C330.954 66.8282 331.069 67.1109 331.261 67.3402L333.075 65.2934C332.005 63.5981 332.123 62.6331 332.869 61.7945C333.081 61.5577 333.338 61.3667 333.626 61.2333C333.913 61.0999 334.225 61.0269 334.543 61.0189C334.86 61.0108 335.175 61.0678 335.469 61.1865C335.763 61.3051 336.029 61.4827 336.253 61.7084L337.019 60.8516L337.542 61.2606V61.2606ZM333.455 65.8744L331.77 67.7564C331.884 67.873 332.022 67.964 332.175 68.0233C332.328 68.0825 332.492 68.1087 332.655 68.1002C332.819 68.0916 332.979 68.0484 333.124 67.9736C333.271 67.8987 333.398 67.7938 333.501 67.6658C333.894 67.2227 333.937 66.7346 333.455 65.8744V65.8744ZM333.786 64.418L335.667 62.2832C335.54 62.1587 335.387 62.0626 335.219 62.0009C335.051 61.9392 334.874 61.9132 334.695 61.9249C334.517 61.9365 334.344 61.9853 334.185 62.0683C334.027 62.1513 333.889 62.2664 333.778 62.4064C333.34 62.9081 333.243 63.4511 333.786 64.418V64.418Z" fill="#70A9A1"/>
</g>
<path d="M336.774 61.3127L336.06 62.0828C336.522 62.4641 336.826 62.9876 336.913 63.5517C336.999 64.1159 336.861 64.6808 336.526 65.1373L335.705 64.4503C335.876 64.1805 335.948 63.8628 335.912 63.5431C335.875 63.2233 335.732 62.9184 335.503 62.6724L333.621 64.7144C334.531 66.1308 334.625 66.9173 333.893 67.7037C333.706 67.9041 333.475 68.065 333.216 68.177C332.957 68.289 332.674 68.3498 332.386 68.3558C332.096 68.3619 331.805 68.313 331.531 68.2122C331.257 68.1113 331.004 67.9605 330.788 67.7687L330.25 68.342L329.718 67.8967L330.261 67.3134C329.851 66.9618 329.582 66.4875 329.505 65.9781C329.428 65.4687 329.549 64.9586 329.844 64.5416L330.635 65.2078C330.492 65.4396 330.432 65.7108 330.462 65.9836C330.492 66.2563 330.612 66.5174 330.804 66.7301L332.52 64.8986C331.447 63.3274 331.551 62.452 332.246 61.6981C332.446 61.4849 332.692 61.3148 332.969 61.1983C333.246 61.0819 333.549 61.0217 333.858 61.0213C334.165 61.021 334.474 61.0806 334.762 61.1964C335.05 61.3123 335.313 61.4818 335.533 61.6946L336.246 60.9245L336.774 61.3127V61.3127ZM332.911 65.441L331.316 67.1246C331.431 67.2338 331.567 67.3195 331.718 67.3764C331.868 67.4333 332.028 67.4599 332.187 67.4547C332.345 67.4493 332.5 67.4122 332.639 67.3455C332.779 67.279 332.901 67.1846 332.996 67.0685C333.376 66.6857 333.403 66.2506 332.911 65.441V65.441ZM333.2 64.1176L335.029 62.2353C334.903 62.1174 334.753 62.0249 334.59 61.9641C334.426 61.9032 334.252 61.8752 334.079 61.8821C333.906 61.889 333.738 61.9304 333.587 62.0039C333.435 62.0772 333.303 62.1809 333.2 62.3079C332.732 62.7388 332.664 63.2265 333.2 64.1176V64.1176Z" fill="white"/>
<g opacity="0.24">
<path opacity="0.24" d="M509.612 100.463L512.153 99.6741C511.387 96.1917 512.768 93.6606 515.365 92.546L516.12 95.0078C515.394 95.3811 514.808 95.977 514.446 96.7082C514.082 97.4382 513.962 98.2666 514.101 99.0704L520.865 96.9809C520.865 92.9183 521.781 91.0256 524.344 90.2252C527.163 89.3541 529.715 90.944 530.829 93.8809L532.732 93.2895L533.231 94.8792L531.305 95.4829C532.082 99.3141 530.052 101.287 528.382 101.96L527.627 99.5578C528.244 99.2325 528.744 98.7205 529.057 98.0966C529.369 97.4717 529.477 96.7652 529.368 96.0754L523.277 97.967C523.382 102.611 521.967 104.41 519.484 105.188C516.387 106.151 513.928 104.642 512.606 101.276L510.065 102.065L509.612 100.463V100.463ZM523.3 96.2151L528.973 94.4622C528.88 94.0933 528.711 93.7467 528.478 93.4471C528.243 93.1475 527.949 92.9004 527.614 92.7204C527.279 92.5416 526.91 92.4342 526.53 92.4063C526.151 92.3783 525.77 92.4298 525.412 92.5583C524.043 92.9876 523.37 93.8932 523.3 96.2151V96.2151ZM520.887 98.7104L514.565 100.672C515.365 102.542 516.665 103.273 518.475 102.704C519.959 102.251 520.794 101.287 520.887 98.7104V98.7104Z" fill="#70A9A1"/>
</g>
<path d="M509.699 101.152L512.224 100.355C511.463 96.8345 512.835 94.2777 515.418 93.1632L516.179 95.6506C515.455 96.0217 514.869 96.621 514.508 97.3588C514.146 98.0967 514.028 98.9329 514.173 99.7445L520.882 97.6215C520.882 93.5153 521.793 91.6148 524.341 90.7931C527.143 89.9133 529.679 91.5321 530.797 94.489L532.676 93.8898L533.172 95.5097L531.259 96.1078C532.042 99.9793 530.025 101.974 528.354 102.666L527.616 100.238C528.225 99.9044 528.719 99.3868 529.029 98.7562C529.338 98.1268 529.449 97.4147 529.345 96.7182L523.292 98.6187C523.384 103.311 521.989 105.141 519.511 105.916C516.433 106.889 513.988 105.364 512.685 101.974L510.149 102.772L509.699 101.152ZM523.315 96.9172L528.953 95.1453C528.861 94.773 528.692 94.4231 528.46 94.1201C528.227 93.8172 527.935 93.5667 527.601 93.3856C527.268 93.2045 526.902 93.0961 526.525 93.0681C526.147 93.0402 525.769 93.0916 525.413 93.2213C524.052 93.5969 523.395 94.5706 523.315 96.9172ZM520.917 99.4393L514.645 101.423C515.429 103.311 516.72 104.05 518.531 103.487C519.995 102.96 520.824 101.985 520.917 99.3812V99.4393Z" fill="white"/>
<g opacity="0.24">
<path opacity="0.24" d="M64.3602 318.179L64.6732 316.658C63.8449 316.5 63.105 316.037 62.6009 315.36C62.0961 314.684 61.8631 313.842 61.9476 313.002L63.4213 313.304C63.4045 313.779 63.5409 314.249 63.8103 314.641C64.0797 315.033 64.4675 315.33 64.9169 315.486L65.7641 311.435C63.6761 310.273 62.9798 309.287 63.305 307.72C63.3922 307.323 63.5577 306.946 63.7924 306.614C64.026 306.282 64.3244 305.999 64.6687 305.782C65.013 305.567 65.3975 305.421 65.7988 305.355C66.2 305.289 66.6103 305.304 67.0048 305.398L67.2373 304.237L68.1997 304.435L67.956 305.596C68.7094 305.744 69.3801 306.168 69.8384 306.783C70.2966 307.399 70.5112 308.163 70.4386 308.927L69.0011 308.625C69.0067 308.217 68.886 307.817 68.6558 307.481C68.4255 307.143 68.0958 306.887 67.7135 306.745L66.959 310.402C69.36 311.667 69.8819 312.897 69.569 314.383C69.1867 316.241 67.7247 317.076 65.6244 316.798L65.3114 318.318L64.3602 318.179V318.179ZM66.0659 309.973L66.7735 306.571C66.5577 306.516 66.3342 306.507 66.1151 306.544C65.896 306.58 65.687 306.661 65.5003 306.782C65.3148 306.903 65.1549 307.061 65.0331 307.246C64.9102 307.431 64.8274 307.64 64.7894 307.86C64.5804 308.684 64.8945 309.276 66.0659 309.973V309.973ZM66.6572 311.911L65.8681 315.695C66.1062 315.766 66.3565 315.785 66.6013 315.75C66.8472 315.714 67.082 315.627 67.291 315.492C67.4989 315.358 67.6755 315.18 67.8085 314.97C67.9415 314.761 68.0276 314.525 68.0611 314.279C68.1997 313.385 67.9449 312.688 66.6572 311.911V311.911Z" fill="#70A9A1"/>
</g>
<path d="M64.8257 318.46L65.113 316.879C64.3518 316.716 63.6733 316.239 63.2095 315.541C62.7467 314.842 62.5327 313.975 62.6103 313.108L63.9628 313.42C63.9449 313.911 64.0679 314.396 64.316 314.802C64.5642 315.208 64.9219 315.513 65.3366 315.671L66.1145 311.492C64.1976 310.296 63.5582 309.277 63.8566 307.674C63.9349 307.263 64.0869 306.875 64.3015 306.53C64.5161 306.187 64.79 305.894 65.1063 305.672C65.4226 305.448 65.7758 305.298 66.1447 305.231C66.5136 305.164 66.8902 305.18 67.2535 305.279L67.467 304.082L68.3512 304.286L68.1276 305.483C68.8184 305.636 69.4343 306.073 69.8545 306.708C70.2759 307.342 70.4727 308.13 70.4067 308.918L69.0855 308.608C69.0911 308.188 68.9793 307.777 68.7681 307.431C68.5557 307.087 68.2539 306.823 67.9041 306.68L67.211 310.439C69.4164 311.756 69.8948 313.012 69.6075 314.557C69.2565 316.472 67.9041 317.322 65.986 317.035L65.6987 318.615L64.8257 318.46V318.46ZM66.3917 309.996L67.0411 306.488C66.8444 306.429 66.6376 306.415 66.4364 306.451C66.2341 306.486 66.0419 306.568 65.8697 306.692C65.6987 306.817 65.5523 306.98 65.4394 307.171C65.3276 307.363 65.2527 307.579 65.2192 307.805C65.0594 308.656 65.3153 309.277 66.3917 309.996V309.996ZM66.9338 311.995L66.2107 315.898C66.4264 315.961 66.6522 315.973 66.8724 315.931C67.0926 315.889 67.3027 315.796 67.4882 315.657C67.6738 315.518 67.8325 315.336 67.951 315.124C68.0706 314.912 68.1488 314.674 68.1801 314.425C68.3512 313.515 68.1164 312.785 66.9338 311.995Z" fill="#70A9A1"/>
<path d="M284.304 59.1941C294.542 65.772 301.329 76.4013 310.738 84.0851L302.433 106.205L296.987 100.384C292.324 95.4482 287.601 90.4655 281.942 86.6464C276.283 82.8277 269.52 80.3014 262.674 80.7438C262.674 80.7438 266.138 60.2187 267.859 58.193C272.901 52.2439 277.849 55.0496 284.304 59.1941V59.1941Z" fill="#70A9A1"/>
<path d="M271.094 60.1076L269.381 72.7648C270.537 73.022 271.581 73.6403 272.362 74.5303C273.142 75.4204 273.619 76.5359 273.723 77.715C273.723 77.715 290.74 83.3339 297.031 95.3923C297.031 95.3923 301.303 94.2196 302.899 96.1436L306.267 87.9323C306.267 87.9323 304.026 85.0936 304.624 82.7709C304.624 82.7709 288.358 61.093 278.171 59.2513C275.941 60.2031 273.486 60.5001 271.094 60.1076V60.1076Z" fill="white"/>
<g opacity="0.24">
<path opacity="0.24" d="M312.184 41.2129L313.303 36.7064C307.525 34.757 304.962 30.4006 305.639 25.5569L309.962 26.6304C309.849 28.0482 310.194 29.4644 310.947 30.6702C311.7 31.8761 312.82 32.8072 314.143 33.3266L317.11 21.3844C311.058 17.7884 309.114 14.6978 310.253 10.1126C311.488 5.14416 316.145 2.7962 321.487 3.764L322.327 0.384143L325.13 1.08027L324.29 4.46013C330.672 6.72681 331.739 11.4773 331.281 14.5693L327.049 13.5181C327.112 12.3146 326.8 11.1217 326.155 10.1043C325.511 9.08696 324.565 8.29545 323.451 7.83999L320.786 18.5655C327.769 22.5964 329.147 26.2875 328.061 30.6588C326.703 36.123 322.272 38.4195 316.118 37.3575L314.998 41.8639L312.184 41.2129V41.2129ZM318.173 17.1032L320.653 7.1214C317.045 6.53638 315.239 8.32441 314.651 10.6903C314.063 13.0562 314.811 14.9046 318.173 17.1032ZM319.706 22.9142L316.946 34.0227C320.411 34.5123 322.67 33.2555 323.465 30.0558C324.118 27.4308 323.437 25.3598 319.706 22.9142V22.9142Z" fill="#70A9A1"/>
</g>
<path d="M225.533 58.672L224.157 54.1896C218.35 55.4332 213.98 52.9735 212.063 48.4239L216.219 47.1479C216.853 48.4251 217.866 49.4658 219.106 50.1166C220.346 50.767 221.748 50.9928 223.104 50.7606L219.479 38.9607C212.607 38.9251 209.407 37.2345 208.006 32.6736C206.488 27.7319 209.149 23.3218 214.093 21.4235L213.061 18.0617L215.748 17.2366L216.781 20.5984C223.237 19.3148 226.557 22.8939 227.76 25.8108L223.68 27.0638C223.117 25.9867 222.246 25.1105 221.189 24.5561C220.133 24.0016 218.942 23.7968 217.781 23.97L221.068 34.6716C228.939 34.6091 231.974 37.1106 233.31 41.4586C234.979 46.8934 232.47 51.1465 226.809 53.363L228.185 57.8455L225.533 58.672V58.672ZM218.172 34.7025L215.119 24.7629C211.812 26.1094 211.236 28.5793 211.959 30.9325C212.682 33.2858 214.239 34.512 218.172 34.7025ZM222.421 38.9649L225.818 50.0251C228.95 48.6832 230.172 46.4319 229.198 43.2607C228.399 40.6609 226.766 39.1882 222.421 38.9649Z" fill="white"/>
<g opacity="0.24">
<path opacity="0.24" d="M287.912 83.4099L288.225 81.8892C287.396 81.7309 286.656 81.2678 286.152 80.5909C285.647 79.9141 285.415 79.0727 285.5 78.2326L286.973 78.5343C286.956 79.0105 287.092 79.4792 287.362 79.872C287.631 80.2647 288.019 80.5607 288.468 80.7168L289.316 76.6655C287.228 75.5046 286.531 74.5179 286.857 72.9507C286.944 72.5534 287.109 72.1776 287.344 71.845C287.578 71.5124 287.876 71.2299 288.22 71.0137C288.564 70.7976 288.949 70.6524 289.35 70.5863C289.752 70.5202 290.162 70.5348 290.556 70.6291L290.789 69.4682L291.751 69.6655L291.508 70.8264C292.261 70.9754 292.932 71.3987 293.39 72.0142C293.848 72.6297 294.063 73.3936 293.99 74.158L292.553 73.8562C292.558 73.448 292.438 73.0479 292.207 72.7111C291.977 72.3742 291.647 72.1173 291.265 71.9757L290.51 75.6323C292.911 76.8976 293.433 78.1281 293.12 79.6139C292.738 81.4713 291.276 82.3071 289.176 82.0285L288.863 83.5492L287.912 83.4099V83.4099ZM289.617 75.2027L290.325 71.8015C290.109 71.7471 289.886 71.7378 289.667 71.774C289.447 71.8103 289.238 71.8915 289.052 72.0125C288.866 72.1334 288.706 72.2916 288.585 72.4771C288.462 72.6624 288.379 72.8712 288.341 73.09C288.132 73.9142 288.446 74.5063 289.617 75.2027V75.2027ZM290.209 77.1414L289.42 80.9257C289.658 80.9967 289.908 81.0153 290.153 80.9803C290.399 80.9453 290.633 80.8574 290.842 80.7229C291.05 80.5883 291.227 80.4101 291.36 80.2006C291.493 79.9912 291.579 79.7554 291.613 79.5095C291.751 78.6156 291.496 77.9191 290.209 77.1414V77.1414Z" fill="#70A9A1"/>
</g>
<path d="M288.378 83.6905L288.666 82.1103C287.904 81.9471 287.226 81.4694 286.762 80.7715C286.299 80.0734 286.086 79.2058 286.163 78.3392L287.515 78.6505C287.498 79.1423 287.62 79.6275 287.869 80.0333C288.117 80.4391 288.474 80.7436 288.889 80.9011L289.667 76.7231C287.75 75.526 287.111 74.5084 287.409 72.9042C287.487 72.4937 287.639 72.1051 287.854 71.7612C288.069 71.4175 288.343 71.1254 288.659 70.9023C288.975 70.6792 289.328 70.5296 289.697 70.4622C290.066 70.3948 290.443 70.411 290.806 70.5099L291.02 69.3128L291.904 69.5164L291.68 70.7135C292.371 70.8672 292.987 71.3037 293.407 71.9384C293.829 72.5732 294.025 73.361 293.959 74.1493L292.638 73.838C292.644 73.4186 292.532 73.0078 292.321 72.6626C292.108 72.3173 291.806 72.0546 291.457 71.9106L290.764 75.6697C292.969 76.9865 293.447 78.2435 293.16 79.7878C292.809 81.7033 291.457 82.5532 289.539 82.2659L289.251 83.8461L288.378 83.6905V83.6905ZM289.944 75.2266L290.594 71.7191C290.397 71.6592 290.19 71.6463 289.989 71.6813C289.787 71.7164 289.594 71.7987 289.422 71.9228C289.251 72.0469 289.105 72.2101 288.992 72.4018C288.88 72.5935 288.805 72.8096 288.772 73.0359C288.612 73.8859 288.868 74.5084 289.944 75.2266V75.2266ZM290.486 77.226L289.763 81.1286C289.979 81.1918 290.205 81.203 290.425 81.1615C290.645 81.12 290.855 81.0267 291.041 80.8877C291.226 80.7488 291.385 80.5672 291.504 80.355C291.623 80.1427 291.701 79.9046 291.733 79.6562C291.904 78.7463 291.669 78.016 290.486 77.226V77.226Z" fill="#70A9A1"/>
<g opacity="0.24">
<path opacity="0.24" d="M101.759 208.317V201.886C93.2796 201.178 88.3257 196.152 87.6182 189.36H93.8363C94.1839 191.3 95.1385 193.079 96.5625 194.439C97.9876 195.8 99.8073 196.672 101.759 196.929V179.819C92.3519 176.986 88.6744 173.445 88.6744 166.875C88.6744 159.725 94.1962 154.988 101.759 154.489V149.683H105.784V154.559C115.192 155.475 118.231 161.523 118.649 165.946H112.571C112.252 164.293 111.428 162.779 110.213 161.614C108.996 160.45 107.449 159.692 105.784 159.445V174.862C116.607 177.973 119.705 182.5 119.705 188.791C119.705 196.651 114.473 201.248 105.784 201.886V208.317H101.759V208.317ZM101.759 173.666V159.307C96.6664 159.725 94.7987 162.789 94.7987 166.167C94.7987 169.545 96.4574 171.82 101.759 173.666ZM105.784 181.014V196.999C110.669 196.512 113.279 194.027 113.279 189.43C113.301 185.681 111.654 183.069 105.784 181.014V181.014Z" fill="#70A9A1"/>
</g>
<path d="M103.707 207.915V201.474C95.1394 200.759 90.1363 195.68 89.4209 188.817H95.7139C96.0526 190.781 97.0116 192.585 98.4502 193.961C99.8887 195.338 101.732 196.216 103.707 196.466V179.117C94.2139 176.254 90.4995 172.676 90.4995 166.037C90.4995 158.81 96.066 154.024 103.707 153.52V148.687H107.773V153.614C117.278 154.541 120.347 160.653 120.77 165.122H114.629C114.307 163.451 113.474 161.921 112.247 160.744C111.018 159.567 109.455 158.801 107.773 158.553V174.131C118.707 177.274 121.836 181.85 121.836 188.208C121.836 196.15 116.551 200.795 107.773 201.44V207.938L103.707 207.915V207.915ZM103.707 172.899V158.389C98.5619 158.81 96.6752 161.908 96.6752 165.321C96.6752 168.734 98.3507 171.034 103.707 172.899V172.899ZM107.773 180.36V196.513C112.707 196.02 115.344 193.51 115.344 188.864C115.344 185.052 113.703 182.401 107.773 180.36Z" fill="white"/>
<path d="M433.816 112.779C406.966 155.919 350.094 239.874 344.065 290.347C342.59 302.91 342.381 315.613 341.916 328.258C341.741 331.593 341.788 337.195 340.057 340.019C337.106 344.783 330.658 343.947 325.139 344.494C305.492 346.48 284.661 346.689 264.724 346.515C250.05 346.434 235.888 346.131 223.073 346.178C222.272 331.383 220.842 314.8 220.041 300.005C219.321 286.768 218.565 273.356 214.766 260.665C211.524 249.997 206.215 240.084 200.906 230.299C180.288 192.644 158.786 155.497 136.402 118.857C134.927 116.451 127.804 107.514 128.606 104.807C128.701 104.547 128.814 104.295 128.943 104.051C129.609 102.857 130.496 101.8 131.557 100.936C135.031 97.9491 138.906 95.465 143.071 93.5566C143.965 93.0726 144.97 92.8289 145.987 92.8479C147.415 93.0111 154.12 100.227 155.13 101.274L212.78 159.882C225.223 172.538 239.339 176.536 256.371 181.638C264.05 183.962 272.137 184.462 280.154 184.555C298.951 184.718 321.979 184.845 336.049 171.143C352.778 154.78 400.285 110.42 415.808 92.7897L432.41 102.575C433.587 103.127 434.602 103.971 435.361 105.028C436.767 107.421 435.291 110.42 433.816 112.779Z" fill="#40798C"/>
<path d="M276.574 201.84C278.743 203.631 281.377 204.766 284.168 205.109C286.959 205.452 289.791 204.99 292.328 203.779C294.39 202.943 296.136 201.477 297.316 199.587C298.282 197.593 298.82 195.419 298.894 193.203L299.659 185.82C300.221 181.825 300.345 177.781 300.031 173.759C299.578 169.847 298.139 166.097 295.391 163.973C291.783 161.163 286.516 161.744 282.108 164.158C267.886 172.018 265.647 192.39 276.574 201.84V201.84Z" fill="url(#paint19_linear)"/>
<path opacity="0.26" d="M298.058 171.692C298.058 171.692 287.398 198.392 271.691 193.041C271.691 193.041 267.55 192.146 271.402 175.245C275.252 158.343 298.058 171.692 298.058 171.692Z" fill="#C4C4C4" fill-opacity="0.61"/>
<path d="M253.537 150.925C254.755 161.442 259.5 172.308 268.721 177.264C277.271 181.908 288.036 180.41 296.643 175.86C300.264 174.088 303.42 171.497 305.866 168.292C307.947 165.098 309.447 161.56 310.297 157.843C312.026 151.564 313.279 145.074 312.721 138.574C312.272 133.128 310.544 127.863 307.678 123.211C304.811 118.56 300.888 114.65 296.227 111.802C291.566 108.953 286.299 107.246 280.855 106.819C275.41 106.392 269.941 107.257 264.894 109.344C257.597 112.338 254.302 116.901 253.931 124.632C253.514 133.385 252.505 142.173 253.537 150.925V150.925Z" fill="url(#paint20_linear)"/>
<path d="M249.662 125.709C249.662 122.437 250.191 119.106 249.364 115.948C248.583 113.01 246.652 110.498 245.618 107.639C244.744 105.135 244.557 102.441 245.079 99.8395C245.601 97.2381 246.811 94.8255 248.583 92.8546C250.733 90.6098 253.443 88.9825 256.431 88.1417C260.237 86.9929 264.283 86.8932 268.14 87.8536C270.564 88.4643 272.863 89.4784 275.299 90.0083C278.746 90.7461 282.366 90.4689 285.905 90.4465C291.524 90.4465 297.27 91.0458 302.36 93.4315C307.451 95.816 311.84 100.138 313.287 105.588C313.531 107.102 313.999 108.571 314.678 109.945C315.589 111.082 316.588 112.145 317.666 113.125C319.964 115.741 320.32 119.474 320.584 122.932C320.984 125.663 320.82 128.448 320.101 131.113C319.252 133.579 317.494 135.596 316.149 137.821C314.447 140.901 313.116 144.173 312.184 147.569C311.529 146.279 311.748 144.746 311.599 143.305C311.449 141.865 310.576 140.229 309.128 140.229C308.568 140.3 308.04 140.531 307.604 140.892C307.169 141.253 306.845 141.73 306.669 142.268C306.342 143.355 305.891 144.398 305.325 145.38C305.212 145.579 305.043 145.741 304.838 145.844C304.633 145.947 304.402 145.985 304.175 145.956C303.784 145.841 303.601 145.403 303.475 145.023C302.452 141.566 303.624 137.854 303.784 134.237C303.889 131.53 303.423 128.831 302.417 126.318C301.411 123.804 299.888 121.531 297.947 119.647C294.112 116.213 289.32 114.042 284.216 113.425C279.139 112.831 274.01 112.831 268.932 113.425C265.957 113.679 262.843 114.024 260.384 115.729C257.614 117.631 256.121 120.915 255.316 124.176C254.684 126.781 254.88 132.081 253.018 133.937C250.364 132.404 249.709 128.394 249.662 125.709Z" fill="#0B2027" fill-opacity="0.8"/>
<path d="M42.9189 229.443C42.9189 229.443 43.206 234.988 41.3574 235.779L50.4278 247.067C50.4278 247.067 54.2397 244.091 56.6853 245.579C56.6853 245.579 64.3095 234.988 69.981 229.641C75.6526 224.294 79.3613 221.236 79.3613 221.236C79.3613 221.236 72.2311 212.519 69.3953 210.775C66.5596 209.031 64.6191 207.938 64.6191 207.938C64.6191 207.938 58.3616 208.66 42.9189 229.443V229.443Z" fill="white"/>
<path d="M61.2943 248.144C61.2943 248.144 75.3491 226.953 77.493 228.107C79.6368 229.261 76.6099 238.991 75.6353 240.734C74.6617 242.476 66.9458 248.144 66.9458 248.144L59.2422 251.538L61.2943 248.144V248.144Z" fill="url(#paint21_linear)"/>
<path d="M253.043 346.564L223.025 346.273C222.224 331.476 220.795 314.89 219.994 300.093C219.274 286.854 218.519 273.441 214.722 260.748C211.482 250.077 206.176 240.162 200.869 230.376C180.261 192.715 158.771 155.564 136.398 118.918C134.923 116.513 127.804 107.573 128.606 104.866C128.701 104.606 128.814 104.354 128.942 104.11L136.003 98.3795L140.38 107.864C140.38 107.864 204.422 198.922 220.226 210.814C236.03 222.704 247.121 251.171 246.319 257.505C245.599 263.165 260.925 331.605 264.304 346.273C264.735 348.041 253.043 346.564 253.043 346.564Z" fill="url(#paint22_linear)" fill-opacity="0.3"/>
<g opacity="0.24">
<path opacity="0.24" d="M70.7978 225.416L69.6375 224.011C68.8819 224.655 67.9139 224.993 66.9225 224.958C65.931 224.923 64.9876 224.52 64.279 223.826L65.6359 222.665C66.0596 223.031 66.5883 223.251 67.146 223.292C67.7038 223.334 68.2604 223.196 68.7333 222.898L65.6471 219.148C63.0841 220.239 61.6337 220.123 60.4505 218.695C60.1561 218.322 59.9385 217.895 59.81 217.438C59.6815 216.98 59.6447 216.502 59.702 216.03C59.7591 215.558 59.909 215.103 60.143 214.69C60.377 214.276 60.6905 213.914 61.0653 213.622L60.2069 212.566L61.1002 211.904L61.9818 212.973C62.6694 212.389 63.5491 212.084 64.4489 212.114C65.3498 212.143 66.2071 212.508 66.8543 213.135L65.5085 214.226C65.1385 213.922 64.6836 213.738 64.2052 213.704C63.7279 213.668 63.2506 213.782 62.8404 214.028L65.6359 217.395C68.5589 216.119 70.0556 216.548 71.1923 217.928C72.6074 219.636 72.3526 221.585 70.5083 223.304L71.6685 224.708L70.7978 225.416V225.416ZM64.5797 217.848L61.9818 214.702C61.7735 214.857 61.5999 215.055 61.4724 215.282C61.3448 215.508 61.2659 215.76 61.2408 216.018C61.2156 216.277 61.2449 216.539 61.3265 216.786C61.4082 217.033 61.5405 217.26 61.715 217.453C62.2602 218.219 63.0494 218.405 64.5797 217.848V217.848ZM66.7839 218.718L69.6722 222.201C69.9024 222.031 70.0936 221.816 70.2333 221.567C70.3741 221.319 70.4602 221.044 70.487 220.76C70.5127 220.476 70.4792 220.19 70.3864 219.92C70.2937 219.65 70.1461 219.403 69.9516 219.194C69.2206 218.381 68.3968 218.103 66.7381 218.718H66.7839V218.718Z" fill="#70A9A1"/>
</g>
<path d="M71.3671 224.708L70.2192 223.319C69.4725 223.956 68.5146 224.292 67.5343 224.261C66.5529 224.228 65.6185 223.831 64.9154 223.147L66.2701 221.999C66.6904 222.359 67.2146 222.575 67.7668 222.614C68.319 222.653 68.8678 222.514 69.335 222.217L66.2701 218.522C63.7328 219.59 62.309 219.486 61.1265 218.063C60.8343 217.695 60.6184 217.271 60.4913 216.818C60.3642 216.366 60.3284 215.893 60.3862 215.425C60.4439 214.959 60.5939 214.509 60.8274 214.101C61.0609 213.693 61.3733 213.335 61.7465 213.049L60.8854 212.016L61.7579 211.292L62.6307 212.348C63.308 211.772 64.1754 211.467 65.064 211.495C65.9538 211.523 66.801 211.879 67.4404 212.497L66.1326 213.644C65.766 213.348 65.3167 213.172 64.8461 213.138C64.3766 213.106 63.9072 213.219 63.5025 213.461L66.2589 216.789C69.1517 215.527 70.6327 215.94 71.7572 217.306C73.1577 219.004 72.9063 220.932 71.0921 222.619L72.2401 224.019L71.3671 224.708V224.708ZM65.168 217.225L62.5845 214.104C62.3784 214.258 62.2067 214.453 62.0804 214.677C61.9542 214.901 61.8761 215.149 61.8513 215.405C61.8265 215.661 61.8553 215.92 61.9361 216.164C62.0169 216.408 62.1478 216.633 62.3205 216.824C62.9515 217.547 63.7328 217.776 65.168 217.225V217.225ZM67.361 218.097L70.2192 221.541C70.4449 221.371 70.6316 221.155 70.768 220.908C70.9055 220.661 70.9882 220.388 71.0139 220.107C71.0385 219.826 71.0038 219.543 70.9133 219.276C70.8216 219.008 70.6752 218.764 70.4829 218.557C69.8056 217.765 68.9907 217.547 67.361 218.097Z" fill="#70A9A1"/>
</g>
<defs>
<linearGradient id="paint0_linear" x1="3124.63" y1="24746.2" x2="-23023.1" y2="24974.8" gradientUnits="userSpaceOnUse">
<stop stop-color="#010101" stop-opacity="0"/>
<stop offset="0.95" stop-color="#010101"/>
</linearGradient>
<linearGradient id="paint1_linear" x1="8295.67" y1="6462.73" x2="8713.04" y2="14226.1" gradientUnits="userSpaceOnUse">
<stop stop-color="#010101" stop-opacity="0.6"/>
<stop offset="0.95" stop-color="#010101"/>
</linearGradient>
<linearGradient id="paint2_linear" x1="314.183" y1="401.552" x2="314.183" y2="373.788" gradientUnits="userSpaceOnUse">
<stop stop-color="#0B2027"/>
<stop offset="1" stop-color="#0B2027" stop-opacity="0.37"/>
</linearGradient>
<linearGradient id="paint3_linear" x1="2963.18" y1="4070.15" x2="4020.72" y2="4070.15" gradientUnits="userSpaceOnUse">
<stop stop-color="#010101" stop-opacity="0.49"/>
<stop offset="0.95" stop-color="#010101"/>
</linearGradient>
<linearGradient id="paint4_linear" x1="101.129" y1="53.548" x2="101.129" y2="65.4246" gradientUnits="userSpaceOnUse">
<stop stop-color="#F8F0DC"/>
<stop offset="1" stop-color="#E7D5A9"/>
</linearGradient>
<linearGradient id="paint5_linear" x1="99.9792" y1="60.5265" x2="99.9792" y2="72.4105" gradientUnits="userSpaceOnUse">
<stop stop-color="#F8F0DC"/>
<stop offset="1" stop-color="#E7D5A9"/>
</linearGradient>
<linearGradient id="paint6_linear" x1="98.6769" y1="66.731" x2="98.6769" y2="78.6094" gradientUnits="userSpaceOnUse">
<stop stop-color="#F8F0DC"/>
<stop offset="1" stop-color="#E7D5A9"/>
</linearGradient>
<linearGradient id="paint7_linear" x1="97.2602" y1="72.9064" x2="97.2602" y2="84.7997" gradientUnits="userSpaceOnUse">
<stop stop-color="#F8F0DC"/>
<stop offset="1" stop-color="#E7D5A9"/>
</linearGradient>
<linearGradient id="paint8_linear" x1="124.957" y1="51.4469" x2="124.957" y2="102.648" gradientUnits="userSpaceOnUse">
<stop stop-color="#F8F0DC"/>
<stop offset="1" stop-color="#E7D5A9"/>
</linearGradient>
<linearGradient id="paint9_linear" x1="17504.6" y1="6582.82" x2="19249.6" y2="6582.82" gradientUnits="userSpaceOnUse">
<stop stop-color="#010101" stop-opacity="0.51"/>
<stop offset="0.95" stop-color="#010101"/>
</linearGradient>
<linearGradient id="paint10_linear" x1="462.401" y1="49.2999" x2="462.401" y2="59.7707" gradientUnits="userSpaceOnUse">
<stop stop-color="#F8F0DC"/>
<stop offset="1" stop-color="#E7D5A9"/>
</linearGradient>
<linearGradient id="paint11_linear" x1="463.344" y1="55.4525" x2="463.344" y2="65.9231" gradientUnits="userSpaceOnUse">
<stop stop-color="#F8F0DC"/>
<stop offset="1" stop-color="#E7D5A9"/>
</linearGradient>
<linearGradient id="paint12_linear" x1="464.501" y1="60.9136" x2="464.501" y2="71.3782" gradientUnits="userSpaceOnUse">
<stop stop-color="#F8F0DC"/>
<stop offset="1" stop-color="#E7D5A9"/>
</linearGradient>
<linearGradient id="paint13_linear" x1="465.79" y1="66.3528" x2="465.79" y2="76.8225" gradientUnits="userSpaceOnUse">
<stop stop-color="#F8F0DC"/>
<stop offset="1" stop-color="#E7D5A9"/>
</linearGradient>
<linearGradient id="paint14_linear" x1="441.319" y1="47.4608" x2="441.319" y2="92.5798" gradientUnits="userSpaceOnUse">
<stop stop-color="#F8F0DC"/>
<stop offset="1" stop-color="#E7D5A9"/>
</linearGradient>
<linearGradient id="paint15_linear" x1="16185.8" y1="48149.4" x2="26338.6" y2="48149.4" gradientUnits="userSpaceOnUse">
<stop stop-color="#010101" stop-opacity="0"/>
<stop offset="0.95" stop-color="#010101"/>
</linearGradient>
<linearGradient id="paint16_linear" x1="7579.47" y1="9008.31" x2="2946.35" y2="15360.2" gradientUnits="userSpaceOnUse">
<stop stop-color="white" stop-opacity="0.17"/>
<stop offset="0.95" stop-color="white"/>
</linearGradient>
<linearGradient id="paint17_linear" x1="9363.55" y1="3073.22" x2="11912.5" y2="15348.9" gradientUnits="userSpaceOnUse">
<stop stop-color="#010101" stop-opacity="0.19"/>
<stop offset="0.95" stop-color="#010101"/>
</linearGradient>
<linearGradient id="paint18_linear" x1="28006" y1="5270.75" x2="18252.3" y2="8714.14" gradientUnits="userSpaceOnUse">
<stop stop-color="#010101" stop-opacity="0"/>
<stop offset="0.95" stop-color="#010101"/>
</linearGradient>
<linearGradient id="paint19_linear" x1="316.24" y1="194.349" x2="234.996" y2="171.722" gradientUnits="userSpaceOnUse">
<stop stop-color="#F8F0DC"/>
<stop offset="1" stop-color="#E7D5A9"/>
</linearGradient>
<linearGradient id="paint20_linear" x1="193.344" y1="150.132" x2="349.661" y2="194.358" gradientUnits="userSpaceOnUse">
<stop stop-color="#E7D5A9"/>
<stop offset="1" stop-color="#F8EEDC"/>
</linearGradient>
<linearGradient id="paint21_linear" x1="1181.88" y1="5417.4" x2="1496.93" y2="5417.4" gradientUnits="userSpaceOnUse">
<stop stop-color="#010101" stop-opacity="0.23"/>
<stop offset="0.95" stop-color="#010101"/>
</linearGradient>
<linearGradient id="paint22_linear" x1="27899.7" y1="49008.1" x2="-10779.2" y2="51282.2" gradientUnits="userSpaceOnUse">
<stop stop-color="#010101" stop-opacity="0"/>
<stop offset="0.95" stop-color="#010101"/>
</linearGradient>
<clipPath id="clip0">
<rect width="579" height="436" fill="white"/>
</clipPath>
</defs>
</svg>
