<svg width="33" height="25" viewBox="0 0 33 25" fill="none" xmlns="http://www.w3.org/2000/svg">
<path d="M9.6659 24.5188C8.87459 24.4157 7.82525 24.0273 7.09415 23.5676C6.68989 23.31 5.87708 22.5768 5.61474 22.228C5.318 21.8396 4.99976 21.261 4.85354 20.8488C4.5697 20.0442 4.5783 20.1473 4.5611 17.4245C4.5439 14.9355 4.5439 14.9355 4.79333 14.9355C4.93095 14.9355 5.16748 14.9554 5.3223 14.9791C5.60184 15.0188 5.95879 15.0663 6.48346 15.1377C6.63828 15.1575 6.95653 15.1892 7.19306 15.213C7.42959 15.2368 7.79944 15.2724 8.01017 15.2922C9.77771 15.4746 10.9905 15.5419 14.074 15.6291C16.0179 15.6846 16.706 15.6886 18.3101 15.6529C21.213 15.5855 23.316 15.4746 25.0835 15.2962C25.2985 15.2724 25.6641 15.2368 25.9006 15.213C26.1372 15.1932 26.4554 15.1575 26.6102 15.1377C26.765 15.1179 27.036 15.0822 27.2123 15.0584C27.3886 15.0346 27.6596 14.999 27.8144 14.9752C27.9692 14.9554 28.1971 14.9355 28.3219 14.9355C28.5455 14.9355 28.5455 14.9355 28.5455 17.266C28.5455 19.7113 28.5326 19.8857 28.3391 20.5634C27.8531 22.2478 26.3436 23.6865 24.4384 24.281C23.7632 24.491 23.4751 24.5346 22.5075 24.5545C21.3076 24.5822 20.8732 24.5307 20.0131 24.2532C19.5271 24.0987 19.1487 23.9283 18.7616 23.7023C18.3187 23.4368 17.6435 23.1316 17.2779 23.0207C16.8264 22.8859 16.2673 22.8859 15.8157 23.0207C15.4588 23.1277 14.775 23.4408 14.3664 23.6825C13.6568 24.1066 12.7795 24.4078 11.9151 24.5267C11.5496 24.5743 10.0616 24.5703 9.6659 24.5188ZM22.8902 20.3851C23.7503 20.2701 23.9224 20.1552 24.3653 19.8936C24.6405 19.7272 25.0061 19.3744 25.0448 19.2357C25.1179 18.9623 24.4513 18.4153 23.7073 18.1419C23.1052 17.9199 21.9871 17.8644 21.3205 18.019C20.4905 18.2172 19.9529 18.5025 19.5831 18.9464C19.4411 19.1208 19.4411 19.204 19.5917 19.4061C19.7508 19.6281 20.069 19.854 20.469 20.0442C20.8345 20.2186 21.1743 20.3058 21.7506 20.3851C22.2451 20.4485 22.5376 20.4366 22.8902 20.3851ZM11.6098 20.072C12.1258 19.9491 12.5387 19.7945 12.8139 19.6281C13.1279 19.4339 13.4375 19.1366 13.4805 18.9821C13.5665 18.6769 12.7967 18.0824 12.0312 17.8565C11.6184 17.7336 11.2614 17.69 10.698 17.69C9.88953 17.69 9.45087 17.7812 8.84019 18.0745C8.44023 18.2647 8.15639 18.4867 8.00587 18.7284C7.90696 18.879 7.89836 18.9187 7.94136 19.0058C8.07038 19.2674 8.44453 19.5766 8.88319 19.7866C9.21004 19.9412 9.79062 20.0918 10.268 20.1433C10.5389 20.1711 11.3775 20.1275 11.6098 20.072Z" fill="white"/>
<path d="M13.0055 14.1421C11.8146 14.0981 10.927 14.0474 10.2575 13.9932C9.344 13.9188 7.72036 13.7531 7.1249 13.6719C6.78094 13.6245 6.33711 13.5637 6.14479 13.5366C5.95247 13.5095 5.57892 13.4486 5.31263 13.3979C5.05003 13.3506 4.75785 13.2964 4.66539 13.2829C4.07733 13.1848 3.21927 12.9751 2.33533 12.718C2.00986 12.6233 1.28495 12.346 1.15181 12.2682C1.10003 12.2377 0.996469 12.1836 0.918801 12.1498C0.744971 12.0686 0.32704 11.7675 0.230878 11.6559C-0.0243186 11.3583 -0.0687007 11.0471 0.101431 10.7663C0.216084 10.5803 0.57484 10.2759 0.859625 10.1203C1.80274 9.6129 3.70378 9.08523 5.66399 8.78419C5.79713 8.76389 5.98945 8.73345 6.08931 8.71654C6.19287 8.70301 6.39999 8.66918 6.55533 8.6455C6.84011 8.60153 6.84011 8.60153 6.88449 8.41549C6.90668 8.31064 6.95846 8.09754 6.99545 7.93856C7.03243 7.77959 7.08421 7.56649 7.1064 7.46501C7.13229 7.36354 7.16558 7.235 7.18407 7.1775C7.20257 7.12338 7.28393 6.86293 7.3653 6.60248C7.62419 5.76362 8.19007 4.26179 8.54512 3.47705C8.608 3.33837 8.65978 3.21322 8.65978 3.19969C8.65978 3.18277 8.68937 3.10498 8.73005 3.0238C8.89278 2.68555 8.99264 2.46568 8.99264 2.44539C8.99264 2.43186 9.02593 2.35744 9.06291 2.27965C9.0999 2.20185 9.17757 2.03949 9.23305 1.9211C9.45865 1.42726 9.93946 0.933412 10.3796 0.737228C10.853 0.527513 11.0194 0.49707 11.6741 0.49707C12.5025 0.49707 12.8095 0.561338 13.8895 0.960472C14.5478 1.20063 15.0989 1.37314 15.576 1.48476C15.8349 1.54564 15.9976 1.55917 16.5006 1.56256C16.8668 1.56256 17.17 1.54564 17.2588 1.52197C17.3402 1.50167 17.5732 1.44079 17.7766 1.39005C18.1243 1.30549 18.4941 1.18372 19.4039 0.852232C20.1769 0.571485 20.5727 0.49707 21.3346 0.49707C21.8967 0.49707 21.9485 0.503835 22.2703 0.598545C22.4552 0.652665 22.6845 0.747375 22.7807 0.80826C23.1912 1.06871 23.587 1.5152 23.783 1.95154C23.8311 2.05302 23.905 2.21538 23.9494 2.30671C23.9975 2.40142 24.053 2.52995 24.0789 2.59422C24.1084 2.65849 24.1602 2.78026 24.2046 2.86482C24.2453 2.94938 24.3193 3.12527 24.3673 3.2538C24.4191 3.38572 24.5005 3.58191 24.5523 3.69353C24.911 4.4715 25.6729 6.60586 25.8911 7.44134C25.9836 7.79988 26.0058 7.90136 26.065 8.17534C26.0982 8.33431 26.1389 8.49329 26.1537 8.5305C26.187 8.6083 26.1426 8.60153 27.4482 8.80448C29.4639 9.11905 31.3094 9.64672 32.1897 10.1575C33.3954 10.8543 33.2512 11.6187 31.7865 12.2918C31.4241 12.461 30.7916 12.6944 30.481 12.7755C30.3885 12.7992 30.2221 12.8466 30.1111 12.8804C29.9299 12.9345 29.5674 13.0225 28.9091 13.1713C28.7871 13.1983 28.5725 13.2423 28.4283 13.266C28.2878 13.2897 27.9549 13.3506 27.6886 13.3979C27.426 13.4486 27.0414 13.5095 26.8379 13.5366C26.6345 13.5637 26.3682 13.6009 26.2462 13.6178C25.0922 13.7835 24.3341 13.8613 22.2888 14.0271C20.2879 14.1894 15.6684 14.2469 13.0055 14.1421Z" fill="white"/>
</svg>
