<svg width="331" height="377" viewBox="0 0 331 377" fill="none" xmlns="http://www.w3.org/2000/svg">
<path opacity="0.24" d="M11.1852 203.11C6.15527 193.999 1.74027 184.262 0.854816 173.892C-1.60479 145.073 22.6162 121.722 33.8935 95.0777C38.5421 84.0933 41.0263 72.2734 45.8287 61.3565C60.0882 28.95 93.8709 8.044 128.779 2.01117C138.273 0.37088 148.394 -0.249605 157.212 3.63303C168.01 8.39417 174.915 18.9916 184.2 26.2469C211.987 48.056 253.192 36.3037 286.661 47.669C313.397 56.7428 334.623 84.6769 329.513 112.427C324.514 139.673 297.256 159.682 295.349 187.315C294.489 199.817 299.07 212.042 299.998 224.538C301.843 249.308 287.792 274.527 265.797 286.095C254.729 291.906 242.283 294.382 230.028 296.784C208.605 300.98 184.145 309.728 162.211 308.709C141.919 307.763 119.826 298.425 101.889 289.455C65.0812 271.062 29.8044 240.382 11.1852 203.11Z" fill="black" fill-opacity="0.15"/>
<path d="M147.611 365.472C146.547 366.249 145.658 367.239 144.999 368.379C144.676 368.951 144.533 369.607 144.588 370.261C144.642 370.916 144.893 371.539 145.307 372.05C146.278 373.05 147.863 373.034 149.252 372.892C154.483 372.36 159.616 371.109 164.504 369.174C165.972 368.591 167.534 367.851 168.26 366.441C168.643 365.55 168.836 364.59 168.828 363.621L169.096 359.28C169.16 358.264 169.025 356.957 168.047 356.673C167.788 356.613 167.521 356.6 167.258 356.634C164.102 356.807 159.51 356.169 156.732 357.792C153.426 359.737 150.625 363.062 147.611 365.472Z" fill="#AAAAAA"/>
<path d="M204.445 368.6C205.394 369.512 206.146 370.608 206.654 371.821C206.896 372.432 206.951 373.1 206.81 373.742C206.669 374.383 206.341 374.968 205.865 375.421C204.769 376.288 203.198 376.059 201.849 375.736C196.735 374.518 191.815 372.599 187.228 370.033C185.848 369.246 184.396 368.324 183.867 366.835C183.608 365.9 183.543 364.921 183.678 363.96L183.986 359.619C184.057 358.603 184.364 357.327 185.366 357.177C185.631 357.15 185.898 357.168 186.155 357.233C189.233 357.823 193.896 357.8 196.413 359.777C199.435 362.148 201.778 365.811 204.445 368.6Z" fill="#AAAAAA"/>
<path d="M152.953 226.225L154.918 277.987L156.89 357.272C156.89 357.272 160.362 359.777 168.876 357.681L176.577 276.017L180.522 239.325L190.361 279.294L185.114 357.894C185.114 357.894 189.706 361.833 197.581 361.833L212.02 279.271L201.518 219.017L152.953 226.225Z" fill="#606161"/>
<path d="M152.953 226.225L154.918 277.987L156.89 357.272C156.89 357.272 160.338 358.335 168.876 357.681L176.577 276.017L180.522 239.325L190.361 279.294L185.114 357.894C185.114 357.894 189.706 361.833 197.581 361.833L212.02 279.271L201.518 219.017L152.953 226.225Z" fill="url(#paint0_linear)"/>
<path d="M214.379 190.769C215.357 190.888 216.348 190.778 217.275 190.446C218.26 189.986 219.151 189.348 219.903 188.564C221.475 187.203 222.91 185.691 224.187 184.05C225.232 182.552 226.108 180.943 226.799 179.253C229.131 173.869 230.606 168.155 231.17 162.316C231.415 159.851 231.47 157.267 230.42 155.03C230.285 154.693 230.068 154.395 229.789 154.163C229.555 154.021 229.294 153.93 229.022 153.894C228.75 153.859 228.474 153.881 228.211 153.959C225.497 154.51 223.934 157.275 222.569 159.685C219.962 164.281 216.821 168.553 213.212 172.415C211.394 174.211 209.696 176.124 208.13 178.142C206.465 180.505 204.548 183.861 206.552 186.429C207.491 187.648 208.67 188.661 210.016 189.408C211.362 190.154 212.847 190.618 214.379 190.769Z" fill="#70A9A1"/>
<path d="M156.236 131.862C156.236 131.862 143.264 138.952 141.797 140.386C140.479 141.693 151.636 222.31 152.299 226.248C152.961 230.187 174.612 228.864 183.797 226.248C189.917 224.406 195.851 221.993 201.518 219.041C201.518 219.041 196.926 135.163 194.962 133.855C192.997 132.548 174.612 128.609 174.612 128.609L156.236 131.862Z" fill="#40798C"/>
<path d="M194.961 133.832C194.961 133.832 198.906 135.139 200.863 137.77C202.82 140.401 218.585 171.84 216.644 178.394C214.702 184.948 208.106 186.917 206.142 185.601C204.177 184.286 200.208 175.14 199.593 172.494C198.977 169.847 197.667 161.237 197.667 161.237L194.961 133.832Z" fill="#40798C"/>
<path d="M214.379 190.769C215.357 190.888 216.348 190.778 217.275 190.446C218.26 189.986 219.151 189.348 219.903 188.564C221.475 187.203 222.91 185.691 224.187 184.05C225.232 182.552 226.108 180.943 226.799 179.253C229.131 173.869 230.606 168.155 231.17 162.316C231.415 159.851 231.47 157.267 230.42 155.03C230.285 154.693 230.068 154.395 229.789 154.163C229.555 154.021 229.294 153.93 229.022 153.894C228.75 153.859 228.474 153.881 228.211 153.959C225.497 154.51 223.934 157.275 222.569 159.685C219.962 164.281 216.821 168.553 213.212 172.415C211.394 174.211 209.696 176.124 208.13 178.142C206.465 180.505 204.548 183.861 206.552 186.429C207.491 187.648 208.67 188.661 210.016 189.408C211.362 190.154 212.847 190.618 214.379 190.769Z" fill="url(#paint1_linear)"/>
<path d="M142.412 139.889C142.412 139.889 133.259 144.316 131.294 150.87C129.33 157.424 115.514 190.178 120.137 194.771C120.532 195.165 121.124 195.81 121.842 196.598C122.807 197.668 124.043 198.459 125.419 198.891C126.795 199.322 128.262 199.377 129.667 199.051C131.072 198.724 132.363 198.028 133.407 197.034C134.451 196.04 135.209 194.785 135.602 193.4L144.053 163.695C144.053 163.695 146.309 144.639 142.412 139.889Z" fill="#40798C"/>
<path d="M132.43 196.283C132.266 196.707 131.97 197.066 131.586 197.307C131.047 197.718 130.458 198.059 129.834 198.323V198.363C127.947 199.271 125.836 199.613 123.758 199.348C119.703 198.804 115.931 194.385 113.367 190.257C112.933 189.556 112.964 187.949 112.672 187.185C112.434 186.519 112.359 185.806 112.452 185.105C112.641 181.049 112.27 174.581 112.641 170.233C112.644 169.917 112.668 169.601 112.712 169.288C112.783 168.665 112.964 167.933 113.501 167.823C113.863 167.78 114.229 167.872 114.527 168.082C118.401 170.343 122.717 180.789 125.139 184.625C127.333 188.028 131.207 191.163 132.383 195.078C132.527 195.464 132.543 195.887 132.43 196.283Z" fill="#40798C"/>
<path d="M129.944 198.032C129.905 198.142 129.865 198.252 129.834 198.323V198.363C127.947 199.271 125.836 199.613 123.758 199.347C119.703 198.804 115.931 194.385 113.367 190.257C112.933 189.556 112.964 187.949 112.672 187.185C112.434 186.519 112.359 185.806 112.452 185.105C112.641 181.048 112.27 174.581 112.641 170.233C116.373 173.124 120.358 182.726 122.662 186.381C124.855 189.776 128.737 192.92 129.905 196.827C130.042 197.215 130.056 197.636 129.944 198.032Z" fill="url(#paint2_linear)" fill-opacity="0.1"/>
<path d="M154.918 124.001C154.918 124.001 156.891 132.516 156.236 135.817C155.581 139.117 160.828 148.271 167.393 148.271C173.957 148.271 173.957 137.132 173.957 135.817C173.957 134.501 171.196 131.752 171.851 128.475C172.505 125.198 155.581 120.07 154.918 124.001Z" fill="#F5E0CD"/>
<path d="M158.563 134.115C159.204 135.054 159.983 135.891 160.875 136.597C162.443 137.727 164.338 138.316 166.272 138.275C167.68 138.338 169.058 137.852 170.114 136.92C170.767 136.118 171.148 135.131 171.203 134.1C171.447 132.38 171.574 130.645 171.582 128.908C171.582 128.121 171.424 127.081 170.501 126.774C170.005 126.656 169.489 126.656 168.994 126.774C166.044 127.246 163.051 127.388 160.07 127.199C158.018 127.065 155.273 126.474 155.754 128.704C156.317 130.677 157.272 132.518 158.563 134.115Z" fill="url(#paint3_linear)" fill-opacity="0.1"/>
<path d="M156.362 134.572C156.362 134.572 161.649 146.932 166.162 148.247C166.162 148.247 167.393 148.901 164.11 150.87C160.828 152.84 151.636 142.993 152.953 135.793C153.092 134.874 153.465 134.007 154.037 133.274C154.61 132.541 155.361 131.968 156.22 131.61L156.362 134.572Z" fill="white"/>
<path d="M171.653 129.799C171.653 129.799 174.099 140.953 170.414 147.223C170.414 147.223 171.992 149.586 173.302 149.586C174.612 149.586 177.894 141.709 176.576 135.825C175.811 132.351 172.308 128.861 171.653 129.799Z" fill="white"/>
<path d="M173.878 103.709C173.878 103.709 175.188 120.748 173.878 125.34C172.568 129.932 168.623 133.855 164.686 133.855C160.748 133.855 154.839 130.578 152.219 124.678C149.599 118.778 148.274 104.371 148.937 102.401C149.599 100.432 153.552 94.2404 164.031 95.1935C171.25 95.8473 173.878 101.094 173.878 103.709Z" fill="#F5E0CD"/>
<path d="M176.529 114.123C176.447 114.588 176.312 115.043 176.127 115.478C176.025 115.82 175.856 116.139 175.63 116.415C175.295 116.727 174.884 116.947 174.438 117.053C174.256 117.128 174.056 117.15 173.862 117.116C172.576 116.762 172.734 113.548 173.381 112.673C173.736 112.201 175.022 111.177 175.59 111.358C176.435 111.618 176.632 113.445 176.529 114.123Z" fill="#F5E0CD"/>
<path d="M149.616 115.785C149.448 115.623 149.237 115.513 149.008 115.47C148.835 115.463 148.664 115.51 148.519 115.604C148.303 115.75 148.123 115.944 147.995 116.171C147.866 116.398 147.792 116.651 147.777 116.911C147.743 117.445 147.812 117.98 147.982 118.487C148.298 119.621 148.811 120.85 149.876 121.354C149.994 121.429 150.131 121.469 150.27 121.469C150.41 121.469 150.547 121.429 150.665 121.354C150.773 121.252 150.849 121.121 150.886 120.976C151.291 120.052 151.5 119.054 151.501 118.046C151.375 117.14 150.294 116.344 149.616 115.785Z" fill="#F5E0CD"/>
<path d="M223.236 54.5152H112.977C110.86 54.5193 108.831 55.3619 107.335 56.8579C105.84 58.354 105 60.3812 105 62.4949V265.942C104.999 266.988 105.205 268.024 105.605 268.991C106.006 269.958 106.593 270.836 107.334 271.576C108.075 272.316 108.955 272.902 109.923 273.302C110.891 273.702 111.929 273.907 112.977 273.906H223.236C224.287 273.91 225.328 273.707 226.3 273.309C227.272 272.911 228.156 272.325 228.9 271.585C229.645 270.845 230.236 269.966 230.64 268.998C231.044 268.029 231.252 266.991 231.253 265.942V62.4949C231.252 61.4453 231.044 60.4061 230.64 59.4369C230.237 58.4677 229.646 57.5874 228.901 56.8463C228.157 56.1052 227.273 55.5179 226.301 55.1179C225.329 54.7179 224.288 54.5131 223.236 54.5152ZM220.167 249.25H114.587V63.6056H220.183L220.167 249.25Z" fill="#939393"/>
<path d="M172.947 268.266C177.143 268.266 180.545 264.87 180.545 260.68C180.545 256.491 177.143 253.094 172.947 253.094C168.751 253.094 165.349 256.491 165.349 260.68C165.349 264.87 168.751 268.266 172.947 268.266Z" fill="url(#paint4_linear)"/>
<path d="M104.909 150.272C107.886 150.118 110.868 150.418 113.754 151.162C114.337 151.284 114.893 151.511 115.395 151.831C115.644 151.993 115.852 152.21 116.001 152.466C116.15 152.722 116.237 153.009 116.255 153.304C116.255 154.171 115.506 154.817 114.819 155.337C115.446 155.769 115.953 156.351 116.295 157.03C116.446 157.375 116.468 157.762 116.358 158.122C116.248 158.482 116.013 158.79 115.695 158.992C115.506 159.079 115.261 159.142 115.206 159.339C115.151 159.535 115.324 159.717 115.458 159.866C115.709 160.136 115.884 160.467 115.965 160.825C116.046 161.184 116.031 161.557 115.922 161.908C115.812 162.259 115.611 162.575 115.34 162.824C115.069 163.072 114.737 163.245 114.377 163.324C114.525 163.336 114.668 163.379 114.798 163.45C114.927 163.52 115.04 163.618 115.13 163.735C115.219 163.853 115.283 163.988 115.316 164.131C115.35 164.275 115.352 164.424 115.324 164.569C115.247 164.858 115.093 165.122 114.879 165.332C114.666 165.543 114.4 165.693 114.109 165.766C113.527 165.912 112.923 165.952 112.326 165.885C110.259 165.774 108.112 165.711 106.187 166.483C105.514 166.862 104.758 167.07 103.986 167.09C103.632 167.03 103.298 166.887 103.01 166.673C102.722 166.46 102.489 166.181 102.329 165.861C102.017 165.214 101.848 164.507 101.832 163.789C101.658 160.78 102.621 157.747 102.124 154.77C101.698 152.296 101.887 150.421 104.909 150.272Z" fill="#F5E0CD"/>
<path d="M224.605 141.268C222.916 141.528 221.141 141.811 219.776 142.843C218.411 143.875 217.645 145.908 218.568 147.341C218.852 147.783 219.286 148.176 219.318 148.696C219.297 149.096 219.175 149.483 218.963 149.823C218.601 150.627 218.455 151.511 218.541 152.389C218.627 153.266 218.941 154.106 219.452 154.825C218.884 156.487 218.529 158.606 219.847 159.764C220.991 160.764 222.742 160.449 224.218 160.079L228.163 159.086C229.003 158.968 229.778 158.571 230.364 157.96C230.614 157.585 230.788 157.165 230.877 156.723C231.974 152.666 232.637 147.995 232.006 143.797C231.374 139.598 227.997 140.74 224.605 141.268Z" fill="#F5E0CD"/>
<path d="M152.338 89.4352C155.163 86.9224 158.65 85.0869 160.804 81.9675L161.152 85.3705L165.026 82.2196C164.872 83.0169 164.968 83.8423 165.302 84.5828C165.771 83.7464 166.469 83.0606 167.314 82.6056C167.275 83.5836 167.456 84.5579 167.843 85.4572C168.812 84.5138 169.663 83.4556 170.375 82.3063C170.235 82.7882 170.191 83.293 170.247 83.7918C170.302 84.2906 170.456 84.7736 170.699 85.213C171.107 85.0042 171.464 84.7094 171.746 84.3489C172.028 83.9884 172.228 83.5709 172.332 83.1255C173.366 86.8121 175.433 90.1599 176.277 93.8938C176.964 96.9029 176.822 100.038 176.68 103.126C176.525 106.417 175.676 109.639 174.186 112.579C173.287 109.648 172.884 107.403 171.677 104.583C171.164 103.124 170.359 101.784 169.31 100.645C166.943 98.3681 163.179 98.4311 159.842 98.6989C156.804 98.9431 153.466 99.3921 151.47 101.684C149.837 103.567 149.529 106.253 149.687 108.735C149.845 111.216 150.397 113.689 150.176 116.171C148.03 113.65 145.947 110.909 145.253 107.679C144.889 106.046 144.985 104.345 145.529 102.764C146.113 101.141 147.77 100.322 148.346 98.9353C148.922 97.5489 148.346 95.7449 148.858 94.2089C149.611 92.3579 150.805 90.719 152.338 89.4352Z" fill="#606161"/>
<path d="M152.338 89.4352C155.163 86.9224 158.65 85.0869 160.804 81.9675L161.152 85.3705L165.026 82.2196C164.872 83.0169 164.968 83.8423 165.302 84.5828C165.771 83.7464 166.469 83.0606 167.314 82.6056C167.275 83.5836 167.456 84.5579 167.843 85.4572C168.812 84.5138 169.663 83.4556 170.375 82.3063C170.235 82.7882 170.191 83.293 170.247 83.7918C170.302 84.2906 170.456 84.7736 170.699 85.213C171.107 85.0042 171.464 84.7094 171.746 84.3489C172.028 83.9884 172.228 83.5709 172.332 83.1255C173.366 86.8121 175.433 90.1599 176.277 93.8938C176.964 96.9029 176.822 100.038 176.68 103.126C176.525 106.417 175.676 109.639 174.186 112.579C173.287 109.648 172.884 107.403 171.677 104.583C171.164 103.124 170.359 101.784 169.31 100.645C166.943 98.3681 163.179 98.4311 159.842 98.6989C156.804 98.9431 153.466 99.3921 151.47 101.684C149.837 103.567 149.529 106.253 149.687 108.735C149.845 111.216 150.397 113.689 150.176 116.171C148.03 113.65 145.947 110.909 145.253 107.679C144.889 106.046 144.985 104.345 145.529 102.764C146.113 101.141 147.77 100.322 148.346 98.9353C148.922 97.5489 148.346 95.7449 148.858 94.2089C149.611 92.3579 150.805 90.719 152.338 89.4352Z" fill="url(#paint5_linear)"/>
<path d="M59 78.1407C59 95.3626 77.1159 109.293 99.4648 109.293C103.217 109.303 106.958 108.891 110.616 108.065L128.274 117L121.239 104.368C132.507 98.8858 140 89.2086 140 78.1407C140 60.9305 121.884 47 99.5352 47C77.1863 47 59 60.9305 59 78.1407Z" fill="#FEFEFE"/>
<path d="M99.4648 108.793L99.4662 108.793C103.181 108.803 106.884 108.395 110.506 107.577L110.681 107.537L110.842 107.618L127.043 115.817L120.802 104.611L120.545 104.149L121.02 103.918C132.171 98.4935 139.5 88.9637 139.5 78.1407C139.5 61.3205 121.738 47.5 99.5352 47.5C88.4614 47.5 78.4368 50.9518 71.1912 56.5131C63.9461 62.0741 59.5 69.7234 59.5 78.1407C59.5 94.9726 77.2625 108.793 99.4648 108.793Z" stroke="black" stroke-opacity="0.15"/>
<path d="M176 260.345C176 264.488 172.642 267.845 168.5 267.845C164.358 267.845 161 264.488 161 260.345C161 256.203 164.358 252.845 168.5 252.845C172.642 252.845 176 256.203 176 260.345Z" fill="black" fill-opacity="0.1"/>
<path d="M95.2317 81.885L93.1386 82.4184L90.9782 73.9413L93.0713 73.4079L95.2317 81.885ZM93.4655 85.1585C93.3706 84.7864 93.4229 84.4326 93.6221 84.097C93.8331 83.7584 94.1304 83.5402 94.5141 83.4424C94.8862 83.3476 95.2444 83.3925 95.5887 83.5772C95.933 83.7619 96.1525 84.0403 96.2474 84.4124C96.3422 84.7845 96.2841 85.1399 96.0732 85.4784C95.8739 85.8141 95.5824 86.0308 95.1987 86.1285C95.0126 86.176 94.8235 86.187 94.6313 86.1617C94.4507 86.1334 94.2817 86.0774 94.1241 85.9937C93.9666 85.9101 93.8264 85.7972 93.7035 85.6551C93.5922 85.5101 93.5129 85.3446 93.4655 85.1585ZM100.486 80.7875L100.241 79.8281C100.176 79.5723 100.133 79.3542 100.112 79.1739C100.099 78.9789 100.11 78.8028 100.144 78.6455C100.187 78.4736 100.25 78.3088 100.334 78.1513C100.426 77.9791 100.536 77.7778 100.663 77.5473L101.659 75.8445C101.876 75.4797 101.925 75.0648 101.806 74.5996C101.691 74.1461 101.446 73.8184 101.073 73.6163C100.708 73.3997 100.299 73.3492 99.8454 73.4648C99.357 73.5892 98.9988 73.8601 98.7707 74.2773C98.5398 74.6829 98.4618 75.13 98.5367 75.6187L96.2597 76.0132C96.1872 75.4373 96.2066 74.906 96.3179 74.4195C96.4262 73.9213 96.6163 73.4766 96.8881 73.0853C97.1715 72.6911 97.5265 72.3592 97.9531 72.0895C98.3768 71.8081 98.8677 71.5963 99.4258 71.4541C99.9491 71.3207 100.451 71.2733 100.931 71.3119C101.423 71.3475 101.869 71.4691 102.269 71.6769C102.677 71.87 103.029 72.158 103.325 72.5408C103.618 72.912 103.834 73.3709 103.973 73.9174C104.071 74.3012 104.104 74.6517 104.074 74.9691C104.043 75.2865 103.972 75.5895 103.86 75.8781C103.748 76.1668 103.603 76.4512 103.427 76.7314C103.262 77.0087 103.083 77.302 102.89 77.6114C102.765 77.804 102.66 77.9733 102.573 78.1192C102.487 78.2652 102.419 78.4124 102.37 78.5611C102.33 78.6952 102.313 78.848 102.32 79.0197C102.323 79.1798 102.353 79.3703 102.41 79.5912L102.579 80.254L100.486 80.7875ZM100.755 83.3009C100.66 82.9288 100.712 82.5749 100.911 82.2393C101.122 81.9007 101.42 81.6825 101.803 81.5847C102.175 81.4899 102.534 81.5348 102.878 81.7195C103.222 81.9042 103.442 82.1826 103.537 82.5548C103.631 82.9269 103.573 83.2822 103.362 83.6208C103.163 83.9564 102.872 84.1731 102.488 84.2709C102.302 84.3183 102.113 84.3294 101.92 84.304C101.74 84.2758 101.571 84.2198 101.413 84.1361C101.256 84.0524 101.116 83.9395 100.993 83.7975C100.881 83.6525 100.802 83.4869 100.755 83.3009Z" fill="#D86B7F"/>
<defs>
<linearGradient id="paint0_linear" x1="19954.5" y1="60681.5" x2="27843.5" y2="56095.1" gradientUnits="userSpaceOnUse">
<stop stop-color="#010101" stop-opacity="0"/>
<stop offset="0.95" stop-color="#010101"/>
</linearGradient>
<linearGradient id="paint1_linear" x1="10439.7" y1="9054.42" x2="11761.4" y2="8969.08" gradientUnits="userSpaceOnUse">
<stop stop-color="#40798C"/>
<stop offset="0.95" stop-color="#010101"/>
</linearGradient>
<linearGradient id="paint2_linear" x1="5449.78" y1="7697.35" x2="4116.42" y2="7593.3" gradientUnits="userSpaceOnUse">
<stop stop-color="#010101" stop-opacity="0"/>
<stop offset="0.95" stop-color="#010101"/>
</linearGradient>
<linearGradient id="paint3_linear" x1="5552.14" y1="2375.55" x2="5613.48" y2="1994.63" gradientUnits="userSpaceOnUse">
<stop stop-color="#010101" stop-opacity="0"/>
<stop offset="0.95" stop-color="#010101"/>
</linearGradient>
<linearGradient id="paint4_linear" x1="4537" y1="4719.49" x2="4467.78" y2="7314.46" gradientUnits="userSpaceOnUse">
<stop stop-color="#010101" stop-opacity="0"/>
<stop offset="0.95" stop-color="#010101"/>
</linearGradient>
<linearGradient id="paint5_linear" x1="10241" y1="5091.72" x2="11519.4" y2="5091.72" gradientUnits="userSpaceOnUse">
<stop stop-color="#010101" stop-opacity="0.65"/>
<stop offset="0.95" stop-color="#010101"/>
</linearGradient>
</defs>
</svg>
