<svg xmlns:dc="http://purl.org/dc/elements/1.1/" xmlns:cc="http://creativecommons.org/ns#" xmlns:rdf="http://www.w3.org/1999/02/22-rdf-syntax-ns#" xmlns:svg="http://www.w3.org/2000/svg" xmlns="http://www.w3.org/2000/svg" xmlns:sodipodi="http://sodipodi.sourceforge.net/DTD/sodipodi-0.dtd" xmlns:inkscape="http://www.inkscape.org/namespaces/inkscape" viewBox="0 0 32 40.00000125" version="1.1" x="0px" y="0px"><g transform="translate(0,-1020.3621)"><path style="color:#000000;font-style:normal;font-variant:normal;font-weight:normal;font-stretch:normal;font-size:medium;line-height:normal;font-family:sans-serif;text-indent:0;text-align:start;text-decoration:none;text-decoration-line:none;text-decoration-style:solid;text-decoration-color:#000000;letter-spacing:normal;word-spacing:normal;text-transform:none;direction:ltr;block-progression:tb;writing-mode:lr-tb;baseline-shift:baseline;text-anchor:start;white-space:normal;clip-rule:nonzero;display:inline;overflow:visible;visibility:visible;opacity:1;isolation:auto;mix-blend-mode:normal;color-interpolation:sRGB;color-interpolation-filters:linearRGB;solid-color:#000000;solid-opacity:1;fill:#000000;fill-opacity:1;fill-rule:nonzero;stroke:none;stroke-width:1;stroke-linecap:round;stroke-linejoin:round;stroke-miterlimit:4;stroke-dasharray:none;stroke-dashoffset:0;stroke-opacity:1;color-rendering:auto;image-rendering:auto;shape-rendering:auto;text-rendering:auto;enable-background:accumulate" d="m 17.9961,1021.8361 c 1.8665,0.9596 2.8884,2.9069 2.3691,4.9043 -0.206,0.6663 0.8214,0.934 0.9668,0.252 0.035,-0.1359 0.058,-0.2725 0.082,-0.4083 2.5654,4.9263 2.7623,11.3339 0.3848,16.7735 l -1.7969,0 c -0.021,0 -0.042,0 -0.062,0 l -8.8203,0 c -0.04,-0.01 -0.082,-0.016 -0.123,-0.016 l -1.2911,0.01 c -0.2331,-1.3739 -0.1081,-2.8584 0.4844,-4.1094 0.6478,-1.3678 1.7646,-2.4444 3.4199,-2.8613 1.8474,-0.4652 2.8544,-0.9829 3.5235,-1.586 0.6524,-0.5881 0.935,-1.1912 1.3711,-1.7676 l 0.6772,-0.5527 c 0.01,-0.01 0.019,-0.01 0.027,-0.018 0.4705,-0.4394 -0.1561,-1.1593 -0.6562,-0.7539 l -0.025,0.023 c -1.5048,1.3973 -4.3092,1.6916 -6.2715,0.6114 -0.4031,-0.2228 -0.8674,0.1716 -0.7129,0.6054 -0.8517,0.4294 -1.8727,0.5272 -2.7285,0.055 0.7052,-0.3711 1.381,-0.77 1.9942,-1.2187 0.3935,-0.2783 0.2044,-0.8973 -0.2774,-0.9082 -0.1126,0 -0.2227,0.033 -0.3125,0.1015 -0.6718,0.4916 -1.4202,0.9326 -2.2187,1.3282 -0.4473,-0.5733 -0.619,-1.2956 -0.4356,-2.0059 0.2694,-1.043 1.2513,-1.8354 2.4766,-1.9277 0.018,0 0.035,-0.01 0.053,-0.012 1.9145,-0.3492 3.4355,-1.5029 4.1641,-3.0527 1.2005,-0.049 2.3473,-0.4661 3.2363,-1.2148 -0.01,0.2458 -0.029,0.4717 -0.076,0.6328 -0.2197,0.6565 0.7893,0.9524 0.959,0.2812 0.2004,-0.684 0.167,-1.5457 -0.037,-2.414 -0.075,-0.3198 -0.2365,-0.4808 -0.3437,-0.7559 z m 4.7187,5.1172 c 2.521,4.1735 3.7561,10.181 2.8516,15.4101 l -2.2774,0.01 c 1.7938,-5.0867 1.5626,-10.762 -0.5742,-15.4179 z m -7.4023,0.416 c -0.6667,0.034 -0.616,1.0338 0.051,1 l 1,0 c 0.6762,0.01 0.6762,-1.0096 0,-1 l -1,0 c -0.017,-9e-4 -0.034,-9e-4 -0.051,0 z m -3.8125,16.9922 8.0019,0 0,1.0059 -8.0019,0 z m -1.3809,2.0059 9.8242,0 c 0.038,0 0.077,0 0.1153,0 l 0.8925,0 c 0.5627,0 1,0.4374 1,1 0,0.5591 -0.4325,0.9926 -0.9902,0.998 l -10.8516,0 c -0.5575,-0.01 -0.9902,-0.4389 -0.9902,-0.998 0,-0.5626 0.4374,-1 1,-1 z m -1.9922,3 1.9922,0 10.832,0 1.9239,0 c 0.6741,0 1.125,0.4306 1.125,0.8789 l 0,0.2363 c 0,0.016 -10e-5,0.017 0,0.016 l 0,0.01 -0.01,0.5 0.01,0 0,0.3535 -1.125,0 -14.7481,0 -1.1269,0 0,-0.3535 0,-0.5 0,-0.025 0,-0.2363 c 0,-0.4483 0.4527,-0.8789 1.1269,-0.8789 z"/></g><text x="0" y="47.000001" fill="#000000" font-size="5px" font-weight="bold" font-family="'Helvetica Neue', Helvetica, Arial-Unicode, Arial, Sans-serif">Created by Chameleon Design</text><text x="0" y="52.000001" fill="#000000" font-size="5px" font-weight="bold" font-family="'Helvetica Neue', Helvetica, Arial-Unicode, Arial, Sans-serif">from the Noun Project</text></svg>