<svg xmlns:dc="http://purl.org/dc/elements/1.1/" xmlns:cc="http://creativecommons.org/ns#" xmlns:rdf="http://www.w3.org/1999/02/22-rdf-syntax-ns#" xmlns:svg="http://www.w3.org/2000/svg" xmlns="http://www.w3.org/2000/svg" xmlns:sodipodi="http://sodipodi.sourceforge.net/DTD/sodipodi-0.dtd" xmlns:inkscape="http://www.inkscape.org/namespaces/inkscape" viewBox="0 0 46 57.50000125" version="1.1" x="0px" y="0px"><g transform="translate(0,-1006.3622)"><g transform="translate(0,1.7382813e-5)" style="" stroke="#000000"><g transform="translate(1.9865548,-161.55442)"><g transform="translate(83.013445,129.55438)"><g transform="translate(-64.000001,32.000054)"><path style="color:#000000;font-style:normal;font-variant:normal;font-weight:normal;font-stretch:normal;font-size:medium;line-height:normal;font-family:sans-serif;text-indent:0;text-align:start;text-decoration:none;text-decoration-line:none;text-decoration-style:solid;text-decoration-color:#000000;letter-spacing:normal;word-spacing:normal;text-transform:none;direction:ltr;block-progression:tb;writing-mode:lr-tb;baseline-shift:baseline;text-anchor:start;white-space:normal;clip-rule:nonzero;display:inline;overflow:visible;visibility:visible;opacity:1;isolation:auto;mix-blend-mode:normal;color-interpolation:sRGB;color-interpolation-filters:linearRGB;solid-color:#000000;solid-opacity:1;fill:#000000;fill-opacity:1;fill-rule:nonzero;stroke:none;stroke-width:1;stroke-linecap:round;stroke-linejoin:round;stroke-miterlimit:4;stroke-dasharray:none;stroke-dashoffset:0;stroke-opacity:1;color-rendering:auto;image-rendering:auto;shape-rendering:auto;text-rendering:auto;enable-background:accumulate" d="m 2.0000012,1006.3622 c 12.7084718,0 22.9999998,10.2916 22.9999998,23 0,12.7085 -10.291528,23 -22.9999998,23 -12.7084722,0 -23.0000002,-10.2915 -23.0000002,-23 0,-12.7084 10.291528,-23 23.0000002,-23 z m 0.996094,7 0,0 c -0.410184,0.026 -0.615298,0.5086 -0.34961,0.8222 0.210284,0.2479 0.536233,0.8847 0.710938,1.6075 -0.795107,1.0043 -2.038863,1.5996 -3.367188,1.582 -0.209014,0 -0.397538,0.1252 -0.472656,0.3203 -0.50338,1.31 -1.844265,2.3502 -3.570312,2.6777 -1.610435,0.1261 -2.975381,1.1872 -3.359375,2.6739 -0.384946,1.4902 0.329646,3.0432 1.716797,3.8203 1.380228,0.7732 3.118405,0.6378 4.351562,-0.332 1.317827,0.4833 2.74036,0.5407 4.068359,0.1835 -0.08602,0.1 -0.156428,0.2468 -0.259765,0.3399 -0.51102,0.4606 -1.338164,0.9158 -3.09961,1.3594 -1.953426,0.4919 -3.323963,1.8098 -4.078125,3.4023 -0.754162,1.5925 -0.920288,3.4586 -0.53125,5.1524 0.05202,0.2277 0.254726,0.389 0.488282,0.3886 l 1.255859,-0.01 0,0.012 0,1.0059 -0.380859,0 c -1.099351,0 -2,0.9007 -2,2 0,0.3648 0.106607,0.7028 0.279297,0.9981 l -0.271485,0 c -1.027932,0 -1.967094,0.693 -2.123047,1.6269 l -0.00391,0.012 0,0.2402 0,0.2363 0,1.877 2.126953,0 14.748047,0 2.1230468,0 0.002,-0.4961 c 0.0023,-0.3039 -0.0018,-1.2391 -0.002,-1.2754 l 0,-0.012 0,-0.012 c 0.0035,-0.1455 0.0014,-0.4961 0.002,-0.5644 0,-0.54 -0.295889,-1.0141 -0.703125,-1.2754 -0.4072378,-0.2613 -0.9024008,-0.3613 -1.4218748,-0.3613 l -0.203125,0 c 0.172688,-0.2954 0.279297,-0.6333 0.279297,-0.9981 0,-1.0993 -0.900648,-2 -2,-2 l -0.449219,0 0,-1.0097 1.660156,0 c 0.196,0 0.373911,-0.1145 0.455079,-0.293 0.104762,-0.2294 0.195089,-0.4647 0.291015,-0.6973 l 0.002,0 c 0.02778,0 0.05588,0.01 0.08398,0.01 l 3.0429678,-0.01 c 0.238305,0 0.442652,-0.1704 0.488282,-0.4043 1.413051,-7.2368 -1.070129,-15.8291 -5.7246098,-19.9375 -0.02006,-0.019 -0.04161,-0.036 -0.06445,-0.051 -0.749887,-1.2449 -2.007753,-2.2134 -3.591842,-2.5957 -0.048419,-0.013 -0.098455,-0.019 -0.148437,-0.017 z m 1.003906,1.4804 c 1.863952,0.9605 2.884138,2.9063 2.365234,4.9024 -0.206053,0.6663 0.821448,0.934 0.966797,0.2519 0.03515,-0.1352 0.05803,-0.271 0.08203,-0.4062 2.565382,4.9266 2.7613268,11.3332 0.382813,16.7734 l -1.794922,0 -0.0625,0 -8.830078,0 c -0.03712,-0.01 -0.07512,-0.014 -0.113281,-0.014 l -1.289063,0.01 c -0.233254,-1.3741 -0.110112,-2.8603 0.482422,-4.1114 0.64775,-1.3678 1.764572,-2.4444 3.419922,-2.8613 1.847326,-0.4652 2.856294,-0.9828 3.525391,-1.5859 0.650852,-0.5866 0.931019,-1.1886 1.365234,-1.7637 l 0.681641,-0.5567 -0.0039,0 c 0.008,-0.01 0.0194,-0.01 0.02734,-0.017 0.47134,-0.4394 -0.156074,-1.1602 -0.65625,-0.7539 l -0.03516,0.029 c -1.506443,1.3917 -4.306395,1.686 -6.265625,0.6074 -0.401966,-0.221 -0.86459,0.1706 -0.712891,0.6035 -0.850913,0.429 -1.871286,0.5272 -2.726562,0.057 0.70737,-0.372 1.385112,-0.7727 2,-1.2226 0.413508,-0.2937 0.177549,-0.9455 -0.328125,-0.9063 -0.09495,0.01 -0.185746,0.042 -0.261719,0.1 -0.673982,0.4931 -1.42499,0.9356 -2.226562,1.3321 -0.44792,-0.5734 -0.619117,-1.2972 -0.435547,-2.0078 0.2694,-1.043 1.251328,-1.8355 2.476562,-1.9278 0.01774,0 0.03534,-0.01 0.05273,-0.01 1.914571,-0.3492 3.437391,-1.5029 4.166015,-3.0527 1.203759,-0.049 2.352445,-0.4696 3.242188,-1.2227 -0.0066,0.2479 -0.02858,0.4745 -0.07617,0.6368 -0.220041,0.6567 0.789484,0.9528 0.958984,0.2812 0.200554,-0.6841 0.166984,-1.5458 -0.03711,-2.4141 -0.074558,-0.3172 -0.23272,-0.4787 -0.339838,-0.75 z m 4.710938,5.1114 c 2.5237788,4.1741 3.7628968,10.1845 2.8574208,15.416 l -2.2792968,0.01 c 1.7954478,-5.0896 1.5621608,-10.7683 -0.578124,-15.4258 z m -7.398438,0.4218 c -0.666665,0.034 -0.615881,1.0338 0.05078,1 l 1,0 c 0.676161,0.01 0.676161,-1.0096 0,-1 l -1,0 c -0.01692,-9e-4 -0.03387,-9e-4 -0.05078,0 z m -3.8125,16.9922 8.001953,0 0,1.0059 -8.001953,0 z m -1.380859,2.0059 9.839843,0 0.09961,0 0.892578,0 c 0.562649,0 1,0.4374 1,1 0,0.5592 -0.432622,0.9926 -0.990234,0.998 l -10.851563,0 c -0.557611,-0.01 -0.990234,-0.4388 -0.990234,-0.998 0,-0.5626 0.437353,-1 1,-1 z m 12.755859,2.998 c 0.382039,0 0.700744,0.088 0.880859,0.2032 0.180114,0.1156 0.2441428,0.2095 0.2441408,0.4336 -8.138e-4,0.1073 0.0011,0.519 0,0.5566 l -0.002,0.01 0,0.01 c 8.1e-5,0.03 0.0012,0.4392 0.002,0.7851 l -1.1249998,0 -0.06641,0 c 6.79e-4,-0.5446 0.01463,-0.6991 0.0059,-1.0312 -0.0085,-0.3205 -0.18242,-0.6403 -0.509765,-0.9609 l 0.570312,0 z m -14.748047,0.01 12.806641,0 c 0.317575,0.3588 0.432055,0.7051 0.445312,1.0411 0.01265,0.3206 -0.01165,0.5464 -0.01367,0.9511 l -13.238281,0 -1.126953,0 c 0,0 0.0011,-0.5572 0.002,-0.8652 -0.002,-0.08 -0.002,-0.065 -0.002,-0.012 l 0,-0.2364 c 0,-0.4482 0.452765,-0.8789 1.126953,-0.8789 z"/></g></g></g></g></g><text x="0" y="61.000001" fill="#000000" font-size="5px" font-weight="bold" font-family="'Helvetica Neue', Helvetica, Arial-Unicode, Arial, Sans-serif">Created by Chameleon Design</text><text x="0" y="66.000001" fill="#000000" font-size="5px" font-weight="bold" font-family="'Helvetica Neue', Helvetica, Arial-Unicode, Arial, Sans-serif">from the Noun Project</text></svg>