<svg xmlns="http://www.w3.org/2000/svg" xmlns:xlink="http://www.w3.org/1999/xlink" version="1.1" x="0px" y="0px" viewBox="206 206 100 125" enable-background="new 206 206 100 100" xml:space="preserve"><g><path d="M259.309,228.177l3.851-5.913c-2.65-1.914-5.207-3.417-7.493-4.585l-3.421,6.091   C254.81,225.11,257.167,226.581,259.309,228.177z"/><path d="M269.876,268.446h1.925v-16.251c0-0.064,0.021-5.26-3.671-11.618c-3.369-5.805-10.605-13.787-25.973-19.058l-15.111,19.208   l3.061,2.588l-1.217,1.438l-3.008-2.544l-1.356,1.723c0.868,0.857,2.063,2.282,1.916,3.501c0.043,0.365,0.785,1.512,2.034,2.089   c1.357,0.629,2.802,0.395,4.289-0.691c0.34-0.249,0.675-0.498,1.006-0.74c4.081-3.015,7.936-5.863,12.461-3.691   c2.221,1.068,5.809,0.499,8.168-1.291c1.2-0.91,2.544-2.484,2.135-4.817l1.853-0.326c0.45,2.548-0.561,4.908-2.848,6.645   c-2.502,1.896-6.055,2.638-8.812,1.951c0.662,1.328,1.196,3.19,1.068,5.682c-0.138,2.663-2.619,5.531-5.489,8.852   c-3.417,3.953-7.292,8.432-7.292,12.926v10.578h7.061c-0.262-1.563-0.614-4.561-0.294-8.15c0.62-6.929,3.488-12.74,8.298-16.809   l1.217,1.438c-4.471,3.782-7.04,8.99-7.633,15.477c-0.333,3.656,0.088,6.712,0.328,8.045h27.812v-1.245h-1.925   c-0.521,0-0.941-0.417-0.941-0.939c0-0.521,0.421-0.941,0.941-0.941h1.925v-0.723h-1.925c-0.521,0-0.941-0.423-0.941-0.942   s0.421-0.941,0.941-0.941h1.925v-0.721h-1.925c-0.521,0-0.941-0.422-0.941-0.941s0.421-0.942,0.941-0.942h1.925v-0.721h-1.925   c-0.521,0-0.941-0.422-0.941-0.941s0.421-0.941,0.941-0.941h1.925v-0.721h-1.925c-0.521,0-0.941-0.423-0.941-0.942   c0-0.521,0.421-0.941,0.941-0.941h1.925v-0.725h-1.925c-0.521,0-0.941-0.418-0.941-0.942   C268.935,268.868,269.356,268.446,269.876,268.446z M247.409,232.875c-0.772,1.964-2.491,3.392-4.087,3.392   c-0.324,0-0.781-0.06-1.247-0.32c-0.466-0.262-0.936-0.723-1.285-1.524c-0.528-1.219-0.544-2.396-0.043-3.498   c1.115-2.456,4.473-3.548,4.616-3.593l0.524-0.167l0.403,0.375C247.765,228.912,248.183,230.907,247.409,232.875z"/><path d="M242.461,231.708c-0.273,0.604-0.254,1.247,0.057,1.963c0.31,0.711,0.669,0.711,0.804,0.711   c0.709,0,1.818-0.883,2.334-2.197c0.253-0.642,0.513-1.799-0.272-2.85C244.447,229.739,242.976,230.569,242.461,231.708z"/><path d="M253.973,216.848c-3.278-1.54-5.805-2.333-6.919-2.646l-3.77,5.716c2.57,0.901,4.997,1.906,7.276,3.008L253.973,216.848z"/><path d="M266.463,234.917l5.471-4.812c-2.46-2.704-4.943-4.918-7.263-6.712l-3.87,5.944   C262.93,231.067,264.823,232.932,266.463,234.917z"/><path d="M273.684,266.803l13.792-3.334c-0.309-1.837-0.672-3.605-1.081-5.31l-12.711,2.946V266.803L273.684,266.803z"/><path d="M273.684,253.757v5.417l12.248-2.841c-0.429-1.604-0.9-3.147-1.407-4.632L273.684,253.757L273.684,253.757z"/><path d="M269.823,239.743c0.76,1.319,1.367,2.586,1.857,3.776l8.063-2.559c-2.035-3.624-4.275-6.751-6.566-9.441l-5.552,4.882   C268.431,237.484,269.166,238.598,269.823,239.743z"/><path d="M230.786,286.483v4.715H278.4v-4.715H230.786z M274.971,289.781h-40.755c-0.52,0-0.941-0.422-0.941-0.941   s0.422-0.942,0.941-0.942h40.755c0.52,0,0.94,0.423,0.94,0.942S275.49,289.781,274.971,289.781z"/><path d="M280.656,242.647l-8.311,2.637c1.102,3.237,1.299,5.664,1.332,6.557l10.206-1.935   C282.91,247.301,281.823,244.885,280.656,242.647z"/><path d="M227.14,293.082v4.715h54.906v-4.715H227.14z M279.342,296.383h-49.495c-0.52,0-0.942-0.42-0.942-0.942   c0-0.521,0.422-0.941,0.942-0.941h49.495c0.521,0,0.941,0.42,0.941,0.941C280.283,295.963,279.863,296.383,279.342,296.383z"/></g><text x="206" y="321" fill="#000000" font-size="5px" font-weight="bold" font-family="'Helvetica Neue', Helvetica, Arial-Unicode, Arial, Sans-serif">Created by Iconika</text><text x="206" y="326" fill="#000000" font-size="5px" font-weight="bold" font-family="'Helvetica Neue', Helvetica, Arial-Unicode, Arial, Sans-serif">from the Noun Project</text></svg>