<svg id="Layer_1" data-name="Layer 1" xmlns="http://www.w3.org/2000/svg" xmlns:xlink="http://www.w3.org/1999/xlink" viewBox="0 0 325.44 286.69"><defs><linearGradient id="linear-gradient" x1="259.85" y1="195.21" x2="10.11" y2="45.99" gradientUnits="userSpaceOnUse"><stop offset="0.01"/><stop offset="0.13" stop-opacity="0.69"/><stop offset="0.25" stop-opacity="0.32"/><stop offset="1" stop-opacity="0"/></linearGradient><linearGradient id="linear-gradient-2" x1="145.12" y1="42.12" x2="227.89" y2="281.42" xlink:href="#linear-gradient"/><linearGradient id="linear-gradient-3" x1="179.61" y1="151.11" x2="367.13" y2="284" gradientUnits="userSpaceOnUse"><stop offset="0.01"/><stop offset="0.08" stop-opacity="0.69"/><stop offset="0.21" stop-opacity="0.32"/><stop offset="1" stop-opacity="0"/></linearGradient></defs><title>2</title><path d="M161.87,43.36a88.58,88.58,0,0,0-10,6.67c-21,16.25-33.07,41.22-44.38,65.26-13.11,27.87-26.06,55.83-39.34,83.62-11,23-19.27,44.61-10.08,70.28,6.46,18,20.9,33.27,39,39.63,11.06,3.9,23,4.49,34.7,4.86,22,.7,44.08.78,65.7-3.12,10.29-1.86,20.43-4.61,30.82-5.82,20.11-2.32,40.63,1.21,60.6-2,13.91-2.26,27.1-7.74,39.69-14,9.46-4.75,18.76-10.05,26.55-17.2,20.63-18.93,28.28-49.61,22.73-77.06s-24.28-38.79-40.62-59.17c-17.48-21.8-19.15-52.9-35.71-75.42-21.4-29.11-62.66-36.54-98.29-30.5C188.79,31.75,174.48,36.1,161.87,43.36Z" transform="translate(-54.13 -27.36)" fill="#70a9a1" opacity="0.18" style="isolation:isolate"/><path d="M296.86,96.12a41.86,41.86,0,0,1-74.52,26.18H207.59l8.13-11.7a39.94,39.94,0,0,1-1.88-6.82l-.7-8.07a41.86,41.86,0,0,1,83.72.41Z" transform="translate(-54.13 -27.36)" fill="#fff"/><path d="M158.63,270.72a12.08,12.08,0,0,0,1,5.11,8.56,8.56,0,0,0,3.72,3.45,14.63,14.63,0,0,0,10.84,1.07,2.15,2.15,0,0,0,1.25-.76,1.68,1.68,0,0,0,.22-1.08c-.08-2-1.42-3.69-2.84-5.09s-3-2.7-3.9-4.49c-1.66-3.36-.43-12.29-6.76-10.85C156.83,259.27,158.49,267,158.63,270.72Z" transform="translate(-54.13 -27.36)" fill="#fbb9ad"/><path d="M157.75,276.78s-.9,2.21.21,3.5,12.48,8.36,20.14,2.67-10.41-6.43-10.41-6.43Z" transform="translate(-54.13 -27.36)" fill="#70a9a1"/><path d="M158.2,271.64a1.6,1.6,0,0,1,2,.53,6.7,6.7,0,0,0,6.09,2.18c2.49-.6,3.48-3.47,4.71-3.48s7.85,5.61,8.24,8-3,4.19-6.73,4.42S160.35,281,158.74,279,157.33,272.87,158.2,271.64Z" transform="translate(-54.13 -27.36)" fill="#fff"/><path d="M136.94,274.16a12.08,12.08,0,0,0,.95,5.11,8.48,8.48,0,0,0,3.72,3.44,14.58,14.58,0,0,0,10.84,1.07,2.09,2.09,0,0,0,1.25-.75,1.92,1.92,0,0,0,.23-1.08c-.08-2-1.43-3.7-2.85-5.1s-3-2.69-3.9-4.45c-1.66-3.37-.43-12.3-6.75-10.87C135.15,262.73,136.79,270.45,136.94,274.16Z" transform="translate(-54.13 -27.36)" fill="#fbb9ad"/><path d="M136.06,280.24s-.89,2.21.21,3.5,12.47,8.36,20.11,2.67S146,280,146,280Z" transform="translate(-54.13 -27.36)" fill="#70a9a1"/><path d="M136.51,275.1a1.62,1.62,0,0,1,2.05.53,6.59,6.59,0,0,0,6.08,2.18c2.48-.6,3.49-3.47,4.71-3.48s7.85,5.61,8.21,8-3,4.2-6.73,4.44-12.19-2.36-13.8-4.32S135.65,276.34,136.51,275.1Z" transform="translate(-54.13 -27.36)" fill="#fff"/><path d="M132.41,180.82s-1.17,65,3.64,86.64l12.21,1.5L156.71,180Z" transform="translate(-54.13 -27.36)" fill="#473f47"/><path d="M170.15,173.72s5.74,35.05-1.23,91.33l-12.21,1.51-8.45-89Z" transform="translate(-54.13 -27.36)" fill="#473f47"/><path d="M184.45,145.81c-.14,2.35-.9,4.39-2.95,5.07a3.07,3.07,0,0,1-.52.14c-3.75.75-8.67-2.1-12.1-4.59a46.84,46.84,0,0,1-4.12-3.33V118L183,136.64A29.18,29.18,0,0,1,184.45,145.81Z" transform="translate(-54.13 -27.36)" fill="#70a9a1"/><path d="M169,146.32c0,1.18.14,2.36.15,3.53,0,6.48-1.5,13.17.43,19.53.43,1.42,1,2.94.54,4.34a5.37,5.37,0,0,1-2.71,2.6c-5.72,3.13-12.33,4.08-18.77,5-4.85.68-11.73,2.13-16.21-.49-1.92-1.11-2.57-3.18-3.17-5.25-1.95-6.58-2.52-13.65-3-20.45-.06-.9-.13-1.8-.18-2.7q-.56-9.31-.38-18.63c.09-4.51.44-9.38,3.39-12.78,3.91-4.53,11.48-7.53,17.24-8.59a19.2,19.2,0,0,1,5.66-.31,23.8,23.8,0,0,1,7.66,2.6c2.85,1.41,5.39,2.61,6.79,5.43a38.58,38.58,0,0,1,3.19,10.28,37.06,37.06,0,0,1,.23,10.09c-.18,1.64-.59,3.28-.76,4.92A4.4,4.4,0,0,0,169,146.32Z" transform="translate(-54.13 -27.36)" fill="#70a9a1"/><path d="M142.57,183c-1.88.55-6.21-1.18-7.65-1.42-.87-.16-1.65-.59-2.51-.79-4.29-1.07-4.8-13.14-5.22-16.38-1.11-8.58-2.82-17.47-2.94-26.07a28.73,28.73,0,0,1,1.13-9.83c1.09-3.13,3.32-6,6.44-7.16,5.49-2,7.12,15.37,7.87,19,.94,4.5,1.9,9,2.83,13.49.68,3.29.3,5.92,2.91,8.36a1.19,1.19,0,0,0,.66.39,1.4,1.4,0,0,0,.66-.16,10.49,10.49,0,0,1,3.45-.82,2.64,2.64,0,0,1,1.56.25,2.58,2.58,0,0,1,1.06,1.72,7.74,7.74,0,0,1-3.32,8.14c-1.18.73-2.51,1.13-3.69,1.85-4.43,2.69-.72,5.57-2.49,8.89A1.16,1.16,0,0,1,142.57,183Z" transform="translate(-54.13 -27.36)" fill="#020202" opacity="0.1" style="isolation:isolate"/><path d="M157.41,104.12a4.14,4.14,0,0,1-2.18,2c-1.11.45-2.36.51-3.25,1.32h0a5.72,5.72,0,0,0-1.46,3.15c-.26,1.22-.52,2.43-.79,3.65-.13.61-.27,1.22-.4,1.83a2.64,2.64,0,0,1-.34,1,2.27,2.27,0,0,1-1.84.77,7.5,7.5,0,0,1-4.08-1,1.28,1.28,0,0,1-.51-.47,1.38,1.38,0,0,1-.08-.81c.15-1.75.3-3.5.46-5.25a6.68,6.68,0,0,0-.65-4.22c-1.35-2.82-2.81-5.64-3.34-8.75a7.15,7.15,0,0,1,.36-4.31,7.26,7.26,0,0,1,4.78-3.44,13.9,13.9,0,0,1,7.88-.08c1,.33,1.25,1,1.7,1.85.68,1.33,1.31,2.69,1.88,4.08.64,1.57,1.2,3.18,1.7,4.82A5.62,5.62,0,0,1,157.41,104.12Z" transform="translate(-54.13 -27.36)" fill="#fbb9ad"/><path d="M196.24,130.52c.16-.26.48-.55.74-.37a.76.76,0,0,1,.21.37,1.74,1.74,0,0,0,1.51.87c.59,0,1.2-.09,1.81-.1a5.14,5.14,0,0,1,4,2.16,8.12,8.12,0,0,1,1.45,4.43,5.61,5.61,0,0,1-1.09,4c-1.41,1.61-3.85,1.65-6,1.58l-1.94-.07a1.81,1.81,0,0,1-2-1.47c-.81-1.93-2.25-3.86-1.25-5.81C194.54,134.44,195.06,132,196.24,130.52Z" transform="translate(-54.13 -27.36)" fill="#fbb9ad"/><path d="M158,151V136.48a2.83,2.83,0,0,1,1.79-2.63l36-14.33c1.87-.74,5.66,1.47,5.66,3.48l-1.77,33.68a2.85,2.85,0,0,1-1.75,2.63L163.66,175.1c-1.87.77-5.7-1.45-5.7-3.47Z" transform="translate(-54.13 -27.36)" fill="#fff"/><path d="M158,151V136.48a2.83,2.83,0,0,1,1.79-2.63l36-14.33c1.87-.74,5.66,1.47,5.66,3.48l-1.77,33.68a2.85,2.85,0,0,1-1.75,2.63L163.66,175.1c-1.87.77-5.7-1.45-5.7-3.47Z" transform="translate(-54.13 -27.36)" fill="url(#linear-gradient)"/><path d="M159.73,151.86V137.33a2.85,2.85,0,0,1,1.79-2.64l36-14.33a2.84,2.84,0,0,1,3.89,2.64v34.53a2.83,2.83,0,0,1-1.75,2.62l-36,14.95a2.85,2.85,0,0,1-3.93-2.63Z" transform="translate(-54.13 -27.36)" fill="#fff"/><path d="M151.2,91.1A3.47,3.47,0,0,1,149,92.58c-2.44.52-3.93-.67-5.16,2.18a5.65,5.65,0,0,0-.35,3.07c0,.21.76,2.65,1,2.52-.63.45-1.11-.77-1.8-1.13s-1.71.68-1.54,1.58a5.24,5.24,0,0,0,1.48,2.26,7.78,7.78,0,0,1,1.72,4.8c0,.41-.16,1-.56,1s-.87-.57-1.19-.78a11.09,11.09,0,0,0-1.57-.89c-1.68-.8-4.2-1.05-5.6-2.17a4,4,0,0,1-1.32-2.37c-.06-.21,0-2.58.41-2.44a3.27,3.27,0,0,1-1.18-5.6c-1.72-2.39-.93-5.93,1.13-8s5.05-3,8-3.39a21.61,21.61,0,0,1,9.59.63,7.17,7.17,0,0,1,2.89,1.57,3.48,3.48,0,0,1,1.13,3,1.05,1.05,0,0,1-1.1-.2,2,2,0,0,1-3.33,2A2.39,2.39,0,0,1,151.2,91.1Z" transform="translate(-54.13 -27.36)" fill="#473f47"/><path d="M152.76,106.88l-.42.12a.52.52,0,0,0-.32.16.49.49,0,0,0-.05.29,5.72,5.72,0,0,0-1.46,3.15c-.26,1.22-.52,2.43-.79,3.65a29.81,29.81,0,0,1-2.95-7.43A28.68,28.68,0,0,0,152.76,106.88Z" transform="translate(-54.13 -27.36)" fill="#dc9f95"/><path d="M154.85,151.11c.53-.5,1.23-1,1.93-.82A7.49,7.49,0,0,1,158,151a2.85,2.85,0,0,0,1.11.25,11.28,11.28,0,0,0,4.57-.65A5.62,5.62,0,0,1,166,150a3.5,3.5,0,0,1,2.36,1.67,6.62,6.62,0,0,1,.22,7.19,7,7,0,0,1-2.35,2.15,14.55,14.55,0,0,1-6.75,1.69c-2.34.1-4.71-.08-7,.1a2.57,2.57,0,0,1-1.61-.22,2.47,2.47,0,0,1-.78-2.05c-.09-1.76-.39-3.25.65-4.75C152,154.05,153.49,152.7,154.85,151.11Z" transform="translate(-54.13 -27.36)" fill="#fbb9ad"/><path d="M129.09,121s-25.77,33.7-17.63,45.61,42.5-2,42.5-2l-3.35-9.86s-24.14,3.05-24.32.36S141.6,137,141.6,137,144.4,114.31,129.09,121Z" transform="translate(-54.13 -27.36)" fill="#70a9a1"/><path d="M159.9,136.39,187.26,149l13.29-27.81s.87,0,.74,2.36l-10.09,23,10.22,10.91a2.91,2.91,0,0,1-1,2.2l-10.31-11.47-1.4,2.89-5.61-1.72-14.74,23.73-5.56,2.16,17.32-27.06-20.35-9.36Z" transform="translate(-54.13 -27.36)" fill="url(#linear-gradient-2)"/><g opacity="0.41"><rect x="138.75" y="208.29" width="20.88" height="18.18" fill="#70a9a1"/></g><rect x="159.46" y="194.14" width="20.88" height="32.33" fill="#70a9a1"/><g opacity="0.5"><rect x="180.17" y="179.22" width="20.88" height="47.25" fill="#70a9a1"/></g><rect x="200.88" y="164.68" width="20.88" height="61.79" fill="#70a9a1"/><rect x="221.58" y="150.03" width="20.88" height="76.44" fill="#70a9a1"/><rect x="221.58" y="150.03" width="20.88" height="76.44" fill="url(#linear-gradient-3)"/><g id="bBDZcC"><path d="M267.79,83.21a8.65,8.65,0,0,1,2.34,5.16c.18,1.46.18,2.94.22,4.41a.67.67,0,0,0,.57.74,21.11,21.11,0,0,1,3.4,1.3A4,4,0,0,1,276,100.7a.64.64,0,0,0,0,.45c.19.65.43,1.28.63,1.92a.49.49,0,0,0,.39.41,2.14,2.14,0,0,1,1.4,1.3,5.1,5.1,0,0,1,.28,2.73,17.15,17.15,0,0,1-5.72,10.81,20.46,20.46,0,0,1-11.27,5,24.47,24.47,0,0,1-9.64-.5,20,20,0,0,1-13.38-10.3,2.15,2.15,0,0,0-1.85-1.34,8.63,8.63,0,0,1-6.95-6.67,8.4,8.4,0,0,1,.31-4.36.44.44,0,0,0-.16-.57c-.48-.38-.94-.8-1.42-1.19a4.62,4.62,0,0,1-1.72-3.64A12.59,12.59,0,0,1,228,89.33a35.21,35.21,0,0,1,4.67-7.67,45.47,45.47,0,0,1,10.85-10.23,16.68,16.68,0,0,1,6.09-2.66,5.51,5.51,0,0,1,3.73.4,8,8,0,0,1,1.44,1.09c.71.65,1.39,1.34,2.07,2a.5.5,0,0,0,.66.12,22.45,22.45,0,0,1,5.87-1.87,10.77,10.77,0,0,1,5.2.24A4.46,4.46,0,0,1,271.82,76a11.57,11.57,0,0,1-2.5,5.36C268.85,82,268.32,82.56,267.79,83.21ZM274,106.82l.06.06a2.61,2.61,0,0,1-.31.43,17.86,17.86,0,0,1-1.73,1.53,17.65,17.65,0,0,1-9.49,3,12,12,0,0,1-4.17-.46,6.45,6.45,0,0,1-2.3-1.18,3.5,3.5,0,0,1-.92-4.06c.57-1.32,1.57-1.73,3.29-1.6a31.92,31.92,0,0,0,4.79,0,19,19,0,0,0,8.86-2.8,6.5,6.5,0,0,0,2.2-2.1,2.08,2.08,0,0,0-.66-3,5.61,5.61,0,0,0-1.26-.66c-.82-.3-1.65-.54-2.49-.79-1.13-.35-1.35-.63-1.42-1.82-.07-1.47-.1-2.94-.26-4.41a8,8,0,0,0-.6-2.3,2,2,0,0,0-2.45-1.16,3.2,3.2,0,0,0-1.52.85,5.58,5.58,0,0,1-4,1.48c-.76,0-1.51-.14-2.27-.16a11.9,11.9,0,0,0-2.67,0,5.76,5.76,0,0,0-4.29,5.87,7.68,7.68,0,0,0,2.22,5.05c.37.42.75.83,1.09,1.28a.72.72,0,0,1,0,1.12,9.77,9.77,0,0,0-2.67,6.17,9.28,9.28,0,0,0,3.26,8.19,11.91,11.91,0,0,0,7,2.7,15.55,15.55,0,0,0,9.11-2.16,12.45,12.45,0,0,0,6-7.16,10.47,10.47,0,0,0,.42-2.48c0-.85-.41-1.24-1.25-1.31l-.14,0-.86-3c-.44.31-.76.55-1.1.77A22.69,22.69,0,0,1,258.8,106a10.63,10.63,0,0,0-1.38-.07,1.1,1.1,0,0,0-1,1c.17.06.32.14.48.18a30.82,30.82,0,0,0,3.67.7c1.37.13,2.77,0,4.15,0a1.43,1.43,0,0,1,.34.09c-.09.09-.16.22-.26.27a3.22,3.22,0,0,1-.6.19,14.23,14.23,0,0,1-7.44-.21l-.46-.11a1.69,1.69,0,0,0,.67,1.24,6,6,0,0,0,1.46.81,12.72,12.72,0,0,0,5.45.49,21.17,21.17,0,0,0,7.75-2.37C272.43,107.74,273.22,107.27,274,106.82Zm-43-8.66a.42.42,0,0,0,.12-.06,1.46,1.46,0,0,0,.16-.19,7,7,0,0,1,3.87-2.46.73.73,0,0,0,.57-.51A38,38,0,0,1,243,83a47.47,47.47,0,0,1,9-7.42c1-.71,2.13-1.35,3.29-2.08-.89-.86-1.76-1.71-2.65-2.54a1.21,1.21,0,0,0-.53-.23A6.31,6.31,0,0,0,249,71a21.69,21.69,0,0,0-6.4,3.5A41.61,41.61,0,0,0,231.41,87,19.46,19.46,0,0,0,229,92.91a6.83,6.83,0,0,0-.1,2.51C229.08,96.75,230.19,97.35,231,98.16Zm11.19,6.07c-.08-.85-.12-1.47-.21-2.07a7.84,7.84,0,0,0-.31-1.27A4.94,4.94,0,0,0,234,98.18a5.78,5.78,0,0,0-2.18,6.13,6.53,6.53,0,0,0,5.21,4.92,3.84,3.84,0,0,0,4.73-2.75A17.29,17.29,0,0,0,242.22,104.23Zm4.06-20.07A22,22,0,0,1,263,80.84a11.33,11.33,0,0,0-5.26-1.47l1.07-1.13a13.28,13.28,0,0,0-6.19,2,4,4,0,0,1,.24-.87c.11-.28.24-.54.37-.81l-.09-.08A23.19,23.19,0,0,0,246.28,84.16Z" transform="translate(-54.13 -27.36)" fill="#70a9a1"/><path d="M266.3,94.58c-.48.17-.68-.17-.86-.59a6,6,0,0,1-.52-2.49c0-.6.23-.92.63-1s.81.11,1.05.65a5.86,5.86,0,0,1,.52,2.74C267.08,94.58,267.06,94.58,266.3,94.58Z" transform="translate(-54.13 -27.36)" fill="#70a9a1"/><path d="M260.12,96c-.3-.12-.49-.17-.66-.26a4.84,4.84,0,0,0-4-.21,6.69,6.69,0,0,1-.77.2.34.34,0,0,1-.3-.08.42.42,0,0,1,0-.31,1.14,1.14,0,0,1,.26-.32,3.77,3.77,0,0,1,5.15,0,2.14,2.14,0,0,1,.42.61C260.29,95.71,260.17,95.86,260.12,96Z" transform="translate(-54.13 -27.36)" fill="#70a9a1"/><path d="M258.75,96.23c.24.11.69.29,1.11.5.09,0,.11.23.17.35-.11,0-.23.13-.34.11a5.84,5.84,0,0,0-2.84.31c-.11,0-.26,0-.38,0s0-.29.1-.38A2.71,2.71,0,0,1,258.75,96.23Z" transform="translate(-54.13 -27.36)" fill="#70a9a1"/><path d="M263.7,97.17a1.14,1.14,0,0,1,1.14,1c0,.36-.3.58-.75.57a1.14,1.14,0,0,1-1.11-.95C263,97.41,263.27,97.17,263.7,97.17Z" transform="translate(-54.13 -27.36)" fill="#70a9a1"/><path d="M267.42,96.87a1.63,1.63,0,0,1-.16.53c-.15.17-.39.38-.59.37a.71.71,0,0,1-.55-.4,1.87,1.87,0,0,1-.05-1,.61.61,0,0,1,.61-.54.68.68,0,0,1,.64.53A2.68,2.68,0,0,1,267.42,96.87Z" transform="translate(-54.13 -27.36)" fill="#70a9a1"/><path d="M237.56,104.66c.14-.56.23-1,.37-1.45a1.57,1.57,0,0,0-.89-2.11,1.59,1.59,0,0,0-2.07,1.06,5.16,5.16,0,0,1-.31.73.44.44,0,0,1-.37.2c-.1,0-.22-.19-.26-.32a3.29,3.29,0,0,1,1.29-3,2.7,2.7,0,0,1,2.94,0,2.67,2.67,0,0,1,1.13,2.86,8.87,8.87,0,0,1-.42,1.19,6.59,6.59,0,0,0-.24.71.8.8,0,0,0,.94,1,2.93,2.93,0,0,1,.64.1c-.15.21-.25.48-.44.6a1.31,1.31,0,0,1-1.77-.34A8,8,0,0,1,237.56,104.66Z" transform="translate(-54.13 -27.36)" fill="#70a9a1"/></g></svg>