<svg xmlns="http://www.w3.org/2000/svg" viewBox="0 0 400 300"><g id="_171_revenue_flatline" data-name="#171_revenue_flatline"><polygon points="125.28 243.44 148.43 243.44 148.43 147.28 162.31 147.28 136.85 118.23 111.4 147.28 125.28 147.28 125.28 243.44" fill="#70a9a1"/><polygon points="85.57 243.44 103.11 243.44 103.11 204.56 113.63 204.56 94.34 182.55 75.05 204.56 85.57 204.56 85.57 243.44" fill="#70a9a1"/><polygon points="286.22 243.44 309.37 243.44 309.37 108.48 323.25 108.48 297.8 79.43 272.34 108.48 286.22 108.48 286.22 243.44" fill="#70a9a1"/><path d="M210.21,98.11s-7.28-14.38-23.71-10.33A15,15,0,0,0,194,98C200.67,101.8,210.21,98.11,210.21,98.11Z" fill="#231f20"/><path d="M211.67,191.1a1,1,0,0,1-1-1v-110a1,1,0,0,1,2,0v110A1,1,0,0,1,211.67,191.1Z" fill="#231f20"/><path d="M196.25,163.52s-14.19-8.9-20.79-12.92-.66-6.35,3.8-5.74c0,0,5.61-6.09,10.39-2.07a17.71,17.71,0,0,1,10.4-6.46c7.26-1.71,21.77,2.07,21.77,2.07s6.27-5.73,10.89-3.9,1.65,5.85,1.65,5.85,13,2,11.39,5.25-17,9.26-20.23,12.92-4.69,5.5-4.69,5.5Z" fill="#fff"/><path d="M220.83,164.52h0l-24.58-.5a.44.44,0,0,1-.25-.08c-.15-.08-14.27-8.94-20.79-12.92-2.52-1.54-3.55-3-3.07-4.37.67-1.87,4.06-2.64,6.94-2.31,1-1,6-5.51,10.48-2.26a18.62,18.62,0,0,1,10.38-6.24c6.85-1.61,19.71,1.49,21.76,2,1.16-1,6.78-5.57,11.21-3.82a4.21,4.21,0,0,1,2.77,2.65,4.59,4.59,0,0,1-.5,3.3c2.49.42,9.77,1.83,11,4.24a1.71,1.71,0,0,1,0,1.6c-.94,1.87-5.56,4.32-10.45,6.91-4.13,2.19-8.4,4.46-9.86,6.12-3.15,3.61-4.65,5.46-4.67,5.48A.48.48,0,0,1,220.83,164.52ZM196.4,163l24.2.49c.46-.56,2-2.35,4.54-5.32,1.58-1.8,5.74-4,10.14-6.34s9.23-4.89,10-6.48a.71.71,0,0,0,0-.69c-1-1.94-8.29-3.43-11-3.83a.5.5,0,0,1-.33-.79,4.18,4.18,0,0,0,.75-3.11,3.31,3.31,0,0,0-2.18-2c-4.27-1.69-10.31,3.75-10.37,3.81a.48.48,0,0,1-.46.11c-.15,0-14.48-3.72-21.54-2.07a17.31,17.31,0,0,0-10.09,6.26.49.49,0,0,1-.35.22.47.47,0,0,1-.39-.12c-4.37-3.67-9.65,2-9.7,2a.53.53,0,0,1-.44.16c-2.72-.37-5.69.41-6.12,1.62-.29.82.68,2,2.65,3.19C181.93,154,195,162.16,196.4,163Z" fill="#231f20"/><path d="M198.89,164.74s-22.11,15.61-33.33,29c-8.15,9.75-7.76,32.39-6.94,44,.28,4,4.81,7.19,10.27,7.19h81.52c5.24,0,9.64-2.91,10.22-6.76,1.31-8.6,2.87-23.53,0-33.36-4.29-14.51-36.3-37-37.62-40.12Z" fill="#fff"/><path d="M250.41,245.48H168.89c-5.74,0-10.47-3.36-10.77-7.66-.87-12.38-1.12-34.6,7.06-44.38,11.13-13.31,33.2-28.95,33.42-29.11a.52.52,0,0,1,.29-.09H223a.5.5,0,0,1,.46.31c.35.85,3.84,3.81,7.88,7.23,10,8.48,26.72,22.68,29.76,32.94,3,10,1.3,25.34.05,33.58C260.5,242.39,255.89,245.48,250.41,245.48Zm-51.36-80.24c-1.83,1.31-22.5,16.16-33.1,28.84-8,9.51-7.7,31.44-6.83,43.67.26,3.77,4.56,6.73,9.77,6.73h81.52c5,0,9.18-2.72,9.73-6.33,1.24-8.16,2.89-23.31,0-33.15S240.58,181,230.67,172.55c-4.61-3.92-7.23-6.17-8-7.31Z" fill="#231f20"/><path d="M217.43,163.79a.45.45,0,0,1-.2,0,.5.5,0,0,1-.26-.66,77,77,0,0,1,8.15-13.37.5.5,0,0,1,.7-.1.51.51,0,0,1,.1.7,74.34,74.34,0,0,0-8,13.17A.51.51,0,0,1,217.43,163.79Z" fill="#d1d3d4"/><path d="M207.42,164.33A.49.49,0,0,1,207,164c-2.55-7.63-12-17.82-12.13-17.92a.5.5,0,1,1,.73-.69c.34.37,7.35,7.89,10.94,15a67.74,67.74,0,0,0-3.24-13,.5.5,0,1,1,.94-.34,71.42,71.42,0,0,1,3.73,16.78.51.51,0,0,1-.4.53Z" fill="#d1d3d4"/><path d="M200.4,164.17a.51.51,0,0,1-.46-.3c-1.87-4.37-8.7-8.62-8.77-8.66a.5.5,0,1,1,.52-.86c.29.18,7.18,4.46,9.17,9.13a.5.5,0,0,1-.26.65A.45.45,0,0,1,200.4,164.17Z" fill="#d1d3d4"/><path d="M183.27,193.6a.47.47,0,0,1-.25-.07.49.49,0,0,1-.18-.68c8-13.83,20.41-25.66,20.54-25.78a.5.5,0,0,1,.78.6c-.07.13-7,13.28-8.49,19.88a.49.49,0,0,1-.59.38.52.52,0,0,1-.39-.6c1.07-4.88,4.95-13,7.12-17.27-3.95,4.06-12.24,13.13-18.11,23.29A.5.5,0,0,1,183.27,193.6Z" fill="#d1d3d4"/><path d="M238.75,192.29a.51.51,0,0,1-.46-.3c-5.32-11.91-24.87-26-25.07-26.12a.5.5,0,1,1,.58-.81c.82.58,20,14.36,25.41,26.53a.51.51,0,0,1-.26.66A.45.45,0,0,1,238.75,192.29Z" fill="#d1d3d4"/><path d="M218.73,185.33a.51.51,0,0,1-.48-.36,23.62,23.62,0,0,0-5.09-9.14.5.5,0,0,1,0-.71.51.51,0,0,1,.71,0,24.23,24.23,0,0,1,5.34,9.57.5.5,0,0,1-.33.62Z" fill="#d1d3d4"/><rect x="192.95" y="161.43" width="32.57" height="5.16" rx="2.58" fill="#231f20"/><path d="M222.94,167.1H195.53a3.08,3.08,0,0,1,0-6.16h27.41a3.08,3.08,0,1,1,0,6.16Zm-27.41-5.16a2.08,2.08,0,0,0,0,4.16h27.41a2.08,2.08,0,0,0,0-4.16Z" fill="#231f20"/><path d="M126.24,252.48l-14.56-8.18.4-19.81s58.62-.21,59.21,0a61.24,61.24,0,0,1,13.36,7.12Z" fill="#fff"/><path d="M126.24,253a.54.54,0,0,1-.25-.06l-14.55-8.18a.51.51,0,0,1-.26-.45l.4-19.81a.51.51,0,0,1,.5-.49c21.92-.08,58.79-.18,59.38,0a62.54,62.54,0,0,1,13.48,7.19.5.5,0,0,1-.13.87L126.4,253A.45.45,0,0,1,126.24,253Zm-14-9,14.09,7.92,57.28-20.46A60.19,60.19,0,0,0,171.13,225c-1.14-.13-38.52,0-58.56,0Z" fill="#231f20"/><path d="M184.65,231.61c-.9-.58-58.41,0-58.41,0v20.87l58.41,0Z" fill="#fff"/><path d="M126.24,253a.49.49,0,0,1-.36-.15.5.5,0,0,1-.14-.35V231.61a.51.51,0,0,1,.49-.5c21.54-.21,57.8-.49,58.69.08a.52.52,0,0,1,.23.42v20.85a.5.5,0,0,1-.5.5Zm.5-20.87V252l57.41,0V232C180.34,231.7,148.42,231.89,126.74,232.11Z" fill="#231f20"/><path d="M181,243.42h-7.09a.5.5,0,0,1,0-1H181a.5.5,0,0,1,0,1Z" fill="#d1d3d4"/><polyline points="142.29 251.96 142.29 231.48 130.72 224.4 160.05 224.4 173.09 231.35 173.89 251.74" fill="#231f20"/><path d="M142.29,252.46a.5.5,0,0,1-.5-.5v-20.2l-11.34-6.93a.51.51,0,0,1-.22-.57.51.51,0,0,1,.49-.36h29.33a.46.46,0,0,1,.23.06l13,6.95a.49.49,0,0,1,.26.42l.81,20.39a.5.5,0,1,1-1,0l-.8-20.1-12.68-6.76H132.49l10.06,6.15a.5.5,0,0,1,.24.43V252A.5.5,0,0,1,142.29,252.46Z" fill="#231f20"/><line x1="112.08" y1="224.49" x2="126.24" y2="231.61" fill="#fff"/><path d="M126.23,232.11a.44.44,0,0,1-.22-.05l-14.15-7.12a.49.49,0,0,1-.22-.67.49.49,0,0,1,.67-.22l14.15,7.12a.49.49,0,0,1,.22.67A.5.5,0,0,1,126.23,232.11Z" fill="#231f20"/><path d="M140.48,237.67H129.85a.5.5,0,0,1-.5-.5.5.5,0,0,1,.5-.5h10.63a.5.5,0,0,1,.5.5A.5.5,0,0,1,140.48,237.67Z" fill="#d1d3d4"/><path d="M183,236.34h-7.36a.5.5,0,0,1-.5-.5.5.5,0,0,1,.5-.5H183a.5.5,0,0,1,.5.5A.5.5,0,0,1,183,236.34Z" fill="#d1d3d4"/><path d="M138.93,245.16H127.45a.51.51,0,0,1-.5-.5.5.5,0,0,1,.5-.5h11.48a.5.5,0,0,1,.5.5A.5.5,0,0,1,138.93,245.16Z" fill="#d1d3d4"/><path d="M122.58,235.63a.53.53,0,0,1-.24-.06l-7.74-4.22a.5.5,0,0,1,.48-.88l7.74,4.22a.51.51,0,0,1,.2.68A.49.49,0,0,1,122.58,235.63Z" fill="#d1d3d4"/><path d="M124.41,247.35a.69.69,0,0,1-.24,0l-8-4.3a.5.5,0,0,1-.21-.68.5.5,0,0,1,.68-.2l8,4.29a.5.5,0,0,1,.21.68A.49.49,0,0,1,124.41,247.35Z" fill="#d1d3d4"/><path d="M121.56,240.82a.53.53,0,0,1-.23-.06l-8.47-4.48a.5.5,0,1,1,.47-.88l8.47,4.47a.5.5,0,0,1-.24.95Z" fill="#d1d3d4"/><path d="M141.3,249.2h-6.76a.5.5,0,0,1,0-1h6.76a.5.5,0,0,1,0,1Z" fill="#d1d3d4"/><path d="M171.34,217.08v6.43c0,2.43-7,4.41-15.55,4.41s-15.54-2-15.54-4.41v-6.43Z" fill="#fff"/><path d="M155.79,228.42c-7.77,0-16-1.72-16-4.91v-6.43a.5.5,0,0,1,.5-.5h31.09a.5.5,0,0,1,.5.5v6.43C171.84,226.7,163.57,228.42,155.79,228.42Zm-15-10.84v5.93c0,1.85,6.18,3.91,15,3.91s15.05-2.06,15.05-3.91v-5.93Z" fill="#231f20"/><ellipse cx="155.79" cy="217.08" rx="15.54" ry="4.41" fill="#231f20"/><path d="M155.79,222c-7.77,0-16-1.72-16-4.9s8.27-4.91,16-4.91,16.05,1.72,16.05,4.91S163.57,222,155.79,222Zm0-8.81c-8.86,0-15,2.06-15,3.91s6.18,3.9,15,3.9,15.05-2.06,15.05-3.9S164.66,213.17,155.79,213.17Z" fill="#231f20"/><path d="M167.68,208.26v6.43c0,2.43-7,4.41-15.55,4.41s-15.54-2-15.54-4.41v-6.43Z" fill="#fff"/><path d="M152.13,219.6c-7.77,0-16-1.72-16-4.91v-6.43a.5.5,0,0,1,.5-.5h31.09a.5.5,0,0,1,.5.5v6.43C168.18,217.88,159.91,219.6,152.13,219.6Zm-15-10.84v5.93c0,1.85,6.18,3.91,15,3.91s15.05-2.06,15.05-3.91v-5.93Z" fill="#231f20"/><ellipse cx="152.13" cy="208.26" rx="15.54" ry="4.41" fill="#fff"/><path d="M152.13,213.17c-7.77,0-16-1.72-16-4.91s8.27-4.91,16-4.91,16.05,1.72,16.05,4.91S159.91,213.17,152.13,213.17Zm0-8.82c-8.86,0-15,2.06-15,3.91s6.18,3.91,15,3.91,15.05-2.06,15.05-3.91S161,204.35,152.13,204.35Z" fill="#231f20"/><path d="M152.13,211.43c-4.68,0-13.53-.66-13.53-3.17s8.85-3.18,13.53-3.18,13.54.67,13.54,3.18S156.82,211.43,152.13,211.43Zm0-5.35c-8.11,0-12.53,1.44-12.53,2.18s4.42,2.17,12.53,2.17,12.54-1.43,12.54-2.17S160.25,206.08,152.13,206.08Z" fill="#d1d3d4"/><polygon points="303.37 239.01 240.88 238.44 223.65 254.34 295.93 254.34 303.37 239.01" fill="#fff"/><path d="M295.93,254.83H223.65a.5.5,0,0,1-.34-.86l17.23-15.9a.4.4,0,0,1,.34-.13l62.5.57a.49.49,0,0,1,.42.24.48.48,0,0,1,0,.48l-7.44,15.32A.48.48,0,0,1,295.93,254.83Zm-71-1h70.69l7-14.33-61.51-.56Z" fill="#231f20"/><path d="M222.23,241.68v6.44c0,2.43,7,4.4,15.54,4.4s15.55-2,15.55-4.4v-6.44Z" fill="#fff"/><path d="M237.77,253c-7.78,0-16-1.72-16-4.9v-6.44a.5.5,0,0,1,.5-.5h31.08a.5.5,0,0,1,.5.5v6.44C253.81,251.3,245.55,253,237.77,253Zm-15-10.84v5.94c0,1.84,6.18,3.9,15,3.9s15-2.06,15-3.9v-5.94Z" fill="#231f20"/><ellipse cx="237.77" cy="241.68" rx="15.54" ry="4.41" fill="#231f20"/><path d="M237.77,246.59c-7.78,0-16-1.72-16-4.91s8.26-4.91,16-4.91,16,1.73,16,4.91S245.55,246.59,237.77,246.59Zm0-8.82c-8.86,0-15,2.06-15,3.91s6.18,3.91,15,3.91,15-2.06,15-3.91S246.64,237.77,237.77,237.77Z" fill="#231f20"/><path d="M225.89,232.87v6.43c0,2.43,7,4.41,15.54,4.41s15.55-2,15.55-4.41v-6.43Z" fill="#fff"/><path d="M241.43,244.21c-7.78,0-16-1.72-16-4.91v-6.43a.5.5,0,0,1,.5-.5H257a.5.5,0,0,1,.5.5v6.43C257.48,242.49,249.21,244.21,241.43,244.21Zm-15-10.84v5.93c0,1.85,6.18,3.91,15,3.91s15.05-2.06,15.05-3.91v-5.93Z" fill="#231f20"/><ellipse cx="241.43" cy="232.87" rx="15.54" ry="4.41" fill="#231f20"/><path d="M241.43,237.77c-7.78,0-16-1.72-16-4.9s8.26-4.91,16-4.91,16.05,1.72,16.05,4.91S249.21,237.77,241.43,237.77Zm0-8.81c-8.86,0-15,2.06-15,3.91s6.18,3.9,15,3.9,15.05-2.06,15.05-3.9S250.3,229,241.43,229Z" fill="#231f20"/><path d="M222.71,223v6.43c0,2.43,7,4.41,15.54,4.41s15.55-2,15.55-4.41V223Z" fill="#fff"/><path d="M238.25,234.38c-7.77,0-16-1.72-16-4.91V223a.5.5,0,0,1,.5-.5H253.8a.5.5,0,0,1,.5.5v6.43C254.3,232.66,246,234.38,238.25,234.38Zm-15-10.84v5.93c0,1.85,6.18,3.91,15,3.91s15.05-2.06,15.05-3.91v-5.93Z" fill="#231f20"/><ellipse cx="238.25" cy="223.04" rx="15.54" ry="4.41" fill="#fff"/><path d="M238.25,228c-7.77,0-16-1.72-16-4.91s8.27-4.91,16-4.91,16.05,1.72,16.05,4.91S246,228,238.25,228Zm0-8.82c-8.86,0-15,2.06-15,3.91s6.18,3.91,15,3.91,15.05-2.06,15.05-3.91S247.12,219.13,238.25,219.13Z" fill="#231f20"/><path d="M238.25,226.21c-4.68,0-13.54-.66-13.54-3.17s8.86-3.18,13.54-3.18,13.54.67,13.54,3.18S242.94,226.21,238.25,226.21Zm0-5.35c-8.11,0-12.54,1.44-12.54,2.18s4.43,2.17,12.54,2.17,12.54-1.43,12.54-2.17S246.37,220.86,238.25,220.86Z" fill="#d1d3d4"/><path d="M263,238.25v6.43c0,2.44,7,4.41,15.55,4.41s15.54-2,15.54-4.41v-6.43Z" fill="#fff"/><path d="M278.52,249.59c-7.78,0-16-1.72-16-4.91v-6.43a.5.5,0,0,1,.5-.5h31.09a.5.5,0,0,1,.5.5v6.43C294.56,247.87,286.29,249.59,278.52,249.59Zm-15-10.84v5.93c0,1.85,6.18,3.91,15,3.91s15-2.06,15-3.91v-5.93Z" fill="#231f20"/><ellipse cx="278.52" cy="238.25" rx="15.54" ry="4.41" fill="#231f20"/><path d="M278.52,243.16c-7.78,0-16-1.72-16-4.91s8.27-4.91,16-4.91,16,1.72,16,4.91S286.29,243.16,278.52,243.16Zm0-8.82c-8.87,0-15,2.06-15,3.91s6.18,3.91,15,3.91,15-2.06,15-3.91S287.38,234.34,278.52,234.34Z" fill="#231f20"/><path d="M261,230.63v6.43c0,2.43,7,4.41,15.54,4.41s15.55-2,15.55-4.41v-6.43Z" fill="#fff"/><path d="M276.49,242c-7.77,0-16-1.72-16-4.91v-6.43a.5.5,0,0,1,.5-.5H292a.5.5,0,0,1,.5.5v6.43C292.54,240.25,284.27,242,276.49,242Zm-15-10.84v5.93c0,1.85,6.18,3.91,15,3.91s15.05-2.06,15.05-3.91v-5.93Z" fill="#231f20"/><ellipse cx="276.49" cy="230.63" rx="15.54" ry="4.41" fill="#231f20"/><path d="M276.49,235.53c-7.77,0-16-1.72-16-4.9s8.27-4.91,16-4.91,16.05,1.72,16.05,4.91S284.27,235.53,276.49,235.53Zm0-8.81c-8.86,0-15,2.06-15,3.91s6.18,3.9,15,3.9,15.05-2.06,15.05-3.9S285.36,226.72,276.49,226.72Z" fill="#231f20"/><path d="M263.46,221.34v6.43c0,2.44,7,4.41,15.54,4.41s15.54-2,15.54-4.41v-6.43Z" fill="#fff"/><path d="M279,232.68c-7.78,0-16-1.72-16-4.91v-6.43a.5.5,0,0,1,.5-.5h31.08a.5.5,0,0,1,.5.5v6.43C295,231,286.78,232.68,279,232.68Zm-15-10.84v5.93c0,1.85,6.17,3.91,15,3.91s15-2.06,15-3.91v-5.93Z" fill="#231f20"/><ellipse cx="279" cy="221.34" rx="15.54" ry="4.41" fill="#231f20"/><path d="M279,226.25c-7.78,0-16-1.72-16-4.91s8.26-4.91,16-4.91,16,1.72,16,4.91S286.78,226.25,279,226.25Zm0-8.82c-8.87,0-15,2.06-15,3.91s6.17,3.91,15,3.91,15-2.06,15-3.91S287.86,217.43,279,217.43Z" fill="#231f20"/><path d="M261,212v6.43c0,2.43,7,4.41,15.54,4.41s15.55-2,15.55-4.41V212Z" fill="#fff"/><path d="M276.49,223.36c-7.77,0-16-1.72-16-4.91V212a.5.5,0,0,1,.5-.5H292a.5.5,0,0,1,.5.5v6.43C292.54,221.64,284.27,223.36,276.49,223.36Zm-15-10.84v5.93c0,1.85,6.18,3.91,15,3.91s15.05-2.06,15.05-3.91v-5.93Z" fill="#231f20"/><ellipse cx="276.49" cy="212.02" rx="15.54" ry="4.41" fill="#231f20"/><path d="M276.49,216.92c-7.77,0-16-1.72-16-4.9s8.27-4.91,16-4.91,16.05,1.72,16.05,4.91S284.27,216.92,276.49,216.92Zm0-8.81c-8.86,0-15,2.06-15,3.91s6.18,3.9,15,3.9,15.05-2.06,15.05-3.9S285.36,208.11,276.49,208.11Z" fill="#231f20"/><path d="M266,204.39v6.43c0,2.44,7,4.41,15.54,4.41s15.55-2,15.55-4.41v-6.43Z" fill="#fff"/><path d="M281.5,215.73c-7.77,0-16-1.72-16-4.91v-6.43a.5.5,0,0,1,.5-.5h31.09a.51.51,0,0,1,.5.5v6.43C297.55,214,289.28,215.73,281.5,215.73Zm-15-10.84v5.93c0,1.85,6.18,3.91,15,3.91s15.05-2.06,15.05-3.91v-5.93Z" fill="#231f20"/><ellipse cx="281.5" cy="204.39" rx="15.54" ry="4.41" fill="#231f20"/><path d="M281.5,209.3c-7.77,0-16-1.72-16-4.91s8.27-4.91,16-4.91,16.05,1.72,16.05,4.91S289.28,209.3,281.5,209.3Zm0-8.82c-8.86,0-15,2.06-15,3.91s6.18,3.91,15,3.91,15.05-2.06,15.05-3.91S290.37,200.48,281.5,200.48Z" fill="#231f20"/><path d="M262.55,196.77v6.43c0,2.43,7,4.41,15.54,4.41s15.55-2,15.55-4.41v-6.43Z" fill="#fff"/><path d="M278.09,208.11c-7.77,0-16-1.72-16-4.91v-6.43a.5.5,0,0,1,.5-.5h31.09a.5.5,0,0,1,.5.5v6.43C294.14,206.39,285.87,208.11,278.09,208.11Zm-15-10.84v5.93c0,1.85,6.18,3.91,15,3.91s15.05-2.06,15.05-3.91v-5.93Z" fill="#231f20"/><ellipse cx="278.09" cy="196.77" rx="15.54" ry="4.41" fill="#fff"/><path d="M278.09,201.68c-7.77,0-16-1.72-16-4.91s8.27-4.91,16-4.91,16.05,1.72,16.05,4.91S285.87,201.68,278.09,201.68Zm0-8.82c-8.86,0-15,2.06-15,3.91s6.18,3.91,15,3.91,15.05-2.06,15.05-3.91S287,192.86,278.09,192.86Z" fill="#231f20"/><path d="M278.09,199.94c-4.68,0-13.53-.66-13.53-3.17s8.85-3.18,13.53-3.18,13.54.67,13.54,3.18S282.78,199.94,278.09,199.94Zm0-5.35c-8.11,0-12.53,1.44-12.53,2.18s4.42,2.17,12.53,2.17,12.54-1.44,12.54-2.17S286.21,194.59,278.09,194.59Z" fill="#d1d3d4"/><path d="M225.66,105.72s15.43-4.14,22.22,14.14a17.86,17.86,0,0,1-13.36-2A18.85,18.85,0,0,1,225.66,105.72Z" fill="#231f20"/><path d="M197.31,120.23s-2.13,15.83-21.62,15.06a17.84,17.84,0,0,1,7-11.58A18.81,18.81,0,0,1,197.31,120.23Z" fill="#231f20"/><circle cx="211.67" cy="60.17" r="19.97" fill="#fff"/><path d="M211.67,80.64a20.47,20.47,0,1,1,20.47-20.47A20.49,20.49,0,0,1,211.67,80.64Zm0-39.94a19.47,19.47,0,1,0,19.47,19.47A19.49,19.49,0,0,0,211.67,40.7Z" fill="#231f20"/><path d="M211.67,76.64a16.47,16.47,0,1,1,16.47-16.47A16.48,16.48,0,0,1,211.67,76.64Zm0-31.93a15.47,15.47,0,1,0,15.47,15.46A15.48,15.48,0,0,0,211.67,44.71Z" fill="#d1d3d4"/><path d="M212.44,68.35v2.19H210.7V68.26c-3.47-.38-5.93-2.23-6.47-5.61L208,62a3.45,3.45,0,0,0,2.75,3V61.28c-2.9-.73-6.11-1.67-6.11-4.76,0-2.77,2.42-4.62,6.11-4.75v-2h1.74v2c3.2.39,5.45,2.17,6.06,4.74l-3.7.81a3.2,3.2,0,0,0-2.36-2.26v3.16c3,.68,6.67,1.67,6.67,5.23C219.11,66.35,216.58,68.29,212.44,68.35ZM210.7,57.9V55c-1.4.07-2.25.61-2.25,1.49C208.45,57.17,209.4,57.56,210.7,57.9Zm4.55,5.68c0-1-1.21-1.45-2.81-1.88v3.45C214.31,65.11,215.25,64.48,215.25,63.58Z" fill="#70a9a1"/><circle cx="162.71" cy="246.39" r="13.41" fill="#fff"/><path d="M162.69,260.3a13.91,13.91,0,1,1,12.77-8.37A13.8,13.8,0,0,1,162.69,260.3Zm0-26.82a12.91,12.91,0,1,0,5.13,1.07A12.93,12.93,0,0,0,162.72,233.48Z" fill="#231f20"/><path d="M162.7,257.61a11.23,11.23,0,0,1-10.43-7.11,11.22,11.22,0,1,1,20.72.36h0a11.25,11.25,0,0,1-10.29,6.75Zm0-21.44a10.21,10.21,0,1,0,9.37,14.29h0a10.22,10.22,0,0,0-9.37-14.29Z" fill="#d1d3d4"/><path d="M210.7,130.9a.94.94,0,0,1-.53-.16L169.37,105a1,1,0,1,1,1.06-1.69l40.8,25.72a1,1,0,0,1-.53,1.85Z" fill="#231f20"/><path d="M212.45,113.8a1,1,0,0,1-.54-1.84L248,88.77a1,1,0,0,1,1.08,1.68L213,113.64A1,1,0,0,1,212.45,113.8Z" fill="#231f20"/><circle cx="166.61" cy="101.21" r="14.57" fill="#fff"/><path d="M166.61,116.27a15.07,15.07,0,1,1,15.07-15.06A15.08,15.08,0,0,1,166.61,116.27Zm0-29.13a14.07,14.07,0,1,0,14.07,14.07A14.08,14.08,0,0,0,166.61,87.14Z" fill="#231f20"/><path d="M166.61,113.35a12.15,12.15,0,1,1,12.15-12.14A12.16,12.16,0,0,1,166.61,113.35Zm0-23.29a11.15,11.15,0,1,0,11.15,11.15A11.16,11.16,0,0,0,166.61,90.06Z" fill="#d1d3d4"/><path d="M167.17,107.17v1.6h-1.26v-1.66c-2.53-.28-4.33-1.63-4.72-4.1l2.71-.47a2.53,2.53,0,0,0,2,2.18V102c-2.12-.53-4.46-1.22-4.46-3.47,0-2,1.76-3.37,4.46-3.47V93.64h1.26v1.48c2.34.28,4,1.58,4.42,3.46l-2.69.59a2.37,2.37,0,0,0-1.73-1.65v2.31c2.21.49,4.87,1.21,4.87,3.81C172,105.71,170.2,107.12,167.17,107.17Zm-1.26-7.62V97.43c-1,0-1.65.44-1.65,1.08S165,99.3,165.91,99.55Zm3.32,4.14c0-.71-.89-1-2.06-1.37v2.52C168.54,104.81,169.23,104.34,169.23,103.69Z" fill="#70a9a1"/><circle cx="254.81" cy="89.61" r="14.57" fill="#fff"/><path d="M254.81,104.68a15.07,15.07,0,1,1,15.07-15.07A15.08,15.08,0,0,1,254.81,104.68Zm0-29.14a14.07,14.07,0,1,0,14.07,14.07A14.08,14.08,0,0,0,254.81,75.54Z" fill="#231f20"/><path d="M254.81,101.75A12.14,12.14,0,1,1,267,89.61,12.15,12.15,0,0,1,254.81,101.75Zm0-23.28A11.14,11.14,0,1,0,266,89.61,11.16,11.16,0,0,0,254.81,78.47Z" fill="#d1d3d4"/><path d="M255.37,95.58v1.59H254.1V95.51c-2.53-.28-4.32-1.63-4.71-4.09l2.71-.48a2.53,2.53,0,0,0,2,2.19V90.42c-2.12-.53-4.45-1.22-4.45-3.47,0-2,1.76-3.37,4.45-3.47V82.05h1.27v1.48c2.33.28,4,1.58,4.42,3.45l-2.69.59a2.34,2.34,0,0,0-1.73-1.64v2.3c2.2.49,4.87,1.22,4.87,3.81C260.24,94.11,258.39,95.53,255.37,95.58ZM254.1,88V85.83c-1,0-1.64.44-1.64,1.09C252.46,87.42,253.15,87.7,254.1,88Zm3.32,4.14c0-.7-.88-1-2.05-1.36v2.51C256.73,93.21,257.42,92.75,257.42,92.09Z" fill="#70a9a1"/><path d="M216,245.48v6.44c0,2.43-7,4.41-15.55,4.41s-15.54-2-15.54-4.41v-6.44Z" fill="#fff"/><path d="M200.4,256.83c-7.77,0-16-1.73-16-4.91v-6.44a.5.5,0,0,1,.5-.5H216a.51.51,0,0,1,.5.5v6.44C216.45,255.1,208.18,256.83,200.4,256.83Zm-15-10.85v5.94c0,1.85,6.18,3.91,15,3.91s15-2.06,15-3.91V246Z" fill="#231f20"/><ellipse cx="200.4" cy="245.48" rx="15.54" ry="4.41" fill="#fff"/><path d="M200.4,250.39c-7.77,0-16-1.72-16-4.91s8.27-4.9,16-4.9,16,1.72,16,4.9S208.18,250.39,200.4,250.39Zm0-8.81c-8.86,0-15,2.06-15,3.9s6.18,3.91,15,3.91,15-2.06,15-3.91S209.27,241.58,200.4,241.58Z" fill="#231f20"/><path d="M200.4,248.66c-4.68,0-13.53-.67-13.53-3.18s8.85-3.17,13.53-3.17,13.54.66,13.54,3.17S205.09,248.66,200.4,248.66Zm0-5.35c-8.11,0-12.53,1.44-12.53,2.17s4.42,2.18,12.53,2.18,12.54-1.44,12.54-2.18S208.52,243.31,200.4,243.31Z" fill="#d1d3d4"/><path d="M170.31,232.11h-26.1a.5.5,0,0,1-.5-.5.51.51,0,0,1,.5-.5h26.1a.51.51,0,0,1,.5.5A.5.5,0,0,1,170.31,232.11Z" fill="#fff"/></g></svg>