<svg xmlns="http://www.w3.org/2000/svg" viewBox="0 0 400 300"><g id="_173_revenue_flatline" data-name="#173_revenue_flatline"><path d="M291,271.41H101.8a.5.5,0,0,1-.5-.5.5.5,0,0,1,.5-.5H291a.5.5,0,0,1,.5.5A.51.51,0,0,1,291,271.41Z" fill="#d1d3d4"/><path d="M152.23,206.69h88.32a6.61,6.61,0,0,1,6.61,6.61v53.94a0,0,0,0,1,0,0H145.63a0,0,0,0,1,0,0V213.3A6.61,6.61,0,0,1,152.23,206.69Z" fill="#fff"/><path d="M247.16,267.69H145.62a.45.45,0,0,1-.45-.45V213.3a7.07,7.07,0,0,1,7.06-7.07h88.32a7.08,7.08,0,0,1,7.07,7.07v53.94A.46.46,0,0,1,247.16,267.69Zm-101.08-.91H246.71V213.3a6.16,6.16,0,0,0-6.16-6.15H152.23a6.16,6.16,0,0,0-6.15,6.15Z" fill="#231f20"/><rect x="151.97" y="212.11" width="88.84" height="55.12" fill="#231f20"/><path d="M240.81,267.74H152a.51.51,0,0,1-.5-.5V212.11a.51.51,0,0,1,.5-.5h88.84a.5.5,0,0,1,.5.5v55.13A.5.5,0,0,1,240.81,267.74Zm-88.34-1h87.84V212.61H152.47Z" fill="#231f20"/><path d="M255.63,267.75H137.16a.52.52,0,1,1,0-1H255.63a.52.52,0,0,1,0,1Z" fill="#231f20"/><path d="M135.07,267.24H257.72a0,0,0,0,1,0,0v0a7.34,7.34,0,0,1-7.34,7.34h-108a7.34,7.34,0,0,1-7.34-7.34v0A0,0,0,0,1,135.07,267.24Z" fill="#fff"/><path d="M250.38,275h-108a7.81,7.81,0,0,1-7.8-7.79.45.45,0,0,1,.46-.46H257.72a.46.46,0,0,1,.46.46A7.81,7.81,0,0,1,250.38,275Zm-114.84-7.34a6.89,6.89,0,0,0,6.87,6.43h108a6.9,6.9,0,0,0,6.87-6.43Z" fill="#231f20"/><rect x="186.45" y="267.24" width="19.89" height="1.83"/><polygon points="151.01 145.17 180.4 176.86 176.6 267.16 216.52 267.16 210.94 182.1 253.2 136.45 249.29 134.54 232.61 151.31 232.74 131.55 227.36 128.09 223.13 156.78 211.17 167.59 208.63 133.11 181.7 138.68 180.81 164.41 157.66 142.85 151.01 145.17" fill="#fff"/><path d="M216.52,267.66H176.6a.51.51,0,0,1-.36-.15.47.47,0,0,1-.14-.37l3.79-90.1-29.25-31.53a.5.5,0,0,1,.2-.81l6.66-2.32a.49.49,0,0,1,.5.11l22.35,20.81.85-24.63a.51.51,0,0,1,.4-.48l26.93-5.57a.49.49,0,0,1,.6.45l2.46,33.47,11.08-10L226.86,128a.53.53,0,0,1,.29-.39.51.51,0,0,1,.48,0l5.38,3.46a.48.48,0,0,1,.23.42l-.12,18.54,15.82-15.9a.47.47,0,0,1,.57-.1l3.91,1.91a.52.52,0,0,1,.27.36.5.5,0,0,1-.12.43l-42.12,45.49L217,267.13a.47.47,0,0,1-.14.37A.48.48,0,0,1,216.52,267.66Zm-39.4-1H216l-5.55-84.53a.5.5,0,0,1,.13-.37l41.81-45.15-3-1.47L233,151.67a.53.53,0,0,1-.55.11.51.51,0,0,1-.31-.47l.13-19.49-4.5-2.89-4.11,27.93a.52.52,0,0,1-.16.3l-12,10.8a.52.52,0,0,1-.53.1.52.52,0,0,1-.31-.43l-2.49-33.92-26,5.38-.88,25.34a.5.5,0,0,1-.31.44.49.49,0,0,1-.53-.09l-22.93-21.35-5.64,2,28.87,31.13a.46.46,0,0,1,.13.36Z" fill="#231f20"/><path d="M188.9,211.65a.51.51,0,0,1-.5-.49c-.06-2.22-1.5-54.52-1-56.8A.5.5,0,0,1,188,154a.49.49,0,0,1,.39.59c-.37,1.8.63,41.45,1.05,56.57a.51.51,0,0,1-.49.52Z" fill="#d1d3d4"/><path d="M256.58,49.18S232,14.6,202.84,37c0,0-14.59-19.82-42.22-7.54s-26.92,28-26.92,28S117.33,47,101.51,64.33c-6.4,7-12.29,26.54,1.76,41,0,0-15.1,10.56-11.49,23.92,8.19,30.28,63,32.54,73.19,17.63,0,0,24.1,16,53.21,6.39,20.65-6.85,24.07-16.19,24.07-16.19s25,16.2,48.79-2.11-.2-45.49-.2-45.49,19.64-16.29,4-35.28C281.66,38.27,256.58,49.18,256.58,49.18Z" fill="#70a9a1"/><rect x="226.5" y="260.04" width="29.56" height="7.2" rx="1.2" fill="#fff"/><path d="M254.86,267.74H227.7A1.71,1.71,0,0,1,226,266v-4.79a1.7,1.7,0,0,1,1.7-1.7h27.16a1.7,1.7,0,0,1,1.7,1.7V266A1.71,1.71,0,0,1,254.86,267.74Zm-27.16-7.2a.7.7,0,0,0-.7.7V266a.7.7,0,0,0,.7.71h27.16a.7.7,0,0,0,.7-.71v-4.79a.7.7,0,0,0-.7-.7Z" fill="#231f20"/><path d="M229.46,266.43a.5.5,0,0,1-.5-.5v-4.57a.5.5,0,0,1,.5-.5.5.5,0,0,1,.5.5v4.57A.5.5,0,0,1,229.46,266.43Z" fill="#d1d3d4"/><path d="M232.83,266.43a.5.5,0,0,1-.5-.5v-4.57a.5.5,0,0,1,.5-.5.5.5,0,0,1,.5.5v4.57A.5.5,0,0,1,232.83,266.43Z" fill="#d1d3d4"/><path d="M236.21,266.43a.5.5,0,0,1-.5-.5v-4.57a.5.5,0,0,1,.5-.5.5.5,0,0,1,.5.5v4.57A.5.5,0,0,1,236.21,266.43Z" fill="#d1d3d4"/><path d="M239.59,266.43a.5.5,0,0,1-.5-.5v-4.57a.5.5,0,0,1,.5-.5.5.5,0,0,1,.5.5v4.57A.5.5,0,0,1,239.59,266.43Z" fill="#d1d3d4"/><path d="M243,266.43a.5.5,0,0,1-.5-.5v-4.57a.5.5,0,0,1,1,0v4.57A.5.5,0,0,1,243,266.43Z" fill="#d1d3d4"/><path d="M246.35,266.43a.5.5,0,0,1-.5-.5v-4.57a.5.5,0,0,1,1,0v4.57A.5.5,0,0,1,246.35,266.43Z" fill="#d1d3d4"/><path d="M249.73,266.43a.5.5,0,0,1-.5-.5v-4.57a.5.5,0,0,1,.5-.5.5.5,0,0,1,.5.5v4.57A.5.5,0,0,1,249.73,266.43Z" fill="#d1d3d4"/><path d="M253.11,266.43a.5.5,0,0,1-.5-.5v-4.57a.5.5,0,0,1,.5-.5.5.5,0,0,1,.5.5v4.57A.5.5,0,0,1,253.11,266.43Z" fill="#d1d3d4"/><rect x="221.01" y="252.84" width="29.56" height="7.2" rx="1.2" fill="#fff"/><path d="M249.37,260.54H222.21a1.7,1.7,0,0,1-1.7-1.7V254a1.7,1.7,0,0,1,1.7-1.7h27.16a1.7,1.7,0,0,1,1.7,1.7v4.8A1.7,1.7,0,0,1,249.37,260.54Zm-27.16-7.2a.7.7,0,0,0-.7.7v4.8a.7.7,0,0,0,.7.7h27.16a.7.7,0,0,0,.7-.7V254a.7.7,0,0,0-.7-.7Z" fill="#231f20"/><path d="M224,259.24a.51.51,0,0,1-.5-.5v-4.58a.5.5,0,0,1,.5-.5.5.5,0,0,1,.5.5v4.58A.5.5,0,0,1,224,259.24Z" fill="#d1d3d4"/><path d="M227.34,259.24a.51.51,0,0,1-.5-.5v-4.58a.5.5,0,0,1,.5-.5.5.5,0,0,1,.5.5v4.58A.5.5,0,0,1,227.34,259.24Z" fill="#d1d3d4"/><path d="M230.72,259.24a.51.51,0,0,1-.5-.5v-4.58a.5.5,0,0,1,.5-.5.5.5,0,0,1,.5.5v4.58A.5.5,0,0,1,230.72,259.24Z" fill="#d1d3d4"/><path d="M234.1,259.24a.51.51,0,0,1-.5-.5v-4.58a.5.5,0,0,1,.5-.5.5.5,0,0,1,.5.5v4.58A.5.5,0,0,1,234.1,259.24Z" fill="#d1d3d4"/><path d="M237.48,259.24a.5.5,0,0,1-.5-.5v-4.58a.5.5,0,0,1,1,0v4.58A.5.5,0,0,1,237.48,259.24Z" fill="#d1d3d4"/><path d="M240.86,259.24a.5.5,0,0,1-.5-.5v-4.58a.5.5,0,0,1,.5-.5.5.5,0,0,1,.5.5v4.58A.51.51,0,0,1,240.86,259.24Z" fill="#d1d3d4"/><path d="M244.24,259.24a.5.5,0,0,1-.5-.5v-4.58a.5.5,0,0,1,.5-.5.5.5,0,0,1,.5.5v4.58A.51.51,0,0,1,244.24,259.24Z" fill="#d1d3d4"/><path d="M247.62,259.24a.5.5,0,0,1-.5-.5v-4.58a.5.5,0,0,1,.5-.5.5.5,0,0,1,.5.5v4.58A.51.51,0,0,1,247.62,259.24Z" fill="#d1d3d4"/><rect x="222.28" y="245.64" width="29.56" height="7.2" rx="1.2" fill="#fff"/><path d="M250.64,253.34H223.48a1.7,1.7,0,0,1-1.7-1.7v-4.8a1.7,1.7,0,0,1,1.7-1.7h27.16a1.7,1.7,0,0,1,1.7,1.7v4.8A1.7,1.7,0,0,1,250.64,253.34Zm-27.16-7.2a.7.7,0,0,0-.7.7v4.8a.7.7,0,0,0,.7.7h27.16a.7.7,0,0,0,.7-.7v-4.8a.7.7,0,0,0-.7-.7Z" fill="#231f20"/><path d="M225.23,252a.51.51,0,0,1-.5-.5V247a.51.51,0,0,1,.5-.5.5.5,0,0,1,.5.5v4.58A.5.5,0,0,1,225.23,252Z" fill="#d1d3d4"/><path d="M228.61,252a.5.5,0,0,1-.5-.5V247a.5.5,0,0,1,1,0v4.58A.5.5,0,0,1,228.61,252Z" fill="#d1d3d4"/><path d="M232,252a.5.5,0,0,1-.5-.5V247a.5.5,0,0,1,1,0v4.58A.5.5,0,0,1,232,252Z" fill="#d1d3d4"/><path d="M235.37,252a.5.5,0,0,1-.5-.5V247a.5.5,0,0,1,.5-.5.51.51,0,0,1,.5.5v4.58A.51.51,0,0,1,235.37,252Z" fill="#d1d3d4"/><path d="M238.75,252a.5.5,0,0,1-.5-.5V247a.5.5,0,0,1,.5-.5.51.51,0,0,1,.5.5v4.58A.51.51,0,0,1,238.75,252Z" fill="#d1d3d4"/><path d="M242.13,252a.5.5,0,0,1-.5-.5V247a.5.5,0,0,1,.5-.5.51.51,0,0,1,.5.5v4.58A.51.51,0,0,1,242.13,252Z" fill="#d1d3d4"/><path d="M245.5,252a.51.51,0,0,1-.5-.5V247a.51.51,0,0,1,.5-.5.5.5,0,0,1,.5.5v4.58A.5.5,0,0,1,245.5,252Z" fill="#d1d3d4"/><path d="M248.88,252a.51.51,0,0,1-.5-.5V247a.51.51,0,0,1,.5-.5.5.5,0,0,1,.5.5v4.58A.5.5,0,0,1,248.88,252Z" fill="#d1d3d4"/><rect x="218.05" y="238.45" width="29.56" height="7.2" rx="1.2" fill="#fff"/><path d="M246.42,246.14H219.25a1.7,1.7,0,0,1-1.7-1.7v-4.79a1.7,1.7,0,0,1,1.7-1.7h27.17a1.7,1.7,0,0,1,1.7,1.7v4.79A1.7,1.7,0,0,1,246.42,246.14ZM219.25,239a.7.7,0,0,0-.7.7v4.79a.7.7,0,0,0,.7.7h27.17a.7.7,0,0,0,.7-.7v-4.79a.7.7,0,0,0-.7-.7Z" fill="#231f20"/><path d="M221,244.84a.5.5,0,0,1-.5-.5v-4.57a.5.5,0,1,1,1,0v4.57A.5.5,0,0,1,221,244.84Z" fill="#d1d3d4"/><path d="M224.39,244.84a.5.5,0,0,1-.5-.5v-4.57a.5.5,0,0,1,.5-.5.5.5,0,0,1,.5.5v4.57A.5.5,0,0,1,224.39,244.84Z" fill="#d1d3d4"/><path d="M227.77,244.84a.5.5,0,0,1-.5-.5v-4.57a.5.5,0,0,1,.5-.5.5.5,0,0,1,.5.5v4.57A.5.5,0,0,1,227.77,244.84Z" fill="#d1d3d4"/><path d="M231.14,244.84a.5.5,0,0,1-.5-.5v-4.57a.5.5,0,0,1,.5-.5.5.5,0,0,1,.5.5v4.57A.5.5,0,0,1,231.14,244.84Z" fill="#d1d3d4"/><path d="M234.52,244.84a.5.5,0,0,1-.5-.5v-4.57a.5.5,0,0,1,.5-.5.5.5,0,0,1,.5.5v4.57A.5.5,0,0,1,234.52,244.84Z" fill="#d1d3d4"/><path d="M237.9,244.84a.5.5,0,0,1-.5-.5v-4.57a.5.5,0,0,1,.5-.5.5.5,0,0,1,.5.5v4.57A.5.5,0,0,1,237.9,244.84Z" fill="#d1d3d4"/><path d="M241.28,244.84a.5.5,0,0,1-.5-.5v-4.57a.5.5,0,0,1,1,0v4.57A.5.5,0,0,1,241.28,244.84Z" fill="#d1d3d4"/><path d="M244.66,244.84a.5.5,0,0,1-.5-.5v-4.57a.5.5,0,0,1,1,0v4.57A.5.5,0,0,1,244.66,244.84Z" fill="#d1d3d4"/><rect x="222.28" y="231.25" width="29.56" height="7.2" rx="1.2" fill="#fff"/><path d="M250.64,239H223.48a1.71,1.71,0,0,1-1.7-1.71v-4.79a1.7,1.7,0,0,1,1.7-1.7h27.16a1.7,1.7,0,0,1,1.7,1.7v4.79A1.71,1.71,0,0,1,250.64,239Zm-27.16-7.2a.7.7,0,0,0-.7.7v4.79a.7.7,0,0,0,.7.71h27.16a.7.7,0,0,0,.7-.71v-4.79a.7.7,0,0,0-.7-.7Z" fill="#231f20"/><path d="M225.23,237.64a.5.5,0,0,1-.5-.5v-4.57a.5.5,0,0,1,.5-.5.5.5,0,0,1,.5.5v4.57A.5.5,0,0,1,225.23,237.64Z" fill="#d1d3d4"/><path d="M228.61,237.64a.5.5,0,0,1-.5-.5v-4.57a.5.5,0,0,1,1,0v4.57A.5.5,0,0,1,228.61,237.64Z" fill="#d1d3d4"/><path d="M232,237.64a.5.5,0,0,1-.5-.5v-4.57a.5.5,0,0,1,1,0v4.57A.5.5,0,0,1,232,237.64Z" fill="#d1d3d4"/><path d="M235.37,237.64a.5.5,0,0,1-.5-.5v-4.57a.5.5,0,0,1,.5-.5.5.5,0,0,1,.5.5v4.57A.5.5,0,0,1,235.37,237.64Z" fill="#d1d3d4"/><path d="M238.75,237.64a.5.5,0,0,1-.5-.5v-4.57a.5.5,0,0,1,.5-.5.5.5,0,0,1,.5.5v4.57A.5.5,0,0,1,238.75,237.64Z" fill="#d1d3d4"/><path d="M242.13,237.64a.5.5,0,0,1-.5-.5v-4.57a.5.5,0,0,1,.5-.5.5.5,0,0,1,.5.5v4.57A.5.5,0,0,1,242.13,237.64Z" fill="#d1d3d4"/><path d="M245.5,237.64a.5.5,0,0,1-.5-.5v-4.57a.5.5,0,0,1,.5-.5.5.5,0,0,1,.5.5v4.57A.5.5,0,0,1,245.5,237.64Z" fill="#d1d3d4"/><path d="M248.88,237.64a.5.5,0,0,1-.5-.5v-4.57a.5.5,0,0,1,.5-.5.5.5,0,0,1,.5.5v4.57A.5.5,0,0,1,248.88,237.64Z" fill="#d1d3d4"/><rect x="140.45" y="260.04" width="29.56" height="7.2" rx="1.2" fill="#fff"/><path d="M168.81,267.74H141.65A1.71,1.71,0,0,1,140,266v-4.79a1.7,1.7,0,0,1,1.7-1.7h27.16a1.7,1.7,0,0,1,1.7,1.7V266A1.71,1.71,0,0,1,168.81,267.74Zm-27.16-7.2a.7.7,0,0,0-.7.7V266a.71.71,0,0,0,.7.71h27.16a.7.7,0,0,0,.7-.71v-4.79a.7.7,0,0,0-.7-.7Z" fill="#231f20"/><path d="M143.41,266.43a.5.5,0,0,1-.5-.5v-4.57a.5.5,0,0,1,.5-.5.5.5,0,0,1,.5.5v4.57A.5.5,0,0,1,143.41,266.43Z" fill="#d1d3d4"/><path d="M146.79,266.43a.5.5,0,0,1-.5-.5v-4.57a.5.5,0,0,1,.5-.5.5.5,0,0,1,.5.5v4.57A.5.5,0,0,1,146.79,266.43Z" fill="#d1d3d4"/><path d="M150.16,266.43a.5.5,0,0,1-.5-.5v-4.57a.5.5,0,0,1,.5-.5.5.5,0,0,1,.5.5v4.57A.5.5,0,0,1,150.16,266.43Z" fill="#d1d3d4"/><path d="M153.54,266.43a.5.5,0,0,1-.5-.5v-4.57a.5.5,0,0,1,.5-.5.5.5,0,0,1,.5.5v4.57A.5.5,0,0,1,153.54,266.43Z" fill="#d1d3d4"/><path d="M156.92,266.43a.5.5,0,0,1-.5-.5v-4.57a.5.5,0,0,1,.5-.5.5.5,0,0,1,.5.5v4.57A.5.5,0,0,1,156.92,266.43Z" fill="#d1d3d4"/><path d="M160.3,266.43a.5.5,0,0,1-.5-.5v-4.57a.5.5,0,0,1,1,0v4.57A.5.5,0,0,1,160.3,266.43Z" fill="#d1d3d4"/><path d="M163.68,266.43a.5.5,0,0,1-.5-.5v-4.57a.5.5,0,0,1,1,0v4.57A.5.5,0,0,1,163.68,266.43Z" fill="#d1d3d4"/><path d="M167.06,266.43a.5.5,0,0,1-.5-.5v-4.57a.5.5,0,0,1,.5-.5.5.5,0,0,1,.5.5v4.57A.5.5,0,0,1,167.06,266.43Z" fill="#d1d3d4"/><rect x="134.96" y="252.84" width="29.56" height="7.2" rx="1.2" fill="#fff"/><path d="M163.32,260.54H136.16a1.7,1.7,0,0,1-1.7-1.7V254a1.7,1.7,0,0,1,1.7-1.7h27.16A1.7,1.7,0,0,1,165,254v4.8A1.7,1.7,0,0,1,163.32,260.54Zm-27.16-7.2a.7.7,0,0,0-.7.7v4.8a.7.7,0,0,0,.7.7h27.16a.7.7,0,0,0,.7-.7V254a.7.7,0,0,0-.7-.7Z" fill="#231f20"/><path d="M137.92,259.24a.5.5,0,0,1-.5-.5v-4.58a.5.5,0,0,1,.5-.5.5.5,0,0,1,.5.5v4.58A.51.51,0,0,1,137.92,259.24Z" fill="#d1d3d4"/><path d="M141.29,259.24a.51.51,0,0,1-.5-.5v-4.58a.5.5,0,0,1,.5-.5.5.5,0,0,1,.5.5v4.58A.5.5,0,0,1,141.29,259.24Z" fill="#d1d3d4"/><path d="M144.67,259.24a.51.51,0,0,1-.5-.5v-4.58a.5.5,0,0,1,.5-.5.5.5,0,0,1,.5.5v4.58A.5.5,0,0,1,144.67,259.24Z" fill="#d1d3d4"/><path d="M148.05,259.24a.51.51,0,0,1-.5-.5v-4.58a.5.5,0,0,1,.5-.5.5.5,0,0,1,.5.5v4.58A.5.5,0,0,1,148.05,259.24Z" fill="#d1d3d4"/><path d="M151.43,259.24a.5.5,0,0,1-.5-.5v-4.58a.5.5,0,0,1,1,0v4.58A.5.5,0,0,1,151.43,259.24Z" fill="#d1d3d4"/><path d="M154.81,259.24a.5.5,0,0,1-.5-.5v-4.58a.5.5,0,0,1,1,0v4.58A.5.5,0,0,1,154.81,259.24Z" fill="#d1d3d4"/><path d="M158.19,259.24a.5.5,0,0,1-.5-.5v-4.58a.5.5,0,0,1,.5-.5.5.5,0,0,1,.5.5v4.58A.51.51,0,0,1,158.19,259.24Z" fill="#d1d3d4"/><path d="M161.57,259.24a.5.5,0,0,1-.5-.5v-4.58a.5.5,0,0,1,.5-.5.5.5,0,0,1,.5.5v4.58A.51.51,0,0,1,161.57,259.24Z" fill="#d1d3d4"/><path d="M209.06,239a.5.5,0,0,1-.5-.47c-.76-10.73-2.79-38.83-3-39.93a.51.51,0,0,1,.35-.6.48.48,0,0,1,.61.31c.28.86,2.61,33.6,3.08,40.15a.5.5,0,0,1-.47.54Z" fill="#d1d3d4"/><path d="M202.7,181.85a.49.49,0,0,1-.5-.48l-.6-18.78a.51.51,0,0,1,.49-.51.5.5,0,0,1,.51.48l.6,18.77a.51.51,0,0,1-.49.52Z" fill="#d1d3d4"/><path d="M177.14,168.15a.52.52,0,0,1-.38-.17l-9-10.14a.5.5,0,0,1,0-.7.5.5,0,0,1,.71,0l9,10.13a.51.51,0,0,1,0,.71A.5.5,0,0,1,177.14,168.15Z" fill="#d1d3d4"/><path d="M197.65,266.43a.51.51,0,0,1-.5-.47c-.77-16.68-2.48-43.28-3.93-46.77-1.17,2.77-1.72,21.46-1.64,38.51a.49.49,0,0,1-.49.5h0a.51.51,0,0,1-.5-.5c0-9,0-38.31,2.32-39.66a.63.63,0,0,1,.66,0c2.27,1.23,4.09,37,4.59,47.88a.49.49,0,0,1-.47.52Z" fill="#d1d3d4"/><path d="M196.39,191.66a.5.5,0,0,1-.5-.5V182.8a.51.51,0,0,1,.5-.5.5.5,0,0,1,.5.5v8.36A.5.5,0,0,1,196.39,191.66Z" fill="#d1d3d4"/><circle cx="139.52" cy="93.99" r="15.96" fill="#fff"/><path d="M139.52,110.46A16.47,16.47,0,1,1,156,94,16.49,16.49,0,0,1,139.52,110.46Zm0-31.93A15.47,15.47,0,1,0,155,94,15.49,15.49,0,0,0,139.52,78.53Z" fill="#231f20"/><path d="M139.52,107.25A13.26,13.26,0,1,1,152.78,94,13.27,13.27,0,0,1,139.52,107.25Zm0-25.52A12.26,12.26,0,1,0,151.78,94,12.27,12.27,0,0,0,139.52,81.73Z" fill="#d1d3d4"/><path d="M140.13,100.53v1.75h-1.39v-1.82c-2.77-.31-4.73-1.78-5.17-4.48l3-.53a2.75,2.75,0,0,0,2.19,2.4v-3c-2.32-.58-4.88-1.34-4.88-3.8,0-2.22,1.93-3.7,4.88-3.81V85.71h1.39v1.62c2.56.3,4.36,1.73,4.85,3.78l-3,.65a2.52,2.52,0,0,0-1.89-1.8v2.52c2.41.54,5.33,1.33,5.33,4.18C145.46,98.93,143.45,100.48,140.13,100.53Zm-1.39-8.36V89.85c-1.11.05-1.8.49-1.8,1.19S137.7,91.9,138.74,92.17Zm3.64,4.54c0-.77-1-1.15-2.25-1.49V98C141.63,97.94,142.38,97.43,142.38,96.71Z" fill="#70a9a1"/><circle cx="253.11" cy="57.2" r="15.96" fill="#fff"/><path d="M253.11,73.66A16.47,16.47,0,1,1,269.57,57.2,16.48,16.48,0,0,1,253.11,73.66Zm0-31.93A15.47,15.47,0,1,0,268.57,57.2,15.49,15.49,0,0,0,253.11,41.73Z" fill="#231f20"/><path d="M253.11,70.46A13.26,13.26,0,1,1,266.37,57.2,13.27,13.27,0,0,1,253.11,70.46Zm0-25.52A12.26,12.26,0,1,0,265.37,57.2,12.27,12.27,0,0,0,253.11,44.94Z" fill="#d1d3d4"/><path d="M253.72,63.74v1.75h-1.39V63.67c-2.77-.31-4.74-1.79-5.17-4.49l3-.52a2.77,2.77,0,0,0,2.2,2.39v-3c-2.32-.58-4.88-1.33-4.88-3.8,0-2.22,1.93-3.69,4.88-3.8V48.91h1.39v1.62c2.56.31,4.36,1.73,4.85,3.79l-3,.64a2.57,2.57,0,0,0-1.89-1.8v2.53c2.41.54,5.33,1.33,5.33,4.17C259.05,62.13,257,63.68,253.72,63.74Zm-1.39-8.36V53.06c-1.12,0-1.8.48-1.8,1.18S251.29,55.11,252.33,55.38ZM256,59.92c0-.78-1-1.15-2.25-1.5v2.76C255.21,61.14,256,60.64,256,59.92Z" fill="#70a9a1"/><circle cx="259.38" cy="133.33" r="15.96" fill="#fff"/><path d="M259.38,149.8a16.47,16.47,0,1,1,16.46-16.47A16.49,16.49,0,0,1,259.38,149.8Zm0-31.93a15.47,15.47,0,1,0,15.46,15.46A15.49,15.49,0,0,0,259.38,117.87Z" fill="#231f20"/><path d="M259.38,146.59a13.26,13.26,0,1,1,13.26-13.26A13.27,13.27,0,0,1,259.38,146.59Zm0-25.52a12.26,12.26,0,1,0,12.26,12.26A12.27,12.27,0,0,0,259.38,121.07Z" fill="#d1d3d4"/><path d="M260,139.87v1.75H258.6V139.8c-2.77-.31-4.74-1.78-5.17-4.49l3-.52a2.8,2.8,0,0,0,2.2,2.4v-3c-2.32-.57-4.88-1.33-4.88-3.8,0-2.21,1.93-3.69,4.88-3.8v-1.56H260v1.62c2.56.3,4.36,1.73,4.84,3.78l-2.95.65a2.54,2.54,0,0,0-1.89-1.8v2.52c2.41.54,5.33,1.33,5.33,4.18C265.32,138.27,263.3,139.82,260,139.87Zm-1.39-8.36v-2.32c-1.12.05-1.8.49-1.8,1.19S257.56,131.24,258.6,131.51Zm3.64,4.54c0-.77-1-1.15-2.25-1.49v2.75C261.48,137.28,262.24,136.77,262.24,136.05Z" fill="#70a9a1"/><circle cx="232.83" cy="100.63" r="11.84" fill="#fff"/><path d="M232.83,113a12.34,12.34,0,1,1,12.34-12.33A12.34,12.34,0,0,1,232.83,113Zm0-23.67a11.34,11.34,0,1,0,11.34,11.34A11.35,11.35,0,0,0,232.83,89.29Z" fill="#231f20"/><path d="M232.83,110.59a10,10,0,1,1,10-10A10,10,0,0,1,232.83,110.59Zm0-18.92a9,9,0,1,0,9,9A9,9,0,0,0,232.83,91.67Z" fill="#d1d3d4"/><path d="M233.29,105.47v1.3h-1v-1.35a3.92,3.92,0,0,1-3.83-3.33l2.2-.38a2,2,0,0,0,1.63,1.77v-2.2c-1.72-.43-3.62-1-3.62-2.82,0-1.64,1.43-2.74,3.62-2.82V94.48h1v1.2a3.88,3.88,0,0,1,3.59,2.81l-2.19.48a1.9,1.9,0,0,0-1.4-1.34V99.5c1.79.4,4,1,4,3.1C237.24,104.28,235.75,105.43,233.29,105.47Zm-1-6.19V97.55c-.83,0-1.34.36-1.34.89S231.49,99.08,232.26,99.28Zm2.7,3.36c0-.57-.72-.85-1.67-1.11v2C234.4,103.55,235,103.18,235,102.64Z" fill="#70a9a1"/><circle cx="169.14" cy="143.76" r="10.11" fill="#fff"/><path d="M169.15,154.37a10.61,10.61,0,1,1,10.61-10.61A10.62,10.62,0,0,1,169.15,154.37Zm0-20.22a9.61,9.61,0,1,0,9.61,9.61A9.63,9.63,0,0,0,169.15,134.15Z" fill="#231f20"/><path d="M169.15,152.34a8.58,8.58,0,1,1,8.58-8.58A8.59,8.59,0,0,1,169.15,152.34Zm0-16.16a7.58,7.58,0,1,0,7.58,7.58A7.59,7.59,0,0,0,169.15,136.18Z" fill="#d1d3d4"/><path d="M169.53,147.9V149h-.88v-1.15a3.36,3.36,0,0,1-3.27-2.84l1.88-.34a1.75,1.75,0,0,0,1.39,1.52v-1.88c-1.47-.37-3.09-.84-3.09-2.41,0-1.4,1.22-2.34,3.09-2.4v-1h.88v1a3.3,3.3,0,0,1,3.07,2.4l-1.87.41a1.58,1.58,0,0,0-1.2-1.14v1.59c1.53.34,3.38.85,3.38,2.65C172.91,146.89,171.63,147.87,169.53,147.9Zm-.88-5.29v-1.47c-.7,0-1.14.3-1.14.75S168,142.44,168.65,142.61Zm2.31,2.87c0-.49-.62-.73-1.43-.94v1.74C170.48,146.26,171,145.94,171,145.48Z" fill="#70a9a1"/><path d="M156.26,42.07a179.67,179.67,0,0,0-16.58-15.48L127.26,39.26s13.21,4.23,17.59,13.52a18.57,18.57,0,0,1,4.94-6.86A17.94,17.94,0,0,1,156.26,42.07Z" fill="#fff"/><path d="M144.85,53.28a.49.49,0,0,1-.45-.29c-4.23-9-17.16-13.22-17.29-13.26a.49.49,0,0,1-.2-.82l12.41-12.67a.51.51,0,0,1,.68,0,181.86,181.86,0,0,1,16.63,15.53.5.5,0,0,1,.11.48.51.51,0,0,1-.35.35,17.53,17.53,0,0,0-6.27,3.74,18.21,18.21,0,0,0-4.8,6.65.51.51,0,0,1-.45.33ZM128.17,39c2.8,1,12.47,5,16.65,12.57a19.42,19.42,0,0,1,4.64-6.07,20.4,20.4,0,0,1,5.91-3.69,184.84,184.84,0,0,0-15.65-14.59Z" fill="#231f20"/><path d="M143.31,57.87h-.06a.5.5,0,0,1-.43-.56,16.69,16.69,0,0,1,1.59-4.76.5.5,0,0,1,.67-.22.51.51,0,0,1,.21.68,16.54,16.54,0,0,0-1.48,4.42A.5.5,0,0,1,143.31,57.87Z" fill="#231f20"/><path d="M156.26,42.57a.48.48,0,0,1-.48-.4.49.49,0,0,1,.38-.59,26,26,0,0,1,4.7-.48.5.5,0,0,1,.5.5.5.5,0,0,1-.5.5,25.57,25.57,0,0,0-4.49.46Z" fill="#231f20"/><path d="M143.16,151.36c-.57.19-6.2,5.82-8.07,14.08l-16.68-7.18a42,42,0,0,1,10.4-13.84s.39,1.55,4.65,4.22A21,21,0,0,0,143.16,151.36Z" fill="#fff"/><path d="M135.09,165.94a.45.45,0,0,1-.2,0l-16.68-7.18a.51.51,0,0,1-.27-.65,42.22,42.22,0,0,1,10.54-14,.52.52,0,0,1,.48-.1.5.5,0,0,1,.34.36s.49,1.45,4.42,3.92a20.73,20.73,0,0,0,9.44,2.64.5.5,0,0,1,.18,1,27.46,27.46,0,0,0-7.77,13.72.5.5,0,0,1-.26.34A.59.59,0,0,1,135.09,165.94Zm-16-7.94,15.67,6.75a29.89,29.89,0,0,1,7.15-13,20.6,20.6,0,0,1-8.7-2.72,15.09,15.09,0,0,1-4.52-3.85A42.58,42.58,0,0,0,119.07,158Z" fill="#231f20"/><path d="M128.81,144.92a.51.51,0,0,1-.42-.23,28.93,28.93,0,0,1-1.65-3.24.5.5,0,0,1,.25-.66.5.5,0,0,1,.66.26,30.2,30.2,0,0,0,1.58,3.1.49.49,0,0,1-.15.69A.5.5,0,0,1,128.81,144.92Z" fill="#231f20"/><path d="M143.16,151.86a.5.5,0,0,1-.5-.46.51.51,0,0,1,.46-.54,10.57,10.57,0,0,0,3.81-1.1.5.5,0,1,1,.51.86,11.56,11.56,0,0,1-4.24,1.24Z" fill="#231f20"/><path d="M310.56,96.7l-3.66,16.88c-5.11-4-15.75-5.81-19.34-6.34a13.43,13.43,0,0,0,.94-5.95,15.4,15.4,0,0,0-1.78-6.7C301.7,91.58,310.56,96.7,310.56,96.7Z" fill="#fff"/><path d="M306.9,114.08a.47.47,0,0,1-.3-.1c-5.08-3.93-15.91-5.77-19.11-6.24a.53.53,0,0,1-.36-.25.49.49,0,0,1,0-.44,13,13,0,0,0,.9-5.73,14.9,14.9,0,0,0-1.72-6.49.51.51,0,0,1,0-.45.52.52,0,0,1,.35-.28c15-3,23.82,2,24.19,2.17a.5.5,0,0,1,.24.54l-3.66,16.88a.5.5,0,0,1-.49.39Zm-18.64-7.24c3.7.58,13.16,2.35,18.32,5.89L310,97c-1.67-.83-9.85-4.39-22.52-2a16.15,16.15,0,0,1,1.53,6.31A14.4,14.4,0,0,1,288.26,106.84Z" fill="#231f20"/><path d="M283.71,112.3a.48.48,0,0,1-.44-.28.5.5,0,0,1,.22-.67,8.63,8.63,0,0,0,3.61-4.3,13,13,0,0,0,.9-5.73,14.9,14.9,0,0,0-1.72-6.49,10.6,10.6,0,0,0-3.56-4,.5.5,0,1,1,.49-.87,11.38,11.38,0,0,1,4,4.38,15.82,15.82,0,0,1,1.84,6.92,14,14,0,0,1-1,6.17,9.43,9.43,0,0,1-4.09,4.81A.42.42,0,0,1,283.71,112.3Z" fill="#231f20"/><path d="M209.1,60.28s-6.06,5.57-7.93,12.88c-3.71-2.61-9.33-4-12.85-4.61.16-2.51,1-9.42,4.69-14.84Z" fill="#fff"/><path d="M201.17,73.66a.47.47,0,0,1-.28-.09c-3.53-2.48-8.83-3.83-12.66-4.53a.5.5,0,0,1-.41-.52c.14-2.11.88-9.42,4.78-15.09a.5.5,0,0,1,.6-.18l16.09,6.57a.49.49,0,0,1,.15.83c-.06.06-6,5.56-7.78,12.64a.5.5,0,0,1-.31.34A.57.57,0,0,1,201.17,73.66Zm-12.32-5.52c3.68.7,8.51,2,12,4.22a30.26,30.26,0,0,1,7.33-11.9l-15-6.13C189.87,59.39,189.05,65.71,188.85,68.14Z" fill="#231f20"/><path d="M203.56,75.89a.47.47,0,0,1-.39-.2,10.45,10.45,0,0,0-2.28-2.12c-3.53-2.48-8.83-3.83-12.66-4.53-1.89-.34-3.19-.47-3.21-.47a.5.5,0,0,1-.44-.55.49.49,0,0,1,.54-.44c.06,0,1.35.13,3.29.48,3.92.71,9.37,2.11,13.05,4.69a11.12,11.12,0,0,1,2.5,2.34.49.49,0,0,1-.4.8Z" fill="#231f20"/><path d="M197.07,108.54a57.48,57.48,0,0,1-5.21,5.92A26.28,26.28,0,0,1,178,121.62l-7.3-10.27a40.58,40.58,0,0,0,15.65-10.23C189,104.15,192.56,107.28,197.07,108.54Z" fill="#fff"/><path d="M178,122.12a.46.46,0,0,1-.4-.21l-7.3-10.27a.47.47,0,0,1-.07-.44.49.49,0,0,1,.31-.32A40.23,40.23,0,0,0,186,100.77a.52.52,0,0,1,.38-.15.5.5,0,0,1,.36.18c3.24,3.78,6.76,6.22,10.47,7.26a.54.54,0,0,1,.34.32.5.5,0,0,1-.08.46,59.26,59.26,0,0,1-5.25,6,26.51,26.51,0,0,1-14.14,7.3ZM171.5,111.6l6.74,9.48a26.15,26.15,0,0,0,13.27-7,60,60,0,0,0,4.73-5.3,22.91,22.91,0,0,1-9.9-7A41.18,41.18,0,0,1,171.5,111.6Z" fill="#231f20"/><path d="M201.28,109.62a16.06,16.06,0,0,1-4.34-.6c-3.91-1.09-7.59-3.64-11-7.57a36.44,36.44,0,0,1-4.83-7.24.5.5,0,0,1,.91-.43,35.3,35.3,0,0,0,4.68,7c3.24,3.78,6.76,6.22,10.47,7.26a15.53,15.53,0,0,0,8.65-.12.5.5,0,0,1,.28,1A17.14,17.14,0,0,1,201.28,109.62Z" fill="#231f20"/><path d="M107.13,108.47c-8.37-4.15-17.69-1.7-17.69-1.7l1.69-11.55c9.55-1.22,15.19,1.17,17.75,2.75A19.35,19.35,0,0,0,107.13,108.47Z" fill="#fff"/><path d="M107.13,109a.46.46,0,0,1-.23,0c-8.09-4-17.25-1.69-17.34-1.66a.52.52,0,0,1-.46-.11.54.54,0,0,1-.16-.45l1.69-11.55a.49.49,0,0,1,.43-.42c9.74-1.25,15.51,1.23,18.08,2.82a.5.5,0,0,1,.19.64,18.83,18.83,0,0,0-1.71,10.23.48.48,0,0,1-.21.46A.47.47,0,0,1,107.13,109ZM96,105.54a26,26,0,0,1,10.56,2.11,19.76,19.76,0,0,1,1.67-9.48c-2.59-1.49-7.92-3.54-16.66-2.5L90,106.12A30.43,30.43,0,0,1,96,105.54Z" fill="#231f20"/><path d="M107.93,113.33a.5.5,0,0,1-.49-.37,25.77,25.77,0,0,1-.81-4.44,19.82,19.82,0,0,1,1.8-10.77,13.77,13.77,0,0,1,2.93-4.13.5.5,0,0,1,.7,0,.51.51,0,0,1,0,.71,13.16,13.16,0,0,0-2.69,3.82,18.83,18.83,0,0,0-1.71,10.23,24.93,24.93,0,0,0,.79,4.28.5.5,0,0,1-.35.61A.32.32,0,0,1,107.93,113.33Z" fill="#231f20"/><path d="M119.21,186.19s-11.74,13.59-21.43,10.65l6.41,13.52s11.59,3.5,21.4-13.52Z" fill="#fff"/><path d="M106.72,211.13a10.52,10.52,0,0,1-2.67-.29.49.49,0,0,1-.31-.27l-6.41-13.52a.51.51,0,0,1,.08-.54.48.48,0,0,1,.52-.15c9.26,2.82,20.79-10.36,20.9-10.49a.51.51,0,0,1,.43-.17.47.47,0,0,1,.38.24L126,196.58a.5.5,0,0,1,0,.5C119,209.35,110.83,211.13,106.72,211.13Zm-2.18-1.2a13.3,13.3,0,0,0,6.59-.45c3.62-1.11,9-4.22,13.88-12.64L119.13,187c-2.21,2.42-11.8,12.19-20.44,10.54Z" fill="#d1d3d4"/><path d="M275.62,201.88l-6.72,10.54s7.49,13.45,22.26,12.9L297,213.61S279.09,211.26,275.62,201.88Z" fill="#fff"/><path d="M290.3,225.84c-14.33,0-21.76-13-21.83-13.17a.51.51,0,0,1,0-.52l6.72-10.54a.5.5,0,0,1,.89.1c3.33,9,20.82,11.38,21,11.4a.52.52,0,0,1,.38.26.53.53,0,0,1,0,.46l-5.86,11.72a.48.48,0,0,1-.43.27Zm-20.81-13.41c1.11,1.81,8.4,12.71,21.36,12.4L296.27,214c-3.28-.52-16.92-3.15-20.74-11.05Z" fill="#d1d3d4"/><path d="M284.37,169.05a22,22,0,0,0,0-18.27l8.17-.59a34.31,34.31,0,0,1,1.13,18.86Z" fill="#fff"/><path d="M293.67,169.56h-9.3a.5.5,0,0,1-.42-.25.48.48,0,0,1,0-.48,21.7,21.7,0,0,0,0-17.84.52.52,0,0,1,0-.47.5.5,0,0,1,.4-.24l8.16-.59a.49.49,0,0,1,.5.3c.14.33,3.41,8.2,1.16,19.17A.51.51,0,0,1,293.67,169.56Zm-8.51-1h8.1a34.83,34.83,0,0,0-1.05-17.84l-7.09.5A22.43,22.43,0,0,1,285.16,168.56Z" fill="#d1d3d4"/></g></svg>